G04 #@! TF.GenerationSoftware,KiCad,Pcbnew,(5.1.12-1-10_14)*
G04 #@! TF.CreationDate,2022-06-10T21:35:17-05:00*
G04 #@! TF.ProjectId,Arduino_uno_sheild,41726475-696e-46f5-9f75-6e6f5f736865,rev?*
G04 #@! TF.SameCoordinates,Original*
G04 #@! TF.FileFunction,Soldermask,Bot*
G04 #@! TF.FilePolarity,Negative*
%FSLAX46Y46*%
G04 Gerber Fmt 4.6, Leading zero omitted, Abs format (unit mm)*
G04 Created by KiCad (PCBNEW (5.1.12-1-10_14)) date 2022-06-10 21:35:17*
%MOMM*%
%LPD*%
G01*
G04 APERTURE LIST*
%ADD10C,1.662000*%
%ADD11C,3.702000*%
%ADD12C,1.626000*%
%ADD13C,1.702000*%
%ADD14C,1.902000*%
G04 APERTURE END LIST*
D10*
X27940000Y2540000D03*
X30480000Y2540000D03*
X33020000Y2540000D03*
X35560000Y2540000D03*
X38100000Y2540000D03*
X40640000Y2540000D03*
X43180000Y2540000D03*
X45720000Y2540000D03*
X50800000Y2540000D03*
X53340000Y2540000D03*
X55880000Y2540000D03*
X58420000Y2540000D03*
X60960000Y2540000D03*
X63500000Y2540000D03*
X18796000Y50800000D03*
X21336000Y50800000D03*
X23876000Y50800000D03*
X26416000Y50800000D03*
X28956000Y50800000D03*
X31496000Y50800000D03*
X34036000Y50800000D03*
X36576000Y50800000D03*
X39116000Y50800000D03*
X41656000Y50800000D03*
X45720000Y50800000D03*
X48260000Y50800000D03*
X50800000Y50800000D03*
X53340000Y50800000D03*
X55880000Y50800000D03*
X58420000Y50800000D03*
X60960000Y50800000D03*
X63500000Y50800000D03*
D11*
X15240000Y50800000D03*
X66040000Y35560000D03*
X66040000Y7620000D03*
X13970000Y2540000D03*
D12*
X3860800Y15544800D03*
X3860800Y17544800D03*
X3860800Y19544800D03*
X3860800Y21544800D03*
X3860800Y23544800D03*
X3860800Y25544800D03*
D13*
X55524400Y21691600D03*
X52984400Y21691600D03*
X55524400Y24231600D03*
X52984400Y24231600D03*
X55524400Y26771600D03*
X52984400Y26771600D03*
X55524400Y29311600D03*
X52984400Y29311600D03*
X55524400Y31851600D03*
X52984400Y31851600D03*
X55524400Y34391600D03*
X52984400Y34391600D03*
X55524400Y36931600D03*
X52984400Y36931600D03*
X55524400Y39471600D03*
X52984400Y39471600D03*
X46355000Y10160000D03*
X48895000Y10160000D03*
X51435000Y10160000D03*
X53975000Y10160000D03*
X56515000Y10160000D03*
G36*
G01*
X59906000Y10960000D02*
X59906000Y9360000D01*
G75*
G02*
X59855000Y9309000I-51000J0D01*
G01*
X58255000Y9309000D01*
G75*
G02*
X58204000Y9360000I0J51000D01*
G01*
X58204000Y10960000D01*
G75*
G02*
X58255000Y11011000I51000J0D01*
G01*
X59855000Y11011000D01*
G75*
G02*
X59906000Y10960000I0J-51000D01*
G01*
G37*
X43180000Y10160000D03*
X40640000Y10160000D03*
X38100000Y10160000D03*
X35560000Y10160000D03*
X33020000Y10160000D03*
G36*
G01*
X29629000Y9360000D02*
X29629000Y10960000D01*
G75*
G02*
X29680000Y11011000I51000J0D01*
G01*
X31280000Y11011000D01*
G75*
G02*
X31331000Y10960000I0J-51000D01*
G01*
X31331000Y9360000D01*
G75*
G02*
X31280000Y9309000I-51000J0D01*
G01*
X29680000Y9309000D01*
G75*
G02*
X29629000Y9360000I0J51000D01*
G01*
G37*
X21336000Y40640000D03*
X23876000Y40640000D03*
X26416000Y40640000D03*
X28956000Y40640000D03*
X31496000Y40640000D03*
G36*
G01*
X34887000Y41440000D02*
X34887000Y39840000D01*
G75*
G02*
X34836000Y39789000I-51000J0D01*
G01*
X33236000Y39789000D01*
G75*
G02*
X33185000Y39840000I0J51000D01*
G01*
X33185000Y41440000D01*
G75*
G02*
X33236000Y41491000I51000J0D01*
G01*
X34836000Y41491000D01*
G75*
G02*
X34887000Y41440000I0J-51000D01*
G01*
G37*
D14*
X13365600Y15544800D03*
G36*
G01*
X17816600Y16444800D02*
X17816600Y14644800D01*
G75*
G02*
X17765600Y14593800I-51000J0D01*
G01*
X15965600Y14593800D01*
G75*
G02*
X15914600Y14644800I0J51000D01*
G01*
X15914600Y16444800D01*
G75*
G02*
X15965600Y16495800I51000J0D01*
G01*
X17765600Y16495800D01*
G75*
G02*
X17816600Y16444800I0J-51000D01*
G01*
G37*
M02*
