G04 #@! TF.GenerationSoftware,KiCad,Pcbnew,(5.1.12-1-10_14)*
G04 #@! TF.CreationDate,2022-06-10T21:35:17-05:00*
G04 #@! TF.ProjectId,Arduino_uno_sheild,41726475-696e-46f5-9f75-6e6f5f736865,rev?*
G04 #@! TF.SameCoordinates,Original*
G04 #@! TF.FileFunction,Copper,L1,Top*
G04 #@! TF.FilePolarity,Positive*
%FSLAX46Y46*%
G04 Gerber Fmt 4.6, Leading zero omitted, Abs format (unit mm)*
G04 Created by KiCad (PCBNEW (5.1.12-1-10_14)) date 2022-06-10 21:35:17*
%MOMM*%
%LPD*%
G01*
G04 APERTURE LIST*
G04 #@! TA.AperFunction,ComponentPad*
%ADD10C,1.560000*%
G04 #@! TD*
G04 #@! TA.AperFunction,WasherPad*
%ADD11C,3.600000*%
G04 #@! TD*
G04 #@! TA.AperFunction,ComponentPad*
%ADD12C,1.524000*%
G04 #@! TD*
G04 #@! TA.AperFunction,SMDPad,CuDef*
%ADD13R,1.000000X1.000000*%
G04 #@! TD*
G04 #@! TA.AperFunction,ComponentPad*
%ADD14C,1.600000*%
G04 #@! TD*
G04 #@! TA.AperFunction,ComponentPad*
%ADD15R,1.600000X1.600000*%
G04 #@! TD*
G04 #@! TA.AperFunction,ComponentPad*
%ADD16C,1.800000*%
G04 #@! TD*
G04 #@! TA.AperFunction,ComponentPad*
%ADD17R,1.800000X1.800000*%
G04 #@! TD*
G04 #@! TA.AperFunction,ViaPad*
%ADD18C,0.800000*%
G04 #@! TD*
G04 #@! TA.AperFunction,Conductor*
%ADD19C,0.250000*%
G04 #@! TD*
G04 #@! TA.AperFunction,Conductor*
%ADD20C,0.500000*%
G04 #@! TD*
G04 #@! TA.AperFunction,Conductor*
%ADD21C,0.254000*%
G04 #@! TD*
G04 #@! TA.AperFunction,Conductor*
%ADD22C,0.100000*%
G04 #@! TD*
G04 APERTURE END LIST*
D10*
X27940000Y2540000D03*
X30480000Y2540000D03*
X33020000Y2540000D03*
X35560000Y2540000D03*
X38100000Y2540000D03*
X40640000Y2540000D03*
X43180000Y2540000D03*
X45720000Y2540000D03*
X50800000Y2540000D03*
X53340000Y2540000D03*
X55880000Y2540000D03*
X58420000Y2540000D03*
X60960000Y2540000D03*
X63500000Y2540000D03*
X18796000Y50800000D03*
X21336000Y50800000D03*
X23876000Y50800000D03*
X26416000Y50800000D03*
X28956000Y50800000D03*
X31496000Y50800000D03*
X34036000Y50800000D03*
X36576000Y50800000D03*
X39116000Y50800000D03*
X41656000Y50800000D03*
X45720000Y50800000D03*
X48260000Y50800000D03*
X50800000Y50800000D03*
X53340000Y50800000D03*
X55880000Y50800000D03*
X58420000Y50800000D03*
X60960000Y50800000D03*
X63500000Y50800000D03*
D11*
X15240000Y50800000D03*
X66040000Y35560000D03*
X66040000Y7620000D03*
X13970000Y2540000D03*
D12*
X3860800Y15544800D03*
X3860800Y17544800D03*
X3860800Y19544800D03*
X3860800Y21544800D03*
X3860800Y23544800D03*
X3860800Y25544800D03*
D13*
X16319001Y39469999D03*
X16319500Y37465000D03*
X6591300Y35560000D03*
X6527800Y37528500D03*
X21501100Y5727700D03*
X21501100Y3886200D03*
X21501100Y7683500D03*
X6527800Y39433500D03*
D14*
X55524400Y21691600D03*
X52984400Y21691600D03*
X55524400Y24231600D03*
X52984400Y24231600D03*
X55524400Y26771600D03*
X52984400Y26771600D03*
X55524400Y29311600D03*
X52984400Y29311600D03*
X55524400Y31851600D03*
X52984400Y31851600D03*
X55524400Y34391600D03*
X52984400Y34391600D03*
X55524400Y36931600D03*
X52984400Y36931600D03*
X55524400Y39471600D03*
X52984400Y39471600D03*
X46355000Y10160000D03*
X48895000Y10160000D03*
X51435000Y10160000D03*
X53975000Y10160000D03*
X56515000Y10160000D03*
D15*
X59055000Y10160000D03*
D14*
X43180000Y10160000D03*
X40640000Y10160000D03*
X38100000Y10160000D03*
X35560000Y10160000D03*
X33020000Y10160000D03*
D15*
X30480000Y10160000D03*
D14*
X21336000Y40640000D03*
X23876000Y40640000D03*
X26416000Y40640000D03*
X28956000Y40640000D03*
X31496000Y40640000D03*
D15*
X34036000Y40640000D03*
D16*
X13365600Y15544800D03*
D17*
X16865600Y15544800D03*
D18*
X48564800Y44246800D03*
X13920200Y23544800D03*
X19635200Y29259800D03*
X38100000Y6096000D03*
X35560000Y5435600D03*
D19*
X56655770Y21691600D02*
X55524400Y21691600D01*
X60220038Y25255868D02*
X56655770Y21691600D01*
X60220038Y48999962D02*
X60220038Y25255868D01*
X58420000Y50800000D02*
X60220038Y48999962D01*
X59770029Y46909971D02*
X59770029Y26292829D01*
X55880000Y50800000D02*
X59770029Y46909971D01*
X53784399Y22491599D02*
X52984400Y21691600D01*
X54109401Y22816601D02*
X53784399Y22491599D01*
X56293801Y22816601D02*
X54109401Y22816601D01*
X59770029Y26292829D02*
X56293801Y22816601D01*
X53340000Y50800000D02*
X53340000Y45466000D01*
X54667990Y44138010D02*
X56293590Y44138010D01*
X53340000Y45466000D02*
X54667990Y44138010D01*
X56324399Y25031599D02*
X55524400Y24231600D01*
X59320020Y28027220D02*
X56324399Y25031599D01*
X59320020Y41111580D02*
X59320020Y28027220D01*
X56293590Y44138010D02*
X59320020Y41111580D01*
X56324399Y27571599D02*
X55524400Y26771600D01*
X50800000Y44704000D02*
X51823190Y43680810D01*
X51823190Y43680810D02*
X51830380Y43688000D01*
X58870010Y30117210D02*
X56324399Y27571599D01*
X51830380Y43688000D02*
X56086020Y43688000D01*
X56086020Y43688000D02*
X58870010Y40904010D01*
X50800000Y50800000D02*
X50800000Y44704000D01*
X58870010Y40904010D02*
X58870010Y30117210D01*
X48260000Y50800000D02*
X48260000Y44551600D01*
X48260000Y44551600D02*
X48564800Y44246800D01*
X45720000Y49696914D02*
X45770800Y49646114D01*
X45720000Y50800000D02*
X45720000Y49696914D01*
X45770800Y49646114D02*
X45770800Y44704000D01*
X45770800Y44704000D02*
X47244000Y43230800D01*
X55906810Y43230800D02*
X58420000Y40717610D01*
X47244000Y43230800D02*
X55906810Y43230800D01*
X58420000Y32207200D02*
X55524400Y29311600D01*
X58420000Y40717610D02*
X58420000Y32207200D01*
X42435999Y50020001D02*
X42435999Y47276801D01*
X41656000Y50800000D02*
X42435999Y50020001D01*
X42435999Y47276801D02*
X47040800Y42672000D01*
X47040800Y42672000D02*
X55829200Y42672000D01*
X55829200Y42672000D02*
X57810400Y40690800D01*
X57810400Y39217600D02*
X55524400Y36931600D01*
X57810400Y40690800D02*
X57810400Y39217600D01*
X39895999Y50020001D02*
X39895999Y48750001D01*
X39116000Y50800000D02*
X39895999Y50020001D01*
X39895999Y48750001D02*
X46685200Y41960800D01*
X53035200Y41960800D02*
X55524400Y39471600D01*
X46685200Y41960800D02*
X53035200Y41960800D01*
X51853030Y36931600D02*
X52984400Y36931600D01*
X49341314Y36931600D02*
X51853030Y36931600D01*
X36576000Y49696914D02*
X49341314Y36931600D01*
X36576000Y50800000D02*
X36576000Y49696914D01*
X34036000Y50800000D02*
X34036000Y40640000D01*
X31496000Y49696914D02*
X31496000Y40640000D01*
X31496000Y50800000D02*
X31496000Y49696914D01*
X28956000Y50800000D02*
X28956000Y40640000D01*
X26416000Y50800000D02*
X26416000Y40640000D01*
X23876000Y49696914D02*
X23876000Y40640000D01*
X23876000Y50800000D02*
X23876000Y49696914D01*
X3860800Y23544800D02*
X13920200Y23544800D01*
X13920200Y23544800D02*
X13920200Y23544800D01*
X19635200Y29259800D02*
X30430200Y29259800D01*
X30430200Y29259800D02*
X46355000Y13335000D01*
X46355000Y13335000D02*
X46355000Y10795000D01*
X48895000Y10160000D02*
X48895000Y9067800D01*
X59055000Y6985000D02*
X63500000Y2540000D01*
X59055000Y10160000D02*
X59055000Y6985000D01*
X56515000Y6985000D02*
X60960000Y2540000D01*
X56515000Y10160000D02*
X56515000Y6985000D01*
X53975000Y6985000D02*
X58420000Y2540000D01*
X53975000Y10160000D02*
X53975000Y6985000D01*
X5777800Y39433500D02*
X1473200Y35128900D01*
X6527800Y39433500D02*
X5777800Y39433500D01*
X1473200Y17932400D02*
X3860800Y15544800D01*
X1473200Y35128900D02*
X1473200Y17932400D01*
X37896800Y6299200D02*
X38100000Y6096000D01*
X37534315Y6096000D02*
X37331115Y6299200D01*
X38100000Y6096000D02*
X37534315Y6096000D01*
X37331115Y6299200D02*
X24536400Y6299200D01*
X23964900Y5727700D02*
X21501100Y5727700D01*
X24536400Y6299200D02*
X23964900Y5727700D01*
X21501100Y3886200D02*
X23088600Y3886200D01*
X24638000Y5435600D02*
X35560000Y5435600D01*
X23088600Y3886200D02*
X24638000Y5435600D01*
D20*
X3860800Y17544800D02*
X5352800Y17544800D01*
X5352800Y17544800D02*
X7162800Y19354800D01*
X16319500Y36715000D02*
X16319500Y37465000D01*
X16319500Y23768700D02*
X16319500Y36715000D01*
X11905600Y19354800D02*
X16319500Y23768700D01*
X14205600Y19354800D02*
X11734800Y19354800D01*
X16865600Y16694800D02*
X14205600Y19354800D01*
X16865600Y15544800D02*
X16865600Y16694800D01*
X7162800Y19354800D02*
X11734800Y19354800D01*
X11734800Y19354800D02*
X11905600Y19354800D01*
X16256000Y37528500D02*
X16319500Y37465000D01*
X6527800Y37528500D02*
X16256000Y37528500D01*
D21*
X13550228Y52553838D02*
X13348612Y52352222D01*
X13082131Y51953405D01*
X12898576Y51510263D01*
X12805000Y51039827D01*
X12805000Y50560173D01*
X12898576Y50089737D01*
X13082131Y49646595D01*
X13348612Y49247778D01*
X13687778Y48908612D01*
X14086595Y48642131D01*
X14529737Y48458576D01*
X15000173Y48365000D01*
X15479827Y48365000D01*
X15950263Y48458576D01*
X16393405Y48642131D01*
X16792222Y48908612D01*
X17131388Y49247778D01*
X17397869Y49646595D01*
X17576584Y50078052D01*
X17696897Y49897990D01*
X17893990Y49700897D01*
X18125746Y49546043D01*
X18383260Y49439377D01*
X18656635Y49385000D01*
X18935365Y49385000D01*
X19208740Y49439377D01*
X19466254Y49546043D01*
X19698010Y49700897D01*
X19895103Y49897990D01*
X20049957Y50129746D01*
X20066000Y50168477D01*
X20082043Y50129746D01*
X20236897Y49897990D01*
X20433990Y49700897D01*
X20665746Y49546043D01*
X20923260Y49439377D01*
X21196635Y49385000D01*
X21475365Y49385000D01*
X21748740Y49439377D01*
X22006254Y49546043D01*
X22238010Y49700897D01*
X22435103Y49897990D01*
X22589957Y50129746D01*
X22606000Y50168477D01*
X22622043Y50129746D01*
X22776897Y49897990D01*
X22973990Y49700897D01*
X23116000Y49606009D01*
X23116001Y41858044D01*
X22961241Y41754637D01*
X22761363Y41554759D01*
X22606000Y41322241D01*
X22450637Y41554759D01*
X22250759Y41754637D01*
X22015727Y41911680D01*
X21754574Y42019853D01*
X21477335Y42075000D01*
X21194665Y42075000D01*
X20917426Y42019853D01*
X20656273Y41911680D01*
X20421241Y41754637D01*
X20221363Y41554759D01*
X20064320Y41319727D01*
X19956147Y41058574D01*
X19901000Y40781335D01*
X19901000Y40498665D01*
X19956147Y40221426D01*
X20064320Y39960273D01*
X20221363Y39725241D01*
X20421241Y39525363D01*
X20656273Y39368320D01*
X20917426Y39260147D01*
X21194665Y39205000D01*
X21477335Y39205000D01*
X21754574Y39260147D01*
X22015727Y39368320D01*
X22250759Y39525363D01*
X22450637Y39725241D01*
X22606000Y39957759D01*
X22761363Y39725241D01*
X22961241Y39525363D01*
X23196273Y39368320D01*
X23457426Y39260147D01*
X23734665Y39205000D01*
X24017335Y39205000D01*
X24294574Y39260147D01*
X24555727Y39368320D01*
X24790759Y39525363D01*
X24912694Y39647298D01*
X25602903Y39647298D01*
X25674486Y39403329D01*
X25929996Y39282429D01*
X26204184Y39213700D01*
X26486512Y39199783D01*
X26766130Y39241213D01*
X27032292Y39336397D01*
X27157514Y39403329D01*
X27229097Y39647298D01*
X26416000Y40460395D01*
X25602903Y39647298D01*
X24912694Y39647298D01*
X24990637Y39725241D01*
X25146915Y39959128D01*
X25179329Y39898486D01*
X25423298Y39826903D01*
X26236395Y40640000D01*
X25423298Y41453097D01*
X25179329Y41381514D01*
X25148806Y41317008D01*
X25147680Y41319727D01*
X24990637Y41554759D01*
X24912694Y41632702D01*
X25602903Y41632702D01*
X26416000Y40819605D01*
X27229097Y41632702D01*
X27157514Y41876671D01*
X26902004Y41997571D01*
X26627816Y42066300D01*
X26345488Y42080217D01*
X26065870Y42038787D01*
X25799708Y41943603D01*
X25674486Y41876671D01*
X25602903Y41632702D01*
X24912694Y41632702D01*
X24790759Y41754637D01*
X24636000Y41858043D01*
X24636000Y49606009D01*
X24778010Y49700897D01*
X24898692Y49821579D01*
X25617184Y49821579D01*
X25686345Y49579651D01*
X25938443Y49460752D01*
X26208894Y49393319D01*
X26487303Y49379943D01*
X26762972Y49421140D01*
X27025308Y49515325D01*
X27145655Y49579651D01*
X27214816Y49821579D01*
X26416000Y50620395D01*
X25617184Y49821579D01*
X24898692Y49821579D01*
X24975103Y49897990D01*
X25129957Y50129746D01*
X25144777Y50165525D01*
X25195651Y50070345D01*
X25437579Y50001184D01*
X26236395Y50800000D01*
X26595605Y50800000D01*
X27394421Y50001184D01*
X27636349Y50070345D01*
X27684425Y50172279D01*
X27702043Y50129746D01*
X27856897Y49897990D01*
X28053990Y49700897D01*
X28196000Y49606009D01*
X28196001Y41858044D01*
X28041241Y41754637D01*
X27841363Y41554759D01*
X27685085Y41320872D01*
X27652671Y41381514D01*
X27408702Y41453097D01*
X26595605Y40640000D01*
X27408702Y39826903D01*
X27652671Y39898486D01*
X27683194Y39962992D01*
X27684320Y39960273D01*
X27841363Y39725241D01*
X28041241Y39525363D01*
X28276273Y39368320D01*
X28537426Y39260147D01*
X28814665Y39205000D01*
X29097335Y39205000D01*
X29374574Y39260147D01*
X29635727Y39368320D01*
X29870759Y39525363D01*
X30070637Y39725241D01*
X30226000Y39957759D01*
X30381363Y39725241D01*
X30581241Y39525363D01*
X30816273Y39368320D01*
X31077426Y39260147D01*
X31354665Y39205000D01*
X31637335Y39205000D01*
X31914574Y39260147D01*
X32175727Y39368320D01*
X32410759Y39525363D01*
X32609357Y39723961D01*
X32610188Y39715518D01*
X32646498Y39595820D01*
X32705463Y39485506D01*
X32784815Y39388815D01*
X32881506Y39309463D01*
X32991820Y39250498D01*
X33111518Y39214188D01*
X33236000Y39201928D01*
X34836000Y39201928D01*
X34960482Y39214188D01*
X35080180Y39250498D01*
X35190494Y39309463D01*
X35287185Y39388815D01*
X35366537Y39485506D01*
X35425502Y39595820D01*
X35461812Y39715518D01*
X35474072Y39840000D01*
X35474072Y41440000D01*
X35461812Y41564482D01*
X35425502Y41684180D01*
X35366537Y41794494D01*
X35287185Y41891185D01*
X35190494Y41970537D01*
X35080180Y42029502D01*
X34960482Y42065812D01*
X34836000Y42078072D01*
X34796000Y42078072D01*
X34796000Y49606009D01*
X34938010Y49700897D01*
X35135103Y49897990D01*
X35289957Y50129746D01*
X35306000Y50168477D01*
X35322043Y50129746D01*
X35476897Y49897990D01*
X35673990Y49700897D01*
X35821649Y49602234D01*
X35826998Y49547929D01*
X35870454Y49404668D01*
X35941026Y49272638D01*
X35982717Y49221838D01*
X36036000Y49156913D01*
X36064998Y49133115D01*
X48777515Y36420597D01*
X48801313Y36391599D01*
X48917038Y36296626D01*
X49049067Y36226054D01*
X49192328Y36182597D01*
X49303981Y36171600D01*
X49303990Y36171600D01*
X49341313Y36167924D01*
X49378636Y36171600D01*
X51766357Y36171600D01*
X51869763Y36016841D01*
X52069641Y35816963D01*
X52303528Y35660685D01*
X52242886Y35628271D01*
X52171303Y35384302D01*
X52984400Y34571205D01*
X53797497Y35384302D01*
X53725914Y35628271D01*
X53661408Y35658794D01*
X53664127Y35659920D01*
X53899159Y35816963D01*
X54099037Y36016841D01*
X54254400Y36249359D01*
X54409763Y36016841D01*
X54609641Y35816963D01*
X54842159Y35661600D01*
X54609641Y35506237D01*
X54409763Y35306359D01*
X54253485Y35072472D01*
X54221071Y35133114D01*
X53977102Y35204697D01*
X53164005Y34391600D01*
X53977102Y33578503D01*
X54221071Y33650086D01*
X54251594Y33714592D01*
X54252720Y33711873D01*
X54409763Y33476841D01*
X54609641Y33276963D01*
X54842159Y33121600D01*
X54609641Y32966237D01*
X54409763Y32766359D01*
X54254400Y32533841D01*
X54099037Y32766359D01*
X53899159Y32966237D01*
X53665272Y33122515D01*
X53725914Y33154929D01*
X53797497Y33398898D01*
X52984400Y34211995D01*
X52171303Y33398898D01*
X52242886Y33154929D01*
X52307392Y33124406D01*
X52304673Y33123280D01*
X52069641Y32966237D01*
X51869763Y32766359D01*
X51712720Y32531327D01*
X51604547Y32270174D01*
X51549400Y31992935D01*
X51549400Y31710265D01*
X51604547Y31433026D01*
X51712720Y31171873D01*
X51869763Y30936841D01*
X52069641Y30736963D01*
X52303528Y30580685D01*
X52242886Y30548271D01*
X52171303Y30304302D01*
X52984400Y29491205D01*
X53797497Y30304302D01*
X53725914Y30548271D01*
X53661408Y30578794D01*
X53664127Y30579920D01*
X53899159Y30736963D01*
X54099037Y30936841D01*
X54254400Y31169359D01*
X54409763Y30936841D01*
X54609641Y30736963D01*
X54842159Y30581600D01*
X54609641Y30426237D01*
X54409763Y30226359D01*
X54253485Y29992472D01*
X54221071Y30053114D01*
X53977102Y30124697D01*
X53164005Y29311600D01*
X53977102Y28498503D01*
X54221071Y28570086D01*
X54251594Y28634592D01*
X54252720Y28631873D01*
X54409763Y28396841D01*
X54609641Y28196963D01*
X54842159Y28041600D01*
X54609641Y27886237D01*
X54409763Y27686359D01*
X54254400Y27453841D01*
X54099037Y27686359D01*
X53899159Y27886237D01*
X53665272Y28042515D01*
X53725914Y28074929D01*
X53797497Y28318898D01*
X52984400Y29131995D01*
X52171303Y28318898D01*
X52242886Y28074929D01*
X52307392Y28044406D01*
X52304673Y28043280D01*
X52069641Y27886237D01*
X51869763Y27686359D01*
X51712720Y27451327D01*
X51604547Y27190174D01*
X51549400Y26912935D01*
X51549400Y26630265D01*
X51604547Y26353026D01*
X51712720Y26091873D01*
X51869763Y25856841D01*
X52069641Y25656963D01*
X52303528Y25500685D01*
X52242886Y25468271D01*
X52171303Y25224302D01*
X52984400Y24411205D01*
X53797497Y25224302D01*
X53725914Y25468271D01*
X53661408Y25498794D01*
X53664127Y25499920D01*
X53899159Y25656963D01*
X54099037Y25856841D01*
X54254400Y26089359D01*
X54409763Y25856841D01*
X54609641Y25656963D01*
X54842159Y25501600D01*
X54609641Y25346237D01*
X54409763Y25146359D01*
X54253485Y24912472D01*
X54221071Y24973114D01*
X53977102Y25044697D01*
X53164005Y24231600D01*
X53178148Y24217458D01*
X52998543Y24037853D01*
X52984400Y24051995D01*
X52171303Y23238898D01*
X52242886Y22994929D01*
X52307392Y22964406D01*
X52304673Y22963280D01*
X52069641Y22806237D01*
X51869763Y22606359D01*
X51712720Y22371327D01*
X51604547Y22110174D01*
X51549400Y21832935D01*
X51549400Y21550265D01*
X51604547Y21273026D01*
X51712720Y21011873D01*
X51869763Y20776841D01*
X52069641Y20576963D01*
X52304673Y20419920D01*
X52565826Y20311747D01*
X52843065Y20256600D01*
X53125735Y20256600D01*
X53402974Y20311747D01*
X53664127Y20419920D01*
X53899159Y20576963D01*
X54099037Y20776841D01*
X54254400Y21009359D01*
X54409763Y20776841D01*
X54609641Y20576963D01*
X54844673Y20419920D01*
X55105826Y20311747D01*
X55383065Y20256600D01*
X55665735Y20256600D01*
X55942974Y20311747D01*
X56204127Y20419920D01*
X56439159Y20576963D01*
X56639037Y20776841D01*
X56745919Y20936802D01*
X56804756Y20942597D01*
X56948017Y20986054D01*
X57080046Y21056626D01*
X57195771Y21151599D01*
X57219574Y21180603D01*
X60731041Y24692069D01*
X60760039Y24715867D01*
X60814974Y24782805D01*
X60855012Y24831591D01*
X60925584Y24963621D01*
X60946204Y25031598D01*
X60969041Y25106882D01*
X60980038Y25218535D01*
X60980038Y25218544D01*
X60983714Y25255867D01*
X60980038Y25293190D01*
X60980038Y48962640D01*
X60983714Y48999963D01*
X60980038Y49037286D01*
X60980038Y49037295D01*
X60969041Y49148948D01*
X60925584Y49292209D01*
X60875999Y49384975D01*
X60875986Y49385000D01*
X61099365Y49385000D01*
X61372740Y49439377D01*
X61630254Y49546043D01*
X61862010Y49700897D01*
X62059103Y49897990D01*
X62213957Y50129746D01*
X62230000Y50168477D01*
X62246043Y50129746D01*
X62400897Y49897990D01*
X62597990Y49700897D01*
X62829746Y49546043D01*
X63087260Y49439377D01*
X63360635Y49385000D01*
X63639365Y49385000D01*
X63912740Y49439377D01*
X64170254Y49546043D01*
X64402010Y49700897D01*
X64599103Y49897990D01*
X64753957Y50129746D01*
X64860623Y50387260D01*
X64915000Y50660635D01*
X64915000Y50939365D01*
X64860623Y51212740D01*
X64753957Y51470254D01*
X64599103Y51702010D01*
X64402010Y51899103D01*
X64170254Y52053957D01*
X63912740Y52160623D01*
X63639365Y52215000D01*
X63360635Y52215000D01*
X63087260Y52160623D01*
X62829746Y52053957D01*
X62597990Y51899103D01*
X62400897Y51702010D01*
X62246043Y51470254D01*
X62230000Y51431523D01*
X62213957Y51470254D01*
X62059103Y51702010D01*
X61862010Y51899103D01*
X61630254Y52053957D01*
X61372740Y52160623D01*
X61099365Y52215000D01*
X60820635Y52215000D01*
X60547260Y52160623D01*
X60289746Y52053957D01*
X60057990Y51899103D01*
X59860897Y51702010D01*
X59706043Y51470254D01*
X59690000Y51431523D01*
X59673957Y51470254D01*
X59519103Y51702010D01*
X59322010Y51899103D01*
X59090254Y52053957D01*
X58832740Y52160623D01*
X58559365Y52215000D01*
X58280635Y52215000D01*
X58007260Y52160623D01*
X57749746Y52053957D01*
X57517990Y51899103D01*
X57320897Y51702010D01*
X57166043Y51470254D01*
X57150000Y51431523D01*
X57133957Y51470254D01*
X56979103Y51702010D01*
X56782010Y51899103D01*
X56550254Y52053957D01*
X56292740Y52160623D01*
X56019365Y52215000D01*
X55740635Y52215000D01*
X55467260Y52160623D01*
X55209746Y52053957D01*
X54977990Y51899103D01*
X54780897Y51702010D01*
X54626043Y51470254D01*
X54610000Y51431523D01*
X54593957Y51470254D01*
X54439103Y51702010D01*
X54242010Y51899103D01*
X54010254Y52053957D01*
X53752740Y52160623D01*
X53479365Y52215000D01*
X53200635Y52215000D01*
X52927260Y52160623D01*
X52669746Y52053957D01*
X52437990Y51899103D01*
X52240897Y51702010D01*
X52086043Y51470254D01*
X52070000Y51431523D01*
X52053957Y51470254D01*
X51899103Y51702010D01*
X51702010Y51899103D01*
X51470254Y52053957D01*
X51212740Y52160623D01*
X50939365Y52215000D01*
X50660635Y52215000D01*
X50387260Y52160623D01*
X50129746Y52053957D01*
X49897990Y51899103D01*
X49700897Y51702010D01*
X49546043Y51470254D01*
X49530000Y51431523D01*
X49513957Y51470254D01*
X49359103Y51702010D01*
X49162010Y51899103D01*
X48930254Y52053957D01*
X48672740Y52160623D01*
X48399365Y52215000D01*
X48120635Y52215000D01*
X47847260Y52160623D01*
X47589746Y52053957D01*
X47357990Y51899103D01*
X47160897Y51702010D01*
X47006043Y51470254D01*
X46990000Y51431523D01*
X46973957Y51470254D01*
X46819103Y51702010D01*
X46622010Y51899103D01*
X46390254Y52053957D01*
X46132740Y52160623D01*
X45859365Y52215000D01*
X45580635Y52215000D01*
X45307260Y52160623D01*
X45049746Y52053957D01*
X44817990Y51899103D01*
X44620897Y51702010D01*
X44466043Y51470254D01*
X44359377Y51212740D01*
X44305000Y50939365D01*
X44305000Y50660635D01*
X44359377Y50387260D01*
X44466043Y50129746D01*
X44620897Y49897990D01*
X44817990Y49700897D01*
X44965649Y49602234D01*
X44970998Y49547929D01*
X45010800Y49416714D01*
X45010801Y45776801D01*
X43195999Y47591602D01*
X43195999Y49982679D01*
X43199675Y50020002D01*
X43195999Y50057325D01*
X43195999Y50057334D01*
X43185002Y50168987D01*
X43141545Y50312248D01*
X43070973Y50444277D01*
X43036355Y50486459D01*
X43071000Y50660635D01*
X43071000Y50939365D01*
X43016623Y51212740D01*
X42909957Y51470254D01*
X42755103Y51702010D01*
X42558010Y51899103D01*
X42326254Y52053957D01*
X42068740Y52160623D01*
X41795365Y52215000D01*
X41516635Y52215000D01*
X41243260Y52160623D01*
X40985746Y52053957D01*
X40753990Y51899103D01*
X40556897Y51702010D01*
X40402043Y51470254D01*
X40386000Y51431523D01*
X40369957Y51470254D01*
X40215103Y51702010D01*
X40018010Y51899103D01*
X39786254Y52053957D01*
X39528740Y52160623D01*
X39255365Y52215000D01*
X38976635Y52215000D01*
X38703260Y52160623D01*
X38445746Y52053957D01*
X38213990Y51899103D01*
X38016897Y51702010D01*
X37862043Y51470254D01*
X37846000Y51431523D01*
X37829957Y51470254D01*
X37675103Y51702010D01*
X37478010Y51899103D01*
X37246254Y52053957D01*
X36988740Y52160623D01*
X36715365Y52215000D01*
X36436635Y52215000D01*
X36163260Y52160623D01*
X35905746Y52053957D01*
X35673990Y51899103D01*
X35476897Y51702010D01*
X35322043Y51470254D01*
X35306000Y51431523D01*
X35289957Y51470254D01*
X35135103Y51702010D01*
X34938010Y51899103D01*
X34706254Y52053957D01*
X34448740Y52160623D01*
X34175365Y52215000D01*
X33896635Y52215000D01*
X33623260Y52160623D01*
X33365746Y52053957D01*
X33133990Y51899103D01*
X32936897Y51702010D01*
X32782043Y51470254D01*
X32766000Y51431523D01*
X32749957Y51470254D01*
X32595103Y51702010D01*
X32398010Y51899103D01*
X32166254Y52053957D01*
X31908740Y52160623D01*
X31635365Y52215000D01*
X31356635Y52215000D01*
X31083260Y52160623D01*
X30825746Y52053957D01*
X30593990Y51899103D01*
X30396897Y51702010D01*
X30242043Y51470254D01*
X30226000Y51431523D01*
X30209957Y51470254D01*
X30055103Y51702010D01*
X29858010Y51899103D01*
X29626254Y52053957D01*
X29368740Y52160623D01*
X29095365Y52215000D01*
X28816635Y52215000D01*
X28543260Y52160623D01*
X28285746Y52053957D01*
X28053990Y51899103D01*
X27856897Y51702010D01*
X27702043Y51470254D01*
X27687223Y51434475D01*
X27636349Y51529655D01*
X27394421Y51598816D01*
X26595605Y50800000D01*
X26236395Y50800000D01*
X25437579Y51598816D01*
X25195651Y51529655D01*
X25147575Y51427721D01*
X25129957Y51470254D01*
X24975103Y51702010D01*
X24898692Y51778421D01*
X25617184Y51778421D01*
X26416000Y50979605D01*
X27214816Y51778421D01*
X27145655Y52020349D01*
X26893557Y52139248D01*
X26623106Y52206681D01*
X26344697Y52220057D01*
X26069028Y52178860D01*
X25806692Y52084675D01*
X25686345Y52020349D01*
X25617184Y51778421D01*
X24898692Y51778421D01*
X24778010Y51899103D01*
X24546254Y52053957D01*
X24288740Y52160623D01*
X24015365Y52215000D01*
X23736635Y52215000D01*
X23463260Y52160623D01*
X23205746Y52053957D01*
X22973990Y51899103D01*
X22776897Y51702010D01*
X22622043Y51470254D01*
X22606000Y51431523D01*
X22589957Y51470254D01*
X22435103Y51702010D01*
X22238010Y51899103D01*
X22006254Y52053957D01*
X21748740Y52160623D01*
X21475365Y52215000D01*
X21196635Y52215000D01*
X20923260Y52160623D01*
X20665746Y52053957D01*
X20433990Y51899103D01*
X20236897Y51702010D01*
X20082043Y51470254D01*
X20066000Y51431523D01*
X20049957Y51470254D01*
X19895103Y51702010D01*
X19698010Y51899103D01*
X19466254Y52053957D01*
X19208740Y52160623D01*
X18935365Y52215000D01*
X18656635Y52215000D01*
X18383260Y52160623D01*
X18125746Y52053957D01*
X17893990Y51899103D01*
X17696897Y51702010D01*
X17576584Y51521948D01*
X17397869Y51953405D01*
X17131388Y52352222D01*
X16933088Y52550522D01*
X65132250Y52503268D01*
X65330000Y52325293D01*
X65330001Y40420885D01*
X65326565Y40386000D01*
X65340274Y40246816D01*
X65380872Y40112981D01*
X65404662Y40068474D01*
X65446801Y39989637D01*
X65535526Y39881525D01*
X65562617Y39859292D01*
X67870000Y37551908D01*
X67870000Y37173610D01*
X67592222Y37451388D01*
X67193405Y37717869D01*
X66750263Y37901424D01*
X66279827Y37995000D01*
X65800173Y37995000D01*
X65329737Y37901424D01*
X64886595Y37717869D01*
X64487778Y37451388D01*
X64148612Y37112222D01*
X63882131Y36713405D01*
X63698576Y36270263D01*
X63605000Y35799827D01*
X63605000Y35320173D01*
X63698576Y34849737D01*
X63882131Y34406595D01*
X64148612Y34007778D01*
X64487778Y33668612D01*
X64886595Y33402131D01*
X65329737Y33218576D01*
X65800173Y33125000D01*
X66279827Y33125000D01*
X66750263Y33218576D01*
X67193405Y33402131D01*
X67592222Y33668612D01*
X67870000Y33946390D01*
X67870001Y9233609D01*
X67592222Y9511388D01*
X67193405Y9777869D01*
X66750263Y9961424D01*
X66279827Y10055000D01*
X65800173Y10055000D01*
X65329737Y9961424D01*
X64886595Y9777869D01*
X64487778Y9511388D01*
X64148612Y9172222D01*
X63882131Y8773405D01*
X63698576Y8330263D01*
X63605000Y7859827D01*
X63605000Y7380173D01*
X63698576Y6909737D01*
X63882131Y6466595D01*
X64148612Y6067778D01*
X64487778Y5728612D01*
X64886595Y5462131D01*
X65329737Y5278576D01*
X65800173Y5185000D01*
X66279827Y5185000D01*
X66750263Y5278576D01*
X67193405Y5462131D01*
X67592222Y5728612D01*
X67870001Y6006391D01*
X67870001Y5374093D01*
X65562617Y3066708D01*
X65535525Y3044474D01*
X65446800Y2936362D01*
X65380872Y2813019D01*
X65340273Y2679183D01*
X65333588Y2611303D01*
X65326565Y2540000D01*
X65330000Y2505125D01*
X65330001Y887708D01*
X65132548Y710000D01*
X15583610Y710000D01*
X15861388Y987778D01*
X16127869Y1386595D01*
X16311424Y1829737D01*
X16405000Y2300173D01*
X16405000Y2679365D01*
X26525000Y2679365D01*
X26525000Y2400635D01*
X26579377Y2127260D01*
X26686043Y1869746D01*
X26840897Y1637990D01*
X27037990Y1440897D01*
X27269746Y1286043D01*
X27527260Y1179377D01*
X27800635Y1125000D01*
X28079365Y1125000D01*
X28352740Y1179377D01*
X28610254Y1286043D01*
X28842010Y1440897D01*
X29039103Y1637990D01*
X29193957Y1869746D01*
X29210000Y1908477D01*
X29226043Y1869746D01*
X29380897Y1637990D01*
X29577990Y1440897D01*
X29809746Y1286043D01*
X30067260Y1179377D01*
X30340635Y1125000D01*
X30619365Y1125000D01*
X30892740Y1179377D01*
X31150254Y1286043D01*
X31382010Y1440897D01*
X31579103Y1637990D01*
X31733957Y1869746D01*
X31750000Y1908477D01*
X31766043Y1869746D01*
X31920897Y1637990D01*
X32117990Y1440897D01*
X32349746Y1286043D01*
X32607260Y1179377D01*
X32880635Y1125000D01*
X33159365Y1125000D01*
X33432740Y1179377D01*
X33690254Y1286043D01*
X33922010Y1440897D01*
X34119103Y1637990D01*
X34273957Y1869746D01*
X34290000Y1908477D01*
X34306043Y1869746D01*
X34460897Y1637990D01*
X34657990Y1440897D01*
X34889746Y1286043D01*
X35147260Y1179377D01*
X35420635Y1125000D01*
X35699365Y1125000D01*
X35972740Y1179377D01*
X36230254Y1286043D01*
X36462010Y1440897D01*
X36659103Y1637990D01*
X36813957Y1869746D01*
X36830000Y1908477D01*
X36846043Y1869746D01*
X37000897Y1637990D01*
X37197990Y1440897D01*
X37429746Y1286043D01*
X37687260Y1179377D01*
X37960635Y1125000D01*
X38239365Y1125000D01*
X38512740Y1179377D01*
X38770254Y1286043D01*
X39002010Y1440897D01*
X39122692Y1561579D01*
X39841184Y1561579D01*
X39910345Y1319651D01*
X40162443Y1200752D01*
X40432894Y1133319D01*
X40711303Y1119943D01*
X40986972Y1161140D01*
X41249308Y1255325D01*
X41369655Y1319651D01*
X41438816Y1561579D01*
X42381184Y1561579D01*
X42450345Y1319651D01*
X42702443Y1200752D01*
X42972894Y1133319D01*
X43251303Y1119943D01*
X43526972Y1161140D01*
X43789308Y1255325D01*
X43909655Y1319651D01*
X43978816Y1561579D01*
X43180000Y2360395D01*
X42381184Y1561579D01*
X41438816Y1561579D01*
X40640000Y2360395D01*
X39841184Y1561579D01*
X39122692Y1561579D01*
X39199103Y1637990D01*
X39353957Y1869746D01*
X39368777Y1905525D01*
X39419651Y1810345D01*
X39661579Y1741184D01*
X40460395Y2540000D01*
X40819605Y2540000D01*
X41618421Y1741184D01*
X41860349Y1810345D01*
X41906898Y1909041D01*
X41959651Y1810345D01*
X42201579Y1741184D01*
X43000395Y2540000D01*
X43359605Y2540000D01*
X44158421Y1741184D01*
X44400349Y1810345D01*
X44448425Y1912279D01*
X44466043Y1869746D01*
X44620897Y1637990D01*
X44817990Y1440897D01*
X45049746Y1286043D01*
X45307260Y1179377D01*
X45580635Y1125000D01*
X45859365Y1125000D01*
X46132740Y1179377D01*
X46390254Y1286043D01*
X46622010Y1440897D01*
X46819103Y1637990D01*
X46973957Y1869746D01*
X47080623Y2127260D01*
X47135000Y2400635D01*
X47135000Y2679365D01*
X49385000Y2679365D01*
X49385000Y2400635D01*
X49439377Y2127260D01*
X49546043Y1869746D01*
X49700897Y1637990D01*
X49897990Y1440897D01*
X50129746Y1286043D01*
X50387260Y1179377D01*
X50660635Y1125000D01*
X50939365Y1125000D01*
X51212740Y1179377D01*
X51470254Y1286043D01*
X51702010Y1440897D01*
X51899103Y1637990D01*
X52053957Y1869746D01*
X52070000Y1908477D01*
X52086043Y1869746D01*
X52240897Y1637990D01*
X52437990Y1440897D01*
X52669746Y1286043D01*
X52927260Y1179377D01*
X53200635Y1125000D01*
X53479365Y1125000D01*
X53752740Y1179377D01*
X54010254Y1286043D01*
X54242010Y1440897D01*
X54439103Y1637990D01*
X54593957Y1869746D01*
X54610000Y1908477D01*
X54626043Y1869746D01*
X54780897Y1637990D01*
X54977990Y1440897D01*
X55209746Y1286043D01*
X55467260Y1179377D01*
X55740635Y1125000D01*
X56019365Y1125000D01*
X56292740Y1179377D01*
X56550254Y1286043D01*
X56782010Y1440897D01*
X56979103Y1637990D01*
X57133957Y1869746D01*
X57150000Y1908477D01*
X57166043Y1869746D01*
X57320897Y1637990D01*
X57517990Y1440897D01*
X57749746Y1286043D01*
X58007260Y1179377D01*
X58280635Y1125000D01*
X58559365Y1125000D01*
X58832740Y1179377D01*
X59090254Y1286043D01*
X59322010Y1440897D01*
X59519103Y1637990D01*
X59673957Y1869746D01*
X59690000Y1908477D01*
X59706043Y1869746D01*
X59860897Y1637990D01*
X60057990Y1440897D01*
X60289746Y1286043D01*
X60547260Y1179377D01*
X60820635Y1125000D01*
X61099365Y1125000D01*
X61372740Y1179377D01*
X61630254Y1286043D01*
X61862010Y1440897D01*
X62059103Y1637990D01*
X62213957Y1869746D01*
X62230000Y1908477D01*
X62246043Y1869746D01*
X62400897Y1637990D01*
X62597990Y1440897D01*
X62829746Y1286043D01*
X63087260Y1179377D01*
X63360635Y1125000D01*
X63639365Y1125000D01*
X63912740Y1179377D01*
X64170254Y1286043D01*
X64402010Y1440897D01*
X64599103Y1637990D01*
X64753957Y1869746D01*
X64860623Y2127260D01*
X64915000Y2400635D01*
X64915000Y2679365D01*
X64860623Y2952740D01*
X64753957Y3210254D01*
X64599103Y3442010D01*
X64402010Y3639103D01*
X64170254Y3793957D01*
X63912740Y3900623D01*
X63639365Y3955000D01*
X63360635Y3955000D01*
X63193122Y3921680D01*
X59815000Y7299801D01*
X59815000Y8721928D01*
X59855000Y8721928D01*
X59979482Y8734188D01*
X60099180Y8770498D01*
X60209494Y8829463D01*
X60306185Y8908815D01*
X60385537Y9005506D01*
X60444502Y9115820D01*
X60480812Y9235518D01*
X60493072Y9360000D01*
X60493072Y10960000D01*
X60480812Y11084482D01*
X60444502Y11204180D01*
X60385537Y11314494D01*
X60306185Y11411185D01*
X60209494Y11490537D01*
X60099180Y11549502D01*
X59979482Y11585812D01*
X59855000Y11598072D01*
X58255000Y11598072D01*
X58130518Y11585812D01*
X58010820Y11549502D01*
X57900506Y11490537D01*
X57803815Y11411185D01*
X57724463Y11314494D01*
X57665498Y11204180D01*
X57629188Y11084482D01*
X57628357Y11076039D01*
X57429759Y11274637D01*
X57194727Y11431680D01*
X56933574Y11539853D01*
X56656335Y11595000D01*
X56373665Y11595000D01*
X56096426Y11539853D01*
X55835273Y11431680D01*
X55600241Y11274637D01*
X55400363Y11074759D01*
X55245000Y10842241D01*
X55089637Y11074759D01*
X54889759Y11274637D01*
X54654727Y11431680D01*
X54393574Y11539853D01*
X54116335Y11595000D01*
X53833665Y11595000D01*
X53556426Y11539853D01*
X53295273Y11431680D01*
X53060241Y11274637D01*
X52860363Y11074759D01*
X52704085Y10840872D01*
X52671671Y10901514D01*
X52427702Y10973097D01*
X51614605Y10160000D01*
X52427702Y9346903D01*
X52671671Y9418486D01*
X52702194Y9482992D01*
X52703320Y9480273D01*
X52860363Y9245241D01*
X53060241Y9045363D01*
X53215000Y8941956D01*
X53215001Y7022332D01*
X53211324Y6985000D01*
X53215001Y6947667D01*
X53225998Y6836014D01*
X53236454Y6801546D01*
X53269454Y6692754D01*
X53340026Y6560724D01*
X53399956Y6487700D01*
X53435000Y6444999D01*
X53463998Y6421201D01*
X55930198Y3955000D01*
X55740635Y3955000D01*
X55467260Y3900623D01*
X55209746Y3793957D01*
X54977990Y3639103D01*
X54780897Y3442010D01*
X54626043Y3210254D01*
X54610000Y3171523D01*
X54593957Y3210254D01*
X54439103Y3442010D01*
X54242010Y3639103D01*
X54010254Y3793957D01*
X53752740Y3900623D01*
X53479365Y3955000D01*
X53200635Y3955000D01*
X52927260Y3900623D01*
X52669746Y3793957D01*
X52437990Y3639103D01*
X52240897Y3442010D01*
X52086043Y3210254D01*
X52070000Y3171523D01*
X52053957Y3210254D01*
X51899103Y3442010D01*
X51702010Y3639103D01*
X51470254Y3793957D01*
X51212740Y3900623D01*
X50939365Y3955000D01*
X50660635Y3955000D01*
X50387260Y3900623D01*
X50129746Y3793957D01*
X49897990Y3639103D01*
X49700897Y3442010D01*
X49546043Y3210254D01*
X49439377Y2952740D01*
X49385000Y2679365D01*
X47135000Y2679365D01*
X47080623Y2952740D01*
X46973957Y3210254D01*
X46819103Y3442010D01*
X46622010Y3639103D01*
X46390254Y3793957D01*
X46132740Y3900623D01*
X45859365Y3955000D01*
X45580635Y3955000D01*
X45307260Y3900623D01*
X45049746Y3793957D01*
X44817990Y3639103D01*
X44620897Y3442010D01*
X44466043Y3210254D01*
X44451223Y3174475D01*
X44400349Y3269655D01*
X44158421Y3338816D01*
X43359605Y2540000D01*
X43000395Y2540000D01*
X42201579Y3338816D01*
X41959651Y3269655D01*
X41913102Y3170959D01*
X41860349Y3269655D01*
X41618421Y3338816D01*
X40819605Y2540000D01*
X40460395Y2540000D01*
X39661579Y3338816D01*
X39419651Y3269655D01*
X39371575Y3167721D01*
X39353957Y3210254D01*
X39199103Y3442010D01*
X39122692Y3518421D01*
X39841184Y3518421D01*
X40640000Y2719605D01*
X41438816Y3518421D01*
X42381184Y3518421D01*
X43180000Y2719605D01*
X43978816Y3518421D01*
X43909655Y3760349D01*
X43657557Y3879248D01*
X43387106Y3946681D01*
X43108697Y3960057D01*
X42833028Y3918860D01*
X42570692Y3824675D01*
X42450345Y3760349D01*
X42381184Y3518421D01*
X41438816Y3518421D01*
X41369655Y3760349D01*
X41117557Y3879248D01*
X40847106Y3946681D01*
X40568697Y3960057D01*
X40293028Y3918860D01*
X40030692Y3824675D01*
X39910345Y3760349D01*
X39841184Y3518421D01*
X39122692Y3518421D01*
X39002010Y3639103D01*
X38770254Y3793957D01*
X38512740Y3900623D01*
X38239365Y3955000D01*
X37960635Y3955000D01*
X37687260Y3900623D01*
X37429746Y3793957D01*
X37197990Y3639103D01*
X37000897Y3442010D01*
X36846043Y3210254D01*
X36830000Y3171523D01*
X36813957Y3210254D01*
X36659103Y3442010D01*
X36462010Y3639103D01*
X36230254Y3793957D01*
X35972740Y3900623D01*
X35699365Y3955000D01*
X35420635Y3955000D01*
X35147260Y3900623D01*
X34889746Y3793957D01*
X34657990Y3639103D01*
X34460897Y3442010D01*
X34306043Y3210254D01*
X34290000Y3171523D01*
X34273957Y3210254D01*
X34119103Y3442010D01*
X33922010Y3639103D01*
X33690254Y3793957D01*
X33432740Y3900623D01*
X33159365Y3955000D01*
X32880635Y3955000D01*
X32607260Y3900623D01*
X32349746Y3793957D01*
X32117990Y3639103D01*
X31920897Y3442010D01*
X31766043Y3210254D01*
X31750000Y3171523D01*
X31733957Y3210254D01*
X31579103Y3442010D01*
X31382010Y3639103D01*
X31150254Y3793957D01*
X30892740Y3900623D01*
X30619365Y3955000D01*
X30340635Y3955000D01*
X30067260Y3900623D01*
X29809746Y3793957D01*
X29577990Y3639103D01*
X29380897Y3442010D01*
X29226043Y3210254D01*
X29210000Y3171523D01*
X29193957Y3210254D01*
X29039103Y3442010D01*
X28842010Y3639103D01*
X28610254Y3793957D01*
X28352740Y3900623D01*
X28079365Y3955000D01*
X27800635Y3955000D01*
X27527260Y3900623D01*
X27269746Y3793957D01*
X27037990Y3639103D01*
X26840897Y3442010D01*
X26686043Y3210254D01*
X26579377Y2952740D01*
X26525000Y2679365D01*
X16405000Y2679365D01*
X16405000Y2779827D01*
X16311424Y3250263D01*
X16127869Y3693405D01*
X15861388Y4092222D01*
X15522222Y4431388D01*
X15123405Y4697869D01*
X14680263Y4881424D01*
X14209827Y4975000D01*
X13730173Y4975000D01*
X13259737Y4881424D01*
X12816595Y4697869D01*
X12417778Y4431388D01*
X12078612Y4092222D01*
X11812131Y3693405D01*
X11628576Y3250263D01*
X11535000Y2779827D01*
X11535000Y2300173D01*
X11628576Y1829737D01*
X11812131Y1386595D01*
X12078612Y987778D01*
X12356390Y710000D01*
X929091Y710000D01*
X710000Y929091D01*
X710000Y7183500D01*
X20363028Y7183500D01*
X20375288Y7059018D01*
X20411598Y6939320D01*
X20470563Y6829006D01*
X20549915Y6732315D01*
X20582467Y6705600D01*
X20549915Y6678885D01*
X20470563Y6582194D01*
X20411598Y6471880D01*
X20375288Y6352182D01*
X20363028Y6227700D01*
X20363028Y5227700D01*
X20375288Y5103218D01*
X20411598Y4983520D01*
X20470563Y4873206D01*
X20524938Y4806950D01*
X20470563Y4740694D01*
X20411598Y4630380D01*
X20375288Y4510682D01*
X20363028Y4386200D01*
X20363028Y3386200D01*
X20375288Y3261718D01*
X20411598Y3142020D01*
X20470563Y3031706D01*
X20549915Y2935015D01*
X20646606Y2855663D01*
X20756920Y2796698D01*
X20876618Y2760388D01*
X21001100Y2748128D01*
X22001100Y2748128D01*
X22125582Y2760388D01*
X22245280Y2796698D01*
X22355594Y2855663D01*
X22452285Y2935015D01*
X22531637Y3031706D01*
X22582146Y3126200D01*
X23051278Y3126200D01*
X23088600Y3122524D01*
X23125922Y3126200D01*
X23125933Y3126200D01*
X23237586Y3137197D01*
X23380847Y3180654D01*
X23512876Y3251226D01*
X23628601Y3346199D01*
X23652403Y3375202D01*
X24952803Y4675600D01*
X34856289Y4675600D01*
X34900226Y4631663D01*
X35069744Y4518395D01*
X35258102Y4440374D01*
X35458061Y4400600D01*
X35661939Y4400600D01*
X35861898Y4440374D01*
X36050256Y4518395D01*
X36219774Y4631663D01*
X36363937Y4775826D01*
X36477205Y4945344D01*
X36555226Y5133702D01*
X36595000Y5333661D01*
X36595000Y5537539D01*
X36594670Y5539200D01*
X37014784Y5539200D01*
X37110039Y5461026D01*
X37242068Y5390454D01*
X37385276Y5347013D01*
X37440226Y5292063D01*
X37609744Y5178795D01*
X37798102Y5100774D01*
X37998061Y5061000D01*
X38201939Y5061000D01*
X38401898Y5100774D01*
X38590256Y5178795D01*
X38759774Y5292063D01*
X38903937Y5436226D01*
X39017205Y5605744D01*
X39095226Y5794102D01*
X39135000Y5994061D01*
X39135000Y6197939D01*
X39095226Y6397898D01*
X39017205Y6586256D01*
X38903937Y6755774D01*
X38759774Y6899937D01*
X38590256Y7013205D01*
X38401898Y7091226D01*
X38201939Y7131000D01*
X37998061Y7131000D01*
X37798102Y7091226D01*
X37609744Y7013205D01*
X37605289Y7010228D01*
X37480101Y7048203D01*
X37368448Y7059200D01*
X37368437Y7059200D01*
X37331115Y7062876D01*
X37293793Y7059200D01*
X24573722Y7059200D01*
X24536399Y7062876D01*
X24499076Y7059200D01*
X24499067Y7059200D01*
X24387414Y7048203D01*
X24244153Y7004746D01*
X24112123Y6934174D01*
X24082347Y6909737D01*
X23996399Y6839201D01*
X23972600Y6810202D01*
X23650099Y6487700D01*
X22582146Y6487700D01*
X22531637Y6582194D01*
X22452285Y6678885D01*
X22419733Y6705600D01*
X22452285Y6732315D01*
X22531637Y6829006D01*
X22590602Y6939320D01*
X22626912Y7059018D01*
X22639172Y7183500D01*
X22636100Y7397750D01*
X22477350Y7556500D01*
X21628100Y7556500D01*
X21628100Y7536500D01*
X21374100Y7536500D01*
X21374100Y7556500D01*
X20524850Y7556500D01*
X20366100Y7397750D01*
X20363028Y7183500D01*
X710000Y7183500D01*
X710000Y8183500D01*
X20363028Y8183500D01*
X20366100Y7969250D01*
X20524850Y7810500D01*
X21374100Y7810500D01*
X21374100Y8659750D01*
X21628100Y8659750D01*
X21628100Y7810500D01*
X22477350Y7810500D01*
X22636100Y7969250D01*
X22639172Y8183500D01*
X22626912Y8307982D01*
X22590602Y8427680D01*
X22531637Y8537994D01*
X22452285Y8634685D01*
X22355594Y8714037D01*
X22245280Y8773002D01*
X22125582Y8809312D01*
X22001100Y8821572D01*
X21786850Y8818500D01*
X21628100Y8659750D01*
X21374100Y8659750D01*
X21215350Y8818500D01*
X21001100Y8821572D01*
X20876618Y8809312D01*
X20756920Y8773002D01*
X20646606Y8714037D01*
X20549915Y8634685D01*
X20470563Y8537994D01*
X20411598Y8427680D01*
X20375288Y8307982D01*
X20363028Y8183500D01*
X710000Y8183500D01*
X710000Y10960000D01*
X29041928Y10960000D01*
X29041928Y9360000D01*
X29054188Y9235518D01*
X29090498Y9115820D01*
X29149463Y9005506D01*
X29228815Y8908815D01*
X29325506Y8829463D01*
X29435820Y8770498D01*
X29555518Y8734188D01*
X29680000Y8721928D01*
X31280000Y8721928D01*
X31404482Y8734188D01*
X31524180Y8770498D01*
X31634494Y8829463D01*
X31731185Y8908815D01*
X31810537Y9005506D01*
X31869502Y9115820D01*
X31905812Y9235518D01*
X31906643Y9243961D01*
X32105241Y9045363D01*
X32340273Y8888320D01*
X32601426Y8780147D01*
X32878665Y8725000D01*
X33161335Y8725000D01*
X33438574Y8780147D01*
X33699727Y8888320D01*
X33934759Y9045363D01*
X34134637Y9245241D01*
X34290000Y9477759D01*
X34445363Y9245241D01*
X34645241Y9045363D01*
X34880273Y8888320D01*
X35141426Y8780147D01*
X35418665Y8725000D01*
X35701335Y8725000D01*
X35978574Y8780147D01*
X36239727Y8888320D01*
X36474759Y9045363D01*
X36674637Y9245241D01*
X36830000Y9477759D01*
X36985363Y9245241D01*
X37185241Y9045363D01*
X37420273Y8888320D01*
X37681426Y8780147D01*
X37958665Y8725000D01*
X38241335Y8725000D01*
X38518574Y8780147D01*
X38779727Y8888320D01*
X39014759Y9045363D01*
X39136694Y9167298D01*
X39826903Y9167298D01*
X39898486Y8923329D01*
X40153996Y8802429D01*
X40428184Y8733700D01*
X40710512Y8719783D01*
X40990130Y8761213D01*
X41256292Y8856397D01*
X41381514Y8923329D01*
X41453097Y9167298D01*
X40640000Y9980395D01*
X39826903Y9167298D01*
X39136694Y9167298D01*
X39214637Y9245241D01*
X39370915Y9479128D01*
X39403329Y9418486D01*
X39647298Y9346903D01*
X40460395Y10160000D01*
X40819605Y10160000D01*
X41632702Y9346903D01*
X41876671Y9418486D01*
X41907194Y9482992D01*
X41908320Y9480273D01*
X42065363Y9245241D01*
X42265241Y9045363D01*
X42500273Y8888320D01*
X42761426Y8780147D01*
X43038665Y8725000D01*
X43321335Y8725000D01*
X43598574Y8780147D01*
X43859727Y8888320D01*
X44094759Y9045363D01*
X44294637Y9245241D01*
X44451680Y9480273D01*
X44559853Y9741426D01*
X44615000Y10018665D01*
X44615000Y10301335D01*
X44559853Y10578574D01*
X44451680Y10839727D01*
X44294637Y11074759D01*
X44094759Y11274637D01*
X43859727Y11431680D01*
X43598574Y11539853D01*
X43321335Y11595000D01*
X43038665Y11595000D01*
X42761426Y11539853D01*
X42500273Y11431680D01*
X42265241Y11274637D01*
X42065363Y11074759D01*
X41909085Y10840872D01*
X41876671Y10901514D01*
X41632702Y10973097D01*
X40819605Y10160000D01*
X40460395Y10160000D01*
X39647298Y10973097D01*
X39403329Y10901514D01*
X39372806Y10837008D01*
X39371680Y10839727D01*
X39214637Y11074759D01*
X39136694Y11152702D01*
X39826903Y11152702D01*
X40640000Y10339605D01*
X41453097Y11152702D01*
X41381514Y11396671D01*
X41126004Y11517571D01*
X40851816Y11586300D01*
X40569488Y11600217D01*
X40289870Y11558787D01*
X40023708Y11463603D01*
X39898486Y11396671D01*
X39826903Y11152702D01*
X39136694Y11152702D01*
X39014759Y11274637D01*
X38779727Y11431680D01*
X38518574Y11539853D01*
X38241335Y11595000D01*
X37958665Y11595000D01*
X37681426Y11539853D01*
X37420273Y11431680D01*
X37185241Y11274637D01*
X36985363Y11074759D01*
X36830000Y10842241D01*
X36674637Y11074759D01*
X36474759Y11274637D01*
X36239727Y11431680D01*
X35978574Y11539853D01*
X35701335Y11595000D01*
X35418665Y11595000D01*
X35141426Y11539853D01*
X34880273Y11431680D01*
X34645241Y11274637D01*
X34445363Y11074759D01*
X34290000Y10842241D01*
X34134637Y11074759D01*
X33934759Y11274637D01*
X33699727Y11431680D01*
X33438574Y11539853D01*
X33161335Y11595000D01*
X32878665Y11595000D01*
X32601426Y11539853D01*
X32340273Y11431680D01*
X32105241Y11274637D01*
X31906643Y11076039D01*
X31905812Y11084482D01*
X31869502Y11204180D01*
X31810537Y11314494D01*
X31731185Y11411185D01*
X31634494Y11490537D01*
X31524180Y11549502D01*
X31404482Y11585812D01*
X31280000Y11598072D01*
X29680000Y11598072D01*
X29555518Y11585812D01*
X29435820Y11549502D01*
X29325506Y11490537D01*
X29228815Y11411185D01*
X29149463Y11314494D01*
X29090498Y11204180D01*
X29054188Y11084482D01*
X29041928Y10960000D01*
X710000Y10960000D01*
X710000Y17927567D01*
X724198Y17783415D01*
X767654Y17640154D01*
X838226Y17508124D01*
X898886Y17434211D01*
X933200Y17392399D01*
X962198Y17368601D01*
X2494428Y15836370D01*
X2463800Y15682392D01*
X2463800Y15407208D01*
X2517486Y15137310D01*
X2622795Y14883073D01*
X2775680Y14654265D01*
X2970265Y14459680D01*
X3199073Y14306795D01*
X3453310Y14201486D01*
X3723208Y14147800D01*
X3998392Y14147800D01*
X4268290Y14201486D01*
X4522527Y14306795D01*
X4751335Y14459680D01*
X4772375Y14480720D01*
X12481125Y14480720D01*
X12564808Y14226539D01*
X12837375Y14095642D01*
X13130242Y14020435D01*
X13432153Y14003809D01*
X13731507Y14046403D01*
X14016799Y14146578D01*
X14166392Y14226539D01*
X14250075Y14480720D01*
X13365600Y15365195D01*
X12481125Y14480720D01*
X4772375Y14480720D01*
X4945920Y14654265D01*
X5098805Y14883073D01*
X5204114Y15137310D01*
X5257800Y15407208D01*
X5257800Y15478247D01*
X11824609Y15478247D01*
X11867203Y15178893D01*
X11967378Y14893601D01*
X12047339Y14744008D01*
X12301520Y14660325D01*
X13185995Y15544800D01*
X13545205Y15544800D01*
X14429680Y14660325D01*
X14683861Y14744008D01*
X14814758Y15016575D01*
X14889965Y15309442D01*
X14906591Y15611353D01*
X14863997Y15910707D01*
X14763822Y16195999D01*
X14683861Y16345592D01*
X14429680Y16429275D01*
X13545205Y15544800D01*
X13185995Y15544800D01*
X12301520Y16429275D01*
X12047339Y16345592D01*
X11916442Y16073025D01*
X11841235Y15780158D01*
X11824609Y15478247D01*
X5257800Y15478247D01*
X5257800Y15682392D01*
X5204114Y15952290D01*
X5098805Y16206527D01*
X4945920Y16435335D01*
X4836455Y16544800D01*
X4900535Y16608880D01*
X12481125Y16608880D01*
X13365600Y15724405D01*
X14250075Y16608880D01*
X14166392Y16863061D01*
X13893825Y16993958D01*
X13600958Y17069165D01*
X13299047Y17085791D01*
X12999693Y17043197D01*
X12714401Y16943022D01*
X12564808Y16863061D01*
X12481125Y16608880D01*
X4900535Y16608880D01*
X4945920Y16654265D01*
X4949618Y16659800D01*
X5309331Y16659800D01*
X5352800Y16655519D01*
X5396269Y16659800D01*
X5396277Y16659800D01*
X5526290Y16672605D01*
X5693113Y16723211D01*
X5846859Y16805389D01*
X5981617Y16915983D01*
X6009334Y16949756D01*
X7529379Y18469800D01*
X11862131Y18469800D01*
X11905600Y18465519D01*
X11949069Y18469800D01*
X13839022Y18469800D01*
X15468628Y16840193D01*
X15435063Y16799294D01*
X15376098Y16688980D01*
X15339788Y16569282D01*
X15327528Y16444800D01*
X15327528Y14644800D01*
X15339788Y14520318D01*
X15376098Y14400620D01*
X15435063Y14290306D01*
X15514415Y14193615D01*
X15611106Y14114263D01*
X15721420Y14055298D01*
X15841118Y14018988D01*
X15965600Y14006728D01*
X17765600Y14006728D01*
X17890082Y14018988D01*
X18009780Y14055298D01*
X18120094Y14114263D01*
X18216785Y14193615D01*
X18296137Y14290306D01*
X18355102Y14400620D01*
X18391412Y14520318D01*
X18403672Y14644800D01*
X18403672Y16444800D01*
X18391412Y16569282D01*
X18355102Y16688980D01*
X18296137Y16799294D01*
X18216785Y16895985D01*
X18120094Y16975337D01*
X18009780Y17034302D01*
X17890082Y17070612D01*
X17765600Y17082872D01*
X17661662Y17082872D01*
X17605011Y17188859D01*
X17494417Y17323617D01*
X17460649Y17351330D01*
X14862132Y19949846D01*
X14834417Y19983617D01*
X14699659Y20094211D01*
X14545913Y20176389D01*
X14379090Y20226995D01*
X14249077Y20239800D01*
X14249069Y20239800D01*
X14205600Y20244081D01*
X14162131Y20239800D01*
X14042178Y20239800D01*
X16914550Y23112172D01*
X16948317Y23139883D01*
X16995311Y23197144D01*
X17058910Y23274640D01*
X17058911Y23274641D01*
X17141089Y23428387D01*
X17191695Y23595210D01*
X17204500Y23725223D01*
X17204500Y23725233D01*
X17208781Y23768699D01*
X17204500Y23812165D01*
X17204500Y29361739D01*
X18600200Y29361739D01*
X18600200Y29157861D01*
X18639974Y28957902D01*
X18717995Y28769544D01*
X18831263Y28600026D01*
X18975426Y28455863D01*
X19144944Y28342595D01*
X19333302Y28264574D01*
X19533261Y28224800D01*
X19737139Y28224800D01*
X19937098Y28264574D01*
X20125456Y28342595D01*
X20294974Y28455863D01*
X20338911Y28499800D01*
X30115399Y28499800D01*
X45595000Y13020198D01*
X45595001Y11378044D01*
X45440241Y11274637D01*
X45240363Y11074759D01*
X45083320Y10839727D01*
X44975147Y10578574D01*
X44920000Y10301335D01*
X44920000Y10018665D01*
X44975147Y9741426D01*
X45083320Y9480273D01*
X45240363Y9245241D01*
X45440241Y9045363D01*
X45675273Y8888320D01*
X45936426Y8780147D01*
X46213665Y8725000D01*
X46496335Y8725000D01*
X46773574Y8780147D01*
X47034727Y8888320D01*
X47269759Y9045363D01*
X47469637Y9245241D01*
X47625000Y9477759D01*
X47780363Y9245241D01*
X47980241Y9045363D01*
X48144333Y8935721D01*
X48145998Y8918814D01*
X48189455Y8775553D01*
X48260027Y8643524D01*
X48355000Y8527799D01*
X48470725Y8432826D01*
X48602754Y8362254D01*
X48746015Y8318797D01*
X48895000Y8304123D01*
X49043986Y8318797D01*
X49187247Y8362254D01*
X49319276Y8432826D01*
X49435001Y8527799D01*
X49529974Y8643524D01*
X49600546Y8775553D01*
X49644003Y8918814D01*
X49645668Y8935721D01*
X49809759Y9045363D01*
X49931694Y9167298D01*
X50621903Y9167298D01*
X50693486Y8923329D01*
X50948996Y8802429D01*
X51223184Y8733700D01*
X51505512Y8719783D01*
X51785130Y8761213D01*
X52051292Y8856397D01*
X52176514Y8923329D01*
X52248097Y9167298D01*
X51435000Y9980395D01*
X50621903Y9167298D01*
X49931694Y9167298D01*
X50009637Y9245241D01*
X50165915Y9479128D01*
X50198329Y9418486D01*
X50442298Y9346903D01*
X51255395Y10160000D01*
X50442298Y10973097D01*
X50198329Y10901514D01*
X50167806Y10837008D01*
X50166680Y10839727D01*
X50009637Y11074759D01*
X49931694Y11152702D01*
X50621903Y11152702D01*
X51435000Y10339605D01*
X52248097Y11152702D01*
X52176514Y11396671D01*
X51921004Y11517571D01*
X51646816Y11586300D01*
X51364488Y11600217D01*
X51084870Y11558787D01*
X50818708Y11463603D01*
X50693486Y11396671D01*
X50621903Y11152702D01*
X49931694Y11152702D01*
X49809759Y11274637D01*
X49574727Y11431680D01*
X49313574Y11539853D01*
X49036335Y11595000D01*
X48753665Y11595000D01*
X48476426Y11539853D01*
X48215273Y11431680D01*
X47980241Y11274637D01*
X47780363Y11074759D01*
X47625000Y10842241D01*
X47469637Y11074759D01*
X47269759Y11274637D01*
X47115000Y11378043D01*
X47115000Y13297678D01*
X47118676Y13335001D01*
X47115000Y13372324D01*
X47115000Y13372333D01*
X47104003Y13483986D01*
X47060546Y13627247D01*
X46989975Y13759275D01*
X46989974Y13759277D01*
X46918799Y13846003D01*
X46895001Y13875001D01*
X46866004Y13898798D01*
X36603714Y24161088D01*
X51544183Y24161088D01*
X51585613Y23881470D01*
X51680797Y23615308D01*
X51747729Y23490086D01*
X51991698Y23418503D01*
X52804795Y24231600D01*
X51991698Y25044697D01*
X51747729Y24973114D01*
X51626829Y24717604D01*
X51558100Y24443416D01*
X51544183Y24161088D01*
X36603714Y24161088D01*
X31523714Y29241088D01*
X51544183Y29241088D01*
X51585613Y28961470D01*
X51680797Y28695308D01*
X51747729Y28570086D01*
X51991698Y28498503D01*
X52804795Y29311600D01*
X51991698Y30124697D01*
X51747729Y30053114D01*
X51626829Y29797604D01*
X51558100Y29523416D01*
X51544183Y29241088D01*
X31523714Y29241088D01*
X30994004Y29770797D01*
X30970201Y29799801D01*
X30854476Y29894774D01*
X30722447Y29965346D01*
X30579186Y30008803D01*
X30467533Y30019800D01*
X30467522Y30019800D01*
X30430200Y30023476D01*
X30392878Y30019800D01*
X20338911Y30019800D01*
X20294974Y30063737D01*
X20125456Y30177005D01*
X19937098Y30255026D01*
X19737139Y30294800D01*
X19533261Y30294800D01*
X19333302Y30255026D01*
X19144944Y30177005D01*
X18975426Y30063737D01*
X18831263Y29919574D01*
X18717995Y29750056D01*
X18639974Y29561698D01*
X18600200Y29361739D01*
X17204500Y29361739D01*
X17204500Y34321088D01*
X51544183Y34321088D01*
X51585613Y34041470D01*
X51680797Y33775308D01*
X51747729Y33650086D01*
X51991698Y33578503D01*
X52804795Y34391600D01*
X51991698Y35204697D01*
X51747729Y35133114D01*
X51626829Y34877604D01*
X51558100Y34603416D01*
X51544183Y34321088D01*
X17204500Y34321088D01*
X17204500Y36459499D01*
X17270685Y36513815D01*
X17350037Y36610506D01*
X17409002Y36720820D01*
X17445312Y36840518D01*
X17457572Y36965000D01*
X17457572Y37965000D01*
X17445312Y38089482D01*
X17409002Y38209180D01*
X17350037Y38319494D01*
X17270685Y38416185D01*
X17207908Y38467704D01*
X17270186Y38518814D01*
X17349538Y38615505D01*
X17408503Y38725819D01*
X17444813Y38845517D01*
X17457073Y38969999D01*
X17454001Y39184249D01*
X17295251Y39342999D01*
X16446001Y39342999D01*
X16446001Y39322999D01*
X16192001Y39322999D01*
X16192001Y39342999D01*
X15342751Y39342999D01*
X15184001Y39184249D01*
X15180929Y38969999D01*
X15193189Y38845517D01*
X15229499Y38725819D01*
X15288464Y38615505D01*
X15367816Y38518814D01*
X15430593Y38467295D01*
X15368315Y38416185D01*
X15366111Y38413500D01*
X7533301Y38413500D01*
X7478985Y38479685D01*
X7477383Y38481000D01*
X7478985Y38482315D01*
X7558337Y38579006D01*
X7617302Y38689320D01*
X7653612Y38809018D01*
X7665872Y38933500D01*
X7665872Y39933500D01*
X7662278Y39969999D01*
X15180929Y39969999D01*
X15184001Y39755749D01*
X15342751Y39596999D01*
X16192001Y39596999D01*
X16192001Y40446249D01*
X16446001Y40446249D01*
X16446001Y39596999D01*
X17295251Y39596999D01*
X17454001Y39755749D01*
X17457073Y39969999D01*
X17444813Y40094481D01*
X17408503Y40214179D01*
X17349538Y40324493D01*
X17270186Y40421184D01*
X17173495Y40500536D01*
X17063181Y40559501D01*
X16943483Y40595811D01*
X16819001Y40608071D01*
X16604751Y40604999D01*
X16446001Y40446249D01*
X16192001Y40446249D01*
X16033251Y40604999D01*
X15819001Y40608071D01*
X15694519Y40595811D01*
X15574821Y40559501D01*
X15464507Y40500536D01*
X15367816Y40421184D01*
X15288464Y40324493D01*
X15229499Y40214179D01*
X15193189Y40094481D01*
X15180929Y39969999D01*
X7662278Y39969999D01*
X7653612Y40057982D01*
X7617302Y40177680D01*
X7558337Y40287994D01*
X7478985Y40384685D01*
X7382294Y40464037D01*
X7271980Y40523002D01*
X7152282Y40559312D01*
X7027800Y40571572D01*
X6027800Y40571572D01*
X5903318Y40559312D01*
X5783620Y40523002D01*
X5673306Y40464037D01*
X5576615Y40384685D01*
X5497263Y40287994D01*
X5438298Y40177680D01*
X5415166Y40101423D01*
X5353524Y40068474D01*
X5237799Y39973501D01*
X5214001Y39944503D01*
X962203Y35692704D01*
X933199Y35668901D01*
X878071Y35601726D01*
X838226Y35553176D01*
X773990Y35433000D01*
X767654Y35421146D01*
X724197Y35277885D01*
X713200Y35166232D01*
X713200Y35166222D01*
X710000Y35133733D01*
X710000Y52388793D01*
X907156Y52566233D01*
X13550228Y52553838D01*
G04 #@! TA.AperFunction,Conductor*
D22*
G36*
X13550228Y52553838D02*
G01*
X13348612Y52352222D01*
X13082131Y51953405D01*
X12898576Y51510263D01*
X12805000Y51039827D01*
X12805000Y50560173D01*
X12898576Y50089737D01*
X13082131Y49646595D01*
X13348612Y49247778D01*
X13687778Y48908612D01*
X14086595Y48642131D01*
X14529737Y48458576D01*
X15000173Y48365000D01*
X15479827Y48365000D01*
X15950263Y48458576D01*
X16393405Y48642131D01*
X16792222Y48908612D01*
X17131388Y49247778D01*
X17397869Y49646595D01*
X17576584Y50078052D01*
X17696897Y49897990D01*
X17893990Y49700897D01*
X18125746Y49546043D01*
X18383260Y49439377D01*
X18656635Y49385000D01*
X18935365Y49385000D01*
X19208740Y49439377D01*
X19466254Y49546043D01*
X19698010Y49700897D01*
X19895103Y49897990D01*
X20049957Y50129746D01*
X20066000Y50168477D01*
X20082043Y50129746D01*
X20236897Y49897990D01*
X20433990Y49700897D01*
X20665746Y49546043D01*
X20923260Y49439377D01*
X21196635Y49385000D01*
X21475365Y49385000D01*
X21748740Y49439377D01*
X22006254Y49546043D01*
X22238010Y49700897D01*
X22435103Y49897990D01*
X22589957Y50129746D01*
X22606000Y50168477D01*
X22622043Y50129746D01*
X22776897Y49897990D01*
X22973990Y49700897D01*
X23116000Y49606009D01*
X23116001Y41858044D01*
X22961241Y41754637D01*
X22761363Y41554759D01*
X22606000Y41322241D01*
X22450637Y41554759D01*
X22250759Y41754637D01*
X22015727Y41911680D01*
X21754574Y42019853D01*
X21477335Y42075000D01*
X21194665Y42075000D01*
X20917426Y42019853D01*
X20656273Y41911680D01*
X20421241Y41754637D01*
X20221363Y41554759D01*
X20064320Y41319727D01*
X19956147Y41058574D01*
X19901000Y40781335D01*
X19901000Y40498665D01*
X19956147Y40221426D01*
X20064320Y39960273D01*
X20221363Y39725241D01*
X20421241Y39525363D01*
X20656273Y39368320D01*
X20917426Y39260147D01*
X21194665Y39205000D01*
X21477335Y39205000D01*
X21754574Y39260147D01*
X22015727Y39368320D01*
X22250759Y39525363D01*
X22450637Y39725241D01*
X22606000Y39957759D01*
X22761363Y39725241D01*
X22961241Y39525363D01*
X23196273Y39368320D01*
X23457426Y39260147D01*
X23734665Y39205000D01*
X24017335Y39205000D01*
X24294574Y39260147D01*
X24555727Y39368320D01*
X24790759Y39525363D01*
X24912694Y39647298D01*
X25602903Y39647298D01*
X25674486Y39403329D01*
X25929996Y39282429D01*
X26204184Y39213700D01*
X26486512Y39199783D01*
X26766130Y39241213D01*
X27032292Y39336397D01*
X27157514Y39403329D01*
X27229097Y39647298D01*
X26416000Y40460395D01*
X25602903Y39647298D01*
X24912694Y39647298D01*
X24990637Y39725241D01*
X25146915Y39959128D01*
X25179329Y39898486D01*
X25423298Y39826903D01*
X26236395Y40640000D01*
X25423298Y41453097D01*
X25179329Y41381514D01*
X25148806Y41317008D01*
X25147680Y41319727D01*
X24990637Y41554759D01*
X24912694Y41632702D01*
X25602903Y41632702D01*
X26416000Y40819605D01*
X27229097Y41632702D01*
X27157514Y41876671D01*
X26902004Y41997571D01*
X26627816Y42066300D01*
X26345488Y42080217D01*
X26065870Y42038787D01*
X25799708Y41943603D01*
X25674486Y41876671D01*
X25602903Y41632702D01*
X24912694Y41632702D01*
X24790759Y41754637D01*
X24636000Y41858043D01*
X24636000Y49606009D01*
X24778010Y49700897D01*
X24898692Y49821579D01*
X25617184Y49821579D01*
X25686345Y49579651D01*
X25938443Y49460752D01*
X26208894Y49393319D01*
X26487303Y49379943D01*
X26762972Y49421140D01*
X27025308Y49515325D01*
X27145655Y49579651D01*
X27214816Y49821579D01*
X26416000Y50620395D01*
X25617184Y49821579D01*
X24898692Y49821579D01*
X24975103Y49897990D01*
X25129957Y50129746D01*
X25144777Y50165525D01*
X25195651Y50070345D01*
X25437579Y50001184D01*
X26236395Y50800000D01*
X26595605Y50800000D01*
X27394421Y50001184D01*
X27636349Y50070345D01*
X27684425Y50172279D01*
X27702043Y50129746D01*
X27856897Y49897990D01*
X28053990Y49700897D01*
X28196000Y49606009D01*
X28196001Y41858044D01*
X28041241Y41754637D01*
X27841363Y41554759D01*
X27685085Y41320872D01*
X27652671Y41381514D01*
X27408702Y41453097D01*
X26595605Y40640000D01*
X27408702Y39826903D01*
X27652671Y39898486D01*
X27683194Y39962992D01*
X27684320Y39960273D01*
X27841363Y39725241D01*
X28041241Y39525363D01*
X28276273Y39368320D01*
X28537426Y39260147D01*
X28814665Y39205000D01*
X29097335Y39205000D01*
X29374574Y39260147D01*
X29635727Y39368320D01*
X29870759Y39525363D01*
X30070637Y39725241D01*
X30226000Y39957759D01*
X30381363Y39725241D01*
X30581241Y39525363D01*
X30816273Y39368320D01*
X31077426Y39260147D01*
X31354665Y39205000D01*
X31637335Y39205000D01*
X31914574Y39260147D01*
X32175727Y39368320D01*
X32410759Y39525363D01*
X32609357Y39723961D01*
X32610188Y39715518D01*
X32646498Y39595820D01*
X32705463Y39485506D01*
X32784815Y39388815D01*
X32881506Y39309463D01*
X32991820Y39250498D01*
X33111518Y39214188D01*
X33236000Y39201928D01*
X34836000Y39201928D01*
X34960482Y39214188D01*
X35080180Y39250498D01*
X35190494Y39309463D01*
X35287185Y39388815D01*
X35366537Y39485506D01*
X35425502Y39595820D01*
X35461812Y39715518D01*
X35474072Y39840000D01*
X35474072Y41440000D01*
X35461812Y41564482D01*
X35425502Y41684180D01*
X35366537Y41794494D01*
X35287185Y41891185D01*
X35190494Y41970537D01*
X35080180Y42029502D01*
X34960482Y42065812D01*
X34836000Y42078072D01*
X34796000Y42078072D01*
X34796000Y49606009D01*
X34938010Y49700897D01*
X35135103Y49897990D01*
X35289957Y50129746D01*
X35306000Y50168477D01*
X35322043Y50129746D01*
X35476897Y49897990D01*
X35673990Y49700897D01*
X35821649Y49602234D01*
X35826998Y49547929D01*
X35870454Y49404668D01*
X35941026Y49272638D01*
X35982717Y49221838D01*
X36036000Y49156913D01*
X36064998Y49133115D01*
X48777515Y36420597D01*
X48801313Y36391599D01*
X48917038Y36296626D01*
X49049067Y36226054D01*
X49192328Y36182597D01*
X49303981Y36171600D01*
X49303990Y36171600D01*
X49341313Y36167924D01*
X49378636Y36171600D01*
X51766357Y36171600D01*
X51869763Y36016841D01*
X52069641Y35816963D01*
X52303528Y35660685D01*
X52242886Y35628271D01*
X52171303Y35384302D01*
X52984400Y34571205D01*
X53797497Y35384302D01*
X53725914Y35628271D01*
X53661408Y35658794D01*
X53664127Y35659920D01*
X53899159Y35816963D01*
X54099037Y36016841D01*
X54254400Y36249359D01*
X54409763Y36016841D01*
X54609641Y35816963D01*
X54842159Y35661600D01*
X54609641Y35506237D01*
X54409763Y35306359D01*
X54253485Y35072472D01*
X54221071Y35133114D01*
X53977102Y35204697D01*
X53164005Y34391600D01*
X53977102Y33578503D01*
X54221071Y33650086D01*
X54251594Y33714592D01*
X54252720Y33711873D01*
X54409763Y33476841D01*
X54609641Y33276963D01*
X54842159Y33121600D01*
X54609641Y32966237D01*
X54409763Y32766359D01*
X54254400Y32533841D01*
X54099037Y32766359D01*
X53899159Y32966237D01*
X53665272Y33122515D01*
X53725914Y33154929D01*
X53797497Y33398898D01*
X52984400Y34211995D01*
X52171303Y33398898D01*
X52242886Y33154929D01*
X52307392Y33124406D01*
X52304673Y33123280D01*
X52069641Y32966237D01*
X51869763Y32766359D01*
X51712720Y32531327D01*
X51604547Y32270174D01*
X51549400Y31992935D01*
X51549400Y31710265D01*
X51604547Y31433026D01*
X51712720Y31171873D01*
X51869763Y30936841D01*
X52069641Y30736963D01*
X52303528Y30580685D01*
X52242886Y30548271D01*
X52171303Y30304302D01*
X52984400Y29491205D01*
X53797497Y30304302D01*
X53725914Y30548271D01*
X53661408Y30578794D01*
X53664127Y30579920D01*
X53899159Y30736963D01*
X54099037Y30936841D01*
X54254400Y31169359D01*
X54409763Y30936841D01*
X54609641Y30736963D01*
X54842159Y30581600D01*
X54609641Y30426237D01*
X54409763Y30226359D01*
X54253485Y29992472D01*
X54221071Y30053114D01*
X53977102Y30124697D01*
X53164005Y29311600D01*
X53977102Y28498503D01*
X54221071Y28570086D01*
X54251594Y28634592D01*
X54252720Y28631873D01*
X54409763Y28396841D01*
X54609641Y28196963D01*
X54842159Y28041600D01*
X54609641Y27886237D01*
X54409763Y27686359D01*
X54254400Y27453841D01*
X54099037Y27686359D01*
X53899159Y27886237D01*
X53665272Y28042515D01*
X53725914Y28074929D01*
X53797497Y28318898D01*
X52984400Y29131995D01*
X52171303Y28318898D01*
X52242886Y28074929D01*
X52307392Y28044406D01*
X52304673Y28043280D01*
X52069641Y27886237D01*
X51869763Y27686359D01*
X51712720Y27451327D01*
X51604547Y27190174D01*
X51549400Y26912935D01*
X51549400Y26630265D01*
X51604547Y26353026D01*
X51712720Y26091873D01*
X51869763Y25856841D01*
X52069641Y25656963D01*
X52303528Y25500685D01*
X52242886Y25468271D01*
X52171303Y25224302D01*
X52984400Y24411205D01*
X53797497Y25224302D01*
X53725914Y25468271D01*
X53661408Y25498794D01*
X53664127Y25499920D01*
X53899159Y25656963D01*
X54099037Y25856841D01*
X54254400Y26089359D01*
X54409763Y25856841D01*
X54609641Y25656963D01*
X54842159Y25501600D01*
X54609641Y25346237D01*
X54409763Y25146359D01*
X54253485Y24912472D01*
X54221071Y24973114D01*
X53977102Y25044697D01*
X53164005Y24231600D01*
X53178148Y24217458D01*
X52998543Y24037853D01*
X52984400Y24051995D01*
X52171303Y23238898D01*
X52242886Y22994929D01*
X52307392Y22964406D01*
X52304673Y22963280D01*
X52069641Y22806237D01*
X51869763Y22606359D01*
X51712720Y22371327D01*
X51604547Y22110174D01*
X51549400Y21832935D01*
X51549400Y21550265D01*
X51604547Y21273026D01*
X51712720Y21011873D01*
X51869763Y20776841D01*
X52069641Y20576963D01*
X52304673Y20419920D01*
X52565826Y20311747D01*
X52843065Y20256600D01*
X53125735Y20256600D01*
X53402974Y20311747D01*
X53664127Y20419920D01*
X53899159Y20576963D01*
X54099037Y20776841D01*
X54254400Y21009359D01*
X54409763Y20776841D01*
X54609641Y20576963D01*
X54844673Y20419920D01*
X55105826Y20311747D01*
X55383065Y20256600D01*
X55665735Y20256600D01*
X55942974Y20311747D01*
X56204127Y20419920D01*
X56439159Y20576963D01*
X56639037Y20776841D01*
X56745919Y20936802D01*
X56804756Y20942597D01*
X56948017Y20986054D01*
X57080046Y21056626D01*
X57195771Y21151599D01*
X57219574Y21180603D01*
X60731041Y24692069D01*
X60760039Y24715867D01*
X60814974Y24782805D01*
X60855012Y24831591D01*
X60925584Y24963621D01*
X60946204Y25031598D01*
X60969041Y25106882D01*
X60980038Y25218535D01*
X60980038Y25218544D01*
X60983714Y25255867D01*
X60980038Y25293190D01*
X60980038Y48962640D01*
X60983714Y48999963D01*
X60980038Y49037286D01*
X60980038Y49037295D01*
X60969041Y49148948D01*
X60925584Y49292209D01*
X60875999Y49384975D01*
X60875986Y49385000D01*
X61099365Y49385000D01*
X61372740Y49439377D01*
X61630254Y49546043D01*
X61862010Y49700897D01*
X62059103Y49897990D01*
X62213957Y50129746D01*
X62230000Y50168477D01*
X62246043Y50129746D01*
X62400897Y49897990D01*
X62597990Y49700897D01*
X62829746Y49546043D01*
X63087260Y49439377D01*
X63360635Y49385000D01*
X63639365Y49385000D01*
X63912740Y49439377D01*
X64170254Y49546043D01*
X64402010Y49700897D01*
X64599103Y49897990D01*
X64753957Y50129746D01*
X64860623Y50387260D01*
X64915000Y50660635D01*
X64915000Y50939365D01*
X64860623Y51212740D01*
X64753957Y51470254D01*
X64599103Y51702010D01*
X64402010Y51899103D01*
X64170254Y52053957D01*
X63912740Y52160623D01*
X63639365Y52215000D01*
X63360635Y52215000D01*
X63087260Y52160623D01*
X62829746Y52053957D01*
X62597990Y51899103D01*
X62400897Y51702010D01*
X62246043Y51470254D01*
X62230000Y51431523D01*
X62213957Y51470254D01*
X62059103Y51702010D01*
X61862010Y51899103D01*
X61630254Y52053957D01*
X61372740Y52160623D01*
X61099365Y52215000D01*
X60820635Y52215000D01*
X60547260Y52160623D01*
X60289746Y52053957D01*
X60057990Y51899103D01*
X59860897Y51702010D01*
X59706043Y51470254D01*
X59690000Y51431523D01*
X59673957Y51470254D01*
X59519103Y51702010D01*
X59322010Y51899103D01*
X59090254Y52053957D01*
X58832740Y52160623D01*
X58559365Y52215000D01*
X58280635Y52215000D01*
X58007260Y52160623D01*
X57749746Y52053957D01*
X57517990Y51899103D01*
X57320897Y51702010D01*
X57166043Y51470254D01*
X57150000Y51431523D01*
X57133957Y51470254D01*
X56979103Y51702010D01*
X56782010Y51899103D01*
X56550254Y52053957D01*
X56292740Y52160623D01*
X56019365Y52215000D01*
X55740635Y52215000D01*
X55467260Y52160623D01*
X55209746Y52053957D01*
X54977990Y51899103D01*
X54780897Y51702010D01*
X54626043Y51470254D01*
X54610000Y51431523D01*
X54593957Y51470254D01*
X54439103Y51702010D01*
X54242010Y51899103D01*
X54010254Y52053957D01*
X53752740Y52160623D01*
X53479365Y52215000D01*
X53200635Y52215000D01*
X52927260Y52160623D01*
X52669746Y52053957D01*
X52437990Y51899103D01*
X52240897Y51702010D01*
X52086043Y51470254D01*
X52070000Y51431523D01*
X52053957Y51470254D01*
X51899103Y51702010D01*
X51702010Y51899103D01*
X51470254Y52053957D01*
X51212740Y52160623D01*
X50939365Y52215000D01*
X50660635Y52215000D01*
X50387260Y52160623D01*
X50129746Y52053957D01*
X49897990Y51899103D01*
X49700897Y51702010D01*
X49546043Y51470254D01*
X49530000Y51431523D01*
X49513957Y51470254D01*
X49359103Y51702010D01*
X49162010Y51899103D01*
X48930254Y52053957D01*
X48672740Y52160623D01*
X48399365Y52215000D01*
X48120635Y52215000D01*
X47847260Y52160623D01*
X47589746Y52053957D01*
X47357990Y51899103D01*
X47160897Y51702010D01*
X47006043Y51470254D01*
X46990000Y51431523D01*
X46973957Y51470254D01*
X46819103Y51702010D01*
X46622010Y51899103D01*
X46390254Y52053957D01*
X46132740Y52160623D01*
X45859365Y52215000D01*
X45580635Y52215000D01*
X45307260Y52160623D01*
X45049746Y52053957D01*
X44817990Y51899103D01*
X44620897Y51702010D01*
X44466043Y51470254D01*
X44359377Y51212740D01*
X44305000Y50939365D01*
X44305000Y50660635D01*
X44359377Y50387260D01*
X44466043Y50129746D01*
X44620897Y49897990D01*
X44817990Y49700897D01*
X44965649Y49602234D01*
X44970998Y49547929D01*
X45010800Y49416714D01*
X45010801Y45776801D01*
X43195999Y47591602D01*
X43195999Y49982679D01*
X43199675Y50020002D01*
X43195999Y50057325D01*
X43195999Y50057334D01*
X43185002Y50168987D01*
X43141545Y50312248D01*
X43070973Y50444277D01*
X43036355Y50486459D01*
X43071000Y50660635D01*
X43071000Y50939365D01*
X43016623Y51212740D01*
X42909957Y51470254D01*
X42755103Y51702010D01*
X42558010Y51899103D01*
X42326254Y52053957D01*
X42068740Y52160623D01*
X41795365Y52215000D01*
X41516635Y52215000D01*
X41243260Y52160623D01*
X40985746Y52053957D01*
X40753990Y51899103D01*
X40556897Y51702010D01*
X40402043Y51470254D01*
X40386000Y51431523D01*
X40369957Y51470254D01*
X40215103Y51702010D01*
X40018010Y51899103D01*
X39786254Y52053957D01*
X39528740Y52160623D01*
X39255365Y52215000D01*
X38976635Y52215000D01*
X38703260Y52160623D01*
X38445746Y52053957D01*
X38213990Y51899103D01*
X38016897Y51702010D01*
X37862043Y51470254D01*
X37846000Y51431523D01*
X37829957Y51470254D01*
X37675103Y51702010D01*
X37478010Y51899103D01*
X37246254Y52053957D01*
X36988740Y52160623D01*
X36715365Y52215000D01*
X36436635Y52215000D01*
X36163260Y52160623D01*
X35905746Y52053957D01*
X35673990Y51899103D01*
X35476897Y51702010D01*
X35322043Y51470254D01*
X35306000Y51431523D01*
X35289957Y51470254D01*
X35135103Y51702010D01*
X34938010Y51899103D01*
X34706254Y52053957D01*
X34448740Y52160623D01*
X34175365Y52215000D01*
X33896635Y52215000D01*
X33623260Y52160623D01*
X33365746Y52053957D01*
X33133990Y51899103D01*
X32936897Y51702010D01*
X32782043Y51470254D01*
X32766000Y51431523D01*
X32749957Y51470254D01*
X32595103Y51702010D01*
X32398010Y51899103D01*
X32166254Y52053957D01*
X31908740Y52160623D01*
X31635365Y52215000D01*
X31356635Y52215000D01*
X31083260Y52160623D01*
X30825746Y52053957D01*
X30593990Y51899103D01*
X30396897Y51702010D01*
X30242043Y51470254D01*
X30226000Y51431523D01*
X30209957Y51470254D01*
X30055103Y51702010D01*
X29858010Y51899103D01*
X29626254Y52053957D01*
X29368740Y52160623D01*
X29095365Y52215000D01*
X28816635Y52215000D01*
X28543260Y52160623D01*
X28285746Y52053957D01*
X28053990Y51899103D01*
X27856897Y51702010D01*
X27702043Y51470254D01*
X27687223Y51434475D01*
X27636349Y51529655D01*
X27394421Y51598816D01*
X26595605Y50800000D01*
X26236395Y50800000D01*
X25437579Y51598816D01*
X25195651Y51529655D01*
X25147575Y51427721D01*
X25129957Y51470254D01*
X24975103Y51702010D01*
X24898692Y51778421D01*
X25617184Y51778421D01*
X26416000Y50979605D01*
X27214816Y51778421D01*
X27145655Y52020349D01*
X26893557Y52139248D01*
X26623106Y52206681D01*
X26344697Y52220057D01*
X26069028Y52178860D01*
X25806692Y52084675D01*
X25686345Y52020349D01*
X25617184Y51778421D01*
X24898692Y51778421D01*
X24778010Y51899103D01*
X24546254Y52053957D01*
X24288740Y52160623D01*
X24015365Y52215000D01*
X23736635Y52215000D01*
X23463260Y52160623D01*
X23205746Y52053957D01*
X22973990Y51899103D01*
X22776897Y51702010D01*
X22622043Y51470254D01*
X22606000Y51431523D01*
X22589957Y51470254D01*
X22435103Y51702010D01*
X22238010Y51899103D01*
X22006254Y52053957D01*
X21748740Y52160623D01*
X21475365Y52215000D01*
X21196635Y52215000D01*
X20923260Y52160623D01*
X20665746Y52053957D01*
X20433990Y51899103D01*
X20236897Y51702010D01*
X20082043Y51470254D01*
X20066000Y51431523D01*
X20049957Y51470254D01*
X19895103Y51702010D01*
X19698010Y51899103D01*
X19466254Y52053957D01*
X19208740Y52160623D01*
X18935365Y52215000D01*
X18656635Y52215000D01*
X18383260Y52160623D01*
X18125746Y52053957D01*
X17893990Y51899103D01*
X17696897Y51702010D01*
X17576584Y51521948D01*
X17397869Y51953405D01*
X17131388Y52352222D01*
X16933088Y52550522D01*
X65132250Y52503268D01*
X65330000Y52325293D01*
X65330001Y40420885D01*
X65326565Y40386000D01*
X65340274Y40246816D01*
X65380872Y40112981D01*
X65404662Y40068474D01*
X65446801Y39989637D01*
X65535526Y39881525D01*
X65562617Y39859292D01*
X67870000Y37551908D01*
X67870000Y37173610D01*
X67592222Y37451388D01*
X67193405Y37717869D01*
X66750263Y37901424D01*
X66279827Y37995000D01*
X65800173Y37995000D01*
X65329737Y37901424D01*
X64886595Y37717869D01*
X64487778Y37451388D01*
X64148612Y37112222D01*
X63882131Y36713405D01*
X63698576Y36270263D01*
X63605000Y35799827D01*
X63605000Y35320173D01*
X63698576Y34849737D01*
X63882131Y34406595D01*
X64148612Y34007778D01*
X64487778Y33668612D01*
X64886595Y33402131D01*
X65329737Y33218576D01*
X65800173Y33125000D01*
X66279827Y33125000D01*
X66750263Y33218576D01*
X67193405Y33402131D01*
X67592222Y33668612D01*
X67870000Y33946390D01*
X67870001Y9233609D01*
X67592222Y9511388D01*
X67193405Y9777869D01*
X66750263Y9961424D01*
X66279827Y10055000D01*
X65800173Y10055000D01*
X65329737Y9961424D01*
X64886595Y9777869D01*
X64487778Y9511388D01*
X64148612Y9172222D01*
X63882131Y8773405D01*
X63698576Y8330263D01*
X63605000Y7859827D01*
X63605000Y7380173D01*
X63698576Y6909737D01*
X63882131Y6466595D01*
X64148612Y6067778D01*
X64487778Y5728612D01*
X64886595Y5462131D01*
X65329737Y5278576D01*
X65800173Y5185000D01*
X66279827Y5185000D01*
X66750263Y5278576D01*
X67193405Y5462131D01*
X67592222Y5728612D01*
X67870001Y6006391D01*
X67870001Y5374093D01*
X65562617Y3066708D01*
X65535525Y3044474D01*
X65446800Y2936362D01*
X65380872Y2813019D01*
X65340273Y2679183D01*
X65333588Y2611303D01*
X65326565Y2540000D01*
X65330000Y2505125D01*
X65330001Y887708D01*
X65132548Y710000D01*
X15583610Y710000D01*
X15861388Y987778D01*
X16127869Y1386595D01*
X16311424Y1829737D01*
X16405000Y2300173D01*
X16405000Y2679365D01*
X26525000Y2679365D01*
X26525000Y2400635D01*
X26579377Y2127260D01*
X26686043Y1869746D01*
X26840897Y1637990D01*
X27037990Y1440897D01*
X27269746Y1286043D01*
X27527260Y1179377D01*
X27800635Y1125000D01*
X28079365Y1125000D01*
X28352740Y1179377D01*
X28610254Y1286043D01*
X28842010Y1440897D01*
X29039103Y1637990D01*
X29193957Y1869746D01*
X29210000Y1908477D01*
X29226043Y1869746D01*
X29380897Y1637990D01*
X29577990Y1440897D01*
X29809746Y1286043D01*
X30067260Y1179377D01*
X30340635Y1125000D01*
X30619365Y1125000D01*
X30892740Y1179377D01*
X31150254Y1286043D01*
X31382010Y1440897D01*
X31579103Y1637990D01*
X31733957Y1869746D01*
X31750000Y1908477D01*
X31766043Y1869746D01*
X31920897Y1637990D01*
X32117990Y1440897D01*
X32349746Y1286043D01*
X32607260Y1179377D01*
X32880635Y1125000D01*
X33159365Y1125000D01*
X33432740Y1179377D01*
X33690254Y1286043D01*
X33922010Y1440897D01*
X34119103Y1637990D01*
X34273957Y1869746D01*
X34290000Y1908477D01*
X34306043Y1869746D01*
X34460897Y1637990D01*
X34657990Y1440897D01*
X34889746Y1286043D01*
X35147260Y1179377D01*
X35420635Y1125000D01*
X35699365Y1125000D01*
X35972740Y1179377D01*
X36230254Y1286043D01*
X36462010Y1440897D01*
X36659103Y1637990D01*
X36813957Y1869746D01*
X36830000Y1908477D01*
X36846043Y1869746D01*
X37000897Y1637990D01*
X37197990Y1440897D01*
X37429746Y1286043D01*
X37687260Y1179377D01*
X37960635Y1125000D01*
X38239365Y1125000D01*
X38512740Y1179377D01*
X38770254Y1286043D01*
X39002010Y1440897D01*
X39122692Y1561579D01*
X39841184Y1561579D01*
X39910345Y1319651D01*
X40162443Y1200752D01*
X40432894Y1133319D01*
X40711303Y1119943D01*
X40986972Y1161140D01*
X41249308Y1255325D01*
X41369655Y1319651D01*
X41438816Y1561579D01*
X42381184Y1561579D01*
X42450345Y1319651D01*
X42702443Y1200752D01*
X42972894Y1133319D01*
X43251303Y1119943D01*
X43526972Y1161140D01*
X43789308Y1255325D01*
X43909655Y1319651D01*
X43978816Y1561579D01*
X43180000Y2360395D01*
X42381184Y1561579D01*
X41438816Y1561579D01*
X40640000Y2360395D01*
X39841184Y1561579D01*
X39122692Y1561579D01*
X39199103Y1637990D01*
X39353957Y1869746D01*
X39368777Y1905525D01*
X39419651Y1810345D01*
X39661579Y1741184D01*
X40460395Y2540000D01*
X40819605Y2540000D01*
X41618421Y1741184D01*
X41860349Y1810345D01*
X41906898Y1909041D01*
X41959651Y1810345D01*
X42201579Y1741184D01*
X43000395Y2540000D01*
X43359605Y2540000D01*
X44158421Y1741184D01*
X44400349Y1810345D01*
X44448425Y1912279D01*
X44466043Y1869746D01*
X44620897Y1637990D01*
X44817990Y1440897D01*
X45049746Y1286043D01*
X45307260Y1179377D01*
X45580635Y1125000D01*
X45859365Y1125000D01*
X46132740Y1179377D01*
X46390254Y1286043D01*
X46622010Y1440897D01*
X46819103Y1637990D01*
X46973957Y1869746D01*
X47080623Y2127260D01*
X47135000Y2400635D01*
X47135000Y2679365D01*
X49385000Y2679365D01*
X49385000Y2400635D01*
X49439377Y2127260D01*
X49546043Y1869746D01*
X49700897Y1637990D01*
X49897990Y1440897D01*
X50129746Y1286043D01*
X50387260Y1179377D01*
X50660635Y1125000D01*
X50939365Y1125000D01*
X51212740Y1179377D01*
X51470254Y1286043D01*
X51702010Y1440897D01*
X51899103Y1637990D01*
X52053957Y1869746D01*
X52070000Y1908477D01*
X52086043Y1869746D01*
X52240897Y1637990D01*
X52437990Y1440897D01*
X52669746Y1286043D01*
X52927260Y1179377D01*
X53200635Y1125000D01*
X53479365Y1125000D01*
X53752740Y1179377D01*
X54010254Y1286043D01*
X54242010Y1440897D01*
X54439103Y1637990D01*
X54593957Y1869746D01*
X54610000Y1908477D01*
X54626043Y1869746D01*
X54780897Y1637990D01*
X54977990Y1440897D01*
X55209746Y1286043D01*
X55467260Y1179377D01*
X55740635Y1125000D01*
X56019365Y1125000D01*
X56292740Y1179377D01*
X56550254Y1286043D01*
X56782010Y1440897D01*
X56979103Y1637990D01*
X57133957Y1869746D01*
X57150000Y1908477D01*
X57166043Y1869746D01*
X57320897Y1637990D01*
X57517990Y1440897D01*
X57749746Y1286043D01*
X58007260Y1179377D01*
X58280635Y1125000D01*
X58559365Y1125000D01*
X58832740Y1179377D01*
X59090254Y1286043D01*
X59322010Y1440897D01*
X59519103Y1637990D01*
X59673957Y1869746D01*
X59690000Y1908477D01*
X59706043Y1869746D01*
X59860897Y1637990D01*
X60057990Y1440897D01*
X60289746Y1286043D01*
X60547260Y1179377D01*
X60820635Y1125000D01*
X61099365Y1125000D01*
X61372740Y1179377D01*
X61630254Y1286043D01*
X61862010Y1440897D01*
X62059103Y1637990D01*
X62213957Y1869746D01*
X62230000Y1908477D01*
X62246043Y1869746D01*
X62400897Y1637990D01*
X62597990Y1440897D01*
X62829746Y1286043D01*
X63087260Y1179377D01*
X63360635Y1125000D01*
X63639365Y1125000D01*
X63912740Y1179377D01*
X64170254Y1286043D01*
X64402010Y1440897D01*
X64599103Y1637990D01*
X64753957Y1869746D01*
X64860623Y2127260D01*
X64915000Y2400635D01*
X64915000Y2679365D01*
X64860623Y2952740D01*
X64753957Y3210254D01*
X64599103Y3442010D01*
X64402010Y3639103D01*
X64170254Y3793957D01*
X63912740Y3900623D01*
X63639365Y3955000D01*
X63360635Y3955000D01*
X63193122Y3921680D01*
X59815000Y7299801D01*
X59815000Y8721928D01*
X59855000Y8721928D01*
X59979482Y8734188D01*
X60099180Y8770498D01*
X60209494Y8829463D01*
X60306185Y8908815D01*
X60385537Y9005506D01*
X60444502Y9115820D01*
X60480812Y9235518D01*
X60493072Y9360000D01*
X60493072Y10960000D01*
X60480812Y11084482D01*
X60444502Y11204180D01*
X60385537Y11314494D01*
X60306185Y11411185D01*
X60209494Y11490537D01*
X60099180Y11549502D01*
X59979482Y11585812D01*
X59855000Y11598072D01*
X58255000Y11598072D01*
X58130518Y11585812D01*
X58010820Y11549502D01*
X57900506Y11490537D01*
X57803815Y11411185D01*
X57724463Y11314494D01*
X57665498Y11204180D01*
X57629188Y11084482D01*
X57628357Y11076039D01*
X57429759Y11274637D01*
X57194727Y11431680D01*
X56933574Y11539853D01*
X56656335Y11595000D01*
X56373665Y11595000D01*
X56096426Y11539853D01*
X55835273Y11431680D01*
X55600241Y11274637D01*
X55400363Y11074759D01*
X55245000Y10842241D01*
X55089637Y11074759D01*
X54889759Y11274637D01*
X54654727Y11431680D01*
X54393574Y11539853D01*
X54116335Y11595000D01*
X53833665Y11595000D01*
X53556426Y11539853D01*
X53295273Y11431680D01*
X53060241Y11274637D01*
X52860363Y11074759D01*
X52704085Y10840872D01*
X52671671Y10901514D01*
X52427702Y10973097D01*
X51614605Y10160000D01*
X52427702Y9346903D01*
X52671671Y9418486D01*
X52702194Y9482992D01*
X52703320Y9480273D01*
X52860363Y9245241D01*
X53060241Y9045363D01*
X53215000Y8941956D01*
X53215001Y7022332D01*
X53211324Y6985000D01*
X53215001Y6947667D01*
X53225998Y6836014D01*
X53236454Y6801546D01*
X53269454Y6692754D01*
X53340026Y6560724D01*
X53399956Y6487700D01*
X53435000Y6444999D01*
X53463998Y6421201D01*
X55930198Y3955000D01*
X55740635Y3955000D01*
X55467260Y3900623D01*
X55209746Y3793957D01*
X54977990Y3639103D01*
X54780897Y3442010D01*
X54626043Y3210254D01*
X54610000Y3171523D01*
X54593957Y3210254D01*
X54439103Y3442010D01*
X54242010Y3639103D01*
X54010254Y3793957D01*
X53752740Y3900623D01*
X53479365Y3955000D01*
X53200635Y3955000D01*
X52927260Y3900623D01*
X52669746Y3793957D01*
X52437990Y3639103D01*
X52240897Y3442010D01*
X52086043Y3210254D01*
X52070000Y3171523D01*
X52053957Y3210254D01*
X51899103Y3442010D01*
X51702010Y3639103D01*
X51470254Y3793957D01*
X51212740Y3900623D01*
X50939365Y3955000D01*
X50660635Y3955000D01*
X50387260Y3900623D01*
X50129746Y3793957D01*
X49897990Y3639103D01*
X49700897Y3442010D01*
X49546043Y3210254D01*
X49439377Y2952740D01*
X49385000Y2679365D01*
X47135000Y2679365D01*
X47080623Y2952740D01*
X46973957Y3210254D01*
X46819103Y3442010D01*
X46622010Y3639103D01*
X46390254Y3793957D01*
X46132740Y3900623D01*
X45859365Y3955000D01*
X45580635Y3955000D01*
X45307260Y3900623D01*
X45049746Y3793957D01*
X44817990Y3639103D01*
X44620897Y3442010D01*
X44466043Y3210254D01*
X44451223Y3174475D01*
X44400349Y3269655D01*
X44158421Y3338816D01*
X43359605Y2540000D01*
X43000395Y2540000D01*
X42201579Y3338816D01*
X41959651Y3269655D01*
X41913102Y3170959D01*
X41860349Y3269655D01*
X41618421Y3338816D01*
X40819605Y2540000D01*
X40460395Y2540000D01*
X39661579Y3338816D01*
X39419651Y3269655D01*
X39371575Y3167721D01*
X39353957Y3210254D01*
X39199103Y3442010D01*
X39122692Y3518421D01*
X39841184Y3518421D01*
X40640000Y2719605D01*
X41438816Y3518421D01*
X42381184Y3518421D01*
X43180000Y2719605D01*
X43978816Y3518421D01*
X43909655Y3760349D01*
X43657557Y3879248D01*
X43387106Y3946681D01*
X43108697Y3960057D01*
X42833028Y3918860D01*
X42570692Y3824675D01*
X42450345Y3760349D01*
X42381184Y3518421D01*
X41438816Y3518421D01*
X41369655Y3760349D01*
X41117557Y3879248D01*
X40847106Y3946681D01*
X40568697Y3960057D01*
X40293028Y3918860D01*
X40030692Y3824675D01*
X39910345Y3760349D01*
X39841184Y3518421D01*
X39122692Y3518421D01*
X39002010Y3639103D01*
X38770254Y3793957D01*
X38512740Y3900623D01*
X38239365Y3955000D01*
X37960635Y3955000D01*
X37687260Y3900623D01*
X37429746Y3793957D01*
X37197990Y3639103D01*
X37000897Y3442010D01*
X36846043Y3210254D01*
X36830000Y3171523D01*
X36813957Y3210254D01*
X36659103Y3442010D01*
X36462010Y3639103D01*
X36230254Y3793957D01*
X35972740Y3900623D01*
X35699365Y3955000D01*
X35420635Y3955000D01*
X35147260Y3900623D01*
X34889746Y3793957D01*
X34657990Y3639103D01*
X34460897Y3442010D01*
X34306043Y3210254D01*
X34290000Y3171523D01*
X34273957Y3210254D01*
X34119103Y3442010D01*
X33922010Y3639103D01*
X33690254Y3793957D01*
X33432740Y3900623D01*
X33159365Y3955000D01*
X32880635Y3955000D01*
X32607260Y3900623D01*
X32349746Y3793957D01*
X32117990Y3639103D01*
X31920897Y3442010D01*
X31766043Y3210254D01*
X31750000Y3171523D01*
X31733957Y3210254D01*
X31579103Y3442010D01*
X31382010Y3639103D01*
X31150254Y3793957D01*
X30892740Y3900623D01*
X30619365Y3955000D01*
X30340635Y3955000D01*
X30067260Y3900623D01*
X29809746Y3793957D01*
X29577990Y3639103D01*
X29380897Y3442010D01*
X29226043Y3210254D01*
X29210000Y3171523D01*
X29193957Y3210254D01*
X29039103Y3442010D01*
X28842010Y3639103D01*
X28610254Y3793957D01*
X28352740Y3900623D01*
X28079365Y3955000D01*
X27800635Y3955000D01*
X27527260Y3900623D01*
X27269746Y3793957D01*
X27037990Y3639103D01*
X26840897Y3442010D01*
X26686043Y3210254D01*
X26579377Y2952740D01*
X26525000Y2679365D01*
X16405000Y2679365D01*
X16405000Y2779827D01*
X16311424Y3250263D01*
X16127869Y3693405D01*
X15861388Y4092222D01*
X15522222Y4431388D01*
X15123405Y4697869D01*
X14680263Y4881424D01*
X14209827Y4975000D01*
X13730173Y4975000D01*
X13259737Y4881424D01*
X12816595Y4697869D01*
X12417778Y4431388D01*
X12078612Y4092222D01*
X11812131Y3693405D01*
X11628576Y3250263D01*
X11535000Y2779827D01*
X11535000Y2300173D01*
X11628576Y1829737D01*
X11812131Y1386595D01*
X12078612Y987778D01*
X12356390Y710000D01*
X929091Y710000D01*
X710000Y929091D01*
X710000Y7183500D01*
X20363028Y7183500D01*
X20375288Y7059018D01*
X20411598Y6939320D01*
X20470563Y6829006D01*
X20549915Y6732315D01*
X20582467Y6705600D01*
X20549915Y6678885D01*
X20470563Y6582194D01*
X20411598Y6471880D01*
X20375288Y6352182D01*
X20363028Y6227700D01*
X20363028Y5227700D01*
X20375288Y5103218D01*
X20411598Y4983520D01*
X20470563Y4873206D01*
X20524938Y4806950D01*
X20470563Y4740694D01*
X20411598Y4630380D01*
X20375288Y4510682D01*
X20363028Y4386200D01*
X20363028Y3386200D01*
X20375288Y3261718D01*
X20411598Y3142020D01*
X20470563Y3031706D01*
X20549915Y2935015D01*
X20646606Y2855663D01*
X20756920Y2796698D01*
X20876618Y2760388D01*
X21001100Y2748128D01*
X22001100Y2748128D01*
X22125582Y2760388D01*
X22245280Y2796698D01*
X22355594Y2855663D01*
X22452285Y2935015D01*
X22531637Y3031706D01*
X22582146Y3126200D01*
X23051278Y3126200D01*
X23088600Y3122524D01*
X23125922Y3126200D01*
X23125933Y3126200D01*
X23237586Y3137197D01*
X23380847Y3180654D01*
X23512876Y3251226D01*
X23628601Y3346199D01*
X23652403Y3375202D01*
X24952803Y4675600D01*
X34856289Y4675600D01*
X34900226Y4631663D01*
X35069744Y4518395D01*
X35258102Y4440374D01*
X35458061Y4400600D01*
X35661939Y4400600D01*
X35861898Y4440374D01*
X36050256Y4518395D01*
X36219774Y4631663D01*
X36363937Y4775826D01*
X36477205Y4945344D01*
X36555226Y5133702D01*
X36595000Y5333661D01*
X36595000Y5537539D01*
X36594670Y5539200D01*
X37014784Y5539200D01*
X37110039Y5461026D01*
X37242068Y5390454D01*
X37385276Y5347013D01*
X37440226Y5292063D01*
X37609744Y5178795D01*
X37798102Y5100774D01*
X37998061Y5061000D01*
X38201939Y5061000D01*
X38401898Y5100774D01*
X38590256Y5178795D01*
X38759774Y5292063D01*
X38903937Y5436226D01*
X39017205Y5605744D01*
X39095226Y5794102D01*
X39135000Y5994061D01*
X39135000Y6197939D01*
X39095226Y6397898D01*
X39017205Y6586256D01*
X38903937Y6755774D01*
X38759774Y6899937D01*
X38590256Y7013205D01*
X38401898Y7091226D01*
X38201939Y7131000D01*
X37998061Y7131000D01*
X37798102Y7091226D01*
X37609744Y7013205D01*
X37605289Y7010228D01*
X37480101Y7048203D01*
X37368448Y7059200D01*
X37368437Y7059200D01*
X37331115Y7062876D01*
X37293793Y7059200D01*
X24573722Y7059200D01*
X24536399Y7062876D01*
X24499076Y7059200D01*
X24499067Y7059200D01*
X24387414Y7048203D01*
X24244153Y7004746D01*
X24112123Y6934174D01*
X24082347Y6909737D01*
X23996399Y6839201D01*
X23972600Y6810202D01*
X23650099Y6487700D01*
X22582146Y6487700D01*
X22531637Y6582194D01*
X22452285Y6678885D01*
X22419733Y6705600D01*
X22452285Y6732315D01*
X22531637Y6829006D01*
X22590602Y6939320D01*
X22626912Y7059018D01*
X22639172Y7183500D01*
X22636100Y7397750D01*
X22477350Y7556500D01*
X21628100Y7556500D01*
X21628100Y7536500D01*
X21374100Y7536500D01*
X21374100Y7556500D01*
X20524850Y7556500D01*
X20366100Y7397750D01*
X20363028Y7183500D01*
X710000Y7183500D01*
X710000Y8183500D01*
X20363028Y8183500D01*
X20366100Y7969250D01*
X20524850Y7810500D01*
X21374100Y7810500D01*
X21374100Y8659750D01*
X21628100Y8659750D01*
X21628100Y7810500D01*
X22477350Y7810500D01*
X22636100Y7969250D01*
X22639172Y8183500D01*
X22626912Y8307982D01*
X22590602Y8427680D01*
X22531637Y8537994D01*
X22452285Y8634685D01*
X22355594Y8714037D01*
X22245280Y8773002D01*
X22125582Y8809312D01*
X22001100Y8821572D01*
X21786850Y8818500D01*
X21628100Y8659750D01*
X21374100Y8659750D01*
X21215350Y8818500D01*
X21001100Y8821572D01*
X20876618Y8809312D01*
X20756920Y8773002D01*
X20646606Y8714037D01*
X20549915Y8634685D01*
X20470563Y8537994D01*
X20411598Y8427680D01*
X20375288Y8307982D01*
X20363028Y8183500D01*
X710000Y8183500D01*
X710000Y10960000D01*
X29041928Y10960000D01*
X29041928Y9360000D01*
X29054188Y9235518D01*
X29090498Y9115820D01*
X29149463Y9005506D01*
X29228815Y8908815D01*
X29325506Y8829463D01*
X29435820Y8770498D01*
X29555518Y8734188D01*
X29680000Y8721928D01*
X31280000Y8721928D01*
X31404482Y8734188D01*
X31524180Y8770498D01*
X31634494Y8829463D01*
X31731185Y8908815D01*
X31810537Y9005506D01*
X31869502Y9115820D01*
X31905812Y9235518D01*
X31906643Y9243961D01*
X32105241Y9045363D01*
X32340273Y8888320D01*
X32601426Y8780147D01*
X32878665Y8725000D01*
X33161335Y8725000D01*
X33438574Y8780147D01*
X33699727Y8888320D01*
X33934759Y9045363D01*
X34134637Y9245241D01*
X34290000Y9477759D01*
X34445363Y9245241D01*
X34645241Y9045363D01*
X34880273Y8888320D01*
X35141426Y8780147D01*
X35418665Y8725000D01*
X35701335Y8725000D01*
X35978574Y8780147D01*
X36239727Y8888320D01*
X36474759Y9045363D01*
X36674637Y9245241D01*
X36830000Y9477759D01*
X36985363Y9245241D01*
X37185241Y9045363D01*
X37420273Y8888320D01*
X37681426Y8780147D01*
X37958665Y8725000D01*
X38241335Y8725000D01*
X38518574Y8780147D01*
X38779727Y8888320D01*
X39014759Y9045363D01*
X39136694Y9167298D01*
X39826903Y9167298D01*
X39898486Y8923329D01*
X40153996Y8802429D01*
X40428184Y8733700D01*
X40710512Y8719783D01*
X40990130Y8761213D01*
X41256292Y8856397D01*
X41381514Y8923329D01*
X41453097Y9167298D01*
X40640000Y9980395D01*
X39826903Y9167298D01*
X39136694Y9167298D01*
X39214637Y9245241D01*
X39370915Y9479128D01*
X39403329Y9418486D01*
X39647298Y9346903D01*
X40460395Y10160000D01*
X40819605Y10160000D01*
X41632702Y9346903D01*
X41876671Y9418486D01*
X41907194Y9482992D01*
X41908320Y9480273D01*
X42065363Y9245241D01*
X42265241Y9045363D01*
X42500273Y8888320D01*
X42761426Y8780147D01*
X43038665Y8725000D01*
X43321335Y8725000D01*
X43598574Y8780147D01*
X43859727Y8888320D01*
X44094759Y9045363D01*
X44294637Y9245241D01*
X44451680Y9480273D01*
X44559853Y9741426D01*
X44615000Y10018665D01*
X44615000Y10301335D01*
X44559853Y10578574D01*
X44451680Y10839727D01*
X44294637Y11074759D01*
X44094759Y11274637D01*
X43859727Y11431680D01*
X43598574Y11539853D01*
X43321335Y11595000D01*
X43038665Y11595000D01*
X42761426Y11539853D01*
X42500273Y11431680D01*
X42265241Y11274637D01*
X42065363Y11074759D01*
X41909085Y10840872D01*
X41876671Y10901514D01*
X41632702Y10973097D01*
X40819605Y10160000D01*
X40460395Y10160000D01*
X39647298Y10973097D01*
X39403329Y10901514D01*
X39372806Y10837008D01*
X39371680Y10839727D01*
X39214637Y11074759D01*
X39136694Y11152702D01*
X39826903Y11152702D01*
X40640000Y10339605D01*
X41453097Y11152702D01*
X41381514Y11396671D01*
X41126004Y11517571D01*
X40851816Y11586300D01*
X40569488Y11600217D01*
X40289870Y11558787D01*
X40023708Y11463603D01*
X39898486Y11396671D01*
X39826903Y11152702D01*
X39136694Y11152702D01*
X39014759Y11274637D01*
X38779727Y11431680D01*
X38518574Y11539853D01*
X38241335Y11595000D01*
X37958665Y11595000D01*
X37681426Y11539853D01*
X37420273Y11431680D01*
X37185241Y11274637D01*
X36985363Y11074759D01*
X36830000Y10842241D01*
X36674637Y11074759D01*
X36474759Y11274637D01*
X36239727Y11431680D01*
X35978574Y11539853D01*
X35701335Y11595000D01*
X35418665Y11595000D01*
X35141426Y11539853D01*
X34880273Y11431680D01*
X34645241Y11274637D01*
X34445363Y11074759D01*
X34290000Y10842241D01*
X34134637Y11074759D01*
X33934759Y11274637D01*
X33699727Y11431680D01*
X33438574Y11539853D01*
X33161335Y11595000D01*
X32878665Y11595000D01*
X32601426Y11539853D01*
X32340273Y11431680D01*
X32105241Y11274637D01*
X31906643Y11076039D01*
X31905812Y11084482D01*
X31869502Y11204180D01*
X31810537Y11314494D01*
X31731185Y11411185D01*
X31634494Y11490537D01*
X31524180Y11549502D01*
X31404482Y11585812D01*
X31280000Y11598072D01*
X29680000Y11598072D01*
X29555518Y11585812D01*
X29435820Y11549502D01*
X29325506Y11490537D01*
X29228815Y11411185D01*
X29149463Y11314494D01*
X29090498Y11204180D01*
X29054188Y11084482D01*
X29041928Y10960000D01*
X710000Y10960000D01*
X710000Y17927567D01*
X724198Y17783415D01*
X767654Y17640154D01*
X838226Y17508124D01*
X898886Y17434211D01*
X933200Y17392399D01*
X962198Y17368601D01*
X2494428Y15836370D01*
X2463800Y15682392D01*
X2463800Y15407208D01*
X2517486Y15137310D01*
X2622795Y14883073D01*
X2775680Y14654265D01*
X2970265Y14459680D01*
X3199073Y14306795D01*
X3453310Y14201486D01*
X3723208Y14147800D01*
X3998392Y14147800D01*
X4268290Y14201486D01*
X4522527Y14306795D01*
X4751335Y14459680D01*
X4772375Y14480720D01*
X12481125Y14480720D01*
X12564808Y14226539D01*
X12837375Y14095642D01*
X13130242Y14020435D01*
X13432153Y14003809D01*
X13731507Y14046403D01*
X14016799Y14146578D01*
X14166392Y14226539D01*
X14250075Y14480720D01*
X13365600Y15365195D01*
X12481125Y14480720D01*
X4772375Y14480720D01*
X4945920Y14654265D01*
X5098805Y14883073D01*
X5204114Y15137310D01*
X5257800Y15407208D01*
X5257800Y15478247D01*
X11824609Y15478247D01*
X11867203Y15178893D01*
X11967378Y14893601D01*
X12047339Y14744008D01*
X12301520Y14660325D01*
X13185995Y15544800D01*
X13545205Y15544800D01*
X14429680Y14660325D01*
X14683861Y14744008D01*
X14814758Y15016575D01*
X14889965Y15309442D01*
X14906591Y15611353D01*
X14863997Y15910707D01*
X14763822Y16195999D01*
X14683861Y16345592D01*
X14429680Y16429275D01*
X13545205Y15544800D01*
X13185995Y15544800D01*
X12301520Y16429275D01*
X12047339Y16345592D01*
X11916442Y16073025D01*
X11841235Y15780158D01*
X11824609Y15478247D01*
X5257800Y15478247D01*
X5257800Y15682392D01*
X5204114Y15952290D01*
X5098805Y16206527D01*
X4945920Y16435335D01*
X4836455Y16544800D01*
X4900535Y16608880D01*
X12481125Y16608880D01*
X13365600Y15724405D01*
X14250075Y16608880D01*
X14166392Y16863061D01*
X13893825Y16993958D01*
X13600958Y17069165D01*
X13299047Y17085791D01*
X12999693Y17043197D01*
X12714401Y16943022D01*
X12564808Y16863061D01*
X12481125Y16608880D01*
X4900535Y16608880D01*
X4945920Y16654265D01*
X4949618Y16659800D01*
X5309331Y16659800D01*
X5352800Y16655519D01*
X5396269Y16659800D01*
X5396277Y16659800D01*
X5526290Y16672605D01*
X5693113Y16723211D01*
X5846859Y16805389D01*
X5981617Y16915983D01*
X6009334Y16949756D01*
X7529379Y18469800D01*
X11862131Y18469800D01*
X11905600Y18465519D01*
X11949069Y18469800D01*
X13839022Y18469800D01*
X15468628Y16840193D01*
X15435063Y16799294D01*
X15376098Y16688980D01*
X15339788Y16569282D01*
X15327528Y16444800D01*
X15327528Y14644800D01*
X15339788Y14520318D01*
X15376098Y14400620D01*
X15435063Y14290306D01*
X15514415Y14193615D01*
X15611106Y14114263D01*
X15721420Y14055298D01*
X15841118Y14018988D01*
X15965600Y14006728D01*
X17765600Y14006728D01*
X17890082Y14018988D01*
X18009780Y14055298D01*
X18120094Y14114263D01*
X18216785Y14193615D01*
X18296137Y14290306D01*
X18355102Y14400620D01*
X18391412Y14520318D01*
X18403672Y14644800D01*
X18403672Y16444800D01*
X18391412Y16569282D01*
X18355102Y16688980D01*
X18296137Y16799294D01*
X18216785Y16895985D01*
X18120094Y16975337D01*
X18009780Y17034302D01*
X17890082Y17070612D01*
X17765600Y17082872D01*
X17661662Y17082872D01*
X17605011Y17188859D01*
X17494417Y17323617D01*
X17460649Y17351330D01*
X14862132Y19949846D01*
X14834417Y19983617D01*
X14699659Y20094211D01*
X14545913Y20176389D01*
X14379090Y20226995D01*
X14249077Y20239800D01*
X14249069Y20239800D01*
X14205600Y20244081D01*
X14162131Y20239800D01*
X14042178Y20239800D01*
X16914550Y23112172D01*
X16948317Y23139883D01*
X16995311Y23197144D01*
X17058910Y23274640D01*
X17058911Y23274641D01*
X17141089Y23428387D01*
X17191695Y23595210D01*
X17204500Y23725223D01*
X17204500Y23725233D01*
X17208781Y23768699D01*
X17204500Y23812165D01*
X17204500Y29361739D01*
X18600200Y29361739D01*
X18600200Y29157861D01*
X18639974Y28957902D01*
X18717995Y28769544D01*
X18831263Y28600026D01*
X18975426Y28455863D01*
X19144944Y28342595D01*
X19333302Y28264574D01*
X19533261Y28224800D01*
X19737139Y28224800D01*
X19937098Y28264574D01*
X20125456Y28342595D01*
X20294974Y28455863D01*
X20338911Y28499800D01*
X30115399Y28499800D01*
X45595000Y13020198D01*
X45595001Y11378044D01*
X45440241Y11274637D01*
X45240363Y11074759D01*
X45083320Y10839727D01*
X44975147Y10578574D01*
X44920000Y10301335D01*
X44920000Y10018665D01*
X44975147Y9741426D01*
X45083320Y9480273D01*
X45240363Y9245241D01*
X45440241Y9045363D01*
X45675273Y8888320D01*
X45936426Y8780147D01*
X46213665Y8725000D01*
X46496335Y8725000D01*
X46773574Y8780147D01*
X47034727Y8888320D01*
X47269759Y9045363D01*
X47469637Y9245241D01*
X47625000Y9477759D01*
X47780363Y9245241D01*
X47980241Y9045363D01*
X48144333Y8935721D01*
X48145998Y8918814D01*
X48189455Y8775553D01*
X48260027Y8643524D01*
X48355000Y8527799D01*
X48470725Y8432826D01*
X48602754Y8362254D01*
X48746015Y8318797D01*
X48895000Y8304123D01*
X49043986Y8318797D01*
X49187247Y8362254D01*
X49319276Y8432826D01*
X49435001Y8527799D01*
X49529974Y8643524D01*
X49600546Y8775553D01*
X49644003Y8918814D01*
X49645668Y8935721D01*
X49809759Y9045363D01*
X49931694Y9167298D01*
X50621903Y9167298D01*
X50693486Y8923329D01*
X50948996Y8802429D01*
X51223184Y8733700D01*
X51505512Y8719783D01*
X51785130Y8761213D01*
X52051292Y8856397D01*
X52176514Y8923329D01*
X52248097Y9167298D01*
X51435000Y9980395D01*
X50621903Y9167298D01*
X49931694Y9167298D01*
X50009637Y9245241D01*
X50165915Y9479128D01*
X50198329Y9418486D01*
X50442298Y9346903D01*
X51255395Y10160000D01*
X50442298Y10973097D01*
X50198329Y10901514D01*
X50167806Y10837008D01*
X50166680Y10839727D01*
X50009637Y11074759D01*
X49931694Y11152702D01*
X50621903Y11152702D01*
X51435000Y10339605D01*
X52248097Y11152702D01*
X52176514Y11396671D01*
X51921004Y11517571D01*
X51646816Y11586300D01*
X51364488Y11600217D01*
X51084870Y11558787D01*
X50818708Y11463603D01*
X50693486Y11396671D01*
X50621903Y11152702D01*
X49931694Y11152702D01*
X49809759Y11274637D01*
X49574727Y11431680D01*
X49313574Y11539853D01*
X49036335Y11595000D01*
X48753665Y11595000D01*
X48476426Y11539853D01*
X48215273Y11431680D01*
X47980241Y11274637D01*
X47780363Y11074759D01*
X47625000Y10842241D01*
X47469637Y11074759D01*
X47269759Y11274637D01*
X47115000Y11378043D01*
X47115000Y13297678D01*
X47118676Y13335001D01*
X47115000Y13372324D01*
X47115000Y13372333D01*
X47104003Y13483986D01*
X47060546Y13627247D01*
X46989975Y13759275D01*
X46989974Y13759277D01*
X46918799Y13846003D01*
X46895001Y13875001D01*
X46866004Y13898798D01*
X36603714Y24161088D01*
X51544183Y24161088D01*
X51585613Y23881470D01*
X51680797Y23615308D01*
X51747729Y23490086D01*
X51991698Y23418503D01*
X52804795Y24231600D01*
X51991698Y25044697D01*
X51747729Y24973114D01*
X51626829Y24717604D01*
X51558100Y24443416D01*
X51544183Y24161088D01*
X36603714Y24161088D01*
X31523714Y29241088D01*
X51544183Y29241088D01*
X51585613Y28961470D01*
X51680797Y28695308D01*
X51747729Y28570086D01*
X51991698Y28498503D01*
X52804795Y29311600D01*
X51991698Y30124697D01*
X51747729Y30053114D01*
X51626829Y29797604D01*
X51558100Y29523416D01*
X51544183Y29241088D01*
X31523714Y29241088D01*
X30994004Y29770797D01*
X30970201Y29799801D01*
X30854476Y29894774D01*
X30722447Y29965346D01*
X30579186Y30008803D01*
X30467533Y30019800D01*
X30467522Y30019800D01*
X30430200Y30023476D01*
X30392878Y30019800D01*
X20338911Y30019800D01*
X20294974Y30063737D01*
X20125456Y30177005D01*
X19937098Y30255026D01*
X19737139Y30294800D01*
X19533261Y30294800D01*
X19333302Y30255026D01*
X19144944Y30177005D01*
X18975426Y30063737D01*
X18831263Y29919574D01*
X18717995Y29750056D01*
X18639974Y29561698D01*
X18600200Y29361739D01*
X17204500Y29361739D01*
X17204500Y34321088D01*
X51544183Y34321088D01*
X51585613Y34041470D01*
X51680797Y33775308D01*
X51747729Y33650086D01*
X51991698Y33578503D01*
X52804795Y34391600D01*
X51991698Y35204697D01*
X51747729Y35133114D01*
X51626829Y34877604D01*
X51558100Y34603416D01*
X51544183Y34321088D01*
X17204500Y34321088D01*
X17204500Y36459499D01*
X17270685Y36513815D01*
X17350037Y36610506D01*
X17409002Y36720820D01*
X17445312Y36840518D01*
X17457572Y36965000D01*
X17457572Y37965000D01*
X17445312Y38089482D01*
X17409002Y38209180D01*
X17350037Y38319494D01*
X17270685Y38416185D01*
X17207908Y38467704D01*
X17270186Y38518814D01*
X17349538Y38615505D01*
X17408503Y38725819D01*
X17444813Y38845517D01*
X17457073Y38969999D01*
X17454001Y39184249D01*
X17295251Y39342999D01*
X16446001Y39342999D01*
X16446001Y39322999D01*
X16192001Y39322999D01*
X16192001Y39342999D01*
X15342751Y39342999D01*
X15184001Y39184249D01*
X15180929Y38969999D01*
X15193189Y38845517D01*
X15229499Y38725819D01*
X15288464Y38615505D01*
X15367816Y38518814D01*
X15430593Y38467295D01*
X15368315Y38416185D01*
X15366111Y38413500D01*
X7533301Y38413500D01*
X7478985Y38479685D01*
X7477383Y38481000D01*
X7478985Y38482315D01*
X7558337Y38579006D01*
X7617302Y38689320D01*
X7653612Y38809018D01*
X7665872Y38933500D01*
X7665872Y39933500D01*
X7662278Y39969999D01*
X15180929Y39969999D01*
X15184001Y39755749D01*
X15342751Y39596999D01*
X16192001Y39596999D01*
X16192001Y40446249D01*
X16446001Y40446249D01*
X16446001Y39596999D01*
X17295251Y39596999D01*
X17454001Y39755749D01*
X17457073Y39969999D01*
X17444813Y40094481D01*
X17408503Y40214179D01*
X17349538Y40324493D01*
X17270186Y40421184D01*
X17173495Y40500536D01*
X17063181Y40559501D01*
X16943483Y40595811D01*
X16819001Y40608071D01*
X16604751Y40604999D01*
X16446001Y40446249D01*
X16192001Y40446249D01*
X16033251Y40604999D01*
X15819001Y40608071D01*
X15694519Y40595811D01*
X15574821Y40559501D01*
X15464507Y40500536D01*
X15367816Y40421184D01*
X15288464Y40324493D01*
X15229499Y40214179D01*
X15193189Y40094481D01*
X15180929Y39969999D01*
X7662278Y39969999D01*
X7653612Y40057982D01*
X7617302Y40177680D01*
X7558337Y40287994D01*
X7478985Y40384685D01*
X7382294Y40464037D01*
X7271980Y40523002D01*
X7152282Y40559312D01*
X7027800Y40571572D01*
X6027800Y40571572D01*
X5903318Y40559312D01*
X5783620Y40523002D01*
X5673306Y40464037D01*
X5576615Y40384685D01*
X5497263Y40287994D01*
X5438298Y40177680D01*
X5415166Y40101423D01*
X5353524Y40068474D01*
X5237799Y39973501D01*
X5214001Y39944503D01*
X962203Y35692704D01*
X933199Y35668901D01*
X878071Y35601726D01*
X838226Y35553176D01*
X773990Y35433000D01*
X767654Y35421146D01*
X724197Y35277885D01*
X713200Y35166232D01*
X713200Y35166222D01*
X710000Y35133733D01*
X710000Y52388793D01*
X907156Y52566233D01*
X13550228Y52553838D01*
G37*
G04 #@! TD.AperFunction*
D21*
X37862043Y50129746D02*
X38016897Y49897990D01*
X38213990Y49700897D01*
X38445746Y49546043D01*
X38703260Y49439377D01*
X38976635Y49385000D01*
X39136000Y49385000D01*
X39136000Y48787333D01*
X39132323Y48750001D01*
X39146997Y48601016D01*
X39190453Y48457755D01*
X39261025Y48325725D01*
X39322384Y48250960D01*
X39355999Y48210000D01*
X39384997Y48186202D01*
X46121400Y41449798D01*
X46145199Y41420799D01*
X46174197Y41397001D01*
X46260923Y41325826D01*
X46383013Y41260567D01*
X46392953Y41255254D01*
X46536214Y41211797D01*
X46647867Y41200800D01*
X46647876Y41200800D01*
X46685199Y41197124D01*
X46722522Y41200800D01*
X52720399Y41200800D01*
X53014333Y40906866D01*
X52913888Y40911817D01*
X52634270Y40870387D01*
X52368108Y40775203D01*
X52242886Y40708271D01*
X52171303Y40464302D01*
X52984400Y39651205D01*
X52998543Y39665348D01*
X53178148Y39485743D01*
X53164005Y39471600D01*
X53977102Y38658503D01*
X54221071Y38730086D01*
X54251594Y38794592D01*
X54252720Y38791873D01*
X54409763Y38556841D01*
X54609641Y38356963D01*
X54842159Y38201600D01*
X54609641Y38046237D01*
X54409763Y37846359D01*
X54254400Y37613841D01*
X54099037Y37846359D01*
X53899159Y38046237D01*
X53665272Y38202515D01*
X53725914Y38234929D01*
X53797497Y38478898D01*
X52984400Y39291995D01*
X52171303Y38478898D01*
X52242886Y38234929D01*
X52307392Y38204406D01*
X52304673Y38203280D01*
X52069641Y38046237D01*
X51869763Y37846359D01*
X51766357Y37691600D01*
X49656116Y37691600D01*
X47946628Y39401088D01*
X51544183Y39401088D01*
X51585613Y39121470D01*
X51680797Y38855308D01*
X51747729Y38730086D01*
X51991698Y38658503D01*
X52804795Y39471600D01*
X51991698Y40284697D01*
X51747729Y40213114D01*
X51626829Y39957604D01*
X51558100Y39683416D01*
X51544183Y39401088D01*
X47946628Y39401088D01*
X37562414Y49785301D01*
X37675103Y49897990D01*
X37829957Y50129746D01*
X37846000Y50168477D01*
X37862043Y50129746D01*
G04 #@! TA.AperFunction,Conductor*
D22*
G36*
X37862043Y50129746D02*
G01*
X38016897Y49897990D01*
X38213990Y49700897D01*
X38445746Y49546043D01*
X38703260Y49439377D01*
X38976635Y49385000D01*
X39136000Y49385000D01*
X39136000Y48787333D01*
X39132323Y48750001D01*
X39146997Y48601016D01*
X39190453Y48457755D01*
X39261025Y48325725D01*
X39322384Y48250960D01*
X39355999Y48210000D01*
X39384997Y48186202D01*
X46121400Y41449798D01*
X46145199Y41420799D01*
X46174197Y41397001D01*
X46260923Y41325826D01*
X46383013Y41260567D01*
X46392953Y41255254D01*
X46536214Y41211797D01*
X46647867Y41200800D01*
X46647876Y41200800D01*
X46685199Y41197124D01*
X46722522Y41200800D01*
X52720399Y41200800D01*
X53014333Y40906866D01*
X52913888Y40911817D01*
X52634270Y40870387D01*
X52368108Y40775203D01*
X52242886Y40708271D01*
X52171303Y40464302D01*
X52984400Y39651205D01*
X52998543Y39665348D01*
X53178148Y39485743D01*
X53164005Y39471600D01*
X53977102Y38658503D01*
X54221071Y38730086D01*
X54251594Y38794592D01*
X54252720Y38791873D01*
X54409763Y38556841D01*
X54609641Y38356963D01*
X54842159Y38201600D01*
X54609641Y38046237D01*
X54409763Y37846359D01*
X54254400Y37613841D01*
X54099037Y37846359D01*
X53899159Y38046237D01*
X53665272Y38202515D01*
X53725914Y38234929D01*
X53797497Y38478898D01*
X52984400Y39291995D01*
X52171303Y38478898D01*
X52242886Y38234929D01*
X52307392Y38204406D01*
X52304673Y38203280D01*
X52069641Y38046237D01*
X51869763Y37846359D01*
X51766357Y37691600D01*
X49656116Y37691600D01*
X47946628Y39401088D01*
X51544183Y39401088D01*
X51585613Y39121470D01*
X51680797Y38855308D01*
X51747729Y38730086D01*
X51991698Y38658503D01*
X52804795Y39471600D01*
X51991698Y40284697D01*
X51747729Y40213114D01*
X51626829Y39957604D01*
X51558100Y39683416D01*
X51544183Y39401088D01*
X47946628Y39401088D01*
X37562414Y49785301D01*
X37675103Y49897990D01*
X37829957Y50129746D01*
X37846000Y50168477D01*
X37862043Y50129746D01*
G37*
G04 #@! TD.AperFunction*
D21*
X5389728Y37028500D02*
X5401988Y36904018D01*
X5438298Y36784320D01*
X5497263Y36674006D01*
X5576615Y36577315D01*
X5648655Y36518194D01*
X5640115Y36511185D01*
X5560763Y36414494D01*
X5501798Y36304180D01*
X5465488Y36184482D01*
X5453228Y36060000D01*
X5456300Y35845750D01*
X5615050Y35687000D01*
X6464300Y35687000D01*
X6464300Y35707000D01*
X6718300Y35707000D01*
X6718300Y35687000D01*
X7567550Y35687000D01*
X7726300Y35845750D01*
X7729372Y36060000D01*
X7717112Y36184482D01*
X7680802Y36304180D01*
X7621837Y36414494D01*
X7542485Y36511185D01*
X7470445Y36570306D01*
X7478985Y36577315D01*
X7533301Y36643500D01*
X15271327Y36643500D01*
X15288963Y36610506D01*
X15368315Y36513815D01*
X15434501Y36459498D01*
X15434500Y24135279D01*
X14953667Y23654446D01*
X14915426Y23846698D01*
X14837405Y24035056D01*
X14724137Y24204574D01*
X14579974Y24348737D01*
X14410456Y24462005D01*
X14222098Y24540026D01*
X14022139Y24579800D01*
X13818261Y24579800D01*
X13618302Y24540026D01*
X13429944Y24462005D01*
X13260426Y24348737D01*
X13216489Y24304800D01*
X5033141Y24304800D01*
X4945920Y24435335D01*
X4836455Y24544800D01*
X4945920Y24654265D01*
X5098805Y24883073D01*
X5204114Y25137310D01*
X5257800Y25407208D01*
X5257800Y25682392D01*
X5204114Y25952290D01*
X5098805Y26206527D01*
X4945920Y26435335D01*
X4751335Y26629920D01*
X4522527Y26782805D01*
X4268290Y26888114D01*
X3998392Y26941800D01*
X3723208Y26941800D01*
X3453310Y26888114D01*
X3199073Y26782805D01*
X2970265Y26629920D01*
X2775680Y26435335D01*
X2622795Y26206527D01*
X2517486Y25952290D01*
X2463800Y25682392D01*
X2463800Y25407208D01*
X2517486Y25137310D01*
X2622795Y24883073D01*
X2775680Y24654265D01*
X2885145Y24544800D01*
X2775680Y24435335D01*
X2622795Y24206527D01*
X2517486Y23952290D01*
X2463800Y23682392D01*
X2463800Y23407208D01*
X2517486Y23137310D01*
X2622795Y22883073D01*
X2775680Y22654265D01*
X2885145Y22544800D01*
X2775680Y22435335D01*
X2622795Y22206527D01*
X2517486Y21952290D01*
X2463800Y21682392D01*
X2463800Y21407208D01*
X2517486Y21137310D01*
X2622795Y20883073D01*
X2775680Y20654265D01*
X2970265Y20459680D01*
X3199073Y20306795D01*
X3334510Y20250695D01*
X3860800Y19724405D01*
X4387090Y20250695D01*
X4522527Y20306795D01*
X4751335Y20459680D01*
X4945920Y20654265D01*
X5098805Y20883073D01*
X5204114Y21137310D01*
X5257800Y21407208D01*
X5257800Y21682392D01*
X5204114Y21952290D01*
X5098805Y22206527D01*
X4945920Y22435335D01*
X4836455Y22544800D01*
X4945920Y22654265D01*
X5033141Y22784800D01*
X13216489Y22784800D01*
X13260426Y22740863D01*
X13429944Y22627595D01*
X13618302Y22549574D01*
X13810554Y22511333D01*
X11539022Y20239800D01*
X7206269Y20239800D01*
X7162800Y20244081D01*
X7119331Y20239800D01*
X7119323Y20239800D01*
X6989310Y20226995D01*
X6822486Y20176389D01*
X6668741Y20094211D01*
X6567753Y20011332D01*
X6567751Y20011330D01*
X6533983Y19983617D01*
X6506270Y19949849D01*
X4986222Y18429800D01*
X4949618Y18429800D01*
X4945920Y18435335D01*
X4751335Y18629920D01*
X4522527Y18782805D01*
X4387090Y18838905D01*
X3860800Y19365195D01*
X3334510Y18838905D01*
X3199073Y18782805D01*
X2970265Y18629920D01*
X2775680Y18435335D01*
X2622795Y18206527D01*
X2520598Y17959803D01*
X2233200Y18247201D01*
X2233200Y19472783D01*
X2458890Y19472783D01*
X2499878Y19200667D01*
X2593164Y18941777D01*
X2655144Y18825820D01*
X2895235Y18758840D01*
X3681195Y19544800D01*
X4040405Y19544800D01*
X4826365Y18758840D01*
X5066456Y18825820D01*
X5183556Y19074848D01*
X5249823Y19341935D01*
X5262710Y19616817D01*
X5221722Y19888933D01*
X5128436Y20147823D01*
X5066456Y20263780D01*
X4826365Y20330760D01*
X4040405Y19544800D01*
X3681195Y19544800D01*
X2895235Y20330760D01*
X2655144Y20263780D01*
X2538044Y20014752D01*
X2471777Y19747665D01*
X2458890Y19472783D01*
X2233200Y19472783D01*
X2233200Y34814099D01*
X2479101Y35060000D01*
X5453228Y35060000D01*
X5465488Y34935518D01*
X5501798Y34815820D01*
X5560763Y34705506D01*
X5640115Y34608815D01*
X5736806Y34529463D01*
X5847120Y34470498D01*
X5966818Y34434188D01*
X6091300Y34421928D01*
X6305550Y34425000D01*
X6464300Y34583750D01*
X6464300Y35433000D01*
X6718300Y35433000D01*
X6718300Y34583750D01*
X6877050Y34425000D01*
X7091300Y34421928D01*
X7215782Y34434188D01*
X7335480Y34470498D01*
X7445794Y34529463D01*
X7542485Y34608815D01*
X7621837Y34705506D01*
X7680802Y34815820D01*
X7717112Y34935518D01*
X7729372Y35060000D01*
X7726300Y35274250D01*
X7567550Y35433000D01*
X6718300Y35433000D01*
X6464300Y35433000D01*
X5615050Y35433000D01*
X5456300Y35274250D01*
X5453228Y35060000D01*
X2479101Y35060000D01*
X5389728Y37970626D01*
X5389728Y37028500D01*
G04 #@! TA.AperFunction,Conductor*
D22*
G36*
X5389728Y37028500D02*
G01*
X5401988Y36904018D01*
X5438298Y36784320D01*
X5497263Y36674006D01*
X5576615Y36577315D01*
X5648655Y36518194D01*
X5640115Y36511185D01*
X5560763Y36414494D01*
X5501798Y36304180D01*
X5465488Y36184482D01*
X5453228Y36060000D01*
X5456300Y35845750D01*
X5615050Y35687000D01*
X6464300Y35687000D01*
X6464300Y35707000D01*
X6718300Y35707000D01*
X6718300Y35687000D01*
X7567550Y35687000D01*
X7726300Y35845750D01*
X7729372Y36060000D01*
X7717112Y36184482D01*
X7680802Y36304180D01*
X7621837Y36414494D01*
X7542485Y36511185D01*
X7470445Y36570306D01*
X7478985Y36577315D01*
X7533301Y36643500D01*
X15271327Y36643500D01*
X15288963Y36610506D01*
X15368315Y36513815D01*
X15434501Y36459498D01*
X15434500Y24135279D01*
X14953667Y23654446D01*
X14915426Y23846698D01*
X14837405Y24035056D01*
X14724137Y24204574D01*
X14579974Y24348737D01*
X14410456Y24462005D01*
X14222098Y24540026D01*
X14022139Y24579800D01*
X13818261Y24579800D01*
X13618302Y24540026D01*
X13429944Y24462005D01*
X13260426Y24348737D01*
X13216489Y24304800D01*
X5033141Y24304800D01*
X4945920Y24435335D01*
X4836455Y24544800D01*
X4945920Y24654265D01*
X5098805Y24883073D01*
X5204114Y25137310D01*
X5257800Y25407208D01*
X5257800Y25682392D01*
X5204114Y25952290D01*
X5098805Y26206527D01*
X4945920Y26435335D01*
X4751335Y26629920D01*
X4522527Y26782805D01*
X4268290Y26888114D01*
X3998392Y26941800D01*
X3723208Y26941800D01*
X3453310Y26888114D01*
X3199073Y26782805D01*
X2970265Y26629920D01*
X2775680Y26435335D01*
X2622795Y26206527D01*
X2517486Y25952290D01*
X2463800Y25682392D01*
X2463800Y25407208D01*
X2517486Y25137310D01*
X2622795Y24883073D01*
X2775680Y24654265D01*
X2885145Y24544800D01*
X2775680Y24435335D01*
X2622795Y24206527D01*
X2517486Y23952290D01*
X2463800Y23682392D01*
X2463800Y23407208D01*
X2517486Y23137310D01*
X2622795Y22883073D01*
X2775680Y22654265D01*
X2885145Y22544800D01*
X2775680Y22435335D01*
X2622795Y22206527D01*
X2517486Y21952290D01*
X2463800Y21682392D01*
X2463800Y21407208D01*
X2517486Y21137310D01*
X2622795Y20883073D01*
X2775680Y20654265D01*
X2970265Y20459680D01*
X3199073Y20306795D01*
X3334510Y20250695D01*
X3860800Y19724405D01*
X4387090Y20250695D01*
X4522527Y20306795D01*
X4751335Y20459680D01*
X4945920Y20654265D01*
X5098805Y20883073D01*
X5204114Y21137310D01*
X5257800Y21407208D01*
X5257800Y21682392D01*
X5204114Y21952290D01*
X5098805Y22206527D01*
X4945920Y22435335D01*
X4836455Y22544800D01*
X4945920Y22654265D01*
X5033141Y22784800D01*
X13216489Y22784800D01*
X13260426Y22740863D01*
X13429944Y22627595D01*
X13618302Y22549574D01*
X13810554Y22511333D01*
X11539022Y20239800D01*
X7206269Y20239800D01*
X7162800Y20244081D01*
X7119331Y20239800D01*
X7119323Y20239800D01*
X6989310Y20226995D01*
X6822486Y20176389D01*
X6668741Y20094211D01*
X6567753Y20011332D01*
X6567751Y20011330D01*
X6533983Y19983617D01*
X6506270Y19949849D01*
X4986222Y18429800D01*
X4949618Y18429800D01*
X4945920Y18435335D01*
X4751335Y18629920D01*
X4522527Y18782805D01*
X4387090Y18838905D01*
X3860800Y19365195D01*
X3334510Y18838905D01*
X3199073Y18782805D01*
X2970265Y18629920D01*
X2775680Y18435335D01*
X2622795Y18206527D01*
X2520598Y17959803D01*
X2233200Y18247201D01*
X2233200Y19472783D01*
X2458890Y19472783D01*
X2499878Y19200667D01*
X2593164Y18941777D01*
X2655144Y18825820D01*
X2895235Y18758840D01*
X3681195Y19544800D01*
X4040405Y19544800D01*
X4826365Y18758840D01*
X5066456Y18825820D01*
X5183556Y19074848D01*
X5249823Y19341935D01*
X5262710Y19616817D01*
X5221722Y19888933D01*
X5128436Y20147823D01*
X5066456Y20263780D01*
X4826365Y20330760D01*
X4040405Y19544800D01*
X3681195Y19544800D01*
X2895235Y20330760D01*
X2655144Y20263780D01*
X2538044Y20014752D01*
X2471777Y19747665D01*
X2458890Y19472783D01*
X2233200Y19472783D01*
X2233200Y34814099D01*
X2479101Y35060000D01*
X5453228Y35060000D01*
X5465488Y34935518D01*
X5501798Y34815820D01*
X5560763Y34705506D01*
X5640115Y34608815D01*
X5736806Y34529463D01*
X5847120Y34470498D01*
X5966818Y34434188D01*
X6091300Y34421928D01*
X6305550Y34425000D01*
X6464300Y34583750D01*
X6464300Y35433000D01*
X6718300Y35433000D01*
X6718300Y34583750D01*
X6877050Y34425000D01*
X7091300Y34421928D01*
X7215782Y34434188D01*
X7335480Y34470498D01*
X7445794Y34529463D01*
X7542485Y34608815D01*
X7621837Y34705506D01*
X7680802Y34815820D01*
X7717112Y34935518D01*
X7729372Y35060000D01*
X7726300Y35274250D01*
X7567550Y35433000D01*
X6718300Y35433000D01*
X6464300Y35433000D01*
X5615050Y35433000D01*
X5456300Y35274250D01*
X5453228Y35060000D01*
X2479101Y35060000D01*
X5389728Y37970626D01*
X5389728Y37028500D01*
G37*
G04 #@! TD.AperFunction*
M02*
