G04 #@! TF.GenerationSoftware,KiCad,Pcbnew,(5.1.12-1-10_14)*
G04 #@! TF.CreationDate,2022-06-10T21:35:17-05:00*
G04 #@! TF.ProjectId,Arduino_uno_sheild,41726475-696e-46f5-9f75-6e6f5f736865,rev?*
G04 #@! TF.SameCoordinates,Original*
G04 #@! TF.FileFunction,Copper,L2,Bot*
G04 #@! TF.FilePolarity,Positive*
%FSLAX46Y46*%
G04 Gerber Fmt 4.6, Leading zero omitted, Abs format (unit mm)*
G04 Created by KiCad (PCBNEW (5.1.12-1-10_14)) date 2022-06-10 21:35:17*
%MOMM*%
%LPD*%
G01*
G04 APERTURE LIST*
G04 #@! TA.AperFunction,ComponentPad*
%ADD10C,1.560000*%
G04 #@! TD*
G04 #@! TA.AperFunction,WasherPad*
%ADD11C,3.600000*%
G04 #@! TD*
G04 #@! TA.AperFunction,ComponentPad*
%ADD12C,1.524000*%
G04 #@! TD*
G04 #@! TA.AperFunction,ComponentPad*
%ADD13C,1.600000*%
G04 #@! TD*
G04 #@! TA.AperFunction,ComponentPad*
%ADD14R,1.600000X1.600000*%
G04 #@! TD*
G04 #@! TA.AperFunction,ComponentPad*
%ADD15C,1.800000*%
G04 #@! TD*
G04 #@! TA.AperFunction,ComponentPad*
%ADD16R,1.800000X1.800000*%
G04 #@! TD*
G04 #@! TA.AperFunction,ViaPad*
%ADD17C,0.800000*%
G04 #@! TD*
G04 #@! TA.AperFunction,Conductor*
%ADD18C,0.250000*%
G04 #@! TD*
G04 #@! TA.AperFunction,Conductor*
%ADD19C,0.500000*%
G04 #@! TD*
G04 #@! TA.AperFunction,Conductor*
%ADD20C,0.254000*%
G04 #@! TD*
G04 #@! TA.AperFunction,Conductor*
%ADD21C,0.100000*%
G04 #@! TD*
G04 APERTURE END LIST*
D10*
X27940000Y2540000D03*
X30480000Y2540000D03*
X33020000Y2540000D03*
X35560000Y2540000D03*
X38100000Y2540000D03*
X40640000Y2540000D03*
X43180000Y2540000D03*
X45720000Y2540000D03*
X50800000Y2540000D03*
X53340000Y2540000D03*
X55880000Y2540000D03*
X58420000Y2540000D03*
X60960000Y2540000D03*
X63500000Y2540000D03*
X18796000Y50800000D03*
X21336000Y50800000D03*
X23876000Y50800000D03*
X26416000Y50800000D03*
X28956000Y50800000D03*
X31496000Y50800000D03*
X34036000Y50800000D03*
X36576000Y50800000D03*
X39116000Y50800000D03*
X41656000Y50800000D03*
X45720000Y50800000D03*
X48260000Y50800000D03*
X50800000Y50800000D03*
X53340000Y50800000D03*
X55880000Y50800000D03*
X58420000Y50800000D03*
X60960000Y50800000D03*
X63500000Y50800000D03*
D11*
X15240000Y50800000D03*
X66040000Y35560000D03*
X66040000Y7620000D03*
X13970000Y2540000D03*
D12*
X3860800Y15544800D03*
X3860800Y17544800D03*
X3860800Y19544800D03*
X3860800Y21544800D03*
X3860800Y23544800D03*
X3860800Y25544800D03*
D13*
X55524400Y21691600D03*
X52984400Y21691600D03*
X55524400Y24231600D03*
X52984400Y24231600D03*
X55524400Y26771600D03*
X52984400Y26771600D03*
X55524400Y29311600D03*
X52984400Y29311600D03*
X55524400Y31851600D03*
X52984400Y31851600D03*
X55524400Y34391600D03*
X52984400Y34391600D03*
X55524400Y36931600D03*
X52984400Y36931600D03*
X55524400Y39471600D03*
X52984400Y39471600D03*
X46355000Y10160000D03*
X48895000Y10160000D03*
X51435000Y10160000D03*
X53975000Y10160000D03*
X56515000Y10160000D03*
D14*
X59055000Y10160000D03*
D13*
X43180000Y10160000D03*
X40640000Y10160000D03*
X38100000Y10160000D03*
X35560000Y10160000D03*
X33020000Y10160000D03*
D14*
X30480000Y10160000D03*
D13*
X21336000Y40640000D03*
X23876000Y40640000D03*
X26416000Y40640000D03*
X28956000Y40640000D03*
X31496000Y40640000D03*
D14*
X34036000Y40640000D03*
D15*
X13365600Y15544800D03*
D16*
X16865600Y15544800D03*
D17*
X48564800Y44246800D03*
X13920200Y23544800D03*
X19635200Y29259800D03*
X38100000Y6096000D03*
X35560000Y5435600D03*
D18*
X48564800Y44246800D02*
X48564800Y29870400D01*
X51663600Y26771600D02*
X52984400Y26771600D01*
X48564800Y29870400D02*
X51663600Y26771600D01*
X40640000Y9028630D02*
X40640000Y2540000D01*
X40640000Y10160000D02*
X40640000Y9028630D01*
X40640000Y2540000D02*
X43180000Y2540000D01*
X43180000Y2540000D02*
X43180000Y6350000D01*
X43180000Y6350000D02*
X45085000Y8255000D01*
X45085000Y8255000D02*
X50863500Y8255000D01*
X51435000Y8826500D02*
X51435000Y10160000D01*
X50863500Y8255000D02*
X51435000Y8826500D01*
D19*
X9365600Y19544800D02*
X13365600Y15544800D01*
X3860800Y19544800D02*
X9365600Y19544800D01*
D18*
X19901001Y29525601D02*
X19901001Y49111001D01*
X13920200Y23544800D02*
X19635200Y29259800D01*
X19901001Y49111001D02*
X20955000Y50165000D01*
X19635200Y29259800D02*
X19901001Y29525601D01*
X3860800Y21544800D02*
X40685200Y21544800D01*
X48895000Y10160000D02*
X48895000Y13335000D01*
X48895000Y13335000D02*
X40640000Y21590000D01*
X18415000Y41260998D02*
X18415000Y50165000D01*
X18415000Y41260998D02*
X18415000Y35560000D01*
X18415000Y35560000D02*
X4445000Y21590000D01*
X55880000Y2540000D02*
X55880000Y6045200D01*
X55880000Y6045200D02*
X56794400Y6959600D01*
X56324399Y33591601D02*
X55524400Y34391600D01*
X62114020Y27801980D02*
X56324399Y33591601D01*
X62114020Y9076000D02*
X62114020Y27801980D01*
X59997618Y6959600D02*
X62114020Y9076000D01*
X56794400Y6959600D02*
X59997618Y6959600D01*
X53340000Y3643086D02*
X53390800Y3693886D01*
X53340000Y2540000D02*
X53340000Y3643086D01*
X53390800Y6350000D02*
X54617190Y7576390D01*
X53390800Y3693886D02*
X53390800Y6350000D01*
X61664010Y27376992D02*
X55817802Y33223200D01*
X61664010Y9262400D02*
X61664010Y27376992D01*
X54617190Y7576390D02*
X59978001Y7576391D01*
X59978001Y7576391D02*
X61664010Y9262400D01*
X54356000Y33223200D02*
X52984400Y31851600D01*
X55817802Y33223200D02*
X54356000Y33223200D01*
X50800000Y2540000D02*
X50800000Y5638800D01*
X50800000Y5638800D02*
X53187600Y8026400D01*
X53187600Y8026400D02*
X59791600Y8026400D01*
X59791600Y8026400D02*
X61214000Y9448800D01*
X61214000Y26162000D02*
X55524400Y31851600D01*
X61214000Y9448800D02*
X61214000Y26162000D01*
D19*
X44094400Y914400D02*
X45720000Y2540000D01*
X20929600Y914400D02*
X44094400Y914400D01*
X15494000Y6350000D02*
X15595600Y6248400D01*
X11977970Y6350000D02*
X15494000Y6350000D01*
X3860800Y14467170D02*
X11977970Y6350000D01*
X3860800Y15544800D02*
X3860800Y14467170D01*
X15595600Y6248400D02*
X20929600Y914400D01*
D18*
X38100000Y10160000D02*
X38100000Y9028630D01*
X38100000Y9028630D02*
X38100000Y6096000D01*
X38100000Y6096000D02*
X38100000Y2540000D01*
X35560000Y5435600D02*
X35560000Y2540000D01*
X35560000Y10160000D02*
X35560000Y5435600D01*
X33020000Y2540000D02*
X33020000Y10160000D01*
X30480000Y2540000D02*
X30480000Y10160000D01*
D20*
X13550228Y52553838D02*
X13348612Y52352222D01*
X13082131Y51953405D01*
X12898576Y51510263D01*
X12805000Y51039827D01*
X12805000Y50560173D01*
X12898576Y50089737D01*
X13082131Y49646595D01*
X13348612Y49247778D01*
X13687778Y48908612D01*
X14086595Y48642131D01*
X14529737Y48458576D01*
X15000173Y48365000D01*
X15479827Y48365000D01*
X15950263Y48458576D01*
X16393405Y48642131D01*
X16792222Y48908612D01*
X17131388Y49247778D01*
X17397869Y49646595D01*
X17576584Y50078052D01*
X17655001Y49960692D01*
X17655000Y41298331D01*
X17655000Y41298330D01*
X17655001Y35874804D01*
X5257800Y23477601D01*
X5257800Y23682392D01*
X5204114Y23952290D01*
X5098805Y24206527D01*
X4945920Y24435335D01*
X4836455Y24544800D01*
X4945920Y24654265D01*
X5098805Y24883073D01*
X5204114Y25137310D01*
X5257800Y25407208D01*
X5257800Y25682392D01*
X5204114Y25952290D01*
X5098805Y26206527D01*
X4945920Y26435335D01*
X4751335Y26629920D01*
X4522527Y26782805D01*
X4268290Y26888114D01*
X3998392Y26941800D01*
X3723208Y26941800D01*
X3453310Y26888114D01*
X3199073Y26782805D01*
X2970265Y26629920D01*
X2775680Y26435335D01*
X2622795Y26206527D01*
X2517486Y25952290D01*
X2463800Y25682392D01*
X2463800Y25407208D01*
X2517486Y25137310D01*
X2622795Y24883073D01*
X2775680Y24654265D01*
X2885145Y24544800D01*
X2775680Y24435335D01*
X2622795Y24206527D01*
X2517486Y23952290D01*
X2463800Y23682392D01*
X2463800Y23407208D01*
X2517486Y23137310D01*
X2622795Y22883073D01*
X2775680Y22654265D01*
X2885145Y22544800D01*
X2775680Y22435335D01*
X2622795Y22206527D01*
X2517486Y21952290D01*
X2463800Y21682392D01*
X2463800Y21407208D01*
X2517486Y21137310D01*
X2622795Y20883073D01*
X2775680Y20654265D01*
X2885145Y20544800D01*
X2775680Y20435335D01*
X2622795Y20206527D01*
X2517486Y19952290D01*
X2463800Y19682392D01*
X2463800Y19407208D01*
X2517486Y19137310D01*
X2622795Y18883073D01*
X2775680Y18654265D01*
X2970265Y18459680D01*
X3199073Y18306795D01*
X3334510Y18250695D01*
X3860800Y17724405D01*
X4387090Y18250695D01*
X4522527Y18306795D01*
X4751335Y18459680D01*
X4945920Y18654265D01*
X4949618Y18659800D01*
X8999022Y18659800D01*
X11852539Y15806282D01*
X11830600Y15695984D01*
X11830600Y15393616D01*
X11889589Y15097057D01*
X12005301Y14817705D01*
X12173288Y14566295D01*
X12387095Y14352488D01*
X12638505Y14184501D01*
X12917857Y14068789D01*
X13214416Y14009800D01*
X13516784Y14009800D01*
X13813343Y14068789D01*
X14092695Y14184501D01*
X14344105Y14352488D01*
X14557912Y14566295D01*
X14610367Y14644800D01*
X15327528Y14644800D01*
X15339788Y14520318D01*
X15376098Y14400620D01*
X15435063Y14290306D01*
X15514415Y14193615D01*
X15611106Y14114263D01*
X15721420Y14055298D01*
X15841118Y14018988D01*
X15965600Y14006728D01*
X16579850Y14009800D01*
X16738600Y14168550D01*
X16738600Y15417800D01*
X16992600Y15417800D01*
X16992600Y14168550D01*
X17151350Y14009800D01*
X17765600Y14006728D01*
X17890082Y14018988D01*
X18009780Y14055298D01*
X18120094Y14114263D01*
X18216785Y14193615D01*
X18296137Y14290306D01*
X18355102Y14400620D01*
X18391412Y14520318D01*
X18403672Y14644800D01*
X18400600Y15259050D01*
X18241850Y15417800D01*
X16992600Y15417800D01*
X16738600Y15417800D01*
X15489350Y15417800D01*
X15330600Y15259050D01*
X15327528Y14644800D01*
X14610367Y14644800D01*
X14725899Y14817705D01*
X14841611Y15097057D01*
X14900600Y15393616D01*
X14900600Y15695984D01*
X14841611Y15992543D01*
X14725899Y16271895D01*
X14610368Y16444800D01*
X15327528Y16444800D01*
X15330600Y15830550D01*
X15489350Y15671800D01*
X16738600Y15671800D01*
X16738600Y16921050D01*
X16992600Y16921050D01*
X16992600Y15671800D01*
X18241850Y15671800D01*
X18400600Y15830550D01*
X18403672Y16444800D01*
X18391412Y16569282D01*
X18355102Y16688980D01*
X18296137Y16799294D01*
X18216785Y16895985D01*
X18120094Y16975337D01*
X18009780Y17034302D01*
X17890082Y17070612D01*
X17765600Y17082872D01*
X17151350Y17079800D01*
X16992600Y16921050D01*
X16738600Y16921050D01*
X16579850Y17079800D01*
X15965600Y17082872D01*
X15841118Y17070612D01*
X15721420Y17034302D01*
X15611106Y16975337D01*
X15514415Y16895985D01*
X15435063Y16799294D01*
X15376098Y16688980D01*
X15339788Y16569282D01*
X15327528Y16444800D01*
X14610368Y16444800D01*
X14557912Y16523305D01*
X14344105Y16737112D01*
X14092695Y16905099D01*
X13813343Y17020811D01*
X13516784Y17079800D01*
X13214416Y17079800D01*
X13104118Y17057861D01*
X10022134Y20139844D01*
X9994417Y20173617D01*
X9859659Y20284211D01*
X9705913Y20366389D01*
X9539090Y20416995D01*
X9409077Y20429800D01*
X9409069Y20429800D01*
X9365600Y20434081D01*
X9322131Y20429800D01*
X4949618Y20429800D01*
X4945920Y20435335D01*
X4836455Y20544800D01*
X4945920Y20654265D01*
X5033141Y20784800D01*
X40370399Y20784800D01*
X48135001Y13020197D01*
X48135000Y11378044D01*
X47980241Y11274637D01*
X47780363Y11074759D01*
X47625000Y10842241D01*
X47469637Y11074759D01*
X47269759Y11274637D01*
X47034727Y11431680D01*
X46773574Y11539853D01*
X46496335Y11595000D01*
X46213665Y11595000D01*
X45936426Y11539853D01*
X45675273Y11431680D01*
X45440241Y11274637D01*
X45240363Y11074759D01*
X45083320Y10839727D01*
X44975147Y10578574D01*
X44920000Y10301335D01*
X44920000Y10018665D01*
X44975147Y9741426D01*
X45083320Y9480273D01*
X45240363Y9245241D01*
X45440241Y9045363D01*
X45485683Y9015000D01*
X45122323Y9015000D01*
X45085000Y9018676D01*
X45047677Y9015000D01*
X45047667Y9015000D01*
X44936014Y9004003D01*
X44792753Y8960546D01*
X44660724Y8889974D01*
X44544999Y8795001D01*
X44521201Y8766003D01*
X42668998Y6913799D01*
X42640000Y6890001D01*
X42616202Y6861003D01*
X42616201Y6861002D01*
X42545026Y6774276D01*
X42474454Y6642246D01*
X42448354Y6556202D01*
X42430998Y6498986D01*
X42427808Y6466595D01*
X42416324Y6350000D01*
X42420001Y6312668D01*
X42420000Y3733991D01*
X42277990Y3639103D01*
X42080897Y3442010D01*
X41986009Y3300000D01*
X41833991Y3300000D01*
X41739103Y3442010D01*
X41542010Y3639103D01*
X41400000Y3733991D01*
X41400000Y8941957D01*
X41554759Y9045363D01*
X41754637Y9245241D01*
X41910000Y9477759D01*
X42065363Y9245241D01*
X42265241Y9045363D01*
X42500273Y8888320D01*
X42761426Y8780147D01*
X43038665Y8725000D01*
X43321335Y8725000D01*
X43598574Y8780147D01*
X43859727Y8888320D01*
X44094759Y9045363D01*
X44294637Y9245241D01*
X44451680Y9480273D01*
X44559853Y9741426D01*
X44615000Y10018665D01*
X44615000Y10301335D01*
X44559853Y10578574D01*
X44451680Y10839727D01*
X44294637Y11074759D01*
X44094759Y11274637D01*
X43859727Y11431680D01*
X43598574Y11539853D01*
X43321335Y11595000D01*
X43038665Y11595000D01*
X42761426Y11539853D01*
X42500273Y11431680D01*
X42265241Y11274637D01*
X42065363Y11074759D01*
X41910000Y10842241D01*
X41754637Y11074759D01*
X41554759Y11274637D01*
X41319727Y11431680D01*
X41058574Y11539853D01*
X40781335Y11595000D01*
X40498665Y11595000D01*
X40221426Y11539853D01*
X39960273Y11431680D01*
X39725241Y11274637D01*
X39525363Y11074759D01*
X39370000Y10842241D01*
X39214637Y11074759D01*
X39014759Y11274637D01*
X38779727Y11431680D01*
X38518574Y11539853D01*
X38241335Y11595000D01*
X37958665Y11595000D01*
X37681426Y11539853D01*
X37420273Y11431680D01*
X37185241Y11274637D01*
X36985363Y11074759D01*
X36830000Y10842241D01*
X36674637Y11074759D01*
X36474759Y11274637D01*
X36239727Y11431680D01*
X35978574Y11539853D01*
X35701335Y11595000D01*
X35418665Y11595000D01*
X35141426Y11539853D01*
X34880273Y11431680D01*
X34645241Y11274637D01*
X34445363Y11074759D01*
X34290000Y10842241D01*
X34134637Y11074759D01*
X33934759Y11274637D01*
X33699727Y11431680D01*
X33438574Y11539853D01*
X33161335Y11595000D01*
X32878665Y11595000D01*
X32601426Y11539853D01*
X32340273Y11431680D01*
X32105241Y11274637D01*
X31906643Y11076039D01*
X31905812Y11084482D01*
X31869502Y11204180D01*
X31810537Y11314494D01*
X31731185Y11411185D01*
X31634494Y11490537D01*
X31524180Y11549502D01*
X31404482Y11585812D01*
X31280000Y11598072D01*
X29680000Y11598072D01*
X29555518Y11585812D01*
X29435820Y11549502D01*
X29325506Y11490537D01*
X29228815Y11411185D01*
X29149463Y11314494D01*
X29090498Y11204180D01*
X29054188Y11084482D01*
X29041928Y10960000D01*
X29041928Y9360000D01*
X29054188Y9235518D01*
X29090498Y9115820D01*
X29149463Y9005506D01*
X29228815Y8908815D01*
X29325506Y8829463D01*
X29435820Y8770498D01*
X29555518Y8734188D01*
X29680000Y8721928D01*
X29720001Y8721928D01*
X29720000Y3733991D01*
X29577990Y3639103D01*
X29380897Y3442010D01*
X29226043Y3210254D01*
X29210000Y3171523D01*
X29193957Y3210254D01*
X29039103Y3442010D01*
X28842010Y3639103D01*
X28610254Y3793957D01*
X28352740Y3900623D01*
X28079365Y3955000D01*
X27800635Y3955000D01*
X27527260Y3900623D01*
X27269746Y3793957D01*
X27037990Y3639103D01*
X26840897Y3442010D01*
X26686043Y3210254D01*
X26579377Y2952740D01*
X26525000Y2679365D01*
X26525000Y2400635D01*
X26579377Y2127260D01*
X26686043Y1869746D01*
X26733047Y1799400D01*
X21296179Y1799400D01*
X16190646Y6904932D01*
X16150534Y6945044D01*
X16122817Y6978817D01*
X15988059Y7089411D01*
X15834313Y7171589D01*
X15667490Y7222195D01*
X15537477Y7235000D01*
X15537469Y7235000D01*
X15494000Y7239281D01*
X15450531Y7235000D01*
X12344549Y7235000D01*
X4935602Y14643947D01*
X4945920Y14654265D01*
X5098805Y14883073D01*
X5204114Y15137310D01*
X5257800Y15407208D01*
X5257800Y15682392D01*
X5204114Y15952290D01*
X5098805Y16206527D01*
X4945920Y16435335D01*
X4751335Y16629920D01*
X4522527Y16782805D01*
X4387090Y16838905D01*
X3860800Y17365195D01*
X3334510Y16838905D01*
X3199073Y16782805D01*
X2970265Y16629920D01*
X2775680Y16435335D01*
X2622795Y16206527D01*
X2517486Y15952290D01*
X2463800Y15682392D01*
X2463800Y15407208D01*
X2517486Y15137310D01*
X2622795Y14883073D01*
X2775680Y14654265D01*
X2970265Y14459680D01*
X2972397Y14458255D01*
X2988605Y14293680D01*
X3039212Y14126857D01*
X3121390Y13973111D01*
X3204268Y13872124D01*
X3204271Y13872121D01*
X3231984Y13838353D01*
X3265752Y13810640D01*
X11321440Y5754951D01*
X11349153Y5721183D01*
X11382921Y5693470D01*
X11382923Y5693468D01*
X11404046Y5676133D01*
X11483911Y5610589D01*
X11637657Y5528411D01*
X11804480Y5477805D01*
X11934493Y5465000D01*
X11934501Y5465000D01*
X11977970Y5460719D01*
X12021439Y5465000D01*
X15127422Y5465000D01*
X19882421Y710000D01*
X15583610Y710000D01*
X15861388Y987778D01*
X16127869Y1386595D01*
X16311424Y1829737D01*
X16405000Y2300173D01*
X16405000Y2779827D01*
X16311424Y3250263D01*
X16127869Y3693405D01*
X15861388Y4092222D01*
X15522222Y4431388D01*
X15123405Y4697869D01*
X14680263Y4881424D01*
X14209827Y4975000D01*
X13730173Y4975000D01*
X13259737Y4881424D01*
X12816595Y4697869D01*
X12417778Y4431388D01*
X12078612Y4092222D01*
X11812131Y3693405D01*
X11628576Y3250263D01*
X11535000Y2779827D01*
X11535000Y2300173D01*
X11628576Y1829737D01*
X11812131Y1386595D01*
X12078612Y987778D01*
X12356390Y710000D01*
X929091Y710000D01*
X710000Y929091D01*
X710000Y17472783D01*
X2458890Y17472783D01*
X2499878Y17200667D01*
X2593164Y16941777D01*
X2655144Y16825820D01*
X2895235Y16758840D01*
X3681195Y17544800D01*
X4040405Y17544800D01*
X4826365Y16758840D01*
X5066456Y16825820D01*
X5183556Y17074848D01*
X5249823Y17341935D01*
X5262710Y17616817D01*
X5221722Y17888933D01*
X5128436Y18147823D01*
X5066456Y18263780D01*
X4826365Y18330760D01*
X4040405Y17544800D01*
X3681195Y17544800D01*
X2895235Y18330760D01*
X2655144Y18263780D01*
X2538044Y18014752D01*
X2471777Y17747665D01*
X2458890Y17472783D01*
X710000Y17472783D01*
X710000Y52388793D01*
X907156Y52566233D01*
X13550228Y52553838D01*
G04 #@! TA.AperFunction,Conductor*
D21*
G36*
X13550228Y52553838D02*
G01*
X13348612Y52352222D01*
X13082131Y51953405D01*
X12898576Y51510263D01*
X12805000Y51039827D01*
X12805000Y50560173D01*
X12898576Y50089737D01*
X13082131Y49646595D01*
X13348612Y49247778D01*
X13687778Y48908612D01*
X14086595Y48642131D01*
X14529737Y48458576D01*
X15000173Y48365000D01*
X15479827Y48365000D01*
X15950263Y48458576D01*
X16393405Y48642131D01*
X16792222Y48908612D01*
X17131388Y49247778D01*
X17397869Y49646595D01*
X17576584Y50078052D01*
X17655001Y49960692D01*
X17655000Y41298331D01*
X17655000Y41298330D01*
X17655001Y35874804D01*
X5257800Y23477601D01*
X5257800Y23682392D01*
X5204114Y23952290D01*
X5098805Y24206527D01*
X4945920Y24435335D01*
X4836455Y24544800D01*
X4945920Y24654265D01*
X5098805Y24883073D01*
X5204114Y25137310D01*
X5257800Y25407208D01*
X5257800Y25682392D01*
X5204114Y25952290D01*
X5098805Y26206527D01*
X4945920Y26435335D01*
X4751335Y26629920D01*
X4522527Y26782805D01*
X4268290Y26888114D01*
X3998392Y26941800D01*
X3723208Y26941800D01*
X3453310Y26888114D01*
X3199073Y26782805D01*
X2970265Y26629920D01*
X2775680Y26435335D01*
X2622795Y26206527D01*
X2517486Y25952290D01*
X2463800Y25682392D01*
X2463800Y25407208D01*
X2517486Y25137310D01*
X2622795Y24883073D01*
X2775680Y24654265D01*
X2885145Y24544800D01*
X2775680Y24435335D01*
X2622795Y24206527D01*
X2517486Y23952290D01*
X2463800Y23682392D01*
X2463800Y23407208D01*
X2517486Y23137310D01*
X2622795Y22883073D01*
X2775680Y22654265D01*
X2885145Y22544800D01*
X2775680Y22435335D01*
X2622795Y22206527D01*
X2517486Y21952290D01*
X2463800Y21682392D01*
X2463800Y21407208D01*
X2517486Y21137310D01*
X2622795Y20883073D01*
X2775680Y20654265D01*
X2885145Y20544800D01*
X2775680Y20435335D01*
X2622795Y20206527D01*
X2517486Y19952290D01*
X2463800Y19682392D01*
X2463800Y19407208D01*
X2517486Y19137310D01*
X2622795Y18883073D01*
X2775680Y18654265D01*
X2970265Y18459680D01*
X3199073Y18306795D01*
X3334510Y18250695D01*
X3860800Y17724405D01*
X4387090Y18250695D01*
X4522527Y18306795D01*
X4751335Y18459680D01*
X4945920Y18654265D01*
X4949618Y18659800D01*
X8999022Y18659800D01*
X11852539Y15806282D01*
X11830600Y15695984D01*
X11830600Y15393616D01*
X11889589Y15097057D01*
X12005301Y14817705D01*
X12173288Y14566295D01*
X12387095Y14352488D01*
X12638505Y14184501D01*
X12917857Y14068789D01*
X13214416Y14009800D01*
X13516784Y14009800D01*
X13813343Y14068789D01*
X14092695Y14184501D01*
X14344105Y14352488D01*
X14557912Y14566295D01*
X14610367Y14644800D01*
X15327528Y14644800D01*
X15339788Y14520318D01*
X15376098Y14400620D01*
X15435063Y14290306D01*
X15514415Y14193615D01*
X15611106Y14114263D01*
X15721420Y14055298D01*
X15841118Y14018988D01*
X15965600Y14006728D01*
X16579850Y14009800D01*
X16738600Y14168550D01*
X16738600Y15417800D01*
X16992600Y15417800D01*
X16992600Y14168550D01*
X17151350Y14009800D01*
X17765600Y14006728D01*
X17890082Y14018988D01*
X18009780Y14055298D01*
X18120094Y14114263D01*
X18216785Y14193615D01*
X18296137Y14290306D01*
X18355102Y14400620D01*
X18391412Y14520318D01*
X18403672Y14644800D01*
X18400600Y15259050D01*
X18241850Y15417800D01*
X16992600Y15417800D01*
X16738600Y15417800D01*
X15489350Y15417800D01*
X15330600Y15259050D01*
X15327528Y14644800D01*
X14610367Y14644800D01*
X14725899Y14817705D01*
X14841611Y15097057D01*
X14900600Y15393616D01*
X14900600Y15695984D01*
X14841611Y15992543D01*
X14725899Y16271895D01*
X14610368Y16444800D01*
X15327528Y16444800D01*
X15330600Y15830550D01*
X15489350Y15671800D01*
X16738600Y15671800D01*
X16738600Y16921050D01*
X16992600Y16921050D01*
X16992600Y15671800D01*
X18241850Y15671800D01*
X18400600Y15830550D01*
X18403672Y16444800D01*
X18391412Y16569282D01*
X18355102Y16688980D01*
X18296137Y16799294D01*
X18216785Y16895985D01*
X18120094Y16975337D01*
X18009780Y17034302D01*
X17890082Y17070612D01*
X17765600Y17082872D01*
X17151350Y17079800D01*
X16992600Y16921050D01*
X16738600Y16921050D01*
X16579850Y17079800D01*
X15965600Y17082872D01*
X15841118Y17070612D01*
X15721420Y17034302D01*
X15611106Y16975337D01*
X15514415Y16895985D01*
X15435063Y16799294D01*
X15376098Y16688980D01*
X15339788Y16569282D01*
X15327528Y16444800D01*
X14610368Y16444800D01*
X14557912Y16523305D01*
X14344105Y16737112D01*
X14092695Y16905099D01*
X13813343Y17020811D01*
X13516784Y17079800D01*
X13214416Y17079800D01*
X13104118Y17057861D01*
X10022134Y20139844D01*
X9994417Y20173617D01*
X9859659Y20284211D01*
X9705913Y20366389D01*
X9539090Y20416995D01*
X9409077Y20429800D01*
X9409069Y20429800D01*
X9365600Y20434081D01*
X9322131Y20429800D01*
X4949618Y20429800D01*
X4945920Y20435335D01*
X4836455Y20544800D01*
X4945920Y20654265D01*
X5033141Y20784800D01*
X40370399Y20784800D01*
X48135001Y13020197D01*
X48135000Y11378044D01*
X47980241Y11274637D01*
X47780363Y11074759D01*
X47625000Y10842241D01*
X47469637Y11074759D01*
X47269759Y11274637D01*
X47034727Y11431680D01*
X46773574Y11539853D01*
X46496335Y11595000D01*
X46213665Y11595000D01*
X45936426Y11539853D01*
X45675273Y11431680D01*
X45440241Y11274637D01*
X45240363Y11074759D01*
X45083320Y10839727D01*
X44975147Y10578574D01*
X44920000Y10301335D01*
X44920000Y10018665D01*
X44975147Y9741426D01*
X45083320Y9480273D01*
X45240363Y9245241D01*
X45440241Y9045363D01*
X45485683Y9015000D01*
X45122323Y9015000D01*
X45085000Y9018676D01*
X45047677Y9015000D01*
X45047667Y9015000D01*
X44936014Y9004003D01*
X44792753Y8960546D01*
X44660724Y8889974D01*
X44544999Y8795001D01*
X44521201Y8766003D01*
X42668998Y6913799D01*
X42640000Y6890001D01*
X42616202Y6861003D01*
X42616201Y6861002D01*
X42545026Y6774276D01*
X42474454Y6642246D01*
X42448354Y6556202D01*
X42430998Y6498986D01*
X42427808Y6466595D01*
X42416324Y6350000D01*
X42420001Y6312668D01*
X42420000Y3733991D01*
X42277990Y3639103D01*
X42080897Y3442010D01*
X41986009Y3300000D01*
X41833991Y3300000D01*
X41739103Y3442010D01*
X41542010Y3639103D01*
X41400000Y3733991D01*
X41400000Y8941957D01*
X41554759Y9045363D01*
X41754637Y9245241D01*
X41910000Y9477759D01*
X42065363Y9245241D01*
X42265241Y9045363D01*
X42500273Y8888320D01*
X42761426Y8780147D01*
X43038665Y8725000D01*
X43321335Y8725000D01*
X43598574Y8780147D01*
X43859727Y8888320D01*
X44094759Y9045363D01*
X44294637Y9245241D01*
X44451680Y9480273D01*
X44559853Y9741426D01*
X44615000Y10018665D01*
X44615000Y10301335D01*
X44559853Y10578574D01*
X44451680Y10839727D01*
X44294637Y11074759D01*
X44094759Y11274637D01*
X43859727Y11431680D01*
X43598574Y11539853D01*
X43321335Y11595000D01*
X43038665Y11595000D01*
X42761426Y11539853D01*
X42500273Y11431680D01*
X42265241Y11274637D01*
X42065363Y11074759D01*
X41910000Y10842241D01*
X41754637Y11074759D01*
X41554759Y11274637D01*
X41319727Y11431680D01*
X41058574Y11539853D01*
X40781335Y11595000D01*
X40498665Y11595000D01*
X40221426Y11539853D01*
X39960273Y11431680D01*
X39725241Y11274637D01*
X39525363Y11074759D01*
X39370000Y10842241D01*
X39214637Y11074759D01*
X39014759Y11274637D01*
X38779727Y11431680D01*
X38518574Y11539853D01*
X38241335Y11595000D01*
X37958665Y11595000D01*
X37681426Y11539853D01*
X37420273Y11431680D01*
X37185241Y11274637D01*
X36985363Y11074759D01*
X36830000Y10842241D01*
X36674637Y11074759D01*
X36474759Y11274637D01*
X36239727Y11431680D01*
X35978574Y11539853D01*
X35701335Y11595000D01*
X35418665Y11595000D01*
X35141426Y11539853D01*
X34880273Y11431680D01*
X34645241Y11274637D01*
X34445363Y11074759D01*
X34290000Y10842241D01*
X34134637Y11074759D01*
X33934759Y11274637D01*
X33699727Y11431680D01*
X33438574Y11539853D01*
X33161335Y11595000D01*
X32878665Y11595000D01*
X32601426Y11539853D01*
X32340273Y11431680D01*
X32105241Y11274637D01*
X31906643Y11076039D01*
X31905812Y11084482D01*
X31869502Y11204180D01*
X31810537Y11314494D01*
X31731185Y11411185D01*
X31634494Y11490537D01*
X31524180Y11549502D01*
X31404482Y11585812D01*
X31280000Y11598072D01*
X29680000Y11598072D01*
X29555518Y11585812D01*
X29435820Y11549502D01*
X29325506Y11490537D01*
X29228815Y11411185D01*
X29149463Y11314494D01*
X29090498Y11204180D01*
X29054188Y11084482D01*
X29041928Y10960000D01*
X29041928Y9360000D01*
X29054188Y9235518D01*
X29090498Y9115820D01*
X29149463Y9005506D01*
X29228815Y8908815D01*
X29325506Y8829463D01*
X29435820Y8770498D01*
X29555518Y8734188D01*
X29680000Y8721928D01*
X29720001Y8721928D01*
X29720000Y3733991D01*
X29577990Y3639103D01*
X29380897Y3442010D01*
X29226043Y3210254D01*
X29210000Y3171523D01*
X29193957Y3210254D01*
X29039103Y3442010D01*
X28842010Y3639103D01*
X28610254Y3793957D01*
X28352740Y3900623D01*
X28079365Y3955000D01*
X27800635Y3955000D01*
X27527260Y3900623D01*
X27269746Y3793957D01*
X27037990Y3639103D01*
X26840897Y3442010D01*
X26686043Y3210254D01*
X26579377Y2952740D01*
X26525000Y2679365D01*
X26525000Y2400635D01*
X26579377Y2127260D01*
X26686043Y1869746D01*
X26733047Y1799400D01*
X21296179Y1799400D01*
X16190646Y6904932D01*
X16150534Y6945044D01*
X16122817Y6978817D01*
X15988059Y7089411D01*
X15834313Y7171589D01*
X15667490Y7222195D01*
X15537477Y7235000D01*
X15537469Y7235000D01*
X15494000Y7239281D01*
X15450531Y7235000D01*
X12344549Y7235000D01*
X4935602Y14643947D01*
X4945920Y14654265D01*
X5098805Y14883073D01*
X5204114Y15137310D01*
X5257800Y15407208D01*
X5257800Y15682392D01*
X5204114Y15952290D01*
X5098805Y16206527D01*
X4945920Y16435335D01*
X4751335Y16629920D01*
X4522527Y16782805D01*
X4387090Y16838905D01*
X3860800Y17365195D01*
X3334510Y16838905D01*
X3199073Y16782805D01*
X2970265Y16629920D01*
X2775680Y16435335D01*
X2622795Y16206527D01*
X2517486Y15952290D01*
X2463800Y15682392D01*
X2463800Y15407208D01*
X2517486Y15137310D01*
X2622795Y14883073D01*
X2775680Y14654265D01*
X2970265Y14459680D01*
X2972397Y14458255D01*
X2988605Y14293680D01*
X3039212Y14126857D01*
X3121390Y13973111D01*
X3204268Y13872124D01*
X3204271Y13872121D01*
X3231984Y13838353D01*
X3265752Y13810640D01*
X11321440Y5754951D01*
X11349153Y5721183D01*
X11382921Y5693470D01*
X11382923Y5693468D01*
X11404046Y5676133D01*
X11483911Y5610589D01*
X11637657Y5528411D01*
X11804480Y5477805D01*
X11934493Y5465000D01*
X11934501Y5465000D01*
X11977970Y5460719D01*
X12021439Y5465000D01*
X15127422Y5465000D01*
X19882421Y710000D01*
X15583610Y710000D01*
X15861388Y987778D01*
X16127869Y1386595D01*
X16311424Y1829737D01*
X16405000Y2300173D01*
X16405000Y2779827D01*
X16311424Y3250263D01*
X16127869Y3693405D01*
X15861388Y4092222D01*
X15522222Y4431388D01*
X15123405Y4697869D01*
X14680263Y4881424D01*
X14209827Y4975000D01*
X13730173Y4975000D01*
X13259737Y4881424D01*
X12816595Y4697869D01*
X12417778Y4431388D01*
X12078612Y4092222D01*
X11812131Y3693405D01*
X11628576Y3250263D01*
X11535000Y2779827D01*
X11535000Y2300173D01*
X11628576Y1829737D01*
X11812131Y1386595D01*
X12078612Y987778D01*
X12356390Y710000D01*
X929091Y710000D01*
X710000Y929091D01*
X710000Y17472783D01*
X2458890Y17472783D01*
X2499878Y17200667D01*
X2593164Y16941777D01*
X2655144Y16825820D01*
X2895235Y16758840D01*
X3681195Y17544800D01*
X4040405Y17544800D01*
X4826365Y16758840D01*
X5066456Y16825820D01*
X5183556Y17074848D01*
X5249823Y17341935D01*
X5262710Y17616817D01*
X5221722Y17888933D01*
X5128436Y18147823D01*
X5066456Y18263780D01*
X4826365Y18330760D01*
X4040405Y17544800D01*
X3681195Y17544800D01*
X2895235Y18330760D01*
X2655144Y18263780D01*
X2538044Y18014752D01*
X2471777Y17747665D01*
X2458890Y17472783D01*
X710000Y17472783D01*
X710000Y52388793D01*
X907156Y52566233D01*
X13550228Y52553838D01*
G37*
G04 #@! TD.AperFunction*
M02*
