M48
; DRILL file {KiCad (5.1.12-1-10_14)} date Friday, June 10, 2022 at 09:36:26 PM
; FORMAT={-:-/ absolute / metric / decimal}
; #@! TF.CreationDate,2022-06-10T21:36:26-05:00
; #@! TF.GenerationSoftware,Kicad,Pcbnew,(5.1.12-1-10_14)
FMAT,2
METRIC
T1C0.400
T2C0.762
T3C1.000
T4C1.020
T5C1.200
T6C3.100
%
G90
G05
T1
X13.92Y23.545
X19.635Y29.26
X35.56Y5.436
X38.1Y6.096
X48.565Y44.247
T2
X3.861Y25.545
X3.861Y23.545
X3.861Y21.545
X3.861Y19.545
X3.861Y17.545
X3.861Y15.545
T3
X21.336Y40.64
X23.876Y40.64
X26.416Y40.64
X28.956Y40.64
X30.48Y10.16
X31.496Y40.64
X33.02Y10.16
X34.036Y40.64
X35.56Y10.16
X38.1Y10.16
X40.64Y10.16
X43.18Y10.16
X46.355Y10.16
X48.895Y10.16
X51.435Y10.16
X52.984Y39.472
X52.984Y36.932
X52.984Y34.392
X52.984Y31.852
X52.984Y29.312
X52.984Y26.772
X52.984Y24.232
X52.984Y21.692
X53.975Y10.16
X55.524Y39.472
X55.524Y36.932
X55.524Y34.392
X55.524Y31.852
X55.524Y29.312
X55.524Y26.772
X55.524Y24.232
X55.524Y21.692
X56.515Y10.16
X59.055Y10.16
T4
X18.796Y50.8
X21.336Y50.8
X23.876Y50.8
X26.416Y50.8
X27.94Y2.54
X28.956Y50.8
X30.48Y2.54
X31.496Y50.8
X33.02Y2.54
X34.036Y50.8
X35.56Y2.54
X36.576Y50.8
X38.1Y2.54
X39.116Y50.8
X40.64Y2.54
X41.656Y50.8
X43.18Y2.54
X45.72Y50.8
X45.72Y2.54
X48.26Y50.8
X50.8Y50.8
X50.8Y2.54
X53.34Y50.8
X53.34Y2.54
X55.88Y50.8
X55.88Y2.54
X58.42Y50.8
X58.42Y2.54
X60.96Y50.8
X60.96Y2.54
X63.5Y50.8
X63.5Y2.54
T5
X13.366Y15.545
X16.866Y15.545
T6
X13.97Y2.54
X15.24Y50.8
X66.04Y35.56
X66.04Y7.62
T0
M30
