G04 #@! TF.GenerationSoftware,KiCad,Pcbnew,(5.1.10-1-10_14)*
G04 #@! TF.CreationDate,2023-04-30T23:51:26-07:00*
G04 #@! TF.ProjectId,Control_Boards,436f6e74-726f-46c5-9f42-6f617264732e,rev?*
G04 #@! TF.SameCoordinates,Original*
G04 #@! TF.FileFunction,Legend,Top*
G04 #@! TF.FilePolarity,Positive*
%FSLAX46Y46*%
G04 Gerber Fmt 4.6, Leading zero omitted, Abs format (unit mm)*
G04 Created by KiCad (PCBNEW (5.1.10-1-10_14)) date 2023-04-30 23:51:26*
%MOMM*%
%LPD*%
G01*
G04 APERTURE LIST*
%ADD10C,0.250000*%
%ADD11C,0.150000*%
%ADD12C,0.200000*%
%ADD13C,0.120000*%
%ADD14C,0.152400*%
%ADD15C,0.500000*%
G04 APERTURE END LIST*
D10*
X82232514Y211161142D02*
X82446800Y211089714D01*
X82518228Y211018285D01*
X82589657Y210875428D01*
X82589657Y210661142D01*
X82518228Y210518285D01*
X82446800Y210446857D01*
X82303942Y210375428D01*
X81732514Y210375428D01*
X81732514Y211875428D01*
X82232514Y211875428D01*
X82375371Y211804000D01*
X82446800Y211732571D01*
X82518228Y211589714D01*
X82518228Y211446857D01*
X82446800Y211304000D01*
X82375371Y211232571D01*
X82232514Y211161142D01*
X81732514Y211161142D01*
X83232514Y210375428D02*
X83232514Y211375428D01*
X83232514Y211089714D02*
X83303942Y211232571D01*
X83375371Y211304000D01*
X83518228Y211375428D01*
X83661085Y211375428D01*
X84803942Y210375428D02*
X84803942Y211161142D01*
X84732514Y211304000D01*
X84589657Y211375428D01*
X84303942Y211375428D01*
X84161085Y211304000D01*
X84803942Y210446857D02*
X84661085Y210375428D01*
X84303942Y210375428D01*
X84161085Y210446857D01*
X84089657Y210589714D01*
X84089657Y210732571D01*
X84161085Y210875428D01*
X84303942Y210946857D01*
X84661085Y210946857D01*
X84803942Y211018285D01*
X85518228Y210375428D02*
X85518228Y211375428D01*
X85518228Y211875428D02*
X85446800Y211804000D01*
X85518228Y211732571D01*
X85589657Y211804000D01*
X85518228Y211875428D01*
X85518228Y211732571D01*
X86232514Y211375428D02*
X86232514Y210375428D01*
X86232514Y211232571D02*
X86303942Y211304000D01*
X86446800Y211375428D01*
X86661085Y211375428D01*
X86803942Y211304000D01*
X86875371Y211161142D01*
X86875371Y210375428D01*
X89232514Y211161142D02*
X89446800Y211089714D01*
X89518228Y211018285D01*
X89589657Y210875428D01*
X89589657Y210661142D01*
X89518228Y210518285D01*
X89446800Y210446857D01*
X89303942Y210375428D01*
X88732514Y210375428D01*
X88732514Y211875428D01*
X89232514Y211875428D01*
X89375371Y211804000D01*
X89446800Y211732571D01*
X89518228Y211589714D01*
X89518228Y211446857D01*
X89446800Y211304000D01*
X89375371Y211232571D01*
X89232514Y211161142D01*
X88732514Y211161142D01*
X90446800Y210375428D02*
X90303942Y210446857D01*
X90232514Y210518285D01*
X90161085Y210661142D01*
X90161085Y211089714D01*
X90232514Y211232571D01*
X90303942Y211304000D01*
X90446800Y211375428D01*
X90661085Y211375428D01*
X90803942Y211304000D01*
X90875371Y211232571D01*
X90946800Y211089714D01*
X90946800Y210661142D01*
X90875371Y210518285D01*
X90803942Y210446857D01*
X90661085Y210375428D01*
X90446800Y210375428D01*
X92232514Y210375428D02*
X92232514Y211161142D01*
X92161085Y211304000D01*
X92018228Y211375428D01*
X91732514Y211375428D01*
X91589657Y211304000D01*
X92232514Y210446857D02*
X92089657Y210375428D01*
X91732514Y210375428D01*
X91589657Y210446857D01*
X91518228Y210589714D01*
X91518228Y210732571D01*
X91589657Y210875428D01*
X91732514Y210946857D01*
X92089657Y210946857D01*
X92232514Y211018285D01*
X92946800Y210375428D02*
X92946800Y211375428D01*
X92946800Y211089714D02*
X93018228Y211232571D01*
X93089657Y211304000D01*
X93232514Y211375428D01*
X93375371Y211375428D01*
X94518228Y210375428D02*
X94518228Y211875428D01*
X94518228Y210446857D02*
X94375371Y210375428D01*
X94089657Y210375428D01*
X93946800Y210446857D01*
X93875371Y210518285D01*
X93803942Y210661142D01*
X93803942Y211089714D01*
X93875371Y211232571D01*
X93946800Y211304000D01*
X94089657Y211375428D01*
X94375371Y211375428D01*
X94518228Y211304000D01*
X87125371Y207875428D02*
X86411085Y207875428D01*
X86411085Y209375428D01*
X87625371Y208661142D02*
X88125371Y208661142D01*
X88339657Y207875428D02*
X87625371Y207875428D01*
X87625371Y209375428D01*
X88339657Y209375428D01*
X88982514Y207875428D02*
X88982514Y209375428D01*
X89339657Y209375428D01*
X89553942Y209304000D01*
X89696800Y209161142D01*
X89768228Y209018285D01*
X89839657Y208732571D01*
X89839657Y208518285D01*
X89768228Y208232571D01*
X89696800Y208089714D01*
X89553942Y207946857D01*
X89339657Y207875428D01*
X88982514Y207875428D01*
X90411085Y207946857D02*
X90553942Y207875428D01*
X90839657Y207875428D01*
X90982514Y207946857D01*
X91053942Y208089714D01*
X91053942Y208161142D01*
X90982514Y208304000D01*
X90839657Y208375428D01*
X90625371Y208375428D01*
X90482514Y208446857D01*
X90411085Y208589714D01*
X90411085Y208661142D01*
X90482514Y208804000D01*
X90625371Y208875428D01*
X90839657Y208875428D01*
X90982514Y208804000D01*
D11*
X117224504Y228519023D02*
X117462600Y228519023D01*
X117581647Y228459500D01*
X117700695Y228340452D01*
X117760219Y228102357D01*
X117760219Y227685690D01*
X117700695Y227447595D01*
X117581647Y227328547D01*
X117462600Y227269023D01*
X117224504Y227269023D01*
X117105457Y227328547D01*
X116986409Y227447595D01*
X116926885Y227685690D01*
X116926885Y228102357D01*
X116986409Y228340452D01*
X117105457Y228459500D01*
X117224504Y228519023D01*
X118295933Y228102357D02*
X118295933Y226852357D01*
X118295933Y228042833D02*
X118414980Y228102357D01*
X118653076Y228102357D01*
X118772123Y228042833D01*
X118831647Y227983309D01*
X118891171Y227864261D01*
X118891171Y227507119D01*
X118831647Y227388071D01*
X118772123Y227328547D01*
X118653076Y227269023D01*
X118414980Y227269023D01*
X118295933Y227328547D01*
X119903076Y227328547D02*
X119784028Y227269023D01*
X119545933Y227269023D01*
X119426885Y227328547D01*
X119367361Y227447595D01*
X119367361Y227923785D01*
X119426885Y228042833D01*
X119545933Y228102357D01*
X119784028Y228102357D01*
X119903076Y228042833D01*
X119962600Y227923785D01*
X119962600Y227804738D01*
X119367361Y227685690D01*
X120498314Y228102357D02*
X120498314Y227269023D01*
X120498314Y227983309D02*
X120557838Y228042833D01*
X120676885Y228102357D01*
X120855457Y228102357D01*
X120974504Y228042833D01*
X121034028Y227923785D01*
X121034028Y227269023D01*
X122522123Y227328547D02*
X122700695Y227269023D01*
X122998314Y227269023D01*
X123117361Y227328547D01*
X123176885Y227388071D01*
X123236409Y227507119D01*
X123236409Y227626166D01*
X123176885Y227745214D01*
X123117361Y227804738D01*
X122998314Y227864261D01*
X122760219Y227923785D01*
X122641171Y227983309D01*
X122581647Y228042833D01*
X122522123Y228161880D01*
X122522123Y228280928D01*
X122581647Y228399976D01*
X122641171Y228459500D01*
X122760219Y228519023D01*
X123057838Y228519023D01*
X123236409Y228459500D01*
X123950695Y227269023D02*
X123831647Y227328547D01*
X123772123Y227388071D01*
X123712600Y227507119D01*
X123712600Y227864261D01*
X123772123Y227983309D01*
X123831647Y228042833D01*
X123950695Y228102357D01*
X124129266Y228102357D01*
X124248314Y228042833D01*
X124307838Y227983309D01*
X124367361Y227864261D01*
X124367361Y227507119D01*
X124307838Y227388071D01*
X124248314Y227328547D01*
X124129266Y227269023D01*
X123950695Y227269023D01*
X125438790Y228102357D02*
X125438790Y227269023D01*
X124903076Y228102357D02*
X124903076Y227447595D01*
X124962600Y227328547D01*
X125081647Y227269023D01*
X125260219Y227269023D01*
X125379266Y227328547D01*
X125438790Y227388071D01*
X126034028Y227269023D02*
X126034028Y228102357D01*
X126034028Y227864261D02*
X126093552Y227983309D01*
X126153076Y228042833D01*
X126272123Y228102357D01*
X126391171Y228102357D01*
X127343552Y227328547D02*
X127224504Y227269023D01*
X126986409Y227269023D01*
X126867361Y227328547D01*
X126807838Y227388071D01*
X126748314Y227507119D01*
X126748314Y227864261D01*
X126807838Y227983309D01*
X126867361Y228042833D01*
X126986409Y228102357D01*
X127224504Y228102357D01*
X127343552Y228042833D01*
X128355457Y227328547D02*
X128236409Y227269023D01*
X127998314Y227269023D01*
X127879266Y227328547D01*
X127819742Y227447595D01*
X127819742Y227923785D01*
X127879266Y228042833D01*
X127998314Y228102357D01*
X128236409Y228102357D01*
X128355457Y228042833D01*
X128414980Y227923785D01*
X128414980Y227804738D01*
X127819742Y227685690D01*
X130617361Y227269023D02*
X130200695Y227864261D01*
X129903076Y227269023D02*
X129903076Y228519023D01*
X130379266Y228519023D01*
X130498314Y228459500D01*
X130557838Y228399976D01*
X130617361Y228280928D01*
X130617361Y228102357D01*
X130557838Y227983309D01*
X130498314Y227923785D01*
X130379266Y227864261D01*
X129903076Y227864261D01*
X131331647Y227269023D02*
X131212600Y227328547D01*
X131153076Y227388071D01*
X131093552Y227507119D01*
X131093552Y227864261D01*
X131153076Y227983309D01*
X131212600Y228042833D01*
X131331647Y228102357D01*
X131510219Y228102357D01*
X131629266Y228042833D01*
X131688790Y227983309D01*
X131748314Y227864261D01*
X131748314Y227507119D01*
X131688790Y227388071D01*
X131629266Y227328547D01*
X131510219Y227269023D01*
X131331647Y227269023D01*
X132164980Y228102357D02*
X132462600Y227269023D01*
X132760219Y228102357D01*
X133712600Y227328547D02*
X133593552Y227269023D01*
X133355457Y227269023D01*
X133236409Y227328547D01*
X133176885Y227447595D01*
X133176885Y227923785D01*
X133236409Y228042833D01*
X133355457Y228102357D01*
X133593552Y228102357D01*
X133712600Y228042833D01*
X133772123Y227923785D01*
X133772123Y227804738D01*
X133176885Y227685690D01*
X134307838Y227269023D02*
X134307838Y228102357D01*
X134307838Y227864261D02*
X134367361Y227983309D01*
X134426885Y228042833D01*
X134545933Y228102357D01*
X134664980Y228102357D01*
X103504266Y225244023D02*
X103087600Y225839261D01*
X102789980Y225244023D02*
X102789980Y226494023D01*
X103266171Y226494023D01*
X103385219Y226434500D01*
X103444742Y226374976D01*
X103504266Y226255928D01*
X103504266Y226077357D01*
X103444742Y225958309D01*
X103385219Y225898785D01*
X103266171Y225839261D01*
X102789980Y225839261D01*
X104218552Y225244023D02*
X104099504Y225303547D01*
X104039980Y225363071D01*
X103980457Y225482119D01*
X103980457Y225839261D01*
X104039980Y225958309D01*
X104099504Y226017833D01*
X104218552Y226077357D01*
X104397123Y226077357D01*
X104516171Y226017833D01*
X104575695Y225958309D01*
X104635219Y225839261D01*
X104635219Y225482119D01*
X104575695Y225363071D01*
X104516171Y225303547D01*
X104397123Y225244023D01*
X104218552Y225244023D01*
X105170933Y225244023D02*
X105170933Y226494023D01*
X105170933Y226017833D02*
X105289980Y226077357D01*
X105528076Y226077357D01*
X105647123Y226017833D01*
X105706647Y225958309D01*
X105766171Y225839261D01*
X105766171Y225482119D01*
X105706647Y225363071D01*
X105647123Y225303547D01*
X105528076Y225244023D01*
X105289980Y225244023D01*
X105170933Y225303547D01*
X106480457Y225244023D02*
X106361409Y225303547D01*
X106301885Y225363071D01*
X106242361Y225482119D01*
X106242361Y225839261D01*
X106301885Y225958309D01*
X106361409Y226017833D01*
X106480457Y226077357D01*
X106659028Y226077357D01*
X106778076Y226017833D01*
X106837600Y225958309D01*
X106897123Y225839261D01*
X106897123Y225482119D01*
X106837600Y225363071D01*
X106778076Y225303547D01*
X106659028Y225244023D01*
X106480457Y225244023D01*
X107254266Y226077357D02*
X107730457Y226077357D01*
X107432838Y226494023D02*
X107432838Y225422595D01*
X107492361Y225303547D01*
X107611409Y225244023D01*
X107730457Y225244023D01*
X108147123Y225244023D02*
X108147123Y226077357D01*
X108147123Y226494023D02*
X108087600Y226434500D01*
X108147123Y226374976D01*
X108206647Y226434500D01*
X108147123Y226494023D01*
X108147123Y226374976D01*
X109278076Y225303547D02*
X109159028Y225244023D01*
X108920933Y225244023D01*
X108801885Y225303547D01*
X108742361Y225363071D01*
X108682838Y225482119D01*
X108682838Y225839261D01*
X108742361Y225958309D01*
X108801885Y226017833D01*
X108920933Y226077357D01*
X109159028Y226077357D01*
X109278076Y226017833D01*
X111182838Y225898785D02*
X111361409Y225839261D01*
X111420933Y225779738D01*
X111480457Y225660690D01*
X111480457Y225482119D01*
X111420933Y225363071D01*
X111361409Y225303547D01*
X111242361Y225244023D01*
X110766171Y225244023D01*
X110766171Y226494023D01*
X111182838Y226494023D01*
X111301885Y226434500D01*
X111361409Y226374976D01*
X111420933Y226255928D01*
X111420933Y226136880D01*
X111361409Y226017833D01*
X111301885Y225958309D01*
X111182838Y225898785D01*
X110766171Y225898785D01*
X112016171Y225244023D02*
X112016171Y226077357D01*
X112016171Y225839261D02*
X112075695Y225958309D01*
X112135219Y226017833D01*
X112254266Y226077357D01*
X112373314Y226077357D01*
X113266171Y225303547D02*
X113147123Y225244023D01*
X112909028Y225244023D01*
X112789980Y225303547D01*
X112730457Y225422595D01*
X112730457Y225898785D01*
X112789980Y226017833D01*
X112909028Y226077357D01*
X113147123Y226077357D01*
X113266171Y226017833D01*
X113325695Y225898785D01*
X113325695Y225779738D01*
X112730457Y225660690D01*
X114397123Y225244023D02*
X114397123Y225898785D01*
X114337600Y226017833D01*
X114218552Y226077357D01*
X113980457Y226077357D01*
X113861409Y226017833D01*
X114397123Y225303547D02*
X114278076Y225244023D01*
X113980457Y225244023D01*
X113861409Y225303547D01*
X113801885Y225422595D01*
X113801885Y225541642D01*
X113861409Y225660690D01*
X113980457Y225720214D01*
X114278076Y225720214D01*
X114397123Y225779738D01*
X114992361Y225244023D02*
X114992361Y226494023D01*
X115111409Y225720214D02*
X115468552Y225244023D01*
X115468552Y226077357D02*
X114992361Y225601166D01*
X116182838Y225244023D02*
X116063790Y225303547D01*
X116004266Y225363071D01*
X115944742Y225482119D01*
X115944742Y225839261D01*
X116004266Y225958309D01*
X116063790Y226017833D01*
X116182838Y226077357D01*
X116361409Y226077357D01*
X116480457Y226017833D01*
X116539980Y225958309D01*
X116599504Y225839261D01*
X116599504Y225482119D01*
X116539980Y225363071D01*
X116480457Y225303547D01*
X116361409Y225244023D01*
X116182838Y225244023D01*
X117670933Y226077357D02*
X117670933Y225244023D01*
X117135219Y226077357D02*
X117135219Y225422595D01*
X117194742Y225303547D01*
X117313790Y225244023D01*
X117492361Y225244023D01*
X117611409Y225303547D01*
X117670933Y225363071D01*
X118087600Y226077357D02*
X118563790Y226077357D01*
X118266171Y226494023D02*
X118266171Y225422595D01*
X118325695Y225303547D01*
X118444742Y225244023D01*
X118563790Y225244023D01*
X120349504Y225898785D02*
X120528076Y225839261D01*
X120587600Y225779738D01*
X120647123Y225660690D01*
X120647123Y225482119D01*
X120587600Y225363071D01*
X120528076Y225303547D01*
X120409028Y225244023D01*
X119932838Y225244023D01*
X119932838Y226494023D01*
X120349504Y226494023D01*
X120468552Y226434500D01*
X120528076Y226374976D01*
X120587600Y226255928D01*
X120587600Y226136880D01*
X120528076Y226017833D01*
X120468552Y225958309D01*
X120349504Y225898785D01*
X119932838Y225898785D01*
X121361409Y225244023D02*
X121242361Y225303547D01*
X121182838Y225363071D01*
X121123314Y225482119D01*
X121123314Y225839261D01*
X121182838Y225958309D01*
X121242361Y226017833D01*
X121361409Y226077357D01*
X121539980Y226077357D01*
X121659028Y226017833D01*
X121718552Y225958309D01*
X121778076Y225839261D01*
X121778076Y225482119D01*
X121718552Y225363071D01*
X121659028Y225303547D01*
X121539980Y225244023D01*
X121361409Y225244023D01*
X122849504Y225244023D02*
X122849504Y225898785D01*
X122789980Y226017833D01*
X122670933Y226077357D01*
X122432838Y226077357D01*
X122313790Y226017833D01*
X122849504Y225303547D02*
X122730457Y225244023D01*
X122432838Y225244023D01*
X122313790Y225303547D01*
X122254266Y225422595D01*
X122254266Y225541642D01*
X122313790Y225660690D01*
X122432838Y225720214D01*
X122730457Y225720214D01*
X122849504Y225779738D01*
X123444742Y225244023D02*
X123444742Y226077357D01*
X123444742Y225839261D02*
X123504266Y225958309D01*
X123563790Y226017833D01*
X123682838Y226077357D01*
X123801885Y226077357D01*
X124754266Y225244023D02*
X124754266Y226494023D01*
X124754266Y225303547D02*
X124635219Y225244023D01*
X124397123Y225244023D01*
X124278076Y225303547D01*
X124218552Y225363071D01*
X124159028Y225482119D01*
X124159028Y225839261D01*
X124218552Y225958309D01*
X124278076Y226017833D01*
X124397123Y226077357D01*
X124635219Y226077357D01*
X124754266Y226017833D01*
X125289980Y225303547D02*
X125409028Y225244023D01*
X125647123Y225244023D01*
X125766171Y225303547D01*
X125825695Y225422595D01*
X125825695Y225482119D01*
X125766171Y225601166D01*
X125647123Y225660690D01*
X125468552Y225660690D01*
X125349504Y225720214D01*
X125289980Y225839261D01*
X125289980Y225898785D01*
X125349504Y226017833D01*
X125468552Y226077357D01*
X125647123Y226077357D01*
X125766171Y226017833D01*
X127313790Y225720214D02*
X128266171Y225720214D01*
X130230457Y225898785D02*
X130409028Y225839261D01*
X130468552Y225779738D01*
X130528076Y225660690D01*
X130528076Y225482119D01*
X130468552Y225363071D01*
X130409028Y225303547D01*
X130289980Y225244023D01*
X129813790Y225244023D01*
X129813790Y226494023D01*
X130230457Y226494023D01*
X130349504Y226434500D01*
X130409028Y226374976D01*
X130468552Y226255928D01*
X130468552Y226136880D01*
X130409028Y226017833D01*
X130349504Y225958309D01*
X130230457Y225898785D01*
X129813790Y225898785D01*
X131063790Y225244023D02*
X131063790Y226077357D01*
X131063790Y225839261D02*
X131123314Y225958309D01*
X131182838Y226017833D01*
X131301885Y226077357D01*
X131420933Y226077357D01*
X132373314Y225244023D02*
X132373314Y225898785D01*
X132313790Y226017833D01*
X132194742Y226077357D01*
X131956647Y226077357D01*
X131837600Y226017833D01*
X132373314Y225303547D02*
X132254266Y225244023D01*
X131956647Y225244023D01*
X131837600Y225303547D01*
X131778076Y225422595D01*
X131778076Y225541642D01*
X131837600Y225660690D01*
X131956647Y225720214D01*
X132254266Y225720214D01*
X132373314Y225779738D01*
X132968552Y225244023D02*
X132968552Y226077357D01*
X132968552Y226494023D02*
X132909028Y226434500D01*
X132968552Y226374976D01*
X133028076Y226434500D01*
X132968552Y226494023D01*
X132968552Y226374976D01*
X133563790Y226077357D02*
X133563790Y225244023D01*
X133563790Y225958309D02*
X133623314Y226017833D01*
X133742361Y226077357D01*
X133920933Y226077357D01*
X134039980Y226017833D01*
X134099504Y225898785D01*
X134099504Y225244023D01*
X136063790Y225898785D02*
X136242361Y225839261D01*
X136301885Y225779738D01*
X136361409Y225660690D01*
X136361409Y225482119D01*
X136301885Y225363071D01*
X136242361Y225303547D01*
X136123314Y225244023D01*
X135647123Y225244023D01*
X135647123Y226494023D01*
X136063790Y226494023D01*
X136182838Y226434500D01*
X136242361Y226374976D01*
X136301885Y226255928D01*
X136301885Y226136880D01*
X136242361Y226017833D01*
X136182838Y225958309D01*
X136063790Y225898785D01*
X135647123Y225898785D01*
X137075695Y225244023D02*
X136956647Y225303547D01*
X136897123Y225363071D01*
X136837600Y225482119D01*
X136837600Y225839261D01*
X136897123Y225958309D01*
X136956647Y226017833D01*
X137075695Y226077357D01*
X137254266Y226077357D01*
X137373314Y226017833D01*
X137432838Y225958309D01*
X137492361Y225839261D01*
X137492361Y225482119D01*
X137432838Y225363071D01*
X137373314Y225303547D01*
X137254266Y225244023D01*
X137075695Y225244023D01*
X138563790Y225244023D02*
X138563790Y225898785D01*
X138504266Y226017833D01*
X138385219Y226077357D01*
X138147123Y226077357D01*
X138028076Y226017833D01*
X138563790Y225303547D02*
X138444742Y225244023D01*
X138147123Y225244023D01*
X138028076Y225303547D01*
X137968552Y225422595D01*
X137968552Y225541642D01*
X138028076Y225660690D01*
X138147123Y225720214D01*
X138444742Y225720214D01*
X138563790Y225779738D01*
X139159028Y225244023D02*
X139159028Y226077357D01*
X139159028Y225839261D02*
X139218552Y225958309D01*
X139278076Y226017833D01*
X139397123Y226077357D01*
X139516171Y226077357D01*
X140468552Y225244023D02*
X140468552Y226494023D01*
X140468552Y225303547D02*
X140349504Y225244023D01*
X140111409Y225244023D01*
X139992361Y225303547D01*
X139932838Y225363071D01*
X139873314Y225482119D01*
X139873314Y225839261D01*
X139932838Y225958309D01*
X139992361Y226017833D01*
X140111409Y226077357D01*
X140349504Y226077357D01*
X140468552Y226017833D01*
X142016171Y225720214D02*
X142968552Y225720214D01*
X144397123Y226077357D02*
X144694742Y225244023D01*
X144992361Y226077357D01*
X145409028Y226374976D02*
X145468552Y226434500D01*
X145587600Y226494023D01*
X145885219Y226494023D01*
X146004266Y226434500D01*
X146063790Y226374976D01*
X146123314Y226255928D01*
X146123314Y226136880D01*
X146063790Y225958309D01*
X145349504Y225244023D01*
X146123314Y225244023D01*
X146659028Y225363071D02*
X146718552Y225303547D01*
X146659028Y225244023D01*
X146599504Y225303547D01*
X146659028Y225363071D01*
X146659028Y225244023D01*
X147492361Y226494023D02*
X147611409Y226494023D01*
X147730457Y226434500D01*
X147789980Y226374976D01*
X147849504Y226255928D01*
X147909028Y226017833D01*
X147909028Y225720214D01*
X147849504Y225482119D01*
X147789980Y225363071D01*
X147730457Y225303547D01*
X147611409Y225244023D01*
X147492361Y225244023D01*
X147373314Y225303547D01*
X147313790Y225363071D01*
X147254266Y225482119D01*
X147194742Y225720214D01*
X147194742Y226017833D01*
X147254266Y226255928D01*
X147313790Y226374976D01*
X147373314Y226434500D01*
X147492361Y226494023D01*
X148444742Y225363071D02*
X148504266Y225303547D01*
X148444742Y225244023D01*
X148385219Y225303547D01*
X148444742Y225363071D01*
X148444742Y225244023D01*
X148980457Y226374976D02*
X149039980Y226434500D01*
X149159028Y226494023D01*
X149456647Y226494023D01*
X149575695Y226434500D01*
X149635219Y226374976D01*
X149694742Y226255928D01*
X149694742Y226136880D01*
X149635219Y225958309D01*
X148920933Y225244023D01*
X149694742Y225244023D01*
X122593800Y132111790D02*
X122708085Y132073695D01*
X122898561Y132073695D01*
X122974752Y132111790D01*
X123012847Y132149885D01*
X123050942Y132226076D01*
X123050942Y132302266D01*
X123012847Y132378457D01*
X122974752Y132416552D01*
X122898561Y132454647D01*
X122746180Y132492742D01*
X122669990Y132530838D01*
X122631895Y132568933D01*
X122593800Y132645123D01*
X122593800Y132721314D01*
X122631895Y132797504D01*
X122669990Y132835600D01*
X122746180Y132873695D01*
X122936657Y132873695D01*
X123050942Y132835600D01*
X123393800Y132073695D02*
X123393800Y132607028D01*
X123393800Y132873695D02*
X123355704Y132835600D01*
X123393800Y132797504D01*
X123431895Y132835600D01*
X123393800Y132873695D01*
X123393800Y132797504D01*
X124117609Y132607028D02*
X124117609Y131959409D01*
X124079514Y131883219D01*
X124041419Y131845123D01*
X123965228Y131807028D01*
X123850942Y131807028D01*
X123774752Y131845123D01*
X124117609Y132111790D02*
X124041419Y132073695D01*
X123889038Y132073695D01*
X123812847Y132111790D01*
X123774752Y132149885D01*
X123736657Y132226076D01*
X123736657Y132454647D01*
X123774752Y132530838D01*
X123812847Y132568933D01*
X123889038Y132607028D01*
X124041419Y132607028D01*
X124117609Y132568933D01*
X124498561Y132607028D02*
X124498561Y132073695D01*
X124498561Y132530838D02*
X124536657Y132568933D01*
X124612847Y132607028D01*
X124727133Y132607028D01*
X124803323Y132568933D01*
X124841419Y132492742D01*
X124841419Y132073695D01*
X125565228Y132073695D02*
X125565228Y132492742D01*
X125527133Y132568933D01*
X125450942Y132607028D01*
X125298561Y132607028D01*
X125222371Y132568933D01*
X125565228Y132111790D02*
X125489038Y132073695D01*
X125298561Y132073695D01*
X125222371Y132111790D01*
X125184276Y132187980D01*
X125184276Y132264171D01*
X125222371Y132340361D01*
X125298561Y132378457D01*
X125489038Y132378457D01*
X125565228Y132416552D01*
X126060466Y132073695D02*
X125984276Y132111790D01*
X125946180Y132187980D01*
X125946180Y132873695D01*
X126860466Y132873695D02*
X127317609Y132873695D01*
X127089038Y132073695D02*
X127089038Y132873695D01*
X127889038Y132111790D02*
X127812847Y132073695D01*
X127660466Y132073695D01*
X127584276Y132111790D01*
X127546180Y132187980D01*
X127546180Y132492742D01*
X127584276Y132568933D01*
X127660466Y132607028D01*
X127812847Y132607028D01*
X127889038Y132568933D01*
X127927133Y132492742D01*
X127927133Y132416552D01*
X127546180Y132340361D01*
X128231895Y132111790D02*
X128308085Y132073695D01*
X128460466Y132073695D01*
X128536657Y132111790D01*
X128574752Y132187980D01*
X128574752Y132226076D01*
X128536657Y132302266D01*
X128460466Y132340361D01*
X128346180Y132340361D01*
X128269990Y132378457D01*
X128231895Y132454647D01*
X128231895Y132492742D01*
X128269990Y132568933D01*
X128346180Y132607028D01*
X128460466Y132607028D01*
X128536657Y132568933D01*
X128803323Y132607028D02*
X129108085Y132607028D01*
X128917609Y132873695D02*
X128917609Y132187980D01*
X128955704Y132111790D01*
X129031895Y132073695D01*
X129108085Y132073695D01*
X129984276Y132073695D02*
X129984276Y132873695D01*
X129984276Y132492742D02*
X130441419Y132492742D01*
X130441419Y132073695D02*
X130441419Y132873695D01*
X131127133Y132111790D02*
X131050942Y132073695D01*
X130898561Y132073695D01*
X130822371Y132111790D01*
X130784276Y132187980D01*
X130784276Y132492742D01*
X130822371Y132568933D01*
X130898561Y132607028D01*
X131050942Y132607028D01*
X131127133Y132568933D01*
X131165228Y132492742D01*
X131165228Y132416552D01*
X130784276Y132340361D01*
X131850942Y132073695D02*
X131850942Y132492742D01*
X131812847Y132568933D01*
X131736657Y132607028D01*
X131584276Y132607028D01*
X131508085Y132568933D01*
X131850942Y132111790D02*
X131774752Y132073695D01*
X131584276Y132073695D01*
X131508085Y132111790D01*
X131469990Y132187980D01*
X131469990Y132264171D01*
X131508085Y132340361D01*
X131584276Y132378457D01*
X131774752Y132378457D01*
X131850942Y132416552D01*
X132574752Y132073695D02*
X132574752Y132873695D01*
X132574752Y132111790D02*
X132498561Y132073695D01*
X132346180Y132073695D01*
X132269990Y132111790D01*
X132231895Y132149885D01*
X132193800Y132226076D01*
X132193800Y132454647D01*
X132231895Y132530838D01*
X132269990Y132568933D01*
X132346180Y132607028D01*
X132498561Y132607028D01*
X132574752Y132568933D01*
X133260466Y132111790D02*
X133184276Y132073695D01*
X133031895Y132073695D01*
X132955704Y132111790D01*
X132917609Y132187980D01*
X132917609Y132492742D01*
X132955704Y132568933D01*
X133031895Y132607028D01*
X133184276Y132607028D01*
X133260466Y132568933D01*
X133298561Y132492742D01*
X133298561Y132416552D01*
X132917609Y132340361D01*
X133641419Y132073695D02*
X133641419Y132607028D01*
X133641419Y132454647D02*
X133679514Y132530838D01*
X133717609Y132568933D01*
X133793800Y132607028D01*
X133869990Y132607028D01*
X121199714Y132068914D02*
X121199714Y132497485D01*
X121199714Y132283200D02*
X121949714Y132283200D01*
X121842571Y132354628D01*
X121771142Y132426057D01*
X121735428Y132497485D01*
X103746685Y132176828D02*
X103782400Y132248257D01*
X103818114Y132283971D01*
X103889542Y132319685D01*
X103925257Y132319685D01*
X103996685Y132283971D01*
X104032400Y132248257D01*
X104068114Y132176828D01*
X104068114Y132033971D01*
X104032400Y131962542D01*
X103996685Y131926828D01*
X103925257Y131891114D01*
X103889542Y131891114D01*
X103818114Y131926828D01*
X103782400Y131962542D01*
X103746685Y132033971D01*
X103746685Y132176828D01*
X103710971Y132248257D01*
X103675257Y132283971D01*
X103603828Y132319685D01*
X103460971Y132319685D01*
X103389542Y132283971D01*
X103353828Y132248257D01*
X103318114Y132176828D01*
X103318114Y132033971D01*
X103353828Y131962542D01*
X103389542Y131926828D01*
X103460971Y131891114D01*
X103603828Y131891114D01*
X103675257Y131926828D01*
X103710971Y131962542D01*
X103746685Y132033971D01*
X120745600Y132118028D02*
X120781314Y132189457D01*
X120781314Y132296600D01*
X120745600Y132403742D01*
X120674171Y132475171D01*
X120602742Y132510885D01*
X120459885Y132546600D01*
X120352742Y132546600D01*
X120209885Y132510885D01*
X120138457Y132475171D01*
X120067028Y132403742D01*
X120031314Y132296600D01*
X120031314Y132225171D01*
X120067028Y132118028D01*
X120102742Y132082314D01*
X120352742Y132082314D01*
X120352742Y132225171D01*
X120031314Y131760885D02*
X120781314Y131760885D01*
X120031314Y131332314D01*
X120781314Y131332314D01*
X120031314Y130975171D02*
X120781314Y130975171D01*
X120781314Y130796600D01*
X120745600Y130689457D01*
X120674171Y130618028D01*
X120602742Y130582314D01*
X120459885Y130546600D01*
X120352742Y130546600D01*
X120209885Y130582314D01*
X120138457Y130618028D01*
X120067028Y130689457D01*
X120031314Y130796600D01*
X120031314Y130975171D01*
X118698514Y132257128D02*
X118698514Y131792842D01*
X118412800Y132042842D01*
X118412800Y131935699D01*
X118377085Y131864271D01*
X118341371Y131828556D01*
X118269942Y131792842D01*
X118091371Y131792842D01*
X118019942Y131828556D01*
X117984228Y131864271D01*
X117948514Y131935699D01*
X117948514Y132149985D01*
X117984228Y132221413D01*
X118019942Y132257128D01*
X118019942Y131471413D02*
X117984228Y131435699D01*
X117948514Y131471413D01*
X117984228Y131507128D01*
X118019942Y131471413D01*
X117948514Y131471413D01*
X118698514Y131185699D02*
X118698514Y130721413D01*
X118412800Y130971413D01*
X118412800Y130864271D01*
X118377085Y130792842D01*
X118341371Y130757128D01*
X118269942Y130721413D01*
X118091371Y130721413D01*
X118019942Y130757128D01*
X117984228Y130792842D01*
X117948514Y130864271D01*
X117948514Y131078556D01*
X117984228Y131149985D01*
X118019942Y131185699D01*
X118698514Y130507128D02*
X117948514Y130257128D01*
X118698514Y130007128D01*
X116168674Y131828556D02*
X116168674Y132185699D01*
X115811531Y132221413D01*
X115847245Y132185699D01*
X115882960Y132114271D01*
X115882960Y131935699D01*
X115847245Y131864271D01*
X115811531Y131828556D01*
X115740102Y131792842D01*
X115561531Y131792842D01*
X115490102Y131828556D01*
X115454388Y131864271D01*
X115418674Y131935699D01*
X115418674Y132114271D01*
X115454388Y132185699D01*
X115490102Y132221413D01*
X116168674Y131578556D02*
X115418674Y131328556D01*
X116168674Y131078556D01*
X112888834Y131792842D02*
X112888834Y132221413D01*
X112888834Y132007128D02*
X113638834Y132007128D01*
X113531691Y132078556D01*
X113460262Y132149985D01*
X113424548Y132221413D01*
X113567405Y131507128D02*
X113603120Y131471413D01*
X113638834Y131399985D01*
X113638834Y131221413D01*
X113603120Y131149985D01*
X113567405Y131114271D01*
X113495977Y131078556D01*
X113424548Y131078556D01*
X113317405Y131114271D01*
X112888834Y131542842D01*
X112888834Y131078556D01*
X113638834Y130864271D02*
X112888834Y130614271D01*
X113638834Y130364271D01*
X111108994Y132292842D02*
X111108994Y131864271D01*
X110358994Y132078556D02*
X111108994Y132078556D01*
X111108994Y131685699D02*
X110358994Y131185699D01*
X111108994Y131185699D02*
X110358994Y131685699D01*
X110358994Y130899985D02*
X111108994Y130899985D01*
X111108994Y130721413D01*
X111073280Y130614271D01*
X111001851Y130542842D01*
X110930422Y130507128D01*
X110787565Y130471413D01*
X110680422Y130471413D01*
X110537565Y130507128D01*
X110466137Y130542842D01*
X110394708Y130614271D01*
X110358994Y130721413D01*
X110358994Y130899985D01*
X107829154Y131757128D02*
X108186297Y132007128D01*
X107829154Y132185699D02*
X108579154Y132185699D01*
X108579154Y131899985D01*
X108543440Y131828556D01*
X108507725Y131792842D01*
X108436297Y131757128D01*
X108329154Y131757128D01*
X108257725Y131792842D01*
X108222011Y131828556D01*
X108186297Y131899985D01*
X108186297Y132185699D01*
X108579154Y131507128D02*
X107829154Y131007128D01*
X108579154Y131007128D02*
X107829154Y131507128D01*
X107829154Y130721413D02*
X108579154Y130721413D01*
X108579154Y130542842D01*
X108543440Y130435699D01*
X108472011Y130364271D01*
X108400582Y130328556D01*
X108257725Y130292842D01*
X108150582Y130292842D01*
X108007725Y130328556D01*
X107936297Y130364271D01*
X107864868Y130435699D01*
X107829154Y130542842D01*
X107829154Y130721413D01*
X105335028Y132221413D02*
X105299314Y132114271D01*
X105299314Y131935699D01*
X105335028Y131864271D01*
X105370742Y131828556D01*
X105442171Y131792842D01*
X105513600Y131792842D01*
X105585028Y131828556D01*
X105620742Y131864271D01*
X105656457Y131935699D01*
X105692171Y132078556D01*
X105727885Y132149985D01*
X105763600Y132185699D01*
X105835028Y132221413D01*
X105906457Y132221413D01*
X105977885Y132185699D01*
X106013600Y132149985D01*
X106049314Y132078556D01*
X106049314Y131899985D01*
X106013600Y131792842D01*
X105370742Y131042842D02*
X105335028Y131078556D01*
X105299314Y131185699D01*
X105299314Y131257128D01*
X105335028Y131364271D01*
X105406457Y131435699D01*
X105477885Y131471413D01*
X105620742Y131507128D01*
X105727885Y131507128D01*
X105870742Y131471413D01*
X105942171Y131435699D01*
X106013600Y131364271D01*
X106049314Y131257128D01*
X106049314Y131185699D01*
X106013600Y131078556D01*
X105977885Y131042842D01*
X105299314Y130364271D02*
X105299314Y130721413D01*
X106049314Y130721413D01*
X102185428Y132246042D02*
X102149714Y132138900D01*
X102149714Y131960328D01*
X102185428Y131888900D01*
X102221142Y131853185D01*
X102292571Y131817471D01*
X102364000Y131817471D01*
X102435428Y131853185D01*
X102471142Y131888900D01*
X102506857Y131960328D01*
X102542571Y132103185D01*
X102578285Y132174614D01*
X102614000Y132210328D01*
X102685428Y132246042D01*
X102756857Y132246042D01*
X102828285Y132210328D01*
X102864000Y132174614D01*
X102899714Y132103185D01*
X102899714Y131924614D01*
X102864000Y131817471D01*
X102149714Y131496042D02*
X102899714Y131496042D01*
X102899714Y131317471D01*
X102864000Y131210328D01*
X102792571Y131138900D01*
X102721142Y131103185D01*
X102578285Y131067471D01*
X102471142Y131067471D01*
X102328285Y131103185D01*
X102256857Y131138900D01*
X102185428Y131210328D01*
X102149714Y131317471D01*
X102149714Y131496042D01*
X102364000Y130781757D02*
X102364000Y130424614D01*
X102149714Y130853185D02*
X102899714Y130603185D01*
X102149714Y130353185D01*
X82569514Y142233695D02*
X82569514Y143033695D01*
X82912371Y142957504D02*
X82950466Y142995600D01*
X83026657Y143033695D01*
X83217133Y143033695D01*
X83293323Y142995600D01*
X83331419Y142957504D01*
X83369514Y142881314D01*
X83369514Y142805123D01*
X83331419Y142690838D01*
X82874276Y142233695D01*
X83369514Y142233695D01*
X84169514Y142309885D02*
X84131419Y142271790D01*
X84017133Y142233695D01*
X83940942Y142233695D01*
X83826657Y142271790D01*
X83750466Y142347980D01*
X83712371Y142424171D01*
X83674276Y142576552D01*
X83674276Y142690838D01*
X83712371Y142843219D01*
X83750466Y142919409D01*
X83826657Y142995600D01*
X83940942Y143033695D01*
X84017133Y143033695D01*
X84131419Y142995600D01*
X84169514Y142957504D01*
X85388561Y142652742D02*
X85502847Y142614647D01*
X85540942Y142576552D01*
X85579038Y142500361D01*
X85579038Y142386076D01*
X85540942Y142309885D01*
X85502847Y142271790D01*
X85426657Y142233695D01*
X85121895Y142233695D01*
X85121895Y143033695D01*
X85388561Y143033695D01*
X85464752Y142995600D01*
X85502847Y142957504D01*
X85540942Y142881314D01*
X85540942Y142805123D01*
X85502847Y142728933D01*
X85464752Y142690838D01*
X85388561Y142652742D01*
X85121895Y142652742D01*
X85921895Y142233695D02*
X85921895Y142767028D01*
X85921895Y142614647D02*
X85959990Y142690838D01*
X85998085Y142728933D01*
X86074276Y142767028D01*
X86150466Y142767028D01*
X86721895Y142271790D02*
X86645704Y142233695D01*
X86493323Y142233695D01*
X86417133Y142271790D01*
X86379038Y142347980D01*
X86379038Y142652742D01*
X86417133Y142728933D01*
X86493323Y142767028D01*
X86645704Y142767028D01*
X86721895Y142728933D01*
X86759990Y142652742D01*
X86759990Y142576552D01*
X86379038Y142500361D01*
X87445704Y142233695D02*
X87445704Y142652742D01*
X87407609Y142728933D01*
X87331419Y142767028D01*
X87179038Y142767028D01*
X87102847Y142728933D01*
X87445704Y142271790D02*
X87369514Y142233695D01*
X87179038Y142233695D01*
X87102847Y142271790D01*
X87064752Y142347980D01*
X87064752Y142424171D01*
X87102847Y142500361D01*
X87179038Y142538457D01*
X87369514Y142538457D01*
X87445704Y142576552D01*
X87826657Y142233695D02*
X87826657Y143033695D01*
X87902847Y142538457D02*
X88131419Y142233695D01*
X88131419Y142767028D02*
X87826657Y142462266D01*
X88588561Y142233695D02*
X88512371Y142271790D01*
X88474276Y142309885D01*
X88436180Y142386076D01*
X88436180Y142614647D01*
X88474276Y142690838D01*
X88512371Y142728933D01*
X88588561Y142767028D01*
X88702847Y142767028D01*
X88779038Y142728933D01*
X88817133Y142690838D01*
X88855228Y142614647D01*
X88855228Y142386076D01*
X88817133Y142309885D01*
X88779038Y142271790D01*
X88702847Y142233695D01*
X88588561Y142233695D01*
X89540942Y142767028D02*
X89540942Y142233695D01*
X89198085Y142767028D02*
X89198085Y142347980D01*
X89236180Y142271790D01*
X89312371Y142233695D01*
X89426657Y142233695D01*
X89502847Y142271790D01*
X89540942Y142309885D01*
X89807609Y142767028D02*
X90112371Y142767028D01*
X89921895Y143033695D02*
X89921895Y142347980D01*
X89959990Y142271790D01*
X90036180Y142233695D01*
X90112371Y142233695D01*
X91928933Y134666680D02*
X91928933Y135047633D01*
X92157504Y134590490D02*
X91357504Y134857157D01*
X92157504Y135123823D01*
X92157504Y135390490D02*
X91624171Y135390490D01*
X91776552Y135390490D02*
X91700361Y135428585D01*
X91662266Y135466680D01*
X91624171Y135542871D01*
X91624171Y135619061D01*
X92157504Y136228585D02*
X91357504Y136228585D01*
X92119409Y136228585D02*
X92157504Y136152395D01*
X92157504Y136000014D01*
X92119409Y135923823D01*
X92081314Y135885728D01*
X92005123Y135847633D01*
X91776552Y135847633D01*
X91700361Y135885728D01*
X91662266Y135923823D01*
X91624171Y136000014D01*
X91624171Y136152395D01*
X91662266Y136228585D01*
X91624171Y136952395D02*
X92157504Y136952395D01*
X91624171Y136609538D02*
X92043219Y136609538D01*
X92119409Y136647633D01*
X92157504Y136723823D01*
X92157504Y136838109D01*
X92119409Y136914300D01*
X92081314Y136952395D01*
X92157504Y137333347D02*
X91624171Y137333347D01*
X91357504Y137333347D02*
X91395600Y137295252D01*
X91433695Y137333347D01*
X91395600Y137371442D01*
X91357504Y137333347D01*
X91433695Y137333347D01*
X91624171Y137714300D02*
X92157504Y137714300D01*
X91700361Y137714300D02*
X91662266Y137752395D01*
X91624171Y137828585D01*
X91624171Y137942871D01*
X91662266Y138019061D01*
X91738457Y138057157D01*
X92157504Y138057157D01*
X92157504Y138552395D02*
X92119409Y138476204D01*
X92081314Y138438109D01*
X92005123Y138400014D01*
X91776552Y138400014D01*
X91700361Y138438109D01*
X91662266Y138476204D01*
X91624171Y138552395D01*
X91624171Y138666680D01*
X91662266Y138742871D01*
X91700361Y138780966D01*
X91776552Y138819061D01*
X92005123Y138819061D01*
X92081314Y138780966D01*
X92119409Y138742871D01*
X92157504Y138666680D01*
X92157504Y138552395D01*
X92081314Y140228585D02*
X92119409Y140190490D01*
X92157504Y140076204D01*
X92157504Y140000014D01*
X92119409Y139885728D01*
X92043219Y139809538D01*
X91967028Y139771442D01*
X91814647Y139733347D01*
X91700361Y139733347D01*
X91547980Y139771442D01*
X91471790Y139809538D01*
X91395600Y139885728D01*
X91357504Y140000014D01*
X91357504Y140076204D01*
X91395600Y140190490D01*
X91433695Y140228585D01*
X92157504Y140685728D02*
X92119409Y140609538D01*
X92081314Y140571442D01*
X92005123Y140533347D01*
X91776552Y140533347D01*
X91700361Y140571442D01*
X91662266Y140609538D01*
X91624171Y140685728D01*
X91624171Y140800014D01*
X91662266Y140876204D01*
X91700361Y140914300D01*
X91776552Y140952395D01*
X92005123Y140952395D01*
X92081314Y140914300D01*
X92119409Y140876204D01*
X92157504Y140800014D01*
X92157504Y140685728D01*
X92157504Y141295252D02*
X91624171Y141295252D01*
X91700361Y141295252D02*
X91662266Y141333347D01*
X91624171Y141409538D01*
X91624171Y141523823D01*
X91662266Y141600014D01*
X91738457Y141638109D01*
X92157504Y141638109D01*
X91738457Y141638109D02*
X91662266Y141676204D01*
X91624171Y141752395D01*
X91624171Y141866680D01*
X91662266Y141942871D01*
X91738457Y141980966D01*
X92157504Y141980966D01*
X92157504Y142361919D02*
X91624171Y142361919D01*
X91700361Y142361919D02*
X91662266Y142400014D01*
X91624171Y142476204D01*
X91624171Y142590490D01*
X91662266Y142666680D01*
X91738457Y142704776D01*
X92157504Y142704776D01*
X91738457Y142704776D02*
X91662266Y142742871D01*
X91624171Y142819061D01*
X91624171Y142933347D01*
X91662266Y143009538D01*
X91738457Y143047633D01*
X92157504Y143047633D01*
X97419166Y133439733D02*
X97419166Y134139733D01*
X97819166Y133439733D01*
X97819166Y134139733D01*
X98652500Y134173066D02*
X98052500Y133273066D01*
X99285833Y133506400D02*
X99252500Y133473066D01*
X99152500Y133439733D01*
X99085833Y133439733D01*
X98985833Y133473066D01*
X98919166Y133539733D01*
X98885833Y133606400D01*
X98852500Y133739733D01*
X98852500Y133839733D01*
X98885833Y133973066D01*
X98919166Y134039733D01*
X98985833Y134106400D01*
X99085833Y134139733D01*
X99152500Y134139733D01*
X99252500Y134106400D01*
X99285833Y134073066D01*
X97487433Y135530466D02*
X97587433Y135497133D01*
X97754100Y135497133D01*
X97820766Y135530466D01*
X97854100Y135563800D01*
X97887433Y135630466D01*
X97887433Y135697133D01*
X97854100Y135763800D01*
X97820766Y135797133D01*
X97754100Y135830466D01*
X97620766Y135863800D01*
X97554100Y135897133D01*
X97520766Y135930466D01*
X97487433Y135997133D01*
X97487433Y136063800D01*
X97520766Y136130466D01*
X97554100Y136163800D01*
X97620766Y136197133D01*
X97787433Y136197133D01*
X97887433Y136163800D01*
X98187433Y135497133D02*
X98187433Y136197133D01*
X98354100Y136197133D01*
X98454100Y136163800D01*
X98520766Y136097133D01*
X98554100Y136030466D01*
X98587433Y135897133D01*
X98587433Y135797133D01*
X98554100Y135663800D01*
X98520766Y135597133D01*
X98454100Y135530466D01*
X98354100Y135497133D01*
X98187433Y135497133D01*
X98854100Y135697133D02*
X99187433Y135697133D01*
X98787433Y135497133D02*
X99020766Y136197133D01*
X99254100Y135497133D01*
X97487433Y137562466D02*
X97587433Y137529133D01*
X97754100Y137529133D01*
X97820766Y137562466D01*
X97854100Y137595800D01*
X97887433Y137662466D01*
X97887433Y137729133D01*
X97854100Y137795800D01*
X97820766Y137829133D01*
X97754100Y137862466D01*
X97620766Y137895800D01*
X97554100Y137929133D01*
X97520766Y137962466D01*
X97487433Y138029133D01*
X97487433Y138095800D01*
X97520766Y138162466D01*
X97554100Y138195800D01*
X97620766Y138229133D01*
X97787433Y138229133D01*
X97887433Y138195800D01*
X98587433Y137595800D02*
X98554100Y137562466D01*
X98454100Y137529133D01*
X98387433Y137529133D01*
X98287433Y137562466D01*
X98220766Y137629133D01*
X98187433Y137695800D01*
X98154100Y137829133D01*
X98154100Y137929133D01*
X98187433Y138062466D01*
X98220766Y138129133D01*
X98287433Y138195800D01*
X98387433Y138229133D01*
X98454100Y138229133D01*
X98554100Y138195800D01*
X98587433Y138162466D01*
X99220766Y137529133D02*
X98887433Y137529133D01*
X98887433Y138229133D01*
X97811233Y140075400D02*
X97744566Y140108733D01*
X97644566Y140108733D01*
X97544566Y140075400D01*
X97477900Y140008733D01*
X97444566Y139942066D01*
X97411233Y139808733D01*
X97411233Y139708733D01*
X97444566Y139575400D01*
X97477900Y139508733D01*
X97544566Y139442066D01*
X97644566Y139408733D01*
X97711233Y139408733D01*
X97811233Y139442066D01*
X97844566Y139475400D01*
X97844566Y139708733D01*
X97711233Y139708733D01*
X98144566Y139408733D02*
X98144566Y140108733D01*
X98544566Y139408733D01*
X98544566Y140108733D01*
X98877900Y139408733D02*
X98877900Y140108733D01*
X99044566Y140108733D01*
X99144566Y140075400D01*
X99211233Y140008733D01*
X99244566Y139942066D01*
X99277900Y139808733D01*
X99277900Y139708733D01*
X99244566Y139575400D01*
X99211233Y139508733D01*
X99144566Y139442066D01*
X99044566Y139408733D01*
X98877900Y139408733D01*
X97854100Y142064533D02*
X97520766Y142064533D01*
X97487433Y141731200D01*
X97520766Y141764533D01*
X97587433Y141797866D01*
X97754100Y141797866D01*
X97820766Y141764533D01*
X97854100Y141731200D01*
X97887433Y141664533D01*
X97887433Y141497866D01*
X97854100Y141431200D01*
X97820766Y141397866D01*
X97754100Y141364533D01*
X97587433Y141364533D01*
X97520766Y141397866D01*
X97487433Y141431200D01*
X98087433Y142064533D02*
X98320766Y141364533D01*
X98554100Y142064533D01*
X97887433Y143345733D02*
X97487433Y143345733D01*
X97687433Y143345733D02*
X97687433Y144045733D01*
X97620766Y143945733D01*
X97554100Y143879066D01*
X97487433Y143845733D01*
X98154100Y143979066D02*
X98187433Y144012400D01*
X98254100Y144045733D01*
X98420766Y144045733D01*
X98487433Y144012400D01*
X98520766Y143979066D01*
X98554100Y143912400D01*
X98554100Y143845733D01*
X98520766Y143745733D01*
X98120766Y143345733D01*
X98554100Y143345733D01*
X98754100Y144045733D02*
X98987433Y143345733D01*
X99220766Y144045733D01*
X88362433Y131083800D02*
X88295766Y131117133D01*
X88195766Y131117133D01*
X88095766Y131083800D01*
X88029100Y131017133D01*
X87995766Y130950466D01*
X87962433Y130817133D01*
X87962433Y130717133D01*
X87995766Y130583800D01*
X88029100Y130517133D01*
X88095766Y130450466D01*
X88195766Y130417133D01*
X88262433Y130417133D01*
X88362433Y130450466D01*
X88395766Y130483800D01*
X88395766Y130717133D01*
X88262433Y130717133D01*
X88695766Y130417133D02*
X88695766Y131117133D01*
X89095766Y130417133D01*
X89095766Y131117133D01*
X89429100Y130417133D02*
X89429100Y131117133D01*
X89595766Y131117133D01*
X89695766Y131083800D01*
X89762433Y131017133D01*
X89795766Y130950466D01*
X89829100Y130817133D01*
X89829100Y130717133D01*
X89795766Y130583800D01*
X89762433Y130517133D01*
X89695766Y130450466D01*
X89595766Y130417133D01*
X89429100Y130417133D01*
X85498633Y130450466D02*
X85598633Y130417133D01*
X85765300Y130417133D01*
X85831966Y130450466D01*
X85865300Y130483800D01*
X85898633Y130550466D01*
X85898633Y130617133D01*
X85865300Y130683800D01*
X85831966Y130717133D01*
X85765300Y130750466D01*
X85631966Y130783800D01*
X85565300Y130817133D01*
X85531966Y130850466D01*
X85498633Y130917133D01*
X85498633Y130983800D01*
X85531966Y131050466D01*
X85565300Y131083800D01*
X85631966Y131117133D01*
X85798633Y131117133D01*
X85898633Y131083800D01*
X86598633Y130483800D02*
X86565300Y130450466D01*
X86465300Y130417133D01*
X86398633Y130417133D01*
X86298633Y130450466D01*
X86231966Y130517133D01*
X86198633Y130583800D01*
X86165300Y130717133D01*
X86165300Y130817133D01*
X86198633Y130950466D01*
X86231966Y131017133D01*
X86298633Y131083800D01*
X86398633Y131117133D01*
X86465300Y131117133D01*
X86565300Y131083800D01*
X86598633Y131050466D01*
X87231966Y130417133D02*
X86898633Y130417133D01*
X86898633Y131117133D01*
X82831633Y130450466D02*
X82931633Y130417133D01*
X83098300Y130417133D01*
X83164966Y130450466D01*
X83198300Y130483800D01*
X83231633Y130550466D01*
X83231633Y130617133D01*
X83198300Y130683800D01*
X83164966Y130717133D01*
X83098300Y130750466D01*
X82964966Y130783800D01*
X82898300Y130817133D01*
X82864966Y130850466D01*
X82831633Y130917133D01*
X82831633Y130983800D01*
X82864966Y131050466D01*
X82898300Y131083800D01*
X82964966Y131117133D01*
X83131633Y131117133D01*
X83231633Y131083800D01*
X83531633Y130417133D02*
X83531633Y131117133D01*
X83698300Y131117133D01*
X83798300Y131083800D01*
X83864966Y131017133D01*
X83898300Y130950466D01*
X83931633Y130817133D01*
X83931633Y130717133D01*
X83898300Y130583800D01*
X83864966Y130517133D01*
X83798300Y130450466D01*
X83698300Y130417133D01*
X83531633Y130417133D01*
X84198300Y130617133D02*
X84531633Y130617133D01*
X84131633Y130417133D02*
X84364966Y131117133D01*
X84598300Y130417133D01*
X78710433Y134106400D02*
X78643766Y134139733D01*
X78543766Y134139733D01*
X78443766Y134106400D01*
X78377100Y134039733D01*
X78343766Y133973066D01*
X78310433Y133839733D01*
X78310433Y133739733D01*
X78343766Y133606400D01*
X78377100Y133539733D01*
X78443766Y133473066D01*
X78543766Y133439733D01*
X78610433Y133439733D01*
X78710433Y133473066D01*
X78743766Y133506400D01*
X78743766Y133739733D01*
X78610433Y133739733D01*
X79043766Y133439733D02*
X79043766Y134139733D01*
X79443766Y133439733D01*
X79443766Y134139733D01*
X79777100Y133439733D02*
X79777100Y134139733D01*
X79943766Y134139733D01*
X80043766Y134106400D01*
X80110433Y134039733D01*
X80143766Y133973066D01*
X80177100Y133839733D01*
X80177100Y133739733D01*
X80143766Y133606400D01*
X80110433Y133539733D01*
X80043766Y133473066D01*
X79943766Y133439733D01*
X79777100Y133439733D01*
X75822766Y131356933D02*
X75589433Y131690266D01*
X75422766Y131356933D02*
X75422766Y132056933D01*
X75689433Y132056933D01*
X75756100Y132023600D01*
X75789433Y131990266D01*
X75822766Y131923600D01*
X75822766Y131823600D01*
X75789433Y131756933D01*
X75756100Y131723600D01*
X75689433Y131690266D01*
X75422766Y131690266D01*
X76522766Y131423600D02*
X76489433Y131390266D01*
X76389433Y131356933D01*
X76322766Y131356933D01*
X76222766Y131390266D01*
X76156100Y131456933D01*
X76122766Y131523600D01*
X76089433Y131656933D01*
X76089433Y131756933D01*
X76122766Y131890266D01*
X76156100Y131956933D01*
X76222766Y132023600D01*
X76322766Y132056933D01*
X76389433Y132056933D01*
X76489433Y132023600D01*
X76522766Y131990266D01*
X76789433Y131390266D02*
X76889433Y131356933D01*
X77056100Y131356933D01*
X77122766Y131390266D01*
X77156100Y131423600D01*
X77189433Y131490266D01*
X77189433Y131556933D01*
X77156100Y131623600D01*
X77122766Y131656933D01*
X77056100Y131690266D01*
X76922766Y131723600D01*
X76856100Y131756933D01*
X76822766Y131790266D01*
X76789433Y131856933D01*
X76789433Y131923600D01*
X76822766Y131990266D01*
X76856100Y132023600D01*
X76922766Y132056933D01*
X77089433Y132056933D01*
X77189433Y132023600D01*
X77789433Y131823600D02*
X77789433Y131356933D01*
X77622766Y132090266D02*
X77456100Y131590266D01*
X77889433Y131590266D01*
X72952566Y130290133D02*
X72719233Y130623466D01*
X72552566Y130290133D02*
X72552566Y130990133D01*
X72819233Y130990133D01*
X72885900Y130956800D01*
X72919233Y130923466D01*
X72952566Y130856800D01*
X72952566Y130756800D01*
X72919233Y130690133D01*
X72885900Y130656800D01*
X72819233Y130623466D01*
X72552566Y130623466D01*
X73652566Y130356800D02*
X73619233Y130323466D01*
X73519233Y130290133D01*
X73452566Y130290133D01*
X73352566Y130323466D01*
X73285900Y130390133D01*
X73252566Y130456800D01*
X73219233Y130590133D01*
X73219233Y130690133D01*
X73252566Y130823466D01*
X73285900Y130890133D01*
X73352566Y130956800D01*
X73452566Y130990133D01*
X73519233Y130990133D01*
X73619233Y130956800D01*
X73652566Y130923466D01*
X73919233Y130323466D02*
X74019233Y130290133D01*
X74185900Y130290133D01*
X74252566Y130323466D01*
X74285900Y130356800D01*
X74319233Y130423466D01*
X74319233Y130490133D01*
X74285900Y130556800D01*
X74252566Y130590133D01*
X74185900Y130623466D01*
X74052566Y130656800D01*
X73985900Y130690133D01*
X73952566Y130723466D01*
X73919233Y130790133D01*
X73919233Y130856800D01*
X73952566Y130923466D01*
X73985900Y130956800D01*
X74052566Y130990133D01*
X74219233Y130990133D01*
X74319233Y130956800D01*
X74552566Y130990133D02*
X74985900Y130990133D01*
X74752566Y130723466D01*
X74852566Y130723466D01*
X74919233Y130690133D01*
X74952566Y130656800D01*
X74985900Y130590133D01*
X74985900Y130423466D01*
X74952566Y130356800D01*
X74919233Y130323466D01*
X74852566Y130290133D01*
X74652566Y130290133D01*
X74585900Y130323466D01*
X74552566Y130356800D01*
X68012300Y132158533D02*
X68145633Y132158533D01*
X68212300Y132125200D01*
X68278966Y132058533D01*
X68312300Y131925200D01*
X68312300Y131691866D01*
X68278966Y131558533D01*
X68212300Y131491866D01*
X68145633Y131458533D01*
X68012300Y131458533D01*
X67945633Y131491866D01*
X67878966Y131558533D01*
X67845633Y131691866D01*
X67845633Y131925200D01*
X67878966Y132058533D01*
X67945633Y132125200D01*
X68012300Y132158533D01*
X68612300Y131825200D02*
X68845633Y131825200D01*
X68945633Y131458533D02*
X68612300Y131458533D01*
X68612300Y132158533D01*
X68945633Y132158533D01*
X69212300Y131491866D02*
X69278966Y131458533D01*
X69412300Y131458533D01*
X69478966Y131491866D01*
X69512300Y131558533D01*
X69512300Y131591866D01*
X69478966Y131658533D01*
X69412300Y131691866D01*
X69312300Y131691866D01*
X69245633Y131725200D01*
X69212300Y131791866D01*
X69212300Y131825200D01*
X69245633Y131891866D01*
X69312300Y131925200D01*
X69412300Y131925200D01*
X69478966Y131891866D01*
X70078966Y131491866D02*
X70012300Y131458533D01*
X69878966Y131458533D01*
X69812300Y131491866D01*
X69778966Y131558533D01*
X69778966Y131825200D01*
X69812300Y131891866D01*
X69878966Y131925200D01*
X70012300Y131925200D01*
X70078966Y131891866D01*
X70112300Y131825200D01*
X70112300Y131758533D01*
X69778966Y131691866D01*
X70412300Y131458533D02*
X70412300Y131925200D01*
X70412300Y131791866D02*
X70445633Y131858533D01*
X70478966Y131891866D01*
X70545633Y131925200D01*
X70612300Y131925200D01*
X70778966Y131925200D02*
X70945633Y131458533D01*
X71112300Y131925200D01*
X71478966Y131458533D02*
X71412300Y131491866D01*
X71378966Y131525200D01*
X71345633Y131591866D01*
X71345633Y131791866D01*
X71378966Y131858533D01*
X71412300Y131891866D01*
X71478966Y131925200D01*
X71578966Y131925200D01*
X71645633Y131891866D01*
X71678966Y131858533D01*
X71712300Y131791866D01*
X71712300Y131591866D01*
X71678966Y131525200D01*
X71645633Y131491866D01*
X71578966Y131458533D01*
X71478966Y131458533D01*
X71978966Y131491866D02*
X72045633Y131458533D01*
X72178966Y131458533D01*
X72245633Y131491866D01*
X72278966Y131558533D01*
X72278966Y131591866D01*
X72245633Y131658533D01*
X72178966Y131691866D01*
X72078966Y131691866D01*
X72012300Y131725200D01*
X71978966Y131791866D01*
X71978966Y131825200D01*
X72012300Y131891866D01*
X72078966Y131925200D01*
X72178966Y131925200D01*
X72245633Y131891866D01*
X66387357Y138527095D02*
X66539738Y138527095D01*
X66615928Y138489000D01*
X66692119Y138412809D01*
X66730214Y138260428D01*
X66730214Y137993761D01*
X66692119Y137841380D01*
X66615928Y137765190D01*
X66539738Y137727095D01*
X66387357Y137727095D01*
X66311166Y137765190D01*
X66234976Y137841380D01*
X66196880Y137993761D01*
X66196880Y138260428D01*
X66234976Y138412809D01*
X66311166Y138489000D01*
X66387357Y138527095D01*
X66958785Y138260428D02*
X67263547Y138260428D01*
X67073071Y138527095D02*
X67073071Y137841380D01*
X67111166Y137765190D01*
X67187357Y137727095D01*
X67263547Y137727095D01*
X67530214Y137727095D02*
X67530214Y138527095D01*
X67873071Y137727095D02*
X67873071Y138146142D01*
X67834976Y138222333D01*
X67758785Y138260428D01*
X67644500Y138260428D01*
X67568309Y138222333D01*
X67530214Y138184238D01*
X68558785Y137765190D02*
X68482595Y137727095D01*
X68330214Y137727095D01*
X68254023Y137765190D01*
X68215928Y137841380D01*
X68215928Y138146142D01*
X68254023Y138222333D01*
X68330214Y138260428D01*
X68482595Y138260428D01*
X68558785Y138222333D01*
X68596880Y138146142D01*
X68596880Y138069952D01*
X68215928Y137993761D01*
X68939738Y137727095D02*
X68939738Y138260428D01*
X68939738Y138108047D02*
X68977833Y138184238D01*
X69015928Y138222333D01*
X69092119Y138260428D01*
X69168309Y138260428D01*
X63796880Y136796142D02*
X63911166Y136758047D01*
X63949261Y136719952D01*
X63987357Y136643761D01*
X63987357Y136529476D01*
X63949261Y136453285D01*
X63911166Y136415190D01*
X63834976Y136377095D01*
X63530214Y136377095D01*
X63530214Y137177095D01*
X63796880Y137177095D01*
X63873071Y137139000D01*
X63911166Y137100904D01*
X63949261Y137024714D01*
X63949261Y136948523D01*
X63911166Y136872333D01*
X63873071Y136834238D01*
X63796880Y136796142D01*
X63530214Y136796142D01*
X64330214Y136377095D02*
X64330214Y136910428D01*
X64330214Y136758047D02*
X64368309Y136834238D01*
X64406404Y136872333D01*
X64482595Y136910428D01*
X64558785Y136910428D01*
X65130214Y136415190D02*
X65054023Y136377095D01*
X64901642Y136377095D01*
X64825452Y136415190D01*
X64787357Y136491380D01*
X64787357Y136796142D01*
X64825452Y136872333D01*
X64901642Y136910428D01*
X65054023Y136910428D01*
X65130214Y136872333D01*
X65168309Y136796142D01*
X65168309Y136719952D01*
X64787357Y136643761D01*
X65854023Y136377095D02*
X65854023Y136796142D01*
X65815928Y136872333D01*
X65739738Y136910428D01*
X65587357Y136910428D01*
X65511166Y136872333D01*
X65854023Y136415190D02*
X65777833Y136377095D01*
X65587357Y136377095D01*
X65511166Y136415190D01*
X65473071Y136491380D01*
X65473071Y136567571D01*
X65511166Y136643761D01*
X65587357Y136681857D01*
X65777833Y136681857D01*
X65854023Y136719952D01*
X66234976Y136377095D02*
X66234976Y137177095D01*
X66311166Y136681857D02*
X66539738Y136377095D01*
X66539738Y136910428D02*
X66234976Y136605666D01*
X66996880Y136377095D02*
X66920690Y136415190D01*
X66882595Y136453285D01*
X66844500Y136529476D01*
X66844500Y136758047D01*
X66882595Y136834238D01*
X66920690Y136872333D01*
X66996880Y136910428D01*
X67111166Y136910428D01*
X67187357Y136872333D01*
X67225452Y136834238D01*
X67263547Y136758047D01*
X67263547Y136529476D01*
X67225452Y136453285D01*
X67187357Y136415190D01*
X67111166Y136377095D01*
X66996880Y136377095D01*
X67949261Y136910428D02*
X67949261Y136377095D01*
X67606404Y136910428D02*
X67606404Y136491380D01*
X67644500Y136415190D01*
X67720690Y136377095D01*
X67834976Y136377095D01*
X67911166Y136415190D01*
X67949261Y136453285D01*
X68215928Y136910428D02*
X68520690Y136910428D01*
X68330214Y137177095D02*
X68330214Y136491380D01*
X68368309Y136415190D01*
X68444500Y136377095D01*
X68520690Y136377095D01*
X68749261Y136415190D02*
X68825452Y136377095D01*
X68977833Y136377095D01*
X69054023Y136415190D01*
X69092119Y136491380D01*
X69092119Y136529476D01*
X69054023Y136605666D01*
X68977833Y136643761D01*
X68863547Y136643761D01*
X68787357Y136681857D01*
X68749261Y136758047D01*
X68749261Y136796142D01*
X68787357Y136872333D01*
X68863547Y136910428D01*
X68977833Y136910428D01*
X69054023Y136872333D01*
X84626409Y160879480D02*
X84664504Y160993766D01*
X84664504Y161184242D01*
X84626409Y161260433D01*
X84588314Y161298528D01*
X84512123Y161336623D01*
X84435933Y161336623D01*
X84359742Y161298528D01*
X84321647Y161260433D01*
X84283552Y161184242D01*
X84245457Y161031861D01*
X84207361Y160955671D01*
X84169266Y160917576D01*
X84093076Y160879480D01*
X84016885Y160879480D01*
X83940695Y160917576D01*
X83902600Y160955671D01*
X83864504Y161031861D01*
X83864504Y161222338D01*
X83902600Y161336623D01*
X84131171Y161603290D02*
X84664504Y161755671D01*
X84283552Y161908052D01*
X84664504Y162060433D01*
X84131171Y162212814D01*
X84664504Y162517576D02*
X84131171Y162517576D01*
X83864504Y162517576D02*
X83902600Y162479480D01*
X83940695Y162517576D01*
X83902600Y162555671D01*
X83864504Y162517576D01*
X83940695Y162517576D01*
X84131171Y162784242D02*
X84131171Y163089004D01*
X83864504Y162898528D02*
X84550219Y162898528D01*
X84626409Y162936623D01*
X84664504Y163012814D01*
X84664504Y163089004D01*
X84626409Y163698528D02*
X84664504Y163622338D01*
X84664504Y163469957D01*
X84626409Y163393766D01*
X84588314Y163355671D01*
X84512123Y163317576D01*
X84283552Y163317576D01*
X84207361Y163355671D01*
X84169266Y163393766D01*
X84131171Y163469957D01*
X84131171Y163622338D01*
X84169266Y163698528D01*
X84664504Y164041385D02*
X83864504Y164041385D01*
X84664504Y164384242D02*
X84245457Y164384242D01*
X84169266Y164346147D01*
X84131171Y164269957D01*
X84131171Y164155671D01*
X84169266Y164079480D01*
X84207361Y164041385D01*
X84664504Y165489004D02*
X84626409Y165412814D01*
X84588314Y165374719D01*
X84512123Y165336623D01*
X84283552Y165336623D01*
X84207361Y165374719D01*
X84169266Y165412814D01*
X84131171Y165489004D01*
X84131171Y165603290D01*
X84169266Y165679480D01*
X84207361Y165717576D01*
X84283552Y165755671D01*
X84512123Y165755671D01*
X84588314Y165717576D01*
X84626409Y165679480D01*
X84664504Y165603290D01*
X84664504Y165489004D01*
X84131171Y165984242D02*
X84131171Y166289004D01*
X84664504Y166098528D02*
X83978790Y166098528D01*
X83902600Y166136623D01*
X83864504Y166212814D01*
X83864504Y166289004D01*
X84131171Y166441385D02*
X84131171Y166746147D01*
X84664504Y166555671D02*
X83978790Y166555671D01*
X83902600Y166593766D01*
X83864504Y166669957D01*
X83864504Y166746147D01*
X84588314Y167012814D02*
X84626409Y167050909D01*
X84664504Y167012814D01*
X84626409Y166974719D01*
X84588314Y167012814D01*
X84664504Y167012814D01*
X84169266Y167012814D02*
X84207361Y167050909D01*
X84245457Y167012814D01*
X84207361Y166974719D01*
X84169266Y167012814D01*
X84245457Y167012814D01*
X84664504Y168346147D02*
X83864504Y168346147D01*
X84626409Y168346147D02*
X84664504Y168269957D01*
X84664504Y168117576D01*
X84626409Y168041385D01*
X84588314Y168003290D01*
X84512123Y167965195D01*
X84283552Y167965195D01*
X84207361Y168003290D01*
X84169266Y168041385D01*
X84131171Y168117576D01*
X84131171Y168269957D01*
X84169266Y168346147D01*
X84626409Y169031861D02*
X84664504Y168955671D01*
X84664504Y168803290D01*
X84626409Y168727100D01*
X84550219Y168689004D01*
X84245457Y168689004D01*
X84169266Y168727100D01*
X84131171Y168803290D01*
X84131171Y168955671D01*
X84169266Y169031861D01*
X84245457Y169069957D01*
X84321647Y169069957D01*
X84397838Y168689004D01*
X84131171Y169298528D02*
X84131171Y169603290D01*
X84664504Y169412814D02*
X83978790Y169412814D01*
X83902600Y169450909D01*
X83864504Y169527100D01*
X83864504Y169603290D01*
X84664504Y170212814D02*
X84245457Y170212814D01*
X84169266Y170174719D01*
X84131171Y170098528D01*
X84131171Y169946147D01*
X84169266Y169869957D01*
X84626409Y170212814D02*
X84664504Y170136623D01*
X84664504Y169946147D01*
X84626409Y169869957D01*
X84550219Y169831861D01*
X84474028Y169831861D01*
X84397838Y169869957D01*
X84359742Y169946147D01*
X84359742Y170136623D01*
X84321647Y170212814D01*
X84131171Y170936623D02*
X84664504Y170936623D01*
X84131171Y170593766D02*
X84550219Y170593766D01*
X84626409Y170631861D01*
X84664504Y170708052D01*
X84664504Y170822338D01*
X84626409Y170898528D01*
X84588314Y170936623D01*
X84664504Y171431861D02*
X84626409Y171355671D01*
X84550219Y171317576D01*
X83864504Y171317576D01*
X84131171Y171622338D02*
X84131171Y171927100D01*
X83864504Y171736623D02*
X84550219Y171736623D01*
X84626409Y171774719D01*
X84664504Y171850909D01*
X84664504Y171927100D01*
X84664504Y172803290D02*
X83864504Y172803290D01*
X84169266Y172803290D02*
X84131171Y172879480D01*
X84131171Y173031861D01*
X84169266Y173108052D01*
X84207361Y173146147D01*
X84283552Y173184242D01*
X84512123Y173184242D01*
X84588314Y173146147D01*
X84626409Y173108052D01*
X84664504Y173031861D01*
X84664504Y172879480D01*
X84626409Y172803290D01*
X84626409Y173831861D02*
X84664504Y173755671D01*
X84664504Y173603290D01*
X84626409Y173527100D01*
X84550219Y173489004D01*
X84245457Y173489004D01*
X84169266Y173527100D01*
X84131171Y173603290D01*
X84131171Y173755671D01*
X84169266Y173831861D01*
X84245457Y173869957D01*
X84321647Y173869957D01*
X84397838Y173489004D01*
X84664504Y174212814D02*
X83864504Y174212814D01*
X84664504Y174555671D02*
X84245457Y174555671D01*
X84169266Y174517576D01*
X84131171Y174441385D01*
X84131171Y174327100D01*
X84169266Y174250909D01*
X84207361Y174212814D01*
X84664504Y175279480D02*
X84245457Y175279480D01*
X84169266Y175241385D01*
X84131171Y175165195D01*
X84131171Y175012814D01*
X84169266Y174936623D01*
X84626409Y175279480D02*
X84664504Y175203290D01*
X84664504Y175012814D01*
X84626409Y174936623D01*
X84550219Y174898528D01*
X84474028Y174898528D01*
X84397838Y174936623D01*
X84359742Y175012814D01*
X84359742Y175203290D01*
X84321647Y175279480D01*
X84131171Y175584242D02*
X84664504Y175774719D01*
X84131171Y175965195D01*
X84664504Y176269957D02*
X84131171Y176269957D01*
X83864504Y176269957D02*
X83902600Y176231861D01*
X83940695Y176269957D01*
X83902600Y176308052D01*
X83864504Y176269957D01*
X83940695Y176269957D01*
X84664504Y176765195D02*
X84626409Y176689004D01*
X84588314Y176650909D01*
X84512123Y176612814D01*
X84283552Y176612814D01*
X84207361Y176650909D01*
X84169266Y176689004D01*
X84131171Y176765195D01*
X84131171Y176879480D01*
X84169266Y176955671D01*
X84207361Y176993766D01*
X84283552Y177031861D01*
X84512123Y177031861D01*
X84588314Y176993766D01*
X84626409Y176955671D01*
X84664504Y176879480D01*
X84664504Y176765195D01*
X84664504Y177374719D02*
X84131171Y177374719D01*
X84283552Y177374719D02*
X84207361Y177412814D01*
X84169266Y177450909D01*
X84131171Y177527100D01*
X84131171Y177603290D01*
D10*
X96672400Y162636200D02*
X96672400Y158521400D01*
D11*
X97620776Y160343895D02*
X97620776Y161143895D01*
X98077919Y160343895D01*
X98077919Y161143895D01*
X99030300Y161181990D02*
X98344585Y160153419D01*
X99754109Y160420085D02*
X99716014Y160381990D01*
X99601728Y160343895D01*
X99525538Y160343895D01*
X99411252Y160381990D01*
X99335061Y160458180D01*
X99296966Y160534371D01*
X99258871Y160686752D01*
X99258871Y160801038D01*
X99296966Y160953419D01*
X99335061Y161029609D01*
X99411252Y161105800D01*
X99525538Y161143895D01*
X99601728Y161143895D01*
X99716014Y161105800D01*
X99754109Y161067704D01*
D10*
X96672400Y167741600D02*
X96672400Y163626800D01*
D11*
X97620776Y165868342D02*
X97887442Y165868342D01*
X98001728Y165449295D02*
X97620776Y165449295D01*
X97620776Y166249295D01*
X98001728Y166249295D01*
X98306490Y165487390D02*
X98420776Y165449295D01*
X98611252Y165449295D01*
X98687442Y165487390D01*
X98725538Y165525485D01*
X98763633Y165601676D01*
X98763633Y165677866D01*
X98725538Y165754057D01*
X98687442Y165792152D01*
X98611252Y165830247D01*
X98458871Y165868342D01*
X98382680Y165906438D01*
X98344585Y165944533D01*
X98306490Y166020723D01*
X98306490Y166096914D01*
X98344585Y166173104D01*
X98382680Y166211200D01*
X98458871Y166249295D01*
X98649347Y166249295D01*
X98763633Y166211200D01*
X98992204Y166249295D02*
X99449347Y166249295D01*
X99220776Y165449295D02*
X99220776Y166249295D01*
X99868395Y166249295D02*
X100020776Y166249295D01*
X100096966Y166211200D01*
X100173157Y166135009D01*
X100211252Y165982628D01*
X100211252Y165715961D01*
X100173157Y165563580D01*
X100096966Y165487390D01*
X100020776Y165449295D01*
X99868395Y165449295D01*
X99792204Y165487390D01*
X99716014Y165563580D01*
X99677919Y165715961D01*
X99677919Y165982628D01*
X99716014Y166135009D01*
X99792204Y166211200D01*
X99868395Y166249295D01*
X100554109Y165449295D02*
X100554109Y166249295D01*
X100858871Y166249295D01*
X100935061Y166211200D01*
X100973157Y166173104D01*
X101011252Y166096914D01*
X101011252Y165982628D01*
X100973157Y165906438D01*
X100935061Y165868342D01*
X100858871Y165830247D01*
X100554109Y165830247D01*
X101277919Y166249295D02*
X101773157Y166249295D01*
X101506490Y165944533D01*
X101620776Y165944533D01*
X101696966Y165906438D01*
X101735061Y165868342D01*
X101773157Y165792152D01*
X101773157Y165601676D01*
X101735061Y165525485D01*
X101696966Y165487390D01*
X101620776Y165449295D01*
X101392204Y165449295D01*
X101316014Y165487390D01*
X101277919Y165525485D01*
D10*
X96672400Y172821600D02*
X96672400Y168706800D01*
D11*
X97620776Y170948342D02*
X97887442Y170948342D01*
X98001728Y170529295D02*
X97620776Y170529295D01*
X97620776Y171329295D01*
X98001728Y171329295D01*
X98306490Y170567390D02*
X98420776Y170529295D01*
X98611252Y170529295D01*
X98687442Y170567390D01*
X98725538Y170605485D01*
X98763633Y170681676D01*
X98763633Y170757866D01*
X98725538Y170834057D01*
X98687442Y170872152D01*
X98611252Y170910247D01*
X98458871Y170948342D01*
X98382680Y170986438D01*
X98344585Y171024533D01*
X98306490Y171100723D01*
X98306490Y171176914D01*
X98344585Y171253104D01*
X98382680Y171291200D01*
X98458871Y171329295D01*
X98649347Y171329295D01*
X98763633Y171291200D01*
X98992204Y171329295D02*
X99449347Y171329295D01*
X99220776Y170529295D02*
X99220776Y171329295D01*
X99868395Y171329295D02*
X100020776Y171329295D01*
X100096966Y171291200D01*
X100173157Y171215009D01*
X100211252Y171062628D01*
X100211252Y170795961D01*
X100173157Y170643580D01*
X100096966Y170567390D01*
X100020776Y170529295D01*
X99868395Y170529295D01*
X99792204Y170567390D01*
X99716014Y170643580D01*
X99677919Y170795961D01*
X99677919Y171062628D01*
X99716014Y171215009D01*
X99792204Y171291200D01*
X99868395Y171329295D01*
X100554109Y170529295D02*
X100554109Y171329295D01*
X100858871Y171329295D01*
X100935061Y171291200D01*
X100973157Y171253104D01*
X101011252Y171176914D01*
X101011252Y171062628D01*
X100973157Y170986438D01*
X100935061Y170948342D01*
X100858871Y170910247D01*
X100554109Y170910247D01*
X101316014Y171253104D02*
X101354109Y171291200D01*
X101430300Y171329295D01*
X101620776Y171329295D01*
X101696966Y171291200D01*
X101735061Y171253104D01*
X101773157Y171176914D01*
X101773157Y171100723D01*
X101735061Y170986438D01*
X101277919Y170529295D01*
X101773157Y170529295D01*
X97646176Y175977542D02*
X97912842Y175977542D01*
X98027128Y175558495D02*
X97646176Y175558495D01*
X97646176Y176358495D01*
X98027128Y176358495D01*
X98331890Y175596590D02*
X98446176Y175558495D01*
X98636652Y175558495D01*
X98712842Y175596590D01*
X98750938Y175634685D01*
X98789033Y175710876D01*
X98789033Y175787066D01*
X98750938Y175863257D01*
X98712842Y175901352D01*
X98636652Y175939447D01*
X98484271Y175977542D01*
X98408080Y176015638D01*
X98369985Y176053733D01*
X98331890Y176129923D01*
X98331890Y176206114D01*
X98369985Y176282304D01*
X98408080Y176320400D01*
X98484271Y176358495D01*
X98674747Y176358495D01*
X98789033Y176320400D01*
X99017604Y176358495D02*
X99474747Y176358495D01*
X99246176Y175558495D02*
X99246176Y176358495D01*
X99893795Y176358495D02*
X100046176Y176358495D01*
X100122366Y176320400D01*
X100198557Y176244209D01*
X100236652Y176091828D01*
X100236652Y175825161D01*
X100198557Y175672780D01*
X100122366Y175596590D01*
X100046176Y175558495D01*
X99893795Y175558495D01*
X99817604Y175596590D01*
X99741414Y175672780D01*
X99703319Y175825161D01*
X99703319Y176091828D01*
X99741414Y176244209D01*
X99817604Y176320400D01*
X99893795Y176358495D01*
X100579509Y175558495D02*
X100579509Y176358495D01*
X100884271Y176358495D01*
X100960461Y176320400D01*
X100998557Y176282304D01*
X101036652Y176206114D01*
X101036652Y176091828D01*
X100998557Y176015638D01*
X100960461Y175977542D01*
X100884271Y175939447D01*
X100579509Y175939447D01*
X101798557Y175558495D02*
X101341414Y175558495D01*
X101569985Y175558495D02*
X101569985Y176358495D01*
X101493795Y176244209D01*
X101417604Y176168019D01*
X101341414Y176129923D01*
D10*
X96672400Y177876200D02*
X96672400Y173761400D01*
D11*
X96388880Y182051990D02*
X96503166Y182013895D01*
X96693642Y182013895D01*
X96769833Y182051990D01*
X96807928Y182090085D01*
X96846023Y182166276D01*
X96846023Y182242466D01*
X96807928Y182318657D01*
X96769833Y182356752D01*
X96693642Y182394847D01*
X96541261Y182432942D01*
X96465071Y182471038D01*
X96426976Y182509133D01*
X96388880Y182585323D01*
X96388880Y182661514D01*
X96426976Y182737704D01*
X96465071Y182775800D01*
X96541261Y182813895D01*
X96731738Y182813895D01*
X96846023Y182775800D01*
X97112690Y182547228D02*
X97265071Y182013895D01*
X97417452Y182394847D01*
X97569833Y182013895D01*
X97722214Y182547228D01*
X98026976Y182013895D02*
X98026976Y182547228D01*
X98026976Y182813895D02*
X97988880Y182775800D01*
X98026976Y182737704D01*
X98065071Y182775800D01*
X98026976Y182813895D01*
X98026976Y182737704D01*
X98293642Y182547228D02*
X98598404Y182547228D01*
X98407928Y182813895D02*
X98407928Y182128180D01*
X98446023Y182051990D01*
X98522214Y182013895D01*
X98598404Y182013895D01*
X99207928Y182051990D02*
X99131738Y182013895D01*
X98979357Y182013895D01*
X98903166Y182051990D01*
X98865071Y182090085D01*
X98826976Y182166276D01*
X98826976Y182394847D01*
X98865071Y182471038D01*
X98903166Y182509133D01*
X98979357Y182547228D01*
X99131738Y182547228D01*
X99207928Y182509133D01*
X99550785Y182013895D02*
X99550785Y182813895D01*
X99893642Y182013895D02*
X99893642Y182432942D01*
X99855547Y182509133D01*
X99779357Y182547228D01*
X99665071Y182547228D01*
X99588880Y182509133D01*
X99550785Y182471038D01*
X100998404Y182013895D02*
X100922214Y182051990D01*
X100884119Y182090085D01*
X100846023Y182166276D01*
X100846023Y182394847D01*
X100884119Y182471038D01*
X100922214Y182509133D01*
X100998404Y182547228D01*
X101112690Y182547228D01*
X101188880Y182509133D01*
X101226976Y182471038D01*
X101265071Y182394847D01*
X101265071Y182166276D01*
X101226976Y182090085D01*
X101188880Y182051990D01*
X101112690Y182013895D01*
X100998404Y182013895D01*
X101607928Y182547228D02*
X101607928Y182013895D01*
X101607928Y182471038D02*
X101646023Y182509133D01*
X101722214Y182547228D01*
X101836500Y182547228D01*
X101912690Y182509133D01*
X101950785Y182432942D01*
X101950785Y182013895D01*
X102331738Y182090085D02*
X102369833Y182051990D01*
X102331738Y182013895D01*
X102293642Y182051990D01*
X102331738Y182090085D01*
X102331738Y182013895D01*
X102331738Y182509133D02*
X102369833Y182471038D01*
X102331738Y182432942D01*
X102293642Y182471038D01*
X102331738Y182509133D01*
X102331738Y182432942D01*
X96388880Y180892466D02*
X96769833Y180892466D01*
X96312690Y180663895D02*
X96579357Y181463895D01*
X96846023Y180663895D01*
X97455547Y180701990D02*
X97379357Y180663895D01*
X97226976Y180663895D01*
X97150785Y180701990D01*
X97112690Y180740085D01*
X97074595Y180816276D01*
X97074595Y181044847D01*
X97112690Y181121038D01*
X97150785Y181159133D01*
X97226976Y181197228D01*
X97379357Y181197228D01*
X97455547Y181159133D01*
X97684119Y181197228D02*
X97988880Y181197228D01*
X97798404Y181463895D02*
X97798404Y180778180D01*
X97836500Y180701990D01*
X97912690Y180663895D01*
X97988880Y180663895D01*
X98255547Y180663895D02*
X98255547Y181197228D01*
X98255547Y181463895D02*
X98217452Y181425800D01*
X98255547Y181387704D01*
X98293642Y181425800D01*
X98255547Y181463895D01*
X98255547Y181387704D01*
X98560309Y181197228D02*
X98750785Y180663895D01*
X98941261Y181197228D01*
X99550785Y180701990D02*
X99474595Y180663895D01*
X99322214Y180663895D01*
X99246023Y180701990D01*
X99207928Y180778180D01*
X99207928Y181082942D01*
X99246023Y181159133D01*
X99322214Y181197228D01*
X99474595Y181197228D01*
X99550785Y181159133D01*
X99588880Y181082942D01*
X99588880Y181006752D01*
X99207928Y180930561D01*
X100998404Y180663895D02*
X100731738Y181044847D01*
X100541261Y180663895D02*
X100541261Y181463895D01*
X100846023Y181463895D01*
X100922214Y181425800D01*
X100960309Y181387704D01*
X100998404Y181311514D01*
X100998404Y181197228D01*
X100960309Y181121038D01*
X100922214Y181082942D01*
X100846023Y181044847D01*
X100541261Y181044847D01*
X101341261Y180663895D02*
X101341261Y181463895D01*
X101646023Y181463895D01*
X101722214Y181425800D01*
X101760309Y181387704D01*
X101798404Y181311514D01*
X101798404Y181197228D01*
X101760309Y181121038D01*
X101722214Y181082942D01*
X101646023Y181044847D01*
X101341261Y181044847D01*
X102141261Y180663895D02*
X102141261Y181463895D01*
X96426976Y179732942D02*
X96693642Y179732942D01*
X96807928Y179313895D02*
X96426976Y179313895D01*
X96426976Y180113895D01*
X96807928Y180113895D01*
X97112690Y179351990D02*
X97226976Y179313895D01*
X97417452Y179313895D01*
X97493642Y179351990D01*
X97531738Y179390085D01*
X97569833Y179466276D01*
X97569833Y179542466D01*
X97531738Y179618657D01*
X97493642Y179656752D01*
X97417452Y179694847D01*
X97265071Y179732942D01*
X97188880Y179771038D01*
X97150785Y179809133D01*
X97112690Y179885323D01*
X97112690Y179961514D01*
X97150785Y180037704D01*
X97188880Y180075800D01*
X97265071Y180113895D01*
X97455547Y180113895D01*
X97569833Y180075800D01*
X97798404Y180113895D02*
X98255547Y180113895D01*
X98026976Y179313895D02*
X98026976Y180113895D01*
X98674595Y180113895D02*
X98826976Y180113895D01*
X98903166Y180075800D01*
X98979357Y179999609D01*
X99017452Y179847228D01*
X99017452Y179580561D01*
X98979357Y179428180D01*
X98903166Y179351990D01*
X98826976Y179313895D01*
X98674595Y179313895D01*
X98598404Y179351990D01*
X98522214Y179428180D01*
X98484119Y179580561D01*
X98484119Y179847228D01*
X98522214Y179999609D01*
X98598404Y180075800D01*
X98674595Y180113895D01*
X99360309Y179313895D02*
X99360309Y180113895D01*
X99665071Y180113895D01*
X99741261Y180075800D01*
X99779357Y180037704D01*
X99817452Y179961514D01*
X99817452Y179847228D01*
X99779357Y179771038D01*
X99741261Y179732942D01*
X99665071Y179694847D01*
X99360309Y179694847D01*
X99969833Y179237704D02*
X100579357Y179237704D01*
X100769833Y179313895D02*
X100769833Y180113895D01*
X101226976Y179313895D01*
X101226976Y180113895D01*
X61918604Y160502619D02*
X61918604Y160045476D01*
X61918604Y160274047D02*
X61118604Y160274047D01*
X61232890Y160197857D01*
X61309080Y160121666D01*
X61347176Y160045476D01*
X61194795Y160807380D02*
X61156700Y160845476D01*
X61118604Y160921666D01*
X61118604Y161112142D01*
X61156700Y161188333D01*
X61194795Y161226428D01*
X61270985Y161264523D01*
X61347176Y161264523D01*
X61461461Y161226428D01*
X61918604Y160769285D01*
X61918604Y161264523D01*
D12*
X61182295Y147624828D02*
X61144200Y147662923D01*
X61106104Y147739114D01*
X61106104Y147929590D01*
X61144200Y148005780D01*
X61182295Y148043876D01*
X61258485Y148081971D01*
X61334676Y148081971D01*
X61448961Y148043876D01*
X61906104Y147586733D01*
X61906104Y148081971D01*
D11*
X61118604Y185458180D02*
X61118604Y185953419D01*
X61423366Y185686752D01*
X61423366Y185801038D01*
X61461461Y185877228D01*
X61499557Y185915323D01*
X61575747Y185953419D01*
X61766223Y185953419D01*
X61842414Y185915323D01*
X61880509Y185877228D01*
X61918604Y185801038D01*
X61918604Y185572466D01*
X61880509Y185496276D01*
X61842414Y185458180D01*
X61194795Y186258180D02*
X61156700Y186296276D01*
X61118604Y186372466D01*
X61118604Y186562942D01*
X61156700Y186639133D01*
X61194795Y186677228D01*
X61270985Y186715323D01*
X61347176Y186715323D01*
X61461461Y186677228D01*
X61918604Y186220085D01*
X61918604Y186715323D01*
X61385271Y196037228D02*
X61918604Y196037228D01*
X61080509Y195846752D02*
X61651938Y195656276D01*
X61651938Y196151514D01*
X61118604Y196608657D02*
X61118604Y196684847D01*
X61156700Y196761038D01*
X61194795Y196799133D01*
X61270985Y196837228D01*
X61423366Y196875323D01*
X61613842Y196875323D01*
X61766223Y196837228D01*
X61842414Y196799133D01*
X61880509Y196761038D01*
X61918604Y196684847D01*
X61918604Y196608657D01*
X61880509Y196532466D01*
X61842414Y196494371D01*
X61766223Y196456276D01*
X61613842Y196418180D01*
X61423366Y196418180D01*
X61270985Y196456276D01*
X61194795Y196494371D01*
X61156700Y196532466D01*
X61118604Y196608657D01*
X61194795Y172770876D02*
X61156700Y172808971D01*
X61118604Y172885161D01*
X61118604Y173075638D01*
X61156700Y173151828D01*
X61194795Y173189923D01*
X61270985Y173228019D01*
X61347176Y173228019D01*
X61461461Y173189923D01*
X61918604Y172732780D01*
X61918604Y173228019D01*
X61194795Y173532780D02*
X61156700Y173570876D01*
X61118604Y173647066D01*
X61118604Y173837542D01*
X61156700Y173913733D01*
X61194795Y173951828D01*
X61270985Y173989923D01*
X61347176Y173989923D01*
X61461461Y173951828D01*
X61918604Y173494685D01*
X61918604Y173989923D01*
X81921204Y185305780D02*
X81921204Y185801019D01*
X82225966Y185534352D01*
X82225966Y185648638D01*
X82264061Y185724828D01*
X82302157Y185762923D01*
X82378347Y185801019D01*
X82568823Y185801019D01*
X82645014Y185762923D01*
X82683109Y185724828D01*
X82721204Y185648638D01*
X82721204Y185420066D01*
X82683109Y185343876D01*
X82645014Y185305780D01*
X82721204Y186562923D02*
X82721204Y186105780D01*
X82721204Y186334352D02*
X81921204Y186334352D01*
X82035490Y186258161D01*
X82111680Y186181971D01*
X82149776Y186105780D01*
X82721204Y160350219D02*
X82721204Y159893076D01*
X82721204Y160121647D02*
X81921204Y160121647D01*
X82035490Y160045457D01*
X82111680Y159969266D01*
X82149776Y159893076D01*
X82721204Y161112123D02*
X82721204Y160654980D01*
X82721204Y160883552D02*
X81921204Y160883552D01*
X82035490Y160807361D01*
X82111680Y160731171D01*
X82149776Y160654980D01*
X81997395Y172618476D02*
X81959300Y172656571D01*
X81921204Y172732761D01*
X81921204Y172923238D01*
X81959300Y172999428D01*
X81997395Y173037523D01*
X82073585Y173075619D01*
X82149776Y173075619D01*
X82264061Y173037523D01*
X82721204Y172580380D01*
X82721204Y173075619D01*
X82721204Y173837523D02*
X82721204Y173380380D01*
X82721204Y173608952D02*
X81921204Y173608952D01*
X82035490Y173532761D01*
X82111680Y173456571D01*
X82149776Y173380380D01*
X81921204Y195465780D02*
X81921204Y195961019D01*
X82225966Y195694352D01*
X82225966Y195808638D01*
X82264061Y195884828D01*
X82302157Y195922923D01*
X82378347Y195961019D01*
X82568823Y195961019D01*
X82645014Y195922923D01*
X82683109Y195884828D01*
X82721204Y195808638D01*
X82721204Y195580066D01*
X82683109Y195503876D01*
X82645014Y195465780D01*
X82721204Y196341971D02*
X82721204Y196494352D01*
X82683109Y196570542D01*
X82645014Y196608638D01*
X82530728Y196684828D01*
X82378347Y196722923D01*
X82073585Y196722923D01*
X81997395Y196684828D01*
X81959300Y196646733D01*
X81921204Y196570542D01*
X81921204Y196418161D01*
X81959300Y196341971D01*
X81997395Y196303876D01*
X82073585Y196265780D01*
X82264061Y196265780D01*
X82340252Y196303876D01*
X82378347Y196341971D01*
X82416442Y196418161D01*
X82416442Y196570542D01*
X82378347Y196646733D01*
X82340252Y196684828D01*
X82264061Y196722923D01*
D12*
X82708704Y147929571D02*
X82708704Y147472428D01*
X82708704Y147701000D02*
X81908704Y147701000D01*
X82022990Y147624809D01*
X82099180Y147548619D01*
X82137276Y147472428D01*
D11*
X93071942Y228193361D02*
X93071942Y227926695D01*
X92652895Y227812409D02*
X92652895Y228193361D01*
X93452895Y228193361D01*
X93452895Y227812409D01*
X92690990Y227507647D02*
X92652895Y227393361D01*
X92652895Y227202885D01*
X92690990Y227126695D01*
X92729085Y227088599D01*
X92805276Y227050504D01*
X92881466Y227050504D01*
X92957657Y227088599D01*
X92995752Y227126695D01*
X93033847Y227202885D01*
X93071942Y227355266D01*
X93110038Y227431457D01*
X93148133Y227469552D01*
X93224323Y227507647D01*
X93300514Y227507647D01*
X93376704Y227469552D01*
X93414800Y227431457D01*
X93452895Y227355266D01*
X93452895Y227164790D01*
X93414800Y227050504D01*
X93452895Y226821933D02*
X93452895Y226364790D01*
X92652895Y226593361D02*
X93452895Y226593361D01*
X93452895Y225945742D02*
X93452895Y225793361D01*
X93414800Y225717171D01*
X93338609Y225640980D01*
X93186228Y225602885D01*
X92919561Y225602885D01*
X92767180Y225640980D01*
X92690990Y225717171D01*
X92652895Y225793361D01*
X92652895Y225945742D01*
X92690990Y226021933D01*
X92767180Y226098123D01*
X92919561Y226136219D01*
X93186228Y226136219D01*
X93338609Y226098123D01*
X93414800Y226021933D01*
X93452895Y225945742D01*
X92652895Y225260028D02*
X93452895Y225260028D01*
X93452895Y224955266D01*
X93414800Y224879076D01*
X93376704Y224840980D01*
X93300514Y224802885D01*
X93186228Y224802885D01*
X93110038Y224840980D01*
X93071942Y224879076D01*
X93033847Y224955266D01*
X93033847Y225260028D01*
X93452895Y224536219D02*
X93452895Y224040980D01*
X93148133Y224307647D01*
X93148133Y224193361D01*
X93110038Y224117171D01*
X93071942Y224079076D01*
X92995752Y224040980D01*
X92805276Y224040980D01*
X92729085Y224079076D01*
X92690990Y224117171D01*
X92652895Y224193361D01*
X92652895Y224421933D01*
X92690990Y224498123D01*
X92729085Y224536219D01*
X90633542Y228193361D02*
X90633542Y227926695D01*
X90214495Y227812409D02*
X90214495Y228193361D01*
X91014495Y228193361D01*
X91014495Y227812409D01*
X90252590Y227507647D02*
X90214495Y227393361D01*
X90214495Y227202885D01*
X90252590Y227126695D01*
X90290685Y227088599D01*
X90366876Y227050504D01*
X90443066Y227050504D01*
X90519257Y227088599D01*
X90557352Y227126695D01*
X90595447Y227202885D01*
X90633542Y227355266D01*
X90671638Y227431457D01*
X90709733Y227469552D01*
X90785923Y227507647D01*
X90862114Y227507647D01*
X90938304Y227469552D01*
X90976400Y227431457D01*
X91014495Y227355266D01*
X91014495Y227164790D01*
X90976400Y227050504D01*
X91014495Y226821933D02*
X91014495Y226364790D01*
X90214495Y226593361D02*
X91014495Y226593361D01*
X91014495Y225945742D02*
X91014495Y225793361D01*
X90976400Y225717171D01*
X90900209Y225640980D01*
X90747828Y225602885D01*
X90481161Y225602885D01*
X90328780Y225640980D01*
X90252590Y225717171D01*
X90214495Y225793361D01*
X90214495Y225945742D01*
X90252590Y226021933D01*
X90328780Y226098123D01*
X90481161Y226136219D01*
X90747828Y226136219D01*
X90900209Y226098123D01*
X90976400Y226021933D01*
X91014495Y225945742D01*
X90214495Y225260028D02*
X91014495Y225260028D01*
X91014495Y224955266D01*
X90976400Y224879076D01*
X90938304Y224840980D01*
X90862114Y224802885D01*
X90747828Y224802885D01*
X90671638Y224840980D01*
X90633542Y224879076D01*
X90595447Y224955266D01*
X90595447Y225260028D01*
X90938304Y224498123D02*
X90976400Y224460028D01*
X91014495Y224383838D01*
X91014495Y224193361D01*
X90976400Y224117171D01*
X90938304Y224079076D01*
X90862114Y224040980D01*
X90785923Y224040980D01*
X90671638Y224079076D01*
X90214495Y224536219D01*
X90214495Y224040980D01*
X87915742Y228193361D02*
X87915742Y227926695D01*
X87496695Y227812409D02*
X87496695Y228193361D01*
X88296695Y228193361D01*
X88296695Y227812409D01*
X87534790Y227507647D02*
X87496695Y227393361D01*
X87496695Y227202885D01*
X87534790Y227126695D01*
X87572885Y227088599D01*
X87649076Y227050504D01*
X87725266Y227050504D01*
X87801457Y227088599D01*
X87839552Y227126695D01*
X87877647Y227202885D01*
X87915742Y227355266D01*
X87953838Y227431457D01*
X87991933Y227469552D01*
X88068123Y227507647D01*
X88144314Y227507647D01*
X88220504Y227469552D01*
X88258600Y227431457D01*
X88296695Y227355266D01*
X88296695Y227164790D01*
X88258600Y227050504D01*
X88296695Y226821933D02*
X88296695Y226364790D01*
X87496695Y226593361D02*
X88296695Y226593361D01*
X88296695Y225945742D02*
X88296695Y225793361D01*
X88258600Y225717171D01*
X88182409Y225640980D01*
X88030028Y225602885D01*
X87763361Y225602885D01*
X87610980Y225640980D01*
X87534790Y225717171D01*
X87496695Y225793361D01*
X87496695Y225945742D01*
X87534790Y226021933D01*
X87610980Y226098123D01*
X87763361Y226136219D01*
X88030028Y226136219D01*
X88182409Y226098123D01*
X88258600Y226021933D01*
X88296695Y225945742D01*
X87496695Y225260028D02*
X88296695Y225260028D01*
X88296695Y224955266D01*
X88258600Y224879076D01*
X88220504Y224840980D01*
X88144314Y224802885D01*
X88030028Y224802885D01*
X87953838Y224840980D01*
X87915742Y224879076D01*
X87877647Y224955266D01*
X87877647Y225260028D01*
X87496695Y224040980D02*
X87496695Y224498123D01*
X87496695Y224269552D02*
X88296695Y224269552D01*
X88182409Y224345742D01*
X88106219Y224421933D01*
X88068123Y224498123D01*
D12*
X84840819Y226507561D02*
X85317009Y226840895D01*
X84840819Y227078990D02*
X85840819Y227078990D01*
X85840819Y226698038D01*
X85793200Y226602800D01*
X85745580Y226555180D01*
X85650342Y226507561D01*
X85507485Y226507561D01*
X85412247Y226555180D01*
X85364628Y226602800D01*
X85317009Y226698038D01*
X85317009Y227078990D01*
X84840819Y226078990D02*
X85840819Y226078990D01*
X85840819Y225698038D01*
X85793200Y225602800D01*
X85745580Y225555180D01*
X85650342Y225507561D01*
X85507485Y225507561D01*
X85412247Y225555180D01*
X85364628Y225602800D01*
X85317009Y225698038D01*
X85317009Y226078990D01*
X84840819Y225078990D02*
X85840819Y225078990D01*
X85840819Y224126609D02*
X85840819Y224602800D01*
X85364628Y224650419D01*
X85412247Y224602800D01*
X85459866Y224507561D01*
X85459866Y224269466D01*
X85412247Y224174228D01*
X85364628Y224126609D01*
X85269390Y224078990D01*
X85031295Y224078990D01*
X84936057Y224126609D01*
X84888438Y224174228D01*
X84840819Y224269466D01*
X84840819Y224507561D01*
X84888438Y224602800D01*
X84936057Y224650419D01*
X82275419Y226507561D02*
X82751609Y226840895D01*
X82275419Y227078990D02*
X83275419Y227078990D01*
X83275419Y226698038D01*
X83227800Y226602800D01*
X83180180Y226555180D01*
X83084942Y226507561D01*
X82942085Y226507561D01*
X82846847Y226555180D01*
X82799228Y226602800D01*
X82751609Y226698038D01*
X82751609Y227078990D01*
X82275419Y226078990D02*
X83275419Y226078990D01*
X83275419Y225698038D01*
X83227800Y225602800D01*
X83180180Y225555180D01*
X83084942Y225507561D01*
X82942085Y225507561D01*
X82846847Y225555180D01*
X82799228Y225602800D01*
X82751609Y225698038D01*
X82751609Y226078990D01*
X82275419Y225078990D02*
X83275419Y225078990D01*
X82942085Y224174228D02*
X82275419Y224174228D01*
X83323038Y224412323D02*
X82608752Y224650419D01*
X82608752Y224031371D01*
X72140819Y226031371D02*
X72617009Y226364705D01*
X72140819Y226602800D02*
X73140819Y226602800D01*
X73140819Y226221847D01*
X73093200Y226126609D01*
X73045580Y226078990D01*
X72950342Y226031371D01*
X72807485Y226031371D01*
X72712247Y226078990D01*
X72664628Y226126609D01*
X72617009Y226221847D01*
X72617009Y226602800D01*
X73140819Y225698038D02*
X72140819Y225031371D01*
X73140819Y225031371D02*
X72140819Y225698038D01*
X72140819Y224650419D02*
X73140819Y224650419D01*
X73140819Y224412324D01*
X73093200Y224269466D01*
X72997961Y224174228D01*
X72902723Y224126609D01*
X72712247Y224078990D01*
X72569390Y224078990D01*
X72378914Y224126609D01*
X72283676Y224174228D01*
X72188438Y224269466D01*
X72140819Y224412324D01*
X72140819Y224650419D01*
X70499219Y226507561D02*
X70499219Y225936133D01*
X69499219Y226221847D02*
X70499219Y226221847D01*
X70499219Y225698037D02*
X69499219Y225031371D01*
X70499219Y225031371D02*
X69499219Y225698037D01*
X69499219Y224650418D02*
X70499219Y224650418D01*
X70499219Y224412323D01*
X70451600Y224269466D01*
X70356361Y224174228D01*
X70261123Y224126609D01*
X70070647Y224078990D01*
X69927790Y224078990D01*
X69737314Y224126609D01*
X69642076Y224174228D01*
X69546838Y224269466D01*
X69499219Y224412323D01*
X69499219Y224650418D01*
X74858619Y226507561D02*
X75334809Y226840895D01*
X74858619Y227078990D02*
X75858619Y227078990D01*
X75858619Y226698038D01*
X75811000Y226602800D01*
X75763380Y226555180D01*
X75668142Y226507561D01*
X75525285Y226507561D01*
X75430047Y226555180D01*
X75382428Y226602800D01*
X75334809Y226698038D01*
X75334809Y227078990D01*
X74858619Y226078990D02*
X75858619Y226078990D01*
X75858619Y225698038D01*
X75811000Y225602800D01*
X75763380Y225555180D01*
X75668142Y225507561D01*
X75525285Y225507561D01*
X75430047Y225555180D01*
X75382428Y225602800D01*
X75334809Y225698038D01*
X75334809Y226078990D01*
X74858619Y225078990D02*
X75858619Y225078990D01*
X74858619Y224078990D02*
X74858619Y224650419D01*
X74858619Y224364704D02*
X75858619Y224364704D01*
X75715761Y224459942D01*
X75620523Y224555180D01*
X75572904Y224650419D01*
X77271619Y226507561D02*
X77747809Y226840895D01*
X77271619Y227078990D02*
X78271619Y227078990D01*
X78271619Y226698038D01*
X78224000Y226602800D01*
X78176380Y226555180D01*
X78081142Y226507561D01*
X77938285Y226507561D01*
X77843047Y226555180D01*
X77795428Y226602800D01*
X77747809Y226698038D01*
X77747809Y227078990D01*
X77271619Y226078990D02*
X78271619Y226078990D01*
X78271619Y225698038D01*
X78224000Y225602800D01*
X78176380Y225555180D01*
X78081142Y225507561D01*
X77938285Y225507561D01*
X77843047Y225555180D01*
X77795428Y225602800D01*
X77747809Y225698038D01*
X77747809Y226078990D01*
X77271619Y225078990D02*
X78271619Y225078990D01*
X78176380Y224650419D02*
X78224000Y224602800D01*
X78271619Y224507561D01*
X78271619Y224269466D01*
X78224000Y224174228D01*
X78176380Y224126609D01*
X78081142Y224078990D01*
X77985904Y224078990D01*
X77843047Y224126609D01*
X77271619Y224698038D01*
X77271619Y224078990D01*
X79760819Y226507561D02*
X80237009Y226840895D01*
X79760819Y227078990D02*
X80760819Y227078990D01*
X80760819Y226698038D01*
X80713200Y226602800D01*
X80665580Y226555180D01*
X80570342Y226507561D01*
X80427485Y226507561D01*
X80332247Y226555180D01*
X80284628Y226602800D01*
X80237009Y226698038D01*
X80237009Y227078990D01*
X79760819Y226078990D02*
X80760819Y226078990D01*
X80760819Y225698038D01*
X80713200Y225602800D01*
X80665580Y225555180D01*
X80570342Y225507561D01*
X80427485Y225507561D01*
X80332247Y225555180D01*
X80284628Y225602800D01*
X80237009Y225698038D01*
X80237009Y226078990D01*
X79760819Y225078990D02*
X80760819Y225078990D01*
X80760819Y224698038D02*
X80760819Y224078990D01*
X80379866Y224412323D01*
X80379866Y224269466D01*
X80332247Y224174228D01*
X80284628Y224126609D01*
X80189390Y224078990D01*
X79951295Y224078990D01*
X79856057Y224126609D01*
X79808438Y224174228D01*
X79760819Y224269466D01*
X79760819Y224555180D01*
X79808438Y224650419D01*
X79856057Y224698038D01*
D11*
X81026000Y145262600D02*
X81026000Y198602600D01*
X81026000Y198602600D02*
X73406000Y198602600D01*
X73406000Y145262600D02*
X81026000Y145262600D01*
X73406000Y169392600D02*
X73406000Y145262600D01*
X73406000Y198602600D02*
X73406000Y174472600D01*
X70585000Y145276900D02*
X70585000Y198616900D01*
X70585000Y198616900D02*
X62965000Y198616900D01*
X62965000Y145276900D02*
X70585000Y145276900D01*
X62965000Y169406900D02*
X62965000Y145276900D01*
X62965000Y198616900D02*
X62965000Y174486900D01*
D10*
X71069200Y217678000D02*
X70205600Y217678000D01*
X69392800Y217678000D02*
X70256400Y219049600D01*
X70205600Y217678000D02*
X69392800Y217678000D01*
X70205600Y215950800D02*
X70205600Y217678000D01*
X70256400Y219049600D02*
X71069200Y217678000D01*
X70256400Y219049600D02*
X70256400Y220675200D01*
X73609200Y217678000D02*
X72745600Y217678000D01*
X71932800Y217678000D02*
X72796400Y219049600D01*
X72745600Y217678000D02*
X71932800Y217678000D01*
X72745600Y215950800D02*
X72745600Y217678000D01*
X72796400Y219049600D02*
X73609200Y217678000D01*
X72796400Y219049600D02*
X72796400Y220675200D01*
X76149200Y217678000D02*
X75285600Y217678000D01*
X74472800Y217678000D02*
X75336400Y219049600D01*
X75285600Y217678000D02*
X74472800Y217678000D01*
X75285600Y215950800D02*
X75285600Y217678000D01*
X75336400Y219049600D02*
X76149200Y217678000D01*
X75336400Y219049600D02*
X75336400Y220675200D01*
X78689200Y217678000D02*
X77825600Y217678000D01*
X77012800Y217678000D02*
X77876400Y219049600D01*
X77825600Y217678000D02*
X77012800Y217678000D01*
X77825600Y215950800D02*
X77825600Y217678000D01*
X77876400Y219049600D02*
X78689200Y217678000D01*
X77876400Y219049600D02*
X77876400Y220675200D01*
X81229200Y217678000D02*
X80365600Y217678000D01*
X79552800Y217678000D02*
X80416400Y219049600D01*
X80365600Y217678000D02*
X79552800Y217678000D01*
X80365600Y215950800D02*
X80365600Y217678000D01*
X80416400Y219049600D02*
X81229200Y217678000D01*
X80416400Y219049600D02*
X80416400Y220675200D01*
X83769200Y217678000D02*
X82905600Y217678000D01*
X82092800Y217678000D02*
X82956400Y219049600D01*
X82905600Y217678000D02*
X82092800Y217678000D01*
X82905600Y215950800D02*
X82905600Y217678000D01*
X82956400Y219049600D02*
X83769200Y217678000D01*
X82956400Y219049600D02*
X82956400Y220675200D01*
X86309200Y217678000D02*
X85445600Y217678000D01*
X84632800Y217678000D02*
X85496400Y219049600D01*
X85445600Y217678000D02*
X84632800Y217678000D01*
X85445600Y215950800D02*
X85445600Y217678000D01*
X85496400Y219049600D02*
X86309200Y217678000D01*
X85496400Y219049600D02*
X85496400Y220675200D01*
X88849200Y217678000D02*
X87985600Y217678000D01*
X87172800Y217678000D02*
X88036400Y219049600D01*
X87985600Y217678000D02*
X87172800Y217678000D01*
X87985600Y215950800D02*
X87985600Y217678000D01*
X88036400Y219049600D02*
X88849200Y217678000D01*
X88036400Y219049600D02*
X88036400Y220675200D01*
X91389200Y217678000D02*
X90525600Y217678000D01*
X89712800Y217678000D02*
X90576400Y219049600D01*
X90525600Y217678000D02*
X89712800Y217678000D01*
X90525600Y215950800D02*
X90525600Y217678000D01*
X90576400Y219049600D02*
X91389200Y217678000D01*
X90576400Y219049600D02*
X90576400Y220675200D01*
X93065600Y219049600D02*
X93065600Y220675200D01*
X93878400Y217678000D02*
X93014800Y217678000D01*
X93065600Y219049600D02*
X93878400Y217678000D01*
X92202000Y217678000D02*
X93065600Y219049600D01*
X93014800Y217678000D02*
X92202000Y217678000D01*
X93014800Y215950800D02*
X93014800Y217678000D01*
X94284800Y213360000D02*
X94284800Y223520000D01*
X94284800Y223520000D02*
X68630800Y223520000D01*
X68630800Y223520000D02*
X68630800Y214630000D01*
X70154800Y213360000D02*
X94284800Y213360000D01*
X70154800Y213360000D02*
X68630800Y214630000D01*
D13*
X86925400Y200988800D02*
X86925400Y201318800D01*
X86925400Y201318800D02*
X93465400Y201318800D01*
X93465400Y201318800D02*
X93465400Y200988800D01*
X86925400Y198908800D02*
X86925400Y198578800D01*
X86925400Y198578800D02*
X93465400Y198578800D01*
X93465400Y198578800D02*
X93465400Y198908800D01*
X86925400Y197775700D02*
X86925400Y198105700D01*
X86925400Y198105700D02*
X93465400Y198105700D01*
X93465400Y198105700D02*
X93465400Y197775700D01*
X86925400Y195695700D02*
X86925400Y195365700D01*
X86925400Y195365700D02*
X93465400Y195365700D01*
X93465400Y195365700D02*
X93465400Y195695700D01*
X86925400Y194562600D02*
X86925400Y194892600D01*
X86925400Y194892600D02*
X93465400Y194892600D01*
X93465400Y194892600D02*
X93465400Y194562600D01*
X86925400Y192482600D02*
X86925400Y192152600D01*
X86925400Y192152600D02*
X93465400Y192152600D01*
X93465400Y192152600D02*
X93465400Y192482600D01*
X86925400Y191349500D02*
X86925400Y191679500D01*
X86925400Y191679500D02*
X93465400Y191679500D01*
X93465400Y191679500D02*
X93465400Y191349500D01*
X86925400Y189269500D02*
X86925400Y188939500D01*
X86925400Y188939500D02*
X93465400Y188939500D01*
X93465400Y188939500D02*
X93465400Y189269500D01*
X86925400Y188136400D02*
X86925400Y188466400D01*
X86925400Y188466400D02*
X93465400Y188466400D01*
X93465400Y188466400D02*
X93465400Y188136400D01*
X86925400Y186056400D02*
X86925400Y185726400D01*
X86925400Y185726400D02*
X93465400Y185726400D01*
X93465400Y185726400D02*
X93465400Y186056400D01*
X64009400Y203460600D02*
X63679400Y203460600D01*
X63679400Y203460600D02*
X63679400Y210000600D01*
X63679400Y210000600D02*
X64009400Y210000600D01*
X66089400Y203460600D02*
X66419400Y203460600D01*
X66419400Y203460600D02*
X66419400Y210000600D01*
X66419400Y210000600D02*
X66089400Y210000600D01*
X87738200Y152589100D02*
X87738200Y152919100D01*
X87738200Y152919100D02*
X94278200Y152919100D01*
X94278200Y152919100D02*
X94278200Y152589100D01*
X87738200Y150509100D02*
X87738200Y150179100D01*
X87738200Y150179100D02*
X94278200Y150179100D01*
X94278200Y150179100D02*
X94278200Y150509100D01*
D14*
X68984800Y137834700D02*
G75*
G03*
X68984800Y137834700I-50800J0D01*
G01*
D10*
X72083600Y138495100D02*
X69543600Y138495100D01*
X69543600Y138495100D02*
X69543600Y132551500D01*
X69543600Y132551500D02*
X72083600Y132551500D01*
X72083600Y132551500D02*
X72083600Y138495100D01*
D14*
X71908799Y137817299D02*
G75*
G03*
X71908799Y137817299I-50800J0D01*
G01*
D10*
X75007599Y138477699D02*
X72467599Y138477699D01*
X72467599Y138477699D02*
X72467599Y132534099D01*
X72467599Y132534099D02*
X75007599Y132534099D01*
X75007599Y132534099D02*
X75007599Y138477699D01*
D14*
X74826800Y137834700D02*
G75*
G03*
X74826800Y137834700I-50800J0D01*
G01*
D10*
X77925600Y138495100D02*
X75385600Y138495100D01*
X75385600Y138495100D02*
X75385600Y132551500D01*
X75385600Y132551500D02*
X77925600Y132551500D01*
X77925600Y132551500D02*
X77925600Y138495100D01*
D11*
X93046800Y131662400D02*
X93046800Y145662400D01*
X97046800Y131662400D02*
X93046800Y131662400D01*
X97046800Y145662400D02*
X97046800Y131662400D01*
X93046800Y145662400D02*
X97046800Y145662400D01*
D10*
X82486500Y131686300D02*
X90106500Y131686300D01*
X90106500Y131686300D02*
X90106500Y141846300D01*
X90106500Y141846300D02*
X82486500Y141846300D01*
X82486500Y141846300D02*
X82486500Y131686300D01*
D13*
X122259400Y135289600D02*
X122259400Y133959600D01*
X120929400Y135289600D02*
X122259400Y135289600D01*
X119659400Y135289600D02*
X119659400Y132629600D01*
X119659400Y132629600D02*
X101819400Y132629600D01*
X119659400Y135289600D02*
X101819400Y135289600D01*
X101819400Y135289600D02*
X101819400Y132629600D01*
X91503500Y161759900D02*
X89979500Y161759900D01*
X91503500Y159600900D02*
X91503500Y161759900D01*
X89979500Y159600900D02*
X91503500Y159600900D01*
X89979500Y161759900D02*
X89979500Y159600900D01*
X91503500Y166839900D02*
X89979500Y166839900D01*
X91503500Y164680900D02*
X91503500Y166839900D01*
X89979500Y164680900D02*
X91503500Y164680900D01*
X89979500Y166839900D02*
X89979500Y164680900D01*
X91503500Y171919900D02*
X89979500Y171919900D01*
X91503500Y169760900D02*
X91503500Y171919900D01*
X89979500Y169760900D02*
X91503500Y169760900D01*
X89979500Y171919900D02*
X89979500Y169760900D01*
X91503500Y176999900D02*
X89979500Y176999900D01*
X91503500Y174840900D02*
X91503500Y176999900D01*
X89979500Y174840900D02*
X91503500Y174840900D01*
X89979500Y176999900D02*
X89979500Y174840900D01*
D10*
X95821500Y156806900D02*
X85407500Y156806900D01*
X95821500Y179666900D02*
X85407500Y179666900D01*
X95821500Y156806900D02*
X95821500Y179666900D01*
X85407500Y179666900D02*
X85407500Y156806900D01*
D13*
X67317750Y203460600D02*
X66987750Y203460600D01*
X66987750Y203460600D02*
X66987750Y210000600D01*
X66987750Y210000600D02*
X67317750Y210000600D01*
X69397750Y203460600D02*
X69727750Y203460600D01*
X69727750Y203460600D02*
X69727750Y210000600D01*
X69727750Y210000600D02*
X69397750Y210000600D01*
X70626100Y203460600D02*
X70296100Y203460600D01*
X70296100Y203460600D02*
X70296100Y210000600D01*
X70296100Y210000600D02*
X70626100Y210000600D01*
X72706100Y203460600D02*
X73036100Y203460600D01*
X73036100Y203460600D02*
X73036100Y210000600D01*
X73036100Y210000600D02*
X72706100Y210000600D01*
X73934450Y203460600D02*
X73604450Y203460600D01*
X73604450Y203460600D02*
X73604450Y210000600D01*
X73604450Y210000600D02*
X73934450Y210000600D01*
X76014450Y203460600D02*
X76344450Y203460600D01*
X76344450Y203460600D02*
X76344450Y210000600D01*
X76344450Y210000600D02*
X76014450Y210000600D01*
X77242800Y203460600D02*
X76912800Y203460600D01*
X76912800Y203460600D02*
X76912800Y210000600D01*
X76912800Y210000600D02*
X77242800Y210000600D01*
X79322800Y203460600D02*
X79652800Y203460600D01*
X79652800Y203460600D02*
X79652800Y210000600D01*
X79652800Y210000600D02*
X79322800Y210000600D01*
D10*
X151942800Y154355800D02*
X159562800Y154355800D01*
X151942800Y144957800D02*
X151942800Y154355800D01*
X159562800Y144957800D02*
X151942800Y144957800D01*
X104444800Y193471800D02*
X104444800Y144449800D01*
X109778800Y193471800D02*
X104444800Y193471800D01*
X109778800Y144449800D02*
X109778800Y193471800D01*
X104444800Y144449800D02*
X109778800Y144449800D01*
X155752800Y205409800D02*
X155752800Y221665800D01*
X141020800Y205409800D02*
X155752800Y205409800D01*
X141020800Y221665800D02*
X141020800Y205409800D01*
X137464800Y205409800D02*
X137464800Y221665800D01*
X124002800Y205409800D02*
X137464800Y205409800D01*
X124002800Y221665800D02*
X124002800Y205409800D01*
X118160800Y205917800D02*
X118160800Y221665800D01*
X103174800Y205917800D02*
X118160800Y205917800D01*
D15*
X103047800Y221665800D02*
X110032800Y221665800D01*
X103047800Y136575800D02*
X110032800Y136575800D01*
X159562800Y221665800D02*
X159562800Y136575800D01*
X110032800Y221665800D02*
X159562800Y221665800D01*
X103047800Y136575800D02*
X103047800Y221665800D01*
X159562800Y136575800D02*
X110032800Y136575800D01*
D10*
X159562800Y166039800D02*
X148894800Y166039800D01*
X148894800Y166039800D02*
X148894800Y185089800D01*
X148894800Y185089800D02*
X159562800Y185089800D01*
D11*
X76736676Y142432019D02*
X76736676Y141717733D01*
X76689057Y141574876D01*
X76593819Y141479638D01*
X76450961Y141432019D01*
X76355723Y141432019D01*
X77165247Y142336780D02*
X77212866Y142384400D01*
X77308104Y142432019D01*
X77546200Y142432019D01*
X77641438Y142384400D01*
X77689057Y142336780D01*
X77736676Y142241542D01*
X77736676Y142146304D01*
X77689057Y142003447D01*
X77117628Y141432019D01*
X77736676Y141432019D01*
X78117628Y142336780D02*
X78165247Y142384400D01*
X78260485Y142432019D01*
X78498580Y142432019D01*
X78593819Y142384400D01*
X78641438Y142336780D01*
X78689057Y142241542D01*
X78689057Y142146304D01*
X78641438Y142003447D01*
X78070009Y141432019D01*
X78689057Y141432019D01*
X62538076Y142432019D02*
X62538076Y141717733D01*
X62490457Y141574876D01*
X62395219Y141479638D01*
X62252361Y141432019D01*
X62157123Y141432019D01*
X62966647Y142336780D02*
X63014266Y142384400D01*
X63109504Y142432019D01*
X63347600Y142432019D01*
X63442838Y142384400D01*
X63490457Y142336780D01*
X63538076Y142241542D01*
X63538076Y142146304D01*
X63490457Y142003447D01*
X62919028Y141432019D01*
X63538076Y141432019D01*
X63871409Y142432019D02*
X64490457Y142432019D01*
X64157123Y142051066D01*
X64299980Y142051066D01*
X64395219Y142003447D01*
X64442838Y141955828D01*
X64490457Y141860590D01*
X64490457Y141622495D01*
X64442838Y141527257D01*
X64395219Y141479638D01*
X64299980Y141432019D01*
X64014266Y141432019D01*
X63919028Y141479638D01*
X63871409Y141527257D01*
X66370295Y220181419D02*
X66370295Y219371895D01*
X66417914Y219276657D01*
X66465533Y219229038D01*
X66560771Y219181419D01*
X66751247Y219181419D01*
X66846485Y219229038D01*
X66894104Y219276657D01*
X66941723Y219371895D01*
X66941723Y220181419D01*
X67846485Y220181419D02*
X67656009Y220181419D01*
X67560771Y220133800D01*
X67513152Y220086180D01*
X67417914Y219943323D01*
X67370295Y219752847D01*
X67370295Y219371895D01*
X67417914Y219276657D01*
X67465533Y219229038D01*
X67560771Y219181419D01*
X67751247Y219181419D01*
X67846485Y219229038D01*
X67894104Y219276657D01*
X67941723Y219371895D01*
X67941723Y219609990D01*
X67894104Y219705228D01*
X67846485Y219752847D01*
X67751247Y219800466D01*
X67560771Y219800466D01*
X67465533Y219752847D01*
X67417914Y219705228D01*
X67370295Y219609990D01*
X68408514Y213898219D02*
X67837085Y213898219D01*
X68122800Y213898219D02*
X68122800Y214898219D01*
X68027561Y214755361D01*
X67932323Y214660123D01*
X67837085Y214612504D01*
X95161123Y213568019D02*
X94589695Y213568019D01*
X94875409Y213568019D02*
X94875409Y214568019D01*
X94780171Y214425161D01*
X94684933Y214329923D01*
X94589695Y214282304D01*
X95780171Y214568019D02*
X95875409Y214568019D01*
X95970647Y214520400D01*
X96018266Y214472780D01*
X96065885Y214377542D01*
X96113504Y214187066D01*
X96113504Y213948971D01*
X96065885Y213758495D01*
X96018266Y213663257D01*
X95970647Y213615638D01*
X95875409Y213568019D01*
X95780171Y213568019D01*
X95684933Y213615638D01*
X95637314Y213663257D01*
X95589695Y213758495D01*
X95542076Y213948971D01*
X95542076Y214187066D01*
X95589695Y214377542D01*
X95637314Y214472780D01*
X95684933Y214520400D01*
X95780171Y214568019D01*
X95877142Y199504219D02*
X95543809Y199980409D01*
X95305714Y199504219D02*
X95305714Y200504219D01*
X95686666Y200504219D01*
X95781904Y200456600D01*
X95829523Y200408980D01*
X95877142Y200313742D01*
X95877142Y200170885D01*
X95829523Y200075647D01*
X95781904Y200028028D01*
X95686666Y199980409D01*
X95305714Y199980409D01*
X96210476Y200504219D02*
X96829523Y200504219D01*
X96496190Y200123266D01*
X96639047Y200123266D01*
X96734285Y200075647D01*
X96781904Y200028028D01*
X96829523Y199932790D01*
X96829523Y199694695D01*
X96781904Y199599457D01*
X96734285Y199551838D01*
X96639047Y199504219D01*
X96353333Y199504219D01*
X96258095Y199551838D01*
X96210476Y199599457D01*
X97734285Y200504219D02*
X97258095Y200504219D01*
X97210476Y200028028D01*
X97258095Y200075647D01*
X97353333Y200123266D01*
X97591428Y200123266D01*
X97686666Y200075647D01*
X97734285Y200028028D01*
X97781904Y199932790D01*
X97781904Y199694695D01*
X97734285Y199599457D01*
X97686666Y199551838D01*
X97591428Y199504219D01*
X97353333Y199504219D01*
X97258095Y199551838D01*
X97210476Y199599457D01*
X95877142Y196291119D02*
X95543809Y196767309D01*
X95305714Y196291119D02*
X95305714Y197291119D01*
X95686666Y197291119D01*
X95781904Y197243500D01*
X95829523Y197195880D01*
X95877142Y197100642D01*
X95877142Y196957785D01*
X95829523Y196862547D01*
X95781904Y196814928D01*
X95686666Y196767309D01*
X95305714Y196767309D01*
X96210476Y197291119D02*
X96829523Y197291119D01*
X96496190Y196910166D01*
X96639047Y196910166D01*
X96734285Y196862547D01*
X96781904Y196814928D01*
X96829523Y196719690D01*
X96829523Y196481595D01*
X96781904Y196386357D01*
X96734285Y196338738D01*
X96639047Y196291119D01*
X96353333Y196291119D01*
X96258095Y196338738D01*
X96210476Y196386357D01*
X97686666Y196957785D02*
X97686666Y196291119D01*
X97448571Y197338738D02*
X97210476Y196624452D01*
X97829523Y196624452D01*
X95877142Y193078019D02*
X95543809Y193554209D01*
X95305714Y193078019D02*
X95305714Y194078019D01*
X95686666Y194078019D01*
X95781904Y194030400D01*
X95829523Y193982780D01*
X95877142Y193887542D01*
X95877142Y193744685D01*
X95829523Y193649447D01*
X95781904Y193601828D01*
X95686666Y193554209D01*
X95305714Y193554209D01*
X96210476Y194078019D02*
X96829523Y194078019D01*
X96496190Y193697066D01*
X96639047Y193697066D01*
X96734285Y193649447D01*
X96781904Y193601828D01*
X96829523Y193506590D01*
X96829523Y193268495D01*
X96781904Y193173257D01*
X96734285Y193125638D01*
X96639047Y193078019D01*
X96353333Y193078019D01*
X96258095Y193125638D01*
X96210476Y193173257D01*
X97162857Y194078019D02*
X97781904Y194078019D01*
X97448571Y193697066D01*
X97591428Y193697066D01*
X97686666Y193649447D01*
X97734285Y193601828D01*
X97781904Y193506590D01*
X97781904Y193268495D01*
X97734285Y193173257D01*
X97686666Y193125638D01*
X97591428Y193078019D01*
X97305714Y193078019D01*
X97210476Y193125638D01*
X97162857Y193173257D01*
X95877142Y189864919D02*
X95543809Y190341109D01*
X95305714Y189864919D02*
X95305714Y190864919D01*
X95686666Y190864919D01*
X95781904Y190817300D01*
X95829523Y190769680D01*
X95877142Y190674442D01*
X95877142Y190531585D01*
X95829523Y190436347D01*
X95781904Y190388728D01*
X95686666Y190341109D01*
X95305714Y190341109D01*
X96210476Y190864919D02*
X96829523Y190864919D01*
X96496190Y190483966D01*
X96639047Y190483966D01*
X96734285Y190436347D01*
X96781904Y190388728D01*
X96829523Y190293490D01*
X96829523Y190055395D01*
X96781904Y189960157D01*
X96734285Y189912538D01*
X96639047Y189864919D01*
X96353333Y189864919D01*
X96258095Y189912538D01*
X96210476Y189960157D01*
X97210476Y190769680D02*
X97258095Y190817300D01*
X97353333Y190864919D01*
X97591428Y190864919D01*
X97686666Y190817300D01*
X97734285Y190769680D01*
X97781904Y190674442D01*
X97781904Y190579204D01*
X97734285Y190436347D01*
X97162857Y189864919D01*
X97781904Y189864919D01*
X95877142Y186651819D02*
X95543809Y187128009D01*
X95305714Y186651819D02*
X95305714Y187651819D01*
X95686666Y187651819D01*
X95781904Y187604200D01*
X95829523Y187556580D01*
X95877142Y187461342D01*
X95877142Y187318485D01*
X95829523Y187223247D01*
X95781904Y187175628D01*
X95686666Y187128009D01*
X95305714Y187128009D01*
X96210476Y187651819D02*
X96829523Y187651819D01*
X96496190Y187270866D01*
X96639047Y187270866D01*
X96734285Y187223247D01*
X96781904Y187175628D01*
X96829523Y187080390D01*
X96829523Y186842295D01*
X96781904Y186747057D01*
X96734285Y186699438D01*
X96639047Y186651819D01*
X96353333Y186651819D01*
X96258095Y186699438D01*
X96210476Y186747057D01*
X97781904Y186651819D02*
X97210476Y186651819D01*
X97496190Y186651819D02*
X97496190Y187651819D01*
X97400952Y187508961D01*
X97305714Y187413723D01*
X97210476Y187366104D01*
X63777904Y211321714D02*
X63396952Y211055047D01*
X63777904Y210864571D02*
X62977904Y210864571D01*
X62977904Y211169333D01*
X63016000Y211245523D01*
X63054095Y211283619D01*
X63130285Y211321714D01*
X63244571Y211321714D01*
X63320761Y211283619D01*
X63358857Y211245523D01*
X63396952Y211169333D01*
X63396952Y210864571D01*
X63054095Y211626476D02*
X63016000Y211664571D01*
X62977904Y211740761D01*
X62977904Y211931238D01*
X63016000Y212007428D01*
X63054095Y212045523D01*
X63130285Y212083619D01*
X63206476Y212083619D01*
X63320761Y212045523D01*
X63777904Y211588380D01*
X63777904Y212083619D01*
X63777904Y212464571D02*
X63777904Y212616952D01*
X63739809Y212693142D01*
X63701714Y212731238D01*
X63587428Y212807428D01*
X63435047Y212845523D01*
X63130285Y212845523D01*
X63054095Y212807428D01*
X63016000Y212769333D01*
X62977904Y212693142D01*
X62977904Y212540761D01*
X63016000Y212464571D01*
X63054095Y212426476D01*
X63130285Y212388380D01*
X63320761Y212388380D01*
X63396952Y212426476D01*
X63435047Y212464571D01*
X63473142Y212540761D01*
X63473142Y212693142D01*
X63435047Y212769333D01*
X63396952Y212807428D01*
X63320761Y212845523D01*
X90365342Y153466719D02*
X90032009Y153942909D01*
X89793914Y153466719D02*
X89793914Y154466719D01*
X90174866Y154466719D01*
X90270104Y154419100D01*
X90317723Y154371480D01*
X90365342Y154276242D01*
X90365342Y154133385D01*
X90317723Y154038147D01*
X90270104Y153990528D01*
X90174866Y153942909D01*
X89793914Y153942909D01*
X91317723Y153466719D02*
X90746295Y153466719D01*
X91032009Y153466719D02*
X91032009Y154466719D01*
X90936771Y154323861D01*
X90841533Y154228623D01*
X90746295Y154181004D01*
X92270104Y153466719D02*
X91698676Y153466719D01*
X91984390Y153466719D02*
X91984390Y154466719D01*
X91889152Y154323861D01*
X91793914Y154228623D01*
X91698676Y154181004D01*
X69726276Y139906319D02*
X69726276Y139192033D01*
X69678657Y139049176D01*
X69583419Y138953938D01*
X69440561Y138906319D01*
X69345323Y138906319D01*
X70154847Y139811080D02*
X70202466Y139858700D01*
X70297704Y139906319D01*
X70535800Y139906319D01*
X70631038Y139858700D01*
X70678657Y139811080D01*
X70726276Y139715842D01*
X70726276Y139620604D01*
X70678657Y139477747D01*
X70107228Y138906319D01*
X70726276Y138906319D01*
X71202466Y138906319D02*
X71392942Y138906319D01*
X71488180Y138953938D01*
X71535800Y139001557D01*
X71631038Y139144414D01*
X71678657Y139334890D01*
X71678657Y139715842D01*
X71631038Y139811080D01*
X71583419Y139858700D01*
X71488180Y139906319D01*
X71297704Y139906319D01*
X71202466Y139858700D01*
X71154847Y139811080D01*
X71107228Y139715842D01*
X71107228Y139477747D01*
X71154847Y139382509D01*
X71202466Y139334890D01*
X71297704Y139287271D01*
X71488180Y139287271D01*
X71583419Y139334890D01*
X71631038Y139382509D01*
X71678657Y139477747D01*
X72798076Y139906319D02*
X72798076Y139192033D01*
X72750457Y139049176D01*
X72655219Y138953938D01*
X72512361Y138906319D01*
X72417123Y138906319D01*
X73226647Y139811080D02*
X73274266Y139858700D01*
X73369504Y139906319D01*
X73607600Y139906319D01*
X73702838Y139858700D01*
X73750457Y139811080D01*
X73798076Y139715842D01*
X73798076Y139620604D01*
X73750457Y139477747D01*
X73179028Y138906319D01*
X73798076Y138906319D01*
X74369504Y139477747D02*
X74274266Y139525366D01*
X74226647Y139572985D01*
X74179028Y139668223D01*
X74179028Y139715842D01*
X74226647Y139811080D01*
X74274266Y139858700D01*
X74369504Y139906319D01*
X74559980Y139906319D01*
X74655219Y139858700D01*
X74702838Y139811080D01*
X74750457Y139715842D01*
X74750457Y139668223D01*
X74702838Y139572985D01*
X74655219Y139525366D01*
X74559980Y139477747D01*
X74369504Y139477747D01*
X74274266Y139430128D01*
X74226647Y139382509D01*
X74179028Y139287271D01*
X74179028Y139096795D01*
X74226647Y139001557D01*
X74274266Y138953938D01*
X74369504Y138906319D01*
X74559980Y138906319D01*
X74655219Y138953938D01*
X74702838Y139001557D01*
X74750457Y139096795D01*
X74750457Y139287271D01*
X74702838Y139382509D01*
X74655219Y139430128D01*
X74559980Y139477747D01*
X76101676Y139906319D02*
X76101676Y139192033D01*
X76054057Y139049176D01*
X75958819Y138953938D01*
X75815961Y138906319D01*
X75720723Y138906319D01*
X76530247Y139811080D02*
X76577866Y139858700D01*
X76673104Y139906319D01*
X76911200Y139906319D01*
X77006438Y139858700D01*
X77054057Y139811080D01*
X77101676Y139715842D01*
X77101676Y139620604D01*
X77054057Y139477747D01*
X76482628Y138906319D01*
X77101676Y138906319D01*
X77435009Y139906319D02*
X78101676Y139906319D01*
X77673104Y138906319D01*
X79004266Y137182200D02*
X79004266Y136782200D01*
X79004266Y136982200D02*
X78304266Y136982200D01*
X78404266Y136915533D01*
X78470933Y136848866D01*
X78504266Y136782200D01*
X78423333Y134521600D02*
X78390000Y134554933D01*
X78356666Y134621600D01*
X78356666Y134788266D01*
X78390000Y134854933D01*
X78423333Y134888266D01*
X78490000Y134921600D01*
X78556666Y134921600D01*
X78656666Y134888266D01*
X79056666Y134488266D01*
X79056666Y134921600D01*
X92103676Y147461219D02*
X92103676Y146746933D01*
X92056057Y146604076D01*
X91960819Y146508838D01*
X91817961Y146461219D01*
X91722723Y146461219D01*
X92532247Y147365980D02*
X92579866Y147413600D01*
X92675104Y147461219D01*
X92913200Y147461219D01*
X93008438Y147413600D01*
X93056057Y147365980D01*
X93103676Y147270742D01*
X93103676Y147175504D01*
X93056057Y147032647D01*
X92484628Y146461219D01*
X93103676Y146461219D01*
X93960819Y147127885D02*
X93960819Y146461219D01*
X93722723Y147508838D02*
X93484628Y146794552D01*
X94103676Y146794552D01*
X95363466Y146758000D02*
X95363466Y146358000D01*
X95363466Y146558000D02*
X94663466Y146558000D01*
X94763466Y146491333D01*
X94830133Y146424666D01*
X94863466Y146358000D01*
X94663466Y131095733D02*
X94663466Y130962400D01*
X94696800Y130895733D01*
X94730133Y130862400D01*
X94830133Y130795733D01*
X94963466Y130762400D01*
X95230133Y130762400D01*
X95296800Y130795733D01*
X95330133Y130829066D01*
X95363466Y130895733D01*
X95363466Y131029066D01*
X95330133Y131095733D01*
X95296800Y131129066D01*
X95230133Y131162400D01*
X95063466Y131162400D01*
X94996800Y131129066D01*
X94963466Y131095733D01*
X94930133Y131029066D01*
X94930133Y130895733D01*
X94963466Y130829066D01*
X94996800Y130795733D01*
X95063466Y130762400D01*
X85347276Y144565619D02*
X85347276Y143851333D01*
X85299657Y143708476D01*
X85204419Y143613238D01*
X85061561Y143565619D01*
X84966323Y143565619D01*
X85775847Y144470380D02*
X85823466Y144518000D01*
X85918704Y144565619D01*
X86156800Y144565619D01*
X86252038Y144518000D01*
X86299657Y144470380D01*
X86347276Y144375142D01*
X86347276Y144279904D01*
X86299657Y144137047D01*
X85728228Y143565619D01*
X86347276Y143565619D01*
X87252038Y144565619D02*
X86775847Y144565619D01*
X86728228Y144089428D01*
X86775847Y144137047D01*
X86871085Y144184666D01*
X87109180Y144184666D01*
X87204419Y144137047D01*
X87252038Y144089428D01*
X87299657Y143994190D01*
X87299657Y143756095D01*
X87252038Y143660857D01*
X87204419Y143613238D01*
X87109180Y143565619D01*
X86871085Y143565619D01*
X86775847Y143613238D01*
X86728228Y143660857D01*
X82028466Y133067400D02*
X82028466Y132667400D01*
X82028466Y132867400D02*
X81328466Y132867400D01*
X81428466Y132800733D01*
X81495133Y132734066D01*
X81528466Y132667400D01*
X82053866Y140354066D02*
X82053866Y139954066D01*
X82053866Y140154066D02*
X81353866Y140154066D01*
X81453866Y140087400D01*
X81520533Y140020733D01*
X81553866Y139954066D01*
X81353866Y140787400D02*
X81353866Y140854066D01*
X81387200Y140920733D01*
X81420533Y140954066D01*
X81487200Y140987400D01*
X81620533Y141020733D01*
X81787200Y141020733D01*
X81920533Y140987400D01*
X81987200Y140954066D01*
X82020533Y140920733D01*
X82053866Y140854066D01*
X82053866Y140787400D01*
X82020533Y140720733D01*
X81987200Y140687400D01*
X81920533Y140654066D01*
X81787200Y140620733D01*
X81620533Y140620733D01*
X81487200Y140654066D01*
X81420533Y140687400D01*
X81387200Y140720733D01*
X81353866Y140787400D01*
X123117076Y134456419D02*
X123117076Y133742133D01*
X123069457Y133599276D01*
X122974219Y133504038D01*
X122831361Y133456419D01*
X122736123Y133456419D01*
X123498028Y134456419D02*
X124117076Y134456419D01*
X123783742Y134075466D01*
X123926600Y134075466D01*
X124021838Y134027847D01*
X124069457Y133980228D01*
X124117076Y133884990D01*
X124117076Y133646895D01*
X124069457Y133551657D01*
X124021838Y133504038D01*
X123926600Y133456419D01*
X123640885Y133456419D01*
X123545647Y133504038D01*
X123498028Y133551657D01*
X124736123Y134456419D02*
X124831361Y134456419D01*
X124926600Y134408800D01*
X124974219Y134361180D01*
X125021838Y134265942D01*
X125069457Y134075466D01*
X125069457Y133837371D01*
X125021838Y133646895D01*
X124974219Y133551657D01*
X124926600Y133504038D01*
X124831361Y133456419D01*
X124736123Y133456419D01*
X124640885Y133504038D01*
X124593266Y133551657D01*
X124545647Y133646895D01*
X124498028Y133837371D01*
X124498028Y134075466D01*
X124545647Y134265942D01*
X124593266Y134361180D01*
X124640885Y134408800D01*
X124736123Y134456419D01*
X89319266Y180214638D02*
X89462123Y180167019D01*
X89700219Y180167019D01*
X89795457Y180214638D01*
X89843076Y180262257D01*
X89890695Y180357495D01*
X89890695Y180452733D01*
X89843076Y180547971D01*
X89795457Y180595590D01*
X89700219Y180643209D01*
X89509742Y180690828D01*
X89414504Y180738447D01*
X89366885Y180786066D01*
X89319266Y180881304D01*
X89319266Y180976542D01*
X89366885Y181071780D01*
X89414504Y181119400D01*
X89509742Y181167019D01*
X89747838Y181167019D01*
X89890695Y181119400D01*
X90224028Y181167019D02*
X90462123Y180167019D01*
X90652600Y180881304D01*
X90843076Y180167019D01*
X91081171Y181167019D01*
X91985933Y180167019D02*
X91414504Y180167019D01*
X91700219Y180167019D02*
X91700219Y181167019D01*
X91604980Y181024161D01*
X91509742Y180928923D01*
X91414504Y180881304D01*
X92860785Y160426423D02*
X92194119Y160426423D01*
X93241738Y160664519D02*
X92527452Y160902614D01*
X92527452Y160283566D01*
X93194119Y166030233D02*
X93194119Y165411185D01*
X92813166Y165744519D01*
X92813166Y165601661D01*
X92765547Y165506423D01*
X92717928Y165458804D01*
X92622690Y165411185D01*
X92384595Y165411185D01*
X92289357Y165458804D01*
X92241738Y165506423D01*
X92194119Y165601661D01*
X92194119Y165887376D01*
X92241738Y165982614D01*
X92289357Y166030233D01*
X93098880Y171062614D02*
X93146500Y171014995D01*
X93194119Y170919757D01*
X93194119Y170681661D01*
X93146500Y170586423D01*
X93098880Y170538804D01*
X93003642Y170491185D01*
X92908404Y170491185D01*
X92765547Y170538804D01*
X92194119Y171110233D01*
X92194119Y170491185D01*
X89288880Y172538614D02*
X89336500Y172490995D01*
X89384119Y172395757D01*
X89384119Y172157661D01*
X89336500Y172062423D01*
X89288880Y172014804D01*
X89193642Y171967185D01*
X89098404Y171967185D01*
X88955547Y172014804D01*
X88384119Y172586233D01*
X88384119Y171967185D01*
X89384119Y171348138D02*
X89384119Y171252900D01*
X89336500Y171157661D01*
X89288880Y171110042D01*
X89193642Y171062423D01*
X89003166Y171014804D01*
X88765071Y171014804D01*
X88574595Y171062423D01*
X88479357Y171110042D01*
X88431738Y171157661D01*
X88384119Y171252900D01*
X88384119Y171348138D01*
X88431738Y171443376D01*
X88479357Y171490995D01*
X88574595Y171538614D01*
X88765071Y171586233D01*
X89003166Y171586233D01*
X89193642Y171538614D01*
X89288880Y171490995D01*
X89336500Y171443376D01*
X89384119Y171348138D01*
X89384119Y170157661D02*
X89384119Y170348138D01*
X89336500Y170443376D01*
X89288880Y170490995D01*
X89146023Y170586233D01*
X88955547Y170633852D01*
X88574595Y170633852D01*
X88479357Y170586233D01*
X88431738Y170538614D01*
X88384119Y170443376D01*
X88384119Y170252900D01*
X88431738Y170157661D01*
X88479357Y170110042D01*
X88574595Y170062423D01*
X88812690Y170062423D01*
X88907928Y170110042D01*
X88955547Y170157661D01*
X89003166Y170252900D01*
X89003166Y170443376D01*
X88955547Y170538614D01*
X88907928Y170586233D01*
X88812690Y170633852D01*
X88765071Y169633852D02*
X88765071Y168871947D01*
X88384119Y167871947D02*
X88384119Y168443376D01*
X88384119Y168157661D02*
X89384119Y168157661D01*
X89241261Y168252900D01*
X89146023Y168348138D01*
X89098404Y168443376D01*
X89288880Y167490995D02*
X89336500Y167443376D01*
X89384119Y167348138D01*
X89384119Y167110042D01*
X89336500Y167014804D01*
X89288880Y166967185D01*
X89193642Y166919566D01*
X89098404Y166919566D01*
X88955547Y166967185D01*
X88384119Y167538614D01*
X88384119Y166919566D01*
X89050785Y166062423D02*
X88384119Y166062423D01*
X89431738Y166300519D02*
X88717452Y166538614D01*
X88717452Y165919566D01*
X88479357Y176404519D02*
X88431738Y176452138D01*
X88384119Y176594995D01*
X88384119Y176690233D01*
X88431738Y176833090D01*
X88526976Y176928328D01*
X88622214Y176975947D01*
X88812690Y177023566D01*
X88955547Y177023566D01*
X89146023Y176975947D01*
X89241261Y176928328D01*
X89336500Y176833090D01*
X89384119Y176690233D01*
X89384119Y176594995D01*
X89336500Y176452138D01*
X89288880Y176404519D01*
X89384119Y176118804D02*
X89384119Y175547376D01*
X88384119Y175833090D02*
X89384119Y175833090D01*
X88431738Y175261661D02*
X88384119Y175118804D01*
X88384119Y174880709D01*
X88431738Y174785471D01*
X88479357Y174737852D01*
X88574595Y174690233D01*
X88669833Y174690233D01*
X88765071Y174737852D01*
X88812690Y174785471D01*
X88860309Y174880709D01*
X88907928Y175071185D01*
X88955547Y175166423D01*
X89003166Y175214042D01*
X89098404Y175261661D01*
X89193642Y175261661D01*
X89288880Y175214042D01*
X89336500Y175166423D01*
X89384119Y175071185D01*
X89384119Y174833090D01*
X89336500Y174690233D01*
X92194119Y175571185D02*
X92194119Y176142614D01*
X92194119Y175856900D02*
X93194119Y175856900D01*
X93051261Y175952138D01*
X92956023Y176047376D01*
X92908404Y176142614D01*
X67086254Y211321714D02*
X66705302Y211055047D01*
X67086254Y210864571D02*
X66286254Y210864571D01*
X66286254Y211169333D01*
X66324350Y211245523D01*
X66362445Y211283619D01*
X66438635Y211321714D01*
X66552921Y211321714D01*
X66629111Y211283619D01*
X66667207Y211245523D01*
X66705302Y211169333D01*
X66705302Y210864571D01*
X66362445Y211626476D02*
X66324350Y211664571D01*
X66286254Y211740761D01*
X66286254Y211931238D01*
X66324350Y212007428D01*
X66362445Y212045523D01*
X66438635Y212083619D01*
X66514826Y212083619D01*
X66629111Y212045523D01*
X67086254Y211588380D01*
X67086254Y212083619D01*
X66629111Y212540761D02*
X66591016Y212464571D01*
X66552921Y212426476D01*
X66476730Y212388380D01*
X66438635Y212388380D01*
X66362445Y212426476D01*
X66324350Y212464571D01*
X66286254Y212540761D01*
X66286254Y212693142D01*
X66324350Y212769333D01*
X66362445Y212807428D01*
X66438635Y212845523D01*
X66476730Y212845523D01*
X66552921Y212807428D01*
X66591016Y212769333D01*
X66629111Y212693142D01*
X66629111Y212540761D01*
X66667207Y212464571D01*
X66705302Y212426476D01*
X66781492Y212388380D01*
X66933873Y212388380D01*
X67010064Y212426476D01*
X67048159Y212464571D01*
X67086254Y212540761D01*
X67086254Y212693142D01*
X67048159Y212769333D01*
X67010064Y212807428D01*
X66933873Y212845523D01*
X66781492Y212845523D01*
X66705302Y212807428D01*
X66667207Y212769333D01*
X66629111Y212693142D01*
X70394604Y211321714D02*
X70013652Y211055047D01*
X70394604Y210864571D02*
X69594604Y210864571D01*
X69594604Y211169333D01*
X69632700Y211245523D01*
X69670795Y211283619D01*
X69746985Y211321714D01*
X69861271Y211321714D01*
X69937461Y211283619D01*
X69975557Y211245523D01*
X70013652Y211169333D01*
X70013652Y210864571D01*
X69670795Y211626476D02*
X69632700Y211664571D01*
X69594604Y211740761D01*
X69594604Y211931238D01*
X69632700Y212007428D01*
X69670795Y212045523D01*
X69746985Y212083619D01*
X69823176Y212083619D01*
X69937461Y212045523D01*
X70394604Y211588380D01*
X70394604Y212083619D01*
X69594604Y212350285D02*
X69594604Y212883619D01*
X70394604Y212540761D01*
X73702954Y211321714D02*
X73322002Y211055047D01*
X73702954Y210864571D02*
X72902954Y210864571D01*
X72902954Y211169333D01*
X72941050Y211245523D01*
X72979145Y211283619D01*
X73055335Y211321714D01*
X73169621Y211321714D01*
X73245811Y211283619D01*
X73283907Y211245523D01*
X73322002Y211169333D01*
X73322002Y210864571D01*
X72979145Y211626476D02*
X72941050Y211664571D01*
X72902954Y211740761D01*
X72902954Y211931238D01*
X72941050Y212007428D01*
X72979145Y212045523D01*
X73055335Y212083619D01*
X73131526Y212083619D01*
X73245811Y212045523D01*
X73702954Y211588380D01*
X73702954Y212083619D01*
X72902954Y212769333D02*
X72902954Y212616952D01*
X72941050Y212540761D01*
X72979145Y212502666D01*
X73093430Y212426476D01*
X73245811Y212388380D01*
X73550573Y212388380D01*
X73626764Y212426476D01*
X73664859Y212464571D01*
X73702954Y212540761D01*
X73702954Y212693142D01*
X73664859Y212769333D01*
X73626764Y212807428D01*
X73550573Y212845523D01*
X73360097Y212845523D01*
X73283907Y212807428D01*
X73245811Y212769333D01*
X73207716Y212693142D01*
X73207716Y212540761D01*
X73245811Y212464571D01*
X73283907Y212426476D01*
X73360097Y212388380D01*
X77011304Y211321714D02*
X76630352Y211055047D01*
X77011304Y210864571D02*
X76211304Y210864571D01*
X76211304Y211169333D01*
X76249400Y211245523D01*
X76287495Y211283619D01*
X76363685Y211321714D01*
X76477971Y211321714D01*
X76554161Y211283619D01*
X76592257Y211245523D01*
X76630352Y211169333D01*
X76630352Y210864571D01*
X76287495Y211626476D02*
X76249400Y211664571D01*
X76211304Y211740761D01*
X76211304Y211931238D01*
X76249400Y212007428D01*
X76287495Y212045523D01*
X76363685Y212083619D01*
X76439876Y212083619D01*
X76554161Y212045523D01*
X77011304Y211588380D01*
X77011304Y212083619D01*
X76211304Y212807428D02*
X76211304Y212426476D01*
X76592257Y212388380D01*
X76554161Y212426476D01*
X76516066Y212502666D01*
X76516066Y212693142D01*
X76554161Y212769333D01*
X76592257Y212807428D01*
X76668447Y212845523D01*
X76858923Y212845523D01*
X76935114Y212807428D01*
X76973209Y212769333D01*
X77011304Y212693142D01*
X77011304Y212502666D01*
X76973209Y212426476D01*
X76935114Y212388380D01*
X158473876Y134929619D02*
X158473876Y135929619D01*
X158807209Y135215333D01*
X159140542Y135929619D01*
X159140542Y134929619D01*
X160140542Y134929619D02*
X159569114Y134929619D01*
X159854828Y134929619D02*
X159854828Y135929619D01*
X159759590Y135786761D01*
X159664352Y135691523D01*
X159569114Y135643904D01*
X106738800Y167071800D02*
X106691180Y166976561D01*
X106691180Y166833704D01*
X106738800Y166690847D01*
X106834038Y166595609D01*
X106929276Y166547990D01*
X107119752Y166500371D01*
X107262609Y166500371D01*
X107453085Y166547990D01*
X107548323Y166595609D01*
X107643561Y166690847D01*
X107691180Y166833704D01*
X107691180Y166928942D01*
X107643561Y167071800D01*
X107595942Y167119419D01*
X107262609Y167119419D01*
X107262609Y166928942D01*
X107691180Y167547990D02*
X106691180Y167547990D01*
X106691180Y167928942D01*
X106738800Y168024180D01*
X106786419Y168071800D01*
X106881657Y168119419D01*
X107024514Y168119419D01*
X107119752Y168071800D01*
X107167371Y168024180D01*
X107214990Y167928942D01*
X107214990Y167547990D01*
X107691180Y168547990D02*
X106691180Y168547990D01*
X106691180Y169214657D02*
X106691180Y169405133D01*
X106738800Y169500371D01*
X106834038Y169595609D01*
X107024514Y169643228D01*
X107357847Y169643228D01*
X107548323Y169595609D01*
X107643561Y169500371D01*
X107691180Y169405133D01*
X107691180Y169214657D01*
X107643561Y169119419D01*
X107548323Y169024180D01*
X107357847Y168976561D01*
X107024514Y168976561D01*
X106834038Y169024180D01*
X106738800Y169119419D01*
X106691180Y169214657D01*
X147886895Y214339419D02*
X147886895Y213529895D01*
X147934514Y213434657D01*
X147982133Y213387038D01*
X148077371Y213339419D01*
X148267847Y213339419D01*
X148363085Y213387038D01*
X148410704Y213434657D01*
X148458323Y213529895D01*
X148458323Y214339419D01*
X148886895Y213387038D02*
X149029752Y213339419D01*
X149267847Y213339419D01*
X149363085Y213387038D01*
X149410704Y213434657D01*
X149458323Y213529895D01*
X149458323Y213625133D01*
X149410704Y213720371D01*
X149363085Y213767990D01*
X149267847Y213815609D01*
X149077371Y213863228D01*
X148982133Y213910847D01*
X148934514Y213958466D01*
X148886895Y214053704D01*
X148886895Y214148942D01*
X148934514Y214244180D01*
X148982133Y214291800D01*
X149077371Y214339419D01*
X149315466Y214339419D01*
X149458323Y214291800D01*
X150220228Y213863228D02*
X150363085Y213815609D01*
X150410704Y213767990D01*
X150458323Y213672752D01*
X150458323Y213529895D01*
X150410704Y213434657D01*
X150363085Y213387038D01*
X150267847Y213339419D01*
X149886895Y213339419D01*
X149886895Y214339419D01*
X150220228Y214339419D01*
X150315466Y214291800D01*
X150363085Y214244180D01*
X150410704Y214148942D01*
X150410704Y214053704D01*
X150363085Y213958466D01*
X150315466Y213910847D01*
X150220228Y213863228D01*
X149886895Y213863228D01*
X130106895Y214339419D02*
X130106895Y213529895D01*
X130154514Y213434657D01*
X130202133Y213387038D01*
X130297371Y213339419D01*
X130487847Y213339419D01*
X130583085Y213387038D01*
X130630704Y213434657D01*
X130678323Y213529895D01*
X130678323Y214339419D01*
X131106895Y213387038D02*
X131249752Y213339419D01*
X131487847Y213339419D01*
X131583085Y213387038D01*
X131630704Y213434657D01*
X131678323Y213529895D01*
X131678323Y213625133D01*
X131630704Y213720371D01*
X131583085Y213767990D01*
X131487847Y213815609D01*
X131297371Y213863228D01*
X131202133Y213910847D01*
X131154514Y213958466D01*
X131106895Y214053704D01*
X131106895Y214148942D01*
X131154514Y214244180D01*
X131202133Y214291800D01*
X131297371Y214339419D01*
X131535466Y214339419D01*
X131678323Y214291800D01*
X132440228Y213863228D02*
X132583085Y213815609D01*
X132630704Y213767990D01*
X132678323Y213672752D01*
X132678323Y213529895D01*
X132630704Y213434657D01*
X132583085Y213387038D01*
X132487847Y213339419D01*
X132106895Y213339419D01*
X132106895Y214339419D01*
X132440228Y214339419D01*
X132535466Y214291800D01*
X132583085Y214244180D01*
X132630704Y214148942D01*
X132630704Y214053704D01*
X132583085Y213958466D01*
X132535466Y213910847D01*
X132440228Y213863228D01*
X132106895Y213863228D01*
X107366228Y213609228D02*
X107699561Y213609228D01*
X107842419Y213085419D02*
X107366228Y213085419D01*
X107366228Y214085419D01*
X107842419Y214085419D01*
X108128133Y214085419D02*
X108699561Y214085419D01*
X108413847Y213085419D02*
X108413847Y214085419D01*
X109032895Y213085419D02*
X109032895Y214085419D01*
X109032895Y213609228D02*
X109604323Y213609228D01*
X109604323Y213085419D02*
X109604323Y214085419D01*
X110080514Y213609228D02*
X110413847Y213609228D01*
X110556704Y213085419D02*
X110080514Y213085419D01*
X110080514Y214085419D01*
X110556704Y214085419D01*
X111556704Y213085419D02*
X111223371Y213561609D01*
X110985276Y213085419D02*
X110985276Y214085419D01*
X111366228Y214085419D01*
X111461466Y214037800D01*
X111509085Y213990180D01*
X111556704Y213894942D01*
X111556704Y213752085D01*
X111509085Y213656847D01*
X111461466Y213609228D01*
X111366228Y213561609D01*
X110985276Y213561609D01*
X111985276Y213085419D02*
X111985276Y214085419D01*
X112556704Y213085419D01*
X112556704Y214085419D01*
X113032895Y213609228D02*
X113366228Y213609228D01*
X113509085Y213085419D02*
X113032895Y213085419D01*
X113032895Y214085419D01*
X113509085Y214085419D01*
X113794800Y214085419D02*
X114366228Y214085419D01*
X114080514Y213085419D02*
X114080514Y214085419D01*
X155205180Y146061514D02*
X156014704Y146061514D01*
X156109942Y146109133D01*
X156157561Y146156752D01*
X156205180Y146251990D01*
X156205180Y146442466D01*
X156157561Y146537704D01*
X156109942Y146585323D01*
X156014704Y146632942D01*
X155205180Y146632942D01*
X156157561Y147061514D02*
X156205180Y147204371D01*
X156205180Y147442466D01*
X156157561Y147537704D01*
X156109942Y147585323D01*
X156014704Y147632942D01*
X155919466Y147632942D01*
X155824228Y147585323D01*
X155776609Y147537704D01*
X155728990Y147442466D01*
X155681371Y147251990D01*
X155633752Y147156752D01*
X155586133Y147109133D01*
X155490895Y147061514D01*
X155395657Y147061514D01*
X155300419Y147109133D01*
X155252800Y147156752D01*
X155205180Y147251990D01*
X155205180Y147490085D01*
X155252800Y147632942D01*
X155681371Y148394847D02*
X155728990Y148537704D01*
X155776609Y148585323D01*
X155871847Y148632942D01*
X156014704Y148632942D01*
X156109942Y148585323D01*
X156157561Y148537704D01*
X156205180Y148442466D01*
X156205180Y148061514D01*
X155205180Y148061514D01*
X155205180Y148394847D01*
X155252800Y148490085D01*
X155300419Y148537704D01*
X155395657Y148585323D01*
X155490895Y148585323D01*
X155586133Y148537704D01*
X155633752Y148490085D01*
X155681371Y148394847D01*
X155681371Y148061514D01*
X156205180Y149823419D02*
X155205180Y149823419D01*
X155205180Y150204371D01*
X155252800Y150299609D01*
X155300419Y150347228D01*
X155395657Y150394847D01*
X155538514Y150394847D01*
X155633752Y150347228D01*
X155681371Y150299609D01*
X155728990Y150204371D01*
X155728990Y149823419D01*
X155205180Y150728180D02*
X156205180Y150966276D01*
X155490895Y151156752D01*
X156205180Y151347228D01*
X155205180Y151585323D01*
X156205180Y152537704D02*
X155728990Y152204371D01*
X156205180Y151966276D02*
X155205180Y151966276D01*
X155205180Y152347228D01*
X155252800Y152442466D01*
X155300419Y152490085D01*
X155395657Y152537704D01*
X155538514Y152537704D01*
X155633752Y152490085D01*
X155681371Y152442466D01*
X155728990Y152347228D01*
X155728990Y151966276D01*
X154935180Y174604561D02*
X153935180Y174604561D01*
X154411371Y174604561D02*
X154411371Y175175990D01*
X154935180Y175175990D02*
X153935180Y175175990D01*
X154935180Y175652180D02*
X153935180Y175652180D01*
X153935180Y175890276D01*
X153982800Y176033133D01*
X154078038Y176128371D01*
X154173276Y176175990D01*
X154363752Y176223609D01*
X154506609Y176223609D01*
X154697085Y176175990D01*
X154792323Y176128371D01*
X154887561Y176033133D01*
X154935180Y175890276D01*
X154935180Y175652180D01*
X154935180Y176652180D02*
X153935180Y176652180D01*
X154649466Y176985514D01*
X153935180Y177318847D01*
X154935180Y177318847D01*
X154935180Y177795038D02*
X153935180Y177795038D01*
M02*
