M48
; DRILL file {KiCad (5.1.10-1-10_14)} date Sunday, April 30, 2023 at 11:51:50 PM
; FORMAT={-:-/ absolute / inch / decimal}
; #@! TF.CreationDate,2023-04-30T23:51:50-07:00
; #@! TF.GenerationSoftware,Kicad,Pcbnew,(5.1.10-1-10_14)
FMAT,2
INCH
T1C0.0079
T2C0.0157
T3C0.0299
T4C0.0300
T5C0.0315
T6C0.0354
T7C0.0394
T8C0.0400
T9C0.0402
T10C0.1142
%
G90
G05
T1
X4.626Y6.411
X4.626Y6.167
X4.626Y5.92
T2
X2.9415Y5.896
X3.2407Y5.8777
X3.241Y5.9394
X3.268Y5.968
X3.268Y5.906
X3.268Y5.844
X3.2688Y6.5076
X3.2857Y6.4503
X3.3035Y6.489
X3.3282Y7.154
X3.3479Y7.1199
X3.3605Y5.968
X3.3605Y5.844
X3.3625Y5.9062
X3.368Y7.086
X3.3859Y5.9379
X3.3873Y7.0517
X3.3893Y5.8759
X3.4377Y7.4233
X3.6611Y7.1667
X3.6735Y7.1293
X3.686Y7.092
X3.7446Y6.0204
X3.7824Y6.0639
X3.7839Y6.022
X3.8251Y6.0615
X3.8685Y5.5165
X3.9256Y5.459
X3.9695Y5.8503
X3.9895Y6.2635
X3.9951Y5.9247
X4.026Y5.9003
X4.0285Y6.2336
X4.056Y5.8748
X4.0583Y6.2079
X4.0644Y7.225
X4.0821Y6.8265
X4.0871Y5.8507
X4.0889Y6.1831
X4.1014Y8.5494
X4.1025Y8.6065
X4.1177Y5.8259
X4.1196Y6.1585
X4.1211Y8.4927
X4.1312Y8.579
X4.1377Y8.0398
X4.1384Y7.9718
X4.139Y7.9022
X4.1508Y6.1345
X4.151Y5.7985
X4.1532Y8.5232
X4.1571Y7.9372
X4.158Y8.006
X4.1593Y8.4661
X4.5945Y5.338
X4.6548Y8.6002
X4.6941Y8.5991
X4.7021Y8.5605
X5.3959Y8.0402
X5.396Y7.972
X5.398Y7.902
X5.4156Y8.0061
X5.416Y7.938
T3
X3.7225Y6.9735
T4
X3.4225Y6.9735
X3.4225Y6.8735
X3.4225Y6.7735
X3.4225Y6.6735
X3.4225Y6.5735
X3.4225Y6.4735
X3.4225Y6.3735
X3.4225Y6.2735
X3.7225Y6.8735
X3.7225Y6.7735
X3.7225Y6.6735
X3.7225Y6.5735
X3.7225Y6.4735
X3.7225Y6.3735
X3.7225Y6.2735
X3.742Y5.656
X3.742Y5.5773
X3.742Y5.4985
X3.742Y5.4198
X3.742Y5.341
X3.742Y5.2623
T5
X2.561Y8.289
X2.561Y7.989
X2.627Y5.564
X2.6913Y8.289
X2.6913Y7.989
X2.8215Y8.289
X2.8215Y7.989
X2.927Y5.564
X2.9518Y8.289
X2.9518Y7.989
X3.082Y8.289
X3.082Y7.989
X3.401Y7.872
X3.401Y7.7455
X3.401Y7.619
X3.401Y7.4925
X3.401Y7.366
X3.433Y5.9665
X3.701Y7.872
X3.701Y7.7455
X3.701Y7.619
X3.701Y7.4925
X3.701Y7.366
X3.733Y5.9665
X4.3749Y7.1741
X4.3749Y6.759
X4.6749Y7.1741
X4.6749Y6.759
X4.774Y6.885
X4.777Y7.292
X4.7789Y7.105
X4.7789Y6.6962
X4.7819Y6.411
X4.7819Y6.167
X4.7819Y5.92
X5.074Y6.885
X5.077Y7.292
X5.0789Y7.105
X5.0789Y6.6962
X5.0819Y6.411
X5.0819Y6.167
X5.0819Y5.92
X5.21Y7.169
X5.21Y6.759
X5.213Y6.412
X5.213Y6.167
X5.2139Y5.921
X5.31Y7.169
X5.31Y6.759
X5.313Y6.412
X5.313Y6.167
X5.3139Y5.921
X5.41Y7.169
X5.41Y6.759
X5.413Y6.412
X5.413Y6.167
X5.4139Y5.921
X5.539Y7.169
X5.539Y6.759
X5.542Y6.411
X5.542Y6.167
X5.542Y5.92
X5.839Y7.169
X5.839Y6.759
X5.842Y6.411
X5.842Y6.167
X5.842Y5.92
T6
X2.5789Y7.7196
X2.5789Y7.6196
X2.5789Y7.5196
X2.5789Y7.4196
X2.5789Y7.3196
X2.5789Y7.2196
X2.5789Y7.1196
X2.5789Y7.0196
X2.5789Y6.9196
X2.5789Y6.8196
X2.5789Y6.7196
X2.5789Y6.6196
X2.5789Y6.5196
X2.5789Y6.4196
X2.5789Y6.3196
X2.5789Y6.2196
X2.5789Y6.1196
X2.5789Y6.0196
X2.5789Y5.9196
X2.5789Y5.8196
X2.6789Y7.7196
X2.6789Y7.6196
X2.6789Y7.5196
X2.6789Y7.4196
X2.6789Y7.3196
X2.6789Y7.2196
X2.6789Y7.1196
X2.6789Y7.0196
X2.6789Y6.9196
X2.6789Y6.8196
X2.6789Y6.7196
X2.6789Y6.6196
X2.6789Y6.5196
X2.6789Y6.4196
X2.6789Y6.3196
X2.6789Y6.2196
X2.6789Y6.1196
X2.6789Y6.0196
X2.6789Y5.9196
X2.6789Y5.8196
X2.99Y7.719
X2.99Y7.619
X2.99Y7.519
X2.99Y7.419
X2.99Y7.319
X2.99Y7.219
X2.99Y7.119
X2.99Y7.019
X2.99Y6.919
X2.99Y6.819
X2.99Y6.719
X2.99Y6.619
X2.99Y6.519
X2.99Y6.419
X2.99Y6.319
X2.99Y6.219
X2.99Y6.119
X2.99Y6.019
X2.99Y5.919
X2.99Y5.819
X3.09Y7.719
X3.09Y7.619
X3.09Y7.519
X3.09Y7.419
X3.09Y7.319
X3.09Y7.219
X3.09Y7.119
X3.09Y7.019
X3.09Y6.919
X3.09Y6.819
X3.09Y6.719
X3.09Y6.619
X3.09Y6.519
X3.09Y6.419
X3.09Y6.319
X3.09Y6.219
X3.09Y6.119
X3.09Y6.019
X3.09Y5.919
X3.09Y5.819
T7
X2.762Y8.7453
X2.762Y8.45
X2.862Y8.7453
X2.862Y8.45
X2.962Y8.7453
X2.962Y8.45
X3.062Y8.7453
X3.062Y8.45
X3.162Y8.7453
X3.162Y8.45
X3.262Y8.7453
X3.262Y8.45
X3.362Y8.7453
X3.362Y8.45
X3.462Y8.7453
X3.462Y8.45
X3.562Y8.7453
X3.562Y8.45
X3.662Y8.7453
X3.662Y8.45
X4.061Y5.274
X4.161Y5.274
X4.261Y5.274
X4.361Y5.274
X4.461Y5.274
X4.561Y5.274
X4.661Y5.274
X4.761Y5.274
T8
X2.7879Y5.3866
X2.7879Y5.2866
X2.9031Y5.3859
X2.9031Y5.2859
X3.0179Y5.3866
X3.0179Y5.2866
T9
X3.2975Y5.5345
X3.2975Y5.4345
X3.2975Y5.3345
X3.2975Y5.2345
X3.3975Y5.5345
X3.3975Y5.4345
X3.3975Y5.3345
X3.3975Y5.2345
X3.4975Y5.5345
X3.4975Y5.4345
X3.4975Y5.3345
X3.4975Y5.2345
X4.1073Y8.7858
X4.1073Y8.6858
X4.2073Y8.7858
X4.2073Y8.6858
X4.3073Y8.7858
X4.3073Y8.6858
X4.4073Y8.7858
X4.4073Y8.6858
X4.5073Y8.7858
X4.5073Y8.6858
X4.6073Y8.7858
X4.6073Y8.6858
X4.7073Y8.7858
X4.7073Y8.6858
X4.8073Y8.7858
X4.8073Y8.6858
X4.9073Y8.7858
X4.9073Y8.6858
X5.0073Y8.7858
X5.0073Y8.6858
T10
X2.5664Y8.8645
X2.5664Y5.2425
X4.2151Y7.7983
X4.2151Y5.5148
X6.1442Y7.7983
X6.1442Y5.5148
X6.1491Y8.8645
X6.1491Y5.2425
T0
M30
