<?xml version="1.0" encoding="UTF-8"?>
<svg id="svg5" width="116.99mm" height="100.14mm" version="1.1" viewBox="0 0 116.99 100.14" xmlns="http://www.w3.org/2000/svg" xmlns:cc="http://creativecommons.org/ns#" xmlns:dc="http://purl.org/dc/elements/1.1/" xmlns:rdf="http://www.w3.org/1999/02/22-rdf-syntax-ns#">
  <title id="title157">JPL Open Source Rover</title>
    <metadata id="metadata155">
    <rdf:RDF>
      <cc:Work rdf:about="">
        <cc:license rdf:resource="http://creativecommons.org/licenses/by/4.0/"/>
        <dc:title>JPL Open Source Rover</dc:title>
        <dc:source>https://github.com/lschooley/open-source-rover-mission-patch</dc:source>
      </cc:Work>
      <cc:License rdf:about="http://creativecommons.org/licenses/by/4.0/">
        <cc:permits rdf:resource="http://creativecommons.org/ns#Reproduction"/>
        <cc:permits rdf:resource="http://creativecommons.org/ns#Distribution"/>
        <cc:requires rdf:resource="http://creativecommons.org/ns#Notice"/>
        <cc:requires rdf:resource="http://creativecommons.org/ns#Attribution"/>
        <cc:permits rdf:resource="http://creativecommons.org/ns#DerivativeWorks"/>
      </cc:License>
    </rdf:RDF>
  </metadata>
  <path id="path117" d="m-2.857 102.06c-8.7e-5 -0.0603 0.19054-0.0747 0.79375-0.0599 0.44104 0.0108 0.79387 0.0461 0.79387 0.0794 0 0.0343-0.33899 0.0599-0.79375 0.0599-0.5926 0-0.79378-0.0201-0.79387-0.0794zm16.129-4.8793c-4.9764-0.64004-9.0106-4.4701-9.9423-9.4392-0.13812-0.73667-0.19245-2.7381-0.09453-3.4824 0.33675-2.5599 1.3694-4.7472 3.104-6.5746 1.4982-1.5784 3.3058-2.6487 5.5199-3.2684 0.06312-0.0177 0.07937-2.3501 0.07937-11.391v-11.368h12.128v-12.636h19.433l-0.15699-0.23812c-0.08634-0.13097-0.23578-0.43815-0.33207-0.68263-0.16104-0.40885-0.17526-0.51578-0.17728-1.3335-0.0019-0.76961 0.01766-0.9465 0.1457-1.3172 0.33381-0.96638 1.0881-1.8172 2.0069-2.2636 0.64756-0.31465 1.0634-0.40997 1.7822-0.40851 1.0995 2e-3 1.9717 0.36826 2.7662 1.1608 0.82127 0.81921 1.1586 1.6211 1.1632 2.765 0.0032 0.783-0.09379 1.2012-0.42609 1.8382-0.11027 0.21138-0.21022 0.40576-0.22212 0.43195-0.01189 0.0262 6.0815 0.0476 13.541 0.0476h13.563v-11.176h-6.35v-25.844h16.32v25.845h-5.7785v11.176h9.9695v12.446h14.097v11.464c0 9.1162 0.0163 11.469 0.0794 11.487 2.4193 0.71173 4.3467 1.9035 5.8152 3.5957 1.3318 1.5347 2.2282 3.3495 2.6595 5.3845 0.15616 0.7367 0.17036 0.92429 0.17148 2.2638 1e-3 1.3488-0.0119 1.522-0.17027 2.2638-0.22266 1.043-0.48297 1.8206-0.90743 2.7108-1.5954 3.3458-4.6187 5.6922-8.2934 6.4366-0.63268 0.12816-0.90012 0.14546-2.2119 0.14309-1.3706-2e-3 -1.5573-0.0165-2.2897-0.17249-4.9442-1.0528-8.5471-4.959-9.2081-9.9833-0.12138-0.92267-0.0428-2.8145 0.15576-3.7524 1.0026-4.7339 4.773-8.3304 9.5484-9.1079l0.46059-0.075-0.0161-9.1224-0.0161-9.1224-9.8742-0.0326v11.494l-12.985 0.0324-0.13428 0.41793c-0.54022 1.6815-1.7718 2.9272-3.4538 3.4934-0.78069 0.26278-1.8918 0.32645-2.7307 0.15647l-0.53058-0.10751-5.486 5.4849 0.47438 0.45062c1.6837 1.5994 2.8682 3.7348 3.3674 6.0708 0.1569 0.73422 0.17058 0.91577 0.17253 2.2897 2e-3 1.3147-0.0154 1.5788-0.14516 2.2196-0.45498 2.247-1.4452 4.1669-2.9867 5.791-1.6575 1.7462-3.718 2.8954-6.1015 3.403-0.73244 0.15597-0.91911 0.17002-2.2897 0.17249-1.3118 2e-3 -1.5793-0.0149-2.212-0.14309-2.3681-0.47968-4.5993-1.6985-6.2061-3.39-1.6247-1.7104-2.6603-3.7943-3.0867-6.2114-0.11243-0.63733-0.11222-2.9839 3.18e-4 -3.6195 0.58257-3.29 2.3411-6.0295 5.0204-7.8212 1.8893-1.2634 3.7561-1.8626 6.041-1.9393 1.203-0.0404 2.0355 0.0357 3.0977 0.28316l0.71797 0.16725 6.2925-6.2925-0.29224-0.90736h-43.789l-0.01621-5.7309-0.01621-5.7309-7.9058-0.0328v18.265l0.84213 0.16671c3.0858 0.61087 5.6887 2.3483 7.4468 4.9706 2.5952 3.8708 2.5859 8.9618-0.02357 12.864-1.8429 2.756-4.7467 4.5828-8.008 5.0376-0.75525 0.10534-2.4032 0.12084-3.1149 0.0293zm2.54-1.2352c1.5088-0.11966 3.2894-0.76175 4.649-1.6764 2.3124-1.5557 3.8209-3.7907 4.4465-6.5878 0.12069-0.53963 0.1392-0.81042 0.13811-2.0202-0.0011-1.2041-0.02057-1.4838-0.14109-2.0253-0.30913-1.3891-0.83168-2.6224-1.6048-3.7876-0.5402-0.81417-1.9083-2.1822-2.7224-2.7224-1.2754-0.84621-2.697-1.4177-4.1363-1.663-1.0321-0.17585-2.7866-0.1453-3.757 0.0654-4.2066 0.91339-7.3721 4.1815-8.122 8.3853-0.18028 1.0106-0.18028 2.4846 0 3.4952 0.83406 4.6756 4.7234 8.2173 9.4086 8.5676 0.65413 0.0489 0.88396 0.0451 1.8415-0.0309zm44-0.0363c0.29368-0.0351 0.85089-0.14568 1.2382-0.24579 4.042-1.0447 7.0324-4.4034 7.6617-8.6053 0.0977-0.65254 0.0978-2.1406 0-2.794-0.59255-3.9651-3.2952-7.1991-7.0323-8.4149-2.1171-0.68876-4.388-0.68803-6.452 2e-3 -3.5304 1.1804-6.1131 4.0809-6.9172 7.7685-0.12125 0.556-0.14053 0.83602-0.14053 2.0414s0.01928 1.4854 0.14053 2.0414c0.80894 3.7094 3.4472 6.6582 6.967 7.7871 1.5648 0.50189 2.8498 0.6208 4.5345 0.41963zm43.821 0.0363c1.51-0.11976 3.2921-0.7627 4.649-1.6773 2.3163-1.5613 3.847-3.8222 4.4453-6.5657 0.12126-0.55601 0.14053-0.83599 0.14052-2.0414-1e-5 -1.5569-0.0697-2.0187-0.49814-3.299-1.1912-3.56-4.3463-6.2562-8.0647-6.8919-1.0139-0.17333-2.4202-0.17423-3.4266-2e-3 -5.7926 0.9903-9.6176 6.5754-8.4225 12.298 0.93493 4.4771 4.7689 7.8529 9.3211 8.2072 0.66678 0.0519 0.88865 0.0485 1.856-0.0282zm-29.557-25.779c0.73645-0.1872 1.2846-0.51029 1.8724-1.1036 0.83223-0.84005 1.2019-1.7115 1.2039-2.8382 3e-3 -1.7537-1.136-3.3247-2.8112-3.8769-0.44335-0.14613-0.63121-0.17215-1.2519-0.17336-0.63585-1e-3 -0.79584 0.0213-1.2376 0.17456-1.6393 0.56856-2.7036 1.9455-2.8081 3.6328-0.0733 1.1846 0.34029 2.2432 1.2137 3.1062 0.55514 0.54852 1.0616 0.85004 1.7661 1.0515 0.50988 0.14578 1.5324 0.15921 2.0527 0.027zm-6.2936-4.4282c0.0648-0.59028 0.20991-1.1688 0.39832-1.5887l0.16767-0.37363-7.9274-7.9285-8.5442 0.0324-0.20767 0.47625c-0.56007 1.2844-1.4541 2.201-2.7199 2.7886-0.74684 0.34671-1.3258 0.46619-2.2443 0.46319-0.93737-3e-3 -1.5386-0.14449-2.3495-0.55262-1.1101-0.55874-1.9236-1.4106-2.4758-2.5922l-0.2874-0.61503h-16.255v10.287h42.402zm22.23-4.7466v-5.1118l-3.0453-0.0342-8.7762 8.7755 0.0818 0.3154c0.045 0.17347 0.10112 0.49265 0.12471 0.70929 0.0236 0.21664 0.0552 0.41548 0.0703 0.44186 0.0151 0.0264 2.6188 0.0407 5.786 0.0317l5.7587-0.0162zm-9.9695-4.6355 4.8892-4.8895h5.1121v-11.176h-41.339v9.006l0.48095 0.25942c0.8618 0.46485 1.4838 1.0164 1.9671 1.7443l0.23693 0.35683h12.586l9.2078 9.2024 0.54257 0.0662c0.29842 0.0364 0.69847 0.11986 0.889 0.18543 0.19053 0.0656 0.38936 0.12264 0.44183 0.12683 0.0525 4e-3 2.2955-2.1926 4.9846-4.8819zm-32.021 1.7973c1.0211-0.33749 1.864-1.0661 2.3361-2.0195 0.32956-0.66545 0.44335-1.1377 0.44335-1.8402 0-2.2292-1.7849-4.0362-4.0005-4.0501-1.1627-7e-3 -2.0628 0.36149-2.8927 1.1851-0.41073 0.4076-0.57297 0.62614-0.78245 1.054-0.49221 1.0053-0.5751 2.0602-0.24 3.0545 0.23732 0.70415 0.45671 1.0518 1.0217 1.619 0.40632 0.4079 0.62375 0.56833 1.0519 0.77621 1.0184 0.49443 2.0174 0.56656 3.0625 0.22114zm-5.661-6.8846c0.52455-0.77244 1.5426-1.6065 2.2881-1.8746l0.31038-0.11161v-8.9919h-19.622v11.366h16.759zm5.4063-12.26c1.0181-0.47524 1.6345-1.6151 1.4442-2.6707-0.24249-1.3451-1.5188-2.2737-2.8403-2.0665-2.2226 0.34853-2.8789 3.2212-1.0309 4.5123 0.48303 0.33746 0.81087 0.4274 1.4924 0.40945 0.46574-0.0123 0.6387-0.0464 0.9346-0.18454zm38.086-24.086v-11.652h-13.78v23.305h13.78z" fill="#fff" stroke-width=".0635"/>
</svg>
