<?xml version="1.0"?>
<!DOCTYPE svg PUBLIC "-//W3C//DTD SVG 1.1//EN" "http://www.w3.org/Graphics/SVG/1.1/DTD/svg11.dtd">
<svg width="259.08mm" height="120.08mm" viewBox="0 0 259.08 120.08" xmlns="http://www.w3.org/2000/svg" version="1.1">
<g id="Sketch010" transform="translate(129.540000,58.540000) scale(1,-1)">
<path id="Sketch010_w0000"  d="M 83.5 56.0 L 127.0 56.0 L 127.0 -59.0 L -127.0 -59.0 L -127.0 56.0 L -83.5 56.0 L -83.5 49.5 A 1 1 0 0 1 -82.5 48.5L -76.25 48.5 L -76.25 44.0 A 4.25 4.25 0 1 1 -67.75 44L -60.25 44.00000000000001 A 4.25 4.25 0 0 1 -51.75 44L -51.75 48.50000000000003 L -45.5 48.50000000000003 A 1 1 0 0 1 -44.5 49.5L -44.5 56.0 L 44.50000000000001 56.0 L 44.5 49.50000000000003 A 1 1 0 0 1 45.5 48.5L 51.75 48.50000000000003 L 51.75 44.0 A 4.25 4.25 0 1 1 60.25 44L 67.75 44.00000000000003 A 4.25 4.25 0 1 1 76.25 44L 76.25 48.5 L 82.5 48.5 A 1 1 0 0 1 83.5 49.5L 83.5 56.0 " stroke="#000000" stroke-width="0.35 px" style="stroke-width:0.35;stroke-miterlimit:4;stroke-dasharray:none;stroke-linecap:square;fill:none;fill-opacity:1;fill-rule: evenodd"/>
<circle cx="-120.0" cy="36.0" r="2.2" stroke="#000000" stroke-width="0.35 px" style="stroke-width:0.35;stroke-miterlimit:4;stroke-dasharray:none;stroke-linecap:square;fill:none"/>
<circle cx="-120.0" cy="-36.0" r="2.2" stroke="#000000" stroke-width="0.35 px" style="stroke-width:0.35;stroke-miterlimit:4;stroke-dasharray:none;stroke-linecap:square;fill:none"/>
<circle cx="120.0" cy="36.0" r="2.2" stroke="#000000" stroke-width="0.35 px" style="stroke-width:0.35;stroke-miterlimit:4;stroke-dasharray:none;stroke-linecap:square;fill:none"/>
<circle cx="120.0" cy="-36.0" r="2.2" stroke="#000000" stroke-width="0.35 px" style="stroke-width:0.35;stroke-miterlimit:4;stroke-dasharray:none;stroke-linecap:square;fill:none"/>
<circle cx="0.0" cy="51.71" r="2.2" stroke="#000000" stroke-width="0.35 px" style="stroke-width:0.35;stroke-miterlimit:4;stroke-dasharray:none;stroke-linecap:square;fill:none"/>
<circle cx="0.0" cy="-51.71" r="2.2" stroke="#000000" stroke-width="0.35 px" style="stroke-width:0.35;stroke-miterlimit:4;stroke-dasharray:none;stroke-linecap:square;fill:none"/>
<title>b'Front_Plate_Standoff'</title>
</g>
</svg>