<?xml version="1.0"?>
<!DOCTYPE svg PUBLIC "-//W3C//DTD SVG 1.1//EN" "http://www.w3.org/Graphics/SVG/1.1/DTD/svg11.dtd">
<svg width="259.08mm" height="236.07999999999998mm" viewBox="0 0 259.08 236.07999999999998" xmlns="http://www.w3.org/2000/svg" version="1.1">
<g id="Sketch003" transform="translate(129.540000,69.540000) scale(1,-1)">
<path id="Sketch003_w0000"  d="M -120.0 55.875 A 4.125 4.125 0 0 1 -115.875 60L -115.875 67.0 L 115.875 67.0 L 115.875 60.0 A 4.125 4.125 0 0 1 120 55.875L 127.0 55.875 L 127.0 -63.875 L 120.0 -63.875 A 4.125 4.125 0 0 1 120 -72.125L 127.0 -72.125 L 127.0 -127.875 L 120.0 -127.875 A 4.125 4.125 0 0 1 120 -136.125L 127.0 -136.125 L 127.0 -164.0 L 17.0 -164.0 A 17 17 0 1 1 -17 -164L -127.0 -164.0 L -127.0 -136.125 L -120.0 -136.125 A 4.125 4.125 0 0 1 -120 -127.875L -127.0 -127.875 L -127.0 -72.125 L -120.0 -72.125 A 4.125 4.125 0 1 1 -120 -63.875L -127.0 -63.875 L -127.0 55.875 L -120.0 55.875 " stroke="#000000" stroke-width="0.35 px" style="stroke-width:0.35;stroke-miterlimit:4;stroke-dasharray:none;stroke-linecap:square;fill:none;fill-opacity:1;fill-rule: evenodd"/>
<circle cx="-64.0" cy="61.0" r="2.0" stroke="#000000" stroke-width="0.35 px" style="stroke-width:0.35;stroke-miterlimit:4;stroke-dasharray:none;stroke-linecap:square;fill:none"/>
<circle cx="64.0" cy="61.0" r="2.0" stroke="#000000" stroke-width="0.35 px" style="stroke-width:0.35;stroke-miterlimit:4;stroke-dasharray:none;stroke-linecap:square;fill:none"/>
<title>b'Top Front'</title>
</g>
</svg>