<?xml version="1.0"?>
<!DOCTYPE svg PUBLIC "-//W3C//DTD SVG 1.1//EN" "http://www.w3.org/Graphics/SVG/1.1/DTD/svg11.dtd">
<svg width="114.24mm" height="330.24mm" viewBox="0 0 114.24 330.24" xmlns="http://www.w3.org/2000/svg" version="1.1">
<g id="Sketch001" transform="translate(57.120000,165.120000) scale(1,-1)">
<path id="Sketch001_w0000"  d="M -52.0 -156.0 A 4 4 0 1 1 -52 -148L -56.0 -148.0 L -56.0 -44.0 L -52.0 -44.0 A 4 4 0 0 1 -52 -36L -56.0 -36.0 L -56.0 36.0 L -52.0 36.0 A 4 4 0 0 1 -52 44L -56.0 44.0 L -56.0 148.0 L -52.0 148.0 A 4 4 0 0 1 -52 156L -56.0 156.0 L -56.0 164.0 L 56.0 164.0 L 56.0 156.0 L 52.0 156.0 A 4 4 0 1 1 52 148L 56.0 148.0 L 56.0 76.0 L 52.0 76.0 A 4 4 0 1 1 52 68L 56.0 68.0 L 56.0 59.99999999999999 L 51.99999999999999 59.99999999999999 A 4 4 0 0 1 52 52L 56.0 52.00000000000001 L 56.0 -148.0 L 52.00000000000001 -148.0 A 4 4 0 1 1 52 -156L 56.0 -156.0 L 56.0 -164.0 L -56.0 -164.0 L -56.0 -156.0 L -52.0 -156.0 " stroke="#000000" stroke-width="0.35 px" style="stroke-width:0.35;stroke-miterlimit:4;stroke-dasharray:none;stroke-linecap:square;fill:none;fill-opacity:1;fill-rule: evenodd"/>
<circle cx="-3.9999999999999964" cy="0.0" r="17.0" stroke="#000000" stroke-width="0.35 px" style="stroke-width:0.35;stroke-miterlimit:4;stroke-dasharray:none;stroke-linecap:square;fill:none"/>
<path id="Sketch001_w0002"  d="M -44.00000000000001 16.0 A 2 2 0 0 1 -46 14L -46.0 -14.0 A 2 2 0 0 1 -44 -16L -36.0 -16.0 A 2 2 0 0 1 -34 -14L -34.0 14.0 A 2 2 0 0 1 -36 16L -44.00000000000001 16.0 " stroke="#000000" stroke-width="0.35 px" style="stroke-width:0.35;stroke-miterlimit:4;stroke-dasharray:none;stroke-linecap:square;fill:none;fill-opacity:1;fill-rule: evenodd"/>
<circle cx="-3.999999999999998" cy="160.0" r="2.0" stroke="#000000" stroke-width="0.35 px" style="stroke-width:0.35;stroke-miterlimit:4;stroke-dasharray:none;stroke-linecap:square;fill:none"/>
<circle cx="-3.999999999999998" cy="-160.0" r="2.0" stroke="#000000" stroke-width="0.35 px" style="stroke-width:0.35;stroke-miterlimit:4;stroke-dasharray:none;stroke-linecap:square;fill:none"/>
<circle cx="19.999999999999996" cy="32.0" r="2.0" stroke="#000000" stroke-width="0.35 px" style="stroke-width:0.35;stroke-miterlimit:4;stroke-dasharray:none;stroke-linecap:square;fill:none"/>
<circle cx="19.999999999999996" cy="-32.0" r="2.0" stroke="#000000" stroke-width="0.35 px" style="stroke-width:0.35;stroke-miterlimit:4;stroke-dasharray:none;stroke-linecap:square;fill:none"/>
<circle cx="-52.0" cy="120.0" r="2.0" stroke="#000000" stroke-width="0.35 px" style="stroke-width:0.35;stroke-miterlimit:4;stroke-dasharray:none;stroke-linecap:square;fill:none"/>
<circle cx="52.0" cy="120.0" r="2.0" stroke="#000000" stroke-width="0.35 px" style="stroke-width:0.35;stroke-miterlimit:4;stroke-dasharray:none;stroke-linecap:square;fill:none"/>
<circle cx="-52.0" cy="-120.0" r="2.0" stroke="#000000" stroke-width="0.35 px" style="stroke-width:0.35;stroke-miterlimit:4;stroke-dasharray:none;stroke-linecap:square;fill:none"/>
<circle cx="52.0" cy="-120.0" r="2.0" stroke="#000000" stroke-width="0.35 px" style="stroke-width:0.35;stroke-miterlimit:4;stroke-dasharray:none;stroke-linecap:square;fill:none"/>
<circle cx="-11.999999999999996" cy="32.0" r="4.0" stroke="#000000" stroke-width="0.35 px" style="stroke-width:0.35;stroke-miterlimit:4;stroke-dasharray:none;stroke-linecap:square;fill:none"/>
<circle cx="4.0000000000000036" cy="32.0" r="4.0" stroke="#000000" stroke-width="0.35 px" style="stroke-width:0.35;stroke-miterlimit:4;stroke-dasharray:none;stroke-linecap:square;fill:none"/>
<circle cx="-11.999999999999996" cy="-32.0" r="4.0" stroke="#000000" stroke-width="0.35 px" style="stroke-width:0.35;stroke-miterlimit:4;stroke-dasharray:none;stroke-linecap:square;fill:none"/>
<circle cx="4.0000000000000036" cy="-32.0" r="4.0" stroke="#000000" stroke-width="0.35 px" style="stroke-width:0.35;stroke-miterlimit:4;stroke-dasharray:none;stroke-linecap:square;fill:none"/>
<title>b'Side_Plate'</title>
</g>
</svg>