<?xml version="1.0"?>
<!DOCTYPE svg PUBLIC "-//W3C//DTD SVG 1.1//EN" "http://www.w3.org/Graphics/SVG/1.1/DTD/svg11.dtd">
<svg width="259.08mm" height="237.08mm" viewBox="0 0 259.08 237.08" xmlns="http://www.w3.org/2000/svg" version="1.1">
<g id="Sketch003" transform="translate(129.540000,70.540000) scale(1,-1)">
<path id="Sketch003_w0000"  d="M -120.00000000000121 56.5 A 4.5 4.5 0 0 1 -115.5 61L -115.5 68.00000000000001 L 115.5 68.0 L 115.5 61.00000000000171 A 4.5 4.5 0 0 1 120 56.5L 127.0 56.49999999999538 L 127.0 -63.5 L 120.00000000000126 -63.5 A 4.5 4.5 0 1 1 120 -72.5L 127.0 -72.5 L 127.0 -127.5 L 120.00000000000126 -127.5 A 4.5 4.5 0 1 1 120 -136.5L 127.0 -136.5 L 127.0 -164.0 L 17.0 -164.0 A 17 17 0 0 1 -17 -164L -127.0 -164.0 L -127.0 -136.5 L -120.00000000000126 -136.5 A 4.5 4.5 0 1 1 -120 -127.5L -127.0 -127.5 L -127.0 -72.5 L -120.00000000000126 -72.5 A 4.5 4.5 0 1 1 -120 -63.5L -127.0 -63.5 L -127.0 56.5 L -120.00000000000121 56.5 " stroke="#000000" stroke-width="0.35 px" style="stroke-width:0.35;stroke-miterlimit:4;stroke-dasharray:none;stroke-linecap:square;fill:none;fill-opacity:1;fill-rule: evenodd"/>
<circle cx="-64.0" cy="63.00000000000001" r="2.2" stroke="#000000" stroke-width="0.35 px" style="stroke-width:0.35;stroke-miterlimit:4;stroke-dasharray:none;stroke-linecap:square;fill:none"/>
<circle cx="64.0" cy="63.00000000000001" r="2.2" stroke="#000000" stroke-width="0.35 px" style="stroke-width:0.35;stroke-miterlimit:4;stroke-dasharray:none;stroke-linecap:square;fill:none"/>
<title>b'Top Front'</title>
</g>
</svg>