G04 #@! TF.GenerationSoftware,KiCad,Pcbnew,(5.0.2)-1*
G04 #@! TF.CreationDate,2019-07-25T17:15:10-07:00*
G04 #@! TF.ProjectId,Arduino_uno_sheild,41726475-696e-46f5-9f75-6e6f5f736865,rev?*
G04 #@! TF.SameCoordinates,Original*
G04 #@! TF.FileFunction,Copper,L2,Bot*
G04 #@! TF.FilePolarity,Positive*
%FSLAX46Y46*%
G04 Gerber Fmt 4.6, Leading zero omitted, Abs format (unit mm)*
G04 Created by KiCad (PCBNEW (5.0.2)-1) date 7/25/2019 5:15:10 PM*
%MOMM*%
%LPD*%
G01*
G04 APERTURE LIST*
G04 #@! TA.AperFunction,ComponentPad*
%ADD10C,1.524000*%
G04 #@! TD*
G04 #@! TA.AperFunction,ComponentPad*
%ADD11C,1.560000*%
G04 #@! TD*
G04 #@! TA.AperFunction,WasherPad*
%ADD12C,3.600000*%
G04 #@! TD*
G04 #@! TA.AperFunction,ComponentPad*
%ADD13C,1.600000*%
G04 #@! TD*
G04 #@! TA.AperFunction,ComponentPad*
%ADD14R,1.600000X1.600000*%
G04 #@! TD*
G04 #@! TA.AperFunction,ComponentPad*
%ADD15C,1.800000*%
G04 #@! TD*
G04 #@! TA.AperFunction,ComponentPad*
%ADD16R,1.800000X1.800000*%
G04 #@! TD*
G04 #@! TA.AperFunction,ViaPad*
%ADD17C,0.800000*%
G04 #@! TD*
G04 #@! TA.AperFunction,Conductor*
%ADD18C,0.250000*%
G04 #@! TD*
G04 #@! TA.AperFunction,Conductor*
%ADD19C,0.500000*%
G04 #@! TD*
G04 #@! TA.AperFunction,Conductor*
%ADD20C,0.254000*%
G04 #@! TD*
G04 APERTURE END LIST*
D10*
G04 #@! TO.P,J5,1*
G04 #@! TO.N,+12V*
X3860800Y15544800D03*
G04 #@! TO.P,J5,2*
G04 #@! TO.N,+5V*
X3860800Y17544800D03*
G04 #@! TO.P,J5,3*
G04 #@! TO.N,GND*
X3860800Y19544800D03*
G04 #@! TO.P,J5,4*
G04 #@! TO.N,/RX*
X3860800Y21544800D03*
G04 #@! TO.P,J5,5*
G04 #@! TO.N,/TX*
X3860800Y23544800D03*
G04 #@! TO.P,J5,6*
G04 #@! TO.N,Net-(J5-Pad6)*
X3860800Y25544800D03*
G04 #@! TD*
D11*
G04 #@! TO.P,A1,31*
G04 #@! TO.N,Net-(A1-Pad31)*
X27940000Y2540000D03*
G04 #@! TO.P,A1,20*
G04 #@! TO.N,/IOREF*
X30480000Y2540000D03*
G04 #@! TO.P,A1,21*
G04 #@! TO.N,/RESET*
X33020000Y2540000D03*
G04 #@! TO.P,A1,22*
G04 #@! TO.N,/3.3V*
X35560000Y2540000D03*
G04 #@! TO.P,A1,23*
G04 #@! TO.N,/5V*
X38100000Y2540000D03*
G04 #@! TO.P,A1,24*
G04 #@! TO.N,GND*
X40640000Y2540000D03*
G04 #@! TO.P,A1,25*
X43180000Y2540000D03*
G04 #@! TO.P,A1,26*
G04 #@! TO.N,+12V*
X45720000Y2540000D03*
G04 #@! TO.P,A1,14*
G04 #@! TO.N,/A*
X50800000Y2540000D03*
G04 #@! TO.P,A1,15*
G04 #@! TO.N,/B*
X53340000Y2540000D03*
G04 #@! TO.P,A1,16*
G04 #@! TO.N,/C*
X55880000Y2540000D03*
G04 #@! TO.P,A1,17*
G04 #@! TO.N,/A3*
X58420000Y2540000D03*
G04 #@! TO.P,A1,18*
G04 #@! TO.N,/A4*
X60960000Y2540000D03*
G04 #@! TO.P,A1,19*
G04 #@! TO.N,/A5*
X63500000Y2540000D03*
G04 #@! TO.P,A1,30*
G04 #@! TO.N,/SCL*
X18796000Y50800000D03*
G04 #@! TO.P,A1,29*
G04 #@! TO.N,/SDA*
X21336000Y50800000D03*
G04 #@! TO.P,A1,28*
G04 #@! TO.N,/AREF*
X23876000Y50800000D03*
G04 #@! TO.P,A1,27*
G04 #@! TO.N,GND*
X26416000Y50800000D03*
G04 #@! TO.P,A1,13*
G04 #@! TO.N,/SCK*
X28956000Y50800000D03*
G04 #@! TO.P,A1,12*
G04 #@! TO.N,/MISO*
X31496000Y50800000D03*
G04 #@! TO.P,A1,11*
G04 #@! TO.N,/MOSI*
X34036000Y50800000D03*
G04 #@! TO.P,A1,10*
G04 #@! TO.N,/LAT*
X36576000Y50800000D03*
G04 #@! TO.P,A1,9*
G04 #@! TO.N,/OE*
X39116000Y50800000D03*
G04 #@! TO.P,A1,8*
G04 #@! TO.N,/CLK*
X41656000Y50800000D03*
G04 #@! TO.P,A1,7*
G04 #@! TO.N,/B2*
X45720000Y50800000D03*
G04 #@! TO.P,A1,6*
G04 #@! TO.N,/G2*
X48260000Y50800000D03*
G04 #@! TO.P,A1,5*
G04 #@! TO.N,/R2*
X50800000Y50800000D03*
G04 #@! TO.P,A1,4*
G04 #@! TO.N,/B1*
X53340000Y50800000D03*
G04 #@! TO.P,A1,3*
G04 #@! TO.N,/G1*
X55880000Y50800000D03*
G04 #@! TO.P,A1,2*
G04 #@! TO.N,/R1*
X58420000Y50800000D03*
G04 #@! TO.P,A1,1*
G04 #@! TO.N,/TX*
X60960000Y50800000D03*
G04 #@! TO.P,A1,0*
G04 #@! TO.N,/RX*
X63500000Y50800000D03*
D12*
G04 #@! TO.P,A1,*
G04 #@! TO.N,*
X15240000Y50800000D03*
X66040000Y35560000D03*
X66040000Y7620000D03*
X13970000Y2540000D03*
G04 #@! TD*
D13*
G04 #@! TO.P,J1,1*
G04 #@! TO.N,/R1*
X55524400Y21691600D03*
G04 #@! TO.P,J1,2*
G04 #@! TO.N,/G1*
X52984400Y21691600D03*
G04 #@! TO.P,J1,3*
G04 #@! TO.N,/B1*
X55524400Y24231600D03*
G04 #@! TO.P,J1,4*
G04 #@! TO.N,GND*
X52984400Y24231600D03*
G04 #@! TO.P,J1,5*
G04 #@! TO.N,/R2*
X55524400Y26771600D03*
G04 #@! TO.P,J1,6*
G04 #@! TO.N,/G2*
X52984400Y26771600D03*
G04 #@! TO.P,J1,7*
G04 #@! TO.N,/B2*
X55524400Y29311600D03*
G04 #@! TO.P,J1,8*
G04 #@! TO.N,GND*
X52984400Y29311600D03*
G04 #@! TO.P,J1,9*
G04 #@! TO.N,/A*
X55524400Y31851600D03*
G04 #@! TO.P,J1,10*
G04 #@! TO.N,/B*
X52984400Y31851600D03*
G04 #@! TO.P,J1,11*
G04 #@! TO.N,/C*
X55524400Y34391600D03*
G04 #@! TO.P,J1,12*
G04 #@! TO.N,GND*
X52984400Y34391600D03*
G04 #@! TO.P,J1,13*
G04 #@! TO.N,/CLK*
X55524400Y36931600D03*
G04 #@! TO.P,J1,14*
G04 #@! TO.N,/LAT*
X52984400Y36931600D03*
G04 #@! TO.P,J1,15*
G04 #@! TO.N,/OE*
X55524400Y39471600D03*
G04 #@! TO.P,J1,16*
G04 #@! TO.N,GND*
X52984400Y39471600D03*
G04 #@! TD*
G04 #@! TO.P,J2,6*
G04 #@! TO.N,/SDA*
X46355000Y10160000D03*
G04 #@! TO.P,J2,5*
G04 #@! TO.N,/SCL*
X48895000Y10160000D03*
G04 #@! TO.P,J2,4*
G04 #@! TO.N,GND*
X51435000Y10160000D03*
G04 #@! TO.P,J2,3*
G04 #@! TO.N,/A3*
X53975000Y10160000D03*
G04 #@! TO.P,J2,2*
G04 #@! TO.N,/A4*
X56515000Y10160000D03*
D14*
G04 #@! TO.P,J2,1*
G04 #@! TO.N,/A5*
X59055000Y10160000D03*
G04 #@! TD*
D13*
G04 #@! TO.P,J3,6*
G04 #@! TO.N,Net-(J3-Pad6)*
X43180000Y10160000D03*
G04 #@! TO.P,J3,5*
G04 #@! TO.N,GND*
X40640000Y10160000D03*
G04 #@! TO.P,J3,4*
G04 #@! TO.N,/5V*
X38100000Y10160000D03*
G04 #@! TO.P,J3,3*
G04 #@! TO.N,/3.3V*
X35560000Y10160000D03*
G04 #@! TO.P,J3,2*
G04 #@! TO.N,/RESET*
X33020000Y10160000D03*
D14*
G04 #@! TO.P,J3,1*
G04 #@! TO.N,/IOREF*
X30480000Y10160000D03*
G04 #@! TD*
D13*
G04 #@! TO.P,J4,6*
G04 #@! TO.N,Net-(J4-Pad6)*
X21336000Y40640000D03*
G04 #@! TO.P,J4,5*
G04 #@! TO.N,/AREF*
X23876000Y40640000D03*
G04 #@! TO.P,J4,4*
G04 #@! TO.N,GND*
X26416000Y40640000D03*
G04 #@! TO.P,J4,3*
G04 #@! TO.N,/SCK*
X28956000Y40640000D03*
G04 #@! TO.P,J4,2*
G04 #@! TO.N,/MISO*
X31496000Y40640000D03*
D14*
G04 #@! TO.P,J4,1*
G04 #@! TO.N,/MOSI*
X34036000Y40640000D03*
G04 #@! TD*
D15*
G04 #@! TO.P,J6,2*
G04 #@! TO.N,GND*
X13365600Y15544800D03*
D16*
G04 #@! TO.P,J6,1*
G04 #@! TO.N,+5V*
X16865600Y15544800D03*
G04 #@! TD*
D17*
G04 #@! TO.N,/G2*
X48564800Y44246800D03*
G04 #@! TO.N,/5V*
X38100000Y6096000D03*
G04 #@! TO.N,/3.3V*
X35560000Y5435600D03*
G04 #@! TD*
D18*
G04 #@! TO.N,/RX*
X63500000Y50800000D02*
X60248800Y47548800D01*
X60248800Y47548800D02*
X18897600Y47548800D01*
X18897600Y47548800D02*
X10210800Y38862000D01*
X10210800Y27894800D02*
X3860800Y21544800D01*
X10210800Y38862000D02*
X10210800Y27894800D01*
G04 #@! TO.N,/TX*
X58572400Y48412400D02*
X18288000Y48412400D01*
X60960000Y50800000D02*
X58572400Y48412400D01*
X18288000Y48412400D02*
X9499600Y39624000D01*
X9499600Y29183600D02*
X3860800Y23544800D01*
X9499600Y39624000D02*
X9499600Y29183600D01*
G04 #@! TO.N,/G2*
X48564800Y44246800D02*
X48564800Y29870400D01*
X51663600Y26771600D02*
X52984400Y26771600D01*
X48564800Y29870400D02*
X51663600Y26771600D01*
G04 #@! TO.N,GND*
X40640000Y9028630D02*
X40640000Y2540000D01*
X40640000Y10160000D02*
X40640000Y9028630D01*
X40640000Y2540000D02*
X43180000Y2540000D01*
X43180000Y2540000D02*
X43180000Y6350000D01*
X43180000Y6350000D02*
X45085000Y8255000D01*
X45085000Y8255000D02*
X50863500Y8255000D01*
X51435000Y8826500D02*
X51435000Y10160000D01*
X50863500Y8255000D02*
X51435000Y8826500D01*
D19*
X9365600Y19544800D02*
X13365600Y15544800D01*
X3860800Y19544800D02*
X9365600Y19544800D01*
D18*
G04 #@! TO.N,/C*
X55880000Y2540000D02*
X55880000Y6045200D01*
X55880000Y6045200D02*
X56794400Y6959600D01*
X56324399Y33591601D02*
X55524400Y34391600D01*
X62114020Y27801980D02*
X56324399Y33591601D01*
X62114020Y9076000D02*
X62114020Y27801980D01*
X59997618Y6959600D02*
X62114020Y9076000D01*
X56794400Y6959600D02*
X59997618Y6959600D01*
G04 #@! TO.N,/B*
X53340000Y3643086D02*
X53390800Y3693886D01*
X53340000Y2540000D02*
X53340000Y3643086D01*
X53390800Y6350000D02*
X54617190Y7576390D01*
X53390800Y3693886D02*
X53390800Y6350000D01*
X61664010Y27376992D02*
X55817802Y33223200D01*
X61664010Y9262400D02*
X61664010Y27376992D01*
X54617190Y7576390D02*
X59978001Y7576391D01*
X59978001Y7576391D02*
X61664010Y9262400D01*
X54356000Y33223200D02*
X52984400Y31851600D01*
X55817802Y33223200D02*
X54356000Y33223200D01*
G04 #@! TO.N,/A*
X50800000Y2540000D02*
X50800000Y5638800D01*
X50800000Y5638800D02*
X53187600Y8026400D01*
X53187600Y8026400D02*
X59791600Y8026400D01*
X59791600Y8026400D02*
X61214000Y9448800D01*
X61214000Y26162000D02*
X55524400Y31851600D01*
X61214000Y9448800D02*
X61214000Y26162000D01*
D19*
G04 #@! TO.N,+12V*
X44094400Y914400D02*
X45720000Y2540000D01*
X20929600Y914400D02*
X44094400Y914400D01*
X15494000Y6350000D02*
X15595600Y6248400D01*
X11977970Y6350000D02*
X15494000Y6350000D01*
X3860800Y14467170D02*
X11977970Y6350000D01*
X3860800Y15544800D02*
X3860800Y14467170D01*
X15595600Y6248400D02*
X20929600Y914400D01*
D18*
G04 #@! TO.N,/5V*
X38100000Y10160000D02*
X38100000Y9028630D01*
X38100000Y9028630D02*
X38100000Y6096000D01*
X38100000Y6096000D02*
X38100000Y2540000D01*
G04 #@! TO.N,/3.3V*
X35560000Y5435600D02*
X35560000Y2540000D01*
X35560000Y10160000D02*
X35560000Y5435600D01*
G04 #@! TO.N,/RESET*
X33020000Y2540000D02*
X33020000Y10160000D01*
G04 #@! TO.N,/IOREF*
X30480000Y2540000D02*
X30480000Y10160000D01*
G04 #@! TD*
D20*
G04 #@! TO.N,+5V*
G36*
X13550229Y52553838D02*
X13175707Y52179316D01*
X12805000Y51284352D01*
X12805000Y50315648D01*
X13175707Y49420684D01*
X13860684Y48735707D01*
X14755648Y48365000D01*
X15724352Y48365000D01*
X16619316Y48735707D01*
X17304293Y49420684D01*
X17570020Y50062205D01*
X17596421Y49998467D01*
X17994467Y49600421D01*
X18514539Y49385000D01*
X19077461Y49385000D01*
X19597533Y49600421D01*
X19995579Y49998467D01*
X20066000Y50168478D01*
X20136421Y49998467D01*
X20534467Y49600421D01*
X21054539Y49385000D01*
X21617461Y49385000D01*
X22137533Y49600421D01*
X22535579Y49998467D01*
X22606000Y50168478D01*
X22676421Y49998467D01*
X23074467Y49600421D01*
X23594539Y49385000D01*
X24157461Y49385000D01*
X24677533Y49600421D01*
X25075579Y49998467D01*
X25146000Y50168478D01*
X25216421Y49998467D01*
X25614467Y49600421D01*
X26134539Y49385000D01*
X26697461Y49385000D01*
X27217533Y49600421D01*
X27615579Y49998467D01*
X27686000Y50168478D01*
X27756421Y49998467D01*
X28154467Y49600421D01*
X28674539Y49385000D01*
X29237461Y49385000D01*
X29757533Y49600421D01*
X30155579Y49998467D01*
X30226000Y50168478D01*
X30296421Y49998467D01*
X30694467Y49600421D01*
X31214539Y49385000D01*
X31777461Y49385000D01*
X32297533Y49600421D01*
X32695579Y49998467D01*
X32766000Y50168478D01*
X32836421Y49998467D01*
X33234467Y49600421D01*
X33754539Y49385000D01*
X34317461Y49385000D01*
X34837533Y49600421D01*
X35235579Y49998467D01*
X35306000Y50168478D01*
X35376421Y49998467D01*
X35774467Y49600421D01*
X36294539Y49385000D01*
X36857461Y49385000D01*
X37377533Y49600421D01*
X37775579Y49998467D01*
X37846000Y50168478D01*
X37916421Y49998467D01*
X38314467Y49600421D01*
X38834539Y49385000D01*
X39397461Y49385000D01*
X39917533Y49600421D01*
X40315579Y49998467D01*
X40386000Y50168478D01*
X40456421Y49998467D01*
X40854467Y49600421D01*
X41374539Y49385000D01*
X41937461Y49385000D01*
X42457533Y49600421D01*
X42855579Y49998467D01*
X43071000Y50518539D01*
X43071000Y51081461D01*
X42855579Y51601533D01*
X42457533Y51999579D01*
X41937461Y52215000D01*
X41374539Y52215000D01*
X40854467Y51999579D01*
X40456421Y51601533D01*
X40386000Y51431522D01*
X40315579Y51601533D01*
X39917533Y51999579D01*
X39397461Y52215000D01*
X38834539Y52215000D01*
X38314467Y51999579D01*
X37916421Y51601533D01*
X37846000Y51431522D01*
X37775579Y51601533D01*
X37377533Y51999579D01*
X36857461Y52215000D01*
X36294539Y52215000D01*
X35774467Y51999579D01*
X35376421Y51601533D01*
X35306000Y51431522D01*
X35235579Y51601533D01*
X34837533Y51999579D01*
X34317461Y52215000D01*
X33754539Y52215000D01*
X33234467Y51999579D01*
X32836421Y51601533D01*
X32766000Y51431522D01*
X32695579Y51601533D01*
X32297533Y51999579D01*
X31777461Y52215000D01*
X31214539Y52215000D01*
X30694467Y51999579D01*
X30296421Y51601533D01*
X30226000Y51431522D01*
X30155579Y51601533D01*
X29757533Y51999579D01*
X29237461Y52215000D01*
X28674539Y52215000D01*
X28154467Y51999579D01*
X27756421Y51601533D01*
X27686000Y51431522D01*
X27615579Y51601533D01*
X27217533Y51999579D01*
X26697461Y52215000D01*
X26134539Y52215000D01*
X25614467Y51999579D01*
X25216421Y51601533D01*
X25146000Y51431522D01*
X25075579Y51601533D01*
X24677533Y51999579D01*
X24157461Y52215000D01*
X23594539Y52215000D01*
X23074467Y51999579D01*
X22676421Y51601533D01*
X22606000Y51431522D01*
X22535579Y51601533D01*
X22137533Y51999579D01*
X21617461Y52215000D01*
X21054539Y52215000D01*
X20534467Y51999579D01*
X20136421Y51601533D01*
X20066000Y51431522D01*
X19995579Y51601533D01*
X19597533Y51999579D01*
X19077461Y52215000D01*
X18514539Y52215000D01*
X17994467Y51999579D01*
X17596421Y51601533D01*
X17570020Y51537795D01*
X17304293Y52179316D01*
X16933088Y52550521D01*
X65132252Y52503267D01*
X65330000Y52325293D01*
X65330001Y40455929D01*
X65316091Y40386000D01*
X65358673Y40171929D01*
X65371196Y40108972D01*
X65528120Y39874119D01*
X65587402Y39834508D01*
X67870000Y37551909D01*
X67870000Y37173609D01*
X67419316Y37624293D01*
X66524352Y37995000D01*
X65555648Y37995000D01*
X64660684Y37624293D01*
X63975707Y36939316D01*
X63605000Y36044352D01*
X63605000Y35075648D01*
X63975707Y34180684D01*
X64660684Y33495707D01*
X65555648Y33125000D01*
X66524352Y33125000D01*
X67419316Y33495707D01*
X67870000Y33946391D01*
X67870001Y9233608D01*
X67419316Y9684293D01*
X66524352Y10055000D01*
X65555648Y10055000D01*
X64660684Y9684293D01*
X63975707Y8999316D01*
X63605000Y8104352D01*
X63605000Y7135648D01*
X63975707Y6240684D01*
X64660684Y5555707D01*
X65555648Y5185000D01*
X66524352Y5185000D01*
X67419316Y5555707D01*
X67870001Y6006392D01*
X67870001Y5374092D01*
X65587402Y3091492D01*
X65528119Y3051880D01*
X65371195Y2817027D01*
X65330000Y2609926D01*
X65316091Y2540000D01*
X65330000Y2470075D01*
X65330001Y887707D01*
X65132549Y710000D01*
X45141578Y710000D01*
X45556579Y1125000D01*
X46001461Y1125000D01*
X46521533Y1340421D01*
X46919579Y1738467D01*
X47135000Y2258539D01*
X47135000Y2821461D01*
X46919579Y3341533D01*
X46521533Y3739579D01*
X46001461Y3955000D01*
X45438539Y3955000D01*
X44918467Y3739579D01*
X44520421Y3341533D01*
X44450000Y3171522D01*
X44379579Y3341533D01*
X43981533Y3739579D01*
X43940000Y3756783D01*
X43940000Y6035199D01*
X45399802Y7495000D01*
X50788653Y7495000D01*
X50863500Y7480112D01*
X50938347Y7495000D01*
X50938352Y7495000D01*
X51160037Y7539096D01*
X51411429Y7707071D01*
X51453831Y7770530D01*
X51919473Y8236171D01*
X51982929Y8278571D01*
X52150904Y8529963D01*
X52195000Y8751648D01*
X52195000Y8751652D01*
X52209888Y8826499D01*
X52195000Y8901346D01*
X52195000Y8921570D01*
X52247862Y8943466D01*
X52651534Y9347138D01*
X52705000Y9476216D01*
X52758466Y9347138D01*
X53162138Y8943466D01*
X53541328Y8786400D01*
X53262446Y8786400D01*
X53187599Y8801288D01*
X53112752Y8786400D01*
X53112748Y8786400D01*
X52891063Y8742304D01*
X52865166Y8725000D01*
X52703126Y8616729D01*
X52703124Y8616727D01*
X52639671Y8574329D01*
X52597273Y8510876D01*
X50315528Y6229129D01*
X50252072Y6186729D01*
X50209672Y6123273D01*
X50209671Y6123272D01*
X50084097Y5935337D01*
X50025112Y5638800D01*
X50040001Y5563948D01*
X50040000Y3756783D01*
X49998467Y3739579D01*
X49600421Y3341533D01*
X49385000Y2821461D01*
X49385000Y2258539D01*
X49600421Y1738467D01*
X49998467Y1340421D01*
X50518539Y1125000D01*
X51081461Y1125000D01*
X51601533Y1340421D01*
X51999579Y1738467D01*
X52070000Y1908478D01*
X52140421Y1738467D01*
X52538467Y1340421D01*
X53058539Y1125000D01*
X53621461Y1125000D01*
X54141533Y1340421D01*
X54539579Y1738467D01*
X54610000Y1908478D01*
X54680421Y1738467D01*
X55078467Y1340421D01*
X55598539Y1125000D01*
X56161461Y1125000D01*
X56681533Y1340421D01*
X57079579Y1738467D01*
X57150000Y1908478D01*
X57220421Y1738467D01*
X57618467Y1340421D01*
X58138539Y1125000D01*
X58701461Y1125000D01*
X59221533Y1340421D01*
X59619579Y1738467D01*
X59690000Y1908478D01*
X59760421Y1738467D01*
X60158467Y1340421D01*
X60678539Y1125000D01*
X61241461Y1125000D01*
X61761533Y1340421D01*
X62159579Y1738467D01*
X62230000Y1908478D01*
X62300421Y1738467D01*
X62698467Y1340421D01*
X63218539Y1125000D01*
X63781461Y1125000D01*
X64301533Y1340421D01*
X64699579Y1738467D01*
X64915000Y2258539D01*
X64915000Y2821461D01*
X64699579Y3341533D01*
X64301533Y3739579D01*
X63781461Y3955000D01*
X63218539Y3955000D01*
X62698467Y3739579D01*
X62300421Y3341533D01*
X62230000Y3171522D01*
X62159579Y3341533D01*
X61761533Y3739579D01*
X61241461Y3955000D01*
X60678539Y3955000D01*
X60158467Y3739579D01*
X59760421Y3341533D01*
X59690000Y3171522D01*
X59619579Y3341533D01*
X59221533Y3739579D01*
X58701461Y3955000D01*
X58138539Y3955000D01*
X57618467Y3739579D01*
X57220421Y3341533D01*
X57150000Y3171522D01*
X57079579Y3341533D01*
X56681533Y3739579D01*
X56640000Y3756783D01*
X56640000Y5730399D01*
X57109202Y6199600D01*
X59922771Y6199600D01*
X59997618Y6184712D01*
X60072466Y6199600D01*
X60072470Y6199600D01*
X60294155Y6243696D01*
X60545547Y6411671D01*
X60587949Y6475129D01*
X62598496Y8485673D01*
X62661949Y8528071D01*
X62704347Y8591524D01*
X62704349Y8591526D01*
X62805095Y8742304D01*
X62829924Y8779463D01*
X62874020Y9001148D01*
X62874020Y9001152D01*
X62888908Y9075999D01*
X62874020Y9150847D01*
X62874020Y27727132D01*
X62888908Y27801980D01*
X62874020Y27876828D01*
X62874020Y27876832D01*
X62829924Y28098517D01*
X62661949Y28349909D01*
X62598493Y28392309D01*
X56937503Y34053298D01*
X56959400Y34106161D01*
X56959400Y34677039D01*
X56740934Y35204462D01*
X56337262Y35608134D01*
X56208184Y35661600D01*
X56337262Y35715066D01*
X56740934Y36118738D01*
X56959400Y36646161D01*
X56959400Y37217039D01*
X56740934Y37744462D01*
X56337262Y38148134D01*
X56208184Y38201600D01*
X56337262Y38255066D01*
X56740934Y38658738D01*
X56959400Y39186161D01*
X56959400Y39757039D01*
X56740934Y40284462D01*
X56337262Y40688134D01*
X55809839Y40906600D01*
X55238961Y40906600D01*
X54711538Y40688134D01*
X54307866Y40284462D01*
X54254400Y40155384D01*
X54200934Y40284462D01*
X53797262Y40688134D01*
X53269839Y40906600D01*
X52698961Y40906600D01*
X52171538Y40688134D01*
X51767866Y40284462D01*
X51549400Y39757039D01*
X51549400Y39186161D01*
X51767866Y38658738D01*
X52171538Y38255066D01*
X52300616Y38201600D01*
X52171538Y38148134D01*
X51767866Y37744462D01*
X51549400Y37217039D01*
X51549400Y36646161D01*
X51767866Y36118738D01*
X52171538Y35715066D01*
X52300616Y35661600D01*
X52171538Y35608134D01*
X51767866Y35204462D01*
X51549400Y34677039D01*
X51549400Y34106161D01*
X51767866Y33578738D01*
X52171538Y33175066D01*
X52300616Y33121600D01*
X52171538Y33068134D01*
X51767866Y32664462D01*
X51549400Y32137039D01*
X51549400Y31566161D01*
X51767866Y31038738D01*
X52171538Y30635066D01*
X52300616Y30581600D01*
X52171538Y30528134D01*
X51767866Y30124462D01*
X51549400Y29597039D01*
X51549400Y29026161D01*
X51767866Y28498738D01*
X52171538Y28095066D01*
X52300616Y28041600D01*
X52171538Y27988134D01*
X51846703Y27663299D01*
X49324800Y30185201D01*
X49324800Y43543089D01*
X49442231Y43660520D01*
X49599800Y44040926D01*
X49599800Y44452674D01*
X49442231Y44833080D01*
X49151080Y45124231D01*
X48770674Y45281800D01*
X48358926Y45281800D01*
X47978520Y45124231D01*
X47687369Y44833080D01*
X47529800Y44452674D01*
X47529800Y44040926D01*
X47687369Y43660520D01*
X47804800Y43543089D01*
X47804801Y29945252D01*
X47789912Y29870400D01*
X47804801Y29795548D01*
X47848897Y29573863D01*
X48016872Y29322471D01*
X48080328Y29280071D01*
X51073271Y26287127D01*
X51115671Y26223671D01*
X51367063Y26055696D01*
X51588748Y26011600D01*
X51588753Y26011600D01*
X51663600Y25996712D01*
X51738447Y26011600D01*
X51745970Y26011600D01*
X51767866Y25958738D01*
X52171538Y25555066D01*
X52300616Y25501600D01*
X52171538Y25448134D01*
X51767866Y25044462D01*
X51549400Y24517039D01*
X51549400Y23946161D01*
X51767866Y23418738D01*
X52171538Y23015066D01*
X52300616Y22961600D01*
X52171538Y22908134D01*
X51767866Y22504462D01*
X51549400Y21977039D01*
X51549400Y21406161D01*
X51767866Y20878738D01*
X52171538Y20475066D01*
X52698961Y20256600D01*
X53269839Y20256600D01*
X53797262Y20475066D01*
X54200934Y20878738D01*
X54254400Y21007816D01*
X54307866Y20878738D01*
X54711538Y20475066D01*
X55238961Y20256600D01*
X55809839Y20256600D01*
X56337262Y20475066D01*
X56740934Y20878738D01*
X56959400Y21406161D01*
X56959400Y21977039D01*
X56740934Y22504462D01*
X56337262Y22908134D01*
X56208184Y22961600D01*
X56337262Y23015066D01*
X56740934Y23418738D01*
X56959400Y23946161D01*
X56959400Y24517039D01*
X56740934Y25044462D01*
X56337262Y25448134D01*
X56208184Y25501600D01*
X56337262Y25555066D01*
X56740934Y25958738D01*
X56959400Y26486161D01*
X56959400Y27057039D01*
X56740934Y27584462D01*
X56337262Y27988134D01*
X56208184Y28041600D01*
X56337262Y28095066D01*
X56740934Y28498738D01*
X56959400Y29026161D01*
X56959400Y29341798D01*
X60454001Y25847196D01*
X60454000Y11203526D01*
X60453157Y11207765D01*
X60312809Y11417809D01*
X60102765Y11558157D01*
X59855000Y11607440D01*
X58255000Y11607440D01*
X58007235Y11558157D01*
X57797191Y11417809D01*
X57656843Y11207765D01*
X57630262Y11074134D01*
X57327862Y11376534D01*
X56800439Y11595000D01*
X56229561Y11595000D01*
X55702138Y11376534D01*
X55298466Y10972862D01*
X55245000Y10843784D01*
X55191534Y10972862D01*
X54787862Y11376534D01*
X54260439Y11595000D01*
X53689561Y11595000D01*
X53162138Y11376534D01*
X52758466Y10972862D01*
X52705000Y10843784D01*
X52651534Y10972862D01*
X52247862Y11376534D01*
X51720439Y11595000D01*
X51149561Y11595000D01*
X50622138Y11376534D01*
X50218466Y10972862D01*
X50165000Y10843784D01*
X50111534Y10972862D01*
X49707862Y11376534D01*
X49180439Y11595000D01*
X48609561Y11595000D01*
X48082138Y11376534D01*
X47678466Y10972862D01*
X47625000Y10843784D01*
X47571534Y10972862D01*
X47167862Y11376534D01*
X46640439Y11595000D01*
X46069561Y11595000D01*
X45542138Y11376534D01*
X45138466Y10972862D01*
X44920000Y10445439D01*
X44920000Y9874561D01*
X45138466Y9347138D01*
X45470604Y9015000D01*
X45159848Y9015000D01*
X45085000Y9029888D01*
X45010152Y9015000D01*
X45010148Y9015000D01*
X44836605Y8980480D01*
X44788462Y8970904D01*
X44683651Y8900871D01*
X44537071Y8802929D01*
X44494671Y8739473D01*
X42695528Y6940329D01*
X42632072Y6897929D01*
X42589672Y6834473D01*
X42589671Y6834472D01*
X42464097Y6646537D01*
X42405112Y6350000D01*
X42420001Y6275148D01*
X42420000Y3756783D01*
X42378467Y3739579D01*
X41980421Y3341533D01*
X41963217Y3300000D01*
X41856783Y3300000D01*
X41839579Y3341533D01*
X41441533Y3739579D01*
X41400000Y3756783D01*
X41400000Y8921570D01*
X41452862Y8943466D01*
X41856534Y9347138D01*
X41910000Y9476216D01*
X41963466Y9347138D01*
X42367138Y8943466D01*
X42894561Y8725000D01*
X43465439Y8725000D01*
X43992862Y8943466D01*
X44396534Y9347138D01*
X44615000Y9874561D01*
X44615000Y10445439D01*
X44396534Y10972862D01*
X43992862Y11376534D01*
X43465439Y11595000D01*
X42894561Y11595000D01*
X42367138Y11376534D01*
X41963466Y10972862D01*
X41910000Y10843784D01*
X41856534Y10972862D01*
X41452862Y11376534D01*
X40925439Y11595000D01*
X40354561Y11595000D01*
X39827138Y11376534D01*
X39423466Y10972862D01*
X39370000Y10843784D01*
X39316534Y10972862D01*
X38912862Y11376534D01*
X38385439Y11595000D01*
X37814561Y11595000D01*
X37287138Y11376534D01*
X36883466Y10972862D01*
X36830000Y10843784D01*
X36776534Y10972862D01*
X36372862Y11376534D01*
X35845439Y11595000D01*
X35274561Y11595000D01*
X34747138Y11376534D01*
X34343466Y10972862D01*
X34290000Y10843784D01*
X34236534Y10972862D01*
X33832862Y11376534D01*
X33305439Y11595000D01*
X32734561Y11595000D01*
X32207138Y11376534D01*
X31904738Y11074134D01*
X31878157Y11207765D01*
X31737809Y11417809D01*
X31527765Y11558157D01*
X31280000Y11607440D01*
X29680000Y11607440D01*
X29432235Y11558157D01*
X29222191Y11417809D01*
X29081843Y11207765D01*
X29032560Y10960000D01*
X29032560Y9360000D01*
X29081843Y9112235D01*
X29222191Y8902191D01*
X29432235Y8761843D01*
X29680000Y8712560D01*
X29720001Y8712560D01*
X29720000Y3756783D01*
X29678467Y3739579D01*
X29280421Y3341533D01*
X29210000Y3171522D01*
X29139579Y3341533D01*
X28741533Y3739579D01*
X28221461Y3955000D01*
X27658539Y3955000D01*
X27138467Y3739579D01*
X26740421Y3341533D01*
X26525000Y2821461D01*
X26525000Y2258539D01*
X26715182Y1799400D01*
X21296179Y1799400D01*
X16181425Y6914153D01*
X16132049Y6988049D01*
X15839310Y7183652D01*
X15581165Y7235000D01*
X15581161Y7235000D01*
X15494000Y7252337D01*
X15406839Y7235000D01*
X12344549Y7235000D01*
X4935603Y14643946D01*
X5045120Y14753463D01*
X5257800Y15266919D01*
X5257800Y15822681D01*
X5045120Y16336137D01*
X4652137Y16729120D01*
X4387089Y16838906D01*
X3860800Y17365195D01*
X3334511Y16838906D01*
X3069463Y16729120D01*
X2676480Y16336137D01*
X2463800Y15822681D01*
X2463800Y15266919D01*
X2676480Y14753463D01*
X2959178Y14470765D01*
X2958463Y14467170D01*
X3027148Y14121861D01*
X3173376Y13903016D01*
X3173378Y13903014D01*
X3222752Y13829121D01*
X3296645Y13779747D01*
X11290547Y5785844D01*
X11339921Y5711951D01*
X11413814Y5662577D01*
X11413815Y5662576D01*
X11491975Y5610351D01*
X11632660Y5516348D01*
X11890805Y5465000D01*
X11890809Y5465000D01*
X11977970Y5447663D01*
X12065131Y5465000D01*
X15127422Y5465000D01*
X19882421Y710000D01*
X15583609Y710000D01*
X16034293Y1160684D01*
X16405000Y2055648D01*
X16405000Y3024352D01*
X16034293Y3919316D01*
X15349316Y4604293D01*
X14454352Y4975000D01*
X13485648Y4975000D01*
X12590684Y4604293D01*
X11905707Y3919316D01*
X11535000Y3024352D01*
X11535000Y2055648D01*
X11905707Y1160684D01*
X12356391Y710000D01*
X929091Y710000D01*
X710000Y929091D01*
X710000Y17752498D01*
X2451656Y17752498D01*
X2479438Y17197432D01*
X2638403Y16813657D01*
X2880587Y16744192D01*
X3681195Y17544800D01*
X4040405Y17544800D01*
X4841013Y16744192D01*
X5083197Y16813657D01*
X5269944Y17337102D01*
X5242162Y17892168D01*
X5083197Y18275943D01*
X4841013Y18345408D01*
X4040405Y17544800D01*
X3681195Y17544800D01*
X2880587Y18345408D01*
X2638403Y18275943D01*
X2451656Y17752498D01*
X710000Y17752498D01*
X710000Y25822681D01*
X2463800Y25822681D01*
X2463800Y25266919D01*
X2676480Y24753463D01*
X2885143Y24544800D01*
X2676480Y24336137D01*
X2463800Y23822681D01*
X2463800Y23266919D01*
X2676480Y22753463D01*
X2885143Y22544800D01*
X2676480Y22336137D01*
X2463800Y21822681D01*
X2463800Y21266919D01*
X2676480Y20753463D01*
X2885143Y20544800D01*
X2676480Y20336137D01*
X2463800Y19822681D01*
X2463800Y19266919D01*
X2676480Y18753463D01*
X3069463Y18360480D01*
X3334511Y18250694D01*
X3860800Y17724405D01*
X4387089Y18250694D01*
X4652137Y18360480D01*
X4951457Y18659800D01*
X8999022Y18659800D01*
X11830600Y15828221D01*
X11830600Y15239470D01*
X12064290Y14675293D01*
X12496093Y14243490D01*
X13060270Y14009800D01*
X13670930Y14009800D01*
X14235107Y14243490D01*
X14666910Y14675293D01*
X14900600Y15239470D01*
X14900600Y15259050D01*
X15330600Y15259050D01*
X15330600Y14518490D01*
X15427273Y14285101D01*
X15605902Y14106473D01*
X15839291Y14009800D01*
X16579850Y14009800D01*
X16738600Y14168550D01*
X16738600Y15417800D01*
X16992600Y15417800D01*
X16992600Y14168550D01*
X17151350Y14009800D01*
X17891909Y14009800D01*
X18125298Y14106473D01*
X18303927Y14285101D01*
X18400600Y14518490D01*
X18400600Y15259050D01*
X18241850Y15417800D01*
X16992600Y15417800D01*
X16738600Y15417800D01*
X15489350Y15417800D01*
X15330600Y15259050D01*
X14900600Y15259050D01*
X14900600Y15850130D01*
X14666910Y16414307D01*
X14510107Y16571110D01*
X15330600Y16571110D01*
X15330600Y15830550D01*
X15489350Y15671800D01*
X16738600Y15671800D01*
X16738600Y16921050D01*
X16992600Y16921050D01*
X16992600Y15671800D01*
X18241850Y15671800D01*
X18400600Y15830550D01*
X18400600Y16571110D01*
X18303927Y16804499D01*
X18125298Y16983127D01*
X17891909Y17079800D01*
X17151350Y17079800D01*
X16992600Y16921050D01*
X16738600Y16921050D01*
X16579850Y17079800D01*
X15839291Y17079800D01*
X15605902Y16983127D01*
X15427273Y16804499D01*
X15330600Y16571110D01*
X14510107Y16571110D01*
X14235107Y16846110D01*
X13670930Y17079800D01*
X13082179Y17079800D01*
X10053025Y20108953D01*
X10003649Y20182849D01*
X9710910Y20378452D01*
X9452765Y20429800D01*
X9452761Y20429800D01*
X9365600Y20447137D01*
X9278439Y20429800D01*
X4951457Y20429800D01*
X4836457Y20544800D01*
X5045120Y20753463D01*
X5257800Y21266919D01*
X5257800Y21822681D01*
X5244820Y21854018D01*
X10695273Y27304471D01*
X10758729Y27346871D01*
X10926704Y27598263D01*
X10970800Y27819948D01*
X10970800Y27819952D01*
X10985688Y27894799D01*
X10970800Y27969646D01*
X10970800Y38547199D01*
X13349040Y40925439D01*
X19901000Y40925439D01*
X19901000Y40354561D01*
X20119466Y39827138D01*
X20523138Y39423466D01*
X21050561Y39205000D01*
X21621439Y39205000D01*
X22148862Y39423466D01*
X22552534Y39827138D01*
X22606000Y39956216D01*
X22659466Y39827138D01*
X23063138Y39423466D01*
X23590561Y39205000D01*
X24161439Y39205000D01*
X24688862Y39423466D01*
X25092534Y39827138D01*
X25146000Y39956216D01*
X25199466Y39827138D01*
X25603138Y39423466D01*
X26130561Y39205000D01*
X26701439Y39205000D01*
X27228862Y39423466D01*
X27632534Y39827138D01*
X27686000Y39956216D01*
X27739466Y39827138D01*
X28143138Y39423466D01*
X28670561Y39205000D01*
X29241439Y39205000D01*
X29768862Y39423466D01*
X30172534Y39827138D01*
X30226000Y39956216D01*
X30279466Y39827138D01*
X30683138Y39423466D01*
X31210561Y39205000D01*
X31781439Y39205000D01*
X32308862Y39423466D01*
X32611262Y39725866D01*
X32637843Y39592235D01*
X32778191Y39382191D01*
X32988235Y39241843D01*
X33236000Y39192560D01*
X34836000Y39192560D01*
X35083765Y39241843D01*
X35293809Y39382191D01*
X35434157Y39592235D01*
X35483440Y39840000D01*
X35483440Y41440000D01*
X35434157Y41687765D01*
X35293809Y41897809D01*
X35083765Y42038157D01*
X34836000Y42087440D01*
X33236000Y42087440D01*
X32988235Y42038157D01*
X32778191Y41897809D01*
X32637843Y41687765D01*
X32611262Y41554134D01*
X32308862Y41856534D01*
X31781439Y42075000D01*
X31210561Y42075000D01*
X30683138Y41856534D01*
X30279466Y41452862D01*
X30226000Y41323784D01*
X30172534Y41452862D01*
X29768862Y41856534D01*
X29241439Y42075000D01*
X28670561Y42075000D01*
X28143138Y41856534D01*
X27739466Y41452862D01*
X27686000Y41323784D01*
X27632534Y41452862D01*
X27228862Y41856534D01*
X26701439Y42075000D01*
X26130561Y42075000D01*
X25603138Y41856534D01*
X25199466Y41452862D01*
X25146000Y41323784D01*
X25092534Y41452862D01*
X24688862Y41856534D01*
X24161439Y42075000D01*
X23590561Y42075000D01*
X23063138Y41856534D01*
X22659466Y41452862D01*
X22606000Y41323784D01*
X22552534Y41452862D01*
X22148862Y41856534D01*
X21621439Y42075000D01*
X21050561Y42075000D01*
X20523138Y41856534D01*
X20119466Y41452862D01*
X19901000Y40925439D01*
X13349040Y40925439D01*
X19212403Y46788800D01*
X60173953Y46788800D01*
X60248800Y46773912D01*
X60323647Y46788800D01*
X60323652Y46788800D01*
X60545337Y46832896D01*
X60796729Y47000871D01*
X60839131Y47064330D01*
X63177005Y49402204D01*
X63218539Y49385000D01*
X63781461Y49385000D01*
X64301533Y49600421D01*
X64699579Y49998467D01*
X64915000Y50518539D01*
X64915000Y51081461D01*
X64699579Y51601533D01*
X64301533Y51999579D01*
X63781461Y52215000D01*
X63218539Y52215000D01*
X62698467Y51999579D01*
X62300421Y51601533D01*
X62230000Y51431522D01*
X62159579Y51601533D01*
X61761533Y51999579D01*
X61241461Y52215000D01*
X60678539Y52215000D01*
X60158467Y51999579D01*
X59760421Y51601533D01*
X59690000Y51431522D01*
X59619579Y51601533D01*
X59221533Y51999579D01*
X58701461Y52215000D01*
X58138539Y52215000D01*
X57618467Y51999579D01*
X57220421Y51601533D01*
X57150000Y51431522D01*
X57079579Y51601533D01*
X56681533Y51999579D01*
X56161461Y52215000D01*
X55598539Y52215000D01*
X55078467Y51999579D01*
X54680421Y51601533D01*
X54610000Y51431522D01*
X54539579Y51601533D01*
X54141533Y51999579D01*
X53621461Y52215000D01*
X53058539Y52215000D01*
X52538467Y51999579D01*
X52140421Y51601533D01*
X52070000Y51431522D01*
X51999579Y51601533D01*
X51601533Y51999579D01*
X51081461Y52215000D01*
X50518539Y52215000D01*
X49998467Y51999579D01*
X49600421Y51601533D01*
X49530000Y51431522D01*
X49459579Y51601533D01*
X49061533Y51999579D01*
X48541461Y52215000D01*
X47978539Y52215000D01*
X47458467Y51999579D01*
X47060421Y51601533D01*
X46990000Y51431522D01*
X46919579Y51601533D01*
X46521533Y51999579D01*
X46001461Y52215000D01*
X45438539Y52215000D01*
X44918467Y51999579D01*
X44520421Y51601533D01*
X44305000Y51081461D01*
X44305000Y50518539D01*
X44520421Y49998467D01*
X44918467Y49600421D01*
X45438539Y49385000D01*
X46001461Y49385000D01*
X46521533Y49600421D01*
X46919579Y49998467D01*
X46990000Y50168478D01*
X47060421Y49998467D01*
X47458467Y49600421D01*
X47978539Y49385000D01*
X48541461Y49385000D01*
X49061533Y49600421D01*
X49459579Y49998467D01*
X49530000Y50168478D01*
X49600421Y49998467D01*
X49998467Y49600421D01*
X50518539Y49385000D01*
X51081461Y49385000D01*
X51601533Y49600421D01*
X51999579Y49998467D01*
X52070000Y50168478D01*
X52140421Y49998467D01*
X52538467Y49600421D01*
X53058539Y49385000D01*
X53621461Y49385000D01*
X54141533Y49600421D01*
X54539579Y49998467D01*
X54610000Y50168478D01*
X54680421Y49998467D01*
X55078467Y49600421D01*
X55598539Y49385000D01*
X56161461Y49385000D01*
X56681533Y49600421D01*
X57079579Y49998467D01*
X57150000Y50168478D01*
X57220421Y49998467D01*
X57618467Y49600421D01*
X58138539Y49385000D01*
X58470199Y49385000D01*
X58257599Y49172400D01*
X18362846Y49172400D01*
X18287999Y49187288D01*
X18213152Y49172400D01*
X18213148Y49172400D01*
X17991463Y49128304D01*
X17991461Y49128303D01*
X17991462Y49128303D01*
X17803526Y49002729D01*
X17803524Y49002727D01*
X17740071Y48960329D01*
X17697673Y48896876D01*
X9015130Y40214331D01*
X8951671Y40171929D01*
X8783696Y39920536D01*
X8739600Y39698851D01*
X8739600Y39698847D01*
X8724712Y39624000D01*
X8739600Y39549153D01*
X8739601Y29498404D01*
X5201002Y25959804D01*
X5045120Y26336137D01*
X4652137Y26729120D01*
X4138681Y26941800D01*
X3582919Y26941800D01*
X3069463Y26729120D01*
X2676480Y26336137D01*
X2463800Y25822681D01*
X710000Y25822681D01*
X710000Y52388794D01*
X907155Y52566233D01*
X13550229Y52553838D01*
X13550229Y52553838D01*
G37*
X13550229Y52553838D02*
X13175707Y52179316D01*
X12805000Y51284352D01*
X12805000Y50315648D01*
X13175707Y49420684D01*
X13860684Y48735707D01*
X14755648Y48365000D01*
X15724352Y48365000D01*
X16619316Y48735707D01*
X17304293Y49420684D01*
X17570020Y50062205D01*
X17596421Y49998467D01*
X17994467Y49600421D01*
X18514539Y49385000D01*
X19077461Y49385000D01*
X19597533Y49600421D01*
X19995579Y49998467D01*
X20066000Y50168478D01*
X20136421Y49998467D01*
X20534467Y49600421D01*
X21054539Y49385000D01*
X21617461Y49385000D01*
X22137533Y49600421D01*
X22535579Y49998467D01*
X22606000Y50168478D01*
X22676421Y49998467D01*
X23074467Y49600421D01*
X23594539Y49385000D01*
X24157461Y49385000D01*
X24677533Y49600421D01*
X25075579Y49998467D01*
X25146000Y50168478D01*
X25216421Y49998467D01*
X25614467Y49600421D01*
X26134539Y49385000D01*
X26697461Y49385000D01*
X27217533Y49600421D01*
X27615579Y49998467D01*
X27686000Y50168478D01*
X27756421Y49998467D01*
X28154467Y49600421D01*
X28674539Y49385000D01*
X29237461Y49385000D01*
X29757533Y49600421D01*
X30155579Y49998467D01*
X30226000Y50168478D01*
X30296421Y49998467D01*
X30694467Y49600421D01*
X31214539Y49385000D01*
X31777461Y49385000D01*
X32297533Y49600421D01*
X32695579Y49998467D01*
X32766000Y50168478D01*
X32836421Y49998467D01*
X33234467Y49600421D01*
X33754539Y49385000D01*
X34317461Y49385000D01*
X34837533Y49600421D01*
X35235579Y49998467D01*
X35306000Y50168478D01*
X35376421Y49998467D01*
X35774467Y49600421D01*
X36294539Y49385000D01*
X36857461Y49385000D01*
X37377533Y49600421D01*
X37775579Y49998467D01*
X37846000Y50168478D01*
X37916421Y49998467D01*
X38314467Y49600421D01*
X38834539Y49385000D01*
X39397461Y49385000D01*
X39917533Y49600421D01*
X40315579Y49998467D01*
X40386000Y50168478D01*
X40456421Y49998467D01*
X40854467Y49600421D01*
X41374539Y49385000D01*
X41937461Y49385000D01*
X42457533Y49600421D01*
X42855579Y49998467D01*
X43071000Y50518539D01*
X43071000Y51081461D01*
X42855579Y51601533D01*
X42457533Y51999579D01*
X41937461Y52215000D01*
X41374539Y52215000D01*
X40854467Y51999579D01*
X40456421Y51601533D01*
X40386000Y51431522D01*
X40315579Y51601533D01*
X39917533Y51999579D01*
X39397461Y52215000D01*
X38834539Y52215000D01*
X38314467Y51999579D01*
X37916421Y51601533D01*
X37846000Y51431522D01*
X37775579Y51601533D01*
X37377533Y51999579D01*
X36857461Y52215000D01*
X36294539Y52215000D01*
X35774467Y51999579D01*
X35376421Y51601533D01*
X35306000Y51431522D01*
X35235579Y51601533D01*
X34837533Y51999579D01*
X34317461Y52215000D01*
X33754539Y52215000D01*
X33234467Y51999579D01*
X32836421Y51601533D01*
X32766000Y51431522D01*
X32695579Y51601533D01*
X32297533Y51999579D01*
X31777461Y52215000D01*
X31214539Y52215000D01*
X30694467Y51999579D01*
X30296421Y51601533D01*
X30226000Y51431522D01*
X30155579Y51601533D01*
X29757533Y51999579D01*
X29237461Y52215000D01*
X28674539Y52215000D01*
X28154467Y51999579D01*
X27756421Y51601533D01*
X27686000Y51431522D01*
X27615579Y51601533D01*
X27217533Y51999579D01*
X26697461Y52215000D01*
X26134539Y52215000D01*
X25614467Y51999579D01*
X25216421Y51601533D01*
X25146000Y51431522D01*
X25075579Y51601533D01*
X24677533Y51999579D01*
X24157461Y52215000D01*
X23594539Y52215000D01*
X23074467Y51999579D01*
X22676421Y51601533D01*
X22606000Y51431522D01*
X22535579Y51601533D01*
X22137533Y51999579D01*
X21617461Y52215000D01*
X21054539Y52215000D01*
X20534467Y51999579D01*
X20136421Y51601533D01*
X20066000Y51431522D01*
X19995579Y51601533D01*
X19597533Y51999579D01*
X19077461Y52215000D01*
X18514539Y52215000D01*
X17994467Y51999579D01*
X17596421Y51601533D01*
X17570020Y51537795D01*
X17304293Y52179316D01*
X16933088Y52550521D01*
X65132252Y52503267D01*
X65330000Y52325293D01*
X65330001Y40455929D01*
X65316091Y40386000D01*
X65358673Y40171929D01*
X65371196Y40108972D01*
X65528120Y39874119D01*
X65587402Y39834508D01*
X67870000Y37551909D01*
X67870000Y37173609D01*
X67419316Y37624293D01*
X66524352Y37995000D01*
X65555648Y37995000D01*
X64660684Y37624293D01*
X63975707Y36939316D01*
X63605000Y36044352D01*
X63605000Y35075648D01*
X63975707Y34180684D01*
X64660684Y33495707D01*
X65555648Y33125000D01*
X66524352Y33125000D01*
X67419316Y33495707D01*
X67870000Y33946391D01*
X67870001Y9233608D01*
X67419316Y9684293D01*
X66524352Y10055000D01*
X65555648Y10055000D01*
X64660684Y9684293D01*
X63975707Y8999316D01*
X63605000Y8104352D01*
X63605000Y7135648D01*
X63975707Y6240684D01*
X64660684Y5555707D01*
X65555648Y5185000D01*
X66524352Y5185000D01*
X67419316Y5555707D01*
X67870001Y6006392D01*
X67870001Y5374092D01*
X65587402Y3091492D01*
X65528119Y3051880D01*
X65371195Y2817027D01*
X65330000Y2609926D01*
X65316091Y2540000D01*
X65330000Y2470075D01*
X65330001Y887707D01*
X65132549Y710000D01*
X45141578Y710000D01*
X45556579Y1125000D01*
X46001461Y1125000D01*
X46521533Y1340421D01*
X46919579Y1738467D01*
X47135000Y2258539D01*
X47135000Y2821461D01*
X46919579Y3341533D01*
X46521533Y3739579D01*
X46001461Y3955000D01*
X45438539Y3955000D01*
X44918467Y3739579D01*
X44520421Y3341533D01*
X44450000Y3171522D01*
X44379579Y3341533D01*
X43981533Y3739579D01*
X43940000Y3756783D01*
X43940000Y6035199D01*
X45399802Y7495000D01*
X50788653Y7495000D01*
X50863500Y7480112D01*
X50938347Y7495000D01*
X50938352Y7495000D01*
X51160037Y7539096D01*
X51411429Y7707071D01*
X51453831Y7770530D01*
X51919473Y8236171D01*
X51982929Y8278571D01*
X52150904Y8529963D01*
X52195000Y8751648D01*
X52195000Y8751652D01*
X52209888Y8826499D01*
X52195000Y8901346D01*
X52195000Y8921570D01*
X52247862Y8943466D01*
X52651534Y9347138D01*
X52705000Y9476216D01*
X52758466Y9347138D01*
X53162138Y8943466D01*
X53541328Y8786400D01*
X53262446Y8786400D01*
X53187599Y8801288D01*
X53112752Y8786400D01*
X53112748Y8786400D01*
X52891063Y8742304D01*
X52865166Y8725000D01*
X52703126Y8616729D01*
X52703124Y8616727D01*
X52639671Y8574329D01*
X52597273Y8510876D01*
X50315528Y6229129D01*
X50252072Y6186729D01*
X50209672Y6123273D01*
X50209671Y6123272D01*
X50084097Y5935337D01*
X50025112Y5638800D01*
X50040001Y5563948D01*
X50040000Y3756783D01*
X49998467Y3739579D01*
X49600421Y3341533D01*
X49385000Y2821461D01*
X49385000Y2258539D01*
X49600421Y1738467D01*
X49998467Y1340421D01*
X50518539Y1125000D01*
X51081461Y1125000D01*
X51601533Y1340421D01*
X51999579Y1738467D01*
X52070000Y1908478D01*
X52140421Y1738467D01*
X52538467Y1340421D01*
X53058539Y1125000D01*
X53621461Y1125000D01*
X54141533Y1340421D01*
X54539579Y1738467D01*
X54610000Y1908478D01*
X54680421Y1738467D01*
X55078467Y1340421D01*
X55598539Y1125000D01*
X56161461Y1125000D01*
X56681533Y1340421D01*
X57079579Y1738467D01*
X57150000Y1908478D01*
X57220421Y1738467D01*
X57618467Y1340421D01*
X58138539Y1125000D01*
X58701461Y1125000D01*
X59221533Y1340421D01*
X59619579Y1738467D01*
X59690000Y1908478D01*
X59760421Y1738467D01*
X60158467Y1340421D01*
X60678539Y1125000D01*
X61241461Y1125000D01*
X61761533Y1340421D01*
X62159579Y1738467D01*
X62230000Y1908478D01*
X62300421Y1738467D01*
X62698467Y1340421D01*
X63218539Y1125000D01*
X63781461Y1125000D01*
X64301533Y1340421D01*
X64699579Y1738467D01*
X64915000Y2258539D01*
X64915000Y2821461D01*
X64699579Y3341533D01*
X64301533Y3739579D01*
X63781461Y3955000D01*
X63218539Y3955000D01*
X62698467Y3739579D01*
X62300421Y3341533D01*
X62230000Y3171522D01*
X62159579Y3341533D01*
X61761533Y3739579D01*
X61241461Y3955000D01*
X60678539Y3955000D01*
X60158467Y3739579D01*
X59760421Y3341533D01*
X59690000Y3171522D01*
X59619579Y3341533D01*
X59221533Y3739579D01*
X58701461Y3955000D01*
X58138539Y3955000D01*
X57618467Y3739579D01*
X57220421Y3341533D01*
X57150000Y3171522D01*
X57079579Y3341533D01*
X56681533Y3739579D01*
X56640000Y3756783D01*
X56640000Y5730399D01*
X57109202Y6199600D01*
X59922771Y6199600D01*
X59997618Y6184712D01*
X60072466Y6199600D01*
X60072470Y6199600D01*
X60294155Y6243696D01*
X60545547Y6411671D01*
X60587949Y6475129D01*
X62598496Y8485673D01*
X62661949Y8528071D01*
X62704347Y8591524D01*
X62704349Y8591526D01*
X62805095Y8742304D01*
X62829924Y8779463D01*
X62874020Y9001148D01*
X62874020Y9001152D01*
X62888908Y9075999D01*
X62874020Y9150847D01*
X62874020Y27727132D01*
X62888908Y27801980D01*
X62874020Y27876828D01*
X62874020Y27876832D01*
X62829924Y28098517D01*
X62661949Y28349909D01*
X62598493Y28392309D01*
X56937503Y34053298D01*
X56959400Y34106161D01*
X56959400Y34677039D01*
X56740934Y35204462D01*
X56337262Y35608134D01*
X56208184Y35661600D01*
X56337262Y35715066D01*
X56740934Y36118738D01*
X56959400Y36646161D01*
X56959400Y37217039D01*
X56740934Y37744462D01*
X56337262Y38148134D01*
X56208184Y38201600D01*
X56337262Y38255066D01*
X56740934Y38658738D01*
X56959400Y39186161D01*
X56959400Y39757039D01*
X56740934Y40284462D01*
X56337262Y40688134D01*
X55809839Y40906600D01*
X55238961Y40906600D01*
X54711538Y40688134D01*
X54307866Y40284462D01*
X54254400Y40155384D01*
X54200934Y40284462D01*
X53797262Y40688134D01*
X53269839Y40906600D01*
X52698961Y40906600D01*
X52171538Y40688134D01*
X51767866Y40284462D01*
X51549400Y39757039D01*
X51549400Y39186161D01*
X51767866Y38658738D01*
X52171538Y38255066D01*
X52300616Y38201600D01*
X52171538Y38148134D01*
X51767866Y37744462D01*
X51549400Y37217039D01*
X51549400Y36646161D01*
X51767866Y36118738D01*
X52171538Y35715066D01*
X52300616Y35661600D01*
X52171538Y35608134D01*
X51767866Y35204462D01*
X51549400Y34677039D01*
X51549400Y34106161D01*
X51767866Y33578738D01*
X52171538Y33175066D01*
X52300616Y33121600D01*
X52171538Y33068134D01*
X51767866Y32664462D01*
X51549400Y32137039D01*
X51549400Y31566161D01*
X51767866Y31038738D01*
X52171538Y30635066D01*
X52300616Y30581600D01*
X52171538Y30528134D01*
X51767866Y30124462D01*
X51549400Y29597039D01*
X51549400Y29026161D01*
X51767866Y28498738D01*
X52171538Y28095066D01*
X52300616Y28041600D01*
X52171538Y27988134D01*
X51846703Y27663299D01*
X49324800Y30185201D01*
X49324800Y43543089D01*
X49442231Y43660520D01*
X49599800Y44040926D01*
X49599800Y44452674D01*
X49442231Y44833080D01*
X49151080Y45124231D01*
X48770674Y45281800D01*
X48358926Y45281800D01*
X47978520Y45124231D01*
X47687369Y44833080D01*
X47529800Y44452674D01*
X47529800Y44040926D01*
X47687369Y43660520D01*
X47804800Y43543089D01*
X47804801Y29945252D01*
X47789912Y29870400D01*
X47804801Y29795548D01*
X47848897Y29573863D01*
X48016872Y29322471D01*
X48080328Y29280071D01*
X51073271Y26287127D01*
X51115671Y26223671D01*
X51367063Y26055696D01*
X51588748Y26011600D01*
X51588753Y26011600D01*
X51663600Y25996712D01*
X51738447Y26011600D01*
X51745970Y26011600D01*
X51767866Y25958738D01*
X52171538Y25555066D01*
X52300616Y25501600D01*
X52171538Y25448134D01*
X51767866Y25044462D01*
X51549400Y24517039D01*
X51549400Y23946161D01*
X51767866Y23418738D01*
X52171538Y23015066D01*
X52300616Y22961600D01*
X52171538Y22908134D01*
X51767866Y22504462D01*
X51549400Y21977039D01*
X51549400Y21406161D01*
X51767866Y20878738D01*
X52171538Y20475066D01*
X52698961Y20256600D01*
X53269839Y20256600D01*
X53797262Y20475066D01*
X54200934Y20878738D01*
X54254400Y21007816D01*
X54307866Y20878738D01*
X54711538Y20475066D01*
X55238961Y20256600D01*
X55809839Y20256600D01*
X56337262Y20475066D01*
X56740934Y20878738D01*
X56959400Y21406161D01*
X56959400Y21977039D01*
X56740934Y22504462D01*
X56337262Y22908134D01*
X56208184Y22961600D01*
X56337262Y23015066D01*
X56740934Y23418738D01*
X56959400Y23946161D01*
X56959400Y24517039D01*
X56740934Y25044462D01*
X56337262Y25448134D01*
X56208184Y25501600D01*
X56337262Y25555066D01*
X56740934Y25958738D01*
X56959400Y26486161D01*
X56959400Y27057039D01*
X56740934Y27584462D01*
X56337262Y27988134D01*
X56208184Y28041600D01*
X56337262Y28095066D01*
X56740934Y28498738D01*
X56959400Y29026161D01*
X56959400Y29341798D01*
X60454001Y25847196D01*
X60454000Y11203526D01*
X60453157Y11207765D01*
X60312809Y11417809D01*
X60102765Y11558157D01*
X59855000Y11607440D01*
X58255000Y11607440D01*
X58007235Y11558157D01*
X57797191Y11417809D01*
X57656843Y11207765D01*
X57630262Y11074134D01*
X57327862Y11376534D01*
X56800439Y11595000D01*
X56229561Y11595000D01*
X55702138Y11376534D01*
X55298466Y10972862D01*
X55245000Y10843784D01*
X55191534Y10972862D01*
X54787862Y11376534D01*
X54260439Y11595000D01*
X53689561Y11595000D01*
X53162138Y11376534D01*
X52758466Y10972862D01*
X52705000Y10843784D01*
X52651534Y10972862D01*
X52247862Y11376534D01*
X51720439Y11595000D01*
X51149561Y11595000D01*
X50622138Y11376534D01*
X50218466Y10972862D01*
X50165000Y10843784D01*
X50111534Y10972862D01*
X49707862Y11376534D01*
X49180439Y11595000D01*
X48609561Y11595000D01*
X48082138Y11376534D01*
X47678466Y10972862D01*
X47625000Y10843784D01*
X47571534Y10972862D01*
X47167862Y11376534D01*
X46640439Y11595000D01*
X46069561Y11595000D01*
X45542138Y11376534D01*
X45138466Y10972862D01*
X44920000Y10445439D01*
X44920000Y9874561D01*
X45138466Y9347138D01*
X45470604Y9015000D01*
X45159848Y9015000D01*
X45085000Y9029888D01*
X45010152Y9015000D01*
X45010148Y9015000D01*
X44836605Y8980480D01*
X44788462Y8970904D01*
X44683651Y8900871D01*
X44537071Y8802929D01*
X44494671Y8739473D01*
X42695528Y6940329D01*
X42632072Y6897929D01*
X42589672Y6834473D01*
X42589671Y6834472D01*
X42464097Y6646537D01*
X42405112Y6350000D01*
X42420001Y6275148D01*
X42420000Y3756783D01*
X42378467Y3739579D01*
X41980421Y3341533D01*
X41963217Y3300000D01*
X41856783Y3300000D01*
X41839579Y3341533D01*
X41441533Y3739579D01*
X41400000Y3756783D01*
X41400000Y8921570D01*
X41452862Y8943466D01*
X41856534Y9347138D01*
X41910000Y9476216D01*
X41963466Y9347138D01*
X42367138Y8943466D01*
X42894561Y8725000D01*
X43465439Y8725000D01*
X43992862Y8943466D01*
X44396534Y9347138D01*
X44615000Y9874561D01*
X44615000Y10445439D01*
X44396534Y10972862D01*
X43992862Y11376534D01*
X43465439Y11595000D01*
X42894561Y11595000D01*
X42367138Y11376534D01*
X41963466Y10972862D01*
X41910000Y10843784D01*
X41856534Y10972862D01*
X41452862Y11376534D01*
X40925439Y11595000D01*
X40354561Y11595000D01*
X39827138Y11376534D01*
X39423466Y10972862D01*
X39370000Y10843784D01*
X39316534Y10972862D01*
X38912862Y11376534D01*
X38385439Y11595000D01*
X37814561Y11595000D01*
X37287138Y11376534D01*
X36883466Y10972862D01*
X36830000Y10843784D01*
X36776534Y10972862D01*
X36372862Y11376534D01*
X35845439Y11595000D01*
X35274561Y11595000D01*
X34747138Y11376534D01*
X34343466Y10972862D01*
X34290000Y10843784D01*
X34236534Y10972862D01*
X33832862Y11376534D01*
X33305439Y11595000D01*
X32734561Y11595000D01*
X32207138Y11376534D01*
X31904738Y11074134D01*
X31878157Y11207765D01*
X31737809Y11417809D01*
X31527765Y11558157D01*
X31280000Y11607440D01*
X29680000Y11607440D01*
X29432235Y11558157D01*
X29222191Y11417809D01*
X29081843Y11207765D01*
X29032560Y10960000D01*
X29032560Y9360000D01*
X29081843Y9112235D01*
X29222191Y8902191D01*
X29432235Y8761843D01*
X29680000Y8712560D01*
X29720001Y8712560D01*
X29720000Y3756783D01*
X29678467Y3739579D01*
X29280421Y3341533D01*
X29210000Y3171522D01*
X29139579Y3341533D01*
X28741533Y3739579D01*
X28221461Y3955000D01*
X27658539Y3955000D01*
X27138467Y3739579D01*
X26740421Y3341533D01*
X26525000Y2821461D01*
X26525000Y2258539D01*
X26715182Y1799400D01*
X21296179Y1799400D01*
X16181425Y6914153D01*
X16132049Y6988049D01*
X15839310Y7183652D01*
X15581165Y7235000D01*
X15581161Y7235000D01*
X15494000Y7252337D01*
X15406839Y7235000D01*
X12344549Y7235000D01*
X4935603Y14643946D01*
X5045120Y14753463D01*
X5257800Y15266919D01*
X5257800Y15822681D01*
X5045120Y16336137D01*
X4652137Y16729120D01*
X4387089Y16838906D01*
X3860800Y17365195D01*
X3334511Y16838906D01*
X3069463Y16729120D01*
X2676480Y16336137D01*
X2463800Y15822681D01*
X2463800Y15266919D01*
X2676480Y14753463D01*
X2959178Y14470765D01*
X2958463Y14467170D01*
X3027148Y14121861D01*
X3173376Y13903016D01*
X3173378Y13903014D01*
X3222752Y13829121D01*
X3296645Y13779747D01*
X11290547Y5785844D01*
X11339921Y5711951D01*
X11413814Y5662577D01*
X11413815Y5662576D01*
X11491975Y5610351D01*
X11632660Y5516348D01*
X11890805Y5465000D01*
X11890809Y5465000D01*
X11977970Y5447663D01*
X12065131Y5465000D01*
X15127422Y5465000D01*
X19882421Y710000D01*
X15583609Y710000D01*
X16034293Y1160684D01*
X16405000Y2055648D01*
X16405000Y3024352D01*
X16034293Y3919316D01*
X15349316Y4604293D01*
X14454352Y4975000D01*
X13485648Y4975000D01*
X12590684Y4604293D01*
X11905707Y3919316D01*
X11535000Y3024352D01*
X11535000Y2055648D01*
X11905707Y1160684D01*
X12356391Y710000D01*
X929091Y710000D01*
X710000Y929091D01*
X710000Y17752498D01*
X2451656Y17752498D01*
X2479438Y17197432D01*
X2638403Y16813657D01*
X2880587Y16744192D01*
X3681195Y17544800D01*
X4040405Y17544800D01*
X4841013Y16744192D01*
X5083197Y16813657D01*
X5269944Y17337102D01*
X5242162Y17892168D01*
X5083197Y18275943D01*
X4841013Y18345408D01*
X4040405Y17544800D01*
X3681195Y17544800D01*
X2880587Y18345408D01*
X2638403Y18275943D01*
X2451656Y17752498D01*
X710000Y17752498D01*
X710000Y25822681D01*
X2463800Y25822681D01*
X2463800Y25266919D01*
X2676480Y24753463D01*
X2885143Y24544800D01*
X2676480Y24336137D01*
X2463800Y23822681D01*
X2463800Y23266919D01*
X2676480Y22753463D01*
X2885143Y22544800D01*
X2676480Y22336137D01*
X2463800Y21822681D01*
X2463800Y21266919D01*
X2676480Y20753463D01*
X2885143Y20544800D01*
X2676480Y20336137D01*
X2463800Y19822681D01*
X2463800Y19266919D01*
X2676480Y18753463D01*
X3069463Y18360480D01*
X3334511Y18250694D01*
X3860800Y17724405D01*
X4387089Y18250694D01*
X4652137Y18360480D01*
X4951457Y18659800D01*
X8999022Y18659800D01*
X11830600Y15828221D01*
X11830600Y15239470D01*
X12064290Y14675293D01*
X12496093Y14243490D01*
X13060270Y14009800D01*
X13670930Y14009800D01*
X14235107Y14243490D01*
X14666910Y14675293D01*
X14900600Y15239470D01*
X14900600Y15259050D01*
X15330600Y15259050D01*
X15330600Y14518490D01*
X15427273Y14285101D01*
X15605902Y14106473D01*
X15839291Y14009800D01*
X16579850Y14009800D01*
X16738600Y14168550D01*
X16738600Y15417800D01*
X16992600Y15417800D01*
X16992600Y14168550D01*
X17151350Y14009800D01*
X17891909Y14009800D01*
X18125298Y14106473D01*
X18303927Y14285101D01*
X18400600Y14518490D01*
X18400600Y15259050D01*
X18241850Y15417800D01*
X16992600Y15417800D01*
X16738600Y15417800D01*
X15489350Y15417800D01*
X15330600Y15259050D01*
X14900600Y15259050D01*
X14900600Y15850130D01*
X14666910Y16414307D01*
X14510107Y16571110D01*
X15330600Y16571110D01*
X15330600Y15830550D01*
X15489350Y15671800D01*
X16738600Y15671800D01*
X16738600Y16921050D01*
X16992600Y16921050D01*
X16992600Y15671800D01*
X18241850Y15671800D01*
X18400600Y15830550D01*
X18400600Y16571110D01*
X18303927Y16804499D01*
X18125298Y16983127D01*
X17891909Y17079800D01*
X17151350Y17079800D01*
X16992600Y16921050D01*
X16738600Y16921050D01*
X16579850Y17079800D01*
X15839291Y17079800D01*
X15605902Y16983127D01*
X15427273Y16804499D01*
X15330600Y16571110D01*
X14510107Y16571110D01*
X14235107Y16846110D01*
X13670930Y17079800D01*
X13082179Y17079800D01*
X10053025Y20108953D01*
X10003649Y20182849D01*
X9710910Y20378452D01*
X9452765Y20429800D01*
X9452761Y20429800D01*
X9365600Y20447137D01*
X9278439Y20429800D01*
X4951457Y20429800D01*
X4836457Y20544800D01*
X5045120Y20753463D01*
X5257800Y21266919D01*
X5257800Y21822681D01*
X5244820Y21854018D01*
X10695273Y27304471D01*
X10758729Y27346871D01*
X10926704Y27598263D01*
X10970800Y27819948D01*
X10970800Y27819952D01*
X10985688Y27894799D01*
X10970800Y27969646D01*
X10970800Y38547199D01*
X13349040Y40925439D01*
X19901000Y40925439D01*
X19901000Y40354561D01*
X20119466Y39827138D01*
X20523138Y39423466D01*
X21050561Y39205000D01*
X21621439Y39205000D01*
X22148862Y39423466D01*
X22552534Y39827138D01*
X22606000Y39956216D01*
X22659466Y39827138D01*
X23063138Y39423466D01*
X23590561Y39205000D01*
X24161439Y39205000D01*
X24688862Y39423466D01*
X25092534Y39827138D01*
X25146000Y39956216D01*
X25199466Y39827138D01*
X25603138Y39423466D01*
X26130561Y39205000D01*
X26701439Y39205000D01*
X27228862Y39423466D01*
X27632534Y39827138D01*
X27686000Y39956216D01*
X27739466Y39827138D01*
X28143138Y39423466D01*
X28670561Y39205000D01*
X29241439Y39205000D01*
X29768862Y39423466D01*
X30172534Y39827138D01*
X30226000Y39956216D01*
X30279466Y39827138D01*
X30683138Y39423466D01*
X31210561Y39205000D01*
X31781439Y39205000D01*
X32308862Y39423466D01*
X32611262Y39725866D01*
X32637843Y39592235D01*
X32778191Y39382191D01*
X32988235Y39241843D01*
X33236000Y39192560D01*
X34836000Y39192560D01*
X35083765Y39241843D01*
X35293809Y39382191D01*
X35434157Y39592235D01*
X35483440Y39840000D01*
X35483440Y41440000D01*
X35434157Y41687765D01*
X35293809Y41897809D01*
X35083765Y42038157D01*
X34836000Y42087440D01*
X33236000Y42087440D01*
X32988235Y42038157D01*
X32778191Y41897809D01*
X32637843Y41687765D01*
X32611262Y41554134D01*
X32308862Y41856534D01*
X31781439Y42075000D01*
X31210561Y42075000D01*
X30683138Y41856534D01*
X30279466Y41452862D01*
X30226000Y41323784D01*
X30172534Y41452862D01*
X29768862Y41856534D01*
X29241439Y42075000D01*
X28670561Y42075000D01*
X28143138Y41856534D01*
X27739466Y41452862D01*
X27686000Y41323784D01*
X27632534Y41452862D01*
X27228862Y41856534D01*
X26701439Y42075000D01*
X26130561Y42075000D01*
X25603138Y41856534D01*
X25199466Y41452862D01*
X25146000Y41323784D01*
X25092534Y41452862D01*
X24688862Y41856534D01*
X24161439Y42075000D01*
X23590561Y42075000D01*
X23063138Y41856534D01*
X22659466Y41452862D01*
X22606000Y41323784D01*
X22552534Y41452862D01*
X22148862Y41856534D01*
X21621439Y42075000D01*
X21050561Y42075000D01*
X20523138Y41856534D01*
X20119466Y41452862D01*
X19901000Y40925439D01*
X13349040Y40925439D01*
X19212403Y46788800D01*
X60173953Y46788800D01*
X60248800Y46773912D01*
X60323647Y46788800D01*
X60323652Y46788800D01*
X60545337Y46832896D01*
X60796729Y47000871D01*
X60839131Y47064330D01*
X63177005Y49402204D01*
X63218539Y49385000D01*
X63781461Y49385000D01*
X64301533Y49600421D01*
X64699579Y49998467D01*
X64915000Y50518539D01*
X64915000Y51081461D01*
X64699579Y51601533D01*
X64301533Y51999579D01*
X63781461Y52215000D01*
X63218539Y52215000D01*
X62698467Y51999579D01*
X62300421Y51601533D01*
X62230000Y51431522D01*
X62159579Y51601533D01*
X61761533Y51999579D01*
X61241461Y52215000D01*
X60678539Y52215000D01*
X60158467Y51999579D01*
X59760421Y51601533D01*
X59690000Y51431522D01*
X59619579Y51601533D01*
X59221533Y51999579D01*
X58701461Y52215000D01*
X58138539Y52215000D01*
X57618467Y51999579D01*
X57220421Y51601533D01*
X57150000Y51431522D01*
X57079579Y51601533D01*
X56681533Y51999579D01*
X56161461Y52215000D01*
X55598539Y52215000D01*
X55078467Y51999579D01*
X54680421Y51601533D01*
X54610000Y51431522D01*
X54539579Y51601533D01*
X54141533Y51999579D01*
X53621461Y52215000D01*
X53058539Y52215000D01*
X52538467Y51999579D01*
X52140421Y51601533D01*
X52070000Y51431522D01*
X51999579Y51601533D01*
X51601533Y51999579D01*
X51081461Y52215000D01*
X50518539Y52215000D01*
X49998467Y51999579D01*
X49600421Y51601533D01*
X49530000Y51431522D01*
X49459579Y51601533D01*
X49061533Y51999579D01*
X48541461Y52215000D01*
X47978539Y52215000D01*
X47458467Y51999579D01*
X47060421Y51601533D01*
X46990000Y51431522D01*
X46919579Y51601533D01*
X46521533Y51999579D01*
X46001461Y52215000D01*
X45438539Y52215000D01*
X44918467Y51999579D01*
X44520421Y51601533D01*
X44305000Y51081461D01*
X44305000Y50518539D01*
X44520421Y49998467D01*
X44918467Y49600421D01*
X45438539Y49385000D01*
X46001461Y49385000D01*
X46521533Y49600421D01*
X46919579Y49998467D01*
X46990000Y50168478D01*
X47060421Y49998467D01*
X47458467Y49600421D01*
X47978539Y49385000D01*
X48541461Y49385000D01*
X49061533Y49600421D01*
X49459579Y49998467D01*
X49530000Y50168478D01*
X49600421Y49998467D01*
X49998467Y49600421D01*
X50518539Y49385000D01*
X51081461Y49385000D01*
X51601533Y49600421D01*
X51999579Y49998467D01*
X52070000Y50168478D01*
X52140421Y49998467D01*
X52538467Y49600421D01*
X53058539Y49385000D01*
X53621461Y49385000D01*
X54141533Y49600421D01*
X54539579Y49998467D01*
X54610000Y50168478D01*
X54680421Y49998467D01*
X55078467Y49600421D01*
X55598539Y49385000D01*
X56161461Y49385000D01*
X56681533Y49600421D01*
X57079579Y49998467D01*
X57150000Y50168478D01*
X57220421Y49998467D01*
X57618467Y49600421D01*
X58138539Y49385000D01*
X58470199Y49385000D01*
X58257599Y49172400D01*
X18362846Y49172400D01*
X18287999Y49187288D01*
X18213152Y49172400D01*
X18213148Y49172400D01*
X17991463Y49128304D01*
X17991461Y49128303D01*
X17991462Y49128303D01*
X17803526Y49002729D01*
X17803524Y49002727D01*
X17740071Y48960329D01*
X17697673Y48896876D01*
X9015130Y40214331D01*
X8951671Y40171929D01*
X8783696Y39920536D01*
X8739600Y39698851D01*
X8739600Y39698847D01*
X8724712Y39624000D01*
X8739600Y39549153D01*
X8739601Y29498404D01*
X5201002Y25959804D01*
X5045120Y26336137D01*
X4652137Y26729120D01*
X4138681Y26941800D01*
X3582919Y26941800D01*
X3069463Y26729120D01*
X2676480Y26336137D01*
X2463800Y25822681D01*
X710000Y25822681D01*
X710000Y52388794D01*
X907155Y52566233D01*
X13550229Y52553838D01*
G04 #@! TD*
M02*
