G04 #@! TF.GenerationSoftware,KiCad,Pcbnew,(5.1.10-1-10_14)*
G04 #@! TF.CreationDate,2022-06-07T23:14:09-07:00*
G04 #@! TF.ProjectId,Control_Boards,436f6e74-726f-46c5-9f42-6f617264732e,rev?*
G04 #@! TF.SameCoordinates,Original*
G04 #@! TF.FileFunction,Copper,L1,Top*
G04 #@! TF.FilePolarity,Positive*
%FSLAX46Y46*%
G04 Gerber Fmt 4.6, Leading zero omitted, Abs format (unit mm)*
G04 Created by KiCad (PCBNEW (5.1.10-1-10_14)) date 2022-06-07 23:14:09*
%MOMM*%
%LPD*%
G01*
G04 APERTURE LIST*
G04 #@! TA.AperFunction,ComponentPad*
%ADD10O,1.600000X1.600000*%
G04 #@! TD*
G04 #@! TA.AperFunction,ComponentPad*
%ADD11C,1.600000*%
G04 #@! TD*
G04 #@! TA.AperFunction,ComponentPad*
%ADD12C,1.670000*%
G04 #@! TD*
G04 #@! TA.AperFunction,ComponentPad*
%ADD13R,1.670000X1.670000*%
G04 #@! TD*
G04 #@! TA.AperFunction,WasherPad*
%ADD14C,6.500000*%
G04 #@! TD*
G04 #@! TA.AperFunction,WasherPad*
%ADD15C,4.600000*%
G04 #@! TD*
G04 #@! TA.AperFunction,ComponentPad*
%ADD16C,1.524000*%
G04 #@! TD*
G04 #@! TA.AperFunction,ComponentPad*
%ADD17R,1.600000X1.600000*%
G04 #@! TD*
G04 #@! TA.AperFunction,ComponentPad*
%ADD18R,1.300000X1.300000*%
G04 #@! TD*
G04 #@! TA.AperFunction,ComponentPad*
%ADD19R,1.778000X1.778000*%
G04 #@! TD*
G04 #@! TA.AperFunction,ComponentPad*
%ADD20C,1.778000*%
G04 #@! TD*
G04 #@! TA.AperFunction,ComponentPad*
%ADD21R,1.524000X1.524000*%
G04 #@! TD*
G04 #@! TA.AperFunction,ComponentPad*
%ADD22R,1.500000X1.050000*%
G04 #@! TD*
G04 #@! TA.AperFunction,ComponentPad*
%ADD23O,1.500000X1.050000*%
G04 #@! TD*
G04 #@! TA.AperFunction,ViaPad*
%ADD24C,0.800000*%
G04 #@! TD*
G04 #@! TA.AperFunction,Conductor*
%ADD25C,0.500000*%
G04 #@! TD*
G04 #@! TA.AperFunction,Conductor*
%ADD26C,0.250000*%
G04 #@! TD*
G04 APERTURE END LIST*
D10*
X83820000Y-73660000D03*
D11*
X83820000Y-81280000D03*
D10*
X88392000Y-91948000D03*
D11*
X88392000Y-84328000D03*
D10*
X88392000Y-73660000D03*
D11*
X88392000Y-81280000D03*
D10*
X83820000Y-91948000D03*
D11*
X83820000Y-84328000D03*
D10*
X132588000Y-57531000D03*
D11*
X124968000Y-57531000D03*
D10*
X132588000Y-60706000D03*
D11*
X124968000Y-60706000D03*
D10*
X112268000Y-69596000D03*
D11*
X112268000Y-61976000D03*
D12*
X86741000Y-121602500D03*
X86741000Y-119062500D03*
X86741000Y-116522500D03*
X86741000Y-113982500D03*
X86741000Y-111442500D03*
D13*
X86741000Y-108902500D03*
D14*
X65913000Y-49276000D03*
X138303000Y-54991000D03*
X122428000Y-103886000D03*
X81153000Y-118491000D03*
D13*
X127381000Y-39052500D03*
D12*
X127381000Y-41592500D03*
X124841000Y-39052500D03*
X124841000Y-41592500D03*
X122301000Y-39052500D03*
X122301000Y-41592500D03*
X119761000Y-39052500D03*
X119761000Y-41592500D03*
X117221000Y-39052500D03*
X117221000Y-41592500D03*
X114681000Y-39052500D03*
X114681000Y-41592500D03*
X112141000Y-39052500D03*
X112141000Y-41592500D03*
X109601000Y-39052500D03*
X109601000Y-41592500D03*
X107061000Y-39052500D03*
X107061000Y-41592500D03*
X104521000Y-39052500D03*
X104521000Y-41592500D03*
X67183000Y-35362500D03*
X69723000Y-35362500D03*
X72263000Y-35362500D03*
X74803000Y-35362500D03*
X77343000Y-35362500D03*
X79883000Y-35362500D03*
X82423000Y-35362500D03*
X84963000Y-35362500D03*
X87503000Y-35362500D03*
X90043000Y-35362500D03*
X67183000Y-42862500D03*
X69723000Y-42862500D03*
X72263000Y-42862500D03*
X74803000Y-42862500D03*
X77343000Y-42862500D03*
X79883000Y-42862500D03*
X82423000Y-42862500D03*
X84963000Y-42862500D03*
X87503000Y-42862500D03*
D13*
X90043000Y-42862500D03*
D15*
X151821000Y-58832500D03*
X102821000Y-58832500D03*
X102821000Y-116832500D03*
X151821000Y-116832500D03*
D16*
X77851000Y-110451900D03*
X75311000Y-110451900D03*
X77851000Y-107911900D03*
X75311000Y-107911900D03*
X77851000Y-105371900D03*
X75311000Y-105371900D03*
X77851000Y-102831900D03*
X75311000Y-102831900D03*
X77851000Y-100291900D03*
X75311000Y-100291900D03*
X77851000Y-97751900D03*
X75311000Y-97751900D03*
X77851000Y-95211900D03*
X75311000Y-95211900D03*
X77851000Y-92671900D03*
X75311000Y-92671900D03*
X77851000Y-90131900D03*
X75311000Y-90131900D03*
X77851000Y-87591900D03*
X75311000Y-87591900D03*
X77851000Y-85051900D03*
X75311000Y-85051900D03*
X77851000Y-82511900D03*
X75311000Y-82511900D03*
X77851000Y-79971900D03*
X75311000Y-79971900D03*
X77851000Y-77431900D03*
X75311000Y-77431900D03*
X77851000Y-74891900D03*
X75311000Y-74891900D03*
X77851000Y-72351900D03*
X75311000Y-72351900D03*
X77851000Y-69811900D03*
X75311000Y-69811900D03*
X77851000Y-67271900D03*
X75311000Y-67271900D03*
X77851000Y-64731900D03*
X75311000Y-64731900D03*
X77851000Y-62191900D03*
X75311000Y-62191900D03*
X67691000Y-110451900D03*
X65151000Y-110451900D03*
X67691000Y-107911900D03*
X65151000Y-107911900D03*
X67691000Y-105371900D03*
X65151000Y-105371900D03*
X67691000Y-102831900D03*
X65151000Y-102831900D03*
X67691000Y-100291900D03*
X65151000Y-100291900D03*
X67691000Y-97751900D03*
X65151000Y-97751900D03*
X67691000Y-95211900D03*
X65151000Y-95211900D03*
X67691000Y-92671900D03*
X65151000Y-92671900D03*
X67691000Y-90131900D03*
X65151000Y-90131900D03*
X67691000Y-87591900D03*
X65151000Y-87591900D03*
X67691000Y-85051900D03*
X65151000Y-85051900D03*
X67691000Y-82511900D03*
X65151000Y-82511900D03*
X67691000Y-79971900D03*
X65151000Y-79971900D03*
X67691000Y-77431900D03*
X65151000Y-77431900D03*
X67691000Y-74891900D03*
X65151000Y-74891900D03*
X67691000Y-72351900D03*
X65151000Y-72351900D03*
X67691000Y-69811900D03*
X65151000Y-69811900D03*
X67691000Y-67271900D03*
X65151000Y-67271900D03*
X67691000Y-64731900D03*
X65151000Y-64731900D03*
X67691000Y-62191900D03*
X65151000Y-62191900D03*
D10*
X138430000Y-83398326D03*
D17*
X138430000Y-91018326D03*
D10*
X117880499Y-83317317D03*
D17*
X117880499Y-90937317D03*
D10*
X128778000Y-83566000D03*
D17*
X128778000Y-91186000D03*
D16*
X90043000Y-54356000D03*
X90043000Y-46736000D03*
X87503000Y-54356000D03*
X87503000Y-46736000D03*
X84963000Y-54356000D03*
X84963000Y-46736000D03*
X82423000Y-54356000D03*
X82423000Y-46736000D03*
X79883000Y-54356000D03*
X79883000Y-46736000D03*
X77343000Y-54356000D03*
X77343000Y-46736000D03*
X74803000Y-54356000D03*
X74803000Y-46736000D03*
X72263000Y-54356000D03*
D18*
X72263000Y-46736000D03*
D19*
X63627000Y-119062500D03*
D20*
X63627000Y-121602500D03*
D19*
X66550999Y-119079901D03*
D20*
X66550999Y-121619901D03*
D19*
X69469000Y-119062500D03*
D20*
X69469000Y-121602500D03*
D12*
X90678000Y-121666000D03*
X93218000Y-121666000D03*
X95758000Y-121666000D03*
X90678000Y-119126000D03*
X93218000Y-119126000D03*
X95758000Y-119126000D03*
X90678000Y-116586000D03*
X93218000Y-116586000D03*
X95758000Y-116586000D03*
X90678000Y-114046000D03*
D21*
X95758000Y-114046000D03*
D12*
X93218000Y-114046000D03*
D22*
X138303000Y-67056000D03*
D23*
X138303000Y-64516000D03*
X138303000Y-65786000D03*
D22*
X117347099Y-66883517D03*
D23*
X117347099Y-64343517D03*
X117347099Y-65613517D03*
D22*
X127555084Y-67056000D03*
D23*
X127555084Y-64516000D03*
X127555084Y-65786000D03*
D10*
X109093000Y-79756000D03*
D11*
X109093000Y-72136000D03*
D10*
X140843000Y-103060500D03*
D11*
X140843000Y-110680500D03*
D10*
X83947000Y-70294500D03*
D11*
X83947000Y-62674500D03*
D10*
X88519000Y-70294500D03*
D11*
X88519000Y-62674500D03*
D10*
X93599000Y-70294500D03*
D11*
X93599000Y-62674500D03*
D10*
X138328400Y-78877126D03*
D11*
X138328400Y-71257126D03*
D10*
X120242699Y-79558117D03*
D11*
X120242699Y-71938117D03*
D10*
X130984084Y-79796250D03*
D11*
X130984084Y-72176250D03*
D10*
X108331000Y-51816000D03*
D11*
X108331000Y-59436000D03*
D10*
X112141000Y-51816000D03*
D11*
X112141000Y-59436000D03*
D10*
X115951000Y-51816000D03*
D11*
X115951000Y-59436000D03*
D10*
X115594499Y-79710517D03*
D11*
X115594499Y-72090517D03*
D10*
X126488284Y-79821650D03*
D11*
X126488284Y-72201650D03*
D10*
X108458000Y-87376000D03*
D11*
X108458000Y-94996000D03*
D24*
X65278000Y-113411000D03*
X93501541Y-105439541D03*
X87503000Y-103886000D03*
X107823000Y-100076000D03*
X89352686Y-99073433D03*
X74461000Y-112141000D03*
X97817980Y-62610999D03*
X99298003Y-51181000D03*
X104108006Y-47371000D03*
X105370672Y-48440240D03*
X98298000Y-51181000D03*
X103108003Y-47371000D03*
X104663564Y-49147349D03*
X97028000Y-51181000D03*
X102108000Y-47371000D03*
X103956456Y-49854456D03*
X89408000Y-100076000D03*
X89438897Y-102286900D03*
X90678000Y-102286900D03*
X90678000Y-99441000D03*
X74676000Y-91440000D03*
X78740000Y-91440000D03*
X87575108Y-96811000D03*
X93092143Y-101855143D03*
X86653000Y-103178892D03*
X88773000Y-96176000D03*
X88517554Y-102675655D03*
X88700885Y-100783115D03*
X115194347Y-47864348D03*
X86868000Y-97536000D03*
X99701916Y-52339649D03*
X98933000Y-52979002D03*
X98117098Y-53557213D03*
X100910108Y-50618108D03*
X101238975Y-51581975D03*
X100203000Y-49911000D03*
X108201621Y-42638887D03*
X114202143Y-47739708D03*
X117726229Y-50900921D03*
X100920999Y-80772000D03*
X96917961Y-81280000D03*
X92798000Y-86360000D03*
X90647990Y-87884000D03*
X81788000Y-83580011D03*
X81966846Y-80442846D03*
X81280000Y-45720000D03*
X74640643Y-49460671D03*
X62018000Y-52832000D03*
X62826000Y-55326863D03*
X78740000Y-45720000D03*
X73627989Y-49448020D03*
X65074534Y-54065000D03*
X65133809Y-56228990D03*
X76200000Y-45720000D03*
X72627988Y-49448019D03*
X63030654Y-52819349D03*
X63196063Y-56688737D03*
X73660000Y-45720000D03*
X71627985Y-49448019D03*
X64049738Y-52813127D03*
X64133806Y-56228990D03*
D25*
X86741000Y-111442500D02*
X86741000Y-111439582D01*
X76523001Y-109239899D02*
X75311000Y-110451900D01*
X81514101Y-109239899D02*
X76523001Y-109239899D01*
X76523001Y-109123901D02*
X75311000Y-107911900D01*
X76523001Y-109239899D02*
X76523001Y-109123901D01*
X65278000Y-113411000D02*
X65913000Y-114046000D01*
X65913000Y-114046000D02*
X74168000Y-114046000D01*
X75311000Y-112903000D02*
X75311000Y-110451900D01*
X74168000Y-114046000D02*
X75311000Y-112903000D01*
X89126453Y-109602510D02*
X90043000Y-108685962D01*
X88580990Y-109602510D02*
X89126453Y-109602510D01*
X86741000Y-111442500D02*
X88580990Y-109602510D01*
X93289421Y-105439541D02*
X93501541Y-105439541D01*
X90043000Y-108685962D02*
X93289421Y-105439541D01*
X87503000Y-103886000D02*
X86868000Y-104521000D01*
X85415584Y-104521000D02*
X83037965Y-106898619D01*
X86868000Y-104521000D02*
X85415584Y-104521000D01*
X83037965Y-107716035D02*
X81514101Y-109239899D01*
X83037965Y-106898619D02*
X83037965Y-107716035D01*
X108458000Y-99441000D02*
X108458000Y-94996000D01*
X107823000Y-100076000D02*
X108458000Y-99441000D01*
X72536899Y-54629899D02*
X72263000Y-54356000D01*
X76130999Y-53143999D02*
X77343000Y-54356000D01*
X73475001Y-53143999D02*
X76130999Y-53143999D01*
X72263000Y-54356000D02*
X73475001Y-53143999D01*
X81153000Y-53086000D02*
X82423000Y-54356000D01*
X78613000Y-53086000D02*
X81153000Y-53086000D01*
X77343000Y-54356000D02*
X78613000Y-53086000D01*
X90073011Y-98353108D02*
X89352686Y-99073433D01*
X91948000Y-96478119D02*
X90073011Y-98353108D01*
X90932000Y-69088000D02*
X91948000Y-70104000D01*
X90932000Y-68580000D02*
X90932000Y-69088000D01*
X91948000Y-70104000D02*
X91948000Y-96478119D01*
X85598000Y-63246000D02*
X90932000Y-68580000D01*
X77978000Y-54991000D02*
X77978000Y-55056010D01*
X77978000Y-55056010D02*
X78678010Y-55056010D01*
X77343000Y-54356000D02*
X77978000Y-54991000D01*
X78678010Y-55056010D02*
X85598000Y-61976000D01*
X85598000Y-61976000D02*
X85598000Y-63246000D01*
D26*
X126488284Y-81752050D02*
X128367884Y-83631650D01*
X126488284Y-79821650D02*
X126488284Y-81752050D01*
X129413000Y-83566000D02*
X128778000Y-83566000D01*
X130984084Y-81994916D02*
X129413000Y-83566000D01*
X130984084Y-79796250D02*
X130984084Y-81994916D01*
D25*
X69380100Y-112141000D02*
X67691000Y-110451900D01*
X74461000Y-112141000D02*
X69380100Y-112141000D01*
X66478999Y-111663901D02*
X64165901Y-111663901D01*
X67691000Y-110451900D02*
X66478999Y-111663901D01*
X64165901Y-111663901D02*
X63373000Y-110871000D01*
X63373000Y-110871000D02*
X63373000Y-92656138D01*
X97817980Y-59590980D02*
X97817980Y-62610999D01*
X112141000Y-39052500D02*
X112141000Y-41592500D01*
X110299500Y-37211000D02*
X112141000Y-39052500D01*
X103378000Y-37211000D02*
X110299500Y-37211000D01*
X101953021Y-49756021D02*
X101953021Y-48941425D01*
X98933000Y-46736000D02*
X98933000Y-41656000D01*
X98933000Y-41656000D02*
X103378000Y-37211000D01*
X100203000Y-48006000D02*
X98933000Y-46736000D01*
X101953021Y-48941425D02*
X101017596Y-48006000D01*
X98298000Y-55626000D02*
X98397032Y-55626000D01*
X101017596Y-48006000D02*
X100203000Y-48006000D01*
X102210119Y-50013119D02*
X101953021Y-49756021D01*
X102210119Y-51812913D02*
X102210119Y-50013119D01*
X98397032Y-55626000D02*
X102210119Y-51812913D01*
X96710500Y-57213500D02*
X98298000Y-55626000D01*
X96075500Y-57848500D02*
X97817980Y-59590980D01*
X96710500Y-57213500D02*
X96075500Y-57848500D01*
X66363001Y-91459899D02*
X63734101Y-91459899D01*
X67691000Y-90131900D02*
X66363001Y-91459899D01*
X63734101Y-91459899D02*
X63373000Y-91821000D01*
X63373000Y-92656138D02*
X63373000Y-91821000D01*
X67691000Y-90131900D02*
X70523100Y-92964000D01*
X76638999Y-93137663D02*
X76638999Y-91343901D01*
X76638999Y-91343901D02*
X77851000Y-90131900D01*
X75892761Y-93883901D02*
X76638999Y-93137663D01*
X73563901Y-93883901D02*
X75892761Y-93883901D01*
X72644000Y-92964000D02*
X73563901Y-93883901D01*
X70523100Y-92964000D02*
X72644000Y-92964000D01*
X62755360Y-54119360D02*
X62212640Y-54119360D01*
X63199147Y-54563147D02*
X62755360Y-54119360D01*
X90612990Y-52385990D02*
X73243047Y-52385990D01*
X66094712Y-54931010D02*
X65653722Y-55372000D01*
X64495346Y-55372000D02*
X63686493Y-54563147D01*
X63686493Y-54563147D02*
X63199147Y-54563147D01*
X65653722Y-55372000D02*
X64495346Y-55372000D01*
X68271408Y-54931010D02*
X66094712Y-54931010D01*
X70751418Y-52451000D02*
X68271408Y-54931010D01*
X62212640Y-54119360D02*
X61976000Y-54356000D01*
X73243047Y-52385990D02*
X73178037Y-52451000D01*
X73178037Y-52451000D02*
X70751418Y-52451000D01*
X96075500Y-57848500D02*
X90612990Y-52385990D01*
X61896052Y-55443625D02*
X61896052Y-57324052D01*
X61976000Y-55363677D02*
X61896052Y-55443625D01*
X61976000Y-54356000D02*
X61976000Y-55363677D01*
X61896052Y-57324052D02*
X62992000Y-58420000D01*
X63373000Y-83185000D02*
X63373000Y-91821000D01*
X62992000Y-82804000D02*
X63373000Y-83185000D01*
X62992000Y-58420000D02*
X62992000Y-82804000D01*
D26*
X115594499Y-81031317D02*
X117880499Y-83317317D01*
X115594499Y-79710517D02*
X115594499Y-81031317D01*
X120242699Y-80955117D02*
X117880499Y-83317317D01*
X120242699Y-79558117D02*
X120242699Y-80955117D01*
X82423000Y-46736000D02*
X84963000Y-46736000D01*
X85894238Y-46736000D02*
X87164238Y-48006000D01*
X84963000Y-46736000D02*
X85894238Y-46736000D01*
X87164238Y-48006000D02*
X95758000Y-48006000D01*
X95942990Y-48190990D02*
X95944401Y-48190991D01*
X95758000Y-48006000D02*
X95942990Y-48190990D01*
X99023001Y-50905998D02*
X99298003Y-51181000D01*
X99023001Y-50832999D02*
X99023001Y-50905998D01*
X98646001Y-50455999D02*
X99023001Y-50832999D01*
X98209409Y-50455999D02*
X98646001Y-50455999D01*
X95944401Y-48190991D02*
X98209409Y-50455999D01*
X108394500Y-40386000D02*
X109601000Y-41592500D01*
X106550698Y-40386000D02*
X108394500Y-40386000D01*
X105900999Y-41035699D02*
X106550698Y-40386000D01*
X105900999Y-45578007D02*
X105900999Y-41035699D01*
X104108006Y-47371000D02*
X105900999Y-45578007D01*
X104301432Y-47371000D02*
X105370672Y-48440240D01*
X104108006Y-47371000D02*
X104301432Y-47371000D01*
X77343000Y-46736000D02*
X79883000Y-46736000D01*
X80814238Y-46736000D02*
X82719238Y-48641000D01*
X79883000Y-46736000D02*
X80814238Y-46736000D01*
X82719238Y-48641000D02*
X95758000Y-48641000D01*
X95758000Y-48641000D02*
X98298000Y-51181000D01*
X104648000Y-41719500D02*
X104521000Y-41592500D01*
X103108003Y-47371000D02*
X103108003Y-47005997D01*
X103108003Y-47005997D02*
X104013000Y-46101000D01*
X104013000Y-42100500D02*
X104521000Y-41592500D01*
X104013000Y-46101000D02*
X104013000Y-42100500D01*
X103108003Y-47591788D02*
X104663564Y-49147349D01*
X103108003Y-47371000D02*
X103108003Y-47591788D01*
X72263000Y-46736000D02*
X74803000Y-46736000D01*
X74803000Y-46736000D02*
X75734238Y-46736000D01*
X97028000Y-50547410D02*
X97028000Y-51181000D01*
X95756590Y-49276000D02*
X97028000Y-50547410D01*
X103360999Y-40212501D02*
X104521000Y-39052500D01*
X103378000Y-42166302D02*
X103360999Y-42149301D01*
X103360999Y-42149301D02*
X103360999Y-40212501D01*
X103378000Y-45907693D02*
X103378000Y-42166302D01*
X102108000Y-47177693D02*
X103378000Y-45907693D01*
X102108000Y-47371000D02*
X102108000Y-47177693D01*
X102108000Y-48006000D02*
X103956456Y-49854456D01*
X102108000Y-47371000D02*
X102108000Y-48006000D01*
X95504000Y-49276000D02*
X95319010Y-49091010D01*
X95756590Y-49276000D02*
X95504000Y-49276000D01*
X95319010Y-49091010D02*
X82532837Y-49091009D01*
X76821239Y-47823001D02*
X75734238Y-46736000D01*
X81264829Y-47823001D02*
X76821239Y-47823001D01*
X82532837Y-49091009D02*
X81264829Y-47823001D01*
X130984084Y-68624998D02*
X130984084Y-72176250D01*
X128145086Y-65786000D02*
X130984084Y-68624998D01*
X127555084Y-65786000D02*
X128145086Y-65786000D01*
X120242699Y-67509117D02*
X120242699Y-71938117D01*
X118347099Y-65613517D02*
X120242699Y-67509117D01*
X117347099Y-65613517D02*
X118347099Y-65613517D01*
X138303000Y-65786000D02*
X138938000Y-65786000D01*
X138546874Y-71257126D02*
X138328400Y-71257126D01*
X139378001Y-70425999D02*
X138546874Y-71257126D01*
X139378001Y-66270999D02*
X139378001Y-70425999D01*
X138938000Y-65830998D02*
X139378001Y-66270999D01*
X138938000Y-65786000D02*
X138938000Y-65830998D01*
X138328400Y-83296726D02*
X138430000Y-83398326D01*
X138328400Y-78877126D02*
X138328400Y-83296726D01*
X98092971Y-64945971D02*
X95821500Y-62674500D01*
X98092971Y-86586837D02*
X98092971Y-64945971D01*
X95821500Y-62674500D02*
X93599000Y-62674500D01*
X93599000Y-62674500D02*
X86550500Y-55626000D01*
X86550500Y-55626000D02*
X85598000Y-55626000D01*
X84963000Y-54991000D02*
X84963000Y-54356000D01*
X85598000Y-55626000D02*
X84963000Y-54991000D01*
X98092971Y-86586837D02*
X98092971Y-87221837D01*
X93217960Y-95115154D02*
X93707960Y-95605154D01*
X93217961Y-92096849D02*
X93217960Y-95115154D01*
X98092971Y-87221837D02*
X93217961Y-92096849D01*
X93707960Y-95605154D02*
X93707960Y-98941200D01*
X93707960Y-98941200D02*
X91987280Y-100661880D01*
X89993880Y-100661880D02*
X89408000Y-100076000D01*
X91987280Y-100661880D02*
X89993880Y-100661880D01*
X66550999Y-117940901D02*
X66550999Y-119079901D01*
X76495588Y-117221000D02*
X67270900Y-117221000D01*
X67270900Y-117221000D02*
X66550999Y-117940901D01*
X82871600Y-114230990D02*
X79485598Y-114230990D01*
X84062982Y-107323198D02*
X84062981Y-113039609D01*
X84062981Y-113039609D02*
X82871600Y-114230990D01*
X85595180Y-105791000D02*
X84062982Y-107323198D01*
X88133770Y-105791000D02*
X85595180Y-105791000D01*
X79485598Y-114230990D02*
X76495588Y-117221000D01*
X89438897Y-104485873D02*
X88133770Y-105791000D01*
X89438897Y-102286900D02*
X89438897Y-104485873D01*
X88519000Y-62674500D02*
X81470500Y-55626000D01*
X81470500Y-55626000D02*
X80518000Y-55626000D01*
X80518000Y-55626000D02*
X79883000Y-54991000D01*
X79883000Y-54991000D02*
X79883000Y-54356000D01*
X90678000Y-103883180D02*
X90678000Y-102286900D01*
X88189289Y-106371891D02*
X90678000Y-103883180D01*
X85650699Y-106371891D02*
X88189289Y-106371891D01*
X84512991Y-107509599D02*
X85650699Y-106371891D01*
X84512990Y-113226010D02*
X84512991Y-107509599D01*
X83058000Y-114681000D02*
X84512990Y-113226010D01*
X75290498Y-119062500D02*
X79671998Y-114681000D01*
X79671998Y-114681000D02*
X83058000Y-114681000D01*
X69469000Y-119062500D02*
X75290498Y-119062500D01*
X89725500Y-63881000D02*
X88519000Y-62674500D01*
X97642961Y-87035439D02*
X97642961Y-65132371D01*
X92767951Y-95301553D02*
X92767952Y-91910448D01*
X97642961Y-65132371D02*
X96391590Y-63881000D01*
X93218000Y-95751604D02*
X92767951Y-95301553D01*
X96391590Y-63881000D02*
X89725500Y-63881000D01*
X92767952Y-91910448D02*
X97642961Y-87035439D01*
X93218000Y-98794750D02*
X93218000Y-95751604D01*
X91313000Y-100076000D02*
X91936750Y-100076000D01*
X91936750Y-100076000D02*
X93218000Y-98794750D01*
X90678000Y-99441000D02*
X91313000Y-100076000D01*
X75995739Y-55548739D02*
X74803000Y-54356000D01*
X76821239Y-55548739D02*
X75995739Y-55548739D01*
X83947000Y-62674500D02*
X76821239Y-55548739D01*
X90356990Y-69084490D02*
X83947000Y-62674500D01*
X90356990Y-69326176D02*
X90356990Y-69084490D01*
X91372990Y-94555010D02*
X91372990Y-70342176D01*
X87501590Y-94996000D02*
X90932000Y-94996000D01*
X91372990Y-70342176D02*
X90356990Y-69326176D01*
X86046600Y-96450990D02*
X87501590Y-94996000D01*
X80362910Y-96450990D02*
X86046600Y-96450990D01*
X79388011Y-93572501D02*
X79388011Y-95476091D01*
X79248000Y-93432490D02*
X79388011Y-93572501D01*
X90932000Y-94996000D02*
X91372990Y-94555010D01*
X79388011Y-95476091D02*
X80362910Y-96450990D01*
X75311000Y-92075000D02*
X74676000Y-91440000D01*
X75311000Y-92671900D02*
X75311000Y-92075000D01*
X79248000Y-92513685D02*
X79248000Y-93432490D01*
X78740000Y-92005685D02*
X79248000Y-92513685D01*
X78740000Y-91440000D02*
X78740000Y-92005685D01*
X66603999Y-99770139D02*
X67169239Y-99204899D01*
X66603999Y-100020001D02*
X66603999Y-99770139D01*
X66332100Y-100291900D02*
X66603999Y-100020001D01*
X74223999Y-99204899D02*
X75311000Y-100291900D01*
X67169239Y-99204899D02*
X74223999Y-99204899D01*
X65151000Y-100291900D02*
X66332100Y-100291900D01*
X123698000Y-86741000D02*
X128143000Y-91186000D01*
X128143000Y-91186000D02*
X128778000Y-91186000D01*
X123698000Y-42735500D02*
X123698000Y-86741000D01*
X124841000Y-41592500D02*
X123698000Y-42735500D01*
X128968500Y-91186000D02*
X140843000Y-103060500D01*
X128778000Y-91186000D02*
X128968500Y-91186000D01*
X87593001Y-97884001D02*
X87216001Y-98261001D01*
X87593001Y-97187999D02*
X87593001Y-97884001D01*
X87575108Y-97170106D02*
X87593001Y-97187999D01*
X87575108Y-96811000D02*
X87575108Y-97170106D01*
X78214101Y-99204899D02*
X76398001Y-99204899D01*
X76398001Y-99204899D02*
X75311000Y-100291900D01*
X79157999Y-98261001D02*
X78214101Y-99204899D01*
X87216001Y-98261001D02*
X79157999Y-98261001D01*
X94597999Y-120286001D02*
X95758000Y-119126000D01*
X88897698Y-119062500D02*
X90121199Y-120286001D01*
X90121199Y-120286001D02*
X94597999Y-120286001D01*
X86741000Y-119062500D02*
X88897698Y-119062500D01*
X76763999Y-106824899D02*
X77851000Y-107911900D01*
X74789239Y-106824899D02*
X76763999Y-106824899D01*
X73702238Y-107911900D02*
X74789239Y-106824899D01*
X67691000Y-107911900D02*
X73702238Y-107911900D01*
X85837099Y-106821901D02*
X88375689Y-106821901D01*
X84963000Y-116461302D02*
X84963000Y-107696000D01*
X93092143Y-102105447D02*
X93092143Y-101855143D01*
X88375689Y-106821901D02*
X93092143Y-102105447D01*
X84963000Y-107696000D02*
X85837099Y-106821901D01*
X86741000Y-118239302D02*
X84963000Y-116461302D01*
X86741000Y-119062500D02*
X86741000Y-118239302D01*
X117348000Y-49911000D02*
X119761000Y-47498000D01*
X119761000Y-47498000D02*
X119761000Y-44958000D01*
X100195999Y-56903001D02*
X107188000Y-49911000D01*
X100195999Y-88018001D02*
X100195999Y-56903001D01*
X107188000Y-49911000D02*
X117348000Y-49911000D01*
X95267999Y-92946001D02*
X100195999Y-88018001D01*
X95267999Y-94266001D02*
X95267999Y-92946001D01*
X95267999Y-101886001D02*
X95267999Y-100805999D01*
X95758000Y-102376002D02*
X95267999Y-101886001D01*
X95758000Y-100315998D02*
X95758000Y-94756002D01*
X119761000Y-44958000D02*
X119761000Y-41592500D01*
X95267999Y-100805999D02*
X95758000Y-100315998D01*
X95758000Y-94756002D02*
X95267999Y-94266001D01*
X95758000Y-114046000D02*
X95758000Y-102376002D01*
X78603989Y-108664889D02*
X77851000Y-107911900D01*
X82423000Y-106700398D02*
X82423000Y-107517814D01*
X85177408Y-103945990D02*
X82423000Y-106700398D01*
X85237398Y-103945990D02*
X85177408Y-103945990D01*
X81275925Y-108664889D02*
X78603989Y-108664889D01*
X86653000Y-103178892D02*
X86653000Y-103744577D01*
X85237398Y-103886000D02*
X85237398Y-103945990D01*
X86511577Y-103886000D02*
X85237398Y-103886000D01*
X82423000Y-107517814D02*
X81275925Y-108664889D01*
X86653000Y-103744577D02*
X86511577Y-103886000D01*
X90121199Y-117746001D02*
X92057999Y-117746001D01*
X92057999Y-117746001D02*
X93218000Y-116586000D01*
X88897698Y-116522500D02*
X90121199Y-117746001D01*
X86741000Y-116522500D02*
X88897698Y-116522500D01*
X74789239Y-104284899D02*
X76763999Y-104284899D01*
X73702238Y-105371900D02*
X74789239Y-104284899D01*
X76763999Y-104284899D02*
X77851000Y-105371900D01*
X67691000Y-105371900D02*
X73702238Y-105371900D01*
X93817144Y-101310144D02*
X93214490Y-100707490D01*
X93853000Y-102167288D02*
X93853000Y-101346000D01*
X93440144Y-102580144D02*
X93853000Y-102167288D01*
X85580999Y-107714411D02*
X86023499Y-107271911D01*
X86023499Y-107271911D02*
X88562089Y-107271911D01*
X85598000Y-114556302D02*
X85580999Y-114539301D01*
X93853000Y-101346000D02*
X93817144Y-101310144D01*
X88562089Y-107271911D02*
X93253856Y-102580144D01*
X85580999Y-114539301D02*
X85580999Y-107714411D01*
X93253856Y-102580144D02*
X93440144Y-102580144D01*
X85598000Y-115379500D02*
X85598000Y-114556302D01*
X86741000Y-116522500D02*
X85598000Y-115379500D01*
X117345698Y-37211000D02*
X118618000Y-37211000D01*
X116060999Y-38495699D02*
X117345698Y-37211000D01*
X116078000Y-39626302D02*
X116060999Y-39609301D01*
X116078000Y-41021000D02*
X116078000Y-39626302D01*
X116060999Y-41038001D02*
X116078000Y-41021000D01*
X116060999Y-39609301D02*
X116060999Y-38495699D01*
X115323018Y-48760982D02*
X116060999Y-48023001D01*
X116060999Y-48023001D02*
X116060999Y-41038001D01*
X94488000Y-99441000D02*
X94607980Y-99321020D01*
X98992990Y-87594638D02*
X98992990Y-56479638D01*
X118618000Y-37211000D02*
X119761000Y-38354000D01*
X94607980Y-95232354D02*
X94117979Y-94742353D01*
X106711646Y-48760982D02*
X115323018Y-48760982D01*
X98992990Y-56479638D02*
X106711646Y-48760982D01*
X94117979Y-92469649D02*
X98992990Y-87594638D01*
X94607980Y-99321020D02*
X94607980Y-95232354D01*
X94117979Y-94742353D02*
X94117979Y-92469649D01*
X94480980Y-99441000D02*
X94488000Y-99441000D01*
X119761000Y-38354000D02*
X119761000Y-39052500D01*
X93214490Y-100707490D02*
X94480980Y-99441000D01*
X77851000Y-106299000D02*
X77851000Y-105371900D01*
X86142890Y-102616000D02*
X85870988Y-102616000D01*
X79766879Y-108214879D02*
X77851000Y-106299000D01*
X81089525Y-108214879D02*
X79766879Y-108214879D01*
X81972991Y-107331413D02*
X81089525Y-108214879D01*
X93214490Y-100707490D02*
X92360080Y-101561900D01*
X85870988Y-102616000D02*
X81972991Y-106513997D01*
X86304999Y-102453891D02*
X86142890Y-102616000D01*
X87666316Y-102453891D02*
X86304999Y-102453891D01*
X81972991Y-106513997D02*
X81972991Y-107331413D01*
X88558307Y-101561900D02*
X87666316Y-102453891D01*
X92360080Y-101561900D02*
X88558307Y-101561900D01*
X67169239Y-101744899D02*
X74223999Y-101744899D01*
X74223999Y-101744899D02*
X75311000Y-102831900D01*
X66082238Y-102831900D02*
X67169239Y-101744899D01*
X65151000Y-102831900D02*
X66082238Y-102831900D01*
X123063000Y-42734090D02*
X123063000Y-86741000D01*
X123680999Y-42116091D02*
X123063000Y-42734090D01*
X123680999Y-40212501D02*
X123680999Y-42116091D01*
X118866683Y-90937317D02*
X117880499Y-90937317D01*
X123063000Y-86741000D02*
X118866683Y-90937317D01*
X124841000Y-39052500D02*
X123680999Y-40212501D01*
X88373001Y-96575999D02*
X88373001Y-97740411D01*
X88373001Y-97740411D02*
X87307412Y-98806000D01*
X88773000Y-96176000D02*
X88373001Y-96575999D01*
X76398001Y-101744899D02*
X75311000Y-102831900D01*
X78214101Y-101744899D02*
X76398001Y-101744899D01*
X81153000Y-98806000D02*
X78214101Y-101744899D01*
X87307412Y-98806000D02*
X81153000Y-98806000D01*
X88507980Y-102685229D02*
X88517554Y-102675655D01*
X98542980Y-86773238D02*
X98542981Y-56293237D01*
X98542981Y-56293237D02*
X106525246Y-48310972D01*
X106525246Y-42128254D02*
X107061000Y-41592500D01*
X106525246Y-48310972D02*
X106525246Y-42128254D01*
X88700885Y-100783115D02*
X88845115Y-100783115D01*
X83612972Y-112853208D02*
X83612973Y-107136797D01*
X83612973Y-107136797D02*
X85593770Y-105156000D01*
X82685200Y-113780980D02*
X83612972Y-112853208D01*
X76309188Y-116770990D02*
X79299198Y-113780980D01*
X88517554Y-104770806D02*
X88517554Y-102675655D01*
X66496908Y-116770990D02*
X76309188Y-116770990D01*
X79299198Y-113780980D02*
X82685200Y-113780980D01*
X88132360Y-105156000D02*
X88517554Y-104770806D01*
X85593770Y-105156000D02*
X88132360Y-105156000D01*
X64205398Y-119062500D02*
X66496908Y-116770990D01*
X63627000Y-119062500D02*
X64205398Y-119062500D01*
X92173680Y-101111890D02*
X89029660Y-101111890D01*
X94157970Y-99127600D02*
X92173680Y-101111890D01*
X93667969Y-94928753D02*
X94157970Y-95418754D01*
X89029660Y-101111890D02*
X88700885Y-100783115D01*
X93667970Y-92283248D02*
X93667969Y-94928753D01*
X98542980Y-87408238D02*
X93667970Y-92283248D01*
X94157970Y-95418754D02*
X94157970Y-99127600D01*
X98542980Y-86741000D02*
X98542980Y-87408238D01*
X88700885Y-100441887D02*
X88138000Y-99879002D01*
X88700885Y-100783115D02*
X88700885Y-100441887D01*
X89121001Y-95450999D02*
X88318001Y-95450999D01*
X89498001Y-95827999D02*
X89121001Y-95450999D01*
X89498001Y-97251821D02*
X89498001Y-95827999D01*
X88138000Y-98611822D02*
X89498001Y-97251821D01*
X88138000Y-99879002D02*
X88138000Y-98611822D01*
X87683001Y-96085999D02*
X87048001Y-96085999D01*
X88318001Y-95450999D02*
X87683001Y-96085999D01*
X87048001Y-96085999D02*
X86233000Y-96901000D01*
X78938001Y-93758901D02*
X77851000Y-92671900D01*
X78938001Y-95662491D02*
X78938001Y-93758901D01*
X80176510Y-96901000D02*
X78938001Y-95662491D01*
X86233000Y-96901000D02*
X80176510Y-96901000D01*
X107884198Y-39052500D02*
X109217698Y-40386000D01*
X107061000Y-39052500D02*
X107884198Y-39052500D01*
X110761001Y-41035699D02*
X110761001Y-41929303D01*
X110157801Y-40432499D02*
X110761001Y-41035699D01*
X109217698Y-40432499D02*
X110157801Y-40432499D01*
X110761001Y-41929303D02*
X111757698Y-42926000D01*
X109217698Y-40386000D02*
X109217698Y-40432499D01*
X111757698Y-42926000D02*
X114808000Y-42926000D01*
X115194347Y-43312347D02*
X115194347Y-47864348D01*
X114808000Y-42926000D02*
X115194347Y-43312347D01*
X80175100Y-97536000D02*
X77851000Y-95211900D01*
X86868000Y-97536000D02*
X80175100Y-97536000D01*
D25*
X117221000Y-41592500D02*
X117221000Y-39052500D01*
X116018010Y-49335990D02*
X117221000Y-48133000D01*
X117221000Y-44323000D02*
X117221000Y-41592500D01*
X106949824Y-49335990D02*
X116018010Y-49335990D01*
X86741000Y-108902500D02*
X88836500Y-108902500D01*
X99568000Y-56717814D02*
X106949824Y-49335990D01*
X94692989Y-92707825D02*
X99568000Y-87832814D01*
X99568000Y-87832814D02*
X99568000Y-56717814D01*
X94692989Y-94504177D02*
X94692989Y-92707825D01*
X95182990Y-100077822D02*
X95182990Y-94994178D01*
X117221000Y-48133000D02*
X117221000Y-44323000D01*
X94692989Y-103046011D02*
X94692989Y-100567823D01*
X88836500Y-108902500D02*
X94692989Y-103046011D01*
X94692989Y-100567823D02*
X95182990Y-100077822D01*
X95182990Y-94994178D02*
X94692989Y-94504177D01*
D26*
X72263000Y-42862500D02*
X72263000Y-44831000D01*
X72263000Y-44850998D02*
X71287999Y-45825999D01*
X72263000Y-44831000D02*
X72263000Y-44850998D01*
X94684998Y-49911000D02*
X97028000Y-52254002D01*
X99616269Y-52254002D02*
X99701916Y-52339649D01*
X97028000Y-52254002D02*
X99616269Y-52254002D01*
X94615000Y-49911000D02*
X94245019Y-49541019D01*
X94684998Y-49911000D02*
X94615000Y-49911000D01*
X94245019Y-49541019D02*
X82346436Y-49541018D01*
X81078429Y-48273011D02*
X76634838Y-48273010D01*
X82346436Y-49541018D02*
X81078429Y-48273011D01*
X76184829Y-47823001D02*
X73223001Y-47823001D01*
X73223001Y-47823001D02*
X73111001Y-47711001D01*
X76634838Y-48273010D02*
X76184829Y-47823001D01*
X71287999Y-47646001D02*
X71287999Y-45825999D01*
X71352999Y-47711001D02*
X71287999Y-47646001D01*
X73111001Y-47711001D02*
X71352999Y-47711001D01*
X70546198Y-42862500D02*
X69723000Y-42862500D01*
X71628000Y-43944302D02*
X70546198Y-42862500D01*
X71628000Y-44849588D02*
X71628000Y-43944302D01*
X70837989Y-45639599D02*
X71628000Y-44849588D01*
X94428599Y-50361009D02*
X94058618Y-49991028D01*
X82160035Y-49991027D02*
X80892028Y-48723020D01*
X94058618Y-49991028D02*
X82160035Y-49991027D01*
X94498598Y-50361010D02*
X94428599Y-50361009D01*
X96841600Y-52704012D02*
X94498598Y-50361010D01*
X98658010Y-52704012D02*
X96841600Y-52704012D01*
X98933000Y-52979002D02*
X98658010Y-52704012D01*
X80892028Y-48723020D02*
X76448437Y-48723019D01*
X76448437Y-48723019D02*
X75998429Y-48273011D01*
X73036600Y-48273010D02*
X72924601Y-48161011D01*
X75998429Y-48273011D02*
X73036600Y-48273010D01*
X70837989Y-47832401D02*
X70837989Y-45639599D01*
X71166598Y-48161010D02*
X70837989Y-47832401D01*
X72924601Y-48161011D02*
X71166598Y-48161010D01*
X68456542Y-44136042D02*
X67183000Y-42862500D01*
X69088000Y-44136042D02*
X68456542Y-44136042D01*
X71092196Y-48723018D02*
X70387979Y-48018801D01*
X70387979Y-48018801D02*
X70387979Y-45436021D01*
X70387979Y-45436021D02*
X69088000Y-44136042D01*
X98117098Y-53557213D02*
X97058391Y-53557213D01*
X81973634Y-50441036D02*
X80705627Y-49173029D01*
X76097029Y-49173029D02*
X75647020Y-48723020D01*
X80705627Y-49173029D02*
X76097029Y-49173029D01*
X93872217Y-50441037D02*
X81973634Y-50441036D01*
X97058391Y-53557213D02*
X94312196Y-50811018D01*
X94242198Y-50811018D02*
X93872217Y-50441037D01*
X75647020Y-48723020D02*
X71092196Y-48723018D01*
X94312196Y-50811018D02*
X94242198Y-50811018D01*
X87503000Y-42862500D02*
X89408000Y-44767500D01*
X89408000Y-44831000D02*
X89775989Y-45198989D01*
X89775989Y-45198989D02*
X94223810Y-45198990D01*
X89408000Y-44767500D02*
X89408000Y-44831000D01*
X96315792Y-47290972D02*
X96317203Y-47290973D01*
X94223810Y-45198990D02*
X96315792Y-47290972D01*
X98212229Y-49185999D02*
X100747999Y-49185999D01*
X96317203Y-47290973D02*
X98212229Y-49185999D01*
X100928001Y-50600215D02*
X100910108Y-50618108D01*
X100928001Y-49366001D02*
X100928001Y-50600215D01*
X100747999Y-49185999D02*
X100928001Y-49366001D01*
X90043000Y-42862500D02*
X90043000Y-44113980D01*
X90678000Y-44748980D02*
X94410211Y-44748981D01*
X90043000Y-44113980D02*
X90678000Y-44748980D01*
X96502194Y-46840964D02*
X96503604Y-46840964D01*
X94410211Y-44748981D02*
X96502194Y-46840964D01*
X101635109Y-50270107D02*
X101635109Y-50966109D01*
X101378011Y-50013009D02*
X101635109Y-50270107D01*
X100934400Y-48735990D02*
X101378011Y-49179601D01*
X101378011Y-49179601D02*
X101378011Y-50013009D01*
X98398629Y-48735989D02*
X100934400Y-48735990D01*
X96503604Y-46840964D02*
X98398629Y-48735989D01*
X101635109Y-51185841D02*
X101238975Y-51581975D01*
X101635109Y-50966109D02*
X101635109Y-51185841D01*
X96129392Y-47740982D02*
X96130802Y-47740982D01*
X94037409Y-45648999D02*
X96129392Y-47740982D01*
X88572697Y-45648999D02*
X94037409Y-45648999D01*
X85786198Y-42862500D02*
X88572697Y-45648999D01*
X84963000Y-42862500D02*
X85786198Y-42862500D01*
X98300820Y-49911000D02*
X100203000Y-49911000D01*
X96130802Y-47740982D02*
X98300820Y-49911000D01*
X76242238Y-90131900D02*
X77329239Y-89044899D01*
X77329239Y-89044899D02*
X78376899Y-89044899D01*
X75311000Y-90131900D02*
X76242238Y-90131900D01*
X79465001Y-91788001D02*
X79838021Y-92161021D01*
X79465001Y-90133001D02*
X79465001Y-91788001D01*
X78376899Y-89044899D02*
X79465001Y-90133001D01*
X79838021Y-92161021D02*
X79838021Y-95289691D01*
X79838021Y-95289691D02*
X80549310Y-96000980D01*
X87373180Y-94488000D02*
X90803590Y-94488000D01*
X85860200Y-96000980D02*
X87373180Y-94488000D01*
X80549310Y-96000980D02*
X85860200Y-96000980D01*
X90803590Y-94488000D02*
X90922980Y-94368610D01*
X108938744Y-43376010D02*
X111571298Y-43376010D01*
X108201621Y-42638887D02*
X108938744Y-43376010D01*
X111571298Y-43376010D02*
X114300000Y-43376010D01*
X114496010Y-43376010D02*
X114744337Y-43624337D01*
X114300000Y-43376010D02*
X114496010Y-43376010D01*
X114744337Y-47197514D02*
X114202143Y-47739708D01*
X114744337Y-43624337D02*
X114744337Y-47197514D01*
X116631078Y-50500922D02*
X116491166Y-50361010D01*
X117326230Y-50500922D02*
X116631078Y-50500922D01*
X117726229Y-50900921D02*
X117326230Y-50500922D01*
X116491166Y-50361010D02*
X107374400Y-50361010D01*
X107374400Y-50361010D02*
X105283705Y-52451705D01*
X105156000Y-57282498D02*
X105446001Y-57572499D01*
X105156000Y-52579410D02*
X105156000Y-57282498D01*
X105283705Y-52451705D02*
X105156000Y-52579410D01*
X105446001Y-60092501D02*
X104070502Y-61468000D01*
X105446001Y-57572499D02*
X105446001Y-60092501D01*
X101092000Y-61468000D02*
X100646009Y-61913991D01*
X104070502Y-61468000D02*
X101092000Y-61468000D01*
X100646009Y-80497010D02*
X100920999Y-80772000D01*
X100646009Y-61913991D02*
X100646009Y-80497010D01*
X96917961Y-82240039D02*
X92798000Y-86360000D01*
X96917961Y-81280000D02*
X96917961Y-82240039D01*
X90647990Y-87884000D02*
X90647990Y-89133010D01*
X90922980Y-89408000D02*
X90922980Y-94368610D01*
X90647990Y-89133010D02*
X90922980Y-89408000D01*
X83820000Y-91948000D02*
X83820000Y-89408000D01*
X75311000Y-85471000D02*
X75311000Y-85051900D01*
X75978901Y-86138901D02*
X75311000Y-85471000D01*
X80550901Y-86138901D02*
X75978901Y-86138901D01*
X83820000Y-89408000D02*
X80550901Y-86138901D01*
X82694999Y-84868001D02*
X82694999Y-84487010D01*
X88392000Y-90565002D02*
X82694999Y-84868001D01*
X82694999Y-84487010D02*
X81788000Y-83580011D01*
X88392000Y-91948000D02*
X88392000Y-90565002D01*
X79388011Y-76428911D02*
X77851000Y-74891900D01*
X79388011Y-77227601D02*
X79388011Y-76428911D01*
X81966846Y-79806436D02*
X79388011Y-77227601D01*
X81966846Y-80442846D02*
X81966846Y-79806436D01*
X83820000Y-73660000D02*
X82804000Y-72644000D01*
X78143100Y-72644000D02*
X77851000Y-72351900D01*
X82804000Y-72644000D02*
X78143100Y-72644000D01*
X85485002Y-73660000D02*
X83961002Y-72136000D01*
X88392000Y-73660000D02*
X85485002Y-73660000D01*
X83961002Y-72136000D02*
X79756000Y-72136000D01*
X78938001Y-65818901D02*
X77851000Y-64731900D01*
X78938001Y-71318001D02*
X78938001Y-65818901D01*
X79756000Y-72136000D02*
X78938001Y-71318001D01*
X82423000Y-44577000D02*
X81280000Y-45720000D01*
X82423000Y-42862500D02*
X82423000Y-44577000D01*
X73857011Y-50292000D02*
X73724388Y-50292000D01*
X74352990Y-49796021D02*
X73857011Y-50292000D01*
X74352990Y-49599010D02*
X74352990Y-49796021D01*
X74491329Y-49460671D02*
X74352990Y-49599010D01*
X74640643Y-49460671D02*
X74491329Y-49460671D01*
X73216388Y-50800000D02*
X72621826Y-50800000D01*
X72621826Y-50800000D02*
X72171816Y-51250010D01*
X73724388Y-50292000D02*
X73216388Y-50800000D01*
X71139222Y-51250010D02*
X68033232Y-54356000D01*
X72171816Y-51250010D02*
X71139222Y-51250010D01*
X65856536Y-54356000D02*
X65422535Y-54790001D01*
X65422535Y-54790001D02*
X64726533Y-54790001D01*
X68033232Y-54356000D02*
X65856536Y-54356000D01*
X63924670Y-53988138D02*
X63563032Y-53988137D01*
X64726533Y-54790001D02*
X63924670Y-53988138D01*
X62730350Y-53544350D02*
X62018000Y-52832000D01*
X63119245Y-53544350D02*
X62730350Y-53544350D01*
X63563032Y-53988137D02*
X63119245Y-53544350D01*
X62471062Y-55681801D02*
X62826000Y-55326863D01*
X62471062Y-57036738D02*
X62471062Y-55681801D01*
X63553802Y-57404000D02*
X63544064Y-57413738D01*
X63544064Y-57413738D02*
X62848062Y-57413738D01*
X64380600Y-57854010D02*
X63930590Y-57404000D01*
X65894127Y-57854011D02*
X64380600Y-57854010D01*
X66344138Y-57404000D02*
X65894127Y-57854011D01*
X70104000Y-60452000D02*
X67056000Y-57404000D01*
X73660000Y-83820000D02*
X70104000Y-80264000D01*
X62848062Y-57413738D02*
X62471062Y-57036738D01*
X67056000Y-57404000D02*
X66344138Y-57404000D01*
X83820000Y-84328000D02*
X83312000Y-83820000D01*
X78740000Y-83820000D02*
X73660000Y-83820000D01*
X70104000Y-80264000D02*
X70104000Y-60452000D01*
X79704989Y-82855011D02*
X78740000Y-83820000D01*
X63930590Y-57404000D02*
X63553802Y-57404000D01*
X82855011Y-82855011D02*
X79704989Y-82855011D01*
X83312000Y-83820000D02*
X83312000Y-83312000D01*
X83312000Y-83312000D02*
X82855011Y-82855011D01*
X79883000Y-44577000D02*
X78740000Y-45720000D01*
X79883000Y-42862500D02*
X79883000Y-44577000D01*
X88392000Y-81280000D02*
X87266999Y-80154999D01*
X78938001Y-76910139D02*
X78227862Y-76200000D01*
X78938001Y-77414001D02*
X78938001Y-76910139D01*
X87266999Y-80154999D02*
X83279999Y-80154999D01*
X83279999Y-80154999D02*
X82296000Y-81138998D01*
X82296000Y-81280000D02*
X82071019Y-81504981D01*
X82296000Y-81138998D02*
X82296000Y-81280000D01*
X79388011Y-77864011D02*
X78938001Y-77414001D01*
X79388011Y-80404011D02*
X79388011Y-77864011D01*
X80488981Y-81504981D02*
X79388011Y-80404011D01*
X82071019Y-81504981D02*
X80488981Y-81504981D01*
X78227862Y-76200000D02*
X73660000Y-76200000D01*
X73660000Y-76200000D02*
X72644000Y-75184000D01*
X72644000Y-75184000D02*
X71628000Y-74168000D01*
X71628000Y-74168000D02*
X71628000Y-64516000D01*
X73627989Y-49448020D02*
X73627989Y-49751989D01*
X73087978Y-50292000D02*
X72493416Y-50292000D01*
X73627989Y-49751989D02*
X73087978Y-50292000D01*
X72493416Y-50292000D02*
X71985416Y-50800000D01*
X70952822Y-50800000D02*
X67904822Y-53848000D01*
X71985416Y-50800000D02*
X70952822Y-50800000D01*
X71628000Y-60066770D02*
X71454027Y-59892797D01*
X71628000Y-64516000D02*
X71628000Y-60066770D01*
X71454027Y-59892797D02*
X68772615Y-57211385D01*
X65291534Y-53848000D02*
X65074534Y-54065000D01*
X67904822Y-53848000D02*
X65291534Y-53848000D01*
X68772615Y-57211385D02*
X67441230Y-55880000D01*
X65609918Y-56228990D02*
X65133809Y-56228990D01*
X65958908Y-55880000D02*
X65609918Y-56228990D01*
X67441230Y-55880000D02*
X65958908Y-55880000D01*
X77343000Y-44577000D02*
X76200000Y-45720000D01*
X77343000Y-42862500D02*
X77343000Y-44577000D01*
X63749433Y-53538128D02*
X63030654Y-52819349D01*
X64397739Y-53538128D02*
X63749433Y-53538128D01*
X64595867Y-53340000D02*
X64397739Y-53538128D01*
X70824412Y-50292000D02*
X67776412Y-53340000D01*
X72352986Y-49567014D02*
X72352986Y-49796020D01*
X71857006Y-50292000D02*
X70824412Y-50292000D01*
X72352986Y-49796020D02*
X71857006Y-50292000D01*
X67776412Y-53340000D02*
X64595867Y-53340000D01*
X72471981Y-49448019D02*
X72352986Y-49567014D01*
X72627988Y-49448019D02*
X72471981Y-49448019D01*
X63461316Y-56953990D02*
X63196063Y-56688737D01*
X66157738Y-56953990D02*
X65707727Y-57404001D01*
X67242400Y-56953990D02*
X66157738Y-56953990D01*
X70554009Y-60265599D02*
X67242400Y-56953990D01*
X70554010Y-60902010D02*
X70554009Y-60265599D01*
X64116990Y-56953990D02*
X63461316Y-56953990D01*
X70612000Y-60960000D02*
X70554010Y-60902010D01*
X64567001Y-57404001D02*
X64116990Y-56953990D01*
X70612000Y-80135590D02*
X70612000Y-60960000D01*
X71756410Y-81280000D02*
X70612000Y-80135590D01*
X79357001Y-82405001D02*
X78740000Y-81788000D01*
X78740000Y-81788000D02*
X78735862Y-81788000D01*
X78735862Y-81788000D02*
X78227862Y-81280000D01*
X86469001Y-82405001D02*
X79357001Y-82405001D01*
X65707727Y-57404001D02*
X64567001Y-57404001D01*
X78227862Y-81280000D02*
X71756410Y-81280000D01*
X88392000Y-84328000D02*
X86469001Y-82405001D01*
X74803000Y-42862500D02*
X74803000Y-44069000D01*
X73660000Y-45212000D02*
X73660000Y-45720000D01*
X74803000Y-44069000D02*
X73660000Y-45212000D01*
X78227862Y-78740000D02*
X73152000Y-78740000D01*
X83820000Y-81788000D02*
X83653009Y-81954991D01*
X83820000Y-81280000D02*
X83820000Y-81788000D01*
X83653009Y-81954991D02*
X79922991Y-81954991D01*
X78938001Y-79450139D02*
X78232000Y-78744138D01*
X78938001Y-80970001D02*
X78938001Y-79450139D01*
X79922991Y-81954991D02*
X78938001Y-80970001D01*
X72644000Y-78740000D02*
X71120000Y-77216000D01*
X73152000Y-78740000D02*
X72644000Y-78740000D01*
X71120000Y-77216000D02*
X71120000Y-60960000D01*
X71031983Y-49448019D02*
X67629001Y-52851001D01*
X71627985Y-49448019D02*
X71031983Y-49448019D01*
X71062010Y-60902010D02*
X71062010Y-60137190D01*
X71120000Y-60960000D02*
X71062010Y-60902010D01*
X71062010Y-60137190D02*
X71004018Y-60079198D01*
X71004018Y-60137190D02*
X71004018Y-60079198D01*
X71062010Y-60137190D02*
X71004018Y-60137190D01*
X64087612Y-52851001D02*
X64049738Y-52813127D01*
X67629001Y-52851001D02*
X64087612Y-52851001D01*
X67428800Y-56503980D02*
X65971338Y-56503980D01*
X64785808Y-56953991D02*
X64133806Y-56301989D01*
X65521327Y-56953991D02*
X64785808Y-56953991D01*
X65971338Y-56503980D02*
X65521327Y-56953991D01*
X64133806Y-56301989D02*
X64133806Y-56228990D01*
X71004018Y-60079198D02*
X67428800Y-56503980D01*
M02*
