M48
; DRILL file {KiCad (5.1.10-1-10_14)} date Tuesday, June 07, 2022 at 11:15:15 PM
; FORMAT={-:-/ absolute / inch / decimal}
; #@! TF.CreationDate,2022-06-07T23:15:15-07:00
; #@! TF.GenerationSoftware,Kicad,Pcbnew,(5.1.10-1-10_14)
FMAT,2
INCH
T1C0.0157
T2C0.0295
T3C0.0299
T4C0.0300
T5C0.0315
T6C0.0354
T7C0.0394
T8C0.0400
T9C0.0402
T10C0.1142
T11C0.1496
%
G90
G05
T1
X2.4417Y-2.08
X2.4735Y-2.1782
X2.4815Y-2.0795
X2.488Y-2.2318
X2.5216Y-2.0793
X2.525Y-2.2137
X2.562Y-2.1285
X2.5643Y-2.2137
X2.57Y-4.465
X2.82Y-1.9468
X2.8594Y-1.9468
X2.8987Y-1.9468
X2.9Y-1.8
X2.9315Y-4.415
X2.9386Y-1.9473
X2.94Y-3.6
X3.0Y-1.8
X3.1Y-1.8
X3.1Y-3.6
X3.2Y-1.8
X3.22Y-3.2906
X3.227Y-3.167
X3.4115Y-4.0622
X3.42Y-3.84
X3.445Y-4.09
X3.4478Y-3.8115
X3.4849Y-4.0423
X3.4922Y-3.9678
X3.495Y-3.7865
X3.5178Y-3.9005
X3.52Y-3.94
X3.5212Y-4.027
X3.5688Y-3.46
X3.57Y-3.915
X3.57Y-4.027
X3.6535Y-3.4
X3.665Y-4.01
X3.6812Y-4.1512
X3.8157Y-3.2
X3.82Y-2.015
X3.8511Y-2.465
X3.8629Y-2.1086
X3.87Y-2.015
X3.895Y-2.0858
X3.9094Y-2.015
X3.9253Y-2.0606
X3.945Y-1.965
X3.9728Y-1.9928
X3.9733Y-3.18
X3.9858Y-2.0308
X4.02Y-1.865
X4.0594Y-1.865
X4.0928Y-1.9628
X4.0987Y-1.865
X4.1206Y-1.9349
X4.1485Y-1.9071
X4.245Y-3.94
X4.2599Y-1.6787
X4.4961Y-1.8795
X4.5352Y-1.8844
X4.6349Y-2.004
T2
X4.62Y-2.5332
X4.62Y-2.5832
X4.62Y-2.6332
X5.0219Y-2.54
X5.0219Y-2.59
X5.0219Y-2.64
X5.445Y-2.54
X5.445Y-2.59
X5.445Y-2.64
T3
X2.845Y-1.84
T4
X2.845Y-2.14
X2.945Y-1.84
X2.945Y-2.14
X3.045Y-1.84
X3.045Y-2.14
X3.145Y-1.84
X3.145Y-2.14
X3.245Y-1.84
X3.245Y-2.14
X3.345Y-1.84
X3.345Y-2.14
X3.445Y-1.84
X3.445Y-2.14
X3.545Y-1.84
X3.545Y-2.14
T5
X3.3Y-2.9
X3.3Y-3.2
X3.3Y-3.32
X3.3Y-3.62
X3.305Y-2.4675
X3.305Y-2.7675
X3.48Y-2.9
X3.48Y-3.2
X3.48Y-3.32
X3.48Y-3.62
X3.485Y-2.4675
X3.485Y-2.7675
X3.685Y-2.4675
X3.685Y-2.7675
X4.265Y-2.04
X4.265Y-2.34
X4.27Y-3.44
X4.27Y-3.74
X4.295Y-2.84
X4.295Y-3.14
X4.415Y-2.04
X4.415Y-2.34
X4.42Y-2.44
X4.42Y-2.74
X4.551Y-2.8382
X4.551Y-3.1382
X4.565Y-2.04
X4.565Y-2.34
X4.641Y-3.2802
X4.641Y-3.5802
X4.734Y-2.8322
X4.734Y-3.1322
X4.92Y-2.265
X4.92Y-2.39
X4.9799Y-2.8426
X4.9799Y-3.1426
X5.07Y-3.29
X5.07Y-3.59
X5.1569Y-2.8416
X5.1569Y-3.1416
X5.22Y-2.265
X5.22Y-2.39
X5.446Y-2.8054
X5.446Y-3.1054
X5.45Y-3.2834
X5.45Y-3.5834
X5.545Y-4.0575
X5.545Y-4.3575
T6
X2.565Y-2.4485
X2.565Y-2.5485
X2.565Y-2.6485
X2.565Y-2.7485
X2.565Y-2.8485
X2.565Y-2.9485
X2.565Y-3.0485
X2.565Y-3.1485
X2.565Y-3.2485
X2.565Y-3.3485
X2.565Y-3.4485
X2.565Y-3.5485
X2.565Y-3.6485
X2.565Y-3.7485
X2.565Y-3.8485
X2.565Y-3.9485
X2.565Y-4.0485
X2.565Y-4.1485
X2.565Y-4.2485
X2.565Y-4.3485
X2.665Y-2.4485
X2.665Y-2.5485
X2.665Y-2.6485
X2.665Y-2.7485
X2.665Y-2.8485
X2.665Y-2.9485
X2.665Y-3.0485
X2.665Y-3.1485
X2.665Y-3.2485
X2.665Y-3.3485
X2.665Y-3.4485
X2.665Y-3.5485
X2.665Y-3.6485
X2.665Y-3.7485
X2.665Y-3.8485
X2.665Y-3.9485
X2.665Y-4.0485
X2.665Y-4.1485
X2.665Y-4.2485
X2.665Y-4.3485
X2.965Y-2.4485
X2.965Y-2.5485
X2.965Y-2.6485
X2.965Y-2.7485
X2.965Y-2.8485
X2.965Y-2.9485
X2.965Y-3.0485
X2.965Y-3.1485
X2.965Y-3.2485
X2.965Y-3.3485
X2.965Y-3.4485
X2.965Y-3.5485
X2.965Y-3.6485
X2.965Y-3.7485
X2.965Y-3.8485
X2.965Y-3.9485
X2.965Y-4.0485
X2.965Y-4.1485
X2.965Y-4.2485
X2.965Y-4.3485
X3.065Y-2.4485
X3.065Y-2.5485
X3.065Y-2.6485
X3.065Y-2.7485
X3.065Y-2.8485
X3.065Y-2.9485
X3.065Y-3.0485
X3.065Y-3.1485
X3.065Y-3.2485
X3.065Y-3.3485
X3.065Y-3.4485
X3.065Y-3.5485
X3.065Y-3.6485
X3.065Y-3.7485
X3.065Y-3.8485
X3.065Y-3.9485
X3.065Y-4.0485
X3.065Y-4.1485
X3.065Y-4.2485
X3.065Y-4.3485
T7
X2.645Y-1.3922
X2.645Y-1.6875
X2.745Y-1.3922
X2.745Y-1.6875
X2.845Y-1.3922
X2.845Y-1.6875
X2.945Y-1.3922
X2.945Y-1.6875
X3.045Y-1.3922
X3.045Y-1.6875
X3.145Y-1.3922
X3.145Y-1.6875
X3.245Y-1.3922
X3.245Y-1.6875
X3.345Y-1.3922
X3.345Y-1.6875
X3.445Y-1.3922
X3.445Y-1.6875
X3.545Y-1.3922
X3.545Y-1.6875
T8
X2.505Y-4.6875
X2.505Y-4.7875
X2.6201Y-4.6882
X2.6201Y-4.7882
X2.735Y-4.6875
X2.735Y-4.7875
T9
X3.415Y-4.2875
X3.415Y-4.3875
X3.415Y-4.4875
X3.415Y-4.5875
X3.415Y-4.6875
X3.415Y-4.7875
X3.57Y-4.49
X3.57Y-4.59
X3.57Y-4.69
X3.57Y-4.79
X3.67Y-4.49
X3.67Y-4.59
X3.67Y-4.69
X3.67Y-4.79
X3.77Y-4.49
X3.77Y-4.59
X3.77Y-4.69
X3.77Y-4.79
X4.115Y-1.5375
X4.115Y-1.6375
X4.215Y-1.5375
X4.215Y-1.6375
X4.315Y-1.5375
X4.315Y-1.6375
X4.415Y-1.5375
X4.415Y-1.6375
X4.515Y-1.5375
X4.515Y-1.6375
X4.615Y-1.5375
X4.615Y-1.6375
X4.715Y-1.5375
X4.715Y-1.6375
X4.815Y-1.5375
X4.815Y-1.6375
X4.915Y-1.5375
X4.915Y-1.6375
X5.015Y-1.5375
X5.015Y-1.6375
T10
X4.0481Y-2.3162
X4.0481Y-4.5997
X5.9772Y-2.3162
X5.9772Y-4.5997
T11
X2.595Y-1.94
X3.195Y-4.665
X4.82Y-4.09
X5.445Y-2.165
T0
M30
