G04 #@! TF.GenerationSoftware,KiCad,Pcbnew,(5.1.10-1-10_14)*
G04 #@! TF.CreationDate,2022-06-07T23:14:09-07:00*
G04 #@! TF.ProjectId,Control_Boards,436f6e74-726f-46c5-9f42-6f617264732e,rev?*
G04 #@! TF.SameCoordinates,Original*
G04 #@! TF.FileFunction,Soldermask,Bot*
G04 #@! TF.FilePolarity,Negative*
%FSLAX46Y46*%
G04 Gerber Fmt 4.6, Leading zero omitted, Abs format (unit mm)*
G04 Created by KiCad (PCBNEW (5.1.10-1-10_14)) date 2022-06-07 23:14:09*
%MOMM*%
%LPD*%
G01*
G04 APERTURE LIST*
%ADD10O,1.600000X1.600000*%
%ADD11C,1.600000*%
%ADD12C,1.670000*%
%ADD13R,1.670000X1.670000*%
%ADD14C,6.500000*%
%ADD15C,4.600000*%
%ADD16C,1.524000*%
%ADD17R,1.600000X1.600000*%
%ADD18R,1.300000X1.300000*%
%ADD19R,1.778000X1.778000*%
%ADD20C,1.778000*%
%ADD21R,1.524000X1.524000*%
%ADD22R,1.500000X1.050000*%
%ADD23O,1.500000X1.050000*%
G04 APERTURE END LIST*
D10*
X83820000Y-73660000D03*
D11*
X83820000Y-81280000D03*
D10*
X88392000Y-91948000D03*
D11*
X88392000Y-84328000D03*
D10*
X88392000Y-73660000D03*
D11*
X88392000Y-81280000D03*
D10*
X83820000Y-91948000D03*
D11*
X83820000Y-84328000D03*
D10*
X132588000Y-57531000D03*
D11*
X124968000Y-57531000D03*
D10*
X132588000Y-60706000D03*
D11*
X124968000Y-60706000D03*
D10*
X112268000Y-69596000D03*
D11*
X112268000Y-61976000D03*
D12*
X86741000Y-121602500D03*
X86741000Y-119062500D03*
X86741000Y-116522500D03*
X86741000Y-113982500D03*
X86741000Y-111442500D03*
D13*
X86741000Y-108902500D03*
D14*
X65913000Y-49276000D03*
X138303000Y-54991000D03*
X122428000Y-103886000D03*
X81153000Y-118491000D03*
D13*
X127381000Y-39052500D03*
D12*
X127381000Y-41592500D03*
X124841000Y-39052500D03*
X124841000Y-41592500D03*
X122301000Y-39052500D03*
X122301000Y-41592500D03*
X119761000Y-39052500D03*
X119761000Y-41592500D03*
X117221000Y-39052500D03*
X117221000Y-41592500D03*
X114681000Y-39052500D03*
X114681000Y-41592500D03*
X112141000Y-39052500D03*
X112141000Y-41592500D03*
X109601000Y-39052500D03*
X109601000Y-41592500D03*
X107061000Y-39052500D03*
X107061000Y-41592500D03*
X104521000Y-39052500D03*
X104521000Y-41592500D03*
X67183000Y-35362500D03*
X69723000Y-35362500D03*
X72263000Y-35362500D03*
X74803000Y-35362500D03*
X77343000Y-35362500D03*
X79883000Y-35362500D03*
X82423000Y-35362500D03*
X84963000Y-35362500D03*
X87503000Y-35362500D03*
X90043000Y-35362500D03*
X67183000Y-42862500D03*
X69723000Y-42862500D03*
X72263000Y-42862500D03*
X74803000Y-42862500D03*
X77343000Y-42862500D03*
X79883000Y-42862500D03*
X82423000Y-42862500D03*
X84963000Y-42862500D03*
X87503000Y-42862500D03*
D13*
X90043000Y-42862500D03*
D15*
X151821000Y-58832500D03*
X102821000Y-58832500D03*
X102821000Y-116832500D03*
X151821000Y-116832500D03*
D16*
X77851000Y-110451900D03*
X75311000Y-110451900D03*
X77851000Y-107911900D03*
X75311000Y-107911900D03*
X77851000Y-105371900D03*
X75311000Y-105371900D03*
X77851000Y-102831900D03*
X75311000Y-102831900D03*
X77851000Y-100291900D03*
X75311000Y-100291900D03*
X77851000Y-97751900D03*
X75311000Y-97751900D03*
X77851000Y-95211900D03*
X75311000Y-95211900D03*
X77851000Y-92671900D03*
X75311000Y-92671900D03*
X77851000Y-90131900D03*
X75311000Y-90131900D03*
X77851000Y-87591900D03*
X75311000Y-87591900D03*
X77851000Y-85051900D03*
X75311000Y-85051900D03*
X77851000Y-82511900D03*
X75311000Y-82511900D03*
X77851000Y-79971900D03*
X75311000Y-79971900D03*
X77851000Y-77431900D03*
X75311000Y-77431900D03*
X77851000Y-74891900D03*
X75311000Y-74891900D03*
X77851000Y-72351900D03*
X75311000Y-72351900D03*
X77851000Y-69811900D03*
X75311000Y-69811900D03*
X77851000Y-67271900D03*
X75311000Y-67271900D03*
X77851000Y-64731900D03*
X75311000Y-64731900D03*
X77851000Y-62191900D03*
X75311000Y-62191900D03*
X67691000Y-110451900D03*
X65151000Y-110451900D03*
X67691000Y-107911900D03*
X65151000Y-107911900D03*
X67691000Y-105371900D03*
X65151000Y-105371900D03*
X67691000Y-102831900D03*
X65151000Y-102831900D03*
X67691000Y-100291900D03*
X65151000Y-100291900D03*
X67691000Y-97751900D03*
X65151000Y-97751900D03*
X67691000Y-95211900D03*
X65151000Y-95211900D03*
X67691000Y-92671900D03*
X65151000Y-92671900D03*
X67691000Y-90131900D03*
X65151000Y-90131900D03*
X67691000Y-87591900D03*
X65151000Y-87591900D03*
X67691000Y-85051900D03*
X65151000Y-85051900D03*
X67691000Y-82511900D03*
X65151000Y-82511900D03*
X67691000Y-79971900D03*
X65151000Y-79971900D03*
X67691000Y-77431900D03*
X65151000Y-77431900D03*
X67691000Y-74891900D03*
X65151000Y-74891900D03*
X67691000Y-72351900D03*
X65151000Y-72351900D03*
X67691000Y-69811900D03*
X65151000Y-69811900D03*
X67691000Y-67271900D03*
X65151000Y-67271900D03*
X67691000Y-64731900D03*
X65151000Y-64731900D03*
X67691000Y-62191900D03*
X65151000Y-62191900D03*
D10*
X138430000Y-83398326D03*
D17*
X138430000Y-91018326D03*
D10*
X117880499Y-83317317D03*
D17*
X117880499Y-90937317D03*
D10*
X128778000Y-83566000D03*
D17*
X128778000Y-91186000D03*
D16*
X90043000Y-54356000D03*
X90043000Y-46736000D03*
X87503000Y-54356000D03*
X87503000Y-46736000D03*
X84963000Y-54356000D03*
X84963000Y-46736000D03*
X82423000Y-54356000D03*
X82423000Y-46736000D03*
X79883000Y-54356000D03*
X79883000Y-46736000D03*
X77343000Y-54356000D03*
X77343000Y-46736000D03*
X74803000Y-54356000D03*
X74803000Y-46736000D03*
X72263000Y-54356000D03*
D18*
X72263000Y-46736000D03*
D19*
X63627000Y-119062500D03*
D20*
X63627000Y-121602500D03*
D19*
X66550999Y-119079901D03*
D20*
X66550999Y-121619901D03*
D19*
X69469000Y-119062500D03*
D20*
X69469000Y-121602500D03*
D12*
X90678000Y-121666000D03*
X93218000Y-121666000D03*
X95758000Y-121666000D03*
X90678000Y-119126000D03*
X93218000Y-119126000D03*
X95758000Y-119126000D03*
X90678000Y-116586000D03*
X93218000Y-116586000D03*
X95758000Y-116586000D03*
X90678000Y-114046000D03*
D21*
X95758000Y-114046000D03*
D12*
X93218000Y-114046000D03*
D22*
X138303000Y-67056000D03*
D23*
X138303000Y-64516000D03*
X138303000Y-65786000D03*
D22*
X117347099Y-66883517D03*
D23*
X117347099Y-64343517D03*
X117347099Y-65613517D03*
D22*
X127555084Y-67056000D03*
D23*
X127555084Y-64516000D03*
X127555084Y-65786000D03*
D10*
X109093000Y-79756000D03*
D11*
X109093000Y-72136000D03*
D10*
X140843000Y-103060500D03*
D11*
X140843000Y-110680500D03*
D10*
X83947000Y-70294500D03*
D11*
X83947000Y-62674500D03*
D10*
X88519000Y-70294500D03*
D11*
X88519000Y-62674500D03*
D10*
X93599000Y-70294500D03*
D11*
X93599000Y-62674500D03*
D10*
X138328400Y-78877126D03*
D11*
X138328400Y-71257126D03*
D10*
X120242699Y-79558117D03*
D11*
X120242699Y-71938117D03*
D10*
X130984084Y-79796250D03*
D11*
X130984084Y-72176250D03*
D10*
X108331000Y-51816000D03*
D11*
X108331000Y-59436000D03*
D10*
X112141000Y-51816000D03*
D11*
X112141000Y-59436000D03*
D10*
X115951000Y-51816000D03*
D11*
X115951000Y-59436000D03*
D10*
X115594499Y-79710517D03*
D11*
X115594499Y-72090517D03*
D10*
X126488284Y-79821650D03*
D11*
X126488284Y-72201650D03*
D10*
X108458000Y-87376000D03*
D11*
X108458000Y-94996000D03*
M02*
