M48
;DRILL file {KiCad (5.0.2)-1} date 2/6/2019 6:29:47 PM
;FORMAT={3:3/ absolute / metric / suppress leading zeros}
FMAT,2
METRIC,TZ
T1C0.400
T2C0.762
T3C1.000
T4C1.020
T5C1.200
T6C3.100
%
G90
G05
T1
X25781Y13843
X26543Y13144
X27178Y28639
X27432Y13907
X28258Y29591
X37592Y29337
X38354Y32830
T2
X58610Y25781
X58610Y23241
X58610Y20701
X61150Y25781
X61150Y23241
X61150Y20701
T3
X21336Y40640
X23876Y40640
X26416Y40640
X28956Y40640
X31496Y40640
X34036Y40640
X30480Y10160
X33020Y10160
X35560Y10160
X38100Y10160
X40640Y10160
X43180Y10160
X10414Y23305
X10414Y20765
X12954Y23305
X12954Y20765
X15494Y23305
X15494Y20765
X18034Y23305
X18034Y20765
X20574Y23305
X20574Y20765
X23114Y23305
X23114Y20765
X25654Y23305
X25654Y20765
X28194Y23305
X28194Y20765
X46355Y10160
X48895Y10160
X51435Y10160
X53975Y10160
X56515Y10160
X59055Y10160
T4
X18796Y50800
X21336Y50800
X23876Y50800
X26416Y50800
X27940Y2540
X28956Y50800
X30480Y2540
X31496Y50800
X33020Y2540
X34036Y50800
X35560Y2540
X36576Y50800
X38100Y2540
X39116Y50800
X40640Y2540
X41656Y50800
X43180Y2540
X45720Y50800
X45720Y2540
X48260Y50800
X50800Y50800
X50800Y2540
X53340Y50800
X53340Y2540
X55880Y50800
X55880Y2540
X58420Y50800
X58420Y2540
X60960Y50800
X60960Y2540
X63500Y50800
X63500Y2540
T5
X6096Y40140
X6096Y36640
T6
X13970Y2540
X15240Y50800
X66040Y35560
X66040Y7620
T0
M30
