M48
;DRILL file {KiCad (5.0.2)-1} date 7/25/2019 5:18:19 PM
;FORMAT={3:3/ absolute / metric / suppress leading zeros}
FMAT,2
METRIC,TZ
T1C0.400
T2C0.600
T3C0.762
T4C0.800
T5C0.900
T6C0.920
T7C1.000
T8C1.020
T9C1.200
T10C1.300
T11C2.180
T12C2.300
T13C2.400
T14C2.900
T15C3.800
%
G90
G05
T1
X-127Y49848
X-64Y113030
X1207Y131318
X15494Y99060
X15494Y89154
X17272Y134557
X17463Y135954
X18796Y97282
X18796Y85217
X19528Y22767
X20511Y22035
X25310Y97599
X26453Y96451
X27178Y97346
X28003Y96457
X28003Y31242
X28385Y76200
X28729Y97409
X28892Y30290
X28956Y145351
X29591Y96584
X30290Y146431
X30416Y76200
X32067Y121412
X32067Y118237
X32816Y99904
X32893Y100902
X33020Y36576
X33020Y33528
X33211Y80899
X33528Y78613
X34486Y80885
X34798Y77280
X35306Y43561
X35369Y65977
X35560Y80836
X36068Y106934
X36662Y80799
X37021Y65913
X37065Y107005
X37084Y43561
X37846Y80772
X38417Y78613
X39053Y80772
X39561Y77280
X39624Y36576
X44005Y66548
X44815Y67437
X45540Y66548
X45974Y33401
X46265Y67373
X46990Y66421
X47715Y67373
X48578Y66548
X49467Y67373
X57594Y149352
X58547Y62802
X58738Y149415
X59563Y61849
X61532Y60262
X63373Y20257
X63437Y19114
X65913Y100609
X71882Y55245
X71882Y33719
X72581Y34862
X72581Y32385
X72707Y37021
X72898Y56198
X75756Y37084
X75756Y34735
X75819Y32576
X75819Y30226
X82271Y151308
X83820Y160274
X83820Y156401
X85598Y100609
X87313Y61442
X89383Y12979
X89916Y64008
X90488Y60008
X91250Y58928
X92266Y156210
X92519Y157353
X92774Y158877
X93472Y64453
X95885Y64453
X98933Y63119
X102108Y93218
X103759Y93282
X104203Y19177
X104267Y20257
X106045Y66421
X106617Y84201
X106871Y65342
X107479Y64298
X107696Y84201
X107823Y83122
X108836Y83109
X112586Y76391
X113919Y88773
X113919Y61532
X114681Y88075
X114744Y62484
X114872Y60807
X114935Y117348
X115062Y121920
X115443Y88964
X119634Y36957
X119698Y41275
X119761Y43688
X119951Y64961
X119951Y62992
X120142Y143891
X120650Y142748
X121412Y32195
X123698Y36893
X125349Y49848
X125413Y30544
X126174Y49085
X126174Y31242
X127000Y49848
X127000Y30544
X127762Y49149
X127762Y31242
X129096Y31306
X131128Y55436
X131128Y54356
X131509Y41910
X133350Y79756
X136525Y117983
X136779Y12510
X138112Y55436
X138112Y54293
X138621Y38989
X139891Y62992
X140526Y24003
X147066Y41656
X147701Y40577
X148463Y82106
X150876Y84011
T2
X30734Y128778
X35306Y126492
X35306Y40132
X37084Y40132
T3
X22784Y8547
X24784Y8547
X26784Y8547
X28784Y8547
X30784Y8547
X32784Y8547
X21209Y14669
X23749Y14669
X26289Y14669
X28829Y14669
X31369Y14669
X33909Y14669
T4
X65811Y103353
X85484Y103353
X132834Y41092
X107506Y29401
X115126Y29401
X75756Y53213
X75756Y45593
X96393Y25971
X104013Y25971
X107887Y43371
X115506Y43371
X79057Y53213
X79057Y45593
X20765Y156655
X28385Y156655
X107823Y53721
X115443Y53721
X107823Y35624
X115443Y35624
X96711Y35687
X104331Y35687
X135509Y108268
X135509Y100648
X96329Y53848
X103949Y53848
X96329Y43180
X103949Y43180
X109982Y97409
X109982Y89789
X24384Y124397
X32004Y124397
X107506Y26098
X115126Y26098
X96393Y29464
X104013Y29464
X16447Y42037
X24066Y42037
X96329Y49657
X103949Y49657
X127444Y149289
X135064Y149289
X135382Y127635
X135382Y120015
X138100Y83680
X138100Y76060
X112014Y166307
X119634Y166307
X22289Y98743
X22289Y91123
X107823Y49657
X115443Y49657
X129731Y49911
X129731Y42291
X14732Y149479
X14732Y141859
X16256Y26353
X16256Y18733
T5
X116903Y130801
X116903Y128261
X116903Y125721
X116903Y123181
X116903Y120641
X116903Y118101
X116903Y115561
X116903Y113021
X116903Y110481
X116903Y107941
X116903Y105401
X116903Y102861
X116903Y100321
X116903Y97781
X116903Y95241
X116903Y92701
X116903Y90161
X116903Y87621
X116903Y85081
X116903Y82541
X119443Y130801
X119443Y128261
X119443Y125721
X119443Y123181
X119443Y120641
X119443Y118101
X119443Y115561
X119443Y113021
X119443Y110481
X119443Y107941
X119443Y105401
X119443Y102861
X119443Y100321
X119443Y97781
X119443Y95241
X119443Y92701
X119443Y90161
X119443Y87621
X119443Y85081
X119443Y82541
X128270Y130683
X128270Y128143
X128270Y125603
X128270Y123063
X128270Y120523
X128270Y117983
X128270Y115443
X128270Y112903
X128270Y110363
X128270Y107823
X128270Y105283
X128270Y102743
X128270Y100203
X128270Y97663
X128270Y95123
X128270Y92583
X128270Y90043
X128270Y87503
X128270Y84963
X128270Y82423
X130810Y130683
X130810Y128143
X130810Y125603
X130810Y123063
X130810Y120523
X130810Y117983
X130810Y115443
X130810Y112903
X130810Y110363
X130810Y107823
X130810Y105283
X130810Y102743
X130810Y100203
X130810Y97663
X130810Y95123
X130810Y92583
X130810Y90043
X130810Y87503
X130810Y84963
X130810Y82423
X98235Y162458
X103235Y162458
T6
X107473Y11748
X109973Y11748
X111973Y11748
X114473Y11748
X21265Y161036
X23765Y161036
X25765Y161036
X28265Y161036
T7
X98171Y168872
X103251Y168872
X83845Y50457
X83845Y42837
X86385Y50457
X86385Y42837
X88925Y50457
X88925Y42837
X91465Y50457
X91465Y42837
X83845Y36132
X83845Y28512
X86385Y36132
X86385Y28512
X88925Y36132
X88925Y28512
X91465Y36132
X91465Y28512
T8
X47215Y58071
X47215Y55531
X47215Y52991
X49755Y58071
X49755Y55531
X49755Y52991
X52295Y58071
X52295Y55531
X52295Y52991
X54835Y58071
X54835Y55531
X54835Y52991
X57375Y58071
X57375Y55531
X57375Y52991
X59915Y55531
X59915Y52991
X62455Y55531
X62455Y52991
X64995Y55531
X64995Y52991
X67535Y55531
X67535Y52991
X70075Y55531
X70075Y52991
X80928Y71723
X80928Y69183
X83468Y71723
X83468Y69183
X86008Y71723
X86008Y69183
X88548Y71723
X88548Y69183
X91088Y71723
X91088Y69183
X93628Y71723
X93628Y69183
X93628Y66643
X96168Y71723
X96168Y69183
X96168Y66643
X98708Y71723
X98708Y69183
X98708Y66643
X101248Y71723
X101248Y69183
X101248Y66643
X103788Y71723
X103788Y69183
X103788Y66643
X45945Y158020
X45945Y155480
X45945Y152940
X48485Y158020
X48485Y155480
X48485Y152940
X51025Y158020
X51025Y155480
X51025Y152940
X53565Y158020
X53565Y155480
X53565Y152940
X56105Y158020
X56105Y155480
X56105Y152940
X58645Y155480
X58645Y152940
X61185Y155480
X61185Y152940
X63725Y155480
X63725Y152940
X66265Y155480
X66265Y152940
X68805Y155480
X68805Y152940
X118047Y154925
X118047Y152385
X118047Y149845
X118047Y147305
X118047Y144765
X11782Y108363
X11782Y105823
X11782Y103283
X14322Y108363
X14322Y105823
X14322Y103283
X16862Y108363
X16862Y105823
X16862Y103283
X19402Y108363
X19402Y105823
X19402Y103283
X21942Y108363
X21942Y105823
X21942Y103283
X24482Y105823
X24482Y103283
X27022Y105823
X27022Y103283
X29562Y105823
X29562Y103283
X32102Y105823
X32102Y103283
X34642Y105823
X34642Y103283
X116742Y22066
X116742Y19526
X119282Y22066
X119282Y19526
X121822Y22066
X121822Y19526
X124362Y22066
X124362Y19526
X126902Y22066
X126902Y19526
X129442Y22066
X129442Y19526
X129442Y16986
X131982Y22066
X131982Y19526
X131982Y16986
X134522Y22066
X134522Y19526
X134522Y16986
X137062Y22066
X137062Y19526
X137062Y16986
X139602Y22066
X139602Y19526
X139602Y16986
X84963Y6858
X87503Y6858
X90043Y6858
X92583Y6858
X95123Y6858
T9
X144590Y153581
X144590Y150081
X144590Y146581
X144590Y143081
X144590Y139581
X144590Y136081
X7938Y36830
X7938Y33330
X7938Y29830
X7938Y26330
X7938Y22830
X7938Y19330
X48133Y107632
X51633Y107632
X55133Y107632
X58633Y107632
X62133Y107632
X65633Y107632
X7811Y95504
X7811Y92004
X7811Y88504
X7811Y85004
X7811Y81504
X7811Y78004
X8001Y59817
X8001Y56317
X8001Y52817
X8001Y49317
X8001Y45817
X8001Y42317
X50292Y7874
X53792Y7874
X57292Y7874
X60792Y7874
X64292Y7874
X67792Y7874
X118834Y68072
X122334Y68072
X125834Y68072
X129334Y68072
X132834Y68072
X136334Y68072
X144653Y130593
X144653Y127093
X144653Y123593
X144653Y120093
X144653Y116593
X144653Y113093
X6922Y132588
X6922Y129088
X6922Y125588
X6922Y122088
X6922Y118588
X6922Y115088
X15430Y57277
X18930Y57277
X22430Y57277
X25931Y57277
X29431Y57277
X32930Y57277
X144272Y49123
X144272Y45623
X144272Y42123
X144272Y38623
X144272Y35123
X144272Y31623
X6922Y155575
X6922Y152075
X6922Y148575
X6922Y145075
X6922Y141575
X6922Y138075
X86196Y117856
X89696Y117856
X93196Y117856
X96696Y117856
X100196Y117856
X103696Y117856
X75519Y4889
X79019Y4889
X144780Y84683
X144780Y81183
X144780Y77683
X144780Y74183
X144780Y70683
X144780Y67183
X144717Y107607
X144717Y104107
X144717Y100607
X144717Y97107
X144717Y93607
X144717Y90107
T10
X130556Y7366
X135636Y7366
X83757Y164973
X88837Y164973
X128207Y165227
X133286Y165227
T11
X85993Y21088
X99193Y7888
T12
X104403Y9038
X117543Y9038
X18195Y163746
X31335Y163746
T13
X118876Y158455
X134876Y144955
T14
X74168Y108458
X74168Y65913
X110617Y108458
X110617Y65913
X39116Y158750
X39116Y116205
X75565Y158750
X75565Y116205
X4953Y109093
X4953Y66548
X41402Y109093
X41402Y66548
X18867Y125976
X18867Y67977
X67867Y125976
X67867Y67977
X109982Y58801
X109982Y16256
X146431Y58801
X146431Y16256
X40386Y58801
X40386Y16256
X76835Y58801
X76835Y16256
T15
X146602Y5850
X5380Y5850
X5380Y166228
X146620Y166140
T0
M30
