G04 #@! TF.GenerationSoftware,KiCad,Pcbnew,(5.0.2)-1*
G04 #@! TF.CreationDate,2019-07-25T17:09:51-07:00*
G04 #@! TF.ProjectId,Monolithic Board,4d6f6e6f-6c69-4746-9869-6320426f6172,rev?*
G04 #@! TF.SameCoordinates,Original*
G04 #@! TF.FileFunction,Legend,Bot*
G04 #@! TF.FilePolarity,Positive*
%FSLAX46Y46*%
G04 Gerber Fmt 4.6, Leading zero omitted, Abs format (unit mm)*
G04 Created by KiCad (PCBNEW (5.0.2)-1) date 7/25/2019 5:09:51 PM*
%MOMM*%
%LPD*%
G01*
G04 APERTURE LIST*
%ADD10C,0.100000*%
%ADD11C,0.300000*%
%ADD12C,0.150000*%
%ADD13C,0.500000*%
G04 APERTURE END LIST*
D10*
X88018880Y4548023D02*
X87018880Y4548023D01*
X88018880Y3976595D01*
X87018880Y3976595D01*
X86971261Y2786119D02*
X88256976Y3643261D01*
X87923642Y1881357D02*
X87971261Y1928976D01*
X88018880Y2071833D01*
X88018880Y2167071D01*
X87971261Y2309928D01*
X87876023Y2405166D01*
X87780785Y2452785D01*
X87590309Y2500404D01*
X87447452Y2500404D01*
X87256976Y2452785D01*
X87161738Y2405166D01*
X87066500Y2309928D01*
X87018880Y2167071D01*
X87018880Y2071833D01*
X87066500Y1928976D01*
X87114119Y1881357D01*
X92019500Y4254404D02*
X91971880Y4349642D01*
X91971880Y4492500D01*
X92019500Y4635357D01*
X92114738Y4730595D01*
X92209976Y4778214D01*
X92400452Y4825833D01*
X92543309Y4825833D01*
X92733785Y4778214D01*
X92829023Y4730595D01*
X92924261Y4635357D01*
X92971880Y4492500D01*
X92971880Y4397261D01*
X92924261Y4254404D01*
X92876642Y4206785D01*
X92543309Y4206785D01*
X92543309Y4397261D01*
X92971880Y3778214D02*
X91971880Y3778214D01*
X92971880Y3206785D01*
X91971880Y3206785D01*
X92971880Y2730595D02*
X91971880Y2730595D01*
X91971880Y2492500D01*
X92019500Y2349642D01*
X92114738Y2254404D01*
X92209976Y2206785D01*
X92400452Y2159166D01*
X92543309Y2159166D01*
X92733785Y2206785D01*
X92829023Y2254404D01*
X92924261Y2349642D01*
X92971880Y2492500D01*
X92971880Y2730595D01*
X85351880Y4548023D02*
X84351880Y4548023D01*
X85351880Y3976595D01*
X84351880Y3976595D01*
X84304261Y2786119D02*
X85589976Y3643261D01*
X85256642Y1881357D02*
X85304261Y1928976D01*
X85351880Y2071833D01*
X85351880Y2167071D01*
X85304261Y2309928D01*
X85209023Y2405166D01*
X85113785Y2452785D01*
X84923309Y2500404D01*
X84780452Y2500404D01*
X84589976Y2452785D01*
X84494738Y2405166D01*
X84399500Y2309928D01*
X84351880Y2167071D01*
X84351880Y2071833D01*
X84399500Y1928976D01*
X84447119Y1881357D01*
X95130928Y5000404D02*
X95130928Y4238500D01*
X95511880Y4619452D02*
X94749976Y4619452D01*
X95511880Y3238500D02*
X95511880Y3809928D01*
X95511880Y3524214D02*
X94511880Y3524214D01*
X94654738Y3619452D01*
X94749976Y3714690D01*
X94797595Y3809928D01*
X94607119Y2857547D02*
X94559500Y2809928D01*
X94511880Y2714690D01*
X94511880Y2476595D01*
X94559500Y2381357D01*
X94607119Y2333738D01*
X94702357Y2286119D01*
X94797595Y2286119D01*
X94940452Y2333738D01*
X95511880Y2905166D01*
X95511880Y2286119D01*
X94511880Y2000404D02*
X95511880Y1667071D01*
X94511880Y1333738D01*
X90098571Y4357547D02*
X90146190Y4214690D01*
X90193809Y4167071D01*
X90289047Y4119452D01*
X90431904Y4119452D01*
X90527142Y4167071D01*
X90574761Y4214690D01*
X90622380Y4309928D01*
X90622380Y4690880D01*
X89622380Y4690880D01*
X89622380Y4357547D01*
X89670000Y4262309D01*
X89717619Y4214690D01*
X89812857Y4167071D01*
X89908095Y4167071D01*
X90003333Y4214690D01*
X90050952Y4262309D01*
X90098571Y4357547D01*
X90098571Y4690880D01*
X90336666Y3738500D02*
X90336666Y3262309D01*
X90622380Y3833738D02*
X89622380Y3500404D01*
X90622380Y3167071D01*
X89622380Y2976595D02*
X89622380Y2405166D01*
X90622380Y2690880D02*
X89622380Y2690880D01*
X89622380Y2214690D02*
X89622380Y1643261D01*
X90622380Y1928976D02*
X89622380Y1928976D01*
D11*
X82921361Y18379461D02*
X82921361Y19522319D01*
X82921361Y18950890D02*
X80921361Y18950890D01*
X81207076Y19141366D01*
X81397552Y19331842D01*
X81492790Y19522319D01*
X81111838Y17617557D02*
X81016600Y17522319D01*
X80921361Y17331842D01*
X80921361Y16855652D01*
X81016600Y16665176D01*
X81111838Y16569938D01*
X81302314Y16474700D01*
X81492790Y16474700D01*
X81778504Y16569938D01*
X82921361Y17712795D01*
X82921361Y16474700D01*
X80921361Y15903271D02*
X82921361Y15236604D01*
X80921361Y14569938D01*
X82921361Y11236604D02*
X81968980Y11903271D01*
X82921361Y12379461D02*
X80921361Y12379461D01*
X80921361Y11617557D01*
X81016600Y11427080D01*
X81111838Y11331842D01*
X81302314Y11236604D01*
X81588028Y11236604D01*
X81778504Y11331842D01*
X81873742Y11427080D01*
X81968980Y11617557D01*
X81968980Y12379461D01*
X81873742Y10379461D02*
X81873742Y9712795D01*
X82921361Y9427080D02*
X82921361Y10379461D01*
X80921361Y10379461D01*
X80921361Y9427080D01*
X81016600Y7522319D02*
X80921361Y7712795D01*
X80921361Y7998509D01*
X81016600Y8284223D01*
X81207076Y8474700D01*
X81397552Y8569938D01*
X81778504Y8665176D01*
X82064219Y8665176D01*
X82445171Y8569938D01*
X82635647Y8474700D01*
X82826123Y8284223D01*
X82921361Y7998509D01*
X82921361Y7808033D01*
X82826123Y7522319D01*
X82730885Y7427080D01*
X82064219Y7427080D01*
X82064219Y7808033D01*
X103192600Y58571747D02*
X104025933Y59762223D01*
X104621171Y58571747D02*
X104621171Y61071747D01*
X103668790Y61071747D01*
X103430695Y60952700D01*
X103311647Y60833652D01*
X103192600Y60595557D01*
X103192600Y60238414D01*
X103311647Y60000319D01*
X103430695Y59881271D01*
X103668790Y59762223D01*
X104621171Y59762223D01*
X101644980Y61071747D02*
X101168790Y61071747D01*
X100930695Y60952700D01*
X100692600Y60714604D01*
X100573552Y60238414D01*
X100573552Y59405080D01*
X100692600Y58928890D01*
X100930695Y58690795D01*
X101168790Y58571747D01*
X101644980Y58571747D01*
X101883076Y58690795D01*
X102121171Y58928890D01*
X102240219Y59405080D01*
X102240219Y60238414D01*
X102121171Y60714604D01*
X101883076Y60952700D01*
X101644980Y61071747D01*
X98668790Y59881271D02*
X98311647Y59762223D01*
X98192600Y59643176D01*
X98073552Y59405080D01*
X98073552Y59047938D01*
X98192600Y58809842D01*
X98311647Y58690795D01*
X98549742Y58571747D01*
X99502123Y58571747D01*
X99502123Y61071747D01*
X98668790Y61071747D01*
X98430695Y60952700D01*
X98311647Y60833652D01*
X98192600Y60595557D01*
X98192600Y60357461D01*
X98311647Y60119366D01*
X98430695Y60000319D01*
X98668790Y59881271D01*
X99502123Y59881271D01*
X96525933Y61071747D02*
X96049742Y61071747D01*
X95811647Y60952700D01*
X95573552Y60714604D01*
X95454504Y60238414D01*
X95454504Y59405080D01*
X95573552Y58928890D01*
X95811647Y58690795D01*
X96049742Y58571747D01*
X96525933Y58571747D01*
X96764028Y58690795D01*
X97002123Y58928890D01*
X97121171Y59405080D01*
X97121171Y60238414D01*
X97002123Y60714604D01*
X96764028Y60952700D01*
X96525933Y61071747D01*
X92954504Y58809842D02*
X93073552Y58690795D01*
X93430695Y58571747D01*
X93668790Y58571747D01*
X94025933Y58690795D01*
X94264028Y58928890D01*
X94383076Y59166985D01*
X94502123Y59643176D01*
X94502123Y60000319D01*
X94383076Y60476509D01*
X94264028Y60714604D01*
X94025933Y60952700D01*
X93668790Y61071747D01*
X93430695Y61071747D01*
X93073552Y60952700D01*
X92954504Y60833652D01*
X90692600Y58571747D02*
X91883076Y58571747D01*
X91883076Y61071747D01*
X89978314Y59286033D02*
X88787838Y59286033D01*
X90216409Y58571747D02*
X89383076Y61071747D01*
X88549742Y58571747D01*
X87954504Y61071747D02*
X87359266Y58571747D01*
X86883076Y60357461D01*
X86406885Y58571747D01*
X85811647Y61071747D01*
X81883076Y60238414D02*
X81883076Y58571747D01*
X82478314Y61190795D02*
X83073552Y59405080D01*
X81525933Y59405080D01*
D10*
X34639095Y50220619D02*
X34639095Y51220619D01*
X34305761Y50506333D01*
X33972428Y51220619D01*
X33972428Y50220619D01*
X33543857Y51125380D02*
X33496238Y51173000D01*
X33401000Y51220619D01*
X33162904Y51220619D01*
X33067666Y51173000D01*
X33020047Y51125380D01*
X32972428Y51030142D01*
X32972428Y50934904D01*
X33020047Y50792047D01*
X33591476Y50220619D01*
X32972428Y50220619D01*
X32591476Y50506333D02*
X32115285Y50506333D01*
X32686714Y50220619D02*
X32353380Y51220619D01*
X32020047Y50220619D01*
X105441595Y123880619D02*
X105441595Y124880619D01*
X105108261Y124166333D01*
X104774928Y124880619D01*
X104774928Y123880619D01*
X103774928Y123880619D02*
X104346357Y123880619D01*
X104060642Y123880619D02*
X104060642Y124880619D01*
X104155880Y124737761D01*
X104251119Y124642523D01*
X104346357Y124594904D01*
X103393976Y124166333D02*
X102917785Y124166333D01*
X103489214Y123880619D02*
X103155880Y124880619D01*
X102822547Y123880619D01*
X101957023Y123880619D02*
X101957023Y124880619D01*
X101623690Y124166333D01*
X101290357Y124880619D01*
X101290357Y123880619D01*
X100290357Y123880619D02*
X100861785Y123880619D01*
X100576071Y123880619D02*
X100576071Y124880619D01*
X100671309Y124737761D01*
X100766547Y124642523D01*
X100861785Y124594904D01*
X99528452Y124404428D02*
X99385595Y124356809D01*
X99337976Y124309190D01*
X99290357Y124213952D01*
X99290357Y124071095D01*
X99337976Y123975857D01*
X99385595Y123928238D01*
X99480833Y123880619D01*
X99861785Y123880619D01*
X99861785Y124880619D01*
X99528452Y124880619D01*
X99433214Y124833000D01*
X99385595Y124785380D01*
X99337976Y124690142D01*
X99337976Y124594904D01*
X99385595Y124499666D01*
X99433214Y124452047D01*
X99528452Y124404428D01*
X99861785Y124404428D01*
X87407595Y123880619D02*
X87407595Y124880619D01*
X87074261Y124166333D01*
X86740928Y124880619D01*
X86740928Y123880619D01*
X86312357Y124785380D02*
X86264738Y124833000D01*
X86169500Y124880619D01*
X85931404Y124880619D01*
X85836166Y124833000D01*
X85788547Y124785380D01*
X85740928Y124690142D01*
X85740928Y124594904D01*
X85788547Y124452047D01*
X86359976Y123880619D01*
X85740928Y123880619D01*
X85359976Y124166333D02*
X84883785Y124166333D01*
X85455214Y123880619D02*
X85121880Y124880619D01*
X84788547Y123880619D01*
X96329547Y124277428D02*
X97091452Y124277428D01*
X96710500Y124658380D02*
X96710500Y123896476D01*
X93154547Y124277428D02*
X93916452Y124277428D01*
X91416023Y123880619D02*
X91416023Y124880619D01*
X91082690Y124166333D01*
X90749357Y124880619D01*
X90749357Y123880619D01*
X90320785Y124785380D02*
X90273166Y124833000D01*
X90177928Y124880619D01*
X89939833Y124880619D01*
X89844595Y124833000D01*
X89796976Y124785380D01*
X89749357Y124690142D01*
X89749357Y124594904D01*
X89796976Y124452047D01*
X90368404Y123880619D01*
X89749357Y123880619D01*
X88987452Y124404428D02*
X88844595Y124356809D01*
X88796976Y124309190D01*
X88749357Y124213952D01*
X88749357Y124071095D01*
X88796976Y123975857D01*
X88844595Y123928238D01*
X88939833Y123880619D01*
X89320785Y123880619D01*
X89320785Y124880619D01*
X88987452Y124880619D01*
X88892214Y124833000D01*
X88844595Y124785380D01*
X88796976Y124690142D01*
X88796976Y124594904D01*
X88844595Y124499666D01*
X88892214Y124452047D01*
X88987452Y124404428D01*
X89320785Y124404428D01*
X137763095Y73829919D02*
X137763095Y74829919D01*
X137429761Y74115633D01*
X137096428Y74829919D01*
X137096428Y73829919D01*
X136096428Y73829919D02*
X136667857Y73829919D01*
X136382142Y73829919D02*
X136382142Y74829919D01*
X136477380Y74687061D01*
X136572619Y74591823D01*
X136667857Y74544204D01*
X135715476Y74115633D02*
X135239285Y74115633D01*
X135810714Y73829919D02*
X135477380Y74829919D01*
X135144047Y73829919D01*
X134075323Y73779119D02*
X134075323Y74779119D01*
X133741990Y74064833D01*
X133408657Y74779119D01*
X133408657Y73779119D01*
X132408657Y73779119D02*
X132980085Y73779119D01*
X132694371Y73779119D02*
X132694371Y74779119D01*
X132789609Y74636261D01*
X132884847Y74541023D01*
X132980085Y74493404D01*
X131646752Y74302928D02*
X131503895Y74255309D01*
X131456276Y74207690D01*
X131408657Y74112452D01*
X131408657Y73969595D01*
X131456276Y73874357D01*
X131503895Y73826738D01*
X131599133Y73779119D01*
X131980085Y73779119D01*
X131980085Y74779119D01*
X131646752Y74779119D01*
X131551514Y74731500D01*
X131503895Y74683880D01*
X131456276Y74588642D01*
X131456276Y74493404D01*
X131503895Y74398166D01*
X131551514Y74350547D01*
X131646752Y74302928D01*
X131980085Y74302928D01*
X119919595Y73842619D02*
X119919595Y74842619D01*
X119586261Y74128333D01*
X119252928Y74842619D01*
X119252928Y73842619D01*
X118824357Y74747380D02*
X118776738Y74795000D01*
X118681500Y74842619D01*
X118443404Y74842619D01*
X118348166Y74795000D01*
X118300547Y74747380D01*
X118252928Y74652142D01*
X118252928Y74556904D01*
X118300547Y74414047D01*
X118871976Y73842619D01*
X118252928Y73842619D01*
X117871976Y74128333D02*
X117395785Y74128333D01*
X117967214Y73842619D02*
X117633880Y74842619D01*
X117300547Y73842619D01*
X128524047Y74175928D02*
X129285952Y74175928D01*
X128905000Y74556880D02*
X128905000Y73794976D01*
X125349047Y74175928D02*
X126110952Y74175928D01*
X123610523Y73779119D02*
X123610523Y74779119D01*
X123277190Y74064833D01*
X122943857Y74779119D01*
X122943857Y73779119D01*
X122515285Y74683880D02*
X122467666Y74731500D01*
X122372428Y74779119D01*
X122134333Y74779119D01*
X122039095Y74731500D01*
X121991476Y74683880D01*
X121943857Y74588642D01*
X121943857Y74493404D01*
X121991476Y74350547D01*
X122562904Y73779119D01*
X121943857Y73779119D01*
X121181952Y74302928D02*
X121039095Y74255309D01*
X120991476Y74207690D01*
X120943857Y74112452D01*
X120943857Y73969595D01*
X120991476Y73874357D01*
X121039095Y73826738D01*
X121134333Y73779119D01*
X121515285Y73779119D01*
X121515285Y74779119D01*
X121181952Y74779119D01*
X121086714Y74731500D01*
X121039095Y74683880D01*
X120991476Y74588642D01*
X120991476Y74493404D01*
X121039095Y74398166D01*
X121086714Y74350547D01*
X121181952Y74302928D01*
X121515285Y74302928D01*
X51403095Y1579619D02*
X51403095Y2579619D01*
X51069761Y1865333D01*
X50736428Y2579619D01*
X50736428Y1579619D01*
X49736428Y1579619D02*
X50307857Y1579619D01*
X50022142Y1579619D02*
X50022142Y2579619D01*
X50117380Y2436761D01*
X50212619Y2341523D01*
X50307857Y2293904D01*
X49355476Y1865333D02*
X48879285Y1865333D01*
X49450714Y1579619D02*
X49117380Y2579619D01*
X48784047Y1579619D01*
X55030523Y1579619D02*
X55030523Y2579619D01*
X54697190Y1865333D01*
X54363857Y2579619D01*
X54363857Y1579619D01*
X53363857Y1579619D02*
X53935285Y1579619D01*
X53649571Y1579619D02*
X53649571Y2579619D01*
X53744809Y2436761D01*
X53840047Y2341523D01*
X53935285Y2293904D01*
X52601952Y2103428D02*
X52459095Y2055809D01*
X52411476Y2008190D01*
X52363857Y1912952D01*
X52363857Y1770095D01*
X52411476Y1674857D01*
X52459095Y1627238D01*
X52554333Y1579619D01*
X52935285Y1579619D01*
X52935285Y2579619D01*
X52601952Y2579619D01*
X52506714Y2532000D01*
X52459095Y2484380D01*
X52411476Y2389142D01*
X52411476Y2293904D01*
X52459095Y2198666D01*
X52506714Y2151047D01*
X52601952Y2103428D01*
X52935285Y2103428D01*
X69437095Y1579619D02*
X69437095Y2579619D01*
X69103761Y1865333D01*
X68770428Y2579619D01*
X68770428Y1579619D01*
X68341857Y2484380D02*
X68294238Y2532000D01*
X68199000Y2579619D01*
X67960904Y2579619D01*
X67865666Y2532000D01*
X67818047Y2484380D01*
X67770428Y2389142D01*
X67770428Y2293904D01*
X67818047Y2151047D01*
X68389476Y1579619D01*
X67770428Y1579619D01*
X67389476Y1865333D02*
X66913285Y1865333D01*
X67484714Y1579619D02*
X67151380Y2579619D01*
X66818047Y1579619D01*
X58038952Y2087571D02*
X57277047Y2087571D01*
X57658000Y1706619D02*
X57658000Y2468523D01*
X61213952Y2087571D02*
X60452047Y2087571D01*
X65571523Y1579619D02*
X65571523Y2579619D01*
X65238190Y1865333D01*
X64904857Y2579619D01*
X64904857Y1579619D01*
X64476285Y2484380D02*
X64428666Y2532000D01*
X64333428Y2579619D01*
X64095333Y2579619D01*
X64000095Y2532000D01*
X63952476Y2484380D01*
X63904857Y2389142D01*
X63904857Y2293904D01*
X63952476Y2151047D01*
X64523904Y1579619D01*
X63904857Y1579619D01*
X63142952Y2103428D02*
X63000095Y2055809D01*
X62952476Y2008190D01*
X62904857Y1912952D01*
X62904857Y1770095D01*
X62952476Y1674857D01*
X63000095Y1627238D01*
X63095333Y1579619D01*
X63476285Y1579619D01*
X63476285Y2579619D01*
X63142952Y2579619D01*
X63047714Y2532000D01*
X63000095Y2484380D01*
X62952476Y2389142D01*
X62952476Y2293904D01*
X63000095Y2198666D01*
X63047714Y2151047D01*
X63142952Y2103428D01*
X63476285Y2103428D01*
X16605095Y50220619D02*
X16605095Y51220619D01*
X16271761Y50506333D01*
X15938428Y51220619D01*
X15938428Y50220619D01*
X14938428Y50220619D02*
X15509857Y50220619D01*
X15224142Y50220619D02*
X15224142Y51220619D01*
X15319380Y51077761D01*
X15414619Y50982523D01*
X15509857Y50934904D01*
X14557476Y50506333D02*
X14081285Y50506333D01*
X14652714Y50220619D02*
X14319380Y51220619D01*
X13986047Y50220619D01*
X20232523Y50220619D02*
X20232523Y51220619D01*
X19899190Y50506333D01*
X19565857Y51220619D01*
X19565857Y50220619D01*
X18565857Y50220619D02*
X19137285Y50220619D01*
X18851571Y50220619D02*
X18851571Y51220619D01*
X18946809Y51077761D01*
X19042047Y50982523D01*
X19137285Y50934904D01*
X17803952Y50744428D02*
X17661095Y50696809D01*
X17613476Y50649190D01*
X17565857Y50553952D01*
X17565857Y50411095D01*
X17613476Y50315857D01*
X17661095Y50268238D01*
X17756333Y50220619D01*
X18137285Y50220619D01*
X18137285Y51220619D01*
X17803952Y51220619D01*
X17708714Y51173000D01*
X17661095Y51125380D01*
X17613476Y51030142D01*
X17613476Y50934904D01*
X17661095Y50839666D01*
X17708714Y50792047D01*
X17803952Y50744428D01*
X18137285Y50744428D01*
X23240952Y50728571D02*
X22479047Y50728571D01*
X22860000Y50347619D02*
X22860000Y51109523D01*
X26415952Y50728571D02*
X25654047Y50728571D01*
X30773523Y50220619D02*
X30773523Y51220619D01*
X30440190Y50506333D01*
X30106857Y51220619D01*
X30106857Y50220619D01*
X29678285Y51125380D02*
X29630666Y51173000D01*
X29535428Y51220619D01*
X29297333Y51220619D01*
X29202095Y51173000D01*
X29154476Y51125380D01*
X29106857Y51030142D01*
X29106857Y50934904D01*
X29154476Y50792047D01*
X29725904Y50220619D01*
X29106857Y50220619D01*
X28344952Y50744428D02*
X28202095Y50696809D01*
X28154476Y50649190D01*
X28106857Y50553952D01*
X28106857Y50411095D01*
X28154476Y50315857D01*
X28202095Y50268238D01*
X28297333Y50220619D01*
X28678285Y50220619D01*
X28678285Y51220619D01*
X28344952Y51220619D01*
X28249714Y51173000D01*
X28202095Y51125380D01*
X28154476Y51030142D01*
X28154476Y50934904D01*
X28202095Y50839666D01*
X28249714Y50792047D01*
X28344952Y50744428D01*
X28678285Y50744428D01*
X59054952Y101528571D02*
X58293047Y101528571D01*
X55879952Y101528571D02*
X55118047Y101528571D01*
X55499000Y101147619D02*
X55499000Y101909523D01*
X67278095Y101020619D02*
X67278095Y102020619D01*
X66944761Y101306333D01*
X66611428Y102020619D01*
X66611428Y101020619D01*
X66182857Y101925380D02*
X66135238Y101973000D01*
X66040000Y102020619D01*
X65801904Y102020619D01*
X65706666Y101973000D01*
X65659047Y101925380D01*
X65611428Y101830142D01*
X65611428Y101734904D01*
X65659047Y101592047D01*
X66230476Y101020619D01*
X65611428Y101020619D01*
X65230476Y101306333D02*
X64754285Y101306333D01*
X65325714Y101020619D02*
X64992380Y102020619D01*
X64659047Y101020619D01*
X63412523Y101020619D02*
X63412523Y102020619D01*
X63079190Y101306333D01*
X62745857Y102020619D01*
X62745857Y101020619D01*
X62317285Y101925380D02*
X62269666Y101973000D01*
X62174428Y102020619D01*
X61936333Y102020619D01*
X61841095Y101973000D01*
X61793476Y101925380D01*
X61745857Y101830142D01*
X61745857Y101734904D01*
X61793476Y101592047D01*
X62364904Y101020619D01*
X61745857Y101020619D01*
X60983952Y101544428D02*
X60841095Y101496809D01*
X60793476Y101449190D01*
X60745857Y101353952D01*
X60745857Y101211095D01*
X60793476Y101115857D01*
X60841095Y101068238D01*
X60936333Y101020619D01*
X61317285Y101020619D01*
X61317285Y102020619D01*
X60983952Y102020619D01*
X60888714Y101973000D01*
X60841095Y101925380D01*
X60793476Y101830142D01*
X60793476Y101734904D01*
X60841095Y101639666D01*
X60888714Y101592047D01*
X60983952Y101544428D01*
X61317285Y101544428D01*
X52871523Y101020619D02*
X52871523Y102020619D01*
X52538190Y101306333D01*
X52204857Y102020619D01*
X52204857Y101020619D01*
X51204857Y101020619D02*
X51776285Y101020619D01*
X51490571Y101020619D02*
X51490571Y102020619D01*
X51585809Y101877761D01*
X51681047Y101782523D01*
X51776285Y101734904D01*
X50442952Y101544428D02*
X50300095Y101496809D01*
X50252476Y101449190D01*
X50204857Y101353952D01*
X50204857Y101211095D01*
X50252476Y101115857D01*
X50300095Y101068238D01*
X50395333Y101020619D01*
X50776285Y101020619D01*
X50776285Y102020619D01*
X50442952Y102020619D01*
X50347714Y101973000D01*
X50300095Y101925380D01*
X50252476Y101830142D01*
X50252476Y101734904D01*
X50300095Y101639666D01*
X50347714Y101592047D01*
X50442952Y101544428D01*
X50776285Y101544428D01*
X49244095Y101020619D02*
X49244095Y102020619D01*
X48910761Y101306333D01*
X48577428Y102020619D01*
X48577428Y101020619D01*
X47577428Y101020619D02*
X48148857Y101020619D01*
X47863142Y101020619D02*
X47863142Y102020619D01*
X47958380Y101877761D01*
X48053619Y101782523D01*
X48148857Y101734904D01*
X47196476Y101306333D02*
X46720285Y101306333D01*
X47291714Y101020619D02*
X46958380Y102020619D01*
X46625047Y101020619D01*
D11*
X142257800Y10057747D02*
X143091133Y11248223D01*
X143686371Y10057747D02*
X143686371Y12557747D01*
X142733990Y12557747D01*
X142495895Y12438700D01*
X142376847Y12319652D01*
X142257800Y12081557D01*
X142257800Y11724414D01*
X142376847Y11486319D01*
X142495895Y11367271D01*
X142733990Y11248223D01*
X143686371Y11248223D01*
X140710180Y12557747D02*
X140233990Y12557747D01*
X139995895Y12438700D01*
X139757800Y12200604D01*
X139638752Y11724414D01*
X139638752Y10891080D01*
X139757800Y10414890D01*
X139995895Y10176795D01*
X140233990Y10057747D01*
X140710180Y10057747D01*
X140948276Y10176795D01*
X141186371Y10414890D01*
X141305419Y10891080D01*
X141305419Y11724414D01*
X141186371Y12200604D01*
X140948276Y12438700D01*
X140710180Y12557747D01*
X137733990Y11367271D02*
X137376847Y11248223D01*
X137257800Y11129176D01*
X137138752Y10891080D01*
X137138752Y10533938D01*
X137257800Y10295842D01*
X137376847Y10176795D01*
X137614942Y10057747D01*
X138567323Y10057747D01*
X138567323Y12557747D01*
X137733990Y12557747D01*
X137495895Y12438700D01*
X137376847Y12319652D01*
X137257800Y12081557D01*
X137257800Y11843461D01*
X137376847Y11605366D01*
X137495895Y11486319D01*
X137733990Y11367271D01*
X138567323Y11367271D01*
X135591133Y12557747D02*
X135114942Y12557747D01*
X134876847Y12438700D01*
X134638752Y12200604D01*
X134519704Y11724414D01*
X134519704Y10891080D01*
X134638752Y10414890D01*
X134876847Y10176795D01*
X135114942Y10057747D01*
X135591133Y10057747D01*
X135829228Y10176795D01*
X136067323Y10414890D01*
X136186371Y10891080D01*
X136186371Y11724414D01*
X136067323Y12200604D01*
X135829228Y12438700D01*
X135591133Y12557747D01*
X132019704Y10295842D02*
X132138752Y10176795D01*
X132495895Y10057747D01*
X132733990Y10057747D01*
X133091133Y10176795D01*
X133329228Y10414890D01*
X133448276Y10652985D01*
X133567323Y11129176D01*
X133567323Y11486319D01*
X133448276Y11962509D01*
X133329228Y12200604D01*
X133091133Y12438700D01*
X132733990Y12557747D01*
X132495895Y12557747D01*
X132138752Y12438700D01*
X132019704Y12319652D01*
X129757800Y10057747D02*
X130948276Y10057747D01*
X130948276Y12557747D01*
X129043514Y10772033D02*
X127853038Y10772033D01*
X129281609Y10057747D02*
X128448276Y12557747D01*
X127614942Y10057747D01*
X127019704Y12557747D02*
X126424466Y10057747D01*
X125948276Y11843461D01*
X125472085Y10057747D01*
X124876847Y12557747D01*
X120710180Y10057747D02*
X122138752Y10057747D01*
X121424466Y10057747D02*
X121424466Y12557747D01*
X121662561Y12200604D01*
X121900657Y11962509D01*
X122138752Y11843461D01*
X67277000Y62686547D02*
X68110333Y63877023D01*
X68705571Y62686547D02*
X68705571Y65186547D01*
X67753190Y65186547D01*
X67515095Y65067500D01*
X67396047Y64948452D01*
X67277000Y64710357D01*
X67277000Y64353214D01*
X67396047Y64115119D01*
X67515095Y63996071D01*
X67753190Y63877023D01*
X68705571Y63877023D01*
X65729380Y65186547D02*
X65253190Y65186547D01*
X65015095Y65067500D01*
X64777000Y64829404D01*
X64657952Y64353214D01*
X64657952Y63519880D01*
X64777000Y63043690D01*
X65015095Y62805595D01*
X65253190Y62686547D01*
X65729380Y62686547D01*
X65967476Y62805595D01*
X66205571Y63043690D01*
X66324619Y63519880D01*
X66324619Y64353214D01*
X66205571Y64829404D01*
X65967476Y65067500D01*
X65729380Y65186547D01*
X62753190Y63996071D02*
X62396047Y63877023D01*
X62277000Y63757976D01*
X62157952Y63519880D01*
X62157952Y63162738D01*
X62277000Y62924642D01*
X62396047Y62805595D01*
X62634142Y62686547D01*
X63586523Y62686547D01*
X63586523Y65186547D01*
X62753190Y65186547D01*
X62515095Y65067500D01*
X62396047Y64948452D01*
X62277000Y64710357D01*
X62277000Y64472261D01*
X62396047Y64234166D01*
X62515095Y64115119D01*
X62753190Y63996071D01*
X63586523Y63996071D01*
X60610333Y65186547D02*
X60134142Y65186547D01*
X59896047Y65067500D01*
X59657952Y64829404D01*
X59538904Y64353214D01*
X59538904Y63519880D01*
X59657952Y63043690D01*
X59896047Y62805595D01*
X60134142Y62686547D01*
X60610333Y62686547D01*
X60848428Y62805595D01*
X61086523Y63043690D01*
X61205571Y63519880D01*
X61205571Y64353214D01*
X61086523Y64829404D01*
X60848428Y65067500D01*
X60610333Y65186547D01*
X57038904Y62924642D02*
X57157952Y62805595D01*
X57515095Y62686547D01*
X57753190Y62686547D01*
X58110333Y62805595D01*
X58348428Y63043690D01*
X58467476Y63281785D01*
X58586523Y63757976D01*
X58586523Y64115119D01*
X58467476Y64591309D01*
X58348428Y64829404D01*
X58110333Y65067500D01*
X57753190Y65186547D01*
X57515095Y65186547D01*
X57157952Y65067500D01*
X57038904Y64948452D01*
X54776999Y62686547D02*
X55967476Y62686547D01*
X55967476Y65186547D01*
X54062714Y63400833D02*
X52872238Y63400833D01*
X54300809Y62686547D02*
X53467476Y65186547D01*
X52634142Y62686547D01*
X52038904Y65186547D02*
X51443666Y62686547D01*
X50967476Y64472261D01*
X50491285Y62686547D01*
X49896047Y65186547D01*
X47276999Y65186547D02*
X45729380Y65186547D01*
X46562714Y64234166D01*
X46205571Y64234166D01*
X45967476Y64115119D01*
X45848428Y63996071D01*
X45729380Y63757976D01*
X45729380Y63162738D01*
X45848428Y62924642D01*
X45967476Y62805595D01*
X46205571Y62686547D01*
X46919857Y62686547D01*
X47157952Y62805595D01*
X47276999Y62924642D01*
X31450300Y113651647D02*
X32283633Y114842123D01*
X32878871Y113651647D02*
X32878871Y116151647D01*
X31926490Y116151647D01*
X31688395Y116032600D01*
X31569347Y115913552D01*
X31450300Y115675457D01*
X31450300Y115318314D01*
X31569347Y115080219D01*
X31688395Y114961171D01*
X31926490Y114842123D01*
X32878871Y114842123D01*
X29902680Y116151647D02*
X29426490Y116151647D01*
X29188395Y116032600D01*
X28950300Y115794504D01*
X28831252Y115318314D01*
X28831252Y114484980D01*
X28950300Y114008790D01*
X29188395Y113770695D01*
X29426490Y113651647D01*
X29902680Y113651647D01*
X30140776Y113770695D01*
X30378871Y114008790D01*
X30497919Y114484980D01*
X30497919Y115318314D01*
X30378871Y115794504D01*
X30140776Y116032600D01*
X29902680Y116151647D01*
X26926490Y114961171D02*
X26569347Y114842123D01*
X26450300Y114723076D01*
X26331252Y114484980D01*
X26331252Y114127838D01*
X26450300Y113889742D01*
X26569347Y113770695D01*
X26807442Y113651647D01*
X27759823Y113651647D01*
X27759823Y116151647D01*
X26926490Y116151647D01*
X26688395Y116032600D01*
X26569347Y115913552D01*
X26450300Y115675457D01*
X26450300Y115437361D01*
X26569347Y115199266D01*
X26688395Y115080219D01*
X26926490Y114961171D01*
X27759823Y114961171D01*
X24783633Y116151647D02*
X24307442Y116151647D01*
X24069347Y116032600D01*
X23831252Y115794504D01*
X23712204Y115318314D01*
X23712204Y114484980D01*
X23831252Y114008790D01*
X24069347Y113770695D01*
X24307442Y113651647D01*
X24783633Y113651647D01*
X25021728Y113770695D01*
X25259823Y114008790D01*
X25378871Y114484980D01*
X25378871Y115318314D01*
X25259823Y115794504D01*
X25021728Y116032600D01*
X24783633Y116151647D01*
X21212204Y113889742D02*
X21331252Y113770695D01*
X21688395Y113651647D01*
X21926490Y113651647D01*
X22283633Y113770695D01*
X22521728Y114008790D01*
X22640776Y114246885D01*
X22759823Y114723076D01*
X22759823Y115080219D01*
X22640776Y115556409D01*
X22521728Y115794504D01*
X22283633Y116032600D01*
X21926490Y116151647D01*
X21688395Y116151647D01*
X21331252Y116032600D01*
X21212204Y115913552D01*
X18950299Y113651647D02*
X20140776Y113651647D01*
X20140776Y116151647D01*
X18236014Y114365933D02*
X17045538Y114365933D01*
X18474109Y113651647D02*
X17640776Y116151647D01*
X16807442Y113651647D01*
X16212204Y116151647D02*
X15616966Y113651647D01*
X15140776Y115437361D01*
X14664585Y113651647D01*
X14069347Y116151647D01*
X10021728Y116151647D02*
X11212204Y116151647D01*
X11331252Y114961171D01*
X11212204Y115080219D01*
X10974109Y115199266D01*
X10378871Y115199266D01*
X10140776Y115080219D01*
X10021728Y114961171D01*
X9902680Y114723076D01*
X9902680Y114127838D01*
X10021728Y113889742D01*
X10140776Y113770695D01*
X10378871Y113651647D01*
X10974109Y113651647D01*
X11212204Y113770695D01*
X11331252Y113889742D01*
X67404000Y163334047D02*
X68237333Y164524523D01*
X68832571Y163334047D02*
X68832571Y165834047D01*
X67880190Y165834047D01*
X67642095Y165715000D01*
X67523047Y165595952D01*
X67404000Y165357857D01*
X67404000Y165000714D01*
X67523047Y164762619D01*
X67642095Y164643571D01*
X67880190Y164524523D01*
X68832571Y164524523D01*
X65856380Y165834047D02*
X65380190Y165834047D01*
X65142095Y165715000D01*
X64904000Y165476904D01*
X64784952Y165000714D01*
X64784952Y164167380D01*
X64904000Y163691190D01*
X65142095Y163453095D01*
X65380190Y163334047D01*
X65856380Y163334047D01*
X66094476Y163453095D01*
X66332571Y163691190D01*
X66451619Y164167380D01*
X66451619Y165000714D01*
X66332571Y165476904D01*
X66094476Y165715000D01*
X65856380Y165834047D01*
X62880190Y164643571D02*
X62523047Y164524523D01*
X62404000Y164405476D01*
X62284952Y164167380D01*
X62284952Y163810238D01*
X62404000Y163572142D01*
X62523047Y163453095D01*
X62761142Y163334047D01*
X63713523Y163334047D01*
X63713523Y165834047D01*
X62880190Y165834047D01*
X62642095Y165715000D01*
X62523047Y165595952D01*
X62404000Y165357857D01*
X62404000Y165119761D01*
X62523047Y164881666D01*
X62642095Y164762619D01*
X62880190Y164643571D01*
X63713523Y164643571D01*
X60737333Y165834047D02*
X60261142Y165834047D01*
X60023047Y165715000D01*
X59784952Y165476904D01*
X59665904Y165000714D01*
X59665904Y164167380D01*
X59784952Y163691190D01*
X60023047Y163453095D01*
X60261142Y163334047D01*
X60737333Y163334047D01*
X60975428Y163453095D01*
X61213523Y163691190D01*
X61332571Y164167380D01*
X61332571Y165000714D01*
X61213523Y165476904D01*
X60975428Y165715000D01*
X60737333Y165834047D01*
X57165904Y163572142D02*
X57284952Y163453095D01*
X57642095Y163334047D01*
X57880190Y163334047D01*
X58237333Y163453095D01*
X58475428Y163691190D01*
X58594476Y163929285D01*
X58713523Y164405476D01*
X58713523Y164762619D01*
X58594476Y165238809D01*
X58475428Y165476904D01*
X58237333Y165715000D01*
X57880190Y165834047D01*
X57642095Y165834047D01*
X57284952Y165715000D01*
X57165904Y165595952D01*
X54903999Y163334047D02*
X56094476Y163334047D01*
X56094476Y165834047D01*
X54189714Y164048333D02*
X52999238Y164048333D01*
X54427809Y163334047D02*
X53594476Y165834047D01*
X52761142Y163334047D01*
X52165904Y165834047D02*
X51570666Y163334047D01*
X51094476Y165119761D01*
X50618285Y163334047D01*
X50023047Y165834047D01*
X47284952Y165595952D02*
X47165904Y165715000D01*
X46927809Y165834047D01*
X46332571Y165834047D01*
X46094476Y165715000D01*
X45975428Y165595952D01*
X45856380Y165357857D01*
X45856380Y165119761D01*
X45975428Y164762619D01*
X47403999Y163334047D01*
X45856380Y163334047D01*
X130730119Y141239738D02*
X131682500Y141239738D01*
X131777738Y140287357D01*
X131682500Y140382595D01*
X131492023Y140477833D01*
X131015833Y140477833D01*
X130825357Y140382595D01*
X130730119Y140287357D01*
X130634880Y140096880D01*
X130634880Y139620690D01*
X130730119Y139430214D01*
X130825357Y139334976D01*
X131015833Y139239738D01*
X131492023Y139239738D01*
X131682500Y139334976D01*
X131777738Y139430214D01*
X130063452Y141239738D02*
X129396785Y139239738D01*
X128730119Y141239738D01*
X125396785Y139239738D02*
X126063452Y140192119D01*
X126539642Y139239738D02*
X126539642Y141239738D01*
X125777738Y141239738D01*
X125587261Y141144500D01*
X125492023Y141049261D01*
X125396785Y140858785D01*
X125396785Y140573071D01*
X125492023Y140382595D01*
X125587261Y140287357D01*
X125777738Y140192119D01*
X126539642Y140192119D01*
X124539642Y140287357D02*
X123872976Y140287357D01*
X123587261Y139239738D02*
X124539642Y139239738D01*
X124539642Y141239738D01*
X123587261Y141239738D01*
X121682500Y141144500D02*
X121872976Y141239738D01*
X122158690Y141239738D01*
X122444404Y141144500D01*
X122634880Y140954023D01*
X122730119Y140763547D01*
X122825357Y140382595D01*
X122825357Y140096880D01*
X122730119Y139715928D01*
X122634880Y139525452D01*
X122444404Y139334976D01*
X122158690Y139239738D01*
X121968214Y139239738D01*
X121682500Y139334976D01*
X121587261Y139430214D01*
X121587261Y140096880D01*
X121968214Y140096880D01*
D10*
X115482523Y154233619D02*
X115482523Y155233619D01*
X114911095Y154233619D01*
X114911095Y155233619D01*
X113720619Y155281238D02*
X114577761Y153995523D01*
X112815857Y154328857D02*
X112863476Y154281238D01*
X113006333Y154233619D01*
X113101571Y154233619D01*
X113244428Y154281238D01*
X113339666Y154376476D01*
X113387285Y154471714D01*
X113434904Y154662190D01*
X113434904Y154805047D01*
X113387285Y154995523D01*
X113339666Y155090761D01*
X113244428Y155186000D01*
X113101571Y155233619D01*
X113006333Y155233619D01*
X112863476Y155186000D01*
X112815857Y155138380D01*
X115712714Y144454571D02*
X114950809Y144454571D01*
X115331761Y144073619D02*
X115331761Y144835523D01*
X113998428Y145073619D02*
X114474619Y145073619D01*
X114522238Y144597428D01*
X114474619Y144645047D01*
X114379380Y144692666D01*
X114141285Y144692666D01*
X114046047Y144645047D01*
X113998428Y144597428D01*
X113950809Y144502190D01*
X113950809Y144264095D01*
X113998428Y144168857D01*
X114046047Y144121238D01*
X114141285Y144073619D01*
X114379380Y144073619D01*
X114474619Y144121238D01*
X114522238Y144168857D01*
X113665095Y145073619D02*
X113331761Y144073619D01*
X112998428Y145073619D01*
X115188904Y147566000D02*
X115284142Y147613619D01*
X115427000Y147613619D01*
X115569857Y147566000D01*
X115665095Y147470761D01*
X115712714Y147375523D01*
X115760333Y147185047D01*
X115760333Y147042190D01*
X115712714Y146851714D01*
X115665095Y146756476D01*
X115569857Y146661238D01*
X115427000Y146613619D01*
X115331761Y146613619D01*
X115188904Y146661238D01*
X115141285Y146708857D01*
X115141285Y147042190D01*
X115331761Y147042190D01*
X114712714Y146613619D02*
X114712714Y147613619D01*
X114141285Y146613619D01*
X114141285Y147613619D01*
X113665095Y146613619D02*
X113665095Y147613619D01*
X113427000Y147613619D01*
X113284142Y147566000D01*
X113188904Y147470761D01*
X113141285Y147375523D01*
X113093666Y147185047D01*
X113093666Y147042190D01*
X113141285Y146851714D01*
X113188904Y146756476D01*
X113284142Y146661238D01*
X113427000Y146613619D01*
X113665095Y146613619D01*
X115188904Y150106000D02*
X115284142Y150153619D01*
X115427000Y150153619D01*
X115569857Y150106000D01*
X115665095Y150010761D01*
X115712714Y149915523D01*
X115760333Y149725047D01*
X115760333Y149582190D01*
X115712714Y149391714D01*
X115665095Y149296476D01*
X115569857Y149201238D01*
X115427000Y149153619D01*
X115331761Y149153619D01*
X115188904Y149201238D01*
X115141285Y149248857D01*
X115141285Y149582190D01*
X115331761Y149582190D01*
X114712714Y149153619D02*
X114712714Y150153619D01*
X114141285Y149153619D01*
X114141285Y150153619D01*
X113665095Y149153619D02*
X113665095Y150153619D01*
X113427000Y150153619D01*
X113284142Y150106000D01*
X113188904Y150010761D01*
X113141285Y149915523D01*
X113093666Y149725047D01*
X113093666Y149582190D01*
X113141285Y149391714D01*
X113188904Y149296476D01*
X113284142Y149201238D01*
X113427000Y149153619D01*
X113665095Y149153619D01*
X115292047Y152217428D02*
X115149190Y152169809D01*
X115101571Y152122190D01*
X115053952Y152026952D01*
X115053952Y151884095D01*
X115101571Y151788857D01*
X115149190Y151741238D01*
X115244428Y151693619D01*
X115625380Y151693619D01*
X115625380Y152693619D01*
X115292047Y152693619D01*
X115196809Y152646000D01*
X115149190Y152598380D01*
X115101571Y152503142D01*
X115101571Y152407904D01*
X115149190Y152312666D01*
X115196809Y152265047D01*
X115292047Y152217428D01*
X115625380Y152217428D01*
X114673000Y151979333D02*
X114196809Y151979333D01*
X114768238Y151693619D02*
X114434904Y152693619D01*
X114101571Y151693619D01*
X113911095Y152693619D02*
X113339666Y152693619D01*
X113625380Y151693619D02*
X113625380Y152693619D01*
X113149190Y152693619D02*
X112577761Y152693619D01*
X112863476Y151693619D02*
X112863476Y152693619D01*
D12*
G04 #@! TO.C,J11*
X101493000Y5588000D02*
X83693000Y5588000D01*
X83693000Y23388000D02*
X83693000Y5588000D01*
X101493000Y23388000D02*
X83693000Y23388000D01*
X101493000Y5588000D02*
X101493000Y23388000D01*
G04 #@! TO.C,J5*
X35750500Y52832000D02*
X12890500Y52832000D01*
X35750500Y61722000D02*
X35750500Y52832000D01*
X12890500Y61722000D02*
X35750500Y61722000D01*
X12890500Y52832000D02*
X12890500Y61722000D01*
G04 #@! TO.C,J1*
X116014500Y72517000D02*
X138874500Y72517000D01*
X116014500Y63627000D02*
X116014500Y72517000D01*
X138874500Y63627000D02*
X116014500Y63627000D01*
X138874500Y72517000D02*
X138874500Y63627000D01*
G04 #@! TO.C,J4*
X83375500Y122301000D02*
X106235500Y122301000D01*
X83375500Y113411000D02*
X83375500Y122301000D01*
X106235500Y113411000D02*
X83375500Y113411000D01*
X106235500Y122301000D02*
X106235500Y113411000D01*
G04 #@! TO.C,J9*
X116776500Y142875000D02*
X137096500Y142875000D01*
X137096500Y160655000D02*
X137096500Y142855000D01*
X116776500Y160655000D02*
X137076500Y160655000D01*
X116776500Y160655000D02*
X116776500Y142855000D01*
D13*
G04 #@! TO.C,RC4*
X71678000Y111303000D02*
X71678000Y63043000D01*
X113334000Y111303000D02*
X71678000Y111303000D01*
X113334000Y63043000D02*
X113334000Y111303000D01*
X71678000Y63043000D02*
X113334000Y63043000D01*
G04 #@! TO.C,RC2*
X78055000Y113360000D02*
X78055000Y161620000D01*
X36399000Y113360000D02*
X78055000Y113360000D01*
X36399000Y161620000D02*
X36399000Y113360000D01*
X78055000Y161620000D02*
X36399000Y161620000D01*
G04 #@! TO.C,RC1*
X107492000Y61646000D02*
X107492000Y13386000D01*
X149148000Y61646000D02*
X107492000Y61646000D01*
X149148000Y13386000D02*
X149148000Y61646000D01*
X107492000Y13386000D02*
X149148000Y13386000D01*
G04 #@! TO.C,RC3*
X79325000Y13411000D02*
X79325000Y61671000D01*
X37669000Y13411000D02*
X79325000Y13411000D01*
X37669000Y61671000D02*
X37669000Y13411000D01*
X79325000Y61671000D02*
X37669000Y61671000D01*
G04 #@! TO.C,RC5*
X43892000Y63703000D02*
X43892000Y111963000D01*
X2236000Y63703000D02*
X43892000Y63703000D01*
X2236000Y111963000D02*
X2236000Y63703000D01*
X43892000Y111963000D02*
X2236000Y111963000D01*
D12*
G04 #@! TO.C,J3*
X70612000Y3429000D02*
X47752000Y3429000D01*
X70612000Y12319000D02*
X70612000Y3429000D01*
X47752000Y12319000D02*
X70612000Y12319000D01*
X47752000Y3429000D02*
X47752000Y12319000D01*
G04 #@! TO.C,J2*
X68453000Y103187500D02*
X45593000Y103187500D01*
X68453000Y112077500D02*
X68453000Y103187500D01*
X45593000Y112077500D02*
X68453000Y112077500D01*
X45593000Y103187500D02*
X45593000Y112077500D01*
G04 #@! TO.C,J11*
X101012523Y24944319D02*
X101012523Y24230033D01*
X101060142Y24087176D01*
X101155380Y23991938D01*
X101298238Y23944319D01*
X101393476Y23944319D01*
X100012523Y23944319D02*
X100583952Y23944319D01*
X100298238Y23944319D02*
X100298238Y24944319D01*
X100393476Y24801461D01*
X100488714Y24706223D01*
X100583952Y24658604D01*
X99060142Y23944319D02*
X99631571Y23944319D01*
X99345857Y23944319D02*
X99345857Y24944319D01*
X99441095Y24801461D01*
X99536333Y24706223D01*
X99631571Y24658604D01*
G04 #@! TO.C,J5*
X11839533Y61469519D02*
X11839533Y60755233D01*
X11887152Y60612376D01*
X11982390Y60517138D01*
X12125247Y60469519D01*
X12220485Y60469519D01*
X10887152Y61469519D02*
X11363342Y61469519D01*
X11410961Y60993328D01*
X11363342Y61040947D01*
X11268104Y61088566D01*
X11030009Y61088566D01*
X10934771Y61040947D01*
X10887152Y60993328D01*
X10839533Y60898090D01*
X10839533Y60659995D01*
X10887152Y60564757D01*
X10934771Y60517138D01*
X11030009Y60469519D01*
X11268104Y60469519D01*
X11363342Y60517138D01*
X11410961Y60564757D01*
G04 #@! TO.C,J1*
X140363533Y72442319D02*
X140363533Y71728033D01*
X140411152Y71585176D01*
X140506390Y71489938D01*
X140649247Y71442319D01*
X140744485Y71442319D01*
X139363533Y71442319D02*
X139934961Y71442319D01*
X139649247Y71442319D02*
X139649247Y72442319D01*
X139744485Y72299461D01*
X139839723Y72204223D01*
X139934961Y72156604D01*
G04 #@! TO.C,J4*
X108308733Y115063519D02*
X108308733Y114349233D01*
X108356352Y114206376D01*
X108451590Y114111138D01*
X108594447Y114063519D01*
X108689685Y114063519D01*
X107403971Y114730185D02*
X107403971Y114063519D01*
X107642066Y115111138D02*
X107880161Y114396852D01*
X107261114Y114396852D01*
G04 #@! TO.C,J9*
X117859133Y162256719D02*
X117859133Y161542433D01*
X117906752Y161399576D01*
X118001990Y161304338D01*
X118144847Y161256719D01*
X118240085Y161256719D01*
X117335323Y161256719D02*
X117144847Y161256719D01*
X117049609Y161304338D01*
X117001990Y161351957D01*
X116906752Y161494814D01*
X116859133Y161685290D01*
X116859133Y162066242D01*
X116906752Y162161480D01*
X116954371Y162209100D01*
X117049609Y162256719D01*
X117240085Y162256719D01*
X117335323Y162209100D01*
X117382942Y162161480D01*
X117430561Y162066242D01*
X117430561Y161828147D01*
X117382942Y161732909D01*
X117335323Y161685290D01*
X117240085Y161637671D01*
X117049609Y161637671D01*
X116954371Y161685290D01*
X116906752Y161732909D01*
X116859133Y161828147D01*
G04 #@! TO.C,J3*
X72215333Y12231619D02*
X72215333Y11517333D01*
X72262952Y11374476D01*
X72358190Y11279238D01*
X72501047Y11231619D01*
X72596285Y11231619D01*
X71834380Y12231619D02*
X71215333Y12231619D01*
X71548666Y11850666D01*
X71405809Y11850666D01*
X71310571Y11803047D01*
X71262952Y11755428D01*
X71215333Y11660190D01*
X71215333Y11422095D01*
X71262952Y11326857D01*
X71310571Y11279238D01*
X71405809Y11231619D01*
X71691523Y11231619D01*
X71786761Y11279238D01*
X71834380Y11326857D01*
G04 #@! TO.C,J2*
X70310333Y104814619D02*
X70310333Y104100333D01*
X70357952Y103957476D01*
X70453190Y103862238D01*
X70596047Y103814619D01*
X70691285Y103814619D01*
X69881761Y104719380D02*
X69834142Y104767000D01*
X69738904Y104814619D01*
X69500809Y104814619D01*
X69405571Y104767000D01*
X69357952Y104719380D01*
X69310333Y104624142D01*
X69310333Y104528904D01*
X69357952Y104386047D01*
X69929380Y103814619D01*
X69310333Y103814619D01*
G04 #@! TD*
M02*
