M48
; DRILL file {KiCad (5.1.10-1-10_14)} date Thursday, June 09, 2022 at 10:45:53 PM
; FORMAT={-:-/ absolute / inch / decimal}
; #@! TF.CreationDate,2022-06-09T22:45:53-07:00
; #@! TF.GenerationSoftware,Kicad,Pcbnew,(5.1.10-1-10_14)
FMAT,2
INCH
T1C0.0157
T2C0.0295
T3C0.0299
T4C0.0300
T5C0.0315
T6C0.0354
T7C0.0394
T8C0.0400
T9C0.0402
T10C0.1142
T11C0.1496
%
G90
G05
T1
X2.4017Y-2.6625
X2.4335Y-2.7607
X2.4415Y-2.662
X2.448Y-2.8143
X2.4816Y-2.6618
X2.485Y-2.7962
X2.522Y-2.711
X2.5243Y-2.7962
X2.53Y-5.0475
X2.78Y-2.5293
X2.8194Y-2.5293
X2.8587Y-2.5293
X2.86Y-2.3825
X2.8915Y-4.9975
X2.8986Y-2.5298
X2.9Y-4.1825
X2.96Y-2.3825
X3.06Y-2.3825
X3.06Y-4.1825
X3.16Y-2.3825
X3.18Y-3.8731
X3.187Y-3.7495
X3.3715Y-4.6447
X3.38Y-4.4225
X3.405Y-4.6725
X3.4078Y-4.394
X3.4449Y-4.6248
X3.4522Y-4.5503
X3.455Y-4.369
X3.4778Y-4.483
X3.48Y-4.5225
X3.4812Y-4.6095
X3.5288Y-4.0425
X3.53Y-4.4975
X3.53Y-4.6095
X3.6135Y-3.9825
X3.625Y-4.5925
X3.6412Y-4.7337
X3.7757Y-3.7825
X3.78Y-2.5975
X3.8111Y-3.0475
X3.8229Y-2.6911
X3.83Y-2.5975
X3.855Y-2.6683
X3.8694Y-2.5975
X3.8853Y-2.6431
X3.905Y-2.5475
X3.9328Y-2.5753
X3.9333Y-3.7625
X3.9458Y-2.6133
X3.98Y-2.4475
X4.0194Y-2.4475
X4.0528Y-2.5453
X4.0587Y-2.4475
X4.0806Y-2.5174
X4.1085Y-2.4896
X4.205Y-4.5225
X4.5009Y-2.4263
X4.5538Y-2.507
X4.5771Y-2.4355
X4.6176Y-1.9385
X4.6221Y-2.485
X4.6742Y-2.3904
X4.6775Y-2.4296
X4.6899Y-1.9076
T2
X4.58Y-3.1157
X4.58Y-3.1657
X4.58Y-3.2157
X4.9819Y-3.1225
X4.9819Y-3.1725
X4.9819Y-3.2225
X5.405Y-3.1225
X5.405Y-3.1725
X5.405Y-3.2225
T3
X2.805Y-2.4225
T4
X2.805Y-2.7225
X2.905Y-2.4225
X2.905Y-2.7225
X3.005Y-2.4225
X3.005Y-2.7225
X3.105Y-2.4225
X3.105Y-2.7225
X3.205Y-2.4225
X3.205Y-2.7225
X3.305Y-2.4225
X3.305Y-2.7225
X3.405Y-2.4225
X3.405Y-2.7225
X3.505Y-2.4225
X3.505Y-2.7225
T5
X3.26Y-3.4825
X3.26Y-3.7825
X3.26Y-3.9025
X3.26Y-4.2025
X3.265Y-3.05
X3.265Y-3.35
X3.44Y-3.4825
X3.44Y-3.7825
X3.44Y-3.9025
X3.44Y-4.2025
X3.445Y-3.05
X3.445Y-3.35
X3.645Y-3.05
X3.645Y-3.35
X4.225Y-2.6225
X4.225Y-2.9225
X4.23Y-4.0225
X4.23Y-4.3225
X4.255Y-3.4225
X4.255Y-3.7225
X4.375Y-2.6225
X4.375Y-2.9225
X4.38Y-3.0225
X4.38Y-3.3225
X4.511Y-3.4207
X4.511Y-3.7207
X4.525Y-2.6225
X4.525Y-2.9225
X4.601Y-3.8627
X4.601Y-4.1627
X4.694Y-3.4147
X4.694Y-3.7147
X4.88Y-2.8475
X4.88Y-2.9725
X4.9399Y-3.4251
X4.9399Y-3.7251
X5.03Y-3.8725
X5.03Y-4.1725
X5.1169Y-3.4241
X5.1169Y-3.7241
X5.18Y-2.8475
X5.18Y-2.9725
X5.406Y-3.3879
X5.406Y-3.6879
X5.41Y-3.8659
X5.41Y-4.1659
X5.505Y-4.64
X5.505Y-4.94
T6
X2.525Y-3.031
X2.525Y-3.131
X2.525Y-3.231
X2.525Y-3.331
X2.525Y-3.431
X2.525Y-3.531
X2.525Y-3.631
X2.525Y-3.731
X2.525Y-3.831
X2.525Y-3.931
X2.525Y-4.031
X2.525Y-4.131
X2.525Y-4.231
X2.525Y-4.331
X2.525Y-4.431
X2.525Y-4.531
X2.525Y-4.631
X2.525Y-4.731
X2.525Y-4.831
X2.525Y-4.931
X2.625Y-3.031
X2.625Y-3.131
X2.625Y-3.231
X2.625Y-3.331
X2.625Y-3.431
X2.625Y-3.531
X2.625Y-3.631
X2.625Y-3.731
X2.625Y-3.831
X2.625Y-3.931
X2.625Y-4.031
X2.625Y-4.131
X2.625Y-4.231
X2.625Y-4.331
X2.625Y-4.431
X2.625Y-4.531
X2.625Y-4.631
X2.625Y-4.731
X2.625Y-4.831
X2.625Y-4.931
X2.925Y-3.031
X2.925Y-3.131
X2.925Y-3.231
X2.925Y-3.331
X2.925Y-3.431
X2.925Y-3.531
X2.925Y-3.631
X2.925Y-3.731
X2.925Y-3.831
X2.925Y-3.931
X2.925Y-4.031
X2.925Y-4.131
X2.925Y-4.231
X2.925Y-4.331
X2.925Y-4.431
X2.925Y-4.531
X2.925Y-4.631
X2.925Y-4.731
X2.925Y-4.831
X2.925Y-4.931
X3.025Y-3.031
X3.025Y-3.131
X3.025Y-3.231
X3.025Y-3.331
X3.025Y-3.431
X3.025Y-3.531
X3.025Y-3.631
X3.025Y-3.731
X3.025Y-3.831
X3.025Y-3.931
X3.025Y-4.031
X3.025Y-4.131
X3.025Y-4.231
X3.025Y-4.331
X3.025Y-4.431
X3.025Y-4.531
X3.025Y-4.631
X3.025Y-4.731
X3.025Y-4.831
X3.025Y-4.931
T7
X2.605Y-1.9747
X2.605Y-2.27
X2.705Y-1.9747
X2.705Y-2.27
X2.805Y-1.9747
X2.805Y-2.27
X2.905Y-1.9747
X2.905Y-2.27
X3.005Y-1.9747
X3.005Y-2.27
X3.105Y-1.9747
X3.105Y-2.27
X3.205Y-1.9747
X3.205Y-2.27
X3.305Y-1.9747
X3.305Y-2.27
X3.405Y-1.9747
X3.405Y-2.27
X3.505Y-1.9747
X3.505Y-2.27
T8
X2.465Y-5.27
X2.465Y-5.37
X2.5801Y-5.2707
X2.5801Y-5.3707
X2.695Y-5.27
X2.695Y-5.37
T9
X3.375Y-4.87
X3.375Y-4.97
X3.375Y-5.07
X3.375Y-5.17
X3.375Y-5.27
X3.375Y-5.37
X3.53Y-5.0725
X3.53Y-5.1725
X3.53Y-5.2725
X3.53Y-5.3725
X3.63Y-5.0725
X3.63Y-5.1725
X3.63Y-5.2725
X3.63Y-5.3725
X3.73Y-5.0725
X3.73Y-5.1725
X3.73Y-5.2725
X3.73Y-5.3725
X4.1Y-2.12
X4.1Y-2.22
X4.2Y-2.12
X4.2Y-2.22
X4.3Y-2.12
X4.3Y-2.22
X4.4Y-2.12
X4.4Y-2.22
X4.5Y-2.12
X4.5Y-2.22
X4.6Y-2.12
X4.6Y-2.22
X4.7Y-2.12
X4.7Y-2.22
X4.8Y-2.12
X4.8Y-2.22
X4.9Y-2.12
X4.9Y-2.22
X5.0Y-2.12
X5.0Y-2.22
T10
X4.0081Y-2.8987
X4.0081Y-5.1822
X5.9372Y-2.8987
X5.9372Y-5.1822
T11
X2.555Y-2.5225
X3.155Y-5.2475
X4.78Y-4.6725
X5.405Y-2.7475
T0
M30
