  0
SECTION
  2
BLOCKS
  0
ENDSEC
  0
SECTION
  2
ENTITIES
  0
LINE
  8
0
 10
304.8
 20
114.3
 11
0
 21
114.3
  0
LINE
  8
0
 10
0
 20
114.3
 11
0
 21
0
  0
LINE
  8
0
 10
0
 20
0
 11
304.8
 21
0
  0
LINE
  8
0
 10
304.8
 20
0
 11
304.8
 21
114.3
  0
LINE
  8
0
 10
138.647
 20
109.255
 11
138.376
 21
109.32
  0
LINE
  8
0
 10
138.376
 20
109.32
 11
138.118
 21
109.426
  0
LINE
  8
0
 10
138.118
 20
109.426
 11
137.88
 21
109.572
  0
LINE
  8
0
 10
137.88
 20
109.572
 11
137.668
 21
109.753
  0
LINE
  8
0
 10
137.668
 20
109.753
 11
137.487
 21
109.966
  0
LINE
  8
0
 10
137.487
 20
109.966
 11
137.341
 21
110.203
  0
LINE
  8
0
 10
137.341
 20
110.203
 11
137.234
 21
110.461
  0
LINE
  8
0
 10
137.234
 20
110.461
 11
137.169
 21
110.733
  0
LINE
  8
0
 10
137.169
 20
110.733
 11
137.147
 21
111.011
  0
LINE
  8
0
 10
137.147
 20
111.011
 11
137.169
 21
111.289
  0
LINE
  8
0
 10
137.169
 20
111.289
 11
137.234
 21
111.56
  0
LINE
  8
0
 10
137.234
 20
111.56
 11
137.341
 21
111.818
  0
LINE
  8
0
 10
137.341
 20
111.818
 11
137.487
 21
112.056
  0
LINE
  8
0
 10
137.487
 20
112.056
 11
137.668
 21
112.268
  0
LINE
  8
0
 10
137.668
 20
112.268
 11
137.88
 21
112.449
  0
LINE
  8
0
 10
137.88
 20
112.449
 11
138.118
 21
112.595
  0
LINE
  8
0
 10
138.118
 20
112.595
 11
138.376
 21
112.702
  0
LINE
  8
0
 10
138.376
 20
112.702
 11
138.647
 21
112.767
  0
LINE
  8
0
 10
138.647
 20
112.767
 11
138.925
 21
112.789
  0
LINE
  8
0
 10
138.925
 20
112.789
 11
139.203
 21
112.767
  0
LINE
  8
0
 10
139.203
 20
112.767
 11
139.475
 21
112.702
  0
LINE
  8
0
 10
139.475
 20
112.702
 11
139.732
 21
112.595
  0
LINE
  8
0
 10
139.732
 20
112.595
 11
139.97
 21
112.449
  0
LINE
  8
0
 10
139.97
 20
112.449
 11
140.183
 21
112.268
  0
LINE
  8
0
 10
140.183
 20
112.268
 11
140.364
 21
112.056
  0
LINE
  8
0
 10
140.364
 20
112.056
 11
140.51
 21
111.818
  0
LINE
  8
0
 10
140.51
 20
111.818
 11
140.616
 21
111.56
  0
LINE
  8
0
 10
140.616
 20
111.56
 11
140.681
 21
111.289
  0
LINE
  8
0
 10
140.681
 20
111.289
 11
140.703
 21
111.011
  0
LINE
  8
0
 10
140.703
 20
111.011
 11
140.681
 21
110.733
  0
LINE
  8
0
 10
140.681
 20
110.733
 11
140.616
 21
110.461
  0
LINE
  8
0
 10
140.616
 20
110.461
 11
140.51
 21
110.203
  0
LINE
  8
0
 10
140.51
 20
110.203
 11
140.364
 21
109.966
  0
LINE
  8
0
 10
140.364
 20
109.966
 11
140.183
 21
109.753
  0
LINE
  8
0
 10
140.183
 20
109.753
 11
139.97
 21
109.572
  0
LINE
  8
0
 10
139.97
 20
109.572
 11
139.732
 21
109.426
  0
LINE
  8
0
 10
139.732
 20
109.426
 11
139.475
 21
109.32
  0
LINE
  8
0
 10
139.475
 20
109.32
 11
139.203
 21
109.255
  0
LINE
  8
0
 10
139.203
 20
109.255
 11
138.925
 21
109.233
  0
LINE
  8
0
 10
138.925
 20
109.233
 11
138.647
 21
109.255
  0
LINE
  8
0
 10
279.897
 20
109.255
 11
279.625
 21
109.32
  0
LINE
  8
0
 10
279.625
 20
109.32
 11
279.367
 21
109.426
  0
LINE
  8
0
 10
279.367
 20
109.426
 11
279.13
 21
109.572
  0
LINE
  8
0
 10
279.13
 20
109.572
 11
278.917
 21
109.753
  0
LINE
  8
0
 10
278.917
 20
109.753
 11
278.736
 21
109.966
  0
LINE
  8
0
 10
278.736
 20
109.966
 11
278.59
 21
110.203
  0
LINE
  8
0
 10
278.59
 20
110.203
 11
278.484
 21
110.461
  0
LINE
  8
0
 10
278.484
 20
110.461
 11
278.419
 21
110.733
  0
LINE
  8
0
 10
278.419
 20
110.733
 11
278.397
 21
111.011
  0
LINE
  8
0
 10
278.397
 20
111.011
 11
278.419
 21
111.289
  0
LINE
  8
0
 10
278.419
 20
111.289
 11
278.484
 21
111.56
  0
LINE
  8
0
 10
278.484
 20
111.56
 11
278.59
 21
111.818
  0
LINE
  8
0
 10
278.59
 20
111.818
 11
278.736
 21
112.056
  0
LINE
  8
0
 10
278.736
 20
112.056
 11
278.917
 21
112.268
  0
LINE
  8
0
 10
278.917
 20
112.268
 11
279.13
 21
112.449
  0
LINE
  8
0
 10
279.13
 20
112.449
 11
279.367
 21
112.595
  0
LINE
  8
0
 10
279.367
 20
112.595
 11
279.625
 21
112.702
  0
LINE
  8
0
 10
279.625
 20
112.702
 11
279.897
 21
112.767
  0
LINE
  8
0
 10
279.897
 20
112.767
 11
280.175
 21
112.789
  0
LINE
  8
0
 10
280.175
 20
112.789
 11
280.453
 21
112.767
  0
LINE
  8
0
 10
280.453
 20
112.767
 11
280.724
 21
112.702
  0
LINE
  8
0
 10
280.724
 20
112.702
 11
280.982
 21
112.595
  0
LINE
  8
0
 10
280.982
 20
112.595
 11
281.22
 21
112.449
  0
LINE
  8
0
 10
281.22
 20
112.449
 11
281.432
 21
112.268
  0
LINE
  8
0
 10
281.432
 20
112.268
 11
281.613
 21
112.056
  0
LINE
  8
0
 10
281.613
 20
112.056
 11
281.759
 21
111.818
  0
LINE
  8
0
 10
281.759
 20
111.818
 11
281.866
 21
111.56
  0
LINE
  8
0
 10
281.866
 20
111.56
 11
281.931
 21
111.289
  0
LINE
  8
0
 10
281.931
 20
111.289
 11
281.953
 21
111.011
  0
LINE
  8
0
 10
281.953
 20
111.011
 11
281.931
 21
110.733
  0
LINE
  8
0
 10
281.931
 20
110.733
 11
281.866
 21
110.461
  0
LINE
  8
0
 10
281.866
 20
110.461
 11
281.759
 21
110.203
  0
LINE
  8
0
 10
281.759
 20
110.203
 11
281.613
 21
109.966
  0
LINE
  8
0
 10
281.613
 20
109.966
 11
281.432
 21
109.753
  0
LINE
  8
0
 10
281.432
 20
109.753
 11
281.22
 21
109.572
  0
LINE
  8
0
 10
281.22
 20
109.572
 11
280.982
 21
109.426
  0
LINE
  8
0
 10
280.982
 20
109.426
 11
280.724
 21
109.32
  0
LINE
  8
0
 10
280.724
 20
109.32
 11
280.453
 21
109.255
  0
LINE
  8
0
 10
280.453
 20
109.255
 11
280.175
 21
109.233
  0
LINE
  8
0
 10
280.175
 20
109.233
 11
279.897
 21
109.255
  0
LINE
  8
0
 10
252.947
 20
109.255
 11
252.676
 21
109.32
  0
LINE
  8
0
 10
252.676
 20
109.32
 11
252.418
 21
109.426
  0
LINE
  8
0
 10
252.418
 20
109.426
 11
252.18
 21
109.572
  0
LINE
  8
0
 10
252.18
 20
109.572
 11
251.968
 21
109.753
  0
LINE
  8
0
 10
251.968
 20
109.753
 11
251.787
 21
109.966
  0
LINE
  8
0
 10
251.787
 20
109.966
 11
251.641
 21
110.203
  0
LINE
  8
0
 10
251.641
 20
110.203
 11
251.534
 21
110.461
  0
LINE
  8
0
 10
251.534
 20
110.461
 11
251.469
 21
110.733
  0
LINE
  8
0
 10
251.469
 20
110.733
 11
251.447
 21
111.011
  0
LINE
  8
0
 10
251.447
 20
111.011
 11
251.469
 21
111.289
  0
LINE
  8
0
 10
251.469
 20
111.289
 11
251.534
 21
111.56
  0
LINE
  8
0
 10
251.534
 20
111.56
 11
251.641
 21
111.818
  0
LINE
  8
0
 10
251.641
 20
111.818
 11
251.787
 21
112.056
  0
LINE
  8
0
 10
251.787
 20
112.056
 11
251.968
 21
112.268
  0
LINE
  8
0
 10
251.968
 20
112.268
 11
252.18
 21
112.449
  0
LINE
  8
0
 10
252.18
 20
112.449
 11
252.418
 21
112.595
  0
LINE
  8
0
 10
252.418
 20
112.595
 11
252.676
 21
112.702
  0
LINE
  8
0
 10
252.676
 20
112.702
 11
252.947
 21
112.767
  0
LINE
  8
0
 10
252.947
 20
112.767
 11
253.225
 21
112.789
  0
LINE
  8
0
 10
253.225
 20
112.789
 11
253.503
 21
112.767
  0
LINE
  8
0
 10
253.503
 20
112.767
 11
253.775
 21
112.702
  0
LINE
  8
0
 10
253.775
 20
112.702
 11
254.032
 21
112.595
  0
LINE
  8
0
 10
254.032
 20
112.595
 11
254.27
 21
112.449
  0
LINE
  8
0
 10
254.27
 20
112.449
 11
254.483
 21
112.268
  0
LINE
  8
0
 10
254.483
 20
112.268
 11
254.664
 21
112.056
  0
LINE
  8
0
 10
254.664
 20
112.056
 11
254.81
 21
111.818
  0
LINE
  8
0
 10
254.81
 20
111.818
 11
254.916
 21
111.56
  0
LINE
  8
0
 10
254.916
 20
111.56
 11
254.981
 21
111.289
  0
LINE
  8
0
 10
254.981
 20
111.289
 11
255.003
 21
111.011
  0
LINE
  8
0
 10
255.003
 20
111.011
 11
254.981
 21
110.733
  0
LINE
  8
0
 10
254.981
 20
110.733
 11
254.916
 21
110.461
  0
LINE
  8
0
 10
254.916
 20
110.461
 11
254.81
 21
110.203
  0
LINE
  8
0
 10
254.81
 20
110.203
 11
254.664
 21
109.966
  0
LINE
  8
0
 10
254.664
 20
109.966
 11
254.483
 21
109.753
  0
LINE
  8
0
 10
254.483
 20
109.753
 11
254.27
 21
109.572
  0
LINE
  8
0
 10
254.27
 20
109.572
 11
254.032
 21
109.426
  0
LINE
  8
0
 10
254.032
 20
109.426
 11
253.775
 21
109.32
  0
LINE
  8
0
 10
253.775
 20
109.32
 11
253.503
 21
109.255
  0
LINE
  8
0
 10
253.503
 20
109.255
 11
253.225
 21
109.233
  0
LINE
  8
0
 10
253.225
 20
109.233
 11
252.947
 21
109.255
  0
LINE
  8
0
 10
51.2966
 20
109.255
 11
51.0253
 21
109.32
  0
LINE
  8
0
 10
51.0253
 20
109.32
 11
50.7675
 21
109.426
  0
LINE
  8
0
 10
50.7675
 20
109.426
 11
50.5296
 21
109.572
  0
LINE
  8
0
 10
50.5296
 20
109.572
 11
50.3175
 21
109.753
  0
LINE
  8
0
 10
50.3175
 20
109.753
 11
50.1363
 21
109.966
  0
LINE
  8
0
 10
50.1363
 20
109.966
 11
49.9905
 21
110.203
  0
LINE
  8
0
 10
49.9905
 20
110.203
 11
49.8837
 21
110.461
  0
LINE
  8
0
 10
49.8837
 20
110.461
 11
49.8186
 21
110.733
  0
LINE
  8
0
 10
49.8186
 20
110.733
 11
49.7967
 21
111.011
  0
LINE
  8
0
 10
49.7967
 20
111.011
 11
49.8186
 21
111.289
  0
LINE
  8
0
 10
49.8186
 20
111.289
 11
49.8837
 21
111.56
  0
LINE
  8
0
 10
49.8837
 20
111.56
 11
49.9905
 21
111.818
  0
LINE
  8
0
 10
49.9905
 20
111.818
 11
50.1363
 21
112.056
  0
LINE
  8
0
 10
50.1363
 20
112.056
 11
50.3175
 21
112.268
  0
LINE
  8
0
 10
50.3175
 20
112.268
 11
50.5296
 21
112.449
  0
LINE
  8
0
 10
50.5296
 20
112.449
 11
50.7675
 21
112.595
  0
LINE
  8
0
 10
50.7675
 20
112.595
 11
51.0253
 21
112.702
  0
LINE
  8
0
 10
51.0253
 20
112.702
 11
51.2966
 21
112.767
  0
LINE
  8
0
 10
51.2966
 20
112.767
 11
51.5747
 21
112.789
  0
LINE
  8
0
 10
51.5747
 20
112.789
 11
51.8528
 21
112.767
  0
LINE
  8
0
 10
51.8528
 20
112.767
 11
52.1241
 21
112.702
  0
LINE
  8
0
 10
52.1241
 20
112.702
 11
52.3819
 21
112.595
  0
LINE
  8
0
 10
52.3819
 20
112.595
 11
52.6198
 21
112.449
  0
LINE
  8
0
 10
52.6198
 20
112.449
 11
52.8319
 21
112.268
  0
LINE
  8
0
 10
52.8319
 20
112.268
 11
53.0131
 21
112.056
  0
LINE
  8
0
 10
53.0131
 20
112.056
 11
53.1589
 21
111.818
  0
LINE
  8
0
 10
53.1589
 20
111.818
 11
53.2657
 21
111.56
  0
LINE
  8
0
 10
53.2657
 20
111.56
 11
53.3308
 21
111.289
  0
LINE
  8
0
 10
53.3308
 20
111.289
 11
53.3527
 21
111.011
  0
LINE
  8
0
 10
53.3527
 20
111.011
 11
53.3308
 21
110.733
  0
LINE
  8
0
 10
53.3308
 20
110.733
 11
53.2657
 21
110.461
  0
LINE
  8
0
 10
53.2657
 20
110.461
 11
53.1589
 21
110.203
  0
LINE
  8
0
 10
53.1589
 20
110.203
 11
53.0131
 21
109.966
  0
LINE
  8
0
 10
53.0131
 20
109.966
 11
52.8319
 21
109.753
  0
LINE
  8
0
 10
52.8319
 20
109.753
 11
52.6198
 21
109.572
  0
LINE
  8
0
 10
52.6198
 20
109.572
 11
52.3819
 21
109.426
  0
LINE
  8
0
 10
52.3819
 20
109.426
 11
52.1241
 21
109.32
  0
LINE
  8
0
 10
52.1241
 20
109.32
 11
51.8528
 21
109.255
  0
LINE
  8
0
 10
51.8528
 20
109.255
 11
51.5747
 21
109.233
  0
LINE
  8
0
 10
51.5747
 20
109.233
 11
51.2966
 21
109.255
  0
LINE
  8
0
 10
24.3472
 20
109.255
 11
24.0759
 21
109.32
  0
LINE
  8
0
 10
24.0759
 20
109.32
 11
23.8181
 21
109.426
  0
LINE
  8
0
 10
23.8181
 20
109.426
 11
23.5802
 21
109.572
  0
LINE
  8
0
 10
23.5802
 20
109.572
 11
23.3681
 21
109.753
  0
LINE
  8
0
 10
23.3681
 20
109.753
 11
23.1869
 21
109.966
  0
LINE
  8
0
 10
23.1869
 20
109.966
 11
23.0411
 21
110.203
  0
LINE
  8
0
 10
23.0411
 20
110.203
 11
22.9343
 21
110.461
  0
LINE
  8
0
 10
22.9343
 20
110.461
 11
22.8692
 21
110.733
  0
LINE
  8
0
 10
22.8692
 20
110.733
 11
22.8473
 21
111.011
  0
LINE
  8
0
 10
22.8473
 20
111.011
 11
22.8692
 21
111.289
  0
LINE
  8
0
 10
22.8692
 20
111.289
 11
22.9343
 21
111.56
  0
LINE
  8
0
 10
22.9343
 20
111.56
 11
23.0411
 21
111.818
  0
LINE
  8
0
 10
23.0411
 20
111.818
 11
23.1869
 21
112.056
  0
LINE
  8
0
 10
23.1869
 20
112.056
 11
23.3681
 21
112.268
  0
LINE
  8
0
 10
23.3681
 20
112.268
 11
23.5802
 21
112.449
  0
LINE
  8
0
 10
23.5802
 20
112.449
 11
23.8181
 21
112.595
  0
LINE
  8
0
 10
23.8181
 20
112.595
 11
24.0759
 21
112.702
  0
LINE
  8
0
 10
24.0759
 20
112.702
 11
24.3472
 21
112.767
  0
LINE
  8
0
 10
24.3472
 20
112.767
 11
24.6253
 21
112.789
  0
LINE
  8
0
 10
24.6253
 20
112.789
 11
24.9034
 21
112.767
  0
LINE
  8
0
 10
24.9034
 20
112.767
 11
25.1747
 21
112.702
  0
LINE
  8
0
 10
25.1747
 20
112.702
 11
25.4325
 21
112.595
  0
LINE
  8
0
 10
25.4325
 20
112.595
 11
25.6704
 21
112.449
  0
LINE
  8
0
 10
25.6704
 20
112.449
 11
25.8825
 21
112.268
  0
LINE
  8
0
 10
25.8825
 20
112.268
 11
26.0637
 21
112.056
  0
LINE
  8
0
 10
26.0637
 20
112.056
 11
26.2095
 21
111.818
  0
LINE
  8
0
 10
26.2095
 20
111.818
 11
26.3163
 21
111.56
  0
LINE
  8
0
 10
26.3163
 20
111.56
 11
26.3814
 21
111.289
  0
LINE
  8
0
 10
26.3814
 20
111.289
 11
26.4033
 21
111.011
  0
LINE
  8
0
 10
26.4033
 20
111.011
 11
26.3814
 21
110.733
  0
LINE
  8
0
 10
26.3814
 20
110.733
 11
26.3163
 21
110.461
  0
LINE
  8
0
 10
26.3163
 20
110.461
 11
26.2095
 21
110.203
  0
LINE
  8
0
 10
26.2095
 20
110.203
 11
26.0637
 21
109.966
  0
LINE
  8
0
 10
26.0637
 20
109.966
 11
25.8825
 21
109.753
  0
LINE
  8
0
 10
25.8825
 20
109.753
 11
25.6704
 21
109.572
  0
LINE
  8
0
 10
25.6704
 20
109.572
 11
25.4325
 21
109.426
  0
LINE
  8
0
 10
25.4325
 20
109.426
 11
25.1747
 21
109.32
  0
LINE
  8
0
 10
25.1747
 20
109.32
 11
24.9034
 21
109.255
  0
LINE
  8
0
 10
24.9034
 20
109.255
 11
24.6253
 21
109.233
  0
LINE
  8
0
 10
24.6253
 20
109.233
 11
24.3472
 21
109.255
  0
LINE
  8
0
 10
165.597
 20
109.255
 11
165.325
 21
109.32
  0
LINE
  8
0
 10
165.325
 20
109.32
 11
165.068
 21
109.426
  0
LINE
  8
0
 10
165.068
 20
109.426
 11
164.83
 21
109.572
  0
LINE
  8
0
 10
164.83
 20
109.572
 11
164.617
 21
109.753
  0
LINE
  8
0
 10
164.617
 20
109.753
 11
164.436
 21
109.966
  0
LINE
  8
0
 10
164.436
 20
109.966
 11
164.29
 21
110.203
  0
LINE
  8
0
 10
164.29
 20
110.203
 11
164.184
 21
110.461
  0
LINE
  8
0
 10
164.184
 20
110.461
 11
164.119
 21
110.733
  0
LINE
  8
0
 10
164.119
 20
110.733
 11
164.097
 21
111.011
  0
LINE
  8
0
 10
164.097
 20
111.011
 11
164.119
 21
111.289
  0
LINE
  8
0
 10
164.119
 20
111.289
 11
164.184
 21
111.56
  0
LINE
  8
0
 10
164.184
 20
111.56
 11
164.29
 21
111.818
  0
LINE
  8
0
 10
164.29
 20
111.818
 11
164.436
 21
112.056
  0
LINE
  8
0
 10
164.436
 20
112.056
 11
164.617
 21
112.268
  0
LINE
  8
0
 10
164.617
 20
112.268
 11
164.83
 21
112.449
  0
LINE
  8
0
 10
164.83
 20
112.449
 11
165.068
 21
112.595
  0
LINE
  8
0
 10
165.068
 20
112.595
 11
165.325
 21
112.702
  0
LINE
  8
0
 10
165.325
 20
112.702
 11
165.597
 21
112.767
  0
LINE
  8
0
 10
165.597
 20
112.767
 11
165.875
 21
112.789
  0
LINE
  8
0
 10
165.875
 20
112.789
 11
166.153
 21
112.767
  0
LINE
  8
0
 10
166.153
 20
112.767
 11
166.424
 21
112.702
  0
LINE
  8
0
 10
166.424
 20
112.702
 11
166.682
 21
112.595
  0
LINE
  8
0
 10
166.682
 20
112.595
 11
166.92
 21
112.449
  0
LINE
  8
0
 10
166.92
 20
112.449
 11
167.132
 21
112.268
  0
LINE
  8
0
 10
167.132
 20
112.268
 11
167.313
 21
112.056
  0
LINE
  8
0
 10
167.313
 20
112.056
 11
167.459
 21
111.818
  0
LINE
  8
0
 10
167.459
 20
111.818
 11
167.566
 21
111.56
  0
LINE
  8
0
 10
167.566
 20
111.56
 11
167.631
 21
111.289
  0
LINE
  8
0
 10
167.631
 20
111.289
 11
167.653
 21
111.011
  0
LINE
  8
0
 10
167.653
 20
111.011
 11
167.631
 21
110.733
  0
LINE
  8
0
 10
167.631
 20
110.733
 11
167.566
 21
110.461
  0
LINE
  8
0
 10
167.566
 20
110.461
 11
167.459
 21
110.203
  0
LINE
  8
0
 10
167.459
 20
110.203
 11
167.313
 21
109.966
  0
LINE
  8
0
 10
167.313
 20
109.966
 11
167.132
 21
109.753
  0
LINE
  8
0
 10
167.132
 20
109.753
 11
166.92
 21
109.572
  0
LINE
  8
0
 10
166.92
 20
109.572
 11
166.682
 21
109.426
  0
LINE
  8
0
 10
166.682
 20
109.426
 11
166.424
 21
109.32
  0
LINE
  8
0
 10
166.424
 20
109.32
 11
166.153
 21
109.255
  0
LINE
  8
0
 10
166.153
 20
109.255
 11
165.875
 21
109.233
  0
LINE
  8
0
 10
165.875
 20
109.233
 11
165.597
 21
109.255
  0
LINE
  8
0
 10
43.358
 20
79.7723
 11
43.0486
 21
79.8465
  0
LINE
  8
0
 10
43.0486
 20
79.8465
 11
42.7546
 21
79.9683
  0
LINE
  8
0
 10
42.7546
 20
79.9683
 11
42.4833
 21
80.1346
  0
LINE
  8
0
 10
42.4833
 20
80.1346
 11
42.2413
 21
80.3413
  0
LINE
  8
0
 10
42.2413
 20
80.3413
 11
42.0346
 21
80.5833
  0
LINE
  8
0
 10
42.0346
 20
80.5833
 11
41.8683
 21
80.8546
  0
LINE
  8
0
 10
41.8683
 20
80.8546
 11
41.7466
 21
81.1486
  0
LINE
  8
0
 10
41.7466
 20
81.1486
 11
41.6723
 21
81.458
  0
LINE
  8
0
 10
41.6723
 20
81.458
 11
41.6473
 21
81.7753
  0
LINE
  8
0
 10
41.6473
 20
81.7753
 11
41.6723
 21
82.0925
  0
LINE
  8
0
 10
41.6723
 20
82.0925
 11
41.7466
 21
82.402
  0
LINE
  8
0
 10
41.7466
 20
82.402
 11
41.8683
 21
82.696
  0
LINE
  8
0
 10
41.8683
 20
82.696
 11
42.0346
 21
82.9673
  0
LINE
  8
0
 10
42.0346
 20
82.9673
 11
42.2413
 21
83.2093
  0
LINE
  8
0
 10
42.2413
 20
83.2093
 11
42.4833
 21
83.416
  0
LINE
  8
0
 10
42.4833
 20
83.416
 11
42.7546
 21
83.5823
  0
LINE
  8
0
 10
42.7546
 20
83.5823
 11
43.0486
 21
83.704
  0
LINE
  8
0
 10
43.0486
 20
83.704
 11
43.358
 21
83.7783
  0
LINE
  8
0
 10
43.358
 20
83.7783
 11
43.6753
 21
83.8033
  0
LINE
  8
0
 10
43.6753
 20
83.8033
 11
43.9925
 21
83.7783
  0
LINE
  8
0
 10
43.9925
 20
83.7783
 11
44.302
 21
83.704
  0
LINE
  8
0
 10
44.302
 20
83.704
 11
44.596
 21
83.5823
  0
LINE
  8
0
 10
44.596
 20
83.5823
 11
44.8673
 21
83.416
  0
LINE
  8
0
 10
44.8673
 20
83.416
 11
45.1093
 21
83.2093
  0
LINE
  8
0
 10
45.1093
 20
83.2093
 11
45.316
 21
82.9673
  0
LINE
  8
0
 10
45.316
 20
82.9673
 11
45.4823
 21
82.696
  0
LINE
  8
0
 10
45.4823
 20
82.696
 11
45.604
 21
82.402
  0
LINE
  8
0
 10
45.604
 20
82.402
 11
45.6783
 21
82.0925
  0
LINE
  8
0
 10
45.6783
 20
82.0925
 11
45.7033
 21
81.7753
  0
LINE
  8
0
 10
45.7033
 20
81.7753
 11
45.6783
 21
81.458
  0
LINE
  8
0
 10
45.6783
 20
81.458
 11
45.604
 21
81.1486
  0
LINE
  8
0
 10
45.604
 20
81.1486
 11
45.4823
 21
80.8546
  0
LINE
  8
0
 10
45.4823
 20
80.8546
 11
45.316
 21
80.5833
  0
LINE
  8
0
 10
45.316
 20
80.5833
 11
45.1093
 21
80.3413
  0
LINE
  8
0
 10
45.1093
 20
80.3413
 11
44.8673
 21
80.1346
  0
LINE
  8
0
 10
44.8673
 20
80.1346
 11
44.596
 21
79.9683
  0
LINE
  8
0
 10
44.596
 20
79.9683
 11
44.302
 21
79.8465
  0
LINE
  8
0
 10
44.302
 20
79.8465
 11
43.9925
 21
79.7723
  0
LINE
  8
0
 10
43.9925
 20
79.7723
 11
43.6753
 21
79.7473
  0
LINE
  8
0
 10
43.6753
 20
79.7473
 11
43.358
 21
79.7723
  0
LINE
  8
0
 10
203.657
 20
79.7723
 11
203.348
 21
79.8465
  0
LINE
  8
0
 10
203.348
 20
79.8465
 11
203.054
 21
79.9683
  0
LINE
  8
0
 10
203.054
 20
79.9683
 11
202.783
 21
80.1346
  0
LINE
  8
0
 10
202.783
 20
80.1346
 11
202.541
 21
80.3413
  0
LINE
  8
0
 10
202.541
 20
80.3413
 11
202.334
 21
80.5833
  0
LINE
  8
0
 10
202.334
 20
80.5833
 11
202.168
 21
80.8546
  0
LINE
  8
0
 10
202.168
 20
80.8546
 11
202.046
 21
81.1486
  0
LINE
  8
0
 10
202.046
 20
81.1486
 11
201.972
 21
81.458
  0
LINE
  8
0
 10
201.972
 20
81.458
 11
201.947
 21
81.7753
  0
LINE
  8
0
 10
201.947
 20
81.7753
 11
201.972
 21
82.0925
  0
LINE
  8
0
 10
201.972
 20
82.0925
 11
202.046
 21
82.402
  0
LINE
  8
0
 10
202.046
 20
82.402
 11
202.168
 21
82.696
  0
LINE
  8
0
 10
202.168
 20
82.696
 11
202.334
 21
82.9673
  0
LINE
  8
0
 10
202.334
 20
82.9673
 11
202.541
 21
83.2093
  0
LINE
  8
0
 10
202.541
 20
83.2093
 11
202.783
 21
83.416
  0
LINE
  8
0
 10
202.783
 20
83.416
 11
203.054
 21
83.5823
  0
LINE
  8
0
 10
203.054
 20
83.5823
 11
203.348
 21
83.704
  0
LINE
  8
0
 10
203.348
 20
83.704
 11
203.657
 21
83.7783
  0
LINE
  8
0
 10
203.657
 20
83.7783
 11
203.975
 21
83.8033
  0
LINE
  8
0
 10
203.975
 20
83.8033
 11
204.292
 21
83.7783
  0
LINE
  8
0
 10
204.292
 20
83.7783
 11
204.601
 21
83.704
  0
LINE
  8
0
 10
204.601
 20
83.704
 11
204.895
 21
83.5823
  0
LINE
  8
0
 10
204.895
 20
83.5823
 11
205.167
 21
83.416
  0
LINE
  8
0
 10
205.167
 20
83.416
 11
205.409
 21
83.2093
  0
LINE
  8
0
 10
205.409
 20
83.2093
 11
205.615
 21
82.9673
  0
LINE
  8
0
 10
205.615
 20
82.9673
 11
205.782
 21
82.696
  0
LINE
  8
0
 10
205.782
 20
82.696
 11
205.903
 21
82.402
  0
LINE
  8
0
 10
205.903
 20
82.402
 11
205.978
 21
82.0925
  0
LINE
  8
0
 10
205.978
 20
82.0925
 11
206.003
 21
81.7753
  0
LINE
  8
0
 10
206.003
 20
81.7753
 11
205.978
 21
81.458
  0
LINE
  8
0
 10
205.978
 20
81.458
 11
205.903
 21
81.1486
  0
LINE
  8
0
 10
205.903
 20
81.1486
 11
205.782
 21
80.8546
  0
LINE
  8
0
 10
205.782
 20
80.8546
 11
205.615
 21
80.5833
  0
LINE
  8
0
 10
205.615
 20
80.5833
 11
205.409
 21
80.3413
  0
LINE
  8
0
 10
205.409
 20
80.3413
 11
205.167
 21
80.1346
  0
LINE
  8
0
 10
205.167
 20
80.1346
 11
204.895
 21
79.9683
  0
LINE
  8
0
 10
204.895
 20
79.9683
 11
204.601
 21
79.8465
  0
LINE
  8
0
 10
204.601
 20
79.8465
 11
204.292
 21
79.7723
  0
LINE
  8
0
 10
204.292
 20
79.7723
 11
203.975
 21
79.7473
  0
LINE
  8
0
 10
203.975
 20
79.7473
 11
203.657
 21
79.7723
  0
LINE
  8
0
 10
222.707
 20
79.7723
 11
222.398
 21
79.8465
  0
LINE
  8
0
 10
222.398
 20
79.8465
 11
222.104
 21
79.9683
  0
LINE
  8
0
 10
222.104
 20
79.9683
 11
221.833
 21
80.1346
  0
LINE
  8
0
 10
221.833
 20
80.1346
 11
221.591
 21
80.3413
  0
LINE
  8
0
 10
221.591
 20
80.3413
 11
221.384
 21
80.5833
  0
LINE
  8
0
 10
221.384
 20
80.5833
 11
221.218
 21
80.8546
  0
LINE
  8
0
 10
221.218
 20
80.8546
 11
221.096
 21
81.1486
  0
LINE
  8
0
 10
221.096
 20
81.1486
 11
221.022
 21
81.458
  0
LINE
  8
0
 10
221.022
 20
81.458
 11
220.997
 21
81.7753
  0
LINE
  8
0
 10
220.997
 20
81.7753
 11
221.022
 21
82.0925
  0
LINE
  8
0
 10
221.022
 20
82.0925
 11
221.096
 21
82.402
  0
LINE
  8
0
 10
221.096
 20
82.402
 11
221.218
 21
82.696
  0
LINE
  8
0
 10
221.218
 20
82.696
 11
221.384
 21
82.9673
  0
LINE
  8
0
 10
221.384
 20
82.9673
 11
221.591
 21
83.2093
  0
LINE
  8
0
 10
221.591
 20
83.2093
 11
221.833
 21
83.416
  0
LINE
  8
0
 10
221.833
 20
83.416
 11
222.104
 21
83.5823
  0
LINE
  8
0
 10
222.104
 20
83.5823
 11
222.398
 21
83.704
  0
LINE
  8
0
 10
222.398
 20
83.704
 11
222.707
 21
83.7783
  0
LINE
  8
0
 10
222.707
 20
83.7783
 11
223.025
 21
83.8033
  0
LINE
  8
0
 10
223.025
 20
83.8033
 11
223.342
 21
83.7783
  0
LINE
  8
0
 10
223.342
 20
83.7783
 11
223.651
 21
83.704
  0
LINE
  8
0
 10
223.651
 20
83.704
 11
223.945
 21
83.5823
  0
LINE
  8
0
 10
223.945
 20
83.5823
 11
224.217
 21
83.416
  0
LINE
  8
0
 10
224.217
 20
83.416
 11
224.459
 21
83.2093
  0
LINE
  8
0
 10
224.459
 20
83.2093
 11
224.665
 21
82.9673
  0
LINE
  8
0
 10
224.665
 20
82.9673
 11
224.832
 21
82.696
  0
LINE
  8
0
 10
224.832
 20
82.696
 11
224.953
 21
82.402
  0
LINE
  8
0
 10
224.953
 20
82.402
 11
225.028
 21
82.0925
  0
LINE
  8
0
 10
225.028
 20
82.0925
 11
225.053
 21
81.7753
  0
LINE
  8
0
 10
225.053
 20
81.7753
 11
225.028
 21
81.458
  0
LINE
  8
0
 10
225.028
 20
81.458
 11
224.953
 21
81.1486
  0
LINE
  8
0
 10
224.953
 20
81.1486
 11
224.832
 21
80.8546
  0
LINE
  8
0
 10
224.832
 20
80.8546
 11
224.665
 21
80.5833
  0
LINE
  8
0
 10
224.665
 20
80.5833
 11
224.459
 21
80.3413
  0
LINE
  8
0
 10
224.459
 20
80.3413
 11
224.217
 21
80.1346
  0
LINE
  8
0
 10
224.217
 20
80.1346
 11
223.945
 21
79.9683
  0
LINE
  8
0
 10
223.945
 20
79.9683
 11
223.651
 21
79.8465
  0
LINE
  8
0
 10
223.651
 20
79.8465
 11
223.342
 21
79.7723
  0
LINE
  8
0
 10
223.342
 20
79.7723
 11
223.025
 21
79.7473
  0
LINE
  8
0
 10
223.025
 20
79.7473
 11
222.707
 21
79.7723
  0
LINE
  8
0
 10
62.4081
 20
79.7723
 11
62.0986
 21
79.8465
  0
LINE
  8
0
 10
62.0986
 20
79.8465
 11
61.8046
 21
79.9683
  0
LINE
  8
0
 10
61.8046
 20
79.9683
 11
61.5333
 21
80.1346
  0
LINE
  8
0
 10
61.5333
 20
80.1346
 11
61.2913
 21
80.3413
  0
LINE
  8
0
 10
61.2913
 20
80.3413
 11
61.0846
 21
80.5833
  0
LINE
  8
0
 10
61.0846
 20
80.5833
 11
60.9183
 21
80.8546
  0
LINE
  8
0
 10
60.9183
 20
80.8546
 11
60.7966
 21
81.1486
  0
LINE
  8
0
 10
60.7966
 20
81.1486
 11
60.7223
 21
81.458
  0
LINE
  8
0
 10
60.7223
 20
81.458
 11
60.6973
 21
81.7753
  0
LINE
  8
0
 10
60.6973
 20
81.7753
 11
60.7223
 21
82.0925
  0
LINE
  8
0
 10
60.7223
 20
82.0925
 11
60.7966
 21
82.402
  0
LINE
  8
0
 10
60.7966
 20
82.402
 11
60.9183
 21
82.696
  0
LINE
  8
0
 10
60.9183
 20
82.696
 11
61.0846
 21
82.9673
  0
LINE
  8
0
 10
61.0846
 20
82.9673
 11
61.2913
 21
83.2093
  0
LINE
  8
0
 10
61.2913
 20
83.2093
 11
61.5333
 21
83.416
  0
LINE
  8
0
 10
61.5333
 20
83.416
 11
61.8046
 21
83.5823
  0
LINE
  8
0
 10
61.8046
 20
83.5823
 11
62.0986
 21
83.704
  0
LINE
  8
0
 10
62.0986
 20
83.704
 11
62.4081
 21
83.7783
  0
LINE
  8
0
 10
62.4081
 20
83.7783
 11
62.7253
 21
83.8033
  0
LINE
  8
0
 10
62.7253
 20
83.8033
 11
63.0425
 21
83.7783
  0
LINE
  8
0
 10
63.0425
 20
83.7783
 11
63.352
 21
83.704
  0
LINE
  8
0
 10
63.352
 20
83.704
 11
63.646
 21
83.5823
  0
LINE
  8
0
 10
63.646
 20
83.5823
 11
63.9173
 21
83.416
  0
LINE
  8
0
 10
63.9173
 20
83.416
 11
64.1593
 21
83.2093
  0
LINE
  8
0
 10
64.1593
 20
83.2093
 11
64.366
 21
82.9673
  0
LINE
  8
0
 10
64.366
 20
82.9673
 11
64.5323
 21
82.696
  0
LINE
  8
0
 10
64.5323
 20
82.696
 11
64.654
 21
82.402
  0
LINE
  8
0
 10
64.654
 20
82.402
 11
64.7283
 21
82.0925
  0
LINE
  8
0
 10
64.7283
 20
82.0925
 11
64.7533
 21
81.7753
  0
LINE
  8
0
 10
64.7533
 20
81.7753
 11
64.7283
 21
81.458
  0
LINE
  8
0
 10
64.7283
 20
81.458
 11
64.654
 21
81.1486
  0
LINE
  8
0
 10
64.654
 20
81.1486
 11
64.5323
 21
80.8546
  0
LINE
  8
0
 10
64.5323
 20
80.8546
 11
64.366
 21
80.5833
  0
LINE
  8
0
 10
64.366
 20
80.5833
 11
64.1593
 21
80.3413
  0
LINE
  8
0
 10
64.1593
 20
80.3413
 11
63.9173
 21
80.1346
  0
LINE
  8
0
 10
63.9173
 20
80.1346
 11
63.646
 21
79.9683
  0
LINE
  8
0
 10
63.646
 20
79.9683
 11
63.352
 21
79.8465
  0
LINE
  8
0
 10
63.352
 20
79.8465
 11
63.0425
 21
79.7723
  0
LINE
  8
0
 10
63.0425
 20
79.7723
 11
62.7253
 21
79.7473
  0
LINE
  8
0
 10
62.7253
 20
79.7473
 11
62.4081
 21
79.7723
  0
LINE
  8
0
 10
127.457
 20
68.6217
 11
127.148
 21
68.696
  0
LINE
  8
0
 10
127.148
 20
68.696
 11
126.854
 21
68.8177
  0
LINE
  8
0
 10
126.854
 20
68.8177
 11
126.583
 21
68.984
  0
LINE
  8
0
 10
126.583
 20
68.984
 11
126.341
 21
69.1907
  0
LINE
  8
0
 10
126.341
 20
69.1907
 11
126.134
 21
69.4327
  0
LINE
  8
0
 10
126.134
 20
69.4327
 11
125.968
 21
69.704
  0
LINE
  8
0
 10
125.968
 20
69.704
 11
125.846
 21
69.998
  0
LINE
  8
0
 10
125.846
 20
69.998
 11
125.772
 21
70.3074
  0
LINE
  8
0
 10
125.772
 20
70.3074
 11
125.747
 21
70.6247
  0
LINE
  8
0
 10
125.747
 20
70.6247
 11
125.772
 21
70.9419
  0
LINE
  8
0
 10
125.772
 20
70.9419
 11
125.846
 21
71.2514
  0
LINE
  8
0
 10
125.846
 20
71.2514
 11
125.968
 21
71.5454
  0
LINE
  8
0
 10
125.968
 20
71.5454
 11
126.134
 21
71.8167
  0
LINE
  8
0
 10
126.134
 20
71.8167
 11
126.341
 21
72.0587
  0
LINE
  8
0
 10
126.341
 20
72.0587
 11
126.583
 21
72.2654
  0
LINE
  8
0
 10
126.583
 20
72.2654
 11
126.854
 21
72.4317
  0
LINE
  8
0
 10
126.854
 20
72.4317
 11
127.148
 21
72.5534
  0
LINE
  8
0
 10
127.148
 20
72.5534
 11
127.457
 21
72.6277
  0
LINE
  8
0
 10
127.457
 20
72.6277
 11
127.775
 21
72.6527
  0
LINE
  8
0
 10
127.775
 20
72.6527
 11
128.092
 21
72.6277
  0
LINE
  8
0
 10
128.092
 20
72.6277
 11
128.401
 21
72.5534
  0
LINE
  8
0
 10
128.401
 20
72.5534
 11
128.695
 21
72.4317
  0
LINE
  8
0
 10
128.695
 20
72.4317
 11
128.967
 21
72.2654
  0
LINE
  8
0
 10
128.967
 20
72.2654
 11
129.209
 21
72.0587
  0
LINE
  8
0
 10
129.209
 20
72.0587
 11
129.415
 21
71.8167
  0
LINE
  8
0
 10
129.415
 20
71.8167
 11
129.582
 21
71.5454
  0
LINE
  8
0
 10
129.582
 20
71.5454
 11
129.703
 21
71.2514
  0
LINE
  8
0
 10
129.703
 20
71.2514
 11
129.778
 21
70.9419
  0
LINE
  8
0
 10
129.778
 20
70.9419
 11
129.803
 21
70.6247
  0
LINE
  8
0
 10
129.803
 20
70.6247
 11
129.778
 21
70.3074
  0
LINE
  8
0
 10
129.778
 20
70.3074
 11
129.703
 21
69.998
  0
LINE
  8
0
 10
129.703
 20
69.998
 11
129.582
 21
69.704
  0
LINE
  8
0
 10
129.582
 20
69.704
 11
129.415
 21
69.4327
  0
LINE
  8
0
 10
129.415
 20
69.4327
 11
129.209
 21
69.1907
  0
LINE
  8
0
 10
129.209
 20
69.1907
 11
128.967
 21
68.984
  0
LINE
  8
0
 10
128.967
 20
68.984
 11
128.695
 21
68.8177
  0
LINE
  8
0
 10
128.695
 20
68.8177
 11
128.401
 21
68.696
  0
LINE
  8
0
 10
128.401
 20
68.696
 11
128.092
 21
68.6217
  0
LINE
  8
0
 10
128.092
 20
68.6217
 11
127.775
 21
68.5967
  0
LINE
  8
0
 10
127.775
 20
68.5967
 11
127.457
 21
68.6217
  0
LINE
  8
0
 10
51.2574
 20
68.6217
 11
50.948
 21
68.696
  0
LINE
  8
0
 10
50.948
 20
68.696
 11
50.654
 21
68.8177
  0
LINE
  8
0
 10
50.654
 20
68.8177
 11
50.3827
 21
68.984
  0
LINE
  8
0
 10
50.3827
 20
68.984
 11
50.1407
 21
69.1907
  0
LINE
  8
0
 10
50.1407
 20
69.1907
 11
49.934
 21
69.4327
  0
LINE
  8
0
 10
49.934
 20
69.4327
 11
49.7677
 21
69.704
  0
LINE
  8
0
 10
49.7677
 20
69.704
 11
49.646
 21
69.998
  0
LINE
  8
0
 10
49.646
 20
69.998
 11
49.5717
 21
70.3074
  0
LINE
  8
0
 10
49.5717
 20
70.3074
 11
49.5467
 21
70.6247
  0
LINE
  8
0
 10
49.5467
 20
70.6247
 11
49.5717
 21
70.9419
  0
LINE
  8
0
 10
49.5717
 20
70.9419
 11
49.646
 21
71.2514
  0
LINE
  8
0
 10
49.646
 20
71.2514
 11
49.7677
 21
71.5454
  0
LINE
  8
0
 10
49.7677
 20
71.5454
 11
49.934
 21
71.8167
  0
LINE
  8
0
 10
49.934
 20
71.8167
 11
50.1407
 21
72.0587
  0
LINE
  8
0
 10
50.1407
 20
72.0587
 11
50.3827
 21
72.2654
  0
LINE
  8
0
 10
50.3827
 20
72.2654
 11
50.654
 21
72.4317
  0
LINE
  8
0
 10
50.654
 20
72.4317
 11
50.948
 21
72.5534
  0
LINE
  8
0
 10
50.948
 20
72.5534
 11
51.2574
 21
72.6277
  0
LINE
  8
0
 10
51.2574
 20
72.6277
 11
51.5747
 21
72.6527
  0
LINE
  8
0
 10
51.5747
 20
72.6527
 11
51.8919
 21
72.6277
  0
LINE
  8
0
 10
51.8919
 20
72.6277
 11
52.2014
 21
72.5534
  0
LINE
  8
0
 10
52.2014
 20
72.5534
 11
52.4954
 21
72.4317
  0
LINE
  8
0
 10
52.4954
 20
72.4317
 11
52.7667
 21
72.2654
  0
LINE
  8
0
 10
52.7667
 20
72.2654
 11
53.0087
 21
72.0587
  0
LINE
  8
0
 10
53.0087
 20
72.0587
 11
53.2154
 21
71.8167
  0
LINE
  8
0
 10
53.2154
 20
71.8167
 11
53.3817
 21
71.5454
  0
LINE
  8
0
 10
53.3817
 20
71.5454
 11
53.5034
 21
71.2514
  0
LINE
  8
0
 10
53.5034
 20
71.2514
 11
53.5777
 21
70.9419
  0
LINE
  8
0
 10
53.5777
 20
70.9419
 11
53.6027
 21
70.6247
  0
LINE
  8
0
 10
53.6027
 20
70.6247
 11
53.5777
 21
70.3074
  0
LINE
  8
0
 10
53.5777
 20
70.3074
 11
53.5034
 21
69.998
  0
LINE
  8
0
 10
53.5034
 20
69.998
 11
53.3817
 21
69.704
  0
LINE
  8
0
 10
53.3817
 20
69.704
 11
53.2154
 21
69.4327
  0
LINE
  8
0
 10
53.2154
 20
69.4327
 11
53.0087
 21
69.1907
  0
LINE
  8
0
 10
53.0087
 20
69.1907
 11
52.7667
 21
68.984
  0
LINE
  8
0
 10
52.7667
 20
68.984
 11
52.4954
 21
68.8177
  0
LINE
  8
0
 10
52.4954
 20
68.8177
 11
52.2014
 21
68.696
  0
LINE
  8
0
 10
52.2014
 20
68.696
 11
51.8919
 21
68.6217
  0
LINE
  8
0
 10
51.8919
 20
68.6217
 11
51.5747
 21
68.5967
  0
LINE
  8
0
 10
51.5747
 20
68.5967
 11
51.2574
 21
68.6217
  0
LINE
  8
0
 10
184.607
 20
68.6217
 11
184.298
 21
68.6959
  0
LINE
  8
0
 10
184.298
 20
68.6959
 11
184.004
 21
68.8177
  0
LINE
  8
0
 10
184.004
 20
68.8177
 11
183.733
 21
68.984
  0
LINE
  8
0
 10
183.733
 20
68.984
 11
183.491
 21
69.1907
  0
LINE
  8
0
 10
183.491
 20
69.1907
 11
183.284
 21
69.4327
  0
LINE
  8
0
 10
183.284
 20
69.4327
 11
183.118
 21
69.704
  0
LINE
  8
0
 10
183.118
 20
69.704
 11
182.996
 21
69.998
  0
LINE
  8
0
 10
182.996
 20
69.998
 11
182.922
 21
70.3074
  0
LINE
  8
0
 10
182.922
 20
70.3074
 11
182.897
 21
70.6247
  0
LINE
  8
0
 10
182.897
 20
70.6247
 11
182.922
 21
70.9419
  0
LINE
  8
0
 10
182.922
 20
70.9419
 11
182.996
 21
71.2514
  0
LINE
  8
0
 10
182.996
 20
71.2514
 11
183.118
 21
71.5454
  0
LINE
  8
0
 10
183.118
 20
71.5454
 11
183.284
 21
71.8167
  0
LINE
  8
0
 10
183.284
 20
71.8167
 11
183.491
 21
72.0587
  0
LINE
  8
0
 10
183.491
 20
72.0587
 11
183.733
 21
72.2654
  0
LINE
  8
0
 10
183.733
 20
72.2654
 11
184.004
 21
72.4316
  0
LINE
  8
0
 10
184.004
 20
72.4316
 11
184.298
 21
72.5534
  0
LINE
  8
0
 10
184.298
 20
72.5534
 11
184.607
 21
72.6277
  0
LINE
  8
0
 10
184.607
 20
72.6277
 11
184.925
 21
72.6527
  0
LINE
  8
0
 10
184.925
 20
72.6527
 11
185.242
 21
72.6277
  0
LINE
  8
0
 10
185.242
 20
72.6277
 11
185.551
 21
72.5534
  0
LINE
  8
0
 10
185.551
 20
72.5534
 11
185.845
 21
72.4316
  0
LINE
  8
0
 10
185.845
 20
72.4316
 11
186.117
 21
72.2654
  0
LINE
  8
0
 10
186.117
 20
72.2654
 11
186.359
 21
72.0587
  0
LINE
  8
0
 10
186.359
 20
72.0587
 11
186.565
 21
71.8167
  0
LINE
  8
0
 10
186.565
 20
71.8167
 11
186.732
 21
71.5454
  0
LINE
  8
0
 10
186.732
 20
71.5454
 11
186.853
 21
71.2514
  0
LINE
  8
0
 10
186.853
 20
71.2514
 11
186.928
 21
70.9419
  0
LINE
  8
0
 10
186.928
 20
70.9419
 11
186.953
 21
70.6247
  0
LINE
  8
0
 10
186.953
 20
70.6247
 11
186.928
 21
70.3074
  0
LINE
  8
0
 10
186.928
 20
70.3074
 11
186.853
 21
69.998
  0
LINE
  8
0
 10
186.853
 20
69.998
 11
186.732
 21
69.704
  0
LINE
  8
0
 10
186.732
 20
69.704
 11
186.565
 21
69.4327
  0
LINE
  8
0
 10
186.565
 20
69.4327
 11
186.359
 21
69.1907
  0
LINE
  8
0
 10
186.359
 20
69.1907
 11
186.117
 21
68.984
  0
LINE
  8
0
 10
186.117
 20
68.984
 11
185.845
 21
68.8177
  0
LINE
  8
0
 10
185.845
 20
68.8177
 11
185.551
 21
68.6959
  0
LINE
  8
0
 10
185.551
 20
68.6959
 11
185.242
 21
68.6217
  0
LINE
  8
0
 10
185.242
 20
68.6217
 11
184.925
 21
68.5967
  0
LINE
  8
0
 10
184.925
 20
68.5967
 11
184.607
 21
68.6217
  0
LINE
  8
0
 10
157.658
 20
68.6217
 11
157.349
 21
68.6959
  0
LINE
  8
0
 10
157.349
 20
68.6959
 11
157.055
 21
68.8177
  0
LINE
  8
0
 10
157.055
 20
68.8177
 11
156.783
 21
68.984
  0
LINE
  8
0
 10
156.783
 20
68.984
 11
156.541
 21
69.1907
  0
LINE
  8
0
 10
156.541
 20
69.1907
 11
156.335
 21
69.4327
  0
LINE
  8
0
 10
156.335
 20
69.4327
 11
156.168
 21
69.704
  0
LINE
  8
0
 10
156.168
 20
69.704
 11
156.047
 21
69.998
  0
LINE
  8
0
 10
156.047
 20
69.998
 11
155.972
 21
70.3074
  0
LINE
  8
0
 10
155.972
 20
70.3074
 11
155.947
 21
70.6247
  0
LINE
  8
0
 10
155.947
 20
70.6247
 11
155.972
 21
70.9419
  0
LINE
  8
0
 10
155.972
 20
70.9419
 11
156.047
 21
71.2514
  0
LINE
  8
0
 10
156.047
 20
71.2514
 11
156.168
 21
71.5454
  0
LINE
  8
0
 10
156.168
 20
71.5454
 11
156.335
 21
71.8167
  0
LINE
  8
0
 10
156.335
 20
71.8167
 11
156.541
 21
72.0587
  0
LINE
  8
0
 10
156.541
 20
72.0587
 11
156.783
 21
72.2654
  0
LINE
  8
0
 10
156.783
 20
72.2654
 11
157.055
 21
72.4316
  0
LINE
  8
0
 10
157.055
 20
72.4316
 11
157.349
 21
72.5534
  0
LINE
  8
0
 10
157.349
 20
72.5534
 11
157.658
 21
72.6277
  0
LINE
  8
0
 10
157.658
 20
72.6277
 11
157.975
 21
72.6527
  0
LINE
  8
0
 10
157.975
 20
72.6527
 11
158.293
 21
72.6277
  0
LINE
  8
0
 10
158.293
 20
72.6277
 11
158.602
 21
72.5534
  0
LINE
  8
0
 10
158.602
 20
72.5534
 11
158.896
 21
72.4316
  0
LINE
  8
0
 10
158.896
 20
72.4316
 11
159.167
 21
72.2654
  0
LINE
  8
0
 10
159.167
 20
72.2654
 11
159.409
 21
72.0587
  0
LINE
  8
0
 10
159.409
 20
72.0587
 11
159.616
 21
71.8167
  0
LINE
  8
0
 10
159.616
 20
71.8167
 11
159.782
 21
71.5454
  0
LINE
  8
0
 10
159.782
 20
71.5454
 11
159.904
 21
71.2514
  0
LINE
  8
0
 10
159.904
 20
71.2514
 11
159.978
 21
70.9419
  0
LINE
  8
0
 10
159.978
 20
70.9419
 11
160.003
 21
70.6247
  0
LINE
  8
0
 10
160.003
 20
70.6247
 11
159.978
 21
70.3074
  0
LINE
  8
0
 10
159.978
 20
70.3074
 11
159.904
 21
69.998
  0
LINE
  8
0
 10
159.904
 20
69.998
 11
159.782
 21
69.704
  0
LINE
  8
0
 10
159.782
 20
69.704
 11
159.616
 21
69.4327
  0
LINE
  8
0
 10
159.616
 20
69.4327
 11
159.409
 21
69.1907
  0
LINE
  8
0
 10
159.409
 20
69.1907
 11
159.167
 21
68.984
  0
LINE
  8
0
 10
159.167
 20
68.984
 11
158.896
 21
68.8177
  0
LINE
  8
0
 10
158.896
 20
68.8177
 11
158.602
 21
68.6959
  0
LINE
  8
0
 10
158.602
 20
68.6959
 11
158.293
 21
68.6217
  0
LINE
  8
0
 10
158.293
 20
68.6217
 11
157.975
 21
68.5967
  0
LINE
  8
0
 10
157.975
 20
68.5967
 11
157.658
 21
68.6217
  0
LINE
  8
0
 10
5.29715
 20
68.8686
 11
5.02586
 21
68.9337
  0
LINE
  8
0
 10
5.02586
 20
68.9337
 11
4.7681
 21
69.0405
  0
LINE
  8
0
 10
4.7681
 20
69.0405
 11
4.53021
 21
69.1863
  0
LINE
  8
0
 10
4.53021
 20
69.1863
 11
4.31805
 21
69.3675
  0
LINE
  8
0
 10
4.31805
 20
69.3675
 11
4.13686
 21
69.5796
  0
LINE
  8
0
 10
4.13686
 20
69.5796
 11
3.99109
 21
69.8175
  0
LINE
  8
0
 10
3.99109
 20
69.8175
 11
3.88431
 21
70.0753
  0
LINE
  8
0
 10
3.88431
 20
70.0753
 11
3.81918
 21
70.3466
  0
LINE
  8
0
 10
3.81918
 20
70.3466
 11
3.79729
 21
70.6247
  0
LINE
  8
0
 10
3.79729
 20
70.6247
 11
3.81918
 21
70.9028
  0
LINE
  8
0
 10
3.81918
 20
70.9028
 11
3.88431
 21
71.1741
  0
LINE
  8
0
 10
3.88431
 20
71.1741
 11
3.99109
 21
71.4319
  0
LINE
  8
0
 10
3.99109
 20
71.4319
 11
4.13686
 21
71.6698
  0
LINE
  8
0
 10
4.13686
 20
71.6698
 11
4.31805
 21
71.8819
  0
LINE
  8
0
 10
4.31805
 20
71.8819
 11
4.53021
 21
72.0631
  0
LINE
  8
0
 10
4.53021
 20
72.0631
 11
4.7681
 21
72.2089
  0
LINE
  8
0
 10
4.7681
 20
72.2089
 11
5.02586
 21
72.3157
  0
LINE
  8
0
 10
5.02586
 20
72.3157
 11
5.29715
 21
72.3808
  0
LINE
  8
0
 10
5.29715
 20
72.3808
 11
5.57529
 21
72.4027
  0
LINE
  8
0
 10
5.57529
 20
72.4027
 11
5.85344
 21
72.3808
  0
LINE
  8
0
 10
5.85344
 20
72.3808
 11
6.12473
 21
72.3157
  0
LINE
  8
0
 10
6.12473
 20
72.3157
 11
6.38249
 21
72.2089
  0
LINE
  8
0
 10
6.38249
 20
72.2089
 11
6.62038
 21
72.0631
  0
LINE
  8
0
 10
6.62038
 20
72.0631
 11
6.83253
 21
71.8819
  0
LINE
  8
0
 10
6.83253
 20
71.8819
 11
7.01372
 21
71.6698
  0
LINE
  8
0
 10
7.01372
 20
71.6698
 11
7.1595
 21
71.4319
  0
LINE
  8
0
 10
7.1595
 20
71.4319
 11
7.26627
 21
71.1741
  0
LINE
  8
0
 10
7.26627
 20
71.1741
 11
7.33141
 21
70.9028
  0
LINE
  8
0
 10
7.33141
 20
70.9028
 11
7.35329
 21
70.6247
  0
LINE
  8
0
 10
7.35329
 20
70.6247
 11
7.33141
 21
70.3466
  0
LINE
  8
0
 10
7.33141
 20
70.3466
 11
7.26627
 21
70.0753
  0
LINE
  8
0
 10
7.26627
 20
70.0753
 11
7.1595
 21
69.8175
  0
LINE
  8
0
 10
7.1595
 20
69.8175
 11
7.01372
 21
69.5796
  0
LINE
  8
0
 10
7.01372
 20
69.5796
 11
6.83253
 21
69.3675
  0
LINE
  8
0
 10
6.83253
 20
69.3675
 11
6.62038
 21
69.1863
  0
LINE
  8
0
 10
6.62038
 20
69.1863
 11
6.38249
 21
69.0405
  0
LINE
  8
0
 10
6.38249
 20
69.0405
 11
6.12473
 21
68.9337
  0
LINE
  8
0
 10
6.12473
 20
68.9337
 11
5.85344
 21
68.8686
  0
LINE
  8
0
 10
5.85344
 20
68.8686
 11
5.57529
 21
68.8467
  0
LINE
  8
0
 10
5.57529
 20
68.8467
 11
5.29715
 21
68.8686
  0
LINE
  8
0
 10
298.947
 20
68.8686
 11
298.675
 21
68.9337
  0
LINE
  8
0
 10
298.675
 20
68.9337
 11
298.417
 21
69.0405
  0
LINE
  8
0
 10
298.417
 20
69.0405
 11
298.18
 21
69.1863
  0
LINE
  8
0
 10
298.18
 20
69.1863
 11
297.967
 21
69.3675
  0
LINE
  8
0
 10
297.967
 20
69.3675
 11
297.786
 21
69.5796
  0
LINE
  8
0
 10
297.786
 20
69.5796
 11
297.64
 21
69.8175
  0
LINE
  8
0
 10
297.64
 20
69.8175
 11
297.534
 21
70.0753
  0
LINE
  8
0
 10
297.534
 20
70.0753
 11
297.469
 21
70.3466
  0
LINE
  8
0
 10
297.469
 20
70.3466
 11
297.447
 21
70.6247
  0
LINE
  8
0
 10
297.447
 20
70.6247
 11
297.469
 21
70.9028
  0
LINE
  8
0
 10
297.469
 20
70.9028
 11
297.534
 21
71.1741
  0
LINE
  8
0
 10
297.534
 20
71.1741
 11
297.64
 21
71.4319
  0
LINE
  8
0
 10
297.64
 20
71.4319
 11
297.786
 21
71.6698
  0
LINE
  8
0
 10
297.786
 20
71.6698
 11
297.967
 21
71.8819
  0
LINE
  8
0
 10
297.967
 20
71.8819
 11
298.18
 21
72.0631
  0
LINE
  8
0
 10
298.18
 20
72.0631
 11
298.417
 21
72.2089
  0
LINE
  8
0
 10
298.417
 20
72.2089
 11
298.675
 21
72.3157
  0
LINE
  8
0
 10
298.675
 20
72.3157
 11
298.947
 21
72.3808
  0
LINE
  8
0
 10
298.947
 20
72.3808
 11
299.225
 21
72.4027
  0
LINE
  8
0
 10
299.225
 20
72.4027
 11
299.503
 21
72.3808
  0
LINE
  8
0
 10
299.503
 20
72.3808
 11
299.774
 21
72.3157
  0
LINE
  8
0
 10
299.774
 20
72.3157
 11
300.032
 21
72.2089
  0
LINE
  8
0
 10
300.032
 20
72.2089
 11
300.27
 21
72.0631
  0
LINE
  8
0
 10
300.27
 20
72.0631
 11
300.482
 21
71.8819
  0
LINE
  8
0
 10
300.482
 20
71.8819
 11
300.663
 21
71.6698
  0
LINE
  8
0
 10
300.663
 20
71.6698
 11
300.809
 21
71.4319
  0
LINE
  8
0
 10
300.809
 20
71.4319
 11
300.916
 21
71.1741
  0
LINE
  8
0
 10
300.916
 20
71.1741
 11
300.981
 21
70.9028
  0
LINE
  8
0
 10
300.981
 20
70.9028
 11
301.003
 21
70.6247
  0
LINE
  8
0
 10
301.003
 20
70.6247
 11
300.981
 21
70.3466
  0
LINE
  8
0
 10
300.981
 20
70.3466
 11
300.916
 21
70.0753
  0
LINE
  8
0
 10
300.916
 20
70.0753
 11
300.809
 21
69.8175
  0
LINE
  8
0
 10
300.809
 20
69.8175
 11
300.663
 21
69.5796
  0
LINE
  8
0
 10
300.663
 20
69.5796
 11
300.482
 21
69.3675
  0
LINE
  8
0
 10
300.482
 20
69.3675
 11
300.27
 21
69.1863
  0
LINE
  8
0
 10
300.27
 20
69.1863
 11
300.032
 21
69.0405
  0
LINE
  8
0
 10
300.032
 20
69.0405
 11
299.774
 21
68.9337
  0
LINE
  8
0
 10
299.774
 20
68.9337
 11
299.503
 21
68.8686
  0
LINE
  8
0
 10
299.503
 20
68.8686
 11
299.225
 21
68.8467
  0
LINE
  8
0
 10
299.225
 20
68.8467
 11
298.947
 21
68.8686
  0
LINE
  8
0
 10
128.85
 20
50.65
 11
128.641
 21
50.6609
  0
LINE
  8
0
 10
128.641
 20
50.6609
 11
128.434
 21
50.6937
  0
LINE
  8
0
 10
128.434
 20
50.6937
 11
128.232
 21
50.7479
  0
LINE
  8
0
 10
128.232
 20
50.7479
 11
128.037
 21
50.8229
  0
LINE
  8
0
 10
128.037
 20
50.8229
 11
127.85
 21
50.9179
  0
LINE
  8
0
 10
127.85
 20
50.9179
 11
127.674
 21
51.032
  0
LINE
  8
0
 10
127.674
 20
51.032
 11
127.512
 21
51.1637
  0
LINE
  8
0
 10
127.512
 20
51.1637
 11
127.364
 21
51.3117
  0
LINE
  8
0
 10
127.364
 20
51.3117
 11
127.232
 21
51.4744
  0
LINE
  8
0
 10
127.232
 20
51.4744
 11
127.118
 21
51.65
  0
LINE
  8
0
 10
127.118
 20
51.65
 11
127.023
 21
51.8365
  0
LINE
  8
0
 10
127.023
 20
51.8365
 11
126.948
 21
52.032
  0
LINE
  8
0
 10
126.948
 20
52.032
 11
126.894
 21
52.2342
  0
LINE
  8
0
 10
126.894
 20
52.2342
 11
126.861
 21
52.4409
  0
LINE
  8
0
 10
126.861
 20
52.4409
 11
126.85
 21
52.65
  0
LINE
  8
0
 10
126.85
 20
52.65
 11
126.85
 21
61.65
  0
LINE
  8
0
 10
126.85
 20
61.65
 11
126.861
 21
61.8591
  0
LINE
  8
0
 10
126.861
 20
61.8591
 11
126.894
 21
62.0658
  0
LINE
  8
0
 10
126.894
 20
62.0658
 11
126.948
 21
62.268
  0
LINE
  8
0
 10
126.948
 20
62.268
 11
127.023
 21
62.4635
  0
LINE
  8
0
 10
127.023
 20
62.4635
 11
127.118
 21
62.65
  0
LINE
  8
0
 10
127.118
 20
62.65
 11
127.232
 21
62.8256
  0
LINE
  8
0
 10
127.232
 20
62.8256
 11
127.364
 21
62.9883
  0
LINE
  8
0
 10
127.364
 20
62.9883
 11
127.512
 21
63.1363
  0
LINE
  8
0
 10
127.512
 20
63.1363
 11
127.674
 21
63.268
  0
LINE
  8
0
 10
127.674
 20
63.268
 11
127.85
 21
63.382
  0
LINE
  8
0
 10
127.85
 20
63.382
 11
128.037
 21
63.4771
  0
LINE
  8
0
 10
128.037
 20
63.4771
 11
128.232
 21
63.5521
  0
LINE
  8
0
 10
128.232
 20
63.5521
 11
128.434
 21
63.6063
  0
LINE
  8
0
 10
128.434
 20
63.6063
 11
128.641
 21
63.639
  0
LINE
  8
0
 10
128.641
 20
63.639
 11
128.85
 21
63.65
  0
LINE
  8
0
 10
128.85
 20
63.65
 11
137.85
 21
63.65
  0
LINE
  8
0
 10
137.85
 20
63.65
 11
138.059
 21
63.639
  0
LINE
  8
0
 10
138.059
 20
63.639
 11
138.266
 21
63.6063
  0
LINE
  8
0
 10
138.266
 20
63.6063
 11
138.468
 21
63.5521
  0
LINE
  8
0
 10
138.468
 20
63.5521
 11
138.663
 21
63.4771
  0
LINE
  8
0
 10
138.663
 20
63.4771
 11
138.85
 21
63.382
  0
LINE
  8
0
 10
138.85
 20
63.382
 11
139.026
 21
63.268
  0
LINE
  8
0
 10
139.026
 20
63.268
 11
139.188
 21
63.1363
  0
LINE
  8
0
 10
139.188
 20
63.1363
 11
139.336
 21
62.9883
  0
LINE
  8
0
 10
139.336
 20
62.9883
 11
139.468
 21
62.8256
  0
LINE
  8
0
 10
139.468
 20
62.8256
 11
139.582
 21
62.65
  0
LINE
  8
0
 10
139.582
 20
62.65
 11
139.677
 21
62.4635
  0
LINE
  8
0
 10
139.677
 20
62.4635
 11
139.752
 21
62.268
  0
LINE
  8
0
 10
139.752
 20
62.268
 11
139.806
 21
62.0658
  0
LINE
  8
0
 10
139.806
 20
62.0658
 11
139.839
 21
61.8591
  0
LINE
  8
0
 10
139.839
 20
61.8591
 11
139.85
 21
61.65
  0
LINE
  8
0
 10
139.85
 20
61.65
 11
139.85
 21
52.65
  0
LINE
  8
0
 10
139.85
 20
52.65
 11
139.839
 21
52.4409
  0
LINE
  8
0
 10
139.839
 20
52.4409
 11
139.806
 21
52.2342
  0
LINE
  8
0
 10
139.806
 20
52.2342
 11
139.752
 21
52.032
  0
LINE
  8
0
 10
139.752
 20
52.032
 11
139.677
 21
51.8365
  0
LINE
  8
0
 10
139.677
 20
51.8365
 11
139.582
 21
51.65
  0
LINE
  8
0
 10
139.582
 20
51.65
 11
139.468
 21
51.4744
  0
LINE
  8
0
 10
139.468
 20
51.4744
 11
139.336
 21
51.3117
  0
LINE
  8
0
 10
139.336
 20
51.3117
 11
139.188
 21
51.1637
  0
LINE
  8
0
 10
139.188
 20
51.1637
 11
139.026
 21
51.032
  0
LINE
  8
0
 10
139.026
 20
51.032
 11
138.85
 21
50.9179
  0
LINE
  8
0
 10
138.85
 20
50.9179
 11
138.663
 21
50.8229
  0
LINE
  8
0
 10
138.663
 20
50.8229
 11
138.468
 21
50.7479
  0
LINE
  8
0
 10
138.468
 20
50.7479
 11
138.266
 21
50.6937
  0
LINE
  8
0
 10
138.266
 20
50.6937
 11
138.059
 21
50.6609
  0
LINE
  8
0
 10
138.059
 20
50.6609
 11
137.85
 21
50.65
  0
LINE
  8
0
 10
137.85
 20
50.65
 11
128.85
 21
50.65
  0
LINE
  8
0
 10
205.05
 20
50.65
 11
204.841
 21
50.6609
  0
LINE
  8
0
 10
204.841
 20
50.6609
 11
204.634
 21
50.6937
  0
LINE
  8
0
 10
204.634
 20
50.6937
 11
204.432
 21
50.7479
  0
LINE
  8
0
 10
204.432
 20
50.7479
 11
204.237
 21
50.8229
  0
LINE
  8
0
 10
204.237
 20
50.8229
 11
204.05
 21
50.9179
  0
LINE
  8
0
 10
204.05
 20
50.9179
 11
203.874
 21
51.032
  0
LINE
  8
0
 10
203.874
 20
51.032
 11
203.712
 21
51.1637
  0
LINE
  8
0
 10
203.712
 20
51.1637
 11
203.564
 21
51.3117
  0
LINE
  8
0
 10
203.564
 20
51.3117
 11
203.432
 21
51.4744
  0
LINE
  8
0
 10
203.432
 20
51.4744
 11
203.318
 21
51.65
  0
LINE
  8
0
 10
203.318
 20
51.65
 11
203.223
 21
51.8365
  0
LINE
  8
0
 10
203.223
 20
51.8365
 11
203.148
 21
52.032
  0
LINE
  8
0
 10
203.148
 20
52.032
 11
203.094
 21
52.2342
  0
LINE
  8
0
 10
203.094
 20
52.2342
 11
203.061
 21
52.4409
  0
LINE
  8
0
 10
203.061
 20
52.4409
 11
203.05
 21
52.65
  0
LINE
  8
0
 10
203.05
 20
52.65
 11
203.05
 21
61.65
  0
LINE
  8
0
 10
203.05
 20
61.65
 11
203.061
 21
61.8591
  0
LINE
  8
0
 10
203.061
 20
61.8591
 11
203.094
 21
62.0658
  0
LINE
  8
0
 10
203.094
 20
62.0658
 11
203.148
 21
62.268
  0
LINE
  8
0
 10
203.148
 20
62.268
 11
203.223
 21
62.4635
  0
LINE
  8
0
 10
203.223
 20
62.4635
 11
203.318
 21
62.65
  0
LINE
  8
0
 10
203.318
 20
62.65
 11
203.432
 21
62.8256
  0
LINE
  8
0
 10
203.432
 20
62.8256
 11
203.564
 21
62.9883
  0
LINE
  8
0
 10
203.564
 20
62.9883
 11
203.712
 21
63.1363
  0
LINE
  8
0
 10
203.712
 20
63.1363
 11
203.874
 21
63.268
  0
LINE
  8
0
 10
203.874
 20
63.268
 11
204.05
 21
63.382
  0
LINE
  8
0
 10
204.05
 20
63.382
 11
204.237
 21
63.4771
  0
LINE
  8
0
 10
204.237
 20
63.4771
 11
204.432
 21
63.5521
  0
LINE
  8
0
 10
204.432
 20
63.5521
 11
204.634
 21
63.6063
  0
LINE
  8
0
 10
204.634
 20
63.6063
 11
204.841
 21
63.639
  0
LINE
  8
0
 10
204.841
 20
63.639
 11
205.05
 21
63.65
  0
LINE
  8
0
 10
205.05
 20
63.65
 11
214.05
 21
63.65
  0
LINE
  8
0
 10
214.05
 20
63.65
 11
214.259
 21
63.639
  0
LINE
  8
0
 10
214.259
 20
63.639
 11
214.466
 21
63.6063
  0
LINE
  8
0
 10
214.466
 20
63.6063
 11
214.668
 21
63.5521
  0
LINE
  8
0
 10
214.668
 20
63.5521
 11
214.863
 21
63.4771
  0
LINE
  8
0
 10
214.863
 20
63.4771
 11
215.05
 21
63.382
  0
LINE
  8
0
 10
215.05
 20
63.382
 11
215.226
 21
63.268
  0
LINE
  8
0
 10
215.226
 20
63.268
 11
215.388
 21
63.1363
  0
LINE
  8
0
 10
215.388
 20
63.1363
 11
215.536
 21
62.9883
  0
LINE
  8
0
 10
215.536
 20
62.9883
 11
215.668
 21
62.8256
  0
LINE
  8
0
 10
215.668
 20
62.8256
 11
215.782
 21
62.65
  0
LINE
  8
0
 10
215.782
 20
62.65
 11
215.877
 21
62.4635
  0
LINE
  8
0
 10
215.877
 20
62.4635
 11
215.952
 21
62.268
  0
LINE
  8
0
 10
215.952
 20
62.268
 11
216.006
 21
62.0658
  0
LINE
  8
0
 10
216.006
 20
62.0658
 11
216.039
 21
61.8591
  0
LINE
  8
0
 10
216.039
 20
61.8591
 11
216.05
 21
61.65
  0
LINE
  8
0
 10
216.05
 20
61.65
 11
216.05
 21
52.65
  0
LINE
  8
0
 10
216.05
 20
52.65
 11
216.039
 21
52.4409
  0
LINE
  8
0
 10
216.039
 20
52.4409
 11
216.006
 21
52.2342
  0
LINE
  8
0
 10
216.006
 20
52.2342
 11
215.952
 21
52.032
  0
LINE
  8
0
 10
215.952
 20
52.032
 11
215.877
 21
51.8365
  0
LINE
  8
0
 10
215.877
 20
51.8365
 11
215.782
 21
51.65
  0
LINE
  8
0
 10
215.782
 20
51.65
 11
215.668
 21
51.4744
  0
LINE
  8
0
 10
215.668
 20
51.4744
 11
215.536
 21
51.3117
  0
LINE
  8
0
 10
215.536
 20
51.3117
 11
215.388
 21
51.1637
  0
LINE
  8
0
 10
215.388
 20
51.1637
 11
215.226
 21
51.032
  0
LINE
  8
0
 10
215.226
 20
51.032
 11
215.05
 21
50.9179
  0
LINE
  8
0
 10
215.05
 20
50.9179
 11
214.863
 21
50.8229
  0
LINE
  8
0
 10
214.863
 20
50.8229
 11
214.668
 21
50.7479
  0
LINE
  8
0
 10
214.668
 20
50.7479
 11
214.466
 21
50.6937
  0
LINE
  8
0
 10
214.466
 20
50.6937
 11
214.259
 21
50.6609
  0
LINE
  8
0
 10
214.259
 20
50.6609
 11
214.05
 21
50.65
  0
LINE
  8
0
 10
214.05
 20
50.65
 11
205.05
 21
50.65
  0
LINE
  8
0
 10
170.784
 20
50.8095
 11
170.124
 21
50.9139
  0
LINE
  8
0
 10
170.124
 20
50.9139
 11
169.48
 21
51.0866
  0
LINE
  8
0
 10
169.48
 20
51.0866
 11
168.857
 21
51.3258
  0
LINE
  8
0
 10
168.857
 20
51.3258
 11
168.262
 21
51.6287
  0
LINE
  8
0
 10
168.262
 20
51.6287
 11
167.703
 21
51.9922
  0
LINE
  8
0
 10
167.703
 20
51.9922
 11
167.184
 21
52.4122
  0
LINE
  8
0
 10
167.184
 20
52.4122
 11
166.712
 21
52.884
  0
LINE
  8
0
 10
166.712
 20
52.884
 11
166.292
 21
53.4026
  0
LINE
  8
0
 10
166.292
 20
53.4026
 11
165.929
 21
53.9623
  0
LINE
  8
0
 10
165.929
 20
53.9623
 11
165.626
 21
54.5569
  0
LINE
  8
0
 10
165.626
 20
54.5569
 11
165.387
 21
55.1799
  0
LINE
  8
0
 10
165.387
 20
55.1799
 11
165.214
 21
55.8245
  0
LINE
  8
0
 10
165.214
 20
55.8245
 11
165.11
 21
56.4836
  0
LINE
  8
0
 10
165.11
 20
56.4836
 11
165.075
 21
57.15
  0
LINE
  8
0
 10
165.075
 20
57.15
 11
165.11
 21
57.8164
  0
LINE
  8
0
 10
165.11
 20
57.8164
 11
165.214
 21
58.4755
  0
LINE
  8
0
 10
165.214
 20
58.4755
 11
165.387
 21
59.1201
  0
LINE
  8
0
 10
165.387
 20
59.1201
 11
165.626
 21
59.7431
  0
LINE
  8
0
 10
165.626
 20
59.7431
 11
165.929
 21
60.3377
  0
LINE
  8
0
 10
165.929
 20
60.3377
 11
166.292
 21
60.8974
  0
LINE
  8
0
 10
166.292
 20
60.8974
 11
166.712
 21
61.416
  0
LINE
  8
0
 10
166.712
 20
61.416
 11
167.184
 21
61.8878
  0
LINE
  8
0
 10
167.184
 20
61.8878
 11
167.703
 21
62.3078
  0
LINE
  8
0
 10
167.703
 20
62.3078
 11
168.262
 21
62.6712
  0
LINE
  8
0
 10
168.262
 20
62.6712
 11
168.857
 21
62.9742
  0
LINE
  8
0
 10
168.857
 20
62.9742
 11
169.48
 21
63.2133
  0
LINE
  8
0
 10
169.48
 20
63.2133
 11
170.124
 21
63.3861
  0
LINE
  8
0
 10
170.124
 20
63.3861
 11
170.784
 21
63.4905
  0
LINE
  8
0
 10
170.784
 20
63.4905
 11
171.45
 21
63.5254
  0
LINE
  8
0
 10
171.45
 20
63.5254
 11
172.116
 21
63.4905
  0
LINE
  8
0
 10
172.116
 20
63.4905
 11
172.776
 21
63.3861
  0
LINE
  8
0
 10
172.776
 20
63.3861
 11
173.42
 21
63.2133
  0
LINE
  8
0
 10
173.42
 20
63.2133
 11
174.043
 21
62.9742
  0
LINE
  8
0
 10
174.043
 20
62.9742
 11
174.638
 21
62.6712
  0
LINE
  8
0
 10
174.638
 20
62.6712
 11
175.197
 21
62.3078
  0
LINE
  8
0
 10
175.197
 20
62.3078
 11
175.716
 21
61.8878
  0
LINE
  8
0
 10
175.716
 20
61.8878
 11
176.188
 21
61.416
  0
LINE
  8
0
 10
176.188
 20
61.416
 11
176.608
 21
60.8974
  0
LINE
  8
0
 10
176.608
 20
60.8974
 11
176.971
 21
60.3377
  0
LINE
  8
0
 10
176.971
 20
60.3377
 11
177.274
 21
59.7431
  0
LINE
  8
0
 10
177.274
 20
59.7431
 11
177.513
 21
59.1201
  0
LINE
  8
0
 10
177.513
 20
59.1201
 11
177.686
 21
58.4755
  0
LINE
  8
0
 10
177.686
 20
58.4755
 11
177.79
 21
57.8164
  0
LINE
  8
0
 10
177.79
 20
57.8164
 11
177.825
 21
57.15
  0
LINE
  8
0
 10
177.825
 20
57.15
 11
177.79
 21
56.4836
  0
LINE
  8
0
 10
177.79
 20
56.4836
 11
177.686
 21
55.8245
  0
LINE
  8
0
 10
177.686
 20
55.8245
 11
177.513
 21
55.1799
  0
LINE
  8
0
 10
177.513
 20
55.1799
 11
177.274
 21
54.5569
  0
LINE
  8
0
 10
177.274
 20
54.5569
 11
176.971
 21
53.9623
  0
LINE
  8
0
 10
176.971
 20
53.9623
 11
176.608
 21
53.4026
  0
LINE
  8
0
 10
176.608
 20
53.4026
 11
176.188
 21
52.884
  0
LINE
  8
0
 10
176.188
 20
52.884
 11
175.716
 21
52.4122
  0
LINE
  8
0
 10
175.716
 20
52.4122
 11
175.197
 21
51.9922
  0
LINE
  8
0
 10
175.197
 20
51.9922
 11
174.638
 21
51.6287
  0
LINE
  8
0
 10
174.638
 20
51.6287
 11
174.043
 21
51.3258
  0
LINE
  8
0
 10
174.043
 20
51.3258
 11
173.42
 21
51.0866
  0
LINE
  8
0
 10
173.42
 20
51.0866
 11
172.776
 21
50.9139
  0
LINE
  8
0
 10
172.776
 20
50.9139
 11
172.116
 21
50.8095
  0
LINE
  8
0
 10
172.116
 20
50.8095
 11
171.45
 21
50.7746
  0
LINE
  8
0
 10
171.45
 20
50.7746
 11
170.784
 21
50.8095
  0
LINE
  8
0
 10
157.658
 20
41.6723
 11
157.349
 21
41.7466
  0
LINE
  8
0
 10
157.349
 20
41.7466
 11
157.055
 21
41.8683
  0
LINE
  8
0
 10
157.055
 20
41.8683
 11
156.783
 21
42.0346
  0
LINE
  8
0
 10
156.783
 20
42.0346
 11
156.541
 21
42.2413
  0
LINE
  8
0
 10
156.541
 20
42.2413
 11
156.335
 21
42.4833
  0
LINE
  8
0
 10
156.335
 20
42.4833
 11
156.168
 21
42.7546
  0
LINE
  8
0
 10
156.168
 20
42.7546
 11
156.047
 21
43.0486
  0
LINE
  8
0
 10
156.047
 20
43.0486
 11
155.972
 21
43.358
  0
LINE
  8
0
 10
155.972
 20
43.358
 11
155.947
 21
43.6753
  0
LINE
  8
0
 10
155.947
 20
43.6753
 11
155.972
 21
43.9926
  0
LINE
  8
0
 10
155.972
 20
43.9926
 11
156.047
 21
44.302
  0
LINE
  8
0
 10
156.047
 20
44.302
 11
156.168
 21
44.596
  0
LINE
  8
0
 10
156.168
 20
44.596
 11
156.335
 21
44.8673
  0
LINE
  8
0
 10
156.335
 20
44.8673
 11
156.541
 21
45.1093
  0
LINE
  8
0
 10
156.541
 20
45.1093
 11
156.783
 21
45.316
  0
LINE
  8
0
 10
156.783
 20
45.316
 11
157.055
 21
45.4823
  0
LINE
  8
0
 10
157.055
 20
45.4823
 11
157.349
 21
45.604
  0
LINE
  8
0
 10
157.349
 20
45.604
 11
157.658
 21
45.6783
  0
LINE
  8
0
 10
157.658
 20
45.6783
 11
157.975
 21
45.7033
  0
LINE
  8
0
 10
157.975
 20
45.7033
 11
158.293
 21
45.6783
  0
LINE
  8
0
 10
158.293
 20
45.6783
 11
158.602
 21
45.604
  0
LINE
  8
0
 10
158.602
 20
45.604
 11
158.896
 21
45.4823
  0
LINE
  8
0
 10
158.896
 20
45.4823
 11
159.167
 21
45.316
  0
LINE
  8
0
 10
159.167
 20
45.316
 11
159.409
 21
45.1093
  0
LINE
  8
0
 10
159.409
 20
45.1093
 11
159.616
 21
44.8673
  0
LINE
  8
0
 10
159.616
 20
44.8673
 11
159.782
 21
44.596
  0
LINE
  8
0
 10
159.782
 20
44.596
 11
159.904
 21
44.302
  0
LINE
  8
0
 10
159.904
 20
44.302
 11
159.978
 21
43.9926
  0
LINE
  8
0
 10
159.978
 20
43.9926
 11
160.003
 21
43.6753
  0
LINE
  8
0
 10
160.003
 20
43.6753
 11
159.978
 21
43.358
  0
LINE
  8
0
 10
159.978
 20
43.358
 11
159.904
 21
43.0486
  0
LINE
  8
0
 10
159.904
 20
43.0486
 11
159.782
 21
42.7546
  0
LINE
  8
0
 10
159.782
 20
42.7546
 11
159.616
 21
42.4833
  0
LINE
  8
0
 10
159.616
 20
42.4833
 11
159.409
 21
42.2413
  0
LINE
  8
0
 10
159.409
 20
42.2413
 11
159.167
 21
42.0346
  0
LINE
  8
0
 10
159.167
 20
42.0346
 11
158.896
 21
41.8683
  0
LINE
  8
0
 10
158.896
 20
41.8683
 11
158.602
 21
41.7466
  0
LINE
  8
0
 10
158.602
 20
41.7466
 11
158.293
 21
41.6723
  0
LINE
  8
0
 10
158.293
 20
41.6723
 11
157.975
 21
41.6473
  0
LINE
  8
0
 10
157.975
 20
41.6473
 11
157.658
 21
41.6723
  0
LINE
  8
0
 10
184.607
 20
41.6723
 11
184.298
 21
41.7466
  0
LINE
  8
0
 10
184.298
 20
41.7466
 11
184.004
 21
41.8683
  0
LINE
  8
0
 10
184.004
 20
41.8683
 11
183.733
 21
42.0346
  0
LINE
  8
0
 10
183.733
 20
42.0346
 11
183.491
 21
42.2413
  0
LINE
  8
0
 10
183.491
 20
42.2413
 11
183.284
 21
42.4833
  0
LINE
  8
0
 10
183.284
 20
42.4833
 11
183.118
 21
42.7546
  0
LINE
  8
0
 10
183.118
 20
42.7546
 11
182.996
 21
43.0486
  0
LINE
  8
0
 10
182.996
 20
43.0486
 11
182.922
 21
43.358
  0
LINE
  8
0
 10
182.922
 20
43.358
 11
182.897
 21
43.6753
  0
LINE
  8
0
 10
182.897
 20
43.6753
 11
182.922
 21
43.9926
  0
LINE
  8
0
 10
182.922
 20
43.9926
 11
182.996
 21
44.302
  0
LINE
  8
0
 10
182.996
 20
44.302
 11
183.118
 21
44.596
  0
LINE
  8
0
 10
183.118
 20
44.596
 11
183.284
 21
44.8673
  0
LINE
  8
0
 10
183.284
 20
44.8673
 11
183.491
 21
45.1093
  0
LINE
  8
0
 10
183.491
 20
45.1093
 11
183.733
 21
45.316
  0
LINE
  8
0
 10
183.733
 20
45.316
 11
184.004
 21
45.4823
  0
LINE
  8
0
 10
184.004
 20
45.4823
 11
184.298
 21
45.604
  0
LINE
  8
0
 10
184.298
 20
45.604
 11
184.607
 21
45.6783
  0
LINE
  8
0
 10
184.607
 20
45.6783
 11
184.925
 21
45.7033
  0
LINE
  8
0
 10
184.925
 20
45.7033
 11
185.242
 21
45.6783
  0
LINE
  8
0
 10
185.242
 20
45.6783
 11
185.551
 21
45.604
  0
LINE
  8
0
 10
185.551
 20
45.604
 11
185.845
 21
45.4823
  0
LINE
  8
0
 10
185.845
 20
45.4823
 11
186.117
 21
45.316
  0
LINE
  8
0
 10
186.117
 20
45.316
 11
186.359
 21
45.1093
  0
LINE
  8
0
 10
186.359
 20
45.1093
 11
186.565
 21
44.8673
  0
LINE
  8
0
 10
186.565
 20
44.8673
 11
186.732
 21
44.596
  0
LINE
  8
0
 10
186.732
 20
44.596
 11
186.853
 21
44.302
  0
LINE
  8
0
 10
186.853
 20
44.302
 11
186.928
 21
43.9926
  0
LINE
  8
0
 10
186.928
 20
43.9926
 11
186.953
 21
43.6753
  0
LINE
  8
0
 10
186.953
 20
43.6753
 11
186.928
 21
43.358
  0
LINE
  8
0
 10
186.928
 20
43.358
 11
186.853
 21
43.0486
  0
LINE
  8
0
 10
186.853
 20
43.0486
 11
186.732
 21
42.7546
  0
LINE
  8
0
 10
186.732
 20
42.7546
 11
186.565
 21
42.4833
  0
LINE
  8
0
 10
186.565
 20
42.4833
 11
186.359
 21
42.2413
  0
LINE
  8
0
 10
186.359
 20
42.2413
 11
186.117
 21
42.0346
  0
LINE
  8
0
 10
186.117
 20
42.0346
 11
185.845
 21
41.8683
  0
LINE
  8
0
 10
185.845
 20
41.8683
 11
185.551
 21
41.7466
  0
LINE
  8
0
 10
185.551
 20
41.7466
 11
185.242
 21
41.6723
  0
LINE
  8
0
 10
185.242
 20
41.6723
 11
184.925
 21
41.6473
  0
LINE
  8
0
 10
184.925
 20
41.6473
 11
184.607
 21
41.6723
  0
LINE
  8
0
 10
5.29715
 20
41.9192
 11
5.02586
 21
41.9843
  0
LINE
  8
0
 10
5.02586
 20
41.9843
 11
4.7681
 21
42.0911
  0
LINE
  8
0
 10
4.7681
 20
42.0911
 11
4.53021
 21
42.2369
  0
LINE
  8
0
 10
4.53021
 20
42.2369
 11
4.31805
 21
42.4181
  0
LINE
  8
0
 10
4.31805
 20
42.4181
 11
4.13686
 21
42.6302
  0
LINE
  8
0
 10
4.13686
 20
42.6302
 11
3.99109
 21
42.8681
  0
LINE
  8
0
 10
3.99109
 20
42.8681
 11
3.88431
 21
43.1259
  0
LINE
  8
0
 10
3.88431
 20
43.1259
 11
3.81918
 21
43.3972
  0
LINE
  8
0
 10
3.81918
 20
43.3972
 11
3.79729
 21
43.6753
  0
LINE
  8
0
 10
3.79729
 20
43.6753
 11
3.81918
 21
43.9534
  0
LINE
  8
0
 10
3.81918
 20
43.9534
 11
3.88431
 21
44.2247
  0
LINE
  8
0
 10
3.88431
 20
44.2247
 11
3.99109
 21
44.4825
  0
LINE
  8
0
 10
3.99109
 20
44.4825
 11
4.13686
 21
44.7204
  0
LINE
  8
0
 10
4.13686
 20
44.7204
 11
4.31805
 21
44.9325
  0
LINE
  8
0
 10
4.31805
 20
44.9325
 11
4.53021
 21
45.1137
  0
LINE
  8
0
 10
4.53021
 20
45.1137
 11
4.7681
 21
45.2595
  0
LINE
  8
0
 10
4.7681
 20
45.2595
 11
5.02586
 21
45.3663
  0
LINE
  8
0
 10
5.02586
 20
45.3663
 11
5.29715
 21
45.4314
  0
LINE
  8
0
 10
5.29715
 20
45.4314
 11
5.57529
 21
45.4533
  0
LINE
  8
0
 10
5.57529
 20
45.4533
 11
5.85344
 21
45.4314
  0
LINE
  8
0
 10
5.85344
 20
45.4314
 11
6.12473
 21
45.3663
  0
LINE
  8
0
 10
6.12473
 20
45.3663
 11
6.38249
 21
45.2595
  0
LINE
  8
0
 10
6.38249
 20
45.2595
 11
6.62038
 21
45.1137
  0
LINE
  8
0
 10
6.62038
 20
45.1137
 11
6.83253
 21
44.9325
  0
LINE
  8
0
 10
6.83253
 20
44.9325
 11
7.01372
 21
44.7204
  0
LINE
  8
0
 10
7.01372
 20
44.7204
 11
7.1595
 21
44.4825
  0
LINE
  8
0
 10
7.1595
 20
44.4825
 11
7.26627
 21
44.2247
  0
LINE
  8
0
 10
7.26627
 20
44.2247
 11
7.33141
 21
43.9534
  0
LINE
  8
0
 10
7.33141
 20
43.9534
 11
7.35329
 21
43.6753
  0
LINE
  8
0
 10
7.35329
 20
43.6753
 11
7.33141
 21
43.3972
  0
LINE
  8
0
 10
7.33141
 20
43.3972
 11
7.26627
 21
43.1259
  0
LINE
  8
0
 10
7.26627
 20
43.1259
 11
7.1595
 21
42.8681
  0
LINE
  8
0
 10
7.1595
 20
42.8681
 11
7.01372
 21
42.6302
  0
LINE
  8
0
 10
7.01372
 20
42.6302
 11
6.83253
 21
42.4181
  0
LINE
  8
0
 10
6.83253
 20
42.4181
 11
6.62038
 21
42.2369
  0
LINE
  8
0
 10
6.62038
 20
42.2369
 11
6.38249
 21
42.0911
  0
LINE
  8
0
 10
6.38249
 20
42.0911
 11
6.12473
 21
41.9843
  0
LINE
  8
0
 10
6.12473
 20
41.9843
 11
5.85344
 21
41.9192
  0
LINE
  8
0
 10
5.85344
 20
41.9192
 11
5.57529
 21
41.8973
  0
LINE
  8
0
 10
5.57529
 20
41.8973
 11
5.29715
 21
41.9192
  0
LINE
  8
0
 10
298.947
 20
41.9192
 11
298.675
 21
41.9843
  0
LINE
  8
0
 10
298.675
 20
41.9843
 11
298.417
 21
42.0911
  0
LINE
  8
0
 10
298.417
 20
42.0911
 11
298.18
 21
42.2369
  0
LINE
  8
0
 10
298.18
 20
42.2369
 11
297.967
 21
42.4181
  0
LINE
  8
0
 10
297.967
 20
42.4181
 11
297.786
 21
42.6302
  0
LINE
  8
0
 10
297.786
 20
42.6302
 11
297.64
 21
42.8681
  0
LINE
  8
0
 10
297.64
 20
42.8681
 11
297.534
 21
43.1259
  0
LINE
  8
0
 10
297.534
 20
43.1259
 11
297.469
 21
43.3972
  0
LINE
  8
0
 10
297.469
 20
43.3972
 11
297.447
 21
43.6753
  0
LINE
  8
0
 10
297.447
 20
43.6753
 11
297.469
 21
43.9534
  0
LINE
  8
0
 10
297.469
 20
43.9534
 11
297.534
 21
44.2247
  0
LINE
  8
0
 10
297.534
 20
44.2247
 11
297.64
 21
44.4825
  0
LINE
  8
0
 10
297.64
 20
44.4825
 11
297.786
 21
44.7204
  0
LINE
  8
0
 10
297.786
 20
44.7204
 11
297.967
 21
44.9325
  0
LINE
  8
0
 10
297.967
 20
44.9325
 11
298.18
 21
45.1137
  0
LINE
  8
0
 10
298.18
 20
45.1137
 11
298.417
 21
45.2595
  0
LINE
  8
0
 10
298.417
 20
45.2595
 11
298.675
 21
45.3663
  0
LINE
  8
0
 10
298.675
 20
45.3663
 11
298.947
 21
45.4314
  0
LINE
  8
0
 10
298.947
 20
45.4314
 11
299.225
 21
45.4533
  0
LINE
  8
0
 10
299.225
 20
45.4533
 11
299.503
 21
45.4314
  0
LINE
  8
0
 10
299.503
 20
45.4314
 11
299.774
 21
45.3663
  0
LINE
  8
0
 10
299.774
 20
45.3663
 11
300.032
 21
45.2595
  0
LINE
  8
0
 10
300.032
 20
45.2595
 11
300.27
 21
45.1137
  0
LINE
  8
0
 10
300.27
 20
45.1137
 11
300.482
 21
44.9325
  0
LINE
  8
0
 10
300.482
 20
44.9325
 11
300.663
 21
44.7204
  0
LINE
  8
0
 10
300.663
 20
44.7204
 11
300.809
 21
44.4825
  0
LINE
  8
0
 10
300.809
 20
44.4825
 11
300.916
 21
44.2247
  0
LINE
  8
0
 10
300.916
 20
44.2247
 11
300.981
 21
43.9534
  0
LINE
  8
0
 10
300.981
 20
43.9534
 11
301.003
 21
43.6753
  0
LINE
  8
0
 10
301.003
 20
43.6753
 11
300.981
 21
43.3972
  0
LINE
  8
0
 10
300.981
 20
43.3972
 11
300.916
 21
43.1259
  0
LINE
  8
0
 10
300.916
 20
43.1259
 11
300.809
 21
42.8681
  0
LINE
  8
0
 10
300.809
 20
42.8681
 11
300.663
 21
42.6302
  0
LINE
  8
0
 10
300.663
 20
42.6302
 11
300.482
 21
42.4181
  0
LINE
  8
0
 10
300.482
 20
42.4181
 11
300.27
 21
42.2369
  0
LINE
  8
0
 10
300.27
 20
42.2369
 11
300.032
 21
42.0911
  0
LINE
  8
0
 10
300.032
 20
42.0911
 11
299.774
 21
41.9843
  0
LINE
  8
0
 10
299.774
 20
41.9843
 11
299.503
 21
41.9192
  0
LINE
  8
0
 10
299.503
 20
41.9192
 11
299.225
 21
41.8973
  0
LINE
  8
0
 10
299.225
 20
41.8973
 11
298.947
 21
41.9192
  0
LINE
  8
0
 10
51.2574
 20
30.5217
 11
50.948
 21
30.5959
  0
LINE
  8
0
 10
50.948
 20
30.5959
 11
50.654
 21
30.7177
  0
LINE
  8
0
 10
50.654
 20
30.7177
 11
50.3827
 21
30.884
  0
LINE
  8
0
 10
50.3827
 20
30.884
 11
50.1407
 21
31.0907
  0
LINE
  8
0
 10
50.1407
 20
31.0907
 11
49.934
 21
31.3327
  0
LINE
  8
0
 10
49.934
 20
31.3327
 11
49.7677
 21
31.604
  0
LINE
  8
0
 10
49.7677
 20
31.604
 11
49.646
 21
31.898
  0
LINE
  8
0
 10
49.646
 20
31.898
 11
49.5717
 21
32.2074
  0
LINE
  8
0
 10
49.5717
 20
32.2074
 11
49.5467
 21
32.5247
  0
LINE
  8
0
 10
49.5467
 20
32.5247
 11
49.5717
 21
32.8419
  0
LINE
  8
0
 10
49.5717
 20
32.8419
 11
49.646
 21
33.1514
  0
LINE
  8
0
 10
49.646
 20
33.1514
 11
49.7677
 21
33.4454
  0
LINE
  8
0
 10
49.7677
 20
33.4454
 11
49.934
 21
33.7167
  0
LINE
  8
0
 10
49.934
 20
33.7167
 11
50.1407
 21
33.9587
  0
LINE
  8
0
 10
50.1407
 20
33.9587
 11
50.3827
 21
34.1654
  0
LINE
  8
0
 10
50.3827
 20
34.1654
 11
50.654
 21
34.3316
  0
LINE
  8
0
 10
50.654
 20
34.3316
 11
50.948
 21
34.4534
  0
LINE
  8
0
 10
50.948
 20
34.4534
 11
51.2574
 21
34.5277
  0
LINE
  8
0
 10
51.2574
 20
34.5277
 11
51.5747
 21
34.5527
  0
LINE
  8
0
 10
51.5747
 20
34.5527
 11
51.8919
 21
34.5277
  0
LINE
  8
0
 10
51.8919
 20
34.5277
 11
52.2014
 21
34.4534
  0
LINE
  8
0
 10
52.2014
 20
34.4534
 11
52.4954
 21
34.3316
  0
LINE
  8
0
 10
52.4954
 20
34.3316
 11
52.7667
 21
34.1654
  0
LINE
  8
0
 10
52.7667
 20
34.1654
 11
53.0087
 21
33.9587
  0
LINE
  8
0
 10
53.0087
 20
33.9587
 11
53.2154
 21
33.7167
  0
LINE
  8
0
 10
53.2154
 20
33.7167
 11
53.3817
 21
33.4454
  0
LINE
  8
0
 10
53.3817
 20
33.4454
 11
53.5034
 21
33.1514
  0
LINE
  8
0
 10
53.5034
 20
33.1514
 11
53.5777
 21
32.8419
  0
LINE
  8
0
 10
53.5777
 20
32.8419
 11
53.6027
 21
32.5247
  0
LINE
  8
0
 10
53.6027
 20
32.5247
 11
53.5777
 21
32.2074
  0
LINE
  8
0
 10
53.5777
 20
32.2074
 11
53.5034
 21
31.898
  0
LINE
  8
0
 10
53.5034
 20
31.898
 11
53.3817
 21
31.604
  0
LINE
  8
0
 10
53.3817
 20
31.604
 11
53.2154
 21
31.3327
  0
LINE
  8
0
 10
53.2154
 20
31.3327
 11
53.0087
 21
31.0907
  0
LINE
  8
0
 10
53.0087
 20
31.0907
 11
52.7667
 21
30.884
  0
LINE
  8
0
 10
52.7667
 20
30.884
 11
52.4954
 21
30.7177
  0
LINE
  8
0
 10
52.4954
 20
30.7177
 11
52.2014
 21
30.5959
  0
LINE
  8
0
 10
52.2014
 20
30.5959
 11
51.8919
 21
30.5217
  0
LINE
  8
0
 10
51.8919
 20
30.5217
 11
51.5747
 21
30.4967
  0
LINE
  8
0
 10
51.5747
 20
30.4967
 11
51.2574
 21
30.5217
  0
LINE
  8
0
 10
127.457
 20
30.5217
 11
127.148
 21
30.5959
  0
LINE
  8
0
 10
127.148
 20
30.5959
 11
126.854
 21
30.7177
  0
LINE
  8
0
 10
126.854
 20
30.7177
 11
126.583
 21
30.884
  0
LINE
  8
0
 10
126.583
 20
30.884
 11
126.341
 21
31.0907
  0
LINE
  8
0
 10
126.341
 20
31.0907
 11
126.134
 21
31.3327
  0
LINE
  8
0
 10
126.134
 20
31.3327
 11
125.968
 21
31.604
  0
LINE
  8
0
 10
125.968
 20
31.604
 11
125.846
 21
31.898
  0
LINE
  8
0
 10
125.846
 20
31.898
 11
125.772
 21
32.2074
  0
LINE
  8
0
 10
125.772
 20
32.2074
 11
125.747
 21
32.5247
  0
LINE
  8
0
 10
125.747
 20
32.5247
 11
125.772
 21
32.8419
  0
LINE
  8
0
 10
125.772
 20
32.8419
 11
125.846
 21
33.1514
  0
LINE
  8
0
 10
125.846
 20
33.1514
 11
125.968
 21
33.4454
  0
LINE
  8
0
 10
125.968
 20
33.4454
 11
126.134
 21
33.7167
  0
LINE
  8
0
 10
126.134
 20
33.7167
 11
126.341
 21
33.9587
  0
LINE
  8
0
 10
126.341
 20
33.9587
 11
126.583
 21
34.1654
  0
LINE
  8
0
 10
126.583
 20
34.1654
 11
126.854
 21
34.3316
  0
LINE
  8
0
 10
126.854
 20
34.3316
 11
127.148
 21
34.4534
  0
LINE
  8
0
 10
127.148
 20
34.4534
 11
127.457
 21
34.5277
  0
LINE
  8
0
 10
127.457
 20
34.5277
 11
127.775
 21
34.5527
  0
LINE
  8
0
 10
127.775
 20
34.5527
 11
128.092
 21
34.5277
  0
LINE
  8
0
 10
128.092
 20
34.5277
 11
128.401
 21
34.4534
  0
LINE
  8
0
 10
128.401
 20
34.4534
 11
128.695
 21
34.3316
  0
LINE
  8
0
 10
128.695
 20
34.3316
 11
128.967
 21
34.1654
  0
LINE
  8
0
 10
128.967
 20
34.1654
 11
129.209
 21
33.9587
  0
LINE
  8
0
 10
129.209
 20
33.9587
 11
129.415
 21
33.7167
  0
LINE
  8
0
 10
129.415
 20
33.7167
 11
129.582
 21
33.4454
  0
LINE
  8
0
 10
129.582
 20
33.4454
 11
129.703
 21
33.1514
  0
LINE
  8
0
 10
129.703
 20
33.1514
 11
129.778
 21
32.8419
  0
LINE
  8
0
 10
129.778
 20
32.8419
 11
129.803
 21
32.5247
  0
LINE
  8
0
 10
129.803
 20
32.5247
 11
129.778
 21
32.2074
  0
LINE
  8
0
 10
129.778
 20
32.2074
 11
129.703
 21
31.898
  0
LINE
  8
0
 10
129.703
 20
31.898
 11
129.582
 21
31.604
  0
LINE
  8
0
 10
129.582
 20
31.604
 11
129.415
 21
31.3327
  0
LINE
  8
0
 10
129.415
 20
31.3327
 11
129.209
 21
31.0907
  0
LINE
  8
0
 10
129.209
 20
31.0907
 11
128.967
 21
30.884
  0
LINE
  8
0
 10
128.967
 20
30.884
 11
128.695
 21
30.7177
  0
LINE
  8
0
 10
128.695
 20
30.7177
 11
128.401
 21
30.5959
  0
LINE
  8
0
 10
128.401
 20
30.5959
 11
128.092
 21
30.5217
  0
LINE
  8
0
 10
128.092
 20
30.5217
 11
127.775
 21
30.4967
  0
LINE
  8
0
 10
127.775
 20
30.4967
 11
127.457
 21
30.5217
  0
LINE
  8
0
 10
138.647
 20
1.53319
 11
138.376
 21
1.59831
  0
LINE
  8
0
 10
138.376
 20
1.59831
 11
138.118
 21
1.70508
  0
LINE
  8
0
 10
138.118
 20
1.70508
 11
137.88
 21
1.85086
  0
LINE
  8
0
 10
137.88
 20
1.85086
 11
137.668
 21
2.03206
  0
LINE
  8
0
 10
137.668
 20
2.03206
 11
137.487
 21
2.24422
  0
LINE
  8
0
 10
137.487
 20
2.24422
 11
137.341
 21
2.4821
  0
LINE
  8
0
 10
137.341
 20
2.4821
 11
137.234
 21
2.73985
  0
LINE
  8
0
 10
137.234
 20
2.73985
 11
137.169
 21
3.01115
  0
LINE
  8
0
 10
137.169
 20
3.01115
 11
137.147
 21
3.28929
  0
LINE
  8
0
 10
137.147
 20
3.28929
 11
137.169
 21
3.56743
  0
LINE
  8
0
 10
137.169
 20
3.56743
 11
137.234
 21
3.83873
  0
LINE
  8
0
 10
137.234
 20
3.83873
 11
137.341
 21
4.09648
  0
LINE
  8
0
 10
137.341
 20
4.09648
 11
137.487
 21
4.33438
  0
LINE
  8
0
 10
137.487
 20
4.33438
 11
137.668
 21
4.54652
  0
LINE
  8
0
 10
137.668
 20
4.54652
 11
137.88
 21
4.72772
  0
LINE
  8
0
 10
137.88
 20
4.72772
 11
138.118
 21
4.8735
  0
LINE
  8
0
 10
138.118
 20
4.8735
 11
138.376
 21
4.98027
  0
LINE
  8
0
 10
138.376
 20
4.98027
 11
138.647
 21
5.04539
  0
LINE
  8
0
 10
138.647
 20
5.04539
 11
138.925
 21
5.06729
  0
LINE
  8
0
 10
138.925
 20
5.06729
 11
139.203
 21
5.04539
  0
LINE
  8
0
 10
139.203
 20
5.04539
 11
139.475
 21
4.98027
  0
LINE
  8
0
 10
139.475
 20
4.98027
 11
139.732
 21
4.8735
  0
LINE
  8
0
 10
139.732
 20
4.8735
 11
139.97
 21
4.72772
  0
LINE
  8
0
 10
139.97
 20
4.72772
 11
140.183
 21
4.54652
  0
LINE
  8
0
 10
140.183
 20
4.54652
 11
140.364
 21
4.33438
  0
LINE
  8
0
 10
140.364
 20
4.33438
 11
140.51
 21
4.09648
  0
LINE
  8
0
 10
140.51
 20
4.09648
 11
140.616
 21
3.83873
  0
LINE
  8
0
 10
140.616
 20
3.83873
 11
140.681
 21
3.56743
  0
LINE
  8
0
 10
140.681
 20
3.56743
 11
140.703
 21
3.28929
  0
LINE
  8
0
 10
140.703
 20
3.28929
 11
140.681
 21
3.01115
  0
LINE
  8
0
 10
140.681
 20
3.01115
 11
140.616
 21
2.73985
  0
LINE
  8
0
 10
140.616
 20
2.73985
 11
140.51
 21
2.4821
  0
LINE
  8
0
 10
140.51
 20
2.4821
 11
140.364
 21
2.24422
  0
LINE
  8
0
 10
140.364
 20
2.24422
 11
140.183
 21
2.03206
  0
LINE
  8
0
 10
140.183
 20
2.03206
 11
139.97
 21
1.85086
  0
LINE
  8
0
 10
139.97
 20
1.85086
 11
139.732
 21
1.70508
  0
LINE
  8
0
 10
139.732
 20
1.70508
 11
139.475
 21
1.59831
  0
LINE
  8
0
 10
139.475
 20
1.59831
 11
139.203
 21
1.53319
  0
LINE
  8
0
 10
139.203
 20
1.53319
 11
138.925
 21
1.51129
  0
LINE
  8
0
 10
138.925
 20
1.51129
 11
138.647
 21
1.53319
  0
LINE
  8
0
 10
165.597
 20
1.53319
 11
165.325
 21
1.59831
  0
LINE
  8
0
 10
165.325
 20
1.59831
 11
165.068
 21
1.70508
  0
LINE
  8
0
 10
165.068
 20
1.70508
 11
164.83
 21
1.85086
  0
LINE
  8
0
 10
164.83
 20
1.85086
 11
164.617
 21
2.03206
  0
LINE
  8
0
 10
164.617
 20
2.03206
 11
164.436
 21
2.24422
  0
LINE
  8
0
 10
164.436
 20
2.24422
 11
164.29
 21
2.4821
  0
LINE
  8
0
 10
164.29
 20
2.4821
 11
164.184
 21
2.73985
  0
LINE
  8
0
 10
164.184
 20
2.73985
 11
164.119
 21
3.01115
  0
LINE
  8
0
 10
164.119
 20
3.01115
 11
164.097
 21
3.28929
  0
LINE
  8
0
 10
164.097
 20
3.28929
 11
164.119
 21
3.56743
  0
LINE
  8
0
 10
164.119
 20
3.56743
 11
164.184
 21
3.83873
  0
LINE
  8
0
 10
164.184
 20
3.83873
 11
164.29
 21
4.09648
  0
LINE
  8
0
 10
164.29
 20
4.09648
 11
164.436
 21
4.33438
  0
LINE
  8
0
 10
164.436
 20
4.33438
 11
164.617
 21
4.54652
  0
LINE
  8
0
 10
164.617
 20
4.54652
 11
164.83
 21
4.72772
  0
LINE
  8
0
 10
164.83
 20
4.72772
 11
165.068
 21
4.8735
  0
LINE
  8
0
 10
165.068
 20
4.8735
 11
165.325
 21
4.98027
  0
LINE
  8
0
 10
165.325
 20
4.98027
 11
165.597
 21
5.04539
  0
LINE
  8
0
 10
165.597
 20
5.04539
 11
165.875
 21
5.06729
  0
LINE
  8
0
 10
165.875
 20
5.06729
 11
166.153
 21
5.04539
  0
LINE
  8
0
 10
166.153
 20
5.04539
 11
166.424
 21
4.98027
  0
LINE
  8
0
 10
166.424
 20
4.98027
 11
166.682
 21
4.8735
  0
LINE
  8
0
 10
166.682
 20
4.8735
 11
166.92
 21
4.72772
  0
LINE
  8
0
 10
166.92
 20
4.72772
 11
167.132
 21
4.54652
  0
LINE
  8
0
 10
167.132
 20
4.54652
 11
167.313
 21
4.33438
  0
LINE
  8
0
 10
167.313
 20
4.33438
 11
167.459
 21
4.09648
  0
LINE
  8
0
 10
167.459
 20
4.09648
 11
167.566
 21
3.83873
  0
LINE
  8
0
 10
167.566
 20
3.83873
 11
167.631
 21
3.56743
  0
LINE
  8
0
 10
167.631
 20
3.56743
 11
167.653
 21
3.28929
  0
LINE
  8
0
 10
167.653
 20
3.28929
 11
167.631
 21
3.01115
  0
LINE
  8
0
 10
167.631
 20
3.01115
 11
167.566
 21
2.73985
  0
LINE
  8
0
 10
167.566
 20
2.73985
 11
167.459
 21
2.4821
  0
LINE
  8
0
 10
167.459
 20
2.4821
 11
167.313
 21
2.24422
  0
LINE
  8
0
 10
167.313
 20
2.24422
 11
167.132
 21
2.03206
  0
LINE
  8
0
 10
167.132
 20
2.03206
 11
166.92
 21
1.85086
  0
LINE
  8
0
 10
166.92
 20
1.85086
 11
166.682
 21
1.70508
  0
LINE
  8
0
 10
166.682
 20
1.70508
 11
166.424
 21
1.59831
  0
LINE
  8
0
 10
166.424
 20
1.59831
 11
166.153
 21
1.53319
  0
LINE
  8
0
 10
166.153
 20
1.53319
 11
165.875
 21
1.51129
  0
LINE
  8
0
 10
165.875
 20
1.51129
 11
165.597
 21
1.53319
  0
LINE
  8
0
 10
24.3472
 20
1.53319
 11
24.0759
 21
1.59831
  0
LINE
  8
0
 10
24.0759
 20
1.59831
 11
23.8181
 21
1.70508
  0
LINE
  8
0
 10
23.8181
 20
1.70508
 11
23.5802
 21
1.85086
  0
LINE
  8
0
 10
23.5802
 20
1.85086
 11
23.3681
 21
2.03206
  0
LINE
  8
0
 10
23.3681
 20
2.03206
 11
23.1869
 21
2.24422
  0
LINE
  8
0
 10
23.1869
 20
2.24422
 11
23.0411
 21
2.4821
  0
LINE
  8
0
 10
23.0411
 20
2.4821
 11
22.9343
 21
2.73985
  0
LINE
  8
0
 10
22.9343
 20
2.73985
 11
22.8692
 21
3.01115
  0
LINE
  8
0
 10
22.8692
 20
3.01115
 11
22.8473
 21
3.28929
  0
LINE
  8
0
 10
22.8473
 20
3.28929
 11
22.8692
 21
3.56743
  0
LINE
  8
0
 10
22.8692
 20
3.56743
 11
22.9343
 21
3.83873
  0
LINE
  8
0
 10
22.9343
 20
3.83873
 11
23.0411
 21
4.09648
  0
LINE
  8
0
 10
23.0411
 20
4.09648
 11
23.1869
 21
4.33438
  0
LINE
  8
0
 10
23.1869
 20
4.33438
 11
23.3681
 21
4.54652
  0
LINE
  8
0
 10
23.3681
 20
4.54652
 11
23.5802
 21
4.72772
  0
LINE
  8
0
 10
23.5802
 20
4.72772
 11
23.8181
 21
4.8735
  0
LINE
  8
0
 10
23.8181
 20
4.8735
 11
24.0759
 21
4.98027
  0
LINE
  8
0
 10
24.0759
 20
4.98027
 11
24.3472
 21
5.04539
  0
LINE
  8
0
 10
24.3472
 20
5.04539
 11
24.6253
 21
5.06729
  0
LINE
  8
0
 10
24.6253
 20
5.06729
 11
24.9034
 21
5.04539
  0
LINE
  8
0
 10
24.9034
 20
5.04539
 11
25.1747
 21
4.98027
  0
LINE
  8
0
 10
25.1747
 20
4.98027
 11
25.4325
 21
4.8735
  0
LINE
  8
0
 10
25.4325
 20
4.8735
 11
25.6704
 21
4.72772
  0
LINE
  8
0
 10
25.6704
 20
4.72772
 11
25.8825
 21
4.54652
  0
LINE
  8
0
 10
25.8825
 20
4.54652
 11
26.0637
 21
4.33438
  0
LINE
  8
0
 10
26.0637
 20
4.33438
 11
26.2095
 21
4.09648
  0
LINE
  8
0
 10
26.2095
 20
4.09648
 11
26.3163
 21
3.83873
  0
LINE
  8
0
 10
26.3163
 20
3.83873
 11
26.3814
 21
3.56743
  0
LINE
  8
0
 10
26.3814
 20
3.56743
 11
26.4033
 21
3.28929
  0
LINE
  8
0
 10
26.4033
 20
3.28929
 11
26.3814
 21
3.01115
  0
LINE
  8
0
 10
26.3814
 20
3.01115
 11
26.3163
 21
2.73985
  0
LINE
  8
0
 10
26.3163
 20
2.73985
 11
26.2095
 21
2.4821
  0
LINE
  8
0
 10
26.2095
 20
2.4821
 11
26.0637
 21
2.24422
  0
LINE
  8
0
 10
26.0637
 20
2.24422
 11
25.8825
 21
2.03206
  0
LINE
  8
0
 10
25.8825
 20
2.03206
 11
25.6704
 21
1.85086
  0
LINE
  8
0
 10
25.6704
 20
1.85086
 11
25.4325
 21
1.70508
  0
LINE
  8
0
 10
25.4325
 20
1.70508
 11
25.1747
 21
1.59831
  0
LINE
  8
0
 10
25.1747
 20
1.59831
 11
24.9034
 21
1.53319
  0
LINE
  8
0
 10
24.9034
 20
1.53319
 11
24.6253
 21
1.51129
  0
LINE
  8
0
 10
24.6253
 20
1.51129
 11
24.3472
 21
1.53319
  0
LINE
  8
0
 10
51.2966
 20
1.53319
 11
51.0253
 21
1.59831
  0
LINE
  8
0
 10
51.0253
 20
1.59831
 11
50.7675
 21
1.70508
  0
LINE
  8
0
 10
50.7675
 20
1.70508
 11
50.5296
 21
1.85086
  0
LINE
  8
0
 10
50.5296
 20
1.85086
 11
50.3175
 21
2.03206
  0
LINE
  8
0
 10
50.3175
 20
2.03206
 11
50.1363
 21
2.24422
  0
LINE
  8
0
 10
50.1363
 20
2.24422
 11
49.9905
 21
2.4821
  0
LINE
  8
0
 10
49.9905
 20
2.4821
 11
49.8837
 21
2.73985
  0
LINE
  8
0
 10
49.8837
 20
2.73985
 11
49.8186
 21
3.01115
  0
LINE
  8
0
 10
49.8186
 20
3.01115
 11
49.7967
 21
3.28929
  0
LINE
  8
0
 10
49.7967
 20
3.28929
 11
49.8186
 21
3.56743
  0
LINE
  8
0
 10
49.8186
 20
3.56743
 11
49.8837
 21
3.83873
  0
LINE
  8
0
 10
49.8837
 20
3.83873
 11
49.9905
 21
4.09648
  0
LINE
  8
0
 10
49.9905
 20
4.09648
 11
50.1363
 21
4.33438
  0
LINE
  8
0
 10
50.1363
 20
4.33438
 11
50.3175
 21
4.54652
  0
LINE
  8
0
 10
50.3175
 20
4.54652
 11
50.5296
 21
4.72772
  0
LINE
  8
0
 10
50.5296
 20
4.72772
 11
50.7675
 21
4.8735
  0
LINE
  8
0
 10
50.7675
 20
4.8735
 11
51.0253
 21
4.98027
  0
LINE
  8
0
 10
51.0253
 20
4.98027
 11
51.2966
 21
5.04539
  0
LINE
  8
0
 10
51.2966
 20
5.04539
 11
51.5747
 21
5.06729
  0
LINE
  8
0
 10
51.5747
 20
5.06729
 11
51.8528
 21
5.04539
  0
LINE
  8
0
 10
51.8528
 20
5.04539
 11
52.1241
 21
4.98027
  0
LINE
  8
0
 10
52.1241
 20
4.98027
 11
52.3819
 21
4.8735
  0
LINE
  8
0
 10
52.3819
 20
4.8735
 11
52.6198
 21
4.72772
  0
LINE
  8
0
 10
52.6198
 20
4.72772
 11
52.8319
 21
4.54652
  0
LINE
  8
0
 10
52.8319
 20
4.54652
 11
53.0131
 21
4.33438
  0
LINE
  8
0
 10
53.0131
 20
4.33438
 11
53.1589
 21
4.09648
  0
LINE
  8
0
 10
53.1589
 20
4.09648
 11
53.2657
 21
3.83873
  0
LINE
  8
0
 10
53.2657
 20
3.83873
 11
53.3308
 21
3.56743
  0
LINE
  8
0
 10
53.3308
 20
3.56743
 11
53.3527
 21
3.28929
  0
LINE
  8
0
 10
53.3527
 20
3.28929
 11
53.3308
 21
3.01115
  0
LINE
  8
0
 10
53.3308
 20
3.01115
 11
53.2657
 21
2.73985
  0
LINE
  8
0
 10
53.2657
 20
2.73985
 11
53.1589
 21
2.4821
  0
LINE
  8
0
 10
53.1589
 20
2.4821
 11
53.0131
 21
2.24422
  0
LINE
  8
0
 10
53.0131
 20
2.24422
 11
52.8319
 21
2.03206
  0
LINE
  8
0
 10
52.8319
 20
2.03206
 11
52.6198
 21
1.85086
  0
LINE
  8
0
 10
52.6198
 20
1.85086
 11
52.3819
 21
1.70508
  0
LINE
  8
0
 10
52.3819
 20
1.70508
 11
52.1241
 21
1.59831
  0
LINE
  8
0
 10
52.1241
 20
1.59831
 11
51.8528
 21
1.53319
  0
LINE
  8
0
 10
51.8528
 20
1.53319
 11
51.5747
 21
1.51129
  0
LINE
  8
0
 10
51.5747
 20
1.51129
 11
51.2966
 21
1.53319
  0
LINE
  8
0
 10
252.947
 20
1.53319
 11
252.676
 21
1.59831
  0
LINE
  8
0
 10
252.676
 20
1.59831
 11
252.418
 21
1.70508
  0
LINE
  8
0
 10
252.418
 20
1.70508
 11
252.18
 21
1.85086
  0
LINE
  8
0
 10
252.18
 20
1.85086
 11
251.968
 21
2.03206
  0
LINE
  8
0
 10
251.968
 20
2.03206
 11
251.787
 21
2.24422
  0
LINE
  8
0
 10
251.787
 20
2.24422
 11
251.641
 21
2.4821
  0
LINE
  8
0
 10
251.641
 20
2.4821
 11
251.534
 21
2.73985
  0
LINE
  8
0
 10
251.534
 20
2.73985
 11
251.469
 21
3.01115
  0
LINE
  8
0
 10
251.469
 20
3.01115
 11
251.447
 21
3.28929
  0
LINE
  8
0
 10
251.447
 20
3.28929
 11
251.469
 21
3.56743
  0
LINE
  8
0
 10
251.469
 20
3.56743
 11
251.534
 21
3.83873
  0
LINE
  8
0
 10
251.534
 20
3.83873
 11
251.641
 21
4.09648
  0
LINE
  8
0
 10
251.641
 20
4.09648
 11
251.787
 21
4.33438
  0
LINE
  8
0
 10
251.787
 20
4.33438
 11
251.968
 21
4.54652
  0
LINE
  8
0
 10
251.968
 20
4.54652
 11
252.18
 21
4.72772
  0
LINE
  8
0
 10
252.18
 20
4.72772
 11
252.418
 21
4.8735
  0
LINE
  8
0
 10
252.418
 20
4.8735
 11
252.676
 21
4.98027
  0
LINE
  8
0
 10
252.676
 20
4.98027
 11
252.947
 21
5.04539
  0
LINE
  8
0
 10
252.947
 20
5.04539
 11
253.225
 21
5.06729
  0
LINE
  8
0
 10
253.225
 20
5.06729
 11
253.503
 21
5.04539
  0
LINE
  8
0
 10
253.503
 20
5.04539
 11
253.775
 21
4.98027
  0
LINE
  8
0
 10
253.775
 20
4.98027
 11
254.032
 21
4.8735
  0
LINE
  8
0
 10
254.032
 20
4.8735
 11
254.27
 21
4.72772
  0
LINE
  8
0
 10
254.27
 20
4.72772
 11
254.483
 21
4.54652
  0
LINE
  8
0
 10
254.483
 20
4.54652
 11
254.664
 21
4.33438
  0
LINE
  8
0
 10
254.664
 20
4.33438
 11
254.81
 21
4.09648
  0
LINE
  8
0
 10
254.81
 20
4.09648
 11
254.916
 21
3.83873
  0
LINE
  8
0
 10
254.916
 20
3.83873
 11
254.981
 21
3.56743
  0
LINE
  8
0
 10
254.981
 20
3.56743
 11
255.003
 21
3.28929
  0
LINE
  8
0
 10
255.003
 20
3.28929
 11
254.981
 21
3.01115
  0
LINE
  8
0
 10
254.981
 20
3.01115
 11
254.916
 21
2.73985
  0
LINE
  8
0
 10
254.916
 20
2.73985
 11
254.81
 21
2.4821
  0
LINE
  8
0
 10
254.81
 20
2.4821
 11
254.664
 21
2.24422
  0
LINE
  8
0
 10
254.664
 20
2.24422
 11
254.483
 21
2.03206
  0
LINE
  8
0
 10
254.483
 20
2.03206
 11
254.27
 21
1.85086
  0
LINE
  8
0
 10
254.27
 20
1.85086
 11
254.032
 21
1.70508
  0
LINE
  8
0
 10
254.032
 20
1.70508
 11
253.775
 21
1.59831
  0
LINE
  8
0
 10
253.775
 20
1.59831
 11
253.503
 21
1.53319
  0
LINE
  8
0
 10
253.503
 20
1.53319
 11
253.225
 21
1.51129
  0
LINE
  8
0
 10
253.225
 20
1.51129
 11
252.947
 21
1.53319
  0
LINE
  8
0
 10
279.897
 20
1.53319
 11
279.625
 21
1.59831
  0
LINE
  8
0
 10
279.625
 20
1.59831
 11
279.367
 21
1.70508
  0
LINE
  8
0
 10
279.367
 20
1.70508
 11
279.13
 21
1.85086
  0
LINE
  8
0
 10
279.13
 20
1.85086
 11
278.917
 21
2.03206
  0
LINE
  8
0
 10
278.917
 20
2.03206
 11
278.736
 21
2.24422
  0
LINE
  8
0
 10
278.736
 20
2.24422
 11
278.59
 21
2.4821
  0
LINE
  8
0
 10
278.59
 20
2.4821
 11
278.484
 21
2.73985
  0
LINE
  8
0
 10
278.484
 20
2.73985
 11
278.419
 21
3.01115
  0
LINE
  8
0
 10
278.419
 20
3.01115
 11
278.397
 21
3.28929
  0
LINE
  8
0
 10
278.397
 20
3.28929
 11
278.419
 21
3.56743
  0
LINE
  8
0
 10
278.419
 20
3.56743
 11
278.484
 21
3.83873
  0
LINE
  8
0
 10
278.484
 20
3.83873
 11
278.59
 21
4.09648
  0
LINE
  8
0
 10
278.59
 20
4.09648
 11
278.736
 21
4.33438
  0
LINE
  8
0
 10
278.736
 20
4.33438
 11
278.917
 21
4.54652
  0
LINE
  8
0
 10
278.917
 20
4.54652
 11
279.13
 21
4.72772
  0
LINE
  8
0
 10
279.13
 20
4.72772
 11
279.367
 21
4.8735
  0
LINE
  8
0
 10
279.367
 20
4.8735
 11
279.625
 21
4.98027
  0
LINE
  8
0
 10
279.625
 20
4.98027
 11
279.897
 21
5.04539
  0
LINE
  8
0
 10
279.897
 20
5.04539
 11
280.175
 21
5.06729
  0
LINE
  8
0
 10
280.175
 20
5.06729
 11
280.453
 21
5.04539
  0
LINE
  8
0
 10
280.453
 20
5.04539
 11
280.724
 21
4.98027
  0
LINE
  8
0
 10
280.724
 20
4.98027
 11
280.982
 21
4.8735
  0
LINE
  8
0
 10
280.982
 20
4.8735
 11
281.22
 21
4.72772
  0
LINE
  8
0
 10
281.22
 20
4.72772
 11
281.432
 21
4.54652
  0
LINE
  8
0
 10
281.432
 20
4.54652
 11
281.613
 21
4.33438
  0
LINE
  8
0
 10
281.613
 20
4.33438
 11
281.759
 21
4.09648
  0
LINE
  8
0
 10
281.759
 20
4.09648
 11
281.866
 21
3.83873
  0
LINE
  8
0
 10
281.866
 20
3.83873
 11
281.931
 21
3.56743
  0
LINE
  8
0
 10
281.931
 20
3.56743
 11
281.953
 21
3.28929
  0
LINE
  8
0
 10
281.953
 20
3.28929
 11
281.931
 21
3.01115
  0
LINE
  8
0
 10
281.931
 20
3.01115
 11
281.866
 21
2.73985
  0
LINE
  8
0
 10
281.866
 20
2.73985
 11
281.759
 21
2.4821
  0
LINE
  8
0
 10
281.759
 20
2.4821
 11
281.613
 21
2.24422
  0
LINE
  8
0
 10
281.613
 20
2.24422
 11
281.432
 21
2.03206
  0
LINE
  8
0
 10
281.432
 20
2.03206
 11
281.22
 21
1.85086
  0
LINE
  8
0
 10
281.22
 20
1.85086
 11
280.982
 21
1.70508
  0
LINE
  8
0
 10
280.982
 20
1.70508
 11
280.724
 21
1.59831
  0
LINE
  8
0
 10
280.724
 20
1.59831
 11
280.453
 21
1.53319
  0
LINE
  8
0
 10
280.453
 20
1.53319
 11
280.175
 21
1.51129
  0
LINE
  8
0
 10
280.175
 20
1.51129
 11
279.897
 21
1.53319
  0
ENDSEC
  0
SECTION
  2
OBJECTS
  0
DICTIONARY
  0
ENDSEC
  0
EOF
