  0
SECTION
  2
BLOCKS
  0
ENDSEC
  0
SECTION
  2
ENTITIES
  0
LINE
  8
0
 10
304.8
 20
228.6
 11
0
 21
228.6
  0
LINE
  8
0
 10
0
 20
228.6
 11
0
 21
0
  0
LINE
  8
0
 10
0
 20
0
 11
304.8
 21
0
  0
LINE
  8
0
 10
304.8
 20
0
 11
304.8
 21
228.6
  0
LINE
  8
0
 10
138.739
 20
221.256
 11
138.556
 21
221.286
  0
LINE
  8
0
 10
138.556
 20
221.286
 11
138.376
 21
221.334
  0
LINE
  8
0
 10
138.376
 20
221.334
 11
138.202
 21
221.4
  0
LINE
  8
0
 10
138.202
 20
221.4
 11
138.036
 21
221.485
  0
LINE
  8
0
 10
138.036
 20
221.485
 11
137.88
 21
221.586
  0
LINE
  8
0
 10
137.88
 20
221.586
 11
137.736
 21
221.703
  0
LINE
  8
0
 10
137.736
 20
221.703
 11
137.604
 21
221.835
  0
LINE
  8
0
 10
137.604
 20
221.835
 11
137.487
 21
221.98
  0
LINE
  8
0
 10
137.487
 20
221.98
 11
137.385
 21
222.136
  0
LINE
  8
0
 10
137.385
 20
222.136
 11
137.301
 21
222.302
  0
LINE
  8
0
 10
137.301
 20
222.302
 11
137.234
 21
222.475
  0
LINE
  8
0
 10
137.234
 20
222.475
 11
137.186
 21
222.655
  0
LINE
  8
0
 10
137.186
 20
222.655
 11
137.157
 21
222.839
  0
LINE
  8
0
 10
137.157
 20
222.839
 11
137.147
 21
223.025
  0
LINE
  8
0
 10
137.147
 20
223.025
 11
137.157
 21
223.211
  0
LINE
  8
0
 10
137.157
 20
223.211
 11
137.186
 21
223.394
  0
LINE
  8
0
 10
137.186
 20
223.394
 11
137.234
 21
223.574
  0
LINE
  8
0
 10
137.234
 20
223.574
 11
137.301
 21
223.748
  0
LINE
  8
0
 10
137.301
 20
223.748
 11
137.385
 21
223.914
  0
LINE
  8
0
 10
137.385
 20
223.914
 11
137.487
 21
224.07
  0
LINE
  8
0
 10
137.487
 20
224.07
 11
137.604
 21
224.214
  0
LINE
  8
0
 10
137.604
 20
224.214
 11
137.736
 21
224.346
  0
LINE
  8
0
 10
137.736
 20
224.346
 11
137.88
 21
224.463
  0
LINE
  8
0
 10
137.88
 20
224.463
 11
138.036
 21
224.564
  0
LINE
  8
0
 10
138.036
 20
224.564
 11
138.202
 21
224.649
  0
LINE
  8
0
 10
138.202
 20
224.649
 11
138.376
 21
224.716
  0
LINE
  8
0
 10
138.376
 20
224.716
 11
138.556
 21
224.764
  0
LINE
  8
0
 10
138.556
 20
224.764
 11
138.739
 21
224.793
  0
LINE
  8
0
 10
138.739
 20
224.793
 11
138.925
 21
224.803
  0
LINE
  8
0
 10
138.925
 20
224.803
 11
139.111
 21
224.793
  0
LINE
  8
0
 10
139.111
 20
224.793
 11
139.295
 21
224.764
  0
LINE
  8
0
 10
139.295
 20
224.764
 11
139.475
 21
224.716
  0
LINE
  8
0
 10
139.475
 20
224.716
 11
139.648
 21
224.649
  0
LINE
  8
0
 10
139.648
 20
224.649
 11
139.814
 21
224.564
  0
LINE
  8
0
 10
139.814
 20
224.564
 11
139.97
 21
224.463
  0
LINE
  8
0
 10
139.97
 20
224.463
 11
140.115
 21
224.346
  0
LINE
  8
0
 10
140.115
 20
224.346
 11
140.247
 21
224.214
  0
LINE
  8
0
 10
140.247
 20
224.214
 11
140.364
 21
224.07
  0
LINE
  8
0
 10
140.364
 20
224.07
 11
140.465
 21
223.914
  0
LINE
  8
0
 10
140.465
 20
223.914
 11
140.55
 21
223.748
  0
LINE
  8
0
 10
140.55
 20
223.748
 11
140.616
 21
223.574
  0
LINE
  8
0
 10
140.616
 20
223.574
 11
140.664
 21
223.394
  0
LINE
  8
0
 10
140.664
 20
223.394
 11
140.694
 21
223.211
  0
LINE
  8
0
 10
140.694
 20
223.211
 11
140.703
 21
223.025
  0
LINE
  8
0
 10
140.703
 20
223.025
 11
140.694
 21
222.839
  0
LINE
  8
0
 10
140.694
 20
222.839
 11
140.664
 21
222.655
  0
LINE
  8
0
 10
140.664
 20
222.655
 11
140.616
 21
222.475
  0
LINE
  8
0
 10
140.616
 20
222.475
 11
140.55
 21
222.302
  0
LINE
  8
0
 10
140.55
 20
222.302
 11
140.465
 21
222.136
  0
LINE
  8
0
 10
140.465
 20
222.136
 11
140.364
 21
221.98
  0
LINE
  8
0
 10
140.364
 20
221.98
 11
140.247
 21
221.835
  0
LINE
  8
0
 10
140.247
 20
221.835
 11
140.115
 21
221.703
  0
LINE
  8
0
 10
140.115
 20
221.703
 11
139.97
 21
221.586
  0
LINE
  8
0
 10
139.97
 20
221.586
 11
139.814
 21
221.485
  0
LINE
  8
0
 10
139.814
 20
221.485
 11
139.648
 21
221.4
  0
LINE
  8
0
 10
139.648
 20
221.4
 11
139.475
 21
221.334
  0
LINE
  8
0
 10
139.475
 20
221.334
 11
139.295
 21
221.286
  0
LINE
  8
0
 10
139.295
 20
221.286
 11
139.111
 21
221.256
  0
LINE
  8
0
 10
139.111
 20
221.256
 11
138.925
 21
221.247
  0
LINE
  8
0
 10
138.925
 20
221.247
 11
138.739
 21
221.256
  0
LINE
  8
0
 10
165.689
 20
221.256
 11
165.505
 21
221.286
  0
LINE
  8
0
 10
165.505
 20
221.286
 11
165.325
 21
221.334
  0
LINE
  8
0
 10
165.325
 20
221.334
 11
165.152
 21
221.4
  0
LINE
  8
0
 10
165.152
 20
221.4
 11
164.986
 21
221.485
  0
LINE
  8
0
 10
164.986
 20
221.485
 11
164.83
 21
221.586
  0
LINE
  8
0
 10
164.83
 20
221.586
 11
164.685
 21
221.703
  0
LINE
  8
0
 10
164.685
 20
221.703
 11
164.553
 21
221.835
  0
LINE
  8
0
 10
164.553
 20
221.835
 11
164.436
 21
221.98
  0
LINE
  8
0
 10
164.436
 20
221.98
 11
164.335
 21
222.136
  0
LINE
  8
0
 10
164.335
 20
222.136
 11
164.25
 21
222.302
  0
LINE
  8
0
 10
164.25
 20
222.302
 11
164.184
 21
222.475
  0
LINE
  8
0
 10
164.184
 20
222.475
 11
164.136
 21
222.655
  0
LINE
  8
0
 10
164.136
 20
222.655
 11
164.106
 21
222.839
  0
LINE
  8
0
 10
164.106
 20
222.839
 11
164.097
 21
223.025
  0
LINE
  8
0
 10
164.097
 20
223.025
 11
164.106
 21
223.211
  0
LINE
  8
0
 10
164.106
 20
223.211
 11
164.136
 21
223.394
  0
LINE
  8
0
 10
164.136
 20
223.394
 11
164.184
 21
223.574
  0
LINE
  8
0
 10
164.184
 20
223.574
 11
164.25
 21
223.748
  0
LINE
  8
0
 10
164.25
 20
223.748
 11
164.335
 21
223.914
  0
LINE
  8
0
 10
164.335
 20
223.914
 11
164.436
 21
224.07
  0
LINE
  8
0
 10
164.436
 20
224.07
 11
164.553
 21
224.214
  0
LINE
  8
0
 10
164.553
 20
224.214
 11
164.685
 21
224.346
  0
LINE
  8
0
 10
164.685
 20
224.346
 11
164.83
 21
224.463
  0
LINE
  8
0
 10
164.83
 20
224.463
 11
164.986
 21
224.564
  0
LINE
  8
0
 10
164.986
 20
224.564
 11
165.152
 21
224.649
  0
LINE
  8
0
 10
165.152
 20
224.649
 11
165.325
 21
224.716
  0
LINE
  8
0
 10
165.325
 20
224.716
 11
165.505
 21
224.764
  0
LINE
  8
0
 10
165.505
 20
224.764
 11
165.689
 21
224.793
  0
LINE
  8
0
 10
165.689
 20
224.793
 11
165.875
 21
224.803
  0
LINE
  8
0
 10
165.875
 20
224.803
 11
166.061
 21
224.793
  0
LINE
  8
0
 10
166.061
 20
224.793
 11
166.244
 21
224.764
  0
LINE
  8
0
 10
166.244
 20
224.764
 11
166.424
 21
224.716
  0
LINE
  8
0
 10
166.424
 20
224.716
 11
166.598
 21
224.649
  0
LINE
  8
0
 10
166.598
 20
224.649
 11
166.764
 21
224.564
  0
LINE
  8
0
 10
166.764
 20
224.564
 11
166.92
 21
224.463
  0
LINE
  8
0
 10
166.92
 20
224.463
 11
167.064
 21
224.346
  0
LINE
  8
0
 10
167.064
 20
224.346
 11
167.196
 21
224.214
  0
LINE
  8
0
 10
167.196
 20
224.214
 11
167.313
 21
224.07
  0
LINE
  8
0
 10
167.313
 20
224.07
 11
167.414
 21
223.914
  0
LINE
  8
0
 10
167.414
 20
223.914
 11
167.499
 21
223.748
  0
LINE
  8
0
 10
167.499
 20
223.748
 11
167.566
 21
223.574
  0
LINE
  8
0
 10
167.566
 20
223.574
 11
167.614
 21
223.394
  0
LINE
  8
0
 10
167.614
 20
223.394
 11
167.643
 21
223.211
  0
LINE
  8
0
 10
167.643
 20
223.211
 11
167.653
 21
223.025
  0
LINE
  8
0
 10
167.653
 20
223.025
 11
167.643
 21
222.839
  0
LINE
  8
0
 10
167.643
 20
222.839
 11
167.614
 21
222.655
  0
LINE
  8
0
 10
167.614
 20
222.655
 11
167.566
 21
222.475
  0
LINE
  8
0
 10
167.566
 20
222.475
 11
167.499
 21
222.302
  0
LINE
  8
0
 10
167.499
 20
222.302
 11
167.414
 21
222.136
  0
LINE
  8
0
 10
167.414
 20
222.136
 11
167.313
 21
221.98
  0
LINE
  8
0
 10
167.313
 20
221.98
 11
167.196
 21
221.835
  0
LINE
  8
0
 10
167.196
 20
221.835
 11
167.064
 21
221.703
  0
LINE
  8
0
 10
167.064
 20
221.703
 11
166.92
 21
221.586
  0
LINE
  8
0
 10
166.92
 20
221.586
 11
166.764
 21
221.485
  0
LINE
  8
0
 10
166.764
 20
221.485
 11
166.598
 21
221.4
  0
LINE
  8
0
 10
166.598
 20
221.4
 11
166.424
 21
221.334
  0
LINE
  8
0
 10
166.424
 20
221.334
 11
166.244
 21
221.286
  0
LINE
  8
0
 10
166.244
 20
221.286
 11
166.061
 21
221.256
  0
LINE
  8
0
 10
166.061
 20
221.256
 11
165.875
 21
221.247
  0
LINE
  8
0
 10
165.875
 20
221.247
 11
165.689
 21
221.256
  0
LINE
  8
0
 10
43.4894
 20
221.256
 11
43.3056
 21
221.286
  0
LINE
  8
0
 10
43.3056
 20
221.286
 11
43.1259
 21
221.334
  0
LINE
  8
0
 10
43.1259
 20
221.334
 11
42.9521
 21
221.4
  0
LINE
  8
0
 10
42.9521
 20
221.4
 11
42.7863
 21
221.485
  0
LINE
  8
0
 10
42.7863
 20
221.485
 11
42.6302
 21
221.586
  0
LINE
  8
0
 10
42.6302
 20
221.586
 11
42.4856
 21
221.703
  0
LINE
  8
0
 10
42.4856
 20
221.703
 11
42.354
 21
221.835
  0
LINE
  8
0
 10
42.354
 20
221.835
 11
42.2369
 21
221.98
  0
LINE
  8
0
 10
42.2369
 20
221.98
 11
42.1355
 21
222.136
  0
LINE
  8
0
 10
42.1355
 20
222.136
 11
42.051
 21
222.302
  0
LINE
  8
0
 10
42.051
 20
222.302
 11
41.9843
 21
222.475
  0
LINE
  8
0
 10
41.9843
 20
222.475
 11
41.9361
 21
222.655
  0
LINE
  8
0
 10
41.9361
 20
222.655
 11
41.907
 21
222.839
  0
LINE
  8
0
 10
41.907
 20
222.839
 11
41.8973
 21
223.025
  0
LINE
  8
0
 10
41.8973
 20
223.025
 11
41.907
 21
223.211
  0
LINE
  8
0
 10
41.907
 20
223.211
 11
41.9361
 21
223.394
  0
LINE
  8
0
 10
41.9361
 20
223.394
 11
41.9843
 21
223.574
  0
LINE
  8
0
 10
41.9843
 20
223.574
 11
42.051
 21
223.748
  0
LINE
  8
0
 10
42.051
 20
223.748
 11
42.1355
 21
223.914
  0
LINE
  8
0
 10
42.1355
 20
223.914
 11
42.2369
 21
224.07
  0
LINE
  8
0
 10
42.2369
 20
224.07
 11
42.354
 21
224.214
  0
LINE
  8
0
 10
42.354
 20
224.214
 11
42.4856
 21
224.346
  0
LINE
  8
0
 10
42.4856
 20
224.346
 11
42.6302
 21
224.463
  0
LINE
  8
0
 10
42.6302
 20
224.463
 11
42.7863
 21
224.564
  0
LINE
  8
0
 10
42.7863
 20
224.564
 11
42.9521
 21
224.649
  0
LINE
  8
0
 10
42.9521
 20
224.649
 11
43.1259
 21
224.716
  0
LINE
  8
0
 10
43.1259
 20
224.716
 11
43.3056
 21
224.764
  0
LINE
  8
0
 10
43.3056
 20
224.764
 11
43.4894
 21
224.793
  0
LINE
  8
0
 10
43.4894
 20
224.793
 11
43.6753
 21
224.803
  0
LINE
  8
0
 10
43.6753
 20
224.803
 11
43.8611
 21
224.793
  0
LINE
  8
0
 10
43.8611
 20
224.793
 11
44.045
 21
224.764
  0
LINE
  8
0
 10
44.045
 20
224.764
 11
44.2247
 21
224.716
  0
LINE
  8
0
 10
44.2247
 20
224.716
 11
44.3985
 21
224.649
  0
LINE
  8
0
 10
44.3985
 20
224.649
 11
44.5643
 21
224.564
  0
LINE
  8
0
 10
44.5643
 20
224.564
 11
44.7204
 21
224.463
  0
LINE
  8
0
 10
44.7204
 20
224.463
 11
44.865
 21
224.346
  0
LINE
  8
0
 10
44.865
 20
224.346
 11
44.9966
 21
224.214
  0
LINE
  8
0
 10
44.9966
 20
224.214
 11
45.1137
 21
224.07
  0
LINE
  8
0
 10
45.1137
 20
224.07
 11
45.2151
 21
223.914
  0
LINE
  8
0
 10
45.2151
 20
223.914
 11
45.2996
 21
223.748
  0
LINE
  8
0
 10
45.2996
 20
223.748
 11
45.3663
 21
223.574
  0
LINE
  8
0
 10
45.3663
 20
223.574
 11
45.4144
 21
223.394
  0
LINE
  8
0
 10
45.4144
 20
223.394
 11
45.4436
 21
223.211
  0
LINE
  8
0
 10
45.4436
 20
223.211
 11
45.4533
 21
223.025
  0
LINE
  8
0
 10
45.4533
 20
223.025
 11
45.4436
 21
222.839
  0
LINE
  8
0
 10
45.4436
 20
222.839
 11
45.4144
 21
222.655
  0
LINE
  8
0
 10
45.4144
 20
222.655
 11
45.3663
 21
222.475
  0
LINE
  8
0
 10
45.3663
 20
222.475
 11
45.2996
 21
222.302
  0
LINE
  8
0
 10
45.2996
 20
222.302
 11
45.2151
 21
222.136
  0
LINE
  8
0
 10
45.2151
 20
222.136
 11
45.1137
 21
221.98
  0
LINE
  8
0
 10
45.1137
 20
221.98
 11
44.9966
 21
221.835
  0
LINE
  8
0
 10
44.9966
 20
221.835
 11
44.865
 21
221.703
  0
LINE
  8
0
 10
44.865
 20
221.703
 11
44.7204
 21
221.586
  0
LINE
  8
0
 10
44.7204
 20
221.586
 11
44.5643
 21
221.485
  0
LINE
  8
0
 10
44.5643
 20
221.485
 11
44.3985
 21
221.4
  0
LINE
  8
0
 10
44.3985
 20
221.4
 11
44.2247
 21
221.334
  0
LINE
  8
0
 10
44.2247
 20
221.334
 11
44.045
 21
221.286
  0
LINE
  8
0
 10
44.045
 20
221.286
 11
43.8611
 21
221.256
  0
LINE
  8
0
 10
43.8611
 20
221.256
 11
43.6753
 21
221.247
  0
LINE
  8
0
 10
43.6753
 20
221.247
 11
43.4894
 21
221.256
  0
LINE
  8
0
 10
70.4388
 20
221.256
 11
70.255
 21
221.286
  0
LINE
  8
0
 10
70.255
 20
221.286
 11
70.0753
 21
221.334
  0
LINE
  8
0
 10
70.0753
 20
221.334
 11
69.9015
 21
221.4
  0
LINE
  8
0
 10
69.9015
 20
221.4
 11
69.7357
 21
221.485
  0
LINE
  8
0
 10
69.7357
 20
221.485
 11
69.5796
 21
221.586
  0
LINE
  8
0
 10
69.5796
 20
221.586
 11
69.435
 21
221.703
  0
LINE
  8
0
 10
69.435
 20
221.703
 11
69.3034
 21
221.835
  0
LINE
  8
0
 10
69.3034
 20
221.835
 11
69.1863
 21
221.98
  0
LINE
  8
0
 10
69.1863
 20
221.98
 11
69.0849
 21
222.136
  0
LINE
  8
0
 10
69.0849
 20
222.136
 11
69.0004
 21
222.302
  0
LINE
  8
0
 10
69.0004
 20
222.302
 11
68.9337
 21
222.475
  0
LINE
  8
0
 10
68.9337
 20
222.475
 11
68.8855
 21
222.655
  0
LINE
  8
0
 10
68.8855
 20
222.655
 11
68.8564
 21
222.839
  0
LINE
  8
0
 10
68.8564
 20
222.839
 11
68.8467
 21
223.025
  0
LINE
  8
0
 10
68.8467
 20
223.025
 11
68.8564
 21
223.211
  0
LINE
  8
0
 10
68.8564
 20
223.211
 11
68.8855
 21
223.394
  0
LINE
  8
0
 10
68.8855
 20
223.394
 11
68.9337
 21
223.574
  0
LINE
  8
0
 10
68.9337
 20
223.574
 11
69.0004
 21
223.748
  0
LINE
  8
0
 10
69.0004
 20
223.748
 11
69.0849
 21
223.914
  0
LINE
  8
0
 10
69.0849
 20
223.914
 11
69.1863
 21
224.07
  0
LINE
  8
0
 10
69.1863
 20
224.07
 11
69.3034
 21
224.214
  0
LINE
  8
0
 10
69.3034
 20
224.214
 11
69.435
 21
224.346
  0
LINE
  8
0
 10
69.435
 20
224.346
 11
69.5796
 21
224.463
  0
LINE
  8
0
 10
69.5796
 20
224.463
 11
69.7357
 21
224.564
  0
LINE
  8
0
 10
69.7357
 20
224.564
 11
69.9015
 21
224.649
  0
LINE
  8
0
 10
69.9015
 20
224.649
 11
70.0753
 21
224.716
  0
LINE
  8
0
 10
70.0753
 20
224.716
 11
70.255
 21
224.764
  0
LINE
  8
0
 10
70.255
 20
224.764
 11
70.4388
 21
224.793
  0
LINE
  8
0
 10
70.4388
 20
224.793
 11
70.6247
 21
224.803
  0
LINE
  8
0
 10
70.6247
 20
224.803
 11
70.8105
 21
224.793
  0
LINE
  8
0
 10
70.8105
 20
224.793
 11
70.9944
 21
224.764
  0
LINE
  8
0
 10
70.9944
 20
224.764
 11
71.1741
 21
224.716
  0
LINE
  8
0
 10
71.1741
 20
224.716
 11
71.3479
 21
224.649
  0
LINE
  8
0
 10
71.3479
 20
224.649
 11
71.5137
 21
224.564
  0
LINE
  8
0
 10
71.5137
 20
224.564
 11
71.6698
 21
224.463
  0
LINE
  8
0
 10
71.6698
 20
224.463
 11
71.8144
 21
224.346
  0
LINE
  8
0
 10
71.8144
 20
224.346
 11
71.946
 21
224.214
  0
LINE
  8
0
 10
71.946
 20
224.214
 11
72.0631
 21
224.07
  0
LINE
  8
0
 10
72.0631
 20
224.07
 11
72.1645
 21
223.914
  0
LINE
  8
0
 10
72.1645
 20
223.914
 11
72.249
 21
223.748
  0
LINE
  8
0
 10
72.249
 20
223.748
 11
72.3157
 21
223.574
  0
LINE
  8
0
 10
72.3157
 20
223.574
 11
72.3638
 21
223.394
  0
LINE
  8
0
 10
72.3638
 20
223.394
 11
72.393
 21
223.211
  0
LINE
  8
0
 10
72.393
 20
223.211
 11
72.4027
 21
223.025
  0
LINE
  8
0
 10
72.4027
 20
223.025
 11
72.393
 21
222.839
  0
LINE
  8
0
 10
72.393
 20
222.839
 11
72.3638
 21
222.655
  0
LINE
  8
0
 10
72.3638
 20
222.655
 11
72.3157
 21
222.475
  0
LINE
  8
0
 10
72.3157
 20
222.475
 11
72.249
 21
222.302
  0
LINE
  8
0
 10
72.249
 20
222.302
 11
72.1645
 21
222.136
  0
LINE
  8
0
 10
72.1645
 20
222.136
 11
72.0631
 21
221.98
  0
LINE
  8
0
 10
72.0631
 20
221.98
 11
71.946
 21
221.835
  0
LINE
  8
0
 10
71.946
 20
221.835
 11
71.8144
 21
221.703
  0
LINE
  8
0
 10
71.8144
 20
221.703
 11
71.6698
 21
221.586
  0
LINE
  8
0
 10
71.6698
 20
221.586
 11
71.5137
 21
221.485
  0
LINE
  8
0
 10
71.5137
 20
221.485
 11
71.3479
 21
221.4
  0
LINE
  8
0
 10
71.3479
 20
221.4
 11
71.1741
 21
221.334
  0
LINE
  8
0
 10
71.1741
 20
221.334
 11
70.9944
 21
221.286
  0
LINE
  8
0
 10
70.9944
 20
221.286
 11
70.8105
 21
221.256
  0
LINE
  8
0
 10
70.8105
 20
221.256
 11
70.6247
 21
221.247
  0
LINE
  8
0
 10
70.6247
 20
221.247
 11
70.4388
 21
221.256
  0
LINE
  8
0
 10
233.989
 20
221.256
 11
233.806
 21
221.286
  0
LINE
  8
0
 10
233.806
 20
221.286
 11
233.626
 21
221.334
  0
LINE
  8
0
 10
233.626
 20
221.334
 11
233.452
 21
221.4
  0
LINE
  8
0
 10
233.452
 20
221.4
 11
233.286
 21
221.485
  0
LINE
  8
0
 10
233.286
 20
221.485
 11
233.13
 21
221.586
  0
LINE
  8
0
 10
233.13
 20
221.586
 11
232.986
 21
221.703
  0
LINE
  8
0
 10
232.986
 20
221.703
 11
232.854
 21
221.835
  0
LINE
  8
0
 10
232.854
 20
221.835
 11
232.737
 21
221.98
  0
LINE
  8
0
 10
232.737
 20
221.98
 11
232.635
 21
222.136
  0
LINE
  8
0
 10
232.635
 20
222.136
 11
232.551
 21
222.302
  0
LINE
  8
0
 10
232.551
 20
222.302
 11
232.484
 21
222.475
  0
LINE
  8
0
 10
232.484
 20
222.475
 11
232.436
 21
222.655
  0
LINE
  8
0
 10
232.436
 20
222.655
 11
232.407
 21
222.839
  0
LINE
  8
0
 10
232.407
 20
222.839
 11
232.397
 21
223.025
  0
LINE
  8
0
 10
232.397
 20
223.025
 11
232.407
 21
223.211
  0
LINE
  8
0
 10
232.407
 20
223.211
 11
232.436
 21
223.394
  0
LINE
  8
0
 10
232.436
 20
223.394
 11
232.484
 21
223.574
  0
LINE
  8
0
 10
232.484
 20
223.574
 11
232.551
 21
223.748
  0
LINE
  8
0
 10
232.551
 20
223.748
 11
232.635
 21
223.914
  0
LINE
  8
0
 10
232.635
 20
223.914
 11
232.737
 21
224.07
  0
LINE
  8
0
 10
232.737
 20
224.07
 11
232.854
 21
224.214
  0
LINE
  8
0
 10
232.854
 20
224.214
 11
232.986
 21
224.346
  0
LINE
  8
0
 10
232.986
 20
224.346
 11
233.13
 21
224.463
  0
LINE
  8
0
 10
233.13
 20
224.463
 11
233.286
 21
224.564
  0
LINE
  8
0
 10
233.286
 20
224.564
 11
233.452
 21
224.649
  0
LINE
  8
0
 10
233.452
 20
224.649
 11
233.626
 21
224.716
  0
LINE
  8
0
 10
233.626
 20
224.716
 11
233.806
 21
224.764
  0
LINE
  8
0
 10
233.806
 20
224.764
 11
233.989
 21
224.793
  0
LINE
  8
0
 10
233.989
 20
224.793
 11
234.175
 21
224.803
  0
LINE
  8
0
 10
234.175
 20
224.803
 11
234.361
 21
224.793
  0
LINE
  8
0
 10
234.361
 20
224.793
 11
234.545
 21
224.764
  0
LINE
  8
0
 10
234.545
 20
224.764
 11
234.725
 21
224.716
  0
LINE
  8
0
 10
234.725
 20
224.716
 11
234.898
 21
224.649
  0
LINE
  8
0
 10
234.898
 20
224.649
 11
235.064
 21
224.564
  0
LINE
  8
0
 10
235.064
 20
224.564
 11
235.22
 21
224.463
  0
LINE
  8
0
 10
235.22
 20
224.463
 11
235.365
 21
224.346
  0
LINE
  8
0
 10
235.365
 20
224.346
 11
235.497
 21
224.214
  0
LINE
  8
0
 10
235.497
 20
224.214
 11
235.614
 21
224.07
  0
LINE
  8
0
 10
235.614
 20
224.07
 11
235.715
 21
223.914
  0
LINE
  8
0
 10
235.715
 20
223.914
 11
235.8
 21
223.748
  0
LINE
  8
0
 10
235.8
 20
223.748
 11
235.866
 21
223.574
  0
LINE
  8
0
 10
235.866
 20
223.574
 11
235.914
 21
223.394
  0
LINE
  8
0
 10
235.914
 20
223.394
 11
235.944
 21
223.211
  0
LINE
  8
0
 10
235.944
 20
223.211
 11
235.953
 21
223.025
  0
LINE
  8
0
 10
235.953
 20
223.025
 11
235.944
 21
222.839
  0
LINE
  8
0
 10
235.944
 20
222.839
 11
235.914
 21
222.655
  0
LINE
  8
0
 10
235.914
 20
222.655
 11
235.866
 21
222.475
  0
LINE
  8
0
 10
235.866
 20
222.475
 11
235.8
 21
222.302
  0
LINE
  8
0
 10
235.8
 20
222.302
 11
235.715
 21
222.136
  0
LINE
  8
0
 10
235.715
 20
222.136
 11
235.614
 21
221.98
  0
LINE
  8
0
 10
235.614
 20
221.98
 11
235.497
 21
221.835
  0
LINE
  8
0
 10
235.497
 20
221.835
 11
235.365
 21
221.703
  0
LINE
  8
0
 10
235.365
 20
221.703
 11
235.22
 21
221.586
  0
LINE
  8
0
 10
235.22
 20
221.586
 11
235.064
 21
221.485
  0
LINE
  8
0
 10
235.064
 20
221.485
 11
234.898
 21
221.4
  0
LINE
  8
0
 10
234.898
 20
221.4
 11
234.725
 21
221.334
  0
LINE
  8
0
 10
234.725
 20
221.334
 11
234.545
 21
221.286
  0
LINE
  8
0
 10
234.545
 20
221.286
 11
234.361
 21
221.256
  0
LINE
  8
0
 10
234.361
 20
221.256
 11
234.175
 21
221.247
  0
LINE
  8
0
 10
234.175
 20
221.247
 11
233.989
 21
221.256
  0
LINE
  8
0
 10
260.939
 20
221.256
 11
260.755
 21
221.286
  0
LINE
  8
0
 10
260.755
 20
221.286
 11
260.575
 21
221.334
  0
LINE
  8
0
 10
260.575
 20
221.334
 11
260.402
 21
221.4
  0
LINE
  8
0
 10
260.402
 20
221.4
 11
260.236
 21
221.485
  0
LINE
  8
0
 10
260.236
 20
221.485
 11
260.08
 21
221.586
  0
LINE
  8
0
 10
260.08
 20
221.586
 11
259.935
 21
221.703
  0
LINE
  8
0
 10
259.935
 20
221.703
 11
259.803
 21
221.835
  0
LINE
  8
0
 10
259.803
 20
221.835
 11
259.686
 21
221.98
  0
LINE
  8
0
 10
259.686
 20
221.98
 11
259.585
 21
222.136
  0
LINE
  8
0
 10
259.585
 20
222.136
 11
259.5
 21
222.302
  0
LINE
  8
0
 10
259.5
 20
222.302
 11
259.434
 21
222.475
  0
LINE
  8
0
 10
259.434
 20
222.475
 11
259.386
 21
222.655
  0
LINE
  8
0
 10
259.386
 20
222.655
 11
259.356
 21
222.839
  0
LINE
  8
0
 10
259.356
 20
222.839
 11
259.347
 21
223.025
  0
LINE
  8
0
 10
259.347
 20
223.025
 11
259.356
 21
223.211
  0
LINE
  8
0
 10
259.356
 20
223.211
 11
259.386
 21
223.394
  0
LINE
  8
0
 10
259.386
 20
223.394
 11
259.434
 21
223.574
  0
LINE
  8
0
 10
259.434
 20
223.574
 11
259.5
 21
223.748
  0
LINE
  8
0
 10
259.5
 20
223.748
 11
259.585
 21
223.914
  0
LINE
  8
0
 10
259.585
 20
223.914
 11
259.686
 21
224.07
  0
LINE
  8
0
 10
259.686
 20
224.07
 11
259.803
 21
224.214
  0
LINE
  8
0
 10
259.803
 20
224.214
 11
259.935
 21
224.346
  0
LINE
  8
0
 10
259.935
 20
224.346
 11
260.08
 21
224.463
  0
LINE
  8
0
 10
260.08
 20
224.463
 11
260.236
 21
224.564
  0
LINE
  8
0
 10
260.236
 20
224.564
 11
260.402
 21
224.649
  0
LINE
  8
0
 10
260.402
 20
224.649
 11
260.575
 21
224.716
  0
LINE
  8
0
 10
260.575
 20
224.716
 11
260.755
 21
224.764
  0
LINE
  8
0
 10
260.755
 20
224.764
 11
260.939
 21
224.793
  0
LINE
  8
0
 10
260.939
 20
224.793
 11
261.125
 21
224.803
  0
LINE
  8
0
 10
261.125
 20
224.803
 11
261.311
 21
224.793
  0
LINE
  8
0
 10
261.311
 20
224.793
 11
261.494
 21
224.764
  0
LINE
  8
0
 10
261.494
 20
224.764
 11
261.674
 21
224.716
  0
LINE
  8
0
 10
261.674
 20
224.716
 11
261.848
 21
224.649
  0
LINE
  8
0
 10
261.848
 20
224.649
 11
262.014
 21
224.564
  0
LINE
  8
0
 10
262.014
 20
224.564
 11
262.17
 21
224.463
  0
LINE
  8
0
 10
262.17
 20
224.463
 11
262.314
 21
224.346
  0
LINE
  8
0
 10
262.314
 20
224.346
 11
262.446
 21
224.214
  0
LINE
  8
0
 10
262.446
 20
224.214
 11
262.563
 21
224.07
  0
LINE
  8
0
 10
262.563
 20
224.07
 11
262.664
 21
223.914
  0
LINE
  8
0
 10
262.664
 20
223.914
 11
262.749
 21
223.748
  0
LINE
  8
0
 10
262.749
 20
223.748
 11
262.816
 21
223.574
  0
LINE
  8
0
 10
262.816
 20
223.574
 11
262.864
 21
223.394
  0
LINE
  8
0
 10
262.864
 20
223.394
 11
262.893
 21
223.211
  0
LINE
  8
0
 10
262.893
 20
223.211
 11
262.903
 21
223.025
  0
LINE
  8
0
 10
262.903
 20
223.025
 11
262.893
 21
222.839
  0
LINE
  8
0
 10
262.893
 20
222.839
 11
262.864
 21
222.655
  0
LINE
  8
0
 10
262.864
 20
222.655
 11
262.816
 21
222.475
  0
LINE
  8
0
 10
262.816
 20
222.475
 11
262.749
 21
222.302
  0
LINE
  8
0
 10
262.749
 20
222.302
 11
262.664
 21
222.136
  0
LINE
  8
0
 10
262.664
 20
222.136
 11
262.563
 21
221.98
  0
LINE
  8
0
 10
262.563
 20
221.98
 11
262.446
 21
221.835
  0
LINE
  8
0
 10
262.446
 20
221.835
 11
262.314
 21
221.703
  0
LINE
  8
0
 10
262.314
 20
221.703
 11
262.17
 21
221.586
  0
LINE
  8
0
 10
262.17
 20
221.586
 11
262.014
 21
221.485
  0
LINE
  8
0
 10
262.014
 20
221.485
 11
261.848
 21
221.4
  0
LINE
  8
0
 10
261.848
 20
221.4
 11
261.674
 21
221.334
  0
LINE
  8
0
 10
261.674
 20
221.334
 11
261.494
 21
221.286
  0
LINE
  8
0
 10
261.494
 20
221.286
 11
261.311
 21
221.256
  0
LINE
  8
0
 10
261.311
 20
221.256
 11
261.125
 21
221.247
  0
LINE
  8
0
 10
261.125
 20
221.247
 11
260.939
 21
221.256
  0
LINE
  8
0
 10
5.38943
 20
126.006
 11
5.20563
 21
126.036
  0
LINE
  8
0
 10
5.20563
 20
126.036
 11
5.02586
 21
126.084
  0
LINE
  8
0
 10
5.02586
 20
126.084
 11
4.85211
 21
126.15
  0
LINE
  8
0
 10
4.85211
 20
126.15
 11
4.68629
 21
126.235
  0
LINE
  8
0
 10
4.68629
 20
126.235
 11
4.53021
 21
126.336
  0
LINE
  8
0
 10
4.53021
 20
126.336
 11
4.38557
 21
126.453
  0
LINE
  8
0
 10
4.38557
 20
126.453
 11
4.25398
 21
126.585
  0
LINE
  8
0
 10
4.25398
 20
126.585
 11
4.13686
 21
126.73
  0
LINE
  8
0
 10
4.13686
 20
126.73
 11
4.03549
 21
126.886
  0
LINE
  8
0
 10
4.03549
 20
126.886
 11
3.951
 21
127.052
  0
LINE
  8
0
 10
3.951
 20
127.052
 11
3.88431
 21
127.225
  0
LINE
  8
0
 10
3.88431
 20
127.225
 11
3.83615
 21
127.405
  0
LINE
  8
0
 10
3.83615
 20
127.405
 11
3.80704
 21
127.589
  0
LINE
  8
0
 10
3.80704
 20
127.589
 11
3.79729
 21
127.775
  0
LINE
  8
0
 10
3.79729
 20
127.775
 11
3.80704
 21
127.961
  0
LINE
  8
0
 10
3.80704
 20
127.961
 11
3.83615
 21
128.144
  0
LINE
  8
0
 10
3.83615
 20
128.144
 11
3.88431
 21
128.324
  0
LINE
  8
0
 10
3.88431
 20
128.324
 11
3.951
 21
128.498
  0
LINE
  8
0
 10
3.951
 20
128.498
 11
4.03549
 21
128.664
  0
LINE
  8
0
 10
4.03549
 20
128.664
 11
4.13686
 21
128.82
  0
LINE
  8
0
 10
4.13686
 20
128.82
 11
4.25398
 21
128.964
  0
LINE
  8
0
 10
4.25398
 20
128.964
 11
4.38557
 21
129.096
  0
LINE
  8
0
 10
4.38557
 20
129.096
 11
4.53021
 21
129.213
  0
LINE
  8
0
 10
4.53021
 20
129.213
 11
4.68629
 21
129.314
  0
LINE
  8
0
 10
4.68629
 20
129.314
 11
4.85211
 21
129.399
  0
LINE
  8
0
 10
4.85211
 20
129.399
 11
5.02586
 21
129.466
  0
LINE
  8
0
 10
5.02586
 20
129.466
 11
5.20563
 21
129.514
  0
LINE
  8
0
 10
5.20563
 20
129.514
 11
5.38943
 21
129.543
  0
LINE
  8
0
 10
5.38943
 20
129.543
 11
5.57529
 21
129.553
  0
LINE
  8
0
 10
5.57529
 20
129.553
 11
5.76114
 21
129.543
  0
LINE
  8
0
 10
5.76114
 20
129.543
 11
5.94496
 21
129.514
  0
LINE
  8
0
 10
5.94496
 20
129.514
 11
6.12473
 21
129.466
  0
LINE
  8
0
 10
6.12473
 20
129.466
 11
6.29848
 21
129.399
  0
LINE
  8
0
 10
6.29848
 20
129.399
 11
6.46429
 21
129.314
  0
LINE
  8
0
 10
6.46429
 20
129.314
 11
6.62038
 21
129.213
  0
LINE
  8
0
 10
6.62038
 20
129.213
 11
6.765
 21
129.096
  0
LINE
  8
0
 10
6.765
 20
129.096
 11
6.89661
 21
128.964
  0
LINE
  8
0
 10
6.89661
 20
128.964
 11
7.01372
 21
128.82
  0
LINE
  8
0
 10
7.01372
 20
128.82
 11
7.11508
 21
128.664
  0
LINE
  8
0
 10
7.11508
 20
128.664
 11
7.19957
 21
128.498
  0
LINE
  8
0
 10
7.19957
 20
128.498
 11
7.26627
 21
128.324
  0
LINE
  8
0
 10
7.26627
 20
128.324
 11
7.31444
 21
128.144
  0
LINE
  8
0
 10
7.31444
 20
128.144
 11
7.34355
 21
127.961
  0
LINE
  8
0
 10
7.34355
 20
127.961
 11
7.35329
 21
127.775
  0
LINE
  8
0
 10
7.35329
 20
127.775
 11
7.34355
 21
127.589
  0
LINE
  8
0
 10
7.34355
 20
127.589
 11
7.31444
 21
127.405
  0
LINE
  8
0
 10
7.31444
 20
127.405
 11
7.26627
 21
127.225
  0
LINE
  8
0
 10
7.26627
 20
127.225
 11
7.19957
 21
127.052
  0
LINE
  8
0
 10
7.19957
 20
127.052
 11
7.11508
 21
126.886
  0
LINE
  8
0
 10
7.11508
 20
126.886
 11
7.01372
 21
126.73
  0
LINE
  8
0
 10
7.01372
 20
126.73
 11
6.89661
 21
126.585
  0
LINE
  8
0
 10
6.89661
 20
126.585
 11
6.765
 21
126.453
  0
LINE
  8
0
 10
6.765
 20
126.453
 11
6.62038
 21
126.336
  0
LINE
  8
0
 10
6.62038
 20
126.336
 11
6.46429
 21
126.235
  0
LINE
  8
0
 10
6.46429
 20
126.235
 11
6.29848
 21
126.15
  0
LINE
  8
0
 10
6.29848
 20
126.15
 11
6.12473
 21
126.084
  0
LINE
  8
0
 10
6.12473
 20
126.084
 11
5.94496
 21
126.036
  0
LINE
  8
0
 10
5.94496
 20
126.036
 11
5.76114
 21
126.006
  0
LINE
  8
0
 10
5.76114
 20
126.006
 11
5.57529
 21
125.997
  0
LINE
  8
0
 10
5.57529
 20
125.997
 11
5.38943
 21
126.006
  0
LINE
  8
0
 10
299.039
 20
126.006
 11
298.855
 21
126.036
  0
LINE
  8
0
 10
298.855
 20
126.036
 11
298.675
 21
126.084
  0
LINE
  8
0
 10
298.675
 20
126.084
 11
298.502
 21
126.15
  0
LINE
  8
0
 10
298.502
 20
126.15
 11
298.336
 21
126.235
  0
LINE
  8
0
 10
298.336
 20
126.235
 11
298.18
 21
126.336
  0
LINE
  8
0
 10
298.18
 20
126.336
 11
298.035
 21
126.453
  0
LINE
  8
0
 10
298.035
 20
126.453
 11
297.903
 21
126.585
  0
LINE
  8
0
 10
297.903
 20
126.585
 11
297.786
 21
126.73
  0
LINE
  8
0
 10
297.786
 20
126.73
 11
297.685
 21
126.886
  0
LINE
  8
0
 10
297.685
 20
126.886
 11
297.6
 21
127.052
  0
LINE
  8
0
 10
297.6
 20
127.052
 11
297.534
 21
127.225
  0
LINE
  8
0
 10
297.534
 20
127.225
 11
297.486
 21
127.405
  0
LINE
  8
0
 10
297.486
 20
127.405
 11
297.456
 21
127.589
  0
LINE
  8
0
 10
297.456
 20
127.589
 11
297.447
 21
127.775
  0
LINE
  8
0
 10
297.447
 20
127.775
 11
297.456
 21
127.961
  0
LINE
  8
0
 10
297.456
 20
127.961
 11
297.486
 21
128.144
  0
LINE
  8
0
 10
297.486
 20
128.144
 11
297.534
 21
128.324
  0
LINE
  8
0
 10
297.534
 20
128.324
 11
297.6
 21
128.498
  0
LINE
  8
0
 10
297.6
 20
128.498
 11
297.685
 21
128.664
  0
LINE
  8
0
 10
297.685
 20
128.664
 11
297.786
 21
128.82
  0
LINE
  8
0
 10
297.786
 20
128.82
 11
297.903
 21
128.964
  0
LINE
  8
0
 10
297.903
 20
128.964
 11
298.035
 21
129.096
  0
LINE
  8
0
 10
298.035
 20
129.096
 11
298.18
 21
129.213
  0
LINE
  8
0
 10
298.18
 20
129.213
 11
298.336
 21
129.314
  0
LINE
  8
0
 10
298.336
 20
129.314
 11
298.502
 21
129.399
  0
LINE
  8
0
 10
298.502
 20
129.399
 11
298.675
 21
129.466
  0
LINE
  8
0
 10
298.675
 20
129.466
 11
298.855
 21
129.514
  0
LINE
  8
0
 10
298.855
 20
129.514
 11
299.039
 21
129.543
  0
LINE
  8
0
 10
299.039
 20
129.543
 11
299.225
 21
129.553
  0
LINE
  8
0
 10
299.225
 20
129.553
 11
299.411
 21
129.543
  0
LINE
  8
0
 10
299.411
 20
129.543
 11
299.594
 21
129.514
  0
LINE
  8
0
 10
299.594
 20
129.514
 11
299.774
 21
129.466
  0
LINE
  8
0
 10
299.774
 20
129.466
 11
299.948
 21
129.399
  0
LINE
  8
0
 10
299.948
 20
129.399
 11
300.114
 21
129.314
  0
LINE
  8
0
 10
300.114
 20
129.314
 11
300.27
 21
129.213
  0
LINE
  8
0
 10
300.27
 20
129.213
 11
300.414
 21
129.096
  0
LINE
  8
0
 10
300.414
 20
129.096
 11
300.546
 21
128.964
  0
LINE
  8
0
 10
300.546
 20
128.964
 11
300.663
 21
128.82
  0
LINE
  8
0
 10
300.663
 20
128.82
 11
300.764
 21
128.664
  0
LINE
  8
0
 10
300.764
 20
128.664
 11
300.849
 21
128.498
  0
LINE
  8
0
 10
300.849
 20
128.498
 11
300.916
 21
128.324
  0
LINE
  8
0
 10
300.916
 20
128.324
 11
300.964
 21
128.144
  0
LINE
  8
0
 10
300.964
 20
128.144
 11
300.993
 21
127.961
  0
LINE
  8
0
 10
300.993
 20
127.961
 11
301.003
 21
127.775
  0
LINE
  8
0
 10
301.003
 20
127.775
 11
300.993
 21
127.589
  0
LINE
  8
0
 10
300.993
 20
127.589
 11
300.964
 21
127.405
  0
LINE
  8
0
 10
300.964
 20
127.405
 11
300.916
 21
127.225
  0
LINE
  8
0
 10
300.916
 20
127.225
 11
300.849
 21
127.052
  0
LINE
  8
0
 10
300.849
 20
127.052
 11
300.764
 21
126.886
  0
LINE
  8
0
 10
300.764
 20
126.886
 11
300.663
 21
126.73
  0
LINE
  8
0
 10
300.663
 20
126.73
 11
300.546
 21
126.585
  0
LINE
  8
0
 10
300.546
 20
126.585
 11
300.414
 21
126.453
  0
LINE
  8
0
 10
300.414
 20
126.453
 11
300.27
 21
126.336
  0
LINE
  8
0
 10
300.27
 20
126.336
 11
300.114
 21
126.235
  0
LINE
  8
0
 10
300.114
 20
126.235
 11
299.948
 21
126.15
  0
LINE
  8
0
 10
299.948
 20
126.15
 11
299.774
 21
126.084
  0
LINE
  8
0
 10
299.774
 20
126.084
 11
299.594
 21
126.036
  0
LINE
  8
0
 10
299.594
 20
126.036
 11
299.411
 21
126.006
  0
LINE
  8
0
 10
299.411
 20
126.006
 11
299.225
 21
125.997
  0
LINE
  8
0
 10
299.225
 20
125.997
 11
299.039
 21
126.006
  0
LINE
  8
0
 10
5.38943
 20
99.057
 11
5.20563
 21
99.0862
  0
LINE
  8
0
 10
5.20563
 20
99.0862
 11
5.02586
 21
99.1343
  0
LINE
  8
0
 10
5.02586
 20
99.1343
 11
4.85211
 21
99.201
  0
LINE
  8
0
 10
4.85211
 20
99.201
 11
4.68629
 21
99.2855
  0
LINE
  8
0
 10
4.68629
 20
99.2855
 11
4.53021
 21
99.3869
  0
LINE
  8
0
 10
4.53021
 20
99.3869
 11
4.38557
 21
99.504
  0
LINE
  8
0
 10
4.38557
 20
99.504
 11
4.25398
 21
99.6356
  0
LINE
  8
0
 10
4.25398
 20
99.6356
 11
4.13686
 21
99.7802
  0
LINE
  8
0
 10
4.13686
 20
99.7802
 11
4.03549
 21
99.9363
  0
LINE
  8
0
 10
4.03549
 20
99.9363
 11
3.951
 21
100.102
  0
LINE
  8
0
 10
3.951
 20
100.102
 11
3.88431
 21
100.276
  0
LINE
  8
0
 10
3.88431
 20
100.276
 11
3.83615
 21
100.456
  0
LINE
  8
0
 10
3.83615
 20
100.456
 11
3.80704
 21
100.639
  0
LINE
  8
0
 10
3.80704
 20
100.639
 11
3.79729
 21
100.825
  0
LINE
  8
0
 10
3.79729
 20
100.825
 11
3.80704
 21
101.011
  0
LINE
  8
0
 10
3.80704
 20
101.011
 11
3.83615
 21
101.195
  0
LINE
  8
0
 10
3.83615
 20
101.195
 11
3.88431
 21
101.375
  0
LINE
  8
0
 10
3.88431
 20
101.375
 11
3.951
 21
101.548
  0
LINE
  8
0
 10
3.951
 20
101.548
 11
4.03549
 21
101.714
  0
LINE
  8
0
 10
4.03549
 20
101.714
 11
4.13686
 21
101.87
  0
LINE
  8
0
 10
4.13686
 20
101.87
 11
4.25398
 21
102.015
  0
LINE
  8
0
 10
4.25398
 20
102.015
 11
4.38557
 21
102.147
  0
LINE
  8
0
 10
4.38557
 20
102.147
 11
4.53021
 21
102.264
  0
LINE
  8
0
 10
4.53021
 20
102.264
 11
4.68629
 21
102.365
  0
LINE
  8
0
 10
4.68629
 20
102.365
 11
4.85211
 21
102.45
  0
LINE
  8
0
 10
4.85211
 20
102.45
 11
5.02586
 21
102.516
  0
LINE
  8
0
 10
5.02586
 20
102.516
 11
5.20563
 21
102.564
  0
LINE
  8
0
 10
5.20563
 20
102.564
 11
5.38943
 21
102.594
  0
LINE
  8
0
 10
5.38943
 20
102.594
 11
5.57529
 21
102.603
  0
LINE
  8
0
 10
5.57529
 20
102.603
 11
5.76114
 21
102.594
  0
LINE
  8
0
 10
5.76114
 20
102.594
 11
5.94496
 21
102.564
  0
LINE
  8
0
 10
5.94496
 20
102.564
 11
6.12473
 21
102.516
  0
LINE
  8
0
 10
6.12473
 20
102.516
 11
6.29848
 21
102.45
  0
LINE
  8
0
 10
6.29848
 20
102.45
 11
6.46429
 21
102.365
  0
LINE
  8
0
 10
6.46429
 20
102.365
 11
6.62038
 21
102.264
  0
LINE
  8
0
 10
6.62038
 20
102.264
 11
6.765
 21
102.147
  0
LINE
  8
0
 10
6.765
 20
102.147
 11
6.89661
 21
102.015
  0
LINE
  8
0
 10
6.89661
 20
102.015
 11
7.01372
 21
101.87
  0
LINE
  8
0
 10
7.01372
 20
101.87
 11
7.11508
 21
101.714
  0
LINE
  8
0
 10
7.11508
 20
101.714
 11
7.19957
 21
101.548
  0
LINE
  8
0
 10
7.19957
 20
101.548
 11
7.26627
 21
101.375
  0
LINE
  8
0
 10
7.26627
 20
101.375
 11
7.31444
 21
101.195
  0
LINE
  8
0
 10
7.31444
 20
101.195
 11
7.34355
 21
101.011
  0
LINE
  8
0
 10
7.34355
 20
101.011
 11
7.35329
 21
100.825
  0
LINE
  8
0
 10
7.35329
 20
100.825
 11
7.34355
 21
100.639
  0
LINE
  8
0
 10
7.34355
 20
100.639
 11
7.31444
 21
100.456
  0
LINE
  8
0
 10
7.31444
 20
100.456
 11
7.26627
 21
100.276
  0
LINE
  8
0
 10
7.26627
 20
100.276
 11
7.19957
 21
100.102
  0
LINE
  8
0
 10
7.19957
 20
100.102
 11
7.11508
 21
99.9363
  0
LINE
  8
0
 10
7.11508
 20
99.9363
 11
7.01372
 21
99.7802
  0
LINE
  8
0
 10
7.01372
 20
99.7802
 11
6.89661
 21
99.6356
  0
LINE
  8
0
 10
6.89661
 20
99.6356
 11
6.765
 21
99.504
  0
LINE
  8
0
 10
6.765
 20
99.504
 11
6.62038
 21
99.3869
  0
LINE
  8
0
 10
6.62038
 20
99.3869
 11
6.46429
 21
99.2855
  0
LINE
  8
0
 10
6.46429
 20
99.2855
 11
6.29848
 21
99.201
  0
LINE
  8
0
 10
6.29848
 20
99.201
 11
6.12473
 21
99.1343
  0
LINE
  8
0
 10
6.12473
 20
99.1343
 11
5.94496
 21
99.0862
  0
LINE
  8
0
 10
5.94496
 20
99.0862
 11
5.76114
 21
99.057
  0
LINE
  8
0
 10
5.76114
 20
99.057
 11
5.57529
 21
99.0473
  0
LINE
  8
0
 10
5.57529
 20
99.0473
 11
5.38943
 21
99.057
  0
LINE
  8
0
 10
299.039
 20
99.057
 11
298.855
 21
99.0862
  0
LINE
  8
0
 10
298.855
 20
99.0862
 11
298.675
 21
99.1343
  0
LINE
  8
0
 10
298.675
 20
99.1343
 11
298.502
 21
99.201
  0
LINE
  8
0
 10
298.502
 20
99.201
 11
298.336
 21
99.2855
  0
LINE
  8
0
 10
298.336
 20
99.2855
 11
298.18
 21
99.3869
  0
LINE
  8
0
 10
298.18
 20
99.3869
 11
298.035
 21
99.504
  0
LINE
  8
0
 10
298.035
 20
99.504
 11
297.903
 21
99.6356
  0
LINE
  8
0
 10
297.903
 20
99.6356
 11
297.786
 21
99.7802
  0
LINE
  8
0
 10
297.786
 20
99.7802
 11
297.685
 21
99.9363
  0
LINE
  8
0
 10
297.685
 20
99.9363
 11
297.6
 21
100.102
  0
LINE
  8
0
 10
297.6
 20
100.102
 11
297.534
 21
100.276
  0
LINE
  8
0
 10
297.534
 20
100.276
 11
297.486
 21
100.456
  0
LINE
  8
0
 10
297.486
 20
100.456
 11
297.456
 21
100.639
  0
LINE
  8
0
 10
297.456
 20
100.639
 11
297.447
 21
100.825
  0
LINE
  8
0
 10
297.447
 20
100.825
 11
297.456
 21
101.011
  0
LINE
  8
0
 10
297.456
 20
101.011
 11
297.486
 21
101.195
  0
LINE
  8
0
 10
297.486
 20
101.195
 11
297.534
 21
101.375
  0
LINE
  8
0
 10
297.534
 20
101.375
 11
297.6
 21
101.548
  0
LINE
  8
0
 10
297.6
 20
101.548
 11
297.685
 21
101.714
  0
LINE
  8
0
 10
297.685
 20
101.714
 11
297.786
 21
101.87
  0
LINE
  8
0
 10
297.786
 20
101.87
 11
297.903
 21
102.015
  0
LINE
  8
0
 10
297.903
 20
102.015
 11
298.035
 21
102.147
  0
LINE
  8
0
 10
298.035
 20
102.147
 11
298.18
 21
102.264
  0
LINE
  8
0
 10
298.18
 20
102.264
 11
298.336
 21
102.365
  0
LINE
  8
0
 10
298.336
 20
102.365
 11
298.502
 21
102.45
  0
LINE
  8
0
 10
298.502
 20
102.45
 11
298.675
 21
102.516
  0
LINE
  8
0
 10
298.675
 20
102.516
 11
298.855
 21
102.564
  0
LINE
  8
0
 10
298.855
 20
102.564
 11
299.039
 21
102.594
  0
LINE
  8
0
 10
299.039
 20
102.594
 11
299.225
 21
102.603
  0
LINE
  8
0
 10
299.225
 20
102.603
 11
299.411
 21
102.594
  0
LINE
  8
0
 10
299.411
 20
102.594
 11
299.594
 21
102.564
  0
LINE
  8
0
 10
299.594
 20
102.564
 11
299.774
 21
102.516
  0
LINE
  8
0
 10
299.774
 20
102.516
 11
299.948
 21
102.45
  0
LINE
  8
0
 10
299.948
 20
102.45
 11
300.114
 21
102.365
  0
LINE
  8
0
 10
300.114
 20
102.365
 11
300.27
 21
102.264
  0
LINE
  8
0
 10
300.27
 20
102.264
 11
300.414
 21
102.147
  0
LINE
  8
0
 10
300.414
 20
102.147
 11
300.546
 21
102.015
  0
LINE
  8
0
 10
300.546
 20
102.015
 11
300.663
 21
101.87
  0
LINE
  8
0
 10
300.663
 20
101.87
 11
300.764
 21
101.714
  0
LINE
  8
0
 10
300.764
 20
101.714
 11
300.849
 21
101.548
  0
LINE
  8
0
 10
300.849
 20
101.548
 11
300.916
 21
101.375
  0
LINE
  8
0
 10
300.916
 20
101.375
 11
300.964
 21
101.195
  0
LINE
  8
0
 10
300.964
 20
101.195
 11
300.993
 21
101.011
  0
LINE
  8
0
 10
300.993
 20
101.011
 11
301.003
 21
100.825
  0
LINE
  8
0
 10
301.003
 20
100.825
 11
300.993
 21
100.639
  0
LINE
  8
0
 10
300.993
 20
100.639
 11
300.964
 21
100.456
  0
LINE
  8
0
 10
300.964
 20
100.456
 11
300.916
 21
100.276
  0
LINE
  8
0
 10
300.916
 20
100.276
 11
300.849
 21
100.102
  0
LINE
  8
0
 10
300.849
 20
100.102
 11
300.764
 21
99.9363
  0
LINE
  8
0
 10
300.764
 20
99.9363
 11
300.663
 21
99.7802
  0
LINE
  8
0
 10
300.663
 20
99.7802
 11
300.546
 21
99.6356
  0
LINE
  8
0
 10
300.546
 20
99.6356
 11
300.414
 21
99.504
  0
LINE
  8
0
 10
300.414
 20
99.504
 11
300.27
 21
99.3869
  0
LINE
  8
0
 10
300.27
 20
99.3869
 11
300.114
 21
99.2855
  0
LINE
  8
0
 10
300.114
 20
99.2855
 11
299.948
 21
99.201
  0
LINE
  8
0
 10
299.948
 20
99.201
 11
299.774
 21
99.1343
  0
LINE
  8
0
 10
299.774
 20
99.1343
 11
299.594
 21
99.0862
  0
LINE
  8
0
 10
299.594
 20
99.0862
 11
299.411
 21
99.057
  0
LINE
  8
0
 10
299.411
 20
99.057
 11
299.225
 21
99.0473
  0
LINE
  8
0
 10
299.225
 20
99.0473
 11
299.039
 21
99.057
  0
LINE
  8
0
 10
43.4894
 20
3.80704
 11
43.3056
 21
3.83615
  0
LINE
  8
0
 10
43.3056
 20
3.83615
 11
43.1259
 21
3.88431
  0
LINE
  8
0
 10
43.1259
 20
3.88431
 11
42.9521
 21
3.951
  0
LINE
  8
0
 10
42.9521
 20
3.951
 11
42.7863
 21
4.03549
  0
LINE
  8
0
 10
42.7863
 20
4.03549
 11
42.6302
 21
4.13686
  0
LINE
  8
0
 10
42.6302
 20
4.13686
 11
42.4856
 21
4.25398
  0
LINE
  8
0
 10
42.4856
 20
4.25398
 11
42.354
 21
4.38557
  0
LINE
  8
0
 10
42.354
 20
4.38557
 11
42.2369
 21
4.53021
  0
LINE
  8
0
 10
42.2369
 20
4.53021
 11
42.1355
 21
4.68629
  0
LINE
  8
0
 10
42.1355
 20
4.68629
 11
42.051
 21
4.85211
  0
LINE
  8
0
 10
42.051
 20
4.85211
 11
41.9843
 21
5.02586
  0
LINE
  8
0
 10
41.9843
 20
5.02586
 11
41.9361
 21
5.20563
  0
LINE
  8
0
 10
41.9361
 20
5.20563
 11
41.907
 21
5.38943
  0
LINE
  8
0
 10
41.907
 20
5.38943
 11
41.8973
 21
5.57529
  0
LINE
  8
0
 10
41.8973
 20
5.57529
 11
41.907
 21
5.76114
  0
LINE
  8
0
 10
41.907
 20
5.76114
 11
41.9361
 21
5.94496
  0
LINE
  8
0
 10
41.9361
 20
5.94496
 11
41.9843
 21
6.12473
  0
LINE
  8
0
 10
41.9843
 20
6.12473
 11
42.051
 21
6.29848
  0
LINE
  8
0
 10
42.051
 20
6.29848
 11
42.1355
 21
6.46429
  0
LINE
  8
0
 10
42.1355
 20
6.46429
 11
42.2369
 21
6.62038
  0
LINE
  8
0
 10
42.2369
 20
6.62038
 11
42.354
 21
6.765
  0
LINE
  8
0
 10
42.354
 20
6.765
 11
42.4856
 21
6.89661
  0
LINE
  8
0
 10
42.4856
 20
6.89661
 11
42.6302
 21
7.01372
  0
LINE
  8
0
 10
42.6302
 20
7.01372
 11
42.7863
 21
7.11508
  0
LINE
  8
0
 10
42.7863
 20
7.11508
 11
42.9521
 21
7.19957
  0
LINE
  8
0
 10
42.9521
 20
7.19957
 11
43.1259
 21
7.26627
  0
LINE
  8
0
 10
43.1259
 20
7.26627
 11
43.3056
 21
7.31444
  0
LINE
  8
0
 10
43.3056
 20
7.31444
 11
43.4894
 21
7.34355
  0
LINE
  8
0
 10
43.4894
 20
7.34355
 11
43.6753
 21
7.35329
  0
LINE
  8
0
 10
43.6753
 20
7.35329
 11
43.8611
 21
7.34355
  0
LINE
  8
0
 10
43.8611
 20
7.34355
 11
44.045
 21
7.31444
  0
LINE
  8
0
 10
44.045
 20
7.31444
 11
44.2247
 21
7.26627
  0
LINE
  8
0
 10
44.2247
 20
7.26627
 11
44.3985
 21
7.19957
  0
LINE
  8
0
 10
44.3985
 20
7.19957
 11
44.5643
 21
7.11508
  0
LINE
  8
0
 10
44.5643
 20
7.11508
 11
44.7204
 21
7.01372
  0
LINE
  8
0
 10
44.7204
 20
7.01372
 11
44.865
 21
6.89661
  0
LINE
  8
0
 10
44.865
 20
6.89661
 11
44.9966
 21
6.765
  0
LINE
  8
0
 10
44.9966
 20
6.765
 11
45.1137
 21
6.62038
  0
LINE
  8
0
 10
45.1137
 20
6.62038
 11
45.2151
 21
6.46429
  0
LINE
  8
0
 10
45.2151
 20
6.46429
 11
45.2996
 21
6.29848
  0
LINE
  8
0
 10
45.2996
 20
6.29848
 11
45.3663
 21
6.12473
  0
LINE
  8
0
 10
45.3663
 20
6.12473
 11
45.4144
 21
5.94496
  0
LINE
  8
0
 10
45.4144
 20
5.94496
 11
45.4436
 21
5.76114
  0
LINE
  8
0
 10
45.4436
 20
5.76114
 11
45.4533
 21
5.57529
  0
LINE
  8
0
 10
45.4533
 20
5.57529
 11
45.4436
 21
5.38943
  0
LINE
  8
0
 10
45.4436
 20
5.38943
 11
45.4144
 21
5.20563
  0
LINE
  8
0
 10
45.4144
 20
5.20563
 11
45.3663
 21
5.02586
  0
LINE
  8
0
 10
45.3663
 20
5.02586
 11
45.2996
 21
4.85211
  0
LINE
  8
0
 10
45.2996
 20
4.85211
 11
45.2151
 21
4.68629
  0
LINE
  8
0
 10
45.2151
 20
4.68629
 11
45.1137
 21
4.53021
  0
LINE
  8
0
 10
45.1137
 20
4.53021
 11
44.9966
 21
4.38557
  0
LINE
  8
0
 10
44.9966
 20
4.38557
 11
44.865
 21
4.25398
  0
LINE
  8
0
 10
44.865
 20
4.25398
 11
44.7204
 21
4.13686
  0
LINE
  8
0
 10
44.7204
 20
4.13686
 11
44.5643
 21
4.03549
  0
LINE
  8
0
 10
44.5643
 20
4.03549
 11
44.3985
 21
3.951
  0
LINE
  8
0
 10
44.3985
 20
3.951
 11
44.2247
 21
3.88431
  0
LINE
  8
0
 10
44.2247
 20
3.88431
 11
44.045
 21
3.83615
  0
LINE
  8
0
 10
44.045
 20
3.83615
 11
43.8611
 21
3.80704
  0
LINE
  8
0
 10
43.8611
 20
3.80704
 11
43.6753
 21
3.79729
  0
LINE
  8
0
 10
43.6753
 20
3.79729
 11
43.4894
 21
3.80704
  0
LINE
  8
0
 10
70.4388
 20
3.80704
 11
70.255
 21
3.83615
  0
LINE
  8
0
 10
70.255
 20
3.83615
 11
70.0753
 21
3.88431
  0
LINE
  8
0
 10
70.0753
 20
3.88431
 11
69.9015
 21
3.951
  0
LINE
  8
0
 10
69.9015
 20
3.951
 11
69.7357
 21
4.03549
  0
LINE
  8
0
 10
69.7357
 20
4.03549
 11
69.5796
 21
4.13686
  0
LINE
  8
0
 10
69.5796
 20
4.13686
 11
69.435
 21
4.25398
  0
LINE
  8
0
 10
69.435
 20
4.25398
 11
69.3034
 21
4.38557
  0
LINE
  8
0
 10
69.3034
 20
4.38557
 11
69.1863
 21
4.53021
  0
LINE
  8
0
 10
69.1863
 20
4.53021
 11
69.0849
 21
4.68629
  0
LINE
  8
0
 10
69.0849
 20
4.68629
 11
69.0004
 21
4.85211
  0
LINE
  8
0
 10
69.0004
 20
4.85211
 11
68.9337
 21
5.02586
  0
LINE
  8
0
 10
68.9337
 20
5.02586
 11
68.8855
 21
5.20563
  0
LINE
  8
0
 10
68.8855
 20
5.20563
 11
68.8564
 21
5.38943
  0
LINE
  8
0
 10
68.8564
 20
5.38943
 11
68.8467
 21
5.57529
  0
LINE
  8
0
 10
68.8467
 20
5.57529
 11
68.8564
 21
5.76114
  0
LINE
  8
0
 10
68.8564
 20
5.76114
 11
68.8855
 21
5.94496
  0
LINE
  8
0
 10
68.8855
 20
5.94496
 11
68.9337
 21
6.12473
  0
LINE
  8
0
 10
68.9337
 20
6.12473
 11
69.0004
 21
6.29848
  0
LINE
  8
0
 10
69.0004
 20
6.29848
 11
69.0849
 21
6.46429
  0
LINE
  8
0
 10
69.0849
 20
6.46429
 11
69.1863
 21
6.62038
  0
LINE
  8
0
 10
69.1863
 20
6.62038
 11
69.3034
 21
6.765
  0
LINE
  8
0
 10
69.3034
 20
6.765
 11
69.435
 21
6.89661
  0
LINE
  8
0
 10
69.435
 20
6.89661
 11
69.5796
 21
7.01372
  0
LINE
  8
0
 10
69.5796
 20
7.01372
 11
69.7357
 21
7.11508
  0
LINE
  8
0
 10
69.7357
 20
7.11508
 11
69.9015
 21
7.19957
  0
LINE
  8
0
 10
69.9015
 20
7.19957
 11
70.0753
 21
7.26627
  0
LINE
  8
0
 10
70.0753
 20
7.26627
 11
70.255
 21
7.31444
  0
LINE
  8
0
 10
70.255
 20
7.31444
 11
70.4388
 21
7.34355
  0
LINE
  8
0
 10
70.4388
 20
7.34355
 11
70.6247
 21
7.35329
  0
LINE
  8
0
 10
70.6247
 20
7.35329
 11
70.8105
 21
7.34355
  0
LINE
  8
0
 10
70.8105
 20
7.34355
 11
70.9944
 21
7.31444
  0
LINE
  8
0
 10
70.9944
 20
7.31444
 11
71.1741
 21
7.26627
  0
LINE
  8
0
 10
71.1741
 20
7.26627
 11
71.3479
 21
7.19957
  0
LINE
  8
0
 10
71.3479
 20
7.19957
 11
71.5137
 21
7.11508
  0
LINE
  8
0
 10
71.5137
 20
7.11508
 11
71.6698
 21
7.01372
  0
LINE
  8
0
 10
71.6698
 20
7.01372
 11
71.8144
 21
6.89661
  0
LINE
  8
0
 10
71.8144
 20
6.89661
 11
71.946
 21
6.765
  0
LINE
  8
0
 10
71.946
 20
6.765
 11
72.0631
 21
6.62038
  0
LINE
  8
0
 10
72.0631
 20
6.62038
 11
72.1645
 21
6.46429
  0
LINE
  8
0
 10
72.1645
 20
6.46429
 11
72.249
 21
6.29848
  0
LINE
  8
0
 10
72.249
 20
6.29848
 11
72.3157
 21
6.12473
  0
LINE
  8
0
 10
72.3157
 20
6.12473
 11
72.3638
 21
5.94496
  0
LINE
  8
0
 10
72.3638
 20
5.94496
 11
72.393
 21
5.76114
  0
LINE
  8
0
 10
72.393
 20
5.76114
 11
72.4027
 21
5.57529
  0
LINE
  8
0
 10
72.4027
 20
5.57529
 11
72.393
 21
5.38943
  0
LINE
  8
0
 10
72.393
 20
5.38943
 11
72.3638
 21
5.20563
  0
LINE
  8
0
 10
72.3638
 20
5.20563
 11
72.3157
 21
5.02586
  0
LINE
  8
0
 10
72.3157
 20
5.02586
 11
72.249
 21
4.85211
  0
LINE
  8
0
 10
72.249
 20
4.85211
 11
72.1645
 21
4.68629
  0
LINE
  8
0
 10
72.1645
 20
4.68629
 11
72.0631
 21
4.53021
  0
LINE
  8
0
 10
72.0631
 20
4.53021
 11
71.946
 21
4.38557
  0
LINE
  8
0
 10
71.946
 20
4.38557
 11
71.8144
 21
4.25398
  0
LINE
  8
0
 10
71.8144
 20
4.25398
 11
71.6698
 21
4.13686
  0
LINE
  8
0
 10
71.6698
 20
4.13686
 11
71.5137
 21
4.03549
  0
LINE
  8
0
 10
71.5137
 20
4.03549
 11
71.3479
 21
3.951
  0
LINE
  8
0
 10
71.3479
 20
3.951
 11
71.1741
 21
3.88431
  0
LINE
  8
0
 10
71.1741
 20
3.88431
 11
70.9944
 21
3.83615
  0
LINE
  8
0
 10
70.9944
 20
3.83615
 11
70.8105
 21
3.80704
  0
LINE
  8
0
 10
70.8105
 20
3.80704
 11
70.6247
 21
3.79729
  0
LINE
  8
0
 10
70.6247
 20
3.79729
 11
70.4388
 21
3.80704
  0
LINE
  8
0
 10
233.989
 20
3.80704
 11
233.806
 21
3.83615
  0
LINE
  8
0
 10
233.806
 20
3.83615
 11
233.626
 21
3.88431
  0
LINE
  8
0
 10
233.626
 20
3.88431
 11
233.452
 21
3.951
  0
LINE
  8
0
 10
233.452
 20
3.951
 11
233.286
 21
4.03549
  0
LINE
  8
0
 10
233.286
 20
4.03549
 11
233.13
 21
4.13686
  0
LINE
  8
0
 10
233.13
 20
4.13686
 11
232.986
 21
4.25398
  0
LINE
  8
0
 10
232.986
 20
4.25398
 11
232.854
 21
4.38557
  0
LINE
  8
0
 10
232.854
 20
4.38557
 11
232.737
 21
4.53021
  0
LINE
  8
0
 10
232.737
 20
4.53021
 11
232.635
 21
4.68629
  0
LINE
  8
0
 10
232.635
 20
4.68629
 11
232.551
 21
4.85211
  0
LINE
  8
0
 10
232.551
 20
4.85211
 11
232.484
 21
5.02586
  0
LINE
  8
0
 10
232.484
 20
5.02586
 11
232.436
 21
5.20563
  0
LINE
  8
0
 10
232.436
 20
5.20563
 11
232.407
 21
5.38943
  0
LINE
  8
0
 10
232.407
 20
5.38943
 11
232.397
 21
5.57529
  0
LINE
  8
0
 10
232.397
 20
5.57529
 11
232.407
 21
5.76114
  0
LINE
  8
0
 10
232.407
 20
5.76114
 11
232.436
 21
5.94496
  0
LINE
  8
0
 10
232.436
 20
5.94496
 11
232.484
 21
6.12473
  0
LINE
  8
0
 10
232.484
 20
6.12473
 11
232.551
 21
6.29848
  0
LINE
  8
0
 10
232.551
 20
6.29848
 11
232.635
 21
6.46429
  0
LINE
  8
0
 10
232.635
 20
6.46429
 11
232.737
 21
6.62038
  0
LINE
  8
0
 10
232.737
 20
6.62038
 11
232.854
 21
6.765
  0
LINE
  8
0
 10
232.854
 20
6.765
 11
232.986
 21
6.89661
  0
LINE
  8
0
 10
232.986
 20
6.89661
 11
233.13
 21
7.01372
  0
LINE
  8
0
 10
233.13
 20
7.01372
 11
233.286
 21
7.11508
  0
LINE
  8
0
 10
233.286
 20
7.11508
 11
233.452
 21
7.19957
  0
LINE
  8
0
 10
233.452
 20
7.19957
 11
233.626
 21
7.26627
  0
LINE
  8
0
 10
233.626
 20
7.26627
 11
233.806
 21
7.31444
  0
LINE
  8
0
 10
233.806
 20
7.31444
 11
233.989
 21
7.34355
  0
LINE
  8
0
 10
233.989
 20
7.34355
 11
234.175
 21
7.35329
  0
LINE
  8
0
 10
234.175
 20
7.35329
 11
234.361
 21
7.34355
  0
LINE
  8
0
 10
234.361
 20
7.34355
 11
234.545
 21
7.31444
  0
LINE
  8
0
 10
234.545
 20
7.31444
 11
234.725
 21
7.26627
  0
LINE
  8
0
 10
234.725
 20
7.26627
 11
234.898
 21
7.19957
  0
LINE
  8
0
 10
234.898
 20
7.19957
 11
235.064
 21
7.11508
  0
LINE
  8
0
 10
235.064
 20
7.11508
 11
235.22
 21
7.01372
  0
LINE
  8
0
 10
235.22
 20
7.01372
 11
235.365
 21
6.89661
  0
LINE
  8
0
 10
235.365
 20
6.89661
 11
235.497
 21
6.765
  0
LINE
  8
0
 10
235.497
 20
6.765
 11
235.614
 21
6.62038
  0
LINE
  8
0
 10
235.614
 20
6.62038
 11
235.715
 21
6.46429
  0
LINE
  8
0
 10
235.715
 20
6.46429
 11
235.8
 21
6.29848
  0
LINE
  8
0
 10
235.8
 20
6.29848
 11
235.866
 21
6.12473
  0
LINE
  8
0
 10
235.866
 20
6.12473
 11
235.914
 21
5.94496
  0
LINE
  8
0
 10
235.914
 20
5.94496
 11
235.944
 21
5.76114
  0
LINE
  8
0
 10
235.944
 20
5.76114
 11
235.953
 21
5.57529
  0
LINE
  8
0
 10
235.953
 20
5.57529
 11
235.944
 21
5.38943
  0
LINE
  8
0
 10
235.944
 20
5.38943
 11
235.914
 21
5.20563
  0
LINE
  8
0
 10
235.914
 20
5.20563
 11
235.866
 21
5.02586
  0
LINE
  8
0
 10
235.866
 20
5.02586
 11
235.8
 21
4.85211
  0
LINE
  8
0
 10
235.8
 20
4.85211
 11
235.715
 21
4.68629
  0
LINE
  8
0
 10
235.715
 20
4.68629
 11
235.614
 21
4.53021
  0
LINE
  8
0
 10
235.614
 20
4.53021
 11
235.497
 21
4.38557
  0
LINE
  8
0
 10
235.497
 20
4.38557
 11
235.365
 21
4.25398
  0
LINE
  8
0
 10
235.365
 20
4.25398
 11
235.22
 21
4.13686
  0
LINE
  8
0
 10
235.22
 20
4.13686
 11
235.064
 21
4.03549
  0
LINE
  8
0
 10
235.064
 20
4.03549
 11
234.898
 21
3.951
  0
LINE
  8
0
 10
234.898
 20
3.951
 11
234.725
 21
3.88431
  0
LINE
  8
0
 10
234.725
 20
3.88431
 11
234.545
 21
3.83615
  0
LINE
  8
0
 10
234.545
 20
3.83615
 11
234.361
 21
3.80704
  0
LINE
  8
0
 10
234.361
 20
3.80704
 11
234.175
 21
3.79729
  0
LINE
  8
0
 10
234.175
 20
3.79729
 11
233.989
 21
3.80704
  0
LINE
  8
0
 10
260.939
 20
3.80704
 11
260.755
 21
3.83615
  0
LINE
  8
0
 10
260.755
 20
3.83615
 11
260.575
 21
3.88431
  0
LINE
  8
0
 10
260.575
 20
3.88431
 11
260.402
 21
3.951
  0
LINE
  8
0
 10
260.402
 20
3.951
 11
260.236
 21
4.03549
  0
LINE
  8
0
 10
260.236
 20
4.03549
 11
260.08
 21
4.13686
  0
LINE
  8
0
 10
260.08
 20
4.13686
 11
259.935
 21
4.25398
  0
LINE
  8
0
 10
259.935
 20
4.25398
 11
259.803
 21
4.38557
  0
LINE
  8
0
 10
259.803
 20
4.38557
 11
259.686
 21
4.53021
  0
LINE
  8
0
 10
259.686
 20
4.53021
 11
259.585
 21
4.68629
  0
LINE
  8
0
 10
259.585
 20
4.68629
 11
259.5
 21
4.85211
  0
LINE
  8
0
 10
259.5
 20
4.85211
 11
259.434
 21
5.02586
  0
LINE
  8
0
 10
259.434
 20
5.02586
 11
259.386
 21
5.20563
  0
LINE
  8
0
 10
259.386
 20
5.20563
 11
259.356
 21
5.38943
  0
LINE
  8
0
 10
259.356
 20
5.38943
 11
259.347
 21
5.57529
  0
LINE
  8
0
 10
259.347
 20
5.57529
 11
259.356
 21
5.76114
  0
LINE
  8
0
 10
259.356
 20
5.76114
 11
259.386
 21
5.94496
  0
LINE
  8
0
 10
259.386
 20
5.94496
 11
259.434
 21
6.12473
  0
LINE
  8
0
 10
259.434
 20
6.12473
 11
259.5
 21
6.29848
  0
LINE
  8
0
 10
259.5
 20
6.29848
 11
259.585
 21
6.46429
  0
LINE
  8
0
 10
259.585
 20
6.46429
 11
259.686
 21
6.62038
  0
LINE
  8
0
 10
259.686
 20
6.62038
 11
259.803
 21
6.765
  0
LINE
  8
0
 10
259.803
 20
6.765
 11
259.935
 21
6.89661
  0
LINE
  8
0
 10
259.935
 20
6.89661
 11
260.08
 21
7.01372
  0
LINE
  8
0
 10
260.08
 20
7.01372
 11
260.236
 21
7.11508
  0
LINE
  8
0
 10
260.236
 20
7.11508
 11
260.402
 21
7.19957
  0
LINE
  8
0
 10
260.402
 20
7.19957
 11
260.575
 21
7.26627
  0
LINE
  8
0
 10
260.575
 20
7.26627
 11
260.755
 21
7.31444
  0
LINE
  8
0
 10
260.755
 20
7.31444
 11
260.939
 21
7.34355
  0
LINE
  8
0
 10
260.939
 20
7.34355
 11
261.125
 21
7.35329
  0
LINE
  8
0
 10
261.125
 20
7.35329
 11
261.311
 21
7.34355
  0
LINE
  8
0
 10
261.311
 20
7.34355
 11
261.494
 21
7.31444
  0
LINE
  8
0
 10
261.494
 20
7.31444
 11
261.674
 21
7.26627
  0
LINE
  8
0
 10
261.674
 20
7.26627
 11
261.848
 21
7.19957
  0
LINE
  8
0
 10
261.848
 20
7.19957
 11
262.014
 21
7.11508
  0
LINE
  8
0
 10
262.014
 20
7.11508
 11
262.17
 21
7.01372
  0
LINE
  8
0
 10
262.17
 20
7.01372
 11
262.314
 21
6.89661
  0
LINE
  8
0
 10
262.314
 20
6.89661
 11
262.446
 21
6.765
  0
LINE
  8
0
 10
262.446
 20
6.765
 11
262.563
 21
6.62038
  0
LINE
  8
0
 10
262.563
 20
6.62038
 11
262.664
 21
6.46429
  0
LINE
  8
0
 10
262.664
 20
6.46429
 11
262.749
 21
6.29848
  0
LINE
  8
0
 10
262.749
 20
6.29848
 11
262.816
 21
6.12473
  0
LINE
  8
0
 10
262.816
 20
6.12473
 11
262.864
 21
5.94496
  0
LINE
  8
0
 10
262.864
 20
5.94496
 11
262.893
 21
5.76114
  0
LINE
  8
0
 10
262.893
 20
5.76114
 11
262.903
 21
5.57529
  0
LINE
  8
0
 10
262.903
 20
5.57529
 11
262.893
 21
5.38943
  0
LINE
  8
0
 10
262.893
 20
5.38943
 11
262.864
 21
5.20563
  0
LINE
  8
0
 10
262.864
 20
5.20563
 11
262.816
 21
5.02586
  0
LINE
  8
0
 10
262.816
 20
5.02586
 11
262.749
 21
4.85211
  0
LINE
  8
0
 10
262.749
 20
4.85211
 11
262.664
 21
4.68629
  0
LINE
  8
0
 10
262.664
 20
4.68629
 11
262.563
 21
4.53021
  0
LINE
  8
0
 10
262.563
 20
4.53021
 11
262.446
 21
4.38557
  0
LINE
  8
0
 10
262.446
 20
4.38557
 11
262.314
 21
4.25398
  0
LINE
  8
0
 10
262.314
 20
4.25398
 11
262.17
 21
4.13686
  0
LINE
  8
0
 10
262.17
 20
4.13686
 11
262.014
 21
4.03549
  0
LINE
  8
0
 10
262.014
 20
4.03549
 11
261.848
 21
3.951
  0
LINE
  8
0
 10
261.848
 20
3.951
 11
261.674
 21
3.88431
  0
LINE
  8
0
 10
261.674
 20
3.88431
 11
261.494
 21
3.83615
  0
LINE
  8
0
 10
261.494
 20
3.83615
 11
261.311
 21
3.80704
  0
LINE
  8
0
 10
261.311
 20
3.80704
 11
261.125
 21
3.79729
  0
LINE
  8
0
 10
261.125
 20
3.79729
 11
260.939
 21
3.80704
  0
LINE
  8
0
 10
138.739
 20
3.80704
 11
138.556
 21
3.83615
  0
LINE
  8
0
 10
138.556
 20
3.83615
 11
138.376
 21
3.88431
  0
LINE
  8
0
 10
138.376
 20
3.88431
 11
138.202
 21
3.951
  0
LINE
  8
0
 10
138.202
 20
3.951
 11
138.036
 21
4.03549
  0
LINE
  8
0
 10
138.036
 20
4.03549
 11
137.88
 21
4.13686
  0
LINE
  8
0
 10
137.88
 20
4.13686
 11
137.736
 21
4.25398
  0
LINE
  8
0
 10
137.736
 20
4.25398
 11
137.604
 21
4.38557
  0
LINE
  8
0
 10
137.604
 20
4.38557
 11
137.487
 21
4.53021
  0
LINE
  8
0
 10
137.487
 20
4.53021
 11
137.385
 21
4.68629
  0
LINE
  8
0
 10
137.385
 20
4.68629
 11
137.301
 21
4.85211
  0
LINE
  8
0
 10
137.301
 20
4.85211
 11
137.234
 21
5.02586
  0
LINE
  8
0
 10
137.234
 20
5.02586
 11
137.186
 21
5.20563
  0
LINE
  8
0
 10
137.186
 20
5.20563
 11
137.157
 21
5.38943
  0
LINE
  8
0
 10
137.157
 20
5.38943
 11
137.147
 21
5.57529
  0
LINE
  8
0
 10
137.147
 20
5.57529
 11
137.157
 21
5.76114
  0
LINE
  8
0
 10
137.157
 20
5.76114
 11
137.186
 21
5.94496
  0
LINE
  8
0
 10
137.186
 20
5.94496
 11
137.234
 21
6.12473
  0
LINE
  8
0
 10
137.234
 20
6.12473
 11
137.301
 21
6.29848
  0
LINE
  8
0
 10
137.301
 20
6.29848
 11
137.385
 21
6.46429
  0
LINE
  8
0
 10
137.385
 20
6.46429
 11
137.487
 21
6.62038
  0
LINE
  8
0
 10
137.487
 20
6.62038
 11
137.604
 21
6.765
  0
LINE
  8
0
 10
137.604
 20
6.765
 11
137.736
 21
6.89661
  0
LINE
  8
0
 10
137.736
 20
6.89661
 11
137.88
 21
7.01372
  0
LINE
  8
0
 10
137.88
 20
7.01372
 11
138.036
 21
7.11508
  0
LINE
  8
0
 10
138.036
 20
7.11508
 11
138.202
 21
7.19957
  0
LINE
  8
0
 10
138.202
 20
7.19957
 11
138.376
 21
7.26627
  0
LINE
  8
0
 10
138.376
 20
7.26627
 11
138.556
 21
7.31444
  0
LINE
  8
0
 10
138.556
 20
7.31444
 11
138.739
 21
7.34355
  0
LINE
  8
0
 10
138.739
 20
7.34355
 11
138.925
 21
7.35329
  0
LINE
  8
0
 10
138.925
 20
7.35329
 11
139.111
 21
7.34355
  0
LINE
  8
0
 10
139.111
 20
7.34355
 11
139.295
 21
7.31444
  0
LINE
  8
0
 10
139.295
 20
7.31444
 11
139.475
 21
7.26627
  0
LINE
  8
0
 10
139.475
 20
7.26627
 11
139.648
 21
7.19957
  0
LINE
  8
0
 10
139.648
 20
7.19957
 11
139.814
 21
7.11508
  0
LINE
  8
0
 10
139.814
 20
7.11508
 11
139.97
 21
7.01372
  0
LINE
  8
0
 10
139.97
 20
7.01372
 11
140.115
 21
6.89661
  0
LINE
  8
0
 10
140.115
 20
6.89661
 11
140.247
 21
6.765
  0
LINE
  8
0
 10
140.247
 20
6.765
 11
140.364
 21
6.62038
  0
LINE
  8
0
 10
140.364
 20
6.62038
 11
140.465
 21
6.46429
  0
LINE
  8
0
 10
140.465
 20
6.46429
 11
140.55
 21
6.29848
  0
LINE
  8
0
 10
140.55
 20
6.29848
 11
140.616
 21
6.12473
  0
LINE
  8
0
 10
140.616
 20
6.12473
 11
140.664
 21
5.94496
  0
LINE
  8
0
 10
140.664
 20
5.94496
 11
140.694
 21
5.76114
  0
LINE
  8
0
 10
140.694
 20
5.76114
 11
140.703
 21
5.57529
  0
LINE
  8
0
 10
140.703
 20
5.57529
 11
140.694
 21
5.38943
  0
LINE
  8
0
 10
140.694
 20
5.38943
 11
140.664
 21
5.20563
  0
LINE
  8
0
 10
140.664
 20
5.20563
 11
140.616
 21
5.02586
  0
LINE
  8
0
 10
140.616
 20
5.02586
 11
140.55
 21
4.85211
  0
LINE
  8
0
 10
140.55
 20
4.85211
 11
140.465
 21
4.68629
  0
LINE
  8
0
 10
140.465
 20
4.68629
 11
140.364
 21
4.53021
  0
LINE
  8
0
 10
140.364
 20
4.53021
 11
140.247
 21
4.38557
  0
LINE
  8
0
 10
140.247
 20
4.38557
 11
140.115
 21
4.25398
  0
LINE
  8
0
 10
140.115
 20
4.25398
 11
139.97
 21
4.13686
  0
LINE
  8
0
 10
139.97
 20
4.13686
 11
139.814
 21
4.03549
  0
LINE
  8
0
 10
139.814
 20
4.03549
 11
139.648
 21
3.951
  0
LINE
  8
0
 10
139.648
 20
3.951
 11
139.475
 21
3.88431
  0
LINE
  8
0
 10
139.475
 20
3.88431
 11
139.295
 21
3.83615
  0
LINE
  8
0
 10
139.295
 20
3.83615
 11
139.111
 21
3.80704
  0
LINE
  8
0
 10
139.111
 20
3.80704
 11
138.925
 21
3.79729
  0
LINE
  8
0
 10
138.925
 20
3.79729
 11
138.739
 21
3.80704
  0
LINE
  8
0
 10
165.689
 20
3.80704
 11
165.505
 21
3.83615
  0
LINE
  8
0
 10
165.505
 20
3.83615
 11
165.325
 21
3.88431
  0
LINE
  8
0
 10
165.325
 20
3.88431
 11
165.152
 21
3.951
  0
LINE
  8
0
 10
165.152
 20
3.951
 11
164.986
 21
4.03549
  0
LINE
  8
0
 10
164.986
 20
4.03549
 11
164.83
 21
4.13686
  0
LINE
  8
0
 10
164.83
 20
4.13686
 11
164.685
 21
4.25398
  0
LINE
  8
0
 10
164.685
 20
4.25398
 11
164.553
 21
4.38557
  0
LINE
  8
0
 10
164.553
 20
4.38557
 11
164.436
 21
4.53021
  0
LINE
  8
0
 10
164.436
 20
4.53021
 11
164.335
 21
4.68629
  0
LINE
  8
0
 10
164.335
 20
4.68629
 11
164.25
 21
4.85211
  0
LINE
  8
0
 10
164.25
 20
4.85211
 11
164.184
 21
5.02586
  0
LINE
  8
0
 10
164.184
 20
5.02586
 11
164.136
 21
5.20563
  0
LINE
  8
0
 10
164.136
 20
5.20563
 11
164.106
 21
5.38943
  0
LINE
  8
0
 10
164.106
 20
5.38943
 11
164.097
 21
5.57529
  0
LINE
  8
0
 10
164.097
 20
5.57529
 11
164.106
 21
5.76114
  0
LINE
  8
0
 10
164.106
 20
5.76114
 11
164.136
 21
5.94496
  0
LINE
  8
0
 10
164.136
 20
5.94496
 11
164.184
 21
6.12473
  0
LINE
  8
0
 10
164.184
 20
6.12473
 11
164.25
 21
6.29848
  0
LINE
  8
0
 10
164.25
 20
6.29848
 11
164.335
 21
6.46429
  0
LINE
  8
0
 10
164.335
 20
6.46429
 11
164.436
 21
6.62038
  0
LINE
  8
0
 10
164.436
 20
6.62038
 11
164.553
 21
6.765
  0
LINE
  8
0
 10
164.553
 20
6.765
 11
164.685
 21
6.89661
  0
LINE
  8
0
 10
164.685
 20
6.89661
 11
164.83
 21
7.01372
  0
LINE
  8
0
 10
164.83
 20
7.01372
 11
164.986
 21
7.11508
  0
LINE
  8
0
 10
164.986
 20
7.11508
 11
165.152
 21
7.19957
  0
LINE
  8
0
 10
165.152
 20
7.19957
 11
165.325
 21
7.26627
  0
LINE
  8
0
 10
165.325
 20
7.26627
 11
165.505
 21
7.31444
  0
LINE
  8
0
 10
165.505
 20
7.31444
 11
165.689
 21
7.34355
  0
LINE
  8
0
 10
165.689
 20
7.34355
 11
165.875
 21
7.35329
  0
LINE
  8
0
 10
165.875
 20
7.35329
 11
166.061
 21
7.34355
  0
LINE
  8
0
 10
166.061
 20
7.34355
 11
166.244
 21
7.31444
  0
LINE
  8
0
 10
166.244
 20
7.31444
 11
166.424
 21
7.26627
  0
LINE
  8
0
 10
166.424
 20
7.26627
 11
166.598
 21
7.19957
  0
LINE
  8
0
 10
166.598
 20
7.19957
 11
166.764
 21
7.11508
  0
LINE
  8
0
 10
166.764
 20
7.11508
 11
166.92
 21
7.01372
  0
LINE
  8
0
 10
166.92
 20
7.01372
 11
167.064
 21
6.89661
  0
LINE
  8
0
 10
167.064
 20
6.89661
 11
167.196
 21
6.765
  0
LINE
  8
0
 10
167.196
 20
6.765
 11
167.313
 21
6.62038
  0
LINE
  8
0
 10
167.313
 20
6.62038
 11
167.414
 21
6.46429
  0
LINE
  8
0
 10
167.414
 20
6.46429
 11
167.499
 21
6.29848
  0
LINE
  8
0
 10
167.499
 20
6.29848
 11
167.566
 21
6.12473
  0
LINE
  8
0
 10
167.566
 20
6.12473
 11
167.614
 21
5.94496
  0
LINE
  8
0
 10
167.614
 20
5.94496
 11
167.643
 21
5.76114
  0
LINE
  8
0
 10
167.643
 20
5.76114
 11
167.653
 21
5.57529
  0
LINE
  8
0
 10
167.653
 20
5.57529
 11
167.643
 21
5.38943
  0
LINE
  8
0
 10
167.643
 20
5.38943
 11
167.614
 21
5.20563
  0
LINE
  8
0
 10
167.614
 20
5.20563
 11
167.566
 21
5.02586
  0
LINE
  8
0
 10
167.566
 20
5.02586
 11
167.499
 21
4.85211
  0
LINE
  8
0
 10
167.499
 20
4.85211
 11
167.414
 21
4.68629
  0
LINE
  8
0
 10
167.414
 20
4.68629
 11
167.313
 21
4.53021
  0
LINE
  8
0
 10
167.313
 20
4.53021
 11
167.196
 21
4.38557
  0
LINE
  8
0
 10
167.196
 20
4.38557
 11
167.064
 21
4.25398
  0
LINE
  8
0
 10
167.064
 20
4.25398
 11
166.92
 21
4.13686
  0
LINE
  8
0
 10
166.92
 20
4.13686
 11
166.764
 21
4.03549
  0
LINE
  8
0
 10
166.764
 20
4.03549
 11
166.598
 21
3.951
  0
LINE
  8
0
 10
166.598
 20
3.951
 11
166.424
 21
3.88431
  0
LINE
  8
0
 10
166.424
 20
3.88431
 11
166.244
 21
3.83615
  0
LINE
  8
0
 10
166.244
 20
3.83615
 11
166.061
 21
3.80704
  0
LINE
  8
0
 10
166.061
 20
3.80704
 11
165.875
 21
3.79729
  0
LINE
  8
0
 10
165.875
 20
3.79729
 11
165.689
 21
3.80704
  0
ENDSEC
  0
SECTION
  2
OBJECTS
  0
DICTIONARY
  0
ENDSEC
  0
EOF
