  0
SECTION
  2
BLOCKS
  0
ENDSEC
  0
SECTION
  2
ENTITIES
  0
LINE
  8
0
 10
304.8
 20
228.6
 11
0
 21
228.6
  0
LINE
  8
0
 10
0
 20
228.6
 11
0
 21
0
  0
LINE
  8
0
 10
0
 20
0
 11
304.8
 21
0
  0
LINE
  8
0
 10
304.8
 20
0
 11
304.8
 21
228.6
  0
LINE
  8
0
 10
138.739
 20
221.256
 11
138.556
 21
221.286
  0
LINE
  8
0
 10
138.556
 20
221.286
 11
138.376
 21
221.334
  0
LINE
  8
0
 10
138.376
 20
221.334
 11
138.202
 21
221.4
  0
LINE
  8
0
 10
138.202
 20
221.4
 11
138.036
 21
221.485
  0
LINE
  8
0
 10
138.036
 20
221.485
 11
137.88
 21
221.586
  0
LINE
  8
0
 10
137.88
 20
221.586
 11
137.736
 21
221.703
  0
LINE
  8
0
 10
137.736
 20
221.703
 11
137.604
 21
221.835
  0
LINE
  8
0
 10
137.604
 20
221.835
 11
137.487
 21
221.98
  0
LINE
  8
0
 10
137.487
 20
221.98
 11
137.385
 21
222.136
  0
LINE
  8
0
 10
137.385
 20
222.136
 11
137.301
 21
222.302
  0
LINE
  8
0
 10
137.301
 20
222.302
 11
137.234
 21
222.475
  0
LINE
  8
0
 10
137.234
 20
222.475
 11
137.186
 21
222.655
  0
LINE
  8
0
 10
137.186
 20
222.655
 11
137.157
 21
222.839
  0
LINE
  8
0
 10
137.157
 20
222.839
 11
137.147
 21
223.025
  0
LINE
  8
0
 10
137.147
 20
223.025
 11
137.157
 21
223.211
  0
LINE
  8
0
 10
137.157
 20
223.211
 11
137.186
 21
223.394
  0
LINE
  8
0
 10
137.186
 20
223.394
 11
137.234
 21
223.574
  0
LINE
  8
0
 10
137.234
 20
223.574
 11
137.301
 21
223.748
  0
LINE
  8
0
 10
137.301
 20
223.748
 11
137.385
 21
223.914
  0
LINE
  8
0
 10
137.385
 20
223.914
 11
137.487
 21
224.07
  0
LINE
  8
0
 10
137.487
 20
224.07
 11
137.604
 21
224.214
  0
LINE
  8
0
 10
137.604
 20
224.214
 11
137.736
 21
224.346
  0
LINE
  8
0
 10
137.736
 20
224.346
 11
137.88
 21
224.463
  0
LINE
  8
0
 10
137.88
 20
224.463
 11
138.036
 21
224.564
  0
LINE
  8
0
 10
138.036
 20
224.564
 11
138.202
 21
224.649
  0
LINE
  8
0
 10
138.202
 20
224.649
 11
138.376
 21
224.716
  0
LINE
  8
0
 10
138.376
 20
224.716
 11
138.556
 21
224.764
  0
LINE
  8
0
 10
138.556
 20
224.764
 11
138.739
 21
224.793
  0
LINE
  8
0
 10
138.739
 20
224.793
 11
138.925
 21
224.803
  0
LINE
  8
0
 10
138.925
 20
224.803
 11
139.111
 21
224.793
  0
LINE
  8
0
 10
139.111
 20
224.793
 11
139.295
 21
224.764
  0
LINE
  8
0
 10
139.295
 20
224.764
 11
139.475
 21
224.716
  0
LINE
  8
0
 10
139.475
 20
224.716
 11
139.648
 21
224.649
  0
LINE
  8
0
 10
139.648
 20
224.649
 11
139.814
 21
224.564
  0
LINE
  8
0
 10
139.814
 20
224.564
 11
139.97
 21
224.463
  0
LINE
  8
0
 10
139.97
 20
224.463
 11
140.115
 21
224.346
  0
LINE
  8
0
 10
140.115
 20
224.346
 11
140.247
 21
224.214
  0
LINE
  8
0
 10
140.247
 20
224.214
 11
140.364
 21
224.07
  0
LINE
  8
0
 10
140.364
 20
224.07
 11
140.465
 21
223.914
  0
LINE
  8
0
 10
140.465
 20
223.914
 11
140.55
 21
223.748
  0
LINE
  8
0
 10
140.55
 20
223.748
 11
140.616
 21
223.574
  0
LINE
  8
0
 10
140.616
 20
223.574
 11
140.664
 21
223.394
  0
LINE
  8
0
 10
140.664
 20
223.394
 11
140.694
 21
223.211
  0
LINE
  8
0
 10
140.694
 20
223.211
 11
140.703
 21
223.025
  0
LINE
  8
0
 10
140.703
 20
223.025
 11
140.694
 21
222.839
  0
LINE
  8
0
 10
140.694
 20
222.839
 11
140.664
 21
222.655
  0
LINE
  8
0
 10
140.664
 20
222.655
 11
140.616
 21
222.475
  0
LINE
  8
0
 10
140.616
 20
222.475
 11
140.55
 21
222.302
  0
LINE
  8
0
 10
140.55
 20
222.302
 11
140.465
 21
222.136
  0
LINE
  8
0
 10
140.465
 20
222.136
 11
140.364
 21
221.98
  0
LINE
  8
0
 10
140.364
 20
221.98
 11
140.247
 21
221.835
  0
LINE
  8
0
 10
140.247
 20
221.835
 11
140.115
 21
221.703
  0
LINE
  8
0
 10
140.115
 20
221.703
 11
139.97
 21
221.586
  0
LINE
  8
0
 10
139.97
 20
221.586
 11
139.814
 21
221.485
  0
LINE
  8
0
 10
139.814
 20
221.485
 11
139.648
 21
221.4
  0
LINE
  8
0
 10
139.648
 20
221.4
 11
139.475
 21
221.334
  0
LINE
  8
0
 10
139.475
 20
221.334
 11
139.295
 21
221.286
  0
LINE
  8
0
 10
139.295
 20
221.286
 11
139.111
 21
221.256
  0
LINE
  8
0
 10
139.111
 20
221.256
 11
138.925
 21
221.247
  0
LINE
  8
0
 10
138.925
 20
221.247
 11
138.739
 21
221.256
  0
LINE
  8
0
 10
165.689
 20
221.256
 11
165.505
 21
221.286
  0
LINE
  8
0
 10
165.505
 20
221.286
 11
165.325
 21
221.334
  0
LINE
  8
0
 10
165.325
 20
221.334
 11
165.152
 21
221.4
  0
LINE
  8
0
 10
165.152
 20
221.4
 11
164.986
 21
221.485
  0
LINE
  8
0
 10
164.986
 20
221.485
 11
164.83
 21
221.586
  0
LINE
  8
0
 10
164.83
 20
221.586
 11
164.685
 21
221.703
  0
LINE
  8
0
 10
164.685
 20
221.703
 11
164.553
 21
221.835
  0
LINE
  8
0
 10
164.553
 20
221.835
 11
164.436
 21
221.98
  0
LINE
  8
0
 10
164.436
 20
221.98
 11
164.335
 21
222.136
  0
LINE
  8
0
 10
164.335
 20
222.136
 11
164.25
 21
222.302
  0
LINE
  8
0
 10
164.25
 20
222.302
 11
164.184
 21
222.475
  0
LINE
  8
0
 10
164.184
 20
222.475
 11
164.136
 21
222.655
  0
LINE
  8
0
 10
164.136
 20
222.655
 11
164.106
 21
222.839
  0
LINE
  8
0
 10
164.106
 20
222.839
 11
164.097
 21
223.025
  0
LINE
  8
0
 10
164.097
 20
223.025
 11
164.106
 21
223.211
  0
LINE
  8
0
 10
164.106
 20
223.211
 11
164.136
 21
223.394
  0
LINE
  8
0
 10
164.136
 20
223.394
 11
164.184
 21
223.574
  0
LINE
  8
0
 10
164.184
 20
223.574
 11
164.25
 21
223.748
  0
LINE
  8
0
 10
164.25
 20
223.748
 11
164.335
 21
223.914
  0
LINE
  8
0
 10
164.335
 20
223.914
 11
164.436
 21
224.07
  0
LINE
  8
0
 10
164.436
 20
224.07
 11
164.553
 21
224.214
  0
LINE
  8
0
 10
164.553
 20
224.214
 11
164.685
 21
224.346
  0
LINE
  8
0
 10
164.685
 20
224.346
 11
164.83
 21
224.463
  0
LINE
  8
0
 10
164.83
 20
224.463
 11
164.986
 21
224.564
  0
LINE
  8
0
 10
164.986
 20
224.564
 11
165.152
 21
224.649
  0
LINE
  8
0
 10
165.152
 20
224.649
 11
165.325
 21
224.716
  0
LINE
  8
0
 10
165.325
 20
224.716
 11
165.505
 21
224.764
  0
LINE
  8
0
 10
165.505
 20
224.764
 11
165.689
 21
224.793
  0
LINE
  8
0
 10
165.689
 20
224.793
 11
165.875
 21
224.803
  0
LINE
  8
0
 10
165.875
 20
224.803
 11
166.061
 21
224.793
  0
LINE
  8
0
 10
166.061
 20
224.793
 11
166.244
 21
224.764
  0
LINE
  8
0
 10
166.244
 20
224.764
 11
166.424
 21
224.716
  0
LINE
  8
0
 10
166.424
 20
224.716
 11
166.598
 21
224.649
  0
LINE
  8
0
 10
166.598
 20
224.649
 11
166.764
 21
224.564
  0
LINE
  8
0
 10
166.764
 20
224.564
 11
166.92
 21
224.463
  0
LINE
  8
0
 10
166.92
 20
224.463
 11
167.064
 21
224.346
  0
LINE
  8
0
 10
167.064
 20
224.346
 11
167.196
 21
224.214
  0
LINE
  8
0
 10
167.196
 20
224.214
 11
167.313
 21
224.07
  0
LINE
  8
0
 10
167.313
 20
224.07
 11
167.414
 21
223.914
  0
LINE
  8
0
 10
167.414
 20
223.914
 11
167.499
 21
223.748
  0
LINE
  8
0
 10
167.499
 20
223.748
 11
167.566
 21
223.574
  0
LINE
  8
0
 10
167.566
 20
223.574
 11
167.614
 21
223.394
  0
LINE
  8
0
 10
167.614
 20
223.394
 11
167.643
 21
223.211
  0
LINE
  8
0
 10
167.643
 20
223.211
 11
167.653
 21
223.025
  0
LINE
  8
0
 10
167.653
 20
223.025
 11
167.643
 21
222.839
  0
LINE
  8
0
 10
167.643
 20
222.839
 11
167.614
 21
222.655
  0
LINE
  8
0
 10
167.614
 20
222.655
 11
167.566
 21
222.475
  0
LINE
  8
0
 10
167.566
 20
222.475
 11
167.499
 21
222.302
  0
LINE
  8
0
 10
167.499
 20
222.302
 11
167.414
 21
222.136
  0
LINE
  8
0
 10
167.414
 20
222.136
 11
167.313
 21
221.98
  0
LINE
  8
0
 10
167.313
 20
221.98
 11
167.196
 21
221.835
  0
LINE
  8
0
 10
167.196
 20
221.835
 11
167.064
 21
221.703
  0
LINE
  8
0
 10
167.064
 20
221.703
 11
166.92
 21
221.586
  0
LINE
  8
0
 10
166.92
 20
221.586
 11
166.764
 21
221.485
  0
LINE
  8
0
 10
166.764
 20
221.485
 11
166.598
 21
221.4
  0
LINE
  8
0
 10
166.598
 20
221.4
 11
166.424
 21
221.334
  0
LINE
  8
0
 10
166.424
 20
221.334
 11
166.244
 21
221.286
  0
LINE
  8
0
 10
166.244
 20
221.286
 11
166.061
 21
221.256
  0
LINE
  8
0
 10
166.061
 20
221.256
 11
165.875
 21
221.247
  0
LINE
  8
0
 10
165.875
 20
221.247
 11
165.689
 21
221.256
  0
LINE
  8
0
 10
43.4894
 20
221.256
 11
43.3056
 21
221.286
  0
LINE
  8
0
 10
43.3056
 20
221.286
 11
43.1259
 21
221.334
  0
LINE
  8
0
 10
43.1259
 20
221.334
 11
42.9521
 21
221.4
  0
LINE
  8
0
 10
42.9521
 20
221.4
 11
42.7863
 21
221.485
  0
LINE
  8
0
 10
42.7863
 20
221.485
 11
42.6302
 21
221.586
  0
LINE
  8
0
 10
42.6302
 20
221.586
 11
42.4856
 21
221.703
  0
LINE
  8
0
 10
42.4856
 20
221.703
 11
42.354
 21
221.835
  0
LINE
  8
0
 10
42.354
 20
221.835
 11
42.2369
 21
221.98
  0
LINE
  8
0
 10
42.2369
 20
221.98
 11
42.1355
 21
222.136
  0
LINE
  8
0
 10
42.1355
 20
222.136
 11
42.051
 21
222.302
  0
LINE
  8
0
 10
42.051
 20
222.302
 11
41.9843
 21
222.475
  0
LINE
  8
0
 10
41.9843
 20
222.475
 11
41.9361
 21
222.655
  0
LINE
  8
0
 10
41.9361
 20
222.655
 11
41.907
 21
222.839
  0
LINE
  8
0
 10
41.907
 20
222.839
 11
41.8973
 21
223.025
  0
LINE
  8
0
 10
41.8973
 20
223.025
 11
41.907
 21
223.211
  0
LINE
  8
0
 10
41.907
 20
223.211
 11
41.9361
 21
223.394
  0
LINE
  8
0
 10
41.9361
 20
223.394
 11
41.9843
 21
223.574
  0
LINE
  8
0
 10
41.9843
 20
223.574
 11
42.051
 21
223.748
  0
LINE
  8
0
 10
42.051
 20
223.748
 11
42.1355
 21
223.914
  0
LINE
  8
0
 10
42.1355
 20
223.914
 11
42.2369
 21
224.07
  0
LINE
  8
0
 10
42.2369
 20
224.07
 11
42.354
 21
224.214
  0
LINE
  8
0
 10
42.354
 20
224.214
 11
42.4856
 21
224.346
  0
LINE
  8
0
 10
42.4856
 20
224.346
 11
42.6302
 21
224.463
  0
LINE
  8
0
 10
42.6302
 20
224.463
 11
42.7863
 21
224.564
  0
LINE
  8
0
 10
42.7863
 20
224.564
 11
42.9521
 21
224.649
  0
LINE
  8
0
 10
42.9521
 20
224.649
 11
43.1259
 21
224.716
  0
LINE
  8
0
 10
43.1259
 20
224.716
 11
43.3056
 21
224.764
  0
LINE
  8
0
 10
43.3056
 20
224.764
 11
43.4894
 21
224.793
  0
LINE
  8
0
 10
43.4894
 20
224.793
 11
43.6753
 21
224.803
  0
LINE
  8
0
 10
43.6753
 20
224.803
 11
43.8611
 21
224.793
  0
LINE
  8
0
 10
43.8611
 20
224.793
 11
44.045
 21
224.764
  0
LINE
  8
0
 10
44.045
 20
224.764
 11
44.2247
 21
224.716
  0
LINE
  8
0
 10
44.2247
 20
224.716
 11
44.3985
 21
224.649
  0
LINE
  8
0
 10
44.3985
 20
224.649
 11
44.5643
 21
224.564
  0
LINE
  8
0
 10
44.5643
 20
224.564
 11
44.7204
 21
224.463
  0
LINE
  8
0
 10
44.7204
 20
224.463
 11
44.865
 21
224.346
  0
LINE
  8
0
 10
44.865
 20
224.346
 11
44.9966
 21
224.214
  0
LINE
  8
0
 10
44.9966
 20
224.214
 11
45.1137
 21
224.07
  0
LINE
  8
0
 10
45.1137
 20
224.07
 11
45.2151
 21
223.914
  0
LINE
  8
0
 10
45.2151
 20
223.914
 11
45.2996
 21
223.748
  0
LINE
  8
0
 10
45.2996
 20
223.748
 11
45.3663
 21
223.574
  0
LINE
  8
0
 10
45.3663
 20
223.574
 11
45.4144
 21
223.394
  0
LINE
  8
0
 10
45.4144
 20
223.394
 11
45.4436
 21
223.211
  0
LINE
  8
0
 10
45.4436
 20
223.211
 11
45.4533
 21
223.025
  0
LINE
  8
0
 10
45.4533
 20
223.025
 11
45.4436
 21
222.839
  0
LINE
  8
0
 10
45.4436
 20
222.839
 11
45.4144
 21
222.655
  0
LINE
  8
0
 10
45.4144
 20
222.655
 11
45.3663
 21
222.475
  0
LINE
  8
0
 10
45.3663
 20
222.475
 11
45.2996
 21
222.302
  0
LINE
  8
0
 10
45.2996
 20
222.302
 11
45.2151
 21
222.136
  0
LINE
  8
0
 10
45.2151
 20
222.136
 11
45.1137
 21
221.98
  0
LINE
  8
0
 10
45.1137
 20
221.98
 11
44.9966
 21
221.835
  0
LINE
  8
0
 10
44.9966
 20
221.835
 11
44.865
 21
221.703
  0
LINE
  8
0
 10
44.865
 20
221.703
 11
44.7204
 21
221.586
  0
LINE
  8
0
 10
44.7204
 20
221.586
 11
44.5643
 21
221.485
  0
LINE
  8
0
 10
44.5643
 20
221.485
 11
44.3985
 21
221.4
  0
LINE
  8
0
 10
44.3985
 20
221.4
 11
44.2247
 21
221.334
  0
LINE
  8
0
 10
44.2247
 20
221.334
 11
44.045
 21
221.286
  0
LINE
  8
0
 10
44.045
 20
221.286
 11
43.8611
 21
221.256
  0
LINE
  8
0
 10
43.8611
 20
221.256
 11
43.6753
 21
221.247
  0
LINE
  8
0
 10
43.6753
 20
221.247
 11
43.4894
 21
221.256
  0
LINE
  8
0
 10
70.4388
 20
221.256
 11
70.255
 21
221.286
  0
LINE
  8
0
 10
70.255
 20
221.286
 11
70.0753
 21
221.334
  0
LINE
  8
0
 10
70.0753
 20
221.334
 11
69.9015
 21
221.4
  0
LINE
  8
0
 10
69.9015
 20
221.4
 11
69.7357
 21
221.485
  0
LINE
  8
0
 10
69.7357
 20
221.485
 11
69.5796
 21
221.586
  0
LINE
  8
0
 10
69.5796
 20
221.586
 11
69.435
 21
221.703
  0
LINE
  8
0
 10
69.435
 20
221.703
 11
69.3034
 21
221.835
  0
LINE
  8
0
 10
69.3034
 20
221.835
 11
69.1863
 21
221.98
  0
LINE
  8
0
 10
69.1863
 20
221.98
 11
69.0849
 21
222.136
  0
LINE
  8
0
 10
69.0849
 20
222.136
 11
69.0004
 21
222.302
  0
LINE
  8
0
 10
69.0004
 20
222.302
 11
68.9337
 21
222.475
  0
LINE
  8
0
 10
68.9337
 20
222.475
 11
68.8855
 21
222.655
  0
LINE
  8
0
 10
68.8855
 20
222.655
 11
68.8564
 21
222.839
  0
LINE
  8
0
 10
68.8564
 20
222.839
 11
68.8467
 21
223.025
  0
LINE
  8
0
 10
68.8467
 20
223.025
 11
68.8564
 21
223.211
  0
LINE
  8
0
 10
68.8564
 20
223.211
 11
68.8855
 21
223.394
  0
LINE
  8
0
 10
68.8855
 20
223.394
 11
68.9337
 21
223.574
  0
LINE
  8
0
 10
68.9337
 20
223.574
 11
69.0004
 21
223.748
  0
LINE
  8
0
 10
69.0004
 20
223.748
 11
69.0849
 21
223.914
  0
LINE
  8
0
 10
69.0849
 20
223.914
 11
69.1863
 21
224.07
  0
LINE
  8
0
 10
69.1863
 20
224.07
 11
69.3034
 21
224.214
  0
LINE
  8
0
 10
69.3034
 20
224.214
 11
69.435
 21
224.346
  0
LINE
  8
0
 10
69.435
 20
224.346
 11
69.5796
 21
224.463
  0
LINE
  8
0
 10
69.5796
 20
224.463
 11
69.7357
 21
224.564
  0
LINE
  8
0
 10
69.7357
 20
224.564
 11
69.9015
 21
224.649
  0
LINE
  8
0
 10
69.9015
 20
224.649
 11
70.0753
 21
224.716
  0
LINE
  8
0
 10
70.0753
 20
224.716
 11
70.255
 21
224.764
  0
LINE
  8
0
 10
70.255
 20
224.764
 11
70.4388
 21
224.793
  0
LINE
  8
0
 10
70.4388
 20
224.793
 11
70.6247
 21
224.803
  0
LINE
  8
0
 10
70.6247
 20
224.803
 11
70.8105
 21
224.793
  0
LINE
  8
0
 10
70.8105
 20
224.793
 11
70.9944
 21
224.764
  0
LINE
  8
0
 10
70.9944
 20
224.764
 11
71.1741
 21
224.716
  0
LINE
  8
0
 10
71.1741
 20
224.716
 11
71.3479
 21
224.649
  0
LINE
  8
0
 10
71.3479
 20
224.649
 11
71.5137
 21
224.564
  0
LINE
  8
0
 10
71.5137
 20
224.564
 11
71.6698
 21
224.463
  0
LINE
  8
0
 10
71.6698
 20
224.463
 11
71.8144
 21
224.346
  0
LINE
  8
0
 10
71.8144
 20
224.346
 11
71.946
 21
224.214
  0
LINE
  8
0
 10
71.946
 20
224.214
 11
72.0631
 21
224.07
  0
LINE
  8
0
 10
72.0631
 20
224.07
 11
72.1645
 21
223.914
  0
LINE
  8
0
 10
72.1645
 20
223.914
 11
72.249
 21
223.748
  0
LINE
  8
0
 10
72.249
 20
223.748
 11
72.3157
 21
223.574
  0
LINE
  8
0
 10
72.3157
 20
223.574
 11
72.3638
 21
223.394
  0
LINE
  8
0
 10
72.3638
 20
223.394
 11
72.393
 21
223.211
  0
LINE
  8
0
 10
72.393
 20
223.211
 11
72.4027
 21
223.025
  0
LINE
  8
0
 10
72.4027
 20
223.025
 11
72.393
 21
222.839
  0
LINE
  8
0
 10
72.393
 20
222.839
 11
72.3638
 21
222.655
  0
LINE
  8
0
 10
72.3638
 20
222.655
 11
72.3157
 21
222.475
  0
LINE
  8
0
 10
72.3157
 20
222.475
 11
72.249
 21
222.302
  0
LINE
  8
0
 10
72.249
 20
222.302
 11
72.1645
 21
222.136
  0
LINE
  8
0
 10
72.1645
 20
222.136
 11
72.0631
 21
221.98
  0
LINE
  8
0
 10
72.0631
 20
221.98
 11
71.946
 21
221.835
  0
LINE
  8
0
 10
71.946
 20
221.835
 11
71.8144
 21
221.703
  0
LINE
  8
0
 10
71.8144
 20
221.703
 11
71.6698
 21
221.586
  0
LINE
  8
0
 10
71.6698
 20
221.586
 11
71.5137
 21
221.485
  0
LINE
  8
0
 10
71.5137
 20
221.485
 11
71.3479
 21
221.4
  0
LINE
  8
0
 10
71.3479
 20
221.4
 11
71.1741
 21
221.334
  0
LINE
  8
0
 10
71.1741
 20
221.334
 11
70.9944
 21
221.286
  0
LINE
  8
0
 10
70.9944
 20
221.286
 11
70.8105
 21
221.256
  0
LINE
  8
0
 10
70.8105
 20
221.256
 11
70.6247
 21
221.247
  0
LINE
  8
0
 10
70.6247
 20
221.247
 11
70.4388
 21
221.256
  0
LINE
  8
0
 10
233.989
 20
221.256
 11
233.806
 21
221.286
  0
LINE
  8
0
 10
233.806
 20
221.286
 11
233.626
 21
221.334
  0
LINE
  8
0
 10
233.626
 20
221.334
 11
233.452
 21
221.4
  0
LINE
  8
0
 10
233.452
 20
221.4
 11
233.286
 21
221.485
  0
LINE
  8
0
 10
233.286
 20
221.485
 11
233.13
 21
221.586
  0
LINE
  8
0
 10
233.13
 20
221.586
 11
232.986
 21
221.703
  0
LINE
  8
0
 10
232.986
 20
221.703
 11
232.854
 21
221.835
  0
LINE
  8
0
 10
232.854
 20
221.835
 11
232.737
 21
221.98
  0
LINE
  8
0
 10
232.737
 20
221.98
 11
232.635
 21
222.136
  0
LINE
  8
0
 10
232.635
 20
222.136
 11
232.551
 21
222.302
  0
LINE
  8
0
 10
232.551
 20
222.302
 11
232.484
 21
222.475
  0
LINE
  8
0
 10
232.484
 20
222.475
 11
232.436
 21
222.655
  0
LINE
  8
0
 10
232.436
 20
222.655
 11
232.407
 21
222.839
  0
LINE
  8
0
 10
232.407
 20
222.839
 11
232.397
 21
223.025
  0
LINE
  8
0
 10
232.397
 20
223.025
 11
232.407
 21
223.211
  0
LINE
  8
0
 10
232.407
 20
223.211
 11
232.436
 21
223.394
  0
LINE
  8
0
 10
232.436
 20
223.394
 11
232.484
 21
223.574
  0
LINE
  8
0
 10
232.484
 20
223.574
 11
232.551
 21
223.748
  0
LINE
  8
0
 10
232.551
 20
223.748
 11
232.635
 21
223.914
  0
LINE
  8
0
 10
232.635
 20
223.914
 11
232.737
 21
224.07
  0
LINE
  8
0
 10
232.737
 20
224.07
 11
232.854
 21
224.214
  0
LINE
  8
0
 10
232.854
 20
224.214
 11
232.986
 21
224.346
  0
LINE
  8
0
 10
232.986
 20
224.346
 11
233.13
 21
224.463
  0
LINE
  8
0
 10
233.13
 20
224.463
 11
233.286
 21
224.564
  0
LINE
  8
0
 10
233.286
 20
224.564
 11
233.452
 21
224.649
  0
LINE
  8
0
 10
233.452
 20
224.649
 11
233.626
 21
224.716
  0
LINE
  8
0
 10
233.626
 20
224.716
 11
233.806
 21
224.764
  0
LINE
  8
0
 10
233.806
 20
224.764
 11
233.989
 21
224.793
  0
LINE
  8
0
 10
233.989
 20
224.793
 11
234.175
 21
224.803
  0
LINE
  8
0
 10
234.175
 20
224.803
 11
234.361
 21
224.793
  0
LINE
  8
0
 10
234.361
 20
224.793
 11
234.545
 21
224.764
  0
LINE
  8
0
 10
234.545
 20
224.764
 11
234.725
 21
224.716
  0
LINE
  8
0
 10
234.725
 20
224.716
 11
234.898
 21
224.649
  0
LINE
  8
0
 10
234.898
 20
224.649
 11
235.064
 21
224.564
  0
LINE
  8
0
 10
235.064
 20
224.564
 11
235.22
 21
224.463
  0
LINE
  8
0
 10
235.22
 20
224.463
 11
235.365
 21
224.346
  0
LINE
  8
0
 10
235.365
 20
224.346
 11
235.497
 21
224.214
  0
LINE
  8
0
 10
235.497
 20
224.214
 11
235.614
 21
224.07
  0
LINE
  8
0
 10
235.614
 20
224.07
 11
235.715
 21
223.914
  0
LINE
  8
0
 10
235.715
 20
223.914
 11
235.8
 21
223.748
  0
LINE
  8
0
 10
235.8
 20
223.748
 11
235.866
 21
223.574
  0
LINE
  8
0
 10
235.866
 20
223.574
 11
235.914
 21
223.394
  0
LINE
  8
0
 10
235.914
 20
223.394
 11
235.944
 21
223.211
  0
LINE
  8
0
 10
235.944
 20
223.211
 11
235.953
 21
223.025
  0
LINE
  8
0
 10
235.953
 20
223.025
 11
235.944
 21
222.839
  0
LINE
  8
0
 10
235.944
 20
222.839
 11
235.914
 21
222.655
  0
LINE
  8
0
 10
235.914
 20
222.655
 11
235.866
 21
222.475
  0
LINE
  8
0
 10
235.866
 20
222.475
 11
235.8
 21
222.302
  0
LINE
  8
0
 10
235.8
 20
222.302
 11
235.715
 21
222.136
  0
LINE
  8
0
 10
235.715
 20
222.136
 11
235.614
 21
221.98
  0
LINE
  8
0
 10
235.614
 20
221.98
 11
235.497
 21
221.835
  0
LINE
  8
0
 10
235.497
 20
221.835
 11
235.365
 21
221.703
  0
LINE
  8
0
 10
235.365
 20
221.703
 11
235.22
 21
221.586
  0
LINE
  8
0
 10
235.22
 20
221.586
 11
235.064
 21
221.485
  0
LINE
  8
0
 10
235.064
 20
221.485
 11
234.898
 21
221.4
  0
LINE
  8
0
 10
234.898
 20
221.4
 11
234.725
 21
221.334
  0
LINE
  8
0
 10
234.725
 20
221.334
 11
234.545
 21
221.286
  0
LINE
  8
0
 10
234.545
 20
221.286
 11
234.361
 21
221.256
  0
LINE
  8
0
 10
234.361
 20
221.256
 11
234.175
 21
221.247
  0
LINE
  8
0
 10
234.175
 20
221.247
 11
233.989
 21
221.256
  0
LINE
  8
0
 10
260.939
 20
221.256
 11
260.755
 21
221.286
  0
LINE
  8
0
 10
260.755
 20
221.286
 11
260.575
 21
221.334
  0
LINE
  8
0
 10
260.575
 20
221.334
 11
260.402
 21
221.4
  0
LINE
  8
0
 10
260.402
 20
221.4
 11
260.236
 21
221.485
  0
LINE
  8
0
 10
260.236
 20
221.485
 11
260.08
 21
221.586
  0
LINE
  8
0
 10
260.08
 20
221.586
 11
259.935
 21
221.703
  0
LINE
  8
0
 10
259.935
 20
221.703
 11
259.803
 21
221.835
  0
LINE
  8
0
 10
259.803
 20
221.835
 11
259.686
 21
221.98
  0
LINE
  8
0
 10
259.686
 20
221.98
 11
259.585
 21
222.136
  0
LINE
  8
0
 10
259.585
 20
222.136
 11
259.5
 21
222.302
  0
LINE
  8
0
 10
259.5
 20
222.302
 11
259.434
 21
222.475
  0
LINE
  8
0
 10
259.434
 20
222.475
 11
259.386
 21
222.655
  0
LINE
  8
0
 10
259.386
 20
222.655
 11
259.356
 21
222.839
  0
LINE
  8
0
 10
259.356
 20
222.839
 11
259.347
 21
223.025
  0
LINE
  8
0
 10
259.347
 20
223.025
 11
259.356
 21
223.211
  0
LINE
  8
0
 10
259.356
 20
223.211
 11
259.386
 21
223.394
  0
LINE
  8
0
 10
259.386
 20
223.394
 11
259.434
 21
223.574
  0
LINE
  8
0
 10
259.434
 20
223.574
 11
259.5
 21
223.748
  0
LINE
  8
0
 10
259.5
 20
223.748
 11
259.585
 21
223.914
  0
LINE
  8
0
 10
259.585
 20
223.914
 11
259.686
 21
224.07
  0
LINE
  8
0
 10
259.686
 20
224.07
 11
259.803
 21
224.214
  0
LINE
  8
0
 10
259.803
 20
224.214
 11
259.935
 21
224.346
  0
LINE
  8
0
 10
259.935
 20
224.346
 11
260.08
 21
224.463
  0
LINE
  8
0
 10
260.08
 20
224.463
 11
260.236
 21
224.564
  0
LINE
  8
0
 10
260.236
 20
224.564
 11
260.402
 21
224.649
  0
LINE
  8
0
 10
260.402
 20
224.649
 11
260.575
 21
224.716
  0
LINE
  8
0
 10
260.575
 20
224.716
 11
260.755
 21
224.764
  0
LINE
  8
0
 10
260.755
 20
224.764
 11
260.939
 21
224.793
  0
LINE
  8
0
 10
260.939
 20
224.793
 11
261.125
 21
224.803
  0
LINE
  8
0
 10
261.125
 20
224.803
 11
261.311
 21
224.793
  0
LINE
  8
0
 10
261.311
 20
224.793
 11
261.494
 21
224.764
  0
LINE
  8
0
 10
261.494
 20
224.764
 11
261.674
 21
224.716
  0
LINE
  8
0
 10
261.674
 20
224.716
 11
261.848
 21
224.649
  0
LINE
  8
0
 10
261.848
 20
224.649
 11
262.014
 21
224.564
  0
LINE
  8
0
 10
262.014
 20
224.564
 11
262.17
 21
224.463
  0
LINE
  8
0
 10
262.17
 20
224.463
 11
262.314
 21
224.346
  0
LINE
  8
0
 10
262.314
 20
224.346
 11
262.446
 21
224.214
  0
LINE
  8
0
 10
262.446
 20
224.214
 11
262.563
 21
224.07
  0
LINE
  8
0
 10
262.563
 20
224.07
 11
262.664
 21
223.914
  0
LINE
  8
0
 10
262.664
 20
223.914
 11
262.749
 21
223.748
  0
LINE
  8
0
 10
262.749
 20
223.748
 11
262.816
 21
223.574
  0
LINE
  8
0
 10
262.816
 20
223.574
 11
262.864
 21
223.394
  0
LINE
  8
0
 10
262.864
 20
223.394
 11
262.893
 21
223.211
  0
LINE
  8
0
 10
262.893
 20
223.211
 11
262.903
 21
223.025
  0
LINE
  8
0
 10
262.903
 20
223.025
 11
262.893
 21
222.839
  0
LINE
  8
0
 10
262.893
 20
222.839
 11
262.864
 21
222.655
  0
LINE
  8
0
 10
262.864
 20
222.655
 11
262.816
 21
222.475
  0
LINE
  8
0
 10
262.816
 20
222.475
 11
262.749
 21
222.302
  0
LINE
  8
0
 10
262.749
 20
222.302
 11
262.664
 21
222.136
  0
LINE
  8
0
 10
262.664
 20
222.136
 11
262.563
 21
221.98
  0
LINE
  8
0
 10
262.563
 20
221.98
 11
262.446
 21
221.835
  0
LINE
  8
0
 10
262.446
 20
221.835
 11
262.314
 21
221.703
  0
LINE
  8
0
 10
262.314
 20
221.703
 11
262.17
 21
221.586
  0
LINE
  8
0
 10
262.17
 20
221.586
 11
262.014
 21
221.485
  0
LINE
  8
0
 10
262.014
 20
221.485
 11
261.848
 21
221.4
  0
LINE
  8
0
 10
261.848
 20
221.4
 11
261.674
 21
221.334
  0
LINE
  8
0
 10
261.674
 20
221.334
 11
261.494
 21
221.286
  0
LINE
  8
0
 10
261.494
 20
221.286
 11
261.311
 21
221.256
  0
LINE
  8
0
 10
261.311
 20
221.256
 11
261.125
 21
221.247
  0
LINE
  8
0
 10
261.125
 20
221.247
 11
260.939
 21
221.256
  0
LINE
  8
0
 10
253.039
 20
183.156
 11
252.856
 21
183.186
  0
LINE
  8
0
 10
252.856
 20
183.186
 11
252.676
 21
183.234
  0
LINE
  8
0
 10
252.676
 20
183.234
 11
252.502
 21
183.3
  0
LINE
  8
0
 10
252.502
 20
183.3
 11
252.336
 21
183.385
  0
LINE
  8
0
 10
252.336
 20
183.385
 11
252.18
 21
183.486
  0
LINE
  8
0
 10
252.18
 20
183.486
 11
252.036
 21
183.603
  0
LINE
  8
0
 10
252.036
 20
183.603
 11
251.904
 21
183.735
  0
LINE
  8
0
 10
251.904
 20
183.735
 11
251.787
 21
183.88
  0
LINE
  8
0
 10
251.787
 20
183.88
 11
251.686
 21
184.036
  0
LINE
  8
0
 10
251.686
 20
184.036
 11
251.601
 21
184.202
  0
LINE
  8
0
 10
251.601
 20
184.202
 11
251.534
 21
184.375
  0
LINE
  8
0
 10
251.534
 20
184.375
 11
251.486
 21
184.555
  0
LINE
  8
0
 10
251.486
 20
184.555
 11
251.457
 21
184.739
  0
LINE
  8
0
 10
251.457
 20
184.739
 11
251.447
 21
184.925
  0
LINE
  8
0
 10
251.447
 20
184.925
 11
251.457
 21
185.111
  0
LINE
  8
0
 10
251.457
 20
185.111
 11
251.486
 21
185.294
  0
LINE
  8
0
 10
251.486
 20
185.294
 11
251.534
 21
185.474
  0
LINE
  8
0
 10
251.534
 20
185.474
 11
251.601
 21
185.648
  0
LINE
  8
0
 10
251.601
 20
185.648
 11
251.686
 21
185.814
  0
LINE
  8
0
 10
251.686
 20
185.814
 11
251.787
 21
185.97
  0
LINE
  8
0
 10
251.787
 20
185.97
 11
251.904
 21
186.114
  0
LINE
  8
0
 10
251.904
 20
186.114
 11
252.036
 21
186.246
  0
LINE
  8
0
 10
252.036
 20
186.246
 11
252.18
 21
186.363
  0
LINE
  8
0
 10
252.18
 20
186.363
 11
252.336
 21
186.464
  0
LINE
  8
0
 10
252.336
 20
186.464
 11
252.502
 21
186.549
  0
LINE
  8
0
 10
252.502
 20
186.549
 11
252.676
 21
186.616
  0
LINE
  8
0
 10
252.676
 20
186.616
 11
252.856
 21
186.664
  0
LINE
  8
0
 10
252.856
 20
186.664
 11
253.039
 21
186.693
  0
LINE
  8
0
 10
253.039
 20
186.693
 11
253.225
 21
186.703
  0
LINE
  8
0
 10
253.225
 20
186.703
 11
253.411
 21
186.693
  0
LINE
  8
0
 10
253.411
 20
186.693
 11
253.595
 21
186.664
  0
LINE
  8
0
 10
253.595
 20
186.664
 11
253.775
 21
186.616
  0
LINE
  8
0
 10
253.775
 20
186.616
 11
253.948
 21
186.549
  0
LINE
  8
0
 10
253.948
 20
186.549
 11
254.114
 21
186.464
  0
LINE
  8
0
 10
254.114
 20
186.464
 11
254.27
 21
186.363
  0
LINE
  8
0
 10
254.27
 20
186.363
 11
254.415
 21
186.246
  0
LINE
  8
0
 10
254.415
 20
186.246
 11
254.547
 21
186.114
  0
LINE
  8
0
 10
254.547
 20
186.114
 11
254.664
 21
185.97
  0
LINE
  8
0
 10
254.664
 20
185.97
 11
254.765
 21
185.814
  0
LINE
  8
0
 10
254.765
 20
185.814
 11
254.85
 21
185.648
  0
LINE
  8
0
 10
254.85
 20
185.648
 11
254.916
 21
185.474
  0
LINE
  8
0
 10
254.916
 20
185.474
 11
254.964
 21
185.294
  0
LINE
  8
0
 10
254.964
 20
185.294
 11
254.994
 21
185.111
  0
LINE
  8
0
 10
254.994
 20
185.111
 11
255.003
 21
184.925
  0
LINE
  8
0
 10
255.003
 20
184.925
 11
254.994
 21
184.739
  0
LINE
  8
0
 10
254.994
 20
184.739
 11
254.964
 21
184.555
  0
LINE
  8
0
 10
254.964
 20
184.555
 11
254.916
 21
184.375
  0
LINE
  8
0
 10
254.916
 20
184.375
 11
254.85
 21
184.202
  0
LINE
  8
0
 10
254.85
 20
184.202
 11
254.765
 21
184.036
  0
LINE
  8
0
 10
254.765
 20
184.036
 11
254.664
 21
183.88
  0
LINE
  8
0
 10
254.664
 20
183.88
 11
254.547
 21
183.735
  0
LINE
  8
0
 10
254.547
 20
183.735
 11
254.415
 21
183.603
  0
LINE
  8
0
 10
254.415
 20
183.603
 11
254.27
 21
183.486
  0
LINE
  8
0
 10
254.27
 20
183.486
 11
254.114
 21
183.385
  0
LINE
  8
0
 10
254.114
 20
183.385
 11
253.948
 21
183.3
  0
LINE
  8
0
 10
253.948
 20
183.3
 11
253.775
 21
183.234
  0
LINE
  8
0
 10
253.775
 20
183.234
 11
253.595
 21
183.186
  0
LINE
  8
0
 10
253.595
 20
183.186
 11
253.411
 21
183.156
  0
LINE
  8
0
 10
253.411
 20
183.156
 11
253.225
 21
183.147
  0
LINE
  8
0
 10
253.225
 20
183.147
 11
253.039
 21
183.156
  0
LINE
  8
0
 10
81.5894
 20
183.156
 11
81.4056
 21
183.186
  0
LINE
  8
0
 10
81.4056
 20
183.186
 11
81.2259
 21
183.234
  0
LINE
  8
0
 10
81.2259
 20
183.234
 11
81.0521
 21
183.3
  0
LINE
  8
0
 10
81.0521
 20
183.3
 11
80.8863
 21
183.385
  0
LINE
  8
0
 10
80.8863
 20
183.385
 11
80.7302
 21
183.486
  0
LINE
  8
0
 10
80.7302
 20
183.486
 11
80.5856
 21
183.603
  0
LINE
  8
0
 10
80.5856
 20
183.603
 11
80.454
 21
183.735
  0
LINE
  8
0
 10
80.454
 20
183.735
 11
80.3369
 21
183.88
  0
LINE
  8
0
 10
80.3369
 20
183.88
 11
80.2355
 21
184.036
  0
LINE
  8
0
 10
80.2355
 20
184.036
 11
80.151
 21
184.202
  0
LINE
  8
0
 10
80.151
 20
184.202
 11
80.0843
 21
184.375
  0
LINE
  8
0
 10
80.0843
 20
184.375
 11
80.0361
 21
184.555
  0
LINE
  8
0
 10
80.0361
 20
184.555
 11
80.007
 21
184.739
  0
LINE
  8
0
 10
80.007
 20
184.739
 11
79.9973
 21
184.925
  0
LINE
  8
0
 10
79.9973
 20
184.925
 11
80.007
 21
185.111
  0
LINE
  8
0
 10
80.007
 20
185.111
 11
80.0361
 21
185.294
  0
LINE
  8
0
 10
80.0361
 20
185.294
 11
80.0843
 21
185.474
  0
LINE
  8
0
 10
80.0843
 20
185.474
 11
80.151
 21
185.648
  0
LINE
  8
0
 10
80.151
 20
185.648
 11
80.2355
 21
185.814
  0
LINE
  8
0
 10
80.2355
 20
185.814
 11
80.3369
 21
185.97
  0
LINE
  8
0
 10
80.3369
 20
185.97
 11
80.454
 21
186.114
  0
LINE
  8
0
 10
80.454
 20
186.114
 11
80.5856
 21
186.246
  0
LINE
  8
0
 10
80.5856
 20
186.246
 11
80.7302
 21
186.363
  0
LINE
  8
0
 10
80.7302
 20
186.363
 11
80.8863
 21
186.464
  0
LINE
  8
0
 10
80.8863
 20
186.464
 11
81.0521
 21
186.549
  0
LINE
  8
0
 10
81.0521
 20
186.549
 11
81.2259
 21
186.616
  0
LINE
  8
0
 10
81.2259
 20
186.616
 11
81.4056
 21
186.664
  0
LINE
  8
0
 10
81.4056
 20
186.664
 11
81.5894
 21
186.693
  0
LINE
  8
0
 10
81.5894
 20
186.693
 11
81.7753
 21
186.703
  0
LINE
  8
0
 10
81.7753
 20
186.703
 11
81.9612
 21
186.693
  0
LINE
  8
0
 10
81.9612
 20
186.693
 11
82.145
 21
186.664
  0
LINE
  8
0
 10
82.145
 20
186.664
 11
82.3247
 21
186.616
  0
LINE
  8
0
 10
82.3247
 20
186.616
 11
82.4985
 21
186.549
  0
LINE
  8
0
 10
82.4985
 20
186.549
 11
82.6643
 21
186.464
  0
LINE
  8
0
 10
82.6643
 20
186.464
 11
82.8204
 21
186.363
  0
LINE
  8
0
 10
82.8204
 20
186.363
 11
82.965
 21
186.246
  0
LINE
  8
0
 10
82.965
 20
186.246
 11
83.0966
 21
186.114
  0
LINE
  8
0
 10
83.0966
 20
186.114
 11
83.2137
 21
185.97
  0
LINE
  8
0
 10
83.2137
 20
185.97
 11
83.3151
 21
185.814
  0
LINE
  8
0
 10
83.3151
 20
185.814
 11
83.3996
 21
185.648
  0
LINE
  8
0
 10
83.3996
 20
185.648
 11
83.4663
 21
185.474
  0
LINE
  8
0
 10
83.4663
 20
185.474
 11
83.5144
 21
185.294
  0
LINE
  8
0
 10
83.5144
 20
185.294
 11
83.5435
 21
185.111
  0
LINE
  8
0
 10
83.5435
 20
185.111
 11
83.5533
 21
184.925
  0
LINE
  8
0
 10
83.5533
 20
184.925
 11
83.5435
 21
184.739
  0
LINE
  8
0
 10
83.5435
 20
184.739
 11
83.5144
 21
184.555
  0
LINE
  8
0
 10
83.5144
 20
184.555
 11
83.4663
 21
184.375
  0
LINE
  8
0
 10
83.4663
 20
184.375
 11
83.3996
 21
184.202
  0
LINE
  8
0
 10
83.3996
 20
184.202
 11
83.3151
 21
184.036
  0
LINE
  8
0
 10
83.3151
 20
184.036
 11
83.2137
 21
183.88
  0
LINE
  8
0
 10
83.2137
 20
183.88
 11
83.0966
 21
183.735
  0
LINE
  8
0
 10
83.0966
 20
183.735
 11
82.965
 21
183.603
  0
LINE
  8
0
 10
82.965
 20
183.603
 11
82.8204
 21
183.486
  0
LINE
  8
0
 10
82.8204
 20
183.486
 11
82.6643
 21
183.385
  0
LINE
  8
0
 10
82.6643
 20
183.385
 11
82.4985
 21
183.3
  0
LINE
  8
0
 10
82.4985
 20
183.3
 11
82.3247
 21
183.234
  0
LINE
  8
0
 10
82.3247
 20
183.234
 11
82.145
 21
183.186
  0
LINE
  8
0
 10
82.145
 20
183.186
 11
81.9612
 21
183.156
  0
LINE
  8
0
 10
81.9612
 20
183.156
 11
81.7753
 21
183.147
  0
LINE
  8
0
 10
81.7753
 20
183.147
 11
81.5894
 21
183.156
  0
LINE
  8
0
 10
299.039
 20
126.006
 11
298.855
 21
126.036
  0
LINE
  8
0
 10
298.855
 20
126.036
 11
298.675
 21
126.084
  0
LINE
  8
0
 10
298.675
 20
126.084
 11
298.502
 21
126.15
  0
LINE
  8
0
 10
298.502
 20
126.15
 11
298.336
 21
126.235
  0
LINE
  8
0
 10
298.336
 20
126.235
 11
298.18
 21
126.336
  0
LINE
  8
0
 10
298.18
 20
126.336
 11
298.035
 21
126.453
  0
LINE
  8
0
 10
298.035
 20
126.453
 11
297.903
 21
126.585
  0
LINE
  8
0
 10
297.903
 20
126.585
 11
297.786
 21
126.73
  0
LINE
  8
0
 10
297.786
 20
126.73
 11
297.685
 21
126.886
  0
LINE
  8
0
 10
297.685
 20
126.886
 11
297.6
 21
127.052
  0
LINE
  8
0
 10
297.6
 20
127.052
 11
297.534
 21
127.225
  0
LINE
  8
0
 10
297.534
 20
127.225
 11
297.486
 21
127.405
  0
LINE
  8
0
 10
297.486
 20
127.405
 11
297.456
 21
127.589
  0
LINE
  8
0
 10
297.456
 20
127.589
 11
297.447
 21
127.775
  0
LINE
  8
0
 10
297.447
 20
127.775
 11
297.456
 21
127.961
  0
LINE
  8
0
 10
297.456
 20
127.961
 11
297.486
 21
128.144
  0
LINE
  8
0
 10
297.486
 20
128.144
 11
297.534
 21
128.324
  0
LINE
  8
0
 10
297.534
 20
128.324
 11
297.6
 21
128.498
  0
LINE
  8
0
 10
297.6
 20
128.498
 11
297.685
 21
128.664
  0
LINE
  8
0
 10
297.685
 20
128.664
 11
297.786
 21
128.82
  0
LINE
  8
0
 10
297.786
 20
128.82
 11
297.903
 21
128.964
  0
LINE
  8
0
 10
297.903
 20
128.964
 11
298.035
 21
129.096
  0
LINE
  8
0
 10
298.035
 20
129.096
 11
298.18
 21
129.213
  0
LINE
  8
0
 10
298.18
 20
129.213
 11
298.336
 21
129.314
  0
LINE
  8
0
 10
298.336
 20
129.314
 11
298.502
 21
129.399
  0
LINE
  8
0
 10
298.502
 20
129.399
 11
298.675
 21
129.466
  0
LINE
  8
0
 10
298.675
 20
129.466
 11
298.855
 21
129.514
  0
LINE
  8
0
 10
298.855
 20
129.514
 11
299.039
 21
129.543
  0
LINE
  8
0
 10
299.039
 20
129.543
 11
299.225
 21
129.553
  0
LINE
  8
0
 10
299.225
 20
129.553
 11
299.411
 21
129.543
  0
LINE
  8
0
 10
299.411
 20
129.543
 11
299.594
 21
129.514
  0
LINE
  8
0
 10
299.594
 20
129.514
 11
299.774
 21
129.466
  0
LINE
  8
0
 10
299.774
 20
129.466
 11
299.948
 21
129.399
  0
LINE
  8
0
 10
299.948
 20
129.399
 11
300.114
 21
129.314
  0
LINE
  8
0
 10
300.114
 20
129.314
 11
300.27
 21
129.213
  0
LINE
  8
0
 10
300.27
 20
129.213
 11
300.414
 21
129.096
  0
LINE
  8
0
 10
300.414
 20
129.096
 11
300.546
 21
128.964
  0
LINE
  8
0
 10
300.546
 20
128.964
 11
300.663
 21
128.82
  0
LINE
  8
0
 10
300.663
 20
128.82
 11
300.764
 21
128.664
  0
LINE
  8
0
 10
300.764
 20
128.664
 11
300.849
 21
128.498
  0
LINE
  8
0
 10
300.849
 20
128.498
 11
300.916
 21
128.324
  0
LINE
  8
0
 10
300.916
 20
128.324
 11
300.964
 21
128.144
  0
LINE
  8
0
 10
300.964
 20
128.144
 11
300.993
 21
127.961
  0
LINE
  8
0
 10
300.993
 20
127.961
 11
301.003
 21
127.775
  0
LINE
  8
0
 10
301.003
 20
127.775
 11
300.993
 21
127.589
  0
LINE
  8
0
 10
300.993
 20
127.589
 11
300.964
 21
127.405
  0
LINE
  8
0
 10
300.964
 20
127.405
 11
300.916
 21
127.225
  0
LINE
  8
0
 10
300.916
 20
127.225
 11
300.849
 21
127.052
  0
LINE
  8
0
 10
300.849
 20
127.052
 11
300.764
 21
126.886
  0
LINE
  8
0
 10
300.764
 20
126.886
 11
300.663
 21
126.73
  0
LINE
  8
0
 10
300.663
 20
126.73
 11
300.546
 21
126.585
  0
LINE
  8
0
 10
300.546
 20
126.585
 11
300.414
 21
126.453
  0
LINE
  8
0
 10
300.414
 20
126.453
 11
300.27
 21
126.336
  0
LINE
  8
0
 10
300.27
 20
126.336
 11
300.114
 21
126.235
  0
LINE
  8
0
 10
300.114
 20
126.235
 11
299.948
 21
126.15
  0
LINE
  8
0
 10
299.948
 20
126.15
 11
299.774
 21
126.084
  0
LINE
  8
0
 10
299.774
 20
126.084
 11
299.594
 21
126.036
  0
LINE
  8
0
 10
299.594
 20
126.036
 11
299.411
 21
126.006
  0
LINE
  8
0
 10
299.411
 20
126.006
 11
299.225
 21
125.997
  0
LINE
  8
0
 10
299.225
 20
125.997
 11
299.039
 21
126.006
  0
LINE
  8
0
 10
5.38943
 20
126.006
 11
5.20563
 21
126.036
  0
LINE
  8
0
 10
5.20563
 20
126.036
 11
5.02586
 21
126.084
  0
LINE
  8
0
 10
5.02586
 20
126.084
 11
4.85211
 21
126.15
  0
LINE
  8
0
 10
4.85211
 20
126.15
 11
4.68629
 21
126.235
  0
LINE
  8
0
 10
4.68629
 20
126.235
 11
4.53021
 21
126.336
  0
LINE
  8
0
 10
4.53021
 20
126.336
 11
4.38557
 21
126.453
  0
LINE
  8
0
 10
4.38557
 20
126.453
 11
4.25398
 21
126.585
  0
LINE
  8
0
 10
4.25398
 20
126.585
 11
4.13686
 21
126.73
  0
LINE
  8
0
 10
4.13686
 20
126.73
 11
4.03549
 21
126.886
  0
LINE
  8
0
 10
4.03549
 20
126.886
 11
3.951
 21
127.052
  0
LINE
  8
0
 10
3.951
 20
127.052
 11
3.88431
 21
127.225
  0
LINE
  8
0
 10
3.88431
 20
127.225
 11
3.83615
 21
127.405
  0
LINE
  8
0
 10
3.83615
 20
127.405
 11
3.80704
 21
127.589
  0
LINE
  8
0
 10
3.80704
 20
127.589
 11
3.79729
 21
127.775
  0
LINE
  8
0
 10
3.79729
 20
127.775
 11
3.80704
 21
127.961
  0
LINE
  8
0
 10
3.80704
 20
127.961
 11
3.83615
 21
128.144
  0
LINE
  8
0
 10
3.83615
 20
128.144
 11
3.88431
 21
128.324
  0
LINE
  8
0
 10
3.88431
 20
128.324
 11
3.951
 21
128.498
  0
LINE
  8
0
 10
3.951
 20
128.498
 11
4.03549
 21
128.664
  0
LINE
  8
0
 10
4.03549
 20
128.664
 11
4.13686
 21
128.82
  0
LINE
  8
0
 10
4.13686
 20
128.82
 11
4.25398
 21
128.964
  0
LINE
  8
0
 10
4.25398
 20
128.964
 11
4.38557
 21
129.096
  0
LINE
  8
0
 10
4.38557
 20
129.096
 11
4.53021
 21
129.213
  0
LINE
  8
0
 10
4.53021
 20
129.213
 11
4.68629
 21
129.314
  0
LINE
  8
0
 10
4.68629
 20
129.314
 11
4.85211
 21
129.399
  0
LINE
  8
0
 10
4.85211
 20
129.399
 11
5.02586
 21
129.466
  0
LINE
  8
0
 10
5.02586
 20
129.466
 11
5.20563
 21
129.514
  0
LINE
  8
0
 10
5.20563
 20
129.514
 11
5.38943
 21
129.543
  0
LINE
  8
0
 10
5.38943
 20
129.543
 11
5.57529
 21
129.553
  0
LINE
  8
0
 10
5.57529
 20
129.553
 11
5.76114
 21
129.543
  0
LINE
  8
0
 10
5.76114
 20
129.543
 11
5.94496
 21
129.514
  0
LINE
  8
0
 10
5.94496
 20
129.514
 11
6.12473
 21
129.466
  0
LINE
  8
0
 10
6.12473
 20
129.466
 11
6.29848
 21
129.399
  0
LINE
  8
0
 10
6.29848
 20
129.399
 11
6.46429
 21
129.314
  0
LINE
  8
0
 10
6.46429
 20
129.314
 11
6.62038
 21
129.213
  0
LINE
  8
0
 10
6.62038
 20
129.213
 11
6.765
 21
129.096
  0
LINE
  8
0
 10
6.765
 20
129.096
 11
6.89661
 21
128.964
  0
LINE
  8
0
 10
6.89661
 20
128.964
 11
7.01372
 21
128.82
  0
LINE
  8
0
 10
7.01372
 20
128.82
 11
7.11508
 21
128.664
  0
LINE
  8
0
 10
7.11508
 20
128.664
 11
7.19957
 21
128.498
  0
LINE
  8
0
 10
7.19957
 20
128.498
 11
7.26627
 21
128.324
  0
LINE
  8
0
 10
7.26627
 20
128.324
 11
7.31444
 21
128.144
  0
LINE
  8
0
 10
7.31444
 20
128.144
 11
7.34355
 21
127.961
  0
LINE
  8
0
 10
7.34355
 20
127.961
 11
7.35329
 21
127.775
  0
LINE
  8
0
 10
7.35329
 20
127.775
 11
7.34355
 21
127.589
  0
LINE
  8
0
 10
7.34355
 20
127.589
 11
7.31444
 21
127.405
  0
LINE
  8
0
 10
7.31444
 20
127.405
 11
7.26627
 21
127.225
  0
LINE
  8
0
 10
7.26627
 20
127.225
 11
7.19957
 21
127.052
  0
LINE
  8
0
 10
7.19957
 20
127.052
 11
7.11508
 21
126.886
  0
LINE
  8
0
 10
7.11508
 20
126.886
 11
7.01372
 21
126.73
  0
LINE
  8
0
 10
7.01372
 20
126.73
 11
6.89661
 21
126.585
  0
LINE
  8
0
 10
6.89661
 20
126.585
 11
6.765
 21
126.453
  0
LINE
  8
0
 10
6.765
 20
126.453
 11
6.62038
 21
126.336
  0
LINE
  8
0
 10
6.62038
 20
126.336
 11
6.46429
 21
126.235
  0
LINE
  8
0
 10
6.46429
 20
126.235
 11
6.29848
 21
126.15
  0
LINE
  8
0
 10
6.29848
 20
126.15
 11
6.12473
 21
126.084
  0
LINE
  8
0
 10
6.12473
 20
126.084
 11
5.94496
 21
126.036
  0
LINE
  8
0
 10
5.94496
 20
126.036
 11
5.76114
 21
126.006
  0
LINE
  8
0
 10
5.76114
 20
126.006
 11
5.57529
 21
125.997
  0
LINE
  8
0
 10
5.57529
 20
125.997
 11
5.38943
 21
126.006
  0
LINE
  8
0
 10
43.4895
 20
126.006
 11
43.3056
 21
126.036
  0
LINE
  8
0
 10
43.3056
 20
126.036
 11
43.1259
 21
126.084
  0
LINE
  8
0
 10
43.1259
 20
126.084
 11
42.9521
 21
126.15
  0
LINE
  8
0
 10
42.9521
 20
126.15
 11
42.7863
 21
126.235
  0
LINE
  8
0
 10
42.7863
 20
126.235
 11
42.6302
 21
126.336
  0
LINE
  8
0
 10
42.6302
 20
126.336
 11
42.4856
 21
126.453
  0
LINE
  8
0
 10
42.4856
 20
126.453
 11
42.354
 21
126.585
  0
LINE
  8
0
 10
42.354
 20
126.585
 11
42.2369
 21
126.73
  0
LINE
  8
0
 10
42.2369
 20
126.73
 11
42.1355
 21
126.886
  0
LINE
  8
0
 10
42.1355
 20
126.886
 11
42.051
 21
127.051
  0
LINE
  8
0
 10
42.051
 20
127.051
 11
41.9843
 21
127.225
  0
LINE
  8
0
 10
41.9843
 20
127.225
 11
41.9362
 21
127.405
  0
LINE
  8
0
 10
41.9362
 20
127.405
 11
41.907
 21
127.589
  0
LINE
  8
0
 10
41.907
 20
127.589
 11
41.8973
 21
127.775
  0
LINE
  8
0
 10
41.8973
 20
127.775
 11
41.907
 21
127.961
  0
LINE
  8
0
 10
41.907
 20
127.961
 11
41.9362
 21
128.144
  0
LINE
  8
0
 10
41.9362
 20
128.144
 11
41.9843
 21
128.324
  0
LINE
  8
0
 10
41.9843
 20
128.324
 11
42.051
 21
128.498
  0
LINE
  8
0
 10
42.051
 20
128.498
 11
42.1355
 21
128.664
  0
LINE
  8
0
 10
42.1355
 20
128.664
 11
42.2369
 21
128.82
  0
LINE
  8
0
 10
42.2369
 20
128.82
 11
42.354
 21
128.964
  0
LINE
  8
0
 10
42.354
 20
128.964
 11
42.4856
 21
129.096
  0
LINE
  8
0
 10
42.4856
 20
129.096
 11
42.6302
 21
129.213
  0
LINE
  8
0
 10
42.6302
 20
129.213
 11
42.7863
 21
129.314
  0
LINE
  8
0
 10
42.7863
 20
129.314
 11
42.9521
 21
129.399
  0
LINE
  8
0
 10
42.9521
 20
129.399
 11
43.1259
 21
129.466
  0
LINE
  8
0
 10
43.1259
 20
129.466
 11
43.3056
 21
129.514
  0
LINE
  8
0
 10
43.3056
 20
129.514
 11
43.4895
 21
129.543
  0
LINE
  8
0
 10
43.4895
 20
129.543
 11
43.6753
 21
129.553
  0
LINE
  8
0
 10
43.6753
 20
129.553
 11
43.8612
 21
129.543
  0
LINE
  8
0
 10
43.8612
 20
129.543
 11
44.045
 21
129.514
  0
LINE
  8
0
 10
44.045
 20
129.514
 11
44.2247
 21
129.466
  0
LINE
  8
0
 10
44.2247
 20
129.466
 11
44.3985
 21
129.399
  0
LINE
  8
0
 10
44.3985
 20
129.399
 11
44.5643
 21
129.314
  0
LINE
  8
0
 10
44.5643
 20
129.314
 11
44.7204
 21
129.213
  0
LINE
  8
0
 10
44.7204
 20
129.213
 11
44.865
 21
129.096
  0
LINE
  8
0
 10
44.865
 20
129.096
 11
44.9966
 21
128.964
  0
LINE
  8
0
 10
44.9966
 20
128.964
 11
45.1137
 21
128.82
  0
LINE
  8
0
 10
45.1137
 20
128.82
 11
45.2151
 21
128.664
  0
LINE
  8
0
 10
45.2151
 20
128.664
 11
45.2996
 21
128.498
  0
LINE
  8
0
 10
45.2996
 20
128.498
 11
45.3663
 21
128.324
  0
LINE
  8
0
 10
45.3663
 20
128.324
 11
45.4144
 21
128.144
  0
LINE
  8
0
 10
45.4144
 20
128.144
 11
45.4436
 21
127.961
  0
LINE
  8
0
 10
45.4436
 20
127.961
 11
45.4533
 21
127.775
  0
LINE
  8
0
 10
45.4533
 20
127.775
 11
45.4436
 21
127.589
  0
LINE
  8
0
 10
45.4436
 20
127.589
 11
45.4144
 21
127.405
  0
LINE
  8
0
 10
45.4144
 20
127.405
 11
45.3663
 21
127.225
  0
LINE
  8
0
 10
45.3663
 20
127.225
 11
45.2996
 21
127.051
  0
LINE
  8
0
 10
45.2996
 20
127.051
 11
45.2151
 21
126.886
  0
LINE
  8
0
 10
45.2151
 20
126.886
 11
45.1137
 21
126.73
  0
LINE
  8
0
 10
45.1137
 20
126.73
 11
44.9966
 21
126.585
  0
LINE
  8
0
 10
44.9966
 20
126.585
 11
44.865
 21
126.453
  0
LINE
  8
0
 10
44.865
 20
126.453
 11
44.7204
 21
126.336
  0
LINE
  8
0
 10
44.7204
 20
126.336
 11
44.5643
 21
126.235
  0
LINE
  8
0
 10
44.5643
 20
126.235
 11
44.3985
 21
126.15
  0
LINE
  8
0
 10
44.3985
 20
126.15
 11
44.2247
 21
126.084
  0
LINE
  8
0
 10
44.2247
 20
126.084
 11
44.045
 21
126.036
  0
LINE
  8
0
 10
44.045
 20
126.036
 11
43.8612
 21
126.006
  0
LINE
  8
0
 10
43.8612
 20
126.006
 11
43.6753
 21
125.997
  0
LINE
  8
0
 10
43.6753
 20
125.997
 11
43.4895
 21
126.006
  0
LINE
  8
0
 10
70.4388
 20
126.006
 11
70.255
 21
126.036
  0
LINE
  8
0
 10
70.255
 20
126.036
 11
70.0753
 21
126.084
  0
LINE
  8
0
 10
70.0753
 20
126.084
 11
69.9015
 21
126.15
  0
LINE
  8
0
 10
69.9015
 20
126.15
 11
69.7357
 21
126.235
  0
LINE
  8
0
 10
69.7357
 20
126.235
 11
69.5796
 21
126.336
  0
LINE
  8
0
 10
69.5796
 20
126.336
 11
69.435
 21
126.453
  0
LINE
  8
0
 10
69.435
 20
126.453
 11
69.3034
 21
126.585
  0
LINE
  8
0
 10
69.3034
 20
126.585
 11
69.1862
 21
126.73
  0
LINE
  8
0
 10
69.1862
 20
126.73
 11
69.0849
 21
126.886
  0
LINE
  8
0
 10
69.0849
 20
126.886
 11
69.0004
 21
127.051
  0
LINE
  8
0
 10
69.0004
 20
127.051
 11
68.9337
 21
127.225
  0
LINE
  8
0
 10
68.9337
 20
127.225
 11
68.8855
 21
127.405
  0
LINE
  8
0
 10
68.8855
 20
127.405
 11
68.8564
 21
127.589
  0
LINE
  8
0
 10
68.8564
 20
127.589
 11
68.8467
 21
127.775
  0
LINE
  8
0
 10
68.8467
 20
127.775
 11
68.8564
 21
127.961
  0
LINE
  8
0
 10
68.8564
 20
127.961
 11
68.8855
 21
128.144
  0
LINE
  8
0
 10
68.8855
 20
128.144
 11
68.9337
 21
128.324
  0
LINE
  8
0
 10
68.9337
 20
128.324
 11
69.0004
 21
128.498
  0
LINE
  8
0
 10
69.0004
 20
128.498
 11
69.0849
 21
128.664
  0
LINE
  8
0
 10
69.0849
 20
128.664
 11
69.1862
 21
128.82
  0
LINE
  8
0
 10
69.1862
 20
128.82
 11
69.3034
 21
128.964
  0
LINE
  8
0
 10
69.3034
 20
128.964
 11
69.435
 21
129.096
  0
LINE
  8
0
 10
69.435
 20
129.096
 11
69.5796
 21
129.213
  0
LINE
  8
0
 10
69.5796
 20
129.213
 11
69.7357
 21
129.314
  0
LINE
  8
0
 10
69.7357
 20
129.314
 11
69.9015
 21
129.399
  0
LINE
  8
0
 10
69.9015
 20
129.399
 11
70.0753
 21
129.466
  0
LINE
  8
0
 10
70.0753
 20
129.466
 11
70.255
 21
129.514
  0
LINE
  8
0
 10
70.255
 20
129.514
 11
70.4388
 21
129.543
  0
LINE
  8
0
 10
70.4388
 20
129.543
 11
70.6247
 21
129.553
  0
LINE
  8
0
 10
70.6247
 20
129.553
 11
70.8105
 21
129.543
  0
LINE
  8
0
 10
70.8105
 20
129.543
 11
70.9944
 21
129.514
  0
LINE
  8
0
 10
70.9944
 20
129.514
 11
71.1741
 21
129.466
  0
LINE
  8
0
 10
71.1741
 20
129.466
 11
71.3479
 21
129.399
  0
LINE
  8
0
 10
71.3479
 20
129.399
 11
71.5137
 21
129.314
  0
LINE
  8
0
 10
71.5137
 20
129.314
 11
71.6698
 21
129.213
  0
LINE
  8
0
 10
71.6698
 20
129.213
 11
71.8144
 21
129.096
  0
LINE
  8
0
 10
71.8144
 20
129.096
 11
71.946
 21
128.964
  0
LINE
  8
0
 10
71.946
 20
128.964
 11
72.0631
 21
128.82
  0
LINE
  8
0
 10
72.0631
 20
128.82
 11
72.1645
 21
128.664
  0
LINE
  8
0
 10
72.1645
 20
128.664
 11
72.249
 21
128.498
  0
LINE
  8
0
 10
72.249
 20
128.498
 11
72.3157
 21
128.324
  0
LINE
  8
0
 10
72.3157
 20
128.324
 11
72.3638
 21
128.144
  0
LINE
  8
0
 10
72.3638
 20
128.144
 11
72.3929
 21
127.961
  0
LINE
  8
0
 10
72.3929
 20
127.961
 11
72.4027
 21
127.775
  0
LINE
  8
0
 10
72.4027
 20
127.775
 11
72.3929
 21
127.589
  0
LINE
  8
0
 10
72.3929
 20
127.589
 11
72.3638
 21
127.405
  0
LINE
  8
0
 10
72.3638
 20
127.405
 11
72.3157
 21
127.225
  0
LINE
  8
0
 10
72.3157
 20
127.225
 11
72.249
 21
127.051
  0
LINE
  8
0
 10
72.249
 20
127.051
 11
72.1645
 21
126.886
  0
LINE
  8
0
 10
72.1645
 20
126.886
 11
72.0631
 21
126.73
  0
LINE
  8
0
 10
72.0631
 20
126.73
 11
71.946
 21
126.585
  0
LINE
  8
0
 10
71.946
 20
126.585
 11
71.8144
 21
126.453
  0
LINE
  8
0
 10
71.8144
 20
126.453
 11
71.6698
 21
126.336
  0
LINE
  8
0
 10
71.6698
 20
126.336
 11
71.5137
 21
126.235
  0
LINE
  8
0
 10
71.5137
 20
126.235
 11
71.3479
 21
126.15
  0
LINE
  8
0
 10
71.3479
 20
126.15
 11
71.1741
 21
126.084
  0
LINE
  8
0
 10
71.1741
 20
126.084
 11
70.9944
 21
126.036
  0
LINE
  8
0
 10
70.9944
 20
126.036
 11
70.8105
 21
126.006
  0
LINE
  8
0
 10
70.8105
 20
126.006
 11
70.6247
 21
125.997
  0
LINE
  8
0
 10
70.6247
 20
125.997
 11
70.4388
 21
126.006
  0
LINE
  8
0
 10
56.473
 20
107.858
 11
55.8033
 21
107.965
  0
LINE
  8
0
 10
55.8033
 20
107.965
 11
55.1485
 21
108.14
  0
LINE
  8
0
 10
55.1485
 20
108.14
 11
54.5156
 21
108.383
  0
LINE
  8
0
 10
54.5156
 20
108.383
 11
53.9115
 21
108.691
  0
LINE
  8
0
 10
53.9115
 20
108.691
 11
53.3429
 21
109.06
  0
LINE
  8
0
 10
53.3429
 20
109.06
 11
52.816
 21
109.487
  0
LINE
  8
0
 10
52.816
 20
109.487
 11
52.3366
 21
109.966
  0
LINE
  8
0
 10
52.3366
 20
109.966
 11
51.91
 21
110.493
  0
LINE
  8
0
 10
51.91
 20
110.493
 11
51.5407
 21
111.061
  0
LINE
  8
0
 10
51.5407
 20
111.061
 11
51.233
 21
111.666
  0
LINE
  8
0
 10
51.233
 20
111.666
 11
50.99
 21
112.298
  0
LINE
  8
0
 10
50.99
 20
112.298
 11
50.8145
 21
112.953
  0
LINE
  8
0
 10
50.8145
 20
112.953
 11
50.7085
 21
113.623
  0
LINE
  8
0
 10
50.7085
 20
113.623
 11
50.673
 21
114.3
  0
LINE
  8
0
 10
50.673
 20
114.3
 11
50.7085
 21
114.977
  0
LINE
  8
0
 10
50.7085
 20
114.977
 11
50.8145
 21
115.647
  0
LINE
  8
0
 10
50.8145
 20
115.647
 11
50.99
 21
116.301
  0
LINE
  8
0
 10
50.99
 20
116.301
 11
51.233
 21
116.934
  0
LINE
  8
0
 10
51.233
 20
116.934
 11
51.5407
 21
117.538
  0
LINE
  8
0
 10
51.5407
 20
117.538
 11
51.91
 21
118.107
  0
LINE
  8
0
 10
51.91
 20
118.107
 11
52.3366
 21
118.634
  0
LINE
  8
0
 10
52.3366
 20
118.634
 11
52.816
 21
119.113
  0
LINE
  8
0
 10
52.816
 20
119.113
 11
53.3429
 21
119.54
  0
LINE
  8
0
 10
53.3429
 20
119.54
 11
53.9115
 21
119.909
  0
LINE
  8
0
 10
53.9115
 20
119.909
 11
54.5156
 21
120.217
  0
LINE
  8
0
 10
54.5156
 20
120.217
 11
55.1485
 21
120.46
  0
LINE
  8
0
 10
55.1485
 20
120.46
 11
55.8033
 21
120.635
  0
LINE
  8
0
 10
55.8033
 20
120.635
 11
56.473
 21
120.742
  0
LINE
  8
0
 10
56.473
 20
120.742
 11
57.15
 21
120.777
  0
LINE
  8
0
 10
57.15
 20
120.777
 11
57.827
 21
120.742
  0
LINE
  8
0
 10
57.827
 20
120.742
 11
58.4966
 21
120.635
  0
LINE
  8
0
 10
58.4966
 20
120.635
 11
59.1515
 21
120.46
  0
LINE
  8
0
 10
59.1515
 20
120.46
 11
59.7844
 21
120.217
  0
LINE
  8
0
 10
59.7844
 20
120.217
 11
60.3885
 21
119.909
  0
LINE
  8
0
 10
60.3885
 20
119.909
 11
60.9571
 21
119.54
  0
LINE
  8
0
 10
60.9571
 20
119.54
 11
61.4839
 21
119.113
  0
LINE
  8
0
 10
61.4839
 20
119.113
 11
61.9633
 21
118.634
  0
LINE
  8
0
 10
61.9633
 20
118.634
 11
62.39
 21
118.107
  0
LINE
  8
0
 10
62.39
 20
118.107
 11
62.7592
 21
117.538
  0
LINE
  8
0
 10
62.7592
 20
117.538
 11
63.067
 21
116.934
  0
LINE
  8
0
 10
63.067
 20
116.934
 11
63.31
 21
116.301
  0
LINE
  8
0
 10
63.31
 20
116.301
 11
63.4855
 21
115.647
  0
LINE
  8
0
 10
63.4855
 20
115.647
 11
63.5915
 21
114.977
  0
LINE
  8
0
 10
63.5915
 20
114.977
 11
63.627
 21
114.3
  0
LINE
  8
0
 10
63.627
 20
114.3
 11
63.5915
 21
113.623
  0
LINE
  8
0
 10
63.5915
 20
113.623
 11
63.4855
 21
112.953
  0
LINE
  8
0
 10
63.4855
 20
112.953
 11
63.31
 21
112.298
  0
LINE
  8
0
 10
63.31
 20
112.298
 11
63.067
 21
111.666
  0
LINE
  8
0
 10
63.067
 20
111.666
 11
62.7592
 21
111.061
  0
LINE
  8
0
 10
62.7592
 20
111.061
 11
62.39
 21
110.493
  0
LINE
  8
0
 10
62.39
 20
110.493
 11
61.9633
 21
109.966
  0
LINE
  8
0
 10
61.9633
 20
109.966
 11
61.4839
 21
109.487
  0
LINE
  8
0
 10
61.4839
 20
109.487
 11
60.9571
 21
109.06
  0
LINE
  8
0
 10
60.9571
 20
109.06
 11
60.3885
 21
108.691
  0
LINE
  8
0
 10
60.3885
 20
108.691
 11
59.7844
 21
108.383
  0
LINE
  8
0
 10
59.7844
 20
108.383
 11
59.1515
 21
108.14
  0
LINE
  8
0
 10
59.1515
 20
108.14
 11
58.4966
 21
107.965
  0
LINE
  8
0
 10
58.4966
 20
107.965
 11
57.827
 21
107.858
  0
LINE
  8
0
 10
57.827
 20
107.858
 11
57.15
 21
107.823
  0
LINE
  8
0
 10
57.15
 20
107.823
 11
56.473
 21
107.858
  0
LINE
  8
0
 10
43.4895
 20
99.057
 11
43.3056
 21
99.0862
  0
LINE
  8
0
 10
43.3056
 20
99.0862
 11
43.1259
 21
99.1343
  0
LINE
  8
0
 10
43.1259
 20
99.1343
 11
42.9521
 21
99.201
  0
LINE
  8
0
 10
42.9521
 20
99.201
 11
42.7863
 21
99.2855
  0
LINE
  8
0
 10
42.7863
 20
99.2855
 11
42.6302
 21
99.3869
  0
LINE
  8
0
 10
42.6302
 20
99.3869
 11
42.4856
 21
99.504
  0
LINE
  8
0
 10
42.4856
 20
99.504
 11
42.354
 21
99.6356
  0
LINE
  8
0
 10
42.354
 20
99.6356
 11
42.2369
 21
99.7802
  0
LINE
  8
0
 10
42.2369
 20
99.7802
 11
42.1355
 21
99.9363
  0
LINE
  8
0
 10
42.1355
 20
99.9363
 11
42.051
 21
100.102
  0
LINE
  8
0
 10
42.051
 20
100.102
 11
41.9843
 21
100.276
  0
LINE
  8
0
 10
41.9843
 20
100.276
 11
41.9362
 21
100.456
  0
LINE
  8
0
 10
41.9362
 20
100.456
 11
41.907
 21
100.639
  0
LINE
  8
0
 10
41.907
 20
100.639
 11
41.8973
 21
100.825
  0
LINE
  8
0
 10
41.8973
 20
100.825
 11
41.907
 21
101.011
  0
LINE
  8
0
 10
41.907
 20
101.011
 11
41.9362
 21
101.195
  0
LINE
  8
0
 10
41.9362
 20
101.195
 11
41.9843
 21
101.375
  0
LINE
  8
0
 10
41.9843
 20
101.375
 11
42.051
 21
101.548
  0
LINE
  8
0
 10
42.051
 20
101.548
 11
42.1355
 21
101.714
  0
LINE
  8
0
 10
42.1355
 20
101.714
 11
42.2369
 21
101.87
  0
LINE
  8
0
 10
42.2369
 20
101.87
 11
42.354
 21
102.015
  0
LINE
  8
0
 10
42.354
 20
102.015
 11
42.4856
 21
102.147
  0
LINE
  8
0
 10
42.4856
 20
102.147
 11
42.6302
 21
102.264
  0
LINE
  8
0
 10
42.6302
 20
102.264
 11
42.7863
 21
102.365
  0
LINE
  8
0
 10
42.7863
 20
102.365
 11
42.9521
 21
102.45
  0
LINE
  8
0
 10
42.9521
 20
102.45
 11
43.1259
 21
102.516
  0
LINE
  8
0
 10
43.1259
 20
102.516
 11
43.3056
 21
102.564
  0
LINE
  8
0
 10
43.3056
 20
102.564
 11
43.4895
 21
102.594
  0
LINE
  8
0
 10
43.4895
 20
102.594
 11
43.6753
 21
102.603
  0
LINE
  8
0
 10
43.6753
 20
102.603
 11
43.8612
 21
102.594
  0
LINE
  8
0
 10
43.8612
 20
102.594
 11
44.045
 21
102.564
  0
LINE
  8
0
 10
44.045
 20
102.564
 11
44.2247
 21
102.516
  0
LINE
  8
0
 10
44.2247
 20
102.516
 11
44.3985
 21
102.45
  0
LINE
  8
0
 10
44.3985
 20
102.45
 11
44.5643
 21
102.365
  0
LINE
  8
0
 10
44.5643
 20
102.365
 11
44.7204
 21
102.264
  0
LINE
  8
0
 10
44.7204
 20
102.264
 11
44.865
 21
102.147
  0
LINE
  8
0
 10
44.865
 20
102.147
 11
44.9966
 21
102.015
  0
LINE
  8
0
 10
44.9966
 20
102.015
 11
45.1137
 21
101.87
  0
LINE
  8
0
 10
45.1137
 20
101.87
 11
45.2151
 21
101.714
  0
LINE
  8
0
 10
45.2151
 20
101.714
 11
45.2996
 21
101.548
  0
LINE
  8
0
 10
45.2996
 20
101.548
 11
45.3663
 21
101.375
  0
LINE
  8
0
 10
45.3663
 20
101.375
 11
45.4144
 21
101.195
  0
LINE
  8
0
 10
45.4144
 20
101.195
 11
45.4436
 21
101.011
  0
LINE
  8
0
 10
45.4436
 20
101.011
 11
45.4533
 21
100.825
  0
LINE
  8
0
 10
45.4533
 20
100.825
 11
45.4436
 21
100.639
  0
LINE
  8
0
 10
45.4436
 20
100.639
 11
45.4144
 21
100.456
  0
LINE
  8
0
 10
45.4144
 20
100.456
 11
45.3663
 21
100.276
  0
LINE
  8
0
 10
45.3663
 20
100.276
 11
45.2996
 21
100.102
  0
LINE
  8
0
 10
45.2996
 20
100.102
 11
45.2151
 21
99.9363
  0
LINE
  8
0
 10
45.2151
 20
99.9363
 11
45.1137
 21
99.7802
  0
LINE
  8
0
 10
45.1137
 20
99.7802
 11
44.9966
 21
99.6356
  0
LINE
  8
0
 10
44.9966
 20
99.6356
 11
44.865
 21
99.504
  0
LINE
  8
0
 10
44.865
 20
99.504
 11
44.7204
 21
99.3869
  0
LINE
  8
0
 10
44.7204
 20
99.3869
 11
44.5643
 21
99.2855
  0
LINE
  8
0
 10
44.5643
 20
99.2855
 11
44.3985
 21
99.201
  0
LINE
  8
0
 10
44.3985
 20
99.201
 11
44.2247
 21
99.1343
  0
LINE
  8
0
 10
44.2247
 20
99.1343
 11
44.045
 21
99.0862
  0
LINE
  8
0
 10
44.045
 20
99.0862
 11
43.8612
 21
99.057
  0
LINE
  8
0
 10
43.8612
 20
99.057
 11
43.6753
 21
99.0473
  0
LINE
  8
0
 10
43.6753
 20
99.0473
 11
43.4895
 21
99.057
  0
LINE
  8
0
 10
70.4388
 20
99.057
 11
70.255
 21
99.0862
  0
LINE
  8
0
 10
70.255
 20
99.0862
 11
70.0753
 21
99.1343
  0
LINE
  8
0
 10
70.0753
 20
99.1343
 11
69.9015
 21
99.201
  0
LINE
  8
0
 10
69.9015
 20
99.201
 11
69.7357
 21
99.2855
  0
LINE
  8
0
 10
69.7357
 20
99.2855
 11
69.5796
 21
99.3869
  0
LINE
  8
0
 10
69.5796
 20
99.3869
 11
69.435
 21
99.504
  0
LINE
  8
0
 10
69.435
 20
99.504
 11
69.3034
 21
99.6356
  0
LINE
  8
0
 10
69.3034
 20
99.6356
 11
69.1862
 21
99.7802
  0
LINE
  8
0
 10
69.1862
 20
99.7802
 11
69.0849
 21
99.9363
  0
LINE
  8
0
 10
69.0849
 20
99.9363
 11
69.0004
 21
100.102
  0
LINE
  8
0
 10
69.0004
 20
100.102
 11
68.9337
 21
100.276
  0
LINE
  8
0
 10
68.9337
 20
100.276
 11
68.8855
 21
100.456
  0
LINE
  8
0
 10
68.8855
 20
100.456
 11
68.8564
 21
100.639
  0
LINE
  8
0
 10
68.8564
 20
100.639
 11
68.8467
 21
100.825
  0
LINE
  8
0
 10
68.8467
 20
100.825
 11
68.8564
 21
101.011
  0
LINE
  8
0
 10
68.8564
 20
101.011
 11
68.8855
 21
101.195
  0
LINE
  8
0
 10
68.8855
 20
101.195
 11
68.9337
 21
101.375
  0
LINE
  8
0
 10
68.9337
 20
101.375
 11
69.0004
 21
101.548
  0
LINE
  8
0
 10
69.0004
 20
101.548
 11
69.0849
 21
101.714
  0
LINE
  8
0
 10
69.0849
 20
101.714
 11
69.1862
 21
101.87
  0
LINE
  8
0
 10
69.1862
 20
101.87
 11
69.3034
 21
102.015
  0
LINE
  8
0
 10
69.3034
 20
102.015
 11
69.435
 21
102.147
  0
LINE
  8
0
 10
69.435
 20
102.147
 11
69.5796
 21
102.264
  0
LINE
  8
0
 10
69.5796
 20
102.264
 11
69.7357
 21
102.365
  0
LINE
  8
0
 10
69.7357
 20
102.365
 11
69.9015
 21
102.45
  0
LINE
  8
0
 10
69.9015
 20
102.45
 11
70.0753
 21
102.516
  0
LINE
  8
0
 10
70.0753
 20
102.516
 11
70.255
 21
102.564
  0
LINE
  8
0
 10
70.255
 20
102.564
 11
70.4388
 21
102.594
  0
LINE
  8
0
 10
70.4388
 20
102.594
 11
70.6247
 21
102.603
  0
LINE
  8
0
 10
70.6247
 20
102.603
 11
70.8105
 21
102.594
  0
LINE
  8
0
 10
70.8105
 20
102.594
 11
70.9944
 21
102.564
  0
LINE
  8
0
 10
70.9944
 20
102.564
 11
71.1741
 21
102.516
  0
LINE
  8
0
 10
71.1741
 20
102.516
 11
71.3479
 21
102.45
  0
LINE
  8
0
 10
71.3479
 20
102.45
 11
71.5137
 21
102.365
  0
LINE
  8
0
 10
71.5137
 20
102.365
 11
71.6698
 21
102.264
  0
LINE
  8
0
 10
71.6698
 20
102.264
 11
71.8144
 21
102.147
  0
LINE
  8
0
 10
71.8144
 20
102.147
 11
71.946
 21
102.015
  0
LINE
  8
0
 10
71.946
 20
102.015
 11
72.0631
 21
101.87
  0
LINE
  8
0
 10
72.0631
 20
101.87
 11
72.1645
 21
101.714
  0
LINE
  8
0
 10
72.1645
 20
101.714
 11
72.249
 21
101.548
  0
LINE
  8
0
 10
72.249
 20
101.548
 11
72.3157
 21
101.375
  0
LINE
  8
0
 10
72.3157
 20
101.375
 11
72.3638
 21
101.195
  0
LINE
  8
0
 10
72.3638
 20
101.195
 11
72.3929
 21
101.011
  0
LINE
  8
0
 10
72.3929
 20
101.011
 11
72.4027
 21
100.825
  0
LINE
  8
0
 10
72.4027
 20
100.825
 11
72.3929
 21
100.639
  0
LINE
  8
0
 10
72.3929
 20
100.639
 11
72.3638
 21
100.456
  0
LINE
  8
0
 10
72.3638
 20
100.456
 11
72.3157
 21
100.276
  0
LINE
  8
0
 10
72.3157
 20
100.276
 11
72.249
 21
100.102
  0
LINE
  8
0
 10
72.249
 20
100.102
 11
72.1645
 21
99.9363
  0
LINE
  8
0
 10
72.1645
 20
99.9363
 11
72.0631
 21
99.7802
  0
LINE
  8
0
 10
72.0631
 20
99.7802
 11
71.946
 21
99.6356
  0
LINE
  8
0
 10
71.946
 20
99.6356
 11
71.8144
 21
99.504
  0
LINE
  8
0
 10
71.8144
 20
99.504
 11
71.6698
 21
99.3869
  0
LINE
  8
0
 10
71.6698
 20
99.3869
 11
71.5137
 21
99.2855
  0
LINE
  8
0
 10
71.5137
 20
99.2855
 11
71.3479
 21
99.201
  0
LINE
  8
0
 10
71.3479
 20
99.201
 11
71.1741
 21
99.1343
  0
LINE
  8
0
 10
71.1741
 20
99.1343
 11
70.9944
 21
99.0862
  0
LINE
  8
0
 10
70.9944
 20
99.0862
 11
70.8105
 21
99.057
  0
LINE
  8
0
 10
70.8105
 20
99.057
 11
70.6247
 21
99.0473
  0
LINE
  8
0
 10
70.6247
 20
99.0473
 11
70.4388
 21
99.057
  0
LINE
  8
0
 10
299.039
 20
99.057
 11
298.855
 21
99.0862
  0
LINE
  8
0
 10
298.855
 20
99.0862
 11
298.675
 21
99.1343
  0
LINE
  8
0
 10
298.675
 20
99.1343
 11
298.502
 21
99.201
  0
LINE
  8
0
 10
298.502
 20
99.201
 11
298.336
 21
99.2855
  0
LINE
  8
0
 10
298.336
 20
99.2855
 11
298.18
 21
99.3869
  0
LINE
  8
0
 10
298.18
 20
99.3869
 11
298.035
 21
99.504
  0
LINE
  8
0
 10
298.035
 20
99.504
 11
297.903
 21
99.6356
  0
LINE
  8
0
 10
297.903
 20
99.6356
 11
297.786
 21
99.7802
  0
LINE
  8
0
 10
297.786
 20
99.7802
 11
297.685
 21
99.9363
  0
LINE
  8
0
 10
297.685
 20
99.9363
 11
297.6
 21
100.102
  0
LINE
  8
0
 10
297.6
 20
100.102
 11
297.534
 21
100.276
  0
LINE
  8
0
 10
297.534
 20
100.276
 11
297.486
 21
100.456
  0
LINE
  8
0
 10
297.486
 20
100.456
 11
297.456
 21
100.639
  0
LINE
  8
0
 10
297.456
 20
100.639
 11
297.447
 21
100.825
  0
LINE
  8
0
 10
297.447
 20
100.825
 11
297.456
 21
101.011
  0
LINE
  8
0
 10
297.456
 20
101.011
 11
297.486
 21
101.195
  0
LINE
  8
0
 10
297.486
 20
101.195
 11
297.534
 21
101.375
  0
LINE
  8
0
 10
297.534
 20
101.375
 11
297.6
 21
101.548
  0
LINE
  8
0
 10
297.6
 20
101.548
 11
297.685
 21
101.714
  0
LINE
  8
0
 10
297.685
 20
101.714
 11
297.786
 21
101.87
  0
LINE
  8
0
 10
297.786
 20
101.87
 11
297.903
 21
102.015
  0
LINE
  8
0
 10
297.903
 20
102.015
 11
298.035
 21
102.147
  0
LINE
  8
0
 10
298.035
 20
102.147
 11
298.18
 21
102.264
  0
LINE
  8
0
 10
298.18
 20
102.264
 11
298.336
 21
102.365
  0
LINE
  8
0
 10
298.336
 20
102.365
 11
298.502
 21
102.45
  0
LINE
  8
0
 10
298.502
 20
102.45
 11
298.675
 21
102.516
  0
LINE
  8
0
 10
298.675
 20
102.516
 11
298.855
 21
102.564
  0
LINE
  8
0
 10
298.855
 20
102.564
 11
299.039
 21
102.594
  0
LINE
  8
0
 10
299.039
 20
102.594
 11
299.225
 21
102.603
  0
LINE
  8
0
 10
299.225
 20
102.603
 11
299.411
 21
102.594
  0
LINE
  8
0
 10
299.411
 20
102.594
 11
299.594
 21
102.564
  0
LINE
  8
0
 10
299.594
 20
102.564
 11
299.774
 21
102.516
  0
LINE
  8
0
 10
299.774
 20
102.516
 11
299.948
 21
102.45
  0
LINE
  8
0
 10
299.948
 20
102.45
 11
300.114
 21
102.365
  0
LINE
  8
0
 10
300.114
 20
102.365
 11
300.27
 21
102.264
  0
LINE
  8
0
 10
300.27
 20
102.264
 11
300.414
 21
102.147
  0
LINE
  8
0
 10
300.414
 20
102.147
 11
300.546
 21
102.015
  0
LINE
  8
0
 10
300.546
 20
102.015
 11
300.663
 21
101.87
  0
LINE
  8
0
 10
300.663
 20
101.87
 11
300.764
 21
101.714
  0
LINE
  8
0
 10
300.764
 20
101.714
 11
300.849
 21
101.548
  0
LINE
  8
0
 10
300.849
 20
101.548
 11
300.916
 21
101.375
  0
LINE
  8
0
 10
300.916
 20
101.375
 11
300.964
 21
101.195
  0
LINE
  8
0
 10
300.964
 20
101.195
 11
300.993
 21
101.011
  0
LINE
  8
0
 10
300.993
 20
101.011
 11
301.003
 21
100.825
  0
LINE
  8
0
 10
301.003
 20
100.825
 11
300.993
 21
100.639
  0
LINE
  8
0
 10
300.993
 20
100.639
 11
300.964
 21
100.456
  0
LINE
  8
0
 10
300.964
 20
100.456
 11
300.916
 21
100.276
  0
LINE
  8
0
 10
300.916
 20
100.276
 11
300.849
 21
100.102
  0
LINE
  8
0
 10
300.849
 20
100.102
 11
300.764
 21
99.9363
  0
LINE
  8
0
 10
300.764
 20
99.9363
 11
300.663
 21
99.7802
  0
LINE
  8
0
 10
300.663
 20
99.7802
 11
300.546
 21
99.6356
  0
LINE
  8
0
 10
300.546
 20
99.6356
 11
300.414
 21
99.504
  0
LINE
  8
0
 10
300.414
 20
99.504
 11
300.27
 21
99.3869
  0
LINE
  8
0
 10
300.27
 20
99.3869
 11
300.114
 21
99.2855
  0
LINE
  8
0
 10
300.114
 20
99.2855
 11
299.948
 21
99.201
  0
LINE
  8
0
 10
299.948
 20
99.201
 11
299.774
 21
99.1343
  0
LINE
  8
0
 10
299.774
 20
99.1343
 11
299.594
 21
99.0862
  0
LINE
  8
0
 10
299.594
 20
99.0862
 11
299.411
 21
99.057
  0
LINE
  8
0
 10
299.411
 20
99.057
 11
299.225
 21
99.0473
  0
LINE
  8
0
 10
299.225
 20
99.0473
 11
299.039
 21
99.057
  0
LINE
  8
0
 10
5.38943
 20
99.057
 11
5.20563
 21
99.0862
  0
LINE
  8
0
 10
5.20563
 20
99.0862
 11
5.02586
 21
99.1343
  0
LINE
  8
0
 10
5.02586
 20
99.1343
 11
4.85211
 21
99.201
  0
LINE
  8
0
 10
4.85211
 20
99.201
 11
4.68629
 21
99.2855
  0
LINE
  8
0
 10
4.68629
 20
99.2855
 11
4.53021
 21
99.3869
  0
LINE
  8
0
 10
4.53021
 20
99.3869
 11
4.38557
 21
99.504
  0
LINE
  8
0
 10
4.38557
 20
99.504
 11
4.25398
 21
99.6356
  0
LINE
  8
0
 10
4.25398
 20
99.6356
 11
4.13686
 21
99.7802
  0
LINE
  8
0
 10
4.13686
 20
99.7802
 11
4.03549
 21
99.9363
  0
LINE
  8
0
 10
4.03549
 20
99.9363
 11
3.951
 21
100.102
  0
LINE
  8
0
 10
3.951
 20
100.102
 11
3.88431
 21
100.276
  0
LINE
  8
0
 10
3.88431
 20
100.276
 11
3.83615
 21
100.456
  0
LINE
  8
0
 10
3.83615
 20
100.456
 11
3.80704
 21
100.639
  0
LINE
  8
0
 10
3.80704
 20
100.639
 11
3.79729
 21
100.825
  0
LINE
  8
0
 10
3.79729
 20
100.825
 11
3.80704
 21
101.011
  0
LINE
  8
0
 10
3.80704
 20
101.011
 11
3.83615
 21
101.195
  0
LINE
  8
0
 10
3.83615
 20
101.195
 11
3.88431
 21
101.375
  0
LINE
  8
0
 10
3.88431
 20
101.375
 11
3.951
 21
101.548
  0
LINE
  8
0
 10
3.951
 20
101.548
 11
4.03549
 21
101.714
  0
LINE
  8
0
 10
4.03549
 20
101.714
 11
4.13686
 21
101.87
  0
LINE
  8
0
 10
4.13686
 20
101.87
 11
4.25398
 21
102.015
  0
LINE
  8
0
 10
4.25398
 20
102.015
 11
4.38557
 21
102.147
  0
LINE
  8
0
 10
4.38557
 20
102.147
 11
4.53021
 21
102.264
  0
LINE
  8
0
 10
4.53021
 20
102.264
 11
4.68629
 21
102.365
  0
LINE
  8
0
 10
4.68629
 20
102.365
 11
4.85211
 21
102.45
  0
LINE
  8
0
 10
4.85211
 20
102.45
 11
5.02586
 21
102.516
  0
LINE
  8
0
 10
5.02586
 20
102.516
 11
5.20563
 21
102.564
  0
LINE
  8
0
 10
5.20563
 20
102.564
 11
5.38943
 21
102.594
  0
LINE
  8
0
 10
5.38943
 20
102.594
 11
5.57529
 21
102.603
  0
LINE
  8
0
 10
5.57529
 20
102.603
 11
5.76114
 21
102.594
  0
LINE
  8
0
 10
5.76114
 20
102.594
 11
5.94496
 21
102.564
  0
LINE
  8
0
 10
5.94496
 20
102.564
 11
6.12473
 21
102.516
  0
LINE
  8
0
 10
6.12473
 20
102.516
 11
6.29848
 21
102.45
  0
LINE
  8
0
 10
6.29848
 20
102.45
 11
6.46429
 21
102.365
  0
LINE
  8
0
 10
6.46429
 20
102.365
 11
6.62038
 21
102.264
  0
LINE
  8
0
 10
6.62038
 20
102.264
 11
6.765
 21
102.147
  0
LINE
  8
0
 10
6.765
 20
102.147
 11
6.89661
 21
102.015
  0
LINE
  8
0
 10
6.89661
 20
102.015
 11
7.01372
 21
101.87
  0
LINE
  8
0
 10
7.01372
 20
101.87
 11
7.11508
 21
101.714
  0
LINE
  8
0
 10
7.11508
 20
101.714
 11
7.19957
 21
101.548
  0
LINE
  8
0
 10
7.19957
 20
101.548
 11
7.26627
 21
101.375
  0
LINE
  8
0
 10
7.26627
 20
101.375
 11
7.31444
 21
101.195
  0
LINE
  8
0
 10
7.31444
 20
101.195
 11
7.34355
 21
101.011
  0
LINE
  8
0
 10
7.34355
 20
101.011
 11
7.35329
 21
100.825
  0
LINE
  8
0
 10
7.35329
 20
100.825
 11
7.34355
 21
100.639
  0
LINE
  8
0
 10
7.34355
 20
100.639
 11
7.31444
 21
100.456
  0
LINE
  8
0
 10
7.31444
 20
100.456
 11
7.26627
 21
100.276
  0
LINE
  8
0
 10
7.26627
 20
100.276
 11
7.19957
 21
100.102
  0
LINE
  8
0
 10
7.19957
 20
100.102
 11
7.11508
 21
99.9363
  0
LINE
  8
0
 10
7.11508
 20
99.9363
 11
7.01372
 21
99.7802
  0
LINE
  8
0
 10
7.01372
 20
99.7802
 11
6.89661
 21
99.6356
  0
LINE
  8
0
 10
6.89661
 20
99.6356
 11
6.765
 21
99.504
  0
LINE
  8
0
 10
6.765
 20
99.504
 11
6.62038
 21
99.3869
  0
LINE
  8
0
 10
6.62038
 20
99.3869
 11
6.46429
 21
99.2855
  0
LINE
  8
0
 10
6.46429
 20
99.2855
 11
6.29848
 21
99.201
  0
LINE
  8
0
 10
6.29848
 20
99.201
 11
6.12473
 21
99.1343
  0
LINE
  8
0
 10
6.12473
 20
99.1343
 11
5.94496
 21
99.0862
  0
LINE
  8
0
 10
5.94496
 20
99.0862
 11
5.76114
 21
99.057
  0
LINE
  8
0
 10
5.76114
 20
99.057
 11
5.57529
 21
99.0473
  0
LINE
  8
0
 10
5.57529
 20
99.0473
 11
5.38943
 21
99.057
  0
LINE
  8
0
 10
245.14
 20
68.8564
 11
244.956
 21
68.8855
  0
LINE
  8
0
 10
244.956
 20
68.8855
 11
244.776
 21
68.9337
  0
LINE
  8
0
 10
244.776
 20
68.9337
 11
244.603
 21
69.0004
  0
LINE
  8
0
 10
244.603
 20
69.0004
 11
244.437
 21
69.0849
  0
LINE
  8
0
 10
244.437
 20
69.0849
 11
244.281
 21
69.1862
  0
LINE
  8
0
 10
244.281
 20
69.1862
 11
244.136
 21
69.3034
  0
LINE
  8
0
 10
244.136
 20
69.3034
 11
244.005
 21
69.435
  0
LINE
  8
0
 10
244.005
 20
69.435
 11
243.887
 21
69.5796
  0
LINE
  8
0
 10
243.887
 20
69.5796
 11
243.786
 21
69.7357
  0
LINE
  8
0
 10
243.786
 20
69.7357
 11
243.702
 21
69.9015
  0
LINE
  8
0
 10
243.702
 20
69.9015
 11
243.635
 21
70.0753
  0
LINE
  8
0
 10
243.635
 20
70.0753
 11
243.587
 21
70.255
  0
LINE
  8
0
 10
243.587
 20
70.255
 11
243.558
 21
70.4388
  0
LINE
  8
0
 10
243.558
 20
70.4388
 11
243.548
 21
70.6247
  0
LINE
  8
0
 10
243.548
 20
70.6247
 11
243.558
 21
70.8105
  0
LINE
  8
0
 10
243.558
 20
70.8105
 11
243.587
 21
70.9944
  0
LINE
  8
0
 10
243.587
 20
70.9944
 11
243.635
 21
71.1741
  0
LINE
  8
0
 10
243.635
 20
71.1741
 11
243.702
 21
71.3479
  0
LINE
  8
0
 10
243.702
 20
71.3479
 11
243.786
 21
71.5137
  0
LINE
  8
0
 10
243.786
 20
71.5137
 11
243.887
 21
71.6698
  0
LINE
  8
0
 10
243.887
 20
71.6698
 11
244.005
 21
71.8144
  0
LINE
  8
0
 10
244.005
 20
71.8144
 11
244.136
 21
71.946
  0
LINE
  8
0
 10
244.136
 20
71.946
 11
244.281
 21
72.0631
  0
LINE
  8
0
 10
244.281
 20
72.0631
 11
244.437
 21
72.1645
  0
LINE
  8
0
 10
244.437
 20
72.1645
 11
244.603
 21
72.249
  0
LINE
  8
0
 10
244.603
 20
72.249
 11
244.776
 21
72.3157
  0
LINE
  8
0
 10
244.776
 20
72.3157
 11
244.956
 21
72.3638
  0
LINE
  8
0
 10
244.956
 20
72.3638
 11
245.14
 21
72.3929
  0
LINE
  8
0
 10
245.14
 20
72.3929
 11
245.326
 21
72.4027
  0
LINE
  8
0
 10
245.326
 20
72.4027
 11
245.512
 21
72.3929
  0
LINE
  8
0
 10
245.512
 20
72.3929
 11
245.696
 21
72.3638
  0
LINE
  8
0
 10
245.696
 20
72.3638
 11
245.875
 21
72.3157
  0
LINE
  8
0
 10
245.875
 20
72.3157
 11
246.049
 21
72.249
  0
LINE
  8
0
 10
246.049
 20
72.249
 11
246.215
 21
72.1645
  0
LINE
  8
0
 10
246.215
 20
72.1645
 11
246.371
 21
72.0631
  0
LINE
  8
0
 10
246.371
 20
72.0631
 11
246.516
 21
71.946
  0
LINE
  8
0
 10
246.516
 20
71.946
 11
246.647
 21
71.8144
  0
LINE
  8
0
 10
246.647
 20
71.8144
 11
246.764
 21
71.6698
  0
LINE
  8
0
 10
246.764
 20
71.6698
 11
246.866
 21
71.5137
  0
LINE
  8
0
 10
246.866
 20
71.5137
 11
246.95
 21
71.3479
  0
LINE
  8
0
 10
246.95
 20
71.3479
 11
247.017
 21
71.1741
  0
LINE
  8
0
 10
247.017
 20
71.1741
 11
247.065
 21
70.9944
  0
LINE
  8
0
 10
247.065
 20
70.9944
 11
247.094
 21
70.8105
  0
LINE
  8
0
 10
247.094
 20
70.8105
 11
247.104
 21
70.6247
  0
LINE
  8
0
 10
247.104
 20
70.6247
 11
247.094
 21
70.4388
  0
LINE
  8
0
 10
247.094
 20
70.4388
 11
247.065
 21
70.255
  0
LINE
  8
0
 10
247.065
 20
70.255
 11
247.017
 21
70.0753
  0
LINE
  8
0
 10
247.017
 20
70.0753
 11
246.95
 21
69.9015
  0
LINE
  8
0
 10
246.95
 20
69.9015
 11
246.866
 21
69.7357
  0
LINE
  8
0
 10
246.866
 20
69.7357
 11
246.764
 21
69.5796
  0
LINE
  8
0
 10
246.764
 20
69.5796
 11
246.647
 21
69.435
  0
LINE
  8
0
 10
246.647
 20
69.435
 11
246.516
 21
69.3034
  0
LINE
  8
0
 10
246.516
 20
69.3034
 11
246.371
 21
69.1862
  0
LINE
  8
0
 10
246.371
 20
69.1862
 11
246.215
 21
69.0849
  0
LINE
  8
0
 10
246.215
 20
69.0849
 11
246.049
 21
69.0004
  0
LINE
  8
0
 10
246.049
 20
69.0004
 11
245.875
 21
68.9337
  0
LINE
  8
0
 10
245.875
 20
68.9337
 11
245.696
 21
68.8855
  0
LINE
  8
0
 10
245.696
 20
68.8855
 11
245.512
 21
68.8564
  0
LINE
  8
0
 10
245.512
 20
68.8564
 11
245.326
 21
68.8467
  0
LINE
  8
0
 10
245.326
 20
68.8467
 11
245.14
 21
68.8564
  0
LINE
  8
0
 10
272.089
 20
68.8564
 11
271.906
 21
68.8855
  0
LINE
  8
0
 10
271.906
 20
68.8855
 11
271.726
 21
68.9337
  0
LINE
  8
0
 10
271.726
 20
68.9337
 11
271.552
 21
69.0004
  0
LINE
  8
0
 10
271.552
 20
69.0004
 11
271.386
 21
69.0849
  0
LINE
  8
0
 10
271.386
 20
69.0849
 11
271.23
 21
69.1862
  0
LINE
  8
0
 10
271.23
 20
69.1862
 11
271.086
 21
69.3034
  0
LINE
  8
0
 10
271.086
 20
69.3034
 11
270.954
 21
69.435
  0
LINE
  8
0
 10
270.954
 20
69.435
 11
270.837
 21
69.5796
  0
LINE
  8
0
 10
270.837
 20
69.5796
 11
270.736
 21
69.7357
  0
LINE
  8
0
 10
270.736
 20
69.7357
 11
270.651
 21
69.9015
  0
LINE
  8
0
 10
270.651
 20
69.9015
 11
270.584
 21
70.0753
  0
LINE
  8
0
 10
270.584
 20
70.0753
 11
270.536
 21
70.255
  0
LINE
  8
0
 10
270.536
 20
70.255
 11
270.507
 21
70.4388
  0
LINE
  8
0
 10
270.507
 20
70.4388
 11
270.497
 21
70.6247
  0
LINE
  8
0
 10
270.497
 20
70.6247
 11
270.507
 21
70.8105
  0
LINE
  8
0
 10
270.507
 20
70.8105
 11
270.536
 21
70.9944
  0
LINE
  8
0
 10
270.536
 20
70.9944
 11
270.584
 21
71.1741
  0
LINE
  8
0
 10
270.584
 20
71.1741
 11
270.651
 21
71.3479
  0
LINE
  8
0
 10
270.651
 20
71.3479
 11
270.736
 21
71.5137
  0
LINE
  8
0
 10
270.736
 20
71.5137
 11
270.837
 21
71.6698
  0
LINE
  8
0
 10
270.837
 20
71.6698
 11
270.954
 21
71.8144
  0
LINE
  8
0
 10
270.954
 20
71.8144
 11
271.086
 21
71.946
  0
LINE
  8
0
 10
271.086
 20
71.946
 11
271.23
 21
72.0631
  0
LINE
  8
0
 10
271.23
 20
72.0631
 11
271.386
 21
72.1645
  0
LINE
  8
0
 10
271.386
 20
72.1645
 11
271.552
 21
72.249
  0
LINE
  8
0
 10
271.552
 20
72.249
 11
271.726
 21
72.3157
  0
LINE
  8
0
 10
271.726
 20
72.3157
 11
271.906
 21
72.3638
  0
LINE
  8
0
 10
271.906
 20
72.3638
 11
272.089
 21
72.3929
  0
LINE
  8
0
 10
272.089
 20
72.3929
 11
272.275
 21
72.4027
  0
LINE
  8
0
 10
272.275
 20
72.4027
 11
272.461
 21
72.3929
  0
LINE
  8
0
 10
272.461
 20
72.3929
 11
272.645
 21
72.3638
  0
LINE
  8
0
 10
272.645
 20
72.3638
 11
272.825
 21
72.3157
  0
LINE
  8
0
 10
272.825
 20
72.3157
 11
272.998
 21
72.249
  0
LINE
  8
0
 10
272.998
 20
72.249
 11
273.164
 21
72.1645
  0
LINE
  8
0
 10
273.164
 20
72.1645
 11
273.32
 21
72.0631
  0
LINE
  8
0
 10
273.32
 20
72.0631
 11
273.465
 21
71.946
  0
LINE
  8
0
 10
273.465
 20
71.946
 11
273.597
 21
71.8144
  0
LINE
  8
0
 10
273.597
 20
71.8144
 11
273.714
 21
71.6698
  0
LINE
  8
0
 10
273.714
 20
71.6698
 11
273.815
 21
71.5137
  0
LINE
  8
0
 10
273.815
 20
71.5137
 11
273.9
 21
71.3479
  0
LINE
  8
0
 10
273.9
 20
71.3479
 11
273.966
 21
71.1741
  0
LINE
  8
0
 10
273.966
 20
71.1741
 11
274.014
 21
70.9944
  0
LINE
  8
0
 10
274.014
 20
70.9944
 11
274.044
 21
70.8105
  0
LINE
  8
0
 10
274.044
 20
70.8105
 11
274.053
 21
70.6247
  0
LINE
  8
0
 10
274.053
 20
70.6247
 11
274.044
 21
70.4388
  0
LINE
  8
0
 10
274.044
 20
70.4388
 11
274.014
 21
70.255
  0
LINE
  8
0
 10
274.014
 20
70.255
 11
273.966
 21
70.0753
  0
LINE
  8
0
 10
273.966
 20
70.0753
 11
273.9
 21
69.9015
  0
LINE
  8
0
 10
273.9
 20
69.9015
 11
273.815
 21
69.7357
  0
LINE
  8
0
 10
273.815
 20
69.7357
 11
273.714
 21
69.5796
  0
LINE
  8
0
 10
273.714
 20
69.5796
 11
273.597
 21
69.435
  0
LINE
  8
0
 10
273.597
 20
69.435
 11
273.465
 21
69.3034
  0
LINE
  8
0
 10
273.465
 20
69.3034
 11
273.32
 21
69.1862
  0
LINE
  8
0
 10
273.32
 20
69.1862
 11
273.164
 21
69.0849
  0
LINE
  8
0
 10
273.164
 20
69.0849
 11
272.998
 21
69.0004
  0
LINE
  8
0
 10
272.998
 20
69.0004
 11
272.825
 21
68.9337
  0
LINE
  8
0
 10
272.825
 20
68.9337
 11
272.645
 21
68.8855
  0
LINE
  8
0
 10
272.645
 20
68.8855
 11
272.461
 21
68.8564
  0
LINE
  8
0
 10
272.461
 20
68.8564
 11
272.275
 21
68.8467
  0
LINE
  8
0
 10
272.275
 20
68.8467
 11
272.089
 21
68.8564
  0
LINE
  8
0
 10
258.134
 20
50.8095
 11
257.475
 21
50.9139
  0
LINE
  8
0
 10
257.475
 20
50.9139
 11
256.831
 21
51.0866
  0
LINE
  8
0
 10
256.831
 20
51.0866
 11
256.208
 21
51.3258
  0
LINE
  8
0
 10
256.208
 20
51.3258
 11
255.613
 21
51.6287
  0
LINE
  8
0
 10
255.613
 20
51.6287
 11
255.053
 21
51.9922
  0
LINE
  8
0
 10
255.053
 20
51.9922
 11
254.535
 21
52.4122
  0
LINE
  8
0
 10
254.535
 20
52.4122
 11
254.063
 21
52.884
  0
LINE
  8
0
 10
254.063
 20
52.884
 11
253.643
 21
53.4026
  0
LINE
  8
0
 10
253.643
 20
53.4026
 11
253.279
 21
53.9623
  0
LINE
  8
0
 10
253.279
 20
53.9623
 11
252.976
 21
54.5569
  0
LINE
  8
0
 10
252.976
 20
54.5569
 11
252.737
 21
55.1799
  0
LINE
  8
0
 10
252.737
 20
55.1799
 11
252.565
 21
55.8245
  0
LINE
  8
0
 10
252.565
 20
55.8245
 11
252.46
 21
56.4836
  0
LINE
  8
0
 10
252.46
 20
56.4836
 11
252.425
 21
57.15
  0
LINE
  8
0
 10
252.425
 20
57.15
 11
252.46
 21
57.8164
  0
LINE
  8
0
 10
252.46
 20
57.8164
 11
252.565
 21
58.4755
  0
LINE
  8
0
 10
252.565
 20
58.4755
 11
252.737
 21
59.1201
  0
LINE
  8
0
 10
252.737
 20
59.1201
 11
252.976
 21
59.7431
  0
LINE
  8
0
 10
252.976
 20
59.7431
 11
253.279
 21
60.3377
  0
LINE
  8
0
 10
253.279
 20
60.3377
 11
253.643
 21
60.8974
  0
LINE
  8
0
 10
253.643
 20
60.8974
 11
254.063
 21
61.416
  0
LINE
  8
0
 10
254.063
 20
61.416
 11
254.535
 21
61.8878
  0
LINE
  8
0
 10
254.535
 20
61.8878
 11
255.053
 21
62.3078
  0
LINE
  8
0
 10
255.053
 20
62.3078
 11
255.613
 21
62.6712
  0
LINE
  8
0
 10
255.613
 20
62.6712
 11
256.208
 21
62.9742
  0
LINE
  8
0
 10
256.208
 20
62.9742
 11
256.831
 21
63.2133
  0
LINE
  8
0
 10
256.831
 20
63.2133
 11
257.475
 21
63.3861
  0
LINE
  8
0
 10
257.475
 20
63.3861
 11
258.134
 21
63.4905
  0
LINE
  8
0
 10
258.134
 20
63.4905
 11
258.801
 21
63.5254
  0
LINE
  8
0
 10
258.801
 20
63.5254
 11
259.467
 21
63.4905
  0
LINE
  8
0
 10
259.467
 20
63.4905
 11
260.126
 21
63.3861
  0
LINE
  8
0
 10
260.126
 20
63.3861
 11
260.771
 21
63.2133
  0
LINE
  8
0
 10
260.771
 20
63.2133
 11
261.394
 21
62.9742
  0
LINE
  8
0
 10
261.394
 20
62.9742
 11
261.988
 21
62.6712
  0
LINE
  8
0
 10
261.988
 20
62.6712
 11
262.548
 21
62.3078
  0
LINE
  8
0
 10
262.548
 20
62.3078
 11
263.067
 21
61.8878
  0
LINE
  8
0
 10
263.067
 20
61.8878
 11
263.538
 21
61.416
  0
LINE
  8
0
 10
263.538
 20
61.416
 11
263.958
 21
60.8974
  0
LINE
  8
0
 10
263.958
 20
60.8974
 11
264.322
 21
60.3377
  0
LINE
  8
0
 10
264.322
 20
60.3377
 11
264.625
 21
59.7431
  0
LINE
  8
0
 10
264.625
 20
59.7431
 11
264.864
 21
59.1201
  0
LINE
  8
0
 10
264.864
 20
59.1201
 11
265.037
 21
58.4755
  0
LINE
  8
0
 10
265.037
 20
58.4755
 11
265.141
 21
57.8164
  0
LINE
  8
0
 10
265.141
 20
57.8164
 11
265.176
 21
57.15
  0
LINE
  8
0
 10
265.176
 20
57.15
 11
265.141
 21
56.4836
  0
LINE
  8
0
 10
265.141
 20
56.4836
 11
265.037
 21
55.8245
  0
LINE
  8
0
 10
265.037
 20
55.8245
 11
264.864
 21
55.1799
  0
LINE
  8
0
 10
264.864
 20
55.1799
 11
264.625
 21
54.5569
  0
LINE
  8
0
 10
264.625
 20
54.5569
 11
264.322
 21
53.9623
  0
LINE
  8
0
 10
264.322
 20
53.9623
 11
263.958
 21
53.4026
  0
LINE
  8
0
 10
263.958
 20
53.4026
 11
263.538
 21
52.884
  0
LINE
  8
0
 10
263.538
 20
52.884
 11
263.067
 21
52.4122
  0
LINE
  8
0
 10
263.067
 20
52.4122
 11
262.548
 21
51.9922
  0
LINE
  8
0
 10
262.548
 20
51.9922
 11
261.988
 21
51.6287
  0
LINE
  8
0
 10
261.988
 20
51.6287
 11
261.394
 21
51.3258
  0
LINE
  8
0
 10
261.394
 20
51.3258
 11
260.771
 21
51.0866
  0
LINE
  8
0
 10
260.771
 20
51.0866
 11
260.126
 21
50.9139
  0
LINE
  8
0
 10
260.126
 20
50.9139
 11
259.467
 21
50.8095
  0
LINE
  8
0
 10
259.467
 20
50.8095
 11
258.801
 21
50.7746
  0
LINE
  8
0
 10
258.801
 20
50.7746
 11
258.134
 21
50.8095
  0
LINE
  8
0
 10
248.836
 20
55.3817
 11
248.652
 21
55.4109
  0
LINE
  8
0
 10
248.652
 20
55.4109
 11
248.472
 21
55.459
  0
LINE
  8
0
 10
248.472
 20
55.459
 11
248.298
 21
55.5257
  0
LINE
  8
0
 10
248.298
 20
55.5257
 11
248.133
 21
55.6102
  0
LINE
  8
0
 10
248.133
 20
55.6102
 11
247.977
 21
55.7116
  0
LINE
  8
0
 10
247.977
 20
55.7116
 11
247.832
 21
55.8287
  0
LINE
  8
0
 10
247.832
 20
55.8287
 11
247.7
 21
55.9603
  0
LINE
  8
0
 10
247.7
 20
55.9603
 11
247.583
 21
56.1049
  0
LINE
  8
0
 10
247.583
 20
56.1049
 11
247.482
 21
56.261
  0
LINE
  8
0
 10
247.482
 20
56.261
 11
247.397
 21
56.4268
  0
LINE
  8
0
 10
247.397
 20
56.4268
 11
247.331
 21
56.6006
  0
LINE
  8
0
 10
247.331
 20
56.6006
 11
247.282
 21
56.7803
  0
LINE
  8
0
 10
247.282
 20
56.7803
 11
247.253
 21
56.9642
  0
LINE
  8
0
 10
247.253
 20
56.9642
 11
247.244
 21
57.15
  0
LINE
  8
0
 10
247.244
 20
57.15
 11
247.253
 21
57.3358
  0
LINE
  8
0
 10
247.253
 20
57.3358
 11
247.282
 21
57.5197
  0
LINE
  8
0
 10
247.282
 20
57.5197
 11
247.331
 21
57.6994
  0
LINE
  8
0
 10
247.331
 20
57.6994
 11
247.397
 21
57.8732
  0
LINE
  8
0
 10
247.397
 20
57.8732
 11
247.482
 21
58.039
  0
LINE
  8
0
 10
247.482
 20
58.039
 11
247.583
 21
58.1951
  0
LINE
  8
0
 10
247.583
 20
58.1951
 11
247.7
 21
58.3397
  0
LINE
  8
0
 10
247.7
 20
58.3397
 11
247.832
 21
58.4713
  0
LINE
  8
0
 10
247.832
 20
58.4713
 11
247.977
 21
58.5884
  0
LINE
  8
0
 10
247.977
 20
58.5884
 11
248.133
 21
58.6898
  0
LINE
  8
0
 10
248.133
 20
58.6898
 11
248.298
 21
58.7743
  0
LINE
  8
0
 10
248.298
 20
58.7743
 11
248.472
 21
58.841
  0
LINE
  8
0
 10
248.472
 20
58.841
 11
248.652
 21
58.8891
  0
LINE
  8
0
 10
248.652
 20
58.8891
 11
248.836
 21
58.9182
  0
LINE
  8
0
 10
248.836
 20
58.9182
 11
249.022
 21
58.928
  0
LINE
  8
0
 10
249.022
 20
58.928
 11
249.207
 21
58.9182
  0
LINE
  8
0
 10
249.207
 20
58.9182
 11
249.391
 21
58.8891
  0
LINE
  8
0
 10
249.391
 20
58.8891
 11
249.571
 21
58.841
  0
LINE
  8
0
 10
249.571
 20
58.841
 11
249.745
 21
58.7743
  0
LINE
  8
0
 10
249.745
 20
58.7743
 11
249.911
 21
58.6898
  0
LINE
  8
0
 10
249.911
 20
58.6898
 11
250.067
 21
58.5884
  0
LINE
  8
0
 10
250.067
 20
58.5884
 11
250.211
 21
58.4713
  0
LINE
  8
0
 10
250.211
 20
58.4713
 11
250.343
 21
58.3397
  0
LINE
  8
0
 10
250.343
 20
58.3397
 11
250.46
 21
58.1951
  0
LINE
  8
0
 10
250.46
 20
58.1951
 11
250.561
 21
58.039
  0
LINE
  8
0
 10
250.561
 20
58.039
 11
250.646
 21
57.8732
  0
LINE
  8
0
 10
250.646
 20
57.8732
 11
250.713
 21
57.6994
  0
LINE
  8
0
 10
250.713
 20
57.6994
 11
250.761
 21
57.5197
  0
LINE
  8
0
 10
250.761
 20
57.5197
 11
250.79
 21
57.3358
  0
LINE
  8
0
 10
250.79
 20
57.3358
 11
250.8
 21
57.15
  0
LINE
  8
0
 10
250.8
 20
57.15
 11
250.79
 21
56.9642
  0
LINE
  8
0
 10
250.79
 20
56.9642
 11
250.761
 21
56.7803
  0
LINE
  8
0
 10
250.761
 20
56.7803
 11
250.713
 21
56.6006
  0
LINE
  8
0
 10
250.713
 20
56.6006
 11
250.646
 21
56.4268
  0
LINE
  8
0
 10
250.646
 20
56.4268
 11
250.561
 21
56.261
  0
LINE
  8
0
 10
250.561
 20
56.261
 11
250.46
 21
56.1049
  0
LINE
  8
0
 10
250.46
 20
56.1049
 11
250.343
 21
55.9603
  0
LINE
  8
0
 10
250.343
 20
55.9603
 11
250.211
 21
55.8287
  0
LINE
  8
0
 10
250.211
 20
55.8287
 11
250.067
 21
55.7116
  0
LINE
  8
0
 10
250.067
 20
55.7116
 11
249.911
 21
55.6102
  0
LINE
  8
0
 10
249.911
 20
55.6102
 11
249.745
 21
55.5257
  0
LINE
  8
0
 10
249.745
 20
55.5257
 11
249.571
 21
55.459
  0
LINE
  8
0
 10
249.571
 20
55.459
 11
249.391
 21
55.4109
  0
LINE
  8
0
 10
249.391
 20
55.4109
 11
249.207
 21
55.3817
  0
LINE
  8
0
 10
249.207
 20
55.3817
 11
249.022
 21
55.372
  0
LINE
  8
0
 10
249.022
 20
55.372
 11
248.836
 21
55.3817
  0
LINE
  8
0
 10
268.394
 20
55.3817
 11
268.21
 21
55.4109
  0
LINE
  8
0
 10
268.21
 20
55.4109
 11
268.03
 21
55.459
  0
LINE
  8
0
 10
268.03
 20
55.459
 11
267.856
 21
55.5257
  0
LINE
  8
0
 10
267.856
 20
55.5257
 11
267.691
 21
55.6102
  0
LINE
  8
0
 10
267.691
 20
55.6102
 11
267.535
 21
55.7116
  0
LINE
  8
0
 10
267.535
 20
55.7116
 11
267.39
 21
55.8287
  0
LINE
  8
0
 10
267.39
 20
55.8287
 11
267.258
 21
55.9603
  0
LINE
  8
0
 10
267.258
 20
55.9603
 11
267.141
 21
56.1049
  0
LINE
  8
0
 10
267.141
 20
56.1049
 11
267.04
 21
56.261
  0
LINE
  8
0
 10
267.04
 20
56.261
 11
266.955
 21
56.4268
  0
LINE
  8
0
 10
266.955
 20
56.4268
 11
266.889
 21
56.6006
  0
LINE
  8
0
 10
266.889
 20
56.6006
 11
266.84
 21
56.7803
  0
LINE
  8
0
 10
266.84
 20
56.7803
 11
266.811
 21
56.9642
  0
LINE
  8
0
 10
266.811
 20
56.9642
 11
266.802
 21
57.15
  0
LINE
  8
0
 10
266.802
 20
57.15
 11
266.811
 21
57.3358
  0
LINE
  8
0
 10
266.811
 20
57.3358
 11
266.84
 21
57.5197
  0
LINE
  8
0
 10
266.84
 20
57.5197
 11
266.889
 21
57.6994
  0
LINE
  8
0
 10
266.889
 20
57.6994
 11
266.955
 21
57.8732
  0
LINE
  8
0
 10
266.955
 20
57.8732
 11
267.04
 21
58.039
  0
LINE
  8
0
 10
267.04
 20
58.039
 11
267.141
 21
58.1951
  0
LINE
  8
0
 10
267.141
 20
58.1951
 11
267.258
 21
58.3397
  0
LINE
  8
0
 10
267.258
 20
58.3397
 11
267.39
 21
58.4713
  0
LINE
  8
0
 10
267.39
 20
58.4713
 11
267.535
 21
58.5884
  0
LINE
  8
0
 10
267.535
 20
58.5884
 11
267.691
 21
58.6898
  0
LINE
  8
0
 10
267.691
 20
58.6898
 11
267.856
 21
58.7743
  0
LINE
  8
0
 10
267.856
 20
58.7743
 11
268.03
 21
58.841
  0
LINE
  8
0
 10
268.03
 20
58.841
 11
268.21
 21
58.8891
  0
LINE
  8
0
 10
268.21
 20
58.8891
 11
268.394
 21
58.9182
  0
LINE
  8
0
 10
268.394
 20
58.9182
 11
268.58
 21
58.928
  0
LINE
  8
0
 10
268.58
 20
58.928
 11
268.765
 21
58.9182
  0
LINE
  8
0
 10
268.765
 20
58.9182
 11
268.949
 21
58.8891
  0
LINE
  8
0
 10
268.949
 20
58.8891
 11
269.129
 21
58.841
  0
LINE
  8
0
 10
269.129
 20
58.841
 11
269.303
 21
58.7743
  0
LINE
  8
0
 10
269.303
 20
58.7743
 11
269.469
 21
58.6898
  0
LINE
  8
0
 10
269.469
 20
58.6898
 11
269.625
 21
58.5884
  0
LINE
  8
0
 10
269.625
 20
58.5884
 11
269.769
 21
58.4713
  0
LINE
  8
0
 10
269.769
 20
58.4713
 11
269.901
 21
58.3397
  0
LINE
  8
0
 10
269.901
 20
58.3397
 11
270.018
 21
58.1951
  0
LINE
  8
0
 10
270.018
 20
58.1951
 11
270.119
 21
58.039
  0
LINE
  8
0
 10
270.119
 20
58.039
 11
270.204
 21
57.8732
  0
LINE
  8
0
 10
270.204
 20
57.8732
 11
270.271
 21
57.6994
  0
LINE
  8
0
 10
270.271
 20
57.6994
 11
270.319
 21
57.5197
  0
LINE
  8
0
 10
270.319
 20
57.5197
 11
270.348
 21
57.3358
  0
LINE
  8
0
 10
270.348
 20
57.3358
 11
270.358
 21
57.15
  0
LINE
  8
0
 10
270.358
 20
57.15
 11
270.348
 21
56.9642
  0
LINE
  8
0
 10
270.348
 20
56.9642
 11
270.319
 21
56.7803
  0
LINE
  8
0
 10
270.319
 20
56.7803
 11
270.271
 21
56.6006
  0
LINE
  8
0
 10
270.271
 20
56.6006
 11
270.204
 21
56.4268
  0
LINE
  8
0
 10
270.204
 20
56.4268
 11
270.119
 21
56.261
  0
LINE
  8
0
 10
270.119
 20
56.261
 11
270.018
 21
56.1049
  0
LINE
  8
0
 10
270.018
 20
56.1049
 11
269.901
 21
55.9603
  0
LINE
  8
0
 10
269.901
 20
55.9603
 11
269.769
 21
55.8287
  0
LINE
  8
0
 10
269.769
 20
55.8287
 11
269.625
 21
55.7116
  0
LINE
  8
0
 10
269.625
 20
55.7116
 11
269.469
 21
55.6102
  0
LINE
  8
0
 10
269.469
 20
55.6102
 11
269.303
 21
55.5257
  0
LINE
  8
0
 10
269.303
 20
55.5257
 11
269.129
 21
55.459
  0
LINE
  8
0
 10
269.129
 20
55.459
 11
268.949
 21
55.4109
  0
LINE
  8
0
 10
268.949
 20
55.4109
 11
268.765
 21
55.3817
  0
LINE
  8
0
 10
268.765
 20
55.3817
 11
268.58
 21
55.372
  0
LINE
  8
0
 10
268.58
 20
55.372
 11
268.394
 21
55.3817
  0
LINE
  8
0
 10
245.14
 20
41.907
 11
244.956
 21
41.9362
  0
LINE
  8
0
 10
244.956
 20
41.9362
 11
244.776
 21
41.9843
  0
LINE
  8
0
 10
244.776
 20
41.9843
 11
244.603
 21
42.051
  0
LINE
  8
0
 10
244.603
 20
42.051
 11
244.437
 21
42.1355
  0
LINE
  8
0
 10
244.437
 20
42.1355
 11
244.281
 21
42.2369
  0
LINE
  8
0
 10
244.281
 20
42.2369
 11
244.136
 21
42.354
  0
LINE
  8
0
 10
244.136
 20
42.354
 11
244.005
 21
42.4856
  0
LINE
  8
0
 10
244.005
 20
42.4856
 11
243.887
 21
42.6302
  0
LINE
  8
0
 10
243.887
 20
42.6302
 11
243.786
 21
42.7863
  0
LINE
  8
0
 10
243.786
 20
42.7863
 11
243.702
 21
42.9521
  0
LINE
  8
0
 10
243.702
 20
42.9521
 11
243.635
 21
43.1259
  0
LINE
  8
0
 10
243.635
 20
43.1259
 11
243.587
 21
43.3056
  0
LINE
  8
0
 10
243.587
 20
43.3056
 11
243.558
 21
43.4895
  0
LINE
  8
0
 10
243.558
 20
43.4895
 11
243.548
 21
43.6753
  0
LINE
  8
0
 10
243.548
 20
43.6753
 11
243.558
 21
43.8612
  0
LINE
  8
0
 10
243.558
 20
43.8612
 11
243.587
 21
44.045
  0
LINE
  8
0
 10
243.587
 20
44.045
 11
243.635
 21
44.2247
  0
LINE
  8
0
 10
243.635
 20
44.2247
 11
243.702
 21
44.3985
  0
LINE
  8
0
 10
243.702
 20
44.3985
 11
243.786
 21
44.5643
  0
LINE
  8
0
 10
243.786
 20
44.5643
 11
243.887
 21
44.7204
  0
LINE
  8
0
 10
243.887
 20
44.7204
 11
244.005
 21
44.865
  0
LINE
  8
0
 10
244.005
 20
44.865
 11
244.136
 21
44.9966
  0
LINE
  8
0
 10
244.136
 20
44.9966
 11
244.281
 21
45.1137
  0
LINE
  8
0
 10
244.281
 20
45.1137
 11
244.437
 21
45.2151
  0
LINE
  8
0
 10
244.437
 20
45.2151
 11
244.603
 21
45.2996
  0
LINE
  8
0
 10
244.603
 20
45.2996
 11
244.776
 21
45.3663
  0
LINE
  8
0
 10
244.776
 20
45.3663
 11
244.956
 21
45.4144
  0
LINE
  8
0
 10
244.956
 20
45.4144
 11
245.14
 21
45.4436
  0
LINE
  8
0
 10
245.14
 20
45.4436
 11
245.326
 21
45.4533
  0
LINE
  8
0
 10
245.326
 20
45.4533
 11
245.512
 21
45.4436
  0
LINE
  8
0
 10
245.512
 20
45.4436
 11
245.696
 21
45.4144
  0
LINE
  8
0
 10
245.696
 20
45.4144
 11
245.875
 21
45.3663
  0
LINE
  8
0
 10
245.875
 20
45.3663
 11
246.049
 21
45.2996
  0
LINE
  8
0
 10
246.049
 20
45.2996
 11
246.215
 21
45.2151
  0
LINE
  8
0
 10
246.215
 20
45.2151
 11
246.371
 21
45.1137
  0
LINE
  8
0
 10
246.371
 20
45.1137
 11
246.516
 21
44.9966
  0
LINE
  8
0
 10
246.516
 20
44.9966
 11
246.647
 21
44.865
  0
LINE
  8
0
 10
246.647
 20
44.865
 11
246.764
 21
44.7204
  0
LINE
  8
0
 10
246.764
 20
44.7204
 11
246.866
 21
44.5643
  0
LINE
  8
0
 10
246.866
 20
44.5643
 11
246.95
 21
44.3985
  0
LINE
  8
0
 10
246.95
 20
44.3985
 11
247.017
 21
44.2247
  0
LINE
  8
0
 10
247.017
 20
44.2247
 11
247.065
 21
44.045
  0
LINE
  8
0
 10
247.065
 20
44.045
 11
247.094
 21
43.8612
  0
LINE
  8
0
 10
247.094
 20
43.8612
 11
247.104
 21
43.6753
  0
LINE
  8
0
 10
247.104
 20
43.6753
 11
247.094
 21
43.4895
  0
LINE
  8
0
 10
247.094
 20
43.4895
 11
247.065
 21
43.3056
  0
LINE
  8
0
 10
247.065
 20
43.3056
 11
247.017
 21
43.1259
  0
LINE
  8
0
 10
247.017
 20
43.1259
 11
246.95
 21
42.9521
  0
LINE
  8
0
 10
246.95
 20
42.9521
 11
246.866
 21
42.7863
  0
LINE
  8
0
 10
246.866
 20
42.7863
 11
246.764
 21
42.6302
  0
LINE
  8
0
 10
246.764
 20
42.6302
 11
246.647
 21
42.4856
  0
LINE
  8
0
 10
246.647
 20
42.4856
 11
246.516
 21
42.354
  0
LINE
  8
0
 10
246.516
 20
42.354
 11
246.371
 21
42.2369
  0
LINE
  8
0
 10
246.371
 20
42.2369
 11
246.215
 21
42.1355
  0
LINE
  8
0
 10
246.215
 20
42.1355
 11
246.049
 21
42.051
  0
LINE
  8
0
 10
246.049
 20
42.051
 11
245.875
 21
41.9843
  0
LINE
  8
0
 10
245.875
 20
41.9843
 11
245.696
 21
41.9362
  0
LINE
  8
0
 10
245.696
 20
41.9362
 11
245.512
 21
41.907
  0
LINE
  8
0
 10
245.512
 20
41.907
 11
245.326
 21
41.8973
  0
LINE
  8
0
 10
245.326
 20
41.8973
 11
245.14
 21
41.907
  0
LINE
  8
0
 10
272.089
 20
41.907
 11
271.906
 21
41.9362
  0
LINE
  8
0
 10
271.906
 20
41.9362
 11
271.726
 21
41.9843
  0
LINE
  8
0
 10
271.726
 20
41.9843
 11
271.552
 21
42.051
  0
LINE
  8
0
 10
271.552
 20
42.051
 11
271.386
 21
42.1355
  0
LINE
  8
0
 10
271.386
 20
42.1355
 11
271.23
 21
42.2369
  0
LINE
  8
0
 10
271.23
 20
42.2369
 11
271.086
 21
42.354
  0
LINE
  8
0
 10
271.086
 20
42.354
 11
270.954
 21
42.4856
  0
LINE
  8
0
 10
270.954
 20
42.4856
 11
270.837
 21
42.6302
  0
LINE
  8
0
 10
270.837
 20
42.6302
 11
270.736
 21
42.7863
  0
LINE
  8
0
 10
270.736
 20
42.7863
 11
270.651
 21
42.9521
  0
LINE
  8
0
 10
270.651
 20
42.9521
 11
270.584
 21
43.1259
  0
LINE
  8
0
 10
270.584
 20
43.1259
 11
270.536
 21
43.3056
  0
LINE
  8
0
 10
270.536
 20
43.3056
 11
270.507
 21
43.4895
  0
LINE
  8
0
 10
270.507
 20
43.4895
 11
270.497
 21
43.6753
  0
LINE
  8
0
 10
270.497
 20
43.6753
 11
270.507
 21
43.8612
  0
LINE
  8
0
 10
270.507
 20
43.8612
 11
270.536
 21
44.045
  0
LINE
  8
0
 10
270.536
 20
44.045
 11
270.584
 21
44.2247
  0
LINE
  8
0
 10
270.584
 20
44.2247
 11
270.651
 21
44.3985
  0
LINE
  8
0
 10
270.651
 20
44.3985
 11
270.736
 21
44.5643
  0
LINE
  8
0
 10
270.736
 20
44.5643
 11
270.837
 21
44.7204
  0
LINE
  8
0
 10
270.837
 20
44.7204
 11
270.954
 21
44.865
  0
LINE
  8
0
 10
270.954
 20
44.865
 11
271.086
 21
44.9966
  0
LINE
  8
0
 10
271.086
 20
44.9966
 11
271.23
 21
45.1137
  0
LINE
  8
0
 10
271.23
 20
45.1137
 11
271.386
 21
45.2151
  0
LINE
  8
0
 10
271.386
 20
45.2151
 11
271.552
 21
45.2996
  0
LINE
  8
0
 10
271.552
 20
45.2996
 11
271.726
 21
45.3663
  0
LINE
  8
0
 10
271.726
 20
45.3663
 11
271.906
 21
45.4144
  0
LINE
  8
0
 10
271.906
 20
45.4144
 11
272.089
 21
45.4436
  0
LINE
  8
0
 10
272.089
 20
45.4436
 11
272.275
 21
45.4533
  0
LINE
  8
0
 10
272.275
 20
45.4533
 11
272.461
 21
45.4436
  0
LINE
  8
0
 10
272.461
 20
45.4436
 11
272.645
 21
45.4144
  0
LINE
  8
0
 10
272.645
 20
45.4144
 11
272.825
 21
45.3663
  0
LINE
  8
0
 10
272.825
 20
45.3663
 11
272.998
 21
45.2996
  0
LINE
  8
0
 10
272.998
 20
45.2996
 11
273.164
 21
45.2151
  0
LINE
  8
0
 10
273.164
 20
45.2151
 11
273.32
 21
45.1137
  0
LINE
  8
0
 10
273.32
 20
45.1137
 11
273.465
 21
44.9966
  0
LINE
  8
0
 10
273.465
 20
44.9966
 11
273.597
 21
44.865
  0
LINE
  8
0
 10
273.597
 20
44.865
 11
273.714
 21
44.7204
  0
LINE
  8
0
 10
273.714
 20
44.7204
 11
273.815
 21
44.5643
  0
LINE
  8
0
 10
273.815
 20
44.5643
 11
273.9
 21
44.3985
  0
LINE
  8
0
 10
273.9
 20
44.3985
 11
273.966
 21
44.2247
  0
LINE
  8
0
 10
273.966
 20
44.2247
 11
274.014
 21
44.045
  0
LINE
  8
0
 10
274.014
 20
44.045
 11
274.044
 21
43.8612
  0
LINE
  8
0
 10
274.044
 20
43.8612
 11
274.053
 21
43.6753
  0
LINE
  8
0
 10
274.053
 20
43.6753
 11
274.044
 21
43.4895
  0
LINE
  8
0
 10
274.044
 20
43.4895
 11
274.014
 21
43.3056
  0
LINE
  8
0
 10
274.014
 20
43.3056
 11
273.966
 21
43.1259
  0
LINE
  8
0
 10
273.966
 20
43.1259
 11
273.9
 21
42.9521
  0
LINE
  8
0
 10
273.9
 20
42.9521
 11
273.815
 21
42.7863
  0
LINE
  8
0
 10
273.815
 20
42.7863
 11
273.714
 21
42.6302
  0
LINE
  8
0
 10
273.714
 20
42.6302
 11
273.597
 21
42.4856
  0
LINE
  8
0
 10
273.597
 20
42.4856
 11
273.465
 21
42.354
  0
LINE
  8
0
 10
273.465
 20
42.354
 11
273.32
 21
42.2369
  0
LINE
  8
0
 10
273.32
 20
42.2369
 11
273.164
 21
42.1355
  0
LINE
  8
0
 10
273.164
 20
42.1355
 11
272.998
 21
42.051
  0
LINE
  8
0
 10
272.998
 20
42.051
 11
272.825
 21
41.9843
  0
LINE
  8
0
 10
272.825
 20
41.9843
 11
272.645
 21
41.9362
  0
LINE
  8
0
 10
272.645
 20
41.9362
 11
272.461
 21
41.907
  0
LINE
  8
0
 10
272.461
 20
41.907
 11
272.275
 21
41.8973
  0
LINE
  8
0
 10
272.275
 20
41.8973
 11
272.089
 21
41.907
  0
LINE
  8
0
 10
253.039
 20
41.907
 11
252.856
 21
41.9361
  0
LINE
  8
0
 10
252.856
 20
41.9361
 11
252.676
 21
41.9843
  0
LINE
  8
0
 10
252.676
 20
41.9843
 11
252.502
 21
42.051
  0
LINE
  8
0
 10
252.502
 20
42.051
 11
252.336
 21
42.1355
  0
LINE
  8
0
 10
252.336
 20
42.1355
 11
252.18
 21
42.2369
  0
LINE
  8
0
 10
252.18
 20
42.2369
 11
252.036
 21
42.354
  0
LINE
  8
0
 10
252.036
 20
42.354
 11
251.904
 21
42.4856
  0
LINE
  8
0
 10
251.904
 20
42.4856
 11
251.787
 21
42.6302
  0
LINE
  8
0
 10
251.787
 20
42.6302
 11
251.686
 21
42.7863
  0
LINE
  8
0
 10
251.686
 20
42.7863
 11
251.601
 21
42.9521
  0
LINE
  8
0
 10
251.601
 20
42.9521
 11
251.534
 21
43.1259
  0
LINE
  8
0
 10
251.534
 20
43.1259
 11
251.486
 21
43.3056
  0
LINE
  8
0
 10
251.486
 20
43.3056
 11
251.457
 21
43.4894
  0
LINE
  8
0
 10
251.457
 20
43.4894
 11
251.447
 21
43.6753
  0
LINE
  8
0
 10
251.447
 20
43.6753
 11
251.457
 21
43.8611
  0
LINE
  8
0
 10
251.457
 20
43.8611
 11
251.486
 21
44.045
  0
LINE
  8
0
 10
251.486
 20
44.045
 11
251.534
 21
44.2247
  0
LINE
  8
0
 10
251.534
 20
44.2247
 11
251.601
 21
44.3985
  0
LINE
  8
0
 10
251.601
 20
44.3985
 11
251.686
 21
44.5643
  0
LINE
  8
0
 10
251.686
 20
44.5643
 11
251.787
 21
44.7204
  0
LINE
  8
0
 10
251.787
 20
44.7204
 11
251.904
 21
44.865
  0
LINE
  8
0
 10
251.904
 20
44.865
 11
252.036
 21
44.9966
  0
LINE
  8
0
 10
252.036
 20
44.9966
 11
252.18
 21
45.1137
  0
LINE
  8
0
 10
252.18
 20
45.1137
 11
252.336
 21
45.2151
  0
LINE
  8
0
 10
252.336
 20
45.2151
 11
252.502
 21
45.2996
  0
LINE
  8
0
 10
252.502
 20
45.2996
 11
252.676
 21
45.3663
  0
LINE
  8
0
 10
252.676
 20
45.3663
 11
252.856
 21
45.4144
  0
LINE
  8
0
 10
252.856
 20
45.4144
 11
253.039
 21
45.4436
  0
LINE
  8
0
 10
253.039
 20
45.4436
 11
253.225
 21
45.4533
  0
LINE
  8
0
 10
253.225
 20
45.4533
 11
253.411
 21
45.4436
  0
LINE
  8
0
 10
253.411
 20
45.4436
 11
253.595
 21
45.4144
  0
LINE
  8
0
 10
253.595
 20
45.4144
 11
253.775
 21
45.3663
  0
LINE
  8
0
 10
253.775
 20
45.3663
 11
253.948
 21
45.2996
  0
LINE
  8
0
 10
253.948
 20
45.2996
 11
254.114
 21
45.2151
  0
LINE
  8
0
 10
254.114
 20
45.2151
 11
254.27
 21
45.1137
  0
LINE
  8
0
 10
254.27
 20
45.1137
 11
254.415
 21
44.9966
  0
LINE
  8
0
 10
254.415
 20
44.9966
 11
254.547
 21
44.865
  0
LINE
  8
0
 10
254.547
 20
44.865
 11
254.664
 21
44.7204
  0
LINE
  8
0
 10
254.664
 20
44.7204
 11
254.765
 21
44.5643
  0
LINE
  8
0
 10
254.765
 20
44.5643
 11
254.85
 21
44.3985
  0
LINE
  8
0
 10
254.85
 20
44.3985
 11
254.916
 21
44.2247
  0
LINE
  8
0
 10
254.916
 20
44.2247
 11
254.964
 21
44.045
  0
LINE
  8
0
 10
254.964
 20
44.045
 11
254.994
 21
43.8611
  0
LINE
  8
0
 10
254.994
 20
43.8611
 11
255.003
 21
43.6753
  0
LINE
  8
0
 10
255.003
 20
43.6753
 11
254.994
 21
43.4894
  0
LINE
  8
0
 10
254.994
 20
43.4894
 11
254.964
 21
43.3056
  0
LINE
  8
0
 10
254.964
 20
43.3056
 11
254.916
 21
43.1259
  0
LINE
  8
0
 10
254.916
 20
43.1259
 11
254.85
 21
42.9521
  0
LINE
  8
0
 10
254.85
 20
42.9521
 11
254.765
 21
42.7863
  0
LINE
  8
0
 10
254.765
 20
42.7863
 11
254.664
 21
42.6302
  0
LINE
  8
0
 10
254.664
 20
42.6302
 11
254.547
 21
42.4856
  0
LINE
  8
0
 10
254.547
 20
42.4856
 11
254.415
 21
42.354
  0
LINE
  8
0
 10
254.415
 20
42.354
 11
254.27
 21
42.2369
  0
LINE
  8
0
 10
254.27
 20
42.2369
 11
254.114
 21
42.1355
  0
LINE
  8
0
 10
254.114
 20
42.1355
 11
253.948
 21
42.051
  0
LINE
  8
0
 10
253.948
 20
42.051
 11
253.775
 21
41.9843
  0
LINE
  8
0
 10
253.775
 20
41.9843
 11
253.595
 21
41.9361
  0
LINE
  8
0
 10
253.595
 20
41.9361
 11
253.411
 21
41.907
  0
LINE
  8
0
 10
253.411
 20
41.907
 11
253.225
 21
41.8973
  0
LINE
  8
0
 10
253.225
 20
41.8973
 11
253.039
 21
41.907
  0
LINE
  8
0
 10
81.5894
 20
41.907
 11
81.4056
 21
41.9361
  0
LINE
  8
0
 10
81.4056
 20
41.9361
 11
81.2259
 21
41.9843
  0
LINE
  8
0
 10
81.2259
 20
41.9843
 11
81.0521
 21
42.051
  0
LINE
  8
0
 10
81.0521
 20
42.051
 11
80.8863
 21
42.1355
  0
LINE
  8
0
 10
80.8863
 20
42.1355
 11
80.7302
 21
42.2369
  0
LINE
  8
0
 10
80.7302
 20
42.2369
 11
80.5856
 21
42.354
  0
LINE
  8
0
 10
80.5856
 20
42.354
 11
80.454
 21
42.4856
  0
LINE
  8
0
 10
80.454
 20
42.4856
 11
80.3369
 21
42.6302
  0
LINE
  8
0
 10
80.3369
 20
42.6302
 11
80.2355
 21
42.7863
  0
LINE
  8
0
 10
80.2355
 20
42.7863
 11
80.151
 21
42.9521
  0
LINE
  8
0
 10
80.151
 20
42.9521
 11
80.0843
 21
43.1259
  0
LINE
  8
0
 10
80.0843
 20
43.1259
 11
80.0361
 21
43.3056
  0
LINE
  8
0
 10
80.0361
 20
43.3056
 11
80.007
 21
43.4894
  0
LINE
  8
0
 10
80.007
 20
43.4894
 11
79.9973
 21
43.6753
  0
LINE
  8
0
 10
79.9973
 20
43.6753
 11
80.007
 21
43.8611
  0
LINE
  8
0
 10
80.007
 20
43.8611
 11
80.0361
 21
44.045
  0
LINE
  8
0
 10
80.0361
 20
44.045
 11
80.0843
 21
44.2247
  0
LINE
  8
0
 10
80.0843
 20
44.2247
 11
80.151
 21
44.3985
  0
LINE
  8
0
 10
80.151
 20
44.3985
 11
80.2355
 21
44.5643
  0
LINE
  8
0
 10
80.2355
 20
44.5643
 11
80.3369
 21
44.7204
  0
LINE
  8
0
 10
80.3369
 20
44.7204
 11
80.454
 21
44.865
  0
LINE
  8
0
 10
80.454
 20
44.865
 11
80.5856
 21
44.9966
  0
LINE
  8
0
 10
80.5856
 20
44.9966
 11
80.7302
 21
45.1137
  0
LINE
  8
0
 10
80.7302
 20
45.1137
 11
80.8863
 21
45.2151
  0
LINE
  8
0
 10
80.8863
 20
45.2151
 11
81.0521
 21
45.2996
  0
LINE
  8
0
 10
81.0521
 20
45.2996
 11
81.2259
 21
45.3663
  0
LINE
  8
0
 10
81.2259
 20
45.3663
 11
81.4056
 21
45.4144
  0
LINE
  8
0
 10
81.4056
 20
45.4144
 11
81.5894
 21
45.4436
  0
LINE
  8
0
 10
81.5894
 20
45.4436
 11
81.7753
 21
45.4533
  0
LINE
  8
0
 10
81.7753
 20
45.4533
 11
81.9612
 21
45.4436
  0
LINE
  8
0
 10
81.9612
 20
45.4436
 11
82.145
 21
45.4144
  0
LINE
  8
0
 10
82.145
 20
45.4144
 11
82.3247
 21
45.3663
  0
LINE
  8
0
 10
82.3247
 20
45.3663
 11
82.4985
 21
45.2996
  0
LINE
  8
0
 10
82.4985
 20
45.2996
 11
82.6643
 21
45.2151
  0
LINE
  8
0
 10
82.6643
 20
45.2151
 11
82.8204
 21
45.1137
  0
LINE
  8
0
 10
82.8204
 20
45.1137
 11
82.965
 21
44.9966
  0
LINE
  8
0
 10
82.965
 20
44.9966
 11
83.0966
 21
44.865
  0
LINE
  8
0
 10
83.0966
 20
44.865
 11
83.2137
 21
44.7204
  0
LINE
  8
0
 10
83.2137
 20
44.7204
 11
83.3151
 21
44.5643
  0
LINE
  8
0
 10
83.3151
 20
44.5643
 11
83.3996
 21
44.3985
  0
LINE
  8
0
 10
83.3996
 20
44.3985
 11
83.4663
 21
44.2247
  0
LINE
  8
0
 10
83.4663
 20
44.2247
 11
83.5144
 21
44.045
  0
LINE
  8
0
 10
83.5144
 20
44.045
 11
83.5435
 21
43.8611
  0
LINE
  8
0
 10
83.5435
 20
43.8611
 11
83.5533
 21
43.6753
  0
LINE
  8
0
 10
83.5533
 20
43.6753
 11
83.5435
 21
43.4894
  0
LINE
  8
0
 10
83.5435
 20
43.4894
 11
83.5144
 21
43.3056
  0
LINE
  8
0
 10
83.5144
 20
43.3056
 11
83.4663
 21
43.1259
  0
LINE
  8
0
 10
83.4663
 20
43.1259
 11
83.3996
 21
42.9521
  0
LINE
  8
0
 10
83.3996
 20
42.9521
 11
83.3151
 21
42.7863
  0
LINE
  8
0
 10
83.3151
 20
42.7863
 11
83.2137
 21
42.6302
  0
LINE
  8
0
 10
83.2137
 20
42.6302
 11
83.0966
 21
42.4856
  0
LINE
  8
0
 10
83.0966
 20
42.4856
 11
82.965
 21
42.354
  0
LINE
  8
0
 10
82.965
 20
42.354
 11
82.8204
 21
42.2369
  0
LINE
  8
0
 10
82.8204
 20
42.2369
 11
82.6643
 21
42.1355
  0
LINE
  8
0
 10
82.6643
 20
42.1355
 11
82.4985
 21
42.051
  0
LINE
  8
0
 10
82.4985
 20
42.051
 11
82.3247
 21
41.9843
  0
LINE
  8
0
 10
82.3247
 20
41.9843
 11
82.145
 21
41.9361
  0
LINE
  8
0
 10
82.145
 20
41.9361
 11
81.9612
 21
41.907
  0
LINE
  8
0
 10
81.9612
 20
41.907
 11
81.7753
 21
41.8973
  0
LINE
  8
0
 10
81.7753
 20
41.8973
 11
81.5894
 21
41.907
  0
LINE
  8
0
 10
165.689
 20
3.80704
 11
165.505
 21
3.83615
  0
LINE
  8
0
 10
165.505
 20
3.83615
 11
165.325
 21
3.88431
  0
LINE
  8
0
 10
165.325
 20
3.88431
 11
165.152
 21
3.951
  0
LINE
  8
0
 10
165.152
 20
3.951
 11
164.986
 21
4.03549
  0
LINE
  8
0
 10
164.986
 20
4.03549
 11
164.83
 21
4.13686
  0
LINE
  8
0
 10
164.83
 20
4.13686
 11
164.685
 21
4.25398
  0
LINE
  8
0
 10
164.685
 20
4.25398
 11
164.553
 21
4.38557
  0
LINE
  8
0
 10
164.553
 20
4.38557
 11
164.436
 21
4.53021
  0
LINE
  8
0
 10
164.436
 20
4.53021
 11
164.335
 21
4.68629
  0
LINE
  8
0
 10
164.335
 20
4.68629
 11
164.25
 21
4.85211
  0
LINE
  8
0
 10
164.25
 20
4.85211
 11
164.184
 21
5.02586
  0
LINE
  8
0
 10
164.184
 20
5.02586
 11
164.136
 21
5.20563
  0
LINE
  8
0
 10
164.136
 20
5.20563
 11
164.106
 21
5.38943
  0
LINE
  8
0
 10
164.106
 20
5.38943
 11
164.097
 21
5.57529
  0
LINE
  8
0
 10
164.097
 20
5.57529
 11
164.106
 21
5.76114
  0
LINE
  8
0
 10
164.106
 20
5.76114
 11
164.136
 21
5.94496
  0
LINE
  8
0
 10
164.136
 20
5.94496
 11
164.184
 21
6.12473
  0
LINE
  8
0
 10
164.184
 20
6.12473
 11
164.25
 21
6.29848
  0
LINE
  8
0
 10
164.25
 20
6.29848
 11
164.335
 21
6.46429
  0
LINE
  8
0
 10
164.335
 20
6.46429
 11
164.436
 21
6.62038
  0
LINE
  8
0
 10
164.436
 20
6.62038
 11
164.553
 21
6.765
  0
LINE
  8
0
 10
164.553
 20
6.765
 11
164.685
 21
6.89661
  0
LINE
  8
0
 10
164.685
 20
6.89661
 11
164.83
 21
7.01372
  0
LINE
  8
0
 10
164.83
 20
7.01372
 11
164.986
 21
7.11508
  0
LINE
  8
0
 10
164.986
 20
7.11508
 11
165.152
 21
7.19957
  0
LINE
  8
0
 10
165.152
 20
7.19957
 11
165.325
 21
7.26627
  0
LINE
  8
0
 10
165.325
 20
7.26627
 11
165.505
 21
7.31444
  0
LINE
  8
0
 10
165.505
 20
7.31444
 11
165.689
 21
7.34355
  0
LINE
  8
0
 10
165.689
 20
7.34355
 11
165.875
 21
7.35329
  0
LINE
  8
0
 10
165.875
 20
7.35329
 11
166.061
 21
7.34355
  0
LINE
  8
0
 10
166.061
 20
7.34355
 11
166.244
 21
7.31444
  0
LINE
  8
0
 10
166.244
 20
7.31444
 11
166.424
 21
7.26627
  0
LINE
  8
0
 10
166.424
 20
7.26627
 11
166.598
 21
7.19957
  0
LINE
  8
0
 10
166.598
 20
7.19957
 11
166.764
 21
7.11508
  0
LINE
  8
0
 10
166.764
 20
7.11508
 11
166.92
 21
7.01372
  0
LINE
  8
0
 10
166.92
 20
7.01372
 11
167.064
 21
6.89661
  0
LINE
  8
0
 10
167.064
 20
6.89661
 11
167.196
 21
6.765
  0
LINE
  8
0
 10
167.196
 20
6.765
 11
167.313
 21
6.62038
  0
LINE
  8
0
 10
167.313
 20
6.62038
 11
167.414
 21
6.46429
  0
LINE
  8
0
 10
167.414
 20
6.46429
 11
167.499
 21
6.29848
  0
LINE
  8
0
 10
167.499
 20
6.29848
 11
167.566
 21
6.12473
  0
LINE
  8
0
 10
167.566
 20
6.12473
 11
167.614
 21
5.94496
  0
LINE
  8
0
 10
167.614
 20
5.94496
 11
167.643
 21
5.76114
  0
LINE
  8
0
 10
167.643
 20
5.76114
 11
167.653
 21
5.57529
  0
LINE
  8
0
 10
167.653
 20
5.57529
 11
167.643
 21
5.38943
  0
LINE
  8
0
 10
167.643
 20
5.38943
 11
167.614
 21
5.20563
  0
LINE
  8
0
 10
167.614
 20
5.20563
 11
167.566
 21
5.02586
  0
LINE
  8
0
 10
167.566
 20
5.02586
 11
167.499
 21
4.85211
  0
LINE
  8
0
 10
167.499
 20
4.85211
 11
167.414
 21
4.68629
  0
LINE
  8
0
 10
167.414
 20
4.68629
 11
167.313
 21
4.53021
  0
LINE
  8
0
 10
167.313
 20
4.53021
 11
167.196
 21
4.38557
  0
LINE
  8
0
 10
167.196
 20
4.38557
 11
167.064
 21
4.25398
  0
LINE
  8
0
 10
167.064
 20
4.25398
 11
166.92
 21
4.13686
  0
LINE
  8
0
 10
166.92
 20
4.13686
 11
166.764
 21
4.03549
  0
LINE
  8
0
 10
166.764
 20
4.03549
 11
166.598
 21
3.951
  0
LINE
  8
0
 10
166.598
 20
3.951
 11
166.424
 21
3.88431
  0
LINE
  8
0
 10
166.424
 20
3.88431
 11
166.244
 21
3.83615
  0
LINE
  8
0
 10
166.244
 20
3.83615
 11
166.061
 21
3.80704
  0
LINE
  8
0
 10
166.061
 20
3.80704
 11
165.875
 21
3.79729
  0
LINE
  8
0
 10
165.875
 20
3.79729
 11
165.689
 21
3.80704
  0
LINE
  8
0
 10
260.939
 20
3.80704
 11
260.755
 21
3.83615
  0
LINE
  8
0
 10
260.755
 20
3.83615
 11
260.575
 21
3.88431
  0
LINE
  8
0
 10
260.575
 20
3.88431
 11
260.402
 21
3.951
  0
LINE
  8
0
 10
260.402
 20
3.951
 11
260.236
 21
4.03549
  0
LINE
  8
0
 10
260.236
 20
4.03549
 11
260.08
 21
4.13686
  0
LINE
  8
0
 10
260.08
 20
4.13686
 11
259.935
 21
4.25398
  0
LINE
  8
0
 10
259.935
 20
4.25398
 11
259.803
 21
4.38557
  0
LINE
  8
0
 10
259.803
 20
4.38557
 11
259.686
 21
4.53021
  0
LINE
  8
0
 10
259.686
 20
4.53021
 11
259.585
 21
4.68629
  0
LINE
  8
0
 10
259.585
 20
4.68629
 11
259.5
 21
4.85211
  0
LINE
  8
0
 10
259.5
 20
4.85211
 11
259.434
 21
5.02586
  0
LINE
  8
0
 10
259.434
 20
5.02586
 11
259.386
 21
5.20563
  0
LINE
  8
0
 10
259.386
 20
5.20563
 11
259.356
 21
5.38943
  0
LINE
  8
0
 10
259.356
 20
5.38943
 11
259.347
 21
5.57529
  0
LINE
  8
0
 10
259.347
 20
5.57529
 11
259.356
 21
5.76114
  0
LINE
  8
0
 10
259.356
 20
5.76114
 11
259.386
 21
5.94496
  0
LINE
  8
0
 10
259.386
 20
5.94496
 11
259.434
 21
6.12473
  0
LINE
  8
0
 10
259.434
 20
6.12473
 11
259.5
 21
6.29848
  0
LINE
  8
0
 10
259.5
 20
6.29848
 11
259.585
 21
6.46429
  0
LINE
  8
0
 10
259.585
 20
6.46429
 11
259.686
 21
6.62038
  0
LINE
  8
0
 10
259.686
 20
6.62038
 11
259.803
 21
6.765
  0
LINE
  8
0
 10
259.803
 20
6.765
 11
259.935
 21
6.89661
  0
LINE
  8
0
 10
259.935
 20
6.89661
 11
260.08
 21
7.01372
  0
LINE
  8
0
 10
260.08
 20
7.01372
 11
260.236
 21
7.11508
  0
LINE
  8
0
 10
260.236
 20
7.11508
 11
260.402
 21
7.19957
  0
LINE
  8
0
 10
260.402
 20
7.19957
 11
260.575
 21
7.26627
  0
LINE
  8
0
 10
260.575
 20
7.26627
 11
260.755
 21
7.31444
  0
LINE
  8
0
 10
260.755
 20
7.31444
 11
260.939
 21
7.34355
  0
LINE
  8
0
 10
260.939
 20
7.34355
 11
261.125
 21
7.35329
  0
LINE
  8
0
 10
261.125
 20
7.35329
 11
261.311
 21
7.34355
  0
LINE
  8
0
 10
261.311
 20
7.34355
 11
261.494
 21
7.31444
  0
LINE
  8
0
 10
261.494
 20
7.31444
 11
261.674
 21
7.26627
  0
LINE
  8
0
 10
261.674
 20
7.26627
 11
261.848
 21
7.19957
  0
LINE
  8
0
 10
261.848
 20
7.19957
 11
262.014
 21
7.11508
  0
LINE
  8
0
 10
262.014
 20
7.11508
 11
262.17
 21
7.01372
  0
LINE
  8
0
 10
262.17
 20
7.01372
 11
262.314
 21
6.89661
  0
LINE
  8
0
 10
262.314
 20
6.89661
 11
262.446
 21
6.765
  0
LINE
  8
0
 10
262.446
 20
6.765
 11
262.563
 21
6.62038
  0
LINE
  8
0
 10
262.563
 20
6.62038
 11
262.664
 21
6.46429
  0
LINE
  8
0
 10
262.664
 20
6.46429
 11
262.749
 21
6.29848
  0
LINE
  8
0
 10
262.749
 20
6.29848
 11
262.816
 21
6.12473
  0
LINE
  8
0
 10
262.816
 20
6.12473
 11
262.864
 21
5.94496
  0
LINE
  8
0
 10
262.864
 20
5.94496
 11
262.893
 21
5.76114
  0
LINE
  8
0
 10
262.893
 20
5.76114
 11
262.903
 21
5.57529
  0
LINE
  8
0
 10
262.903
 20
5.57529
 11
262.893
 21
5.38943
  0
LINE
  8
0
 10
262.893
 20
5.38943
 11
262.864
 21
5.20563
  0
LINE
  8
0
 10
262.864
 20
5.20563
 11
262.816
 21
5.02586
  0
LINE
  8
0
 10
262.816
 20
5.02586
 11
262.749
 21
4.85211
  0
LINE
  8
0
 10
262.749
 20
4.85211
 11
262.664
 21
4.68629
  0
LINE
  8
0
 10
262.664
 20
4.68629
 11
262.563
 21
4.53021
  0
LINE
  8
0
 10
262.563
 20
4.53021
 11
262.446
 21
4.38557
  0
LINE
  8
0
 10
262.446
 20
4.38557
 11
262.314
 21
4.25398
  0
LINE
  8
0
 10
262.314
 20
4.25398
 11
262.17
 21
4.13686
  0
LINE
  8
0
 10
262.17
 20
4.13686
 11
262.014
 21
4.03549
  0
LINE
  8
0
 10
262.014
 20
4.03549
 11
261.848
 21
3.951
  0
LINE
  8
0
 10
261.848
 20
3.951
 11
261.674
 21
3.88431
  0
LINE
  8
0
 10
261.674
 20
3.88431
 11
261.494
 21
3.83615
  0
LINE
  8
0
 10
261.494
 20
3.83615
 11
261.311
 21
3.80704
  0
LINE
  8
0
 10
261.311
 20
3.80704
 11
261.125
 21
3.79729
  0
LINE
  8
0
 10
261.125
 20
3.79729
 11
260.939
 21
3.80704
  0
LINE
  8
0
 10
233.989
 20
3.80704
 11
233.806
 21
3.83615
  0
LINE
  8
0
 10
233.806
 20
3.83615
 11
233.626
 21
3.88431
  0
LINE
  8
0
 10
233.626
 20
3.88431
 11
233.452
 21
3.951
  0
LINE
  8
0
 10
233.452
 20
3.951
 11
233.286
 21
4.03549
  0
LINE
  8
0
 10
233.286
 20
4.03549
 11
233.13
 21
4.13686
  0
LINE
  8
0
 10
233.13
 20
4.13686
 11
232.986
 21
4.25398
  0
LINE
  8
0
 10
232.986
 20
4.25398
 11
232.854
 21
4.38557
  0
LINE
  8
0
 10
232.854
 20
4.38557
 11
232.737
 21
4.53021
  0
LINE
  8
0
 10
232.737
 20
4.53021
 11
232.635
 21
4.68629
  0
LINE
  8
0
 10
232.635
 20
4.68629
 11
232.551
 21
4.85211
  0
LINE
  8
0
 10
232.551
 20
4.85211
 11
232.484
 21
5.02586
  0
LINE
  8
0
 10
232.484
 20
5.02586
 11
232.436
 21
5.20563
  0
LINE
  8
0
 10
232.436
 20
5.20563
 11
232.407
 21
5.38943
  0
LINE
  8
0
 10
232.407
 20
5.38943
 11
232.397
 21
5.57529
  0
LINE
  8
0
 10
232.397
 20
5.57529
 11
232.407
 21
5.76114
  0
LINE
  8
0
 10
232.407
 20
5.76114
 11
232.436
 21
5.94496
  0
LINE
  8
0
 10
232.436
 20
5.94496
 11
232.484
 21
6.12473
  0
LINE
  8
0
 10
232.484
 20
6.12473
 11
232.551
 21
6.29848
  0
LINE
  8
0
 10
232.551
 20
6.29848
 11
232.635
 21
6.46429
  0
LINE
  8
0
 10
232.635
 20
6.46429
 11
232.737
 21
6.62038
  0
LINE
  8
0
 10
232.737
 20
6.62038
 11
232.854
 21
6.765
  0
LINE
  8
0
 10
232.854
 20
6.765
 11
232.986
 21
6.89661
  0
LINE
  8
0
 10
232.986
 20
6.89661
 11
233.13
 21
7.01372
  0
LINE
  8
0
 10
233.13
 20
7.01372
 11
233.286
 21
7.11508
  0
LINE
  8
0
 10
233.286
 20
7.11508
 11
233.452
 21
7.19957
  0
LINE
  8
0
 10
233.452
 20
7.19957
 11
233.626
 21
7.26627
  0
LINE
  8
0
 10
233.626
 20
7.26627
 11
233.806
 21
7.31444
  0
LINE
  8
0
 10
233.806
 20
7.31444
 11
233.989
 21
7.34355
  0
LINE
  8
0
 10
233.989
 20
7.34355
 11
234.175
 21
7.35329
  0
LINE
  8
0
 10
234.175
 20
7.35329
 11
234.361
 21
7.34355
  0
LINE
  8
0
 10
234.361
 20
7.34355
 11
234.545
 21
7.31444
  0
LINE
  8
0
 10
234.545
 20
7.31444
 11
234.725
 21
7.26627
  0
LINE
  8
0
 10
234.725
 20
7.26627
 11
234.898
 21
7.19957
  0
LINE
  8
0
 10
234.898
 20
7.19957
 11
235.064
 21
7.11508
  0
LINE
  8
0
 10
235.064
 20
7.11508
 11
235.22
 21
7.01372
  0
LINE
  8
0
 10
235.22
 20
7.01372
 11
235.365
 21
6.89661
  0
LINE
  8
0
 10
235.365
 20
6.89661
 11
235.497
 21
6.765
  0
LINE
  8
0
 10
235.497
 20
6.765
 11
235.614
 21
6.62038
  0
LINE
  8
0
 10
235.614
 20
6.62038
 11
235.715
 21
6.46429
  0
LINE
  8
0
 10
235.715
 20
6.46429
 11
235.8
 21
6.29848
  0
LINE
  8
0
 10
235.8
 20
6.29848
 11
235.866
 21
6.12473
  0
LINE
  8
0
 10
235.866
 20
6.12473
 11
235.914
 21
5.94496
  0
LINE
  8
0
 10
235.914
 20
5.94496
 11
235.944
 21
5.76114
  0
LINE
  8
0
 10
235.944
 20
5.76114
 11
235.953
 21
5.57529
  0
LINE
  8
0
 10
235.953
 20
5.57529
 11
235.944
 21
5.38943
  0
LINE
  8
0
 10
235.944
 20
5.38943
 11
235.914
 21
5.20563
  0
LINE
  8
0
 10
235.914
 20
5.20563
 11
235.866
 21
5.02586
  0
LINE
  8
0
 10
235.866
 20
5.02586
 11
235.8
 21
4.85211
  0
LINE
  8
0
 10
235.8
 20
4.85211
 11
235.715
 21
4.68629
  0
LINE
  8
0
 10
235.715
 20
4.68629
 11
235.614
 21
4.53021
  0
LINE
  8
0
 10
235.614
 20
4.53021
 11
235.497
 21
4.38557
  0
LINE
  8
0
 10
235.497
 20
4.38557
 11
235.365
 21
4.25398
  0
LINE
  8
0
 10
235.365
 20
4.25398
 11
235.22
 21
4.13686
  0
LINE
  8
0
 10
235.22
 20
4.13686
 11
235.064
 21
4.03549
  0
LINE
  8
0
 10
235.064
 20
4.03549
 11
234.898
 21
3.951
  0
LINE
  8
0
 10
234.898
 20
3.951
 11
234.725
 21
3.88431
  0
LINE
  8
0
 10
234.725
 20
3.88431
 11
234.545
 21
3.83615
  0
LINE
  8
0
 10
234.545
 20
3.83615
 11
234.361
 21
3.80704
  0
LINE
  8
0
 10
234.361
 20
3.80704
 11
234.175
 21
3.79729
  0
LINE
  8
0
 10
234.175
 20
3.79729
 11
233.989
 21
3.80704
  0
LINE
  8
0
 10
70.4388
 20
3.80704
 11
70.255
 21
3.83615
  0
LINE
  8
0
 10
70.255
 20
3.83615
 11
70.0753
 21
3.88431
  0
LINE
  8
0
 10
70.0753
 20
3.88431
 11
69.9015
 21
3.951
  0
LINE
  8
0
 10
69.9015
 20
3.951
 11
69.7357
 21
4.03549
  0
LINE
  8
0
 10
69.7357
 20
4.03549
 11
69.5796
 21
4.13686
  0
LINE
  8
0
 10
69.5796
 20
4.13686
 11
69.435
 21
4.25398
  0
LINE
  8
0
 10
69.435
 20
4.25398
 11
69.3034
 21
4.38557
  0
LINE
  8
0
 10
69.3034
 20
4.38557
 11
69.1863
 21
4.53021
  0
LINE
  8
0
 10
69.1863
 20
4.53021
 11
69.0849
 21
4.68629
  0
LINE
  8
0
 10
69.0849
 20
4.68629
 11
69.0004
 21
4.85211
  0
LINE
  8
0
 10
69.0004
 20
4.85211
 11
68.9337
 21
5.02586
  0
LINE
  8
0
 10
68.9337
 20
5.02586
 11
68.8855
 21
5.20563
  0
LINE
  8
0
 10
68.8855
 20
5.20563
 11
68.8564
 21
5.38943
  0
LINE
  8
0
 10
68.8564
 20
5.38943
 11
68.8467
 21
5.57529
  0
LINE
  8
0
 10
68.8467
 20
5.57529
 11
68.8564
 21
5.76114
  0
LINE
  8
0
 10
68.8564
 20
5.76114
 11
68.8855
 21
5.94496
  0
LINE
  8
0
 10
68.8855
 20
5.94496
 11
68.9337
 21
6.12473
  0
LINE
  8
0
 10
68.9337
 20
6.12473
 11
69.0004
 21
6.29848
  0
LINE
  8
0
 10
69.0004
 20
6.29848
 11
69.0849
 21
6.46429
  0
LINE
  8
0
 10
69.0849
 20
6.46429
 11
69.1863
 21
6.62038
  0
LINE
  8
0
 10
69.1863
 20
6.62038
 11
69.3034
 21
6.765
  0
LINE
  8
0
 10
69.3034
 20
6.765
 11
69.435
 21
6.89661
  0
LINE
  8
0
 10
69.435
 20
6.89661
 11
69.5796
 21
7.01372
  0
LINE
  8
0
 10
69.5796
 20
7.01372
 11
69.7357
 21
7.11508
  0
LINE
  8
0
 10
69.7357
 20
7.11508
 11
69.9015
 21
7.19957
  0
LINE
  8
0
 10
69.9015
 20
7.19957
 11
70.0753
 21
7.26627
  0
LINE
  8
0
 10
70.0753
 20
7.26627
 11
70.255
 21
7.31444
  0
LINE
  8
0
 10
70.255
 20
7.31444
 11
70.4388
 21
7.34355
  0
LINE
  8
0
 10
70.4388
 20
7.34355
 11
70.6247
 21
7.35329
  0
LINE
  8
0
 10
70.6247
 20
7.35329
 11
70.8105
 21
7.34355
  0
LINE
  8
0
 10
70.8105
 20
7.34355
 11
70.9944
 21
7.31444
  0
LINE
  8
0
 10
70.9944
 20
7.31444
 11
71.1741
 21
7.26627
  0
LINE
  8
0
 10
71.1741
 20
7.26627
 11
71.3479
 21
7.19957
  0
LINE
  8
0
 10
71.3479
 20
7.19957
 11
71.5137
 21
7.11508
  0
LINE
  8
0
 10
71.5137
 20
7.11508
 11
71.6698
 21
7.01372
  0
LINE
  8
0
 10
71.6698
 20
7.01372
 11
71.8144
 21
6.89661
  0
LINE
  8
0
 10
71.8144
 20
6.89661
 11
71.946
 21
6.765
  0
LINE
  8
0
 10
71.946
 20
6.765
 11
72.0631
 21
6.62038
  0
LINE
  8
0
 10
72.0631
 20
6.62038
 11
72.1645
 21
6.46429
  0
LINE
  8
0
 10
72.1645
 20
6.46429
 11
72.249
 21
6.29848
  0
LINE
  8
0
 10
72.249
 20
6.29848
 11
72.3157
 21
6.12473
  0
LINE
  8
0
 10
72.3157
 20
6.12473
 11
72.3638
 21
5.94496
  0
LINE
  8
0
 10
72.3638
 20
5.94496
 11
72.393
 21
5.76114
  0
LINE
  8
0
 10
72.393
 20
5.76114
 11
72.4027
 21
5.57529
  0
LINE
  8
0
 10
72.4027
 20
5.57529
 11
72.393
 21
5.38943
  0
LINE
  8
0
 10
72.393
 20
5.38943
 11
72.3638
 21
5.20563
  0
LINE
  8
0
 10
72.3638
 20
5.20563
 11
72.3157
 21
5.02586
  0
LINE
  8
0
 10
72.3157
 20
5.02586
 11
72.249
 21
4.85211
  0
LINE
  8
0
 10
72.249
 20
4.85211
 11
72.1645
 21
4.68629
  0
LINE
  8
0
 10
72.1645
 20
4.68629
 11
72.0631
 21
4.53021
  0
LINE
  8
0
 10
72.0631
 20
4.53021
 11
71.946
 21
4.38557
  0
LINE
  8
0
 10
71.946
 20
4.38557
 11
71.8144
 21
4.25398
  0
LINE
  8
0
 10
71.8144
 20
4.25398
 11
71.6698
 21
4.13686
  0
LINE
  8
0
 10
71.6698
 20
4.13686
 11
71.5137
 21
4.03549
  0
LINE
  8
0
 10
71.5137
 20
4.03549
 11
71.3479
 21
3.951
  0
LINE
  8
0
 10
71.3479
 20
3.951
 11
71.1741
 21
3.88431
  0
LINE
  8
0
 10
71.1741
 20
3.88431
 11
70.9944
 21
3.83615
  0
LINE
  8
0
 10
70.9944
 20
3.83615
 11
70.8105
 21
3.80704
  0
LINE
  8
0
 10
70.8105
 20
3.80704
 11
70.6247
 21
3.79729
  0
LINE
  8
0
 10
70.6247
 20
3.79729
 11
70.4388
 21
3.80704
  0
LINE
  8
0
 10
43.4894
 20
3.80704
 11
43.3056
 21
3.83615
  0
LINE
  8
0
 10
43.3056
 20
3.83615
 11
43.1259
 21
3.88431
  0
LINE
  8
0
 10
43.1259
 20
3.88431
 11
42.9521
 21
3.951
  0
LINE
  8
0
 10
42.9521
 20
3.951
 11
42.7863
 21
4.03549
  0
LINE
  8
0
 10
42.7863
 20
4.03549
 11
42.6302
 21
4.13686
  0
LINE
  8
0
 10
42.6302
 20
4.13686
 11
42.4856
 21
4.25398
  0
LINE
  8
0
 10
42.4856
 20
4.25398
 11
42.354
 21
4.38557
  0
LINE
  8
0
 10
42.354
 20
4.38557
 11
42.2369
 21
4.53021
  0
LINE
  8
0
 10
42.2369
 20
4.53021
 11
42.1355
 21
4.68629
  0
LINE
  8
0
 10
42.1355
 20
4.68629
 11
42.051
 21
4.85211
  0
LINE
  8
0
 10
42.051
 20
4.85211
 11
41.9843
 21
5.02586
  0
LINE
  8
0
 10
41.9843
 20
5.02586
 11
41.9361
 21
5.20563
  0
LINE
  8
0
 10
41.9361
 20
5.20563
 11
41.907
 21
5.38943
  0
LINE
  8
0
 10
41.907
 20
5.38943
 11
41.8973
 21
5.57529
  0
LINE
  8
0
 10
41.8973
 20
5.57529
 11
41.907
 21
5.76114
  0
LINE
  8
0
 10
41.907
 20
5.76114
 11
41.9361
 21
5.94496
  0
LINE
  8
0
 10
41.9361
 20
5.94496
 11
41.9843
 21
6.12473
  0
LINE
  8
0
 10
41.9843
 20
6.12473
 11
42.051
 21
6.29848
  0
LINE
  8
0
 10
42.051
 20
6.29848
 11
42.1355
 21
6.46429
  0
LINE
  8
0
 10
42.1355
 20
6.46429
 11
42.2369
 21
6.62038
  0
LINE
  8
0
 10
42.2369
 20
6.62038
 11
42.354
 21
6.765
  0
LINE
  8
0
 10
42.354
 20
6.765
 11
42.4856
 21
6.89661
  0
LINE
  8
0
 10
42.4856
 20
6.89661
 11
42.6302
 21
7.01372
  0
LINE
  8
0
 10
42.6302
 20
7.01372
 11
42.7863
 21
7.11508
  0
LINE
  8
0
 10
42.7863
 20
7.11508
 11
42.9521
 21
7.19957
  0
LINE
  8
0
 10
42.9521
 20
7.19957
 11
43.1259
 21
7.26627
  0
LINE
  8
0
 10
43.1259
 20
7.26627
 11
43.3056
 21
7.31444
  0
LINE
  8
0
 10
43.3056
 20
7.31444
 11
43.4894
 21
7.34355
  0
LINE
  8
0
 10
43.4894
 20
7.34355
 11
43.6753
 21
7.35329
  0
LINE
  8
0
 10
43.6753
 20
7.35329
 11
43.8611
 21
7.34355
  0
LINE
  8
0
 10
43.8611
 20
7.34355
 11
44.045
 21
7.31444
  0
LINE
  8
0
 10
44.045
 20
7.31444
 11
44.2247
 21
7.26627
  0
LINE
  8
0
 10
44.2247
 20
7.26627
 11
44.3985
 21
7.19957
  0
LINE
  8
0
 10
44.3985
 20
7.19957
 11
44.5643
 21
7.11508
  0
LINE
  8
0
 10
44.5643
 20
7.11508
 11
44.7204
 21
7.01372
  0
LINE
  8
0
 10
44.7204
 20
7.01372
 11
44.865
 21
6.89661
  0
LINE
  8
0
 10
44.865
 20
6.89661
 11
44.9966
 21
6.765
  0
LINE
  8
0
 10
44.9966
 20
6.765
 11
45.1137
 21
6.62038
  0
LINE
  8
0
 10
45.1137
 20
6.62038
 11
45.2151
 21
6.46429
  0
LINE
  8
0
 10
45.2151
 20
6.46429
 11
45.2996
 21
6.29848
  0
LINE
  8
0
 10
45.2996
 20
6.29848
 11
45.3663
 21
6.12473
  0
LINE
  8
0
 10
45.3663
 20
6.12473
 11
45.4144
 21
5.94496
  0
LINE
  8
0
 10
45.4144
 20
5.94496
 11
45.4436
 21
5.76114
  0
LINE
  8
0
 10
45.4436
 20
5.76114
 11
45.4533
 21
5.57529
  0
LINE
  8
0
 10
45.4533
 20
5.57529
 11
45.4436
 21
5.38943
  0
LINE
  8
0
 10
45.4436
 20
5.38943
 11
45.4144
 21
5.20563
  0
LINE
  8
0
 10
45.4144
 20
5.20563
 11
45.3663
 21
5.02586
  0
LINE
  8
0
 10
45.3663
 20
5.02586
 11
45.2996
 21
4.85211
  0
LINE
  8
0
 10
45.2996
 20
4.85211
 11
45.2151
 21
4.68629
  0
LINE
  8
0
 10
45.2151
 20
4.68629
 11
45.1137
 21
4.53021
  0
LINE
  8
0
 10
45.1137
 20
4.53021
 11
44.9966
 21
4.38557
  0
LINE
  8
0
 10
44.9966
 20
4.38557
 11
44.865
 21
4.25398
  0
LINE
  8
0
 10
44.865
 20
4.25398
 11
44.7204
 21
4.13686
  0
LINE
  8
0
 10
44.7204
 20
4.13686
 11
44.5643
 21
4.03549
  0
LINE
  8
0
 10
44.5643
 20
4.03549
 11
44.3985
 21
3.951
  0
LINE
  8
0
 10
44.3985
 20
3.951
 11
44.2247
 21
3.88431
  0
LINE
  8
0
 10
44.2247
 20
3.88431
 11
44.045
 21
3.83615
  0
LINE
  8
0
 10
44.045
 20
3.83615
 11
43.8611
 21
3.80704
  0
LINE
  8
0
 10
43.8611
 20
3.80704
 11
43.6753
 21
3.79729
  0
LINE
  8
0
 10
43.6753
 20
3.79729
 11
43.4894
 21
3.80704
  0
LINE
  8
0
 10
138.739
 20
3.80704
 11
138.556
 21
3.83615
  0
LINE
  8
0
 10
138.556
 20
3.83615
 11
138.376
 21
3.88431
  0
LINE
  8
0
 10
138.376
 20
3.88431
 11
138.202
 21
3.951
  0
LINE
  8
0
 10
138.202
 20
3.951
 11
138.036
 21
4.03549
  0
LINE
  8
0
 10
138.036
 20
4.03549
 11
137.88
 21
4.13686
  0
LINE
  8
0
 10
137.88
 20
4.13686
 11
137.736
 21
4.25398
  0
LINE
  8
0
 10
137.736
 20
4.25398
 11
137.604
 21
4.38557
  0
LINE
  8
0
 10
137.604
 20
4.38557
 11
137.487
 21
4.53021
  0
LINE
  8
0
 10
137.487
 20
4.53021
 11
137.385
 21
4.68629
  0
LINE
  8
0
 10
137.385
 20
4.68629
 11
137.301
 21
4.85211
  0
LINE
  8
0
 10
137.301
 20
4.85211
 11
137.234
 21
5.02586
  0
LINE
  8
0
 10
137.234
 20
5.02586
 11
137.186
 21
5.20563
  0
LINE
  8
0
 10
137.186
 20
5.20563
 11
137.157
 21
5.38943
  0
LINE
  8
0
 10
137.157
 20
5.38943
 11
137.147
 21
5.57529
  0
LINE
  8
0
 10
137.147
 20
5.57529
 11
137.157
 21
5.76114
  0
LINE
  8
0
 10
137.157
 20
5.76114
 11
137.186
 21
5.94496
  0
LINE
  8
0
 10
137.186
 20
5.94496
 11
137.234
 21
6.12473
  0
LINE
  8
0
 10
137.234
 20
6.12473
 11
137.301
 21
6.29848
  0
LINE
  8
0
 10
137.301
 20
6.29848
 11
137.385
 21
6.46429
  0
LINE
  8
0
 10
137.385
 20
6.46429
 11
137.487
 21
6.62038
  0
LINE
  8
0
 10
137.487
 20
6.62038
 11
137.604
 21
6.765
  0
LINE
  8
0
 10
137.604
 20
6.765
 11
137.736
 21
6.89661
  0
LINE
  8
0
 10
137.736
 20
6.89661
 11
137.88
 21
7.01372
  0
LINE
  8
0
 10
137.88
 20
7.01372
 11
138.036
 21
7.11508
  0
LINE
  8
0
 10
138.036
 20
7.11508
 11
138.202
 21
7.19957
  0
LINE
  8
0
 10
138.202
 20
7.19957
 11
138.376
 21
7.26627
  0
LINE
  8
0
 10
138.376
 20
7.26627
 11
138.556
 21
7.31444
  0
LINE
  8
0
 10
138.556
 20
7.31444
 11
138.739
 21
7.34355
  0
LINE
  8
0
 10
138.739
 20
7.34355
 11
138.925
 21
7.35329
  0
LINE
  8
0
 10
138.925
 20
7.35329
 11
139.111
 21
7.34355
  0
LINE
  8
0
 10
139.111
 20
7.34355
 11
139.295
 21
7.31444
  0
LINE
  8
0
 10
139.295
 20
7.31444
 11
139.475
 21
7.26627
  0
LINE
  8
0
 10
139.475
 20
7.26627
 11
139.648
 21
7.19957
  0
LINE
  8
0
 10
139.648
 20
7.19957
 11
139.814
 21
7.11508
  0
LINE
  8
0
 10
139.814
 20
7.11508
 11
139.97
 21
7.01372
  0
LINE
  8
0
 10
139.97
 20
7.01372
 11
140.115
 21
6.89661
  0
LINE
  8
0
 10
140.115
 20
6.89661
 11
140.247
 21
6.765
  0
LINE
  8
0
 10
140.247
 20
6.765
 11
140.364
 21
6.62038
  0
LINE
  8
0
 10
140.364
 20
6.62038
 11
140.465
 21
6.46429
  0
LINE
  8
0
 10
140.465
 20
6.46429
 11
140.55
 21
6.29848
  0
LINE
  8
0
 10
140.55
 20
6.29848
 11
140.616
 21
6.12473
  0
LINE
  8
0
 10
140.616
 20
6.12473
 11
140.664
 21
5.94496
  0
LINE
  8
0
 10
140.664
 20
5.94496
 11
140.694
 21
5.76114
  0
LINE
  8
0
 10
140.694
 20
5.76114
 11
140.703
 21
5.57529
  0
LINE
  8
0
 10
140.703
 20
5.57529
 11
140.694
 21
5.38943
  0
LINE
  8
0
 10
140.694
 20
5.38943
 11
140.664
 21
5.20563
  0
LINE
  8
0
 10
140.664
 20
5.20563
 11
140.616
 21
5.02586
  0
LINE
  8
0
 10
140.616
 20
5.02586
 11
140.55
 21
4.85211
  0
LINE
  8
0
 10
140.55
 20
4.85211
 11
140.465
 21
4.68629
  0
LINE
  8
0
 10
140.465
 20
4.68629
 11
140.364
 21
4.53021
  0
LINE
  8
0
 10
140.364
 20
4.53021
 11
140.247
 21
4.38557
  0
LINE
  8
0
 10
140.247
 20
4.38557
 11
140.115
 21
4.25398
  0
LINE
  8
0
 10
140.115
 20
4.25398
 11
139.97
 21
4.13686
  0
LINE
  8
0
 10
139.97
 20
4.13686
 11
139.814
 21
4.03549
  0
LINE
  8
0
 10
139.814
 20
4.03549
 11
139.648
 21
3.951
  0
LINE
  8
0
 10
139.648
 20
3.951
 11
139.475
 21
3.88431
  0
LINE
  8
0
 10
139.475
 20
3.88431
 11
139.295
 21
3.83615
  0
LINE
  8
0
 10
139.295
 20
3.83615
 11
139.111
 21
3.80704
  0
LINE
  8
0
 10
139.111
 20
3.80704
 11
138.925
 21
3.79729
  0
LINE
  8
0
 10
138.925
 20
3.79729
 11
138.739
 21
3.80704
  0
ENDSEC
  0
SECTION
  2
OBJECTS
  0
DICTIONARY
  0
ENDSEC
  0
EOF
