G04 #@! TF.GenerationSoftware,KiCad,Pcbnew,(5.0.2)-1*
G04 #@! TF.CreationDate,2019-04-01T18:20:07-07:00*
G04 #@! TF.ProjectId,Arduino_uno_sheild,41726475-696e-46f5-9f75-6e6f5f736865,rev?*
G04 #@! TF.SameCoordinates,Original*
G04 #@! TF.FileFunction,Copper,L1,Top*
G04 #@! TF.FilePolarity,Positive*
%FSLAX46Y46*%
G04 Gerber Fmt 4.6, Leading zero omitted, Abs format (unit mm)*
G04 Created by KiCad (PCBNEW (5.0.2)-1) date 4/1/2019 6:20:07 PM*
%MOMM*%
%LPD*%
G01*
G04 APERTURE LIST*
G04 #@! TA.AperFunction,ComponentPad*
%ADD10C,1.524000*%
G04 #@! TD*
G04 #@! TA.AperFunction,SMDPad,CuDef*
%ADD11R,1.000000X1.000000*%
G04 #@! TD*
G04 #@! TA.AperFunction,ComponentPad*
%ADD12C,1.560000*%
G04 #@! TD*
G04 #@! TA.AperFunction,WasherPad*
%ADD13C,3.600000*%
G04 #@! TD*
G04 #@! TA.AperFunction,ComponentPad*
%ADD14C,1.600000*%
G04 #@! TD*
G04 #@! TA.AperFunction,ComponentPad*
%ADD15R,1.600000X1.600000*%
G04 #@! TD*
G04 #@! TA.AperFunction,ComponentPad*
%ADD16C,1.800000*%
G04 #@! TD*
G04 #@! TA.AperFunction,ComponentPad*
%ADD17R,1.800000X1.800000*%
G04 #@! TD*
G04 #@! TA.AperFunction,ViaPad*
%ADD18C,0.800000*%
G04 #@! TD*
G04 #@! TA.AperFunction,Conductor*
%ADD19C,0.250000*%
G04 #@! TD*
G04 #@! TA.AperFunction,Conductor*
%ADD20C,0.500000*%
G04 #@! TD*
G04 #@! TA.AperFunction,Conductor*
%ADD21C,0.254000*%
G04 #@! TD*
G04 APERTURE END LIST*
D10*
G04 #@! TO.P,J5,1*
G04 #@! TO.N,+12V*
X3860800Y15544800D03*
G04 #@! TO.P,J5,2*
G04 #@! TO.N,+5V*
X3860800Y17544800D03*
G04 #@! TO.P,J5,3*
G04 #@! TO.N,GND*
X3860800Y19544800D03*
G04 #@! TO.P,J5,4*
G04 #@! TO.N,/RX*
X3860800Y21544800D03*
G04 #@! TO.P,J5,5*
G04 #@! TO.N,/TX*
X3860800Y23544800D03*
G04 #@! TO.P,J5,6*
G04 #@! TO.N,Net-(J5-Pad6)*
X3860800Y25544800D03*
G04 #@! TD*
D11*
G04 #@! TO.P,TP8,1*
G04 #@! TO.N,GND*
X16319001Y39469999D03*
G04 #@! TD*
G04 #@! TO.P,TP7,1*
G04 #@! TO.N,+5V*
X16319500Y37465000D03*
G04 #@! TD*
G04 #@! TO.P,TP6,1*
G04 #@! TO.N,GND*
X6591300Y35560000D03*
G04 #@! TD*
G04 #@! TO.P,TP5,1*
G04 #@! TO.N,+5V*
X6527800Y37528500D03*
G04 #@! TD*
G04 #@! TO.P,TP4,1*
G04 #@! TO.N,/5V*
X21501100Y5727700D03*
G04 #@! TD*
G04 #@! TO.P,TP3,1*
G04 #@! TO.N,/3.3V*
X21501100Y3886200D03*
G04 #@! TD*
G04 #@! TO.P,TP2,1*
G04 #@! TO.N,GND*
X21501100Y7683500D03*
G04 #@! TD*
G04 #@! TO.P,TP1,1*
G04 #@! TO.N,+12V*
X6527800Y39433500D03*
G04 #@! TD*
D12*
G04 #@! TO.P,A1,31*
G04 #@! TO.N,Net-(A1-Pad31)*
X27940000Y2540000D03*
G04 #@! TO.P,A1,20*
G04 #@! TO.N,/IOREF*
X30480000Y2540000D03*
G04 #@! TO.P,A1,21*
G04 #@! TO.N,/RESET*
X33020000Y2540000D03*
G04 #@! TO.P,A1,22*
G04 #@! TO.N,/3.3V*
X35560000Y2540000D03*
G04 #@! TO.P,A1,23*
G04 #@! TO.N,/5V*
X38100000Y2540000D03*
G04 #@! TO.P,A1,24*
G04 #@! TO.N,GND*
X40640000Y2540000D03*
G04 #@! TO.P,A1,25*
X43180000Y2540000D03*
G04 #@! TO.P,A1,26*
G04 #@! TO.N,+12V*
X45720000Y2540000D03*
G04 #@! TO.P,A1,14*
G04 #@! TO.N,/A*
X50800000Y2540000D03*
G04 #@! TO.P,A1,15*
G04 #@! TO.N,/B*
X53340000Y2540000D03*
G04 #@! TO.P,A1,16*
G04 #@! TO.N,/C*
X55880000Y2540000D03*
G04 #@! TO.P,A1,17*
G04 #@! TO.N,/A3*
X58420000Y2540000D03*
G04 #@! TO.P,A1,18*
G04 #@! TO.N,/A4*
X60960000Y2540000D03*
G04 #@! TO.P,A1,19*
G04 #@! TO.N,/A5*
X63500000Y2540000D03*
G04 #@! TO.P,A1,30*
G04 #@! TO.N,/SCL*
X18796000Y50800000D03*
G04 #@! TO.P,A1,29*
G04 #@! TO.N,/SDA*
X21336000Y50800000D03*
G04 #@! TO.P,A1,28*
G04 #@! TO.N,/AREF*
X23876000Y50800000D03*
G04 #@! TO.P,A1,27*
G04 #@! TO.N,GND*
X26416000Y50800000D03*
G04 #@! TO.P,A1,13*
G04 #@! TO.N,/SCK*
X28956000Y50800000D03*
G04 #@! TO.P,A1,12*
G04 #@! TO.N,/MISO*
X31496000Y50800000D03*
G04 #@! TO.P,A1,11*
G04 #@! TO.N,/MOSI*
X34036000Y50800000D03*
G04 #@! TO.P,A1,10*
G04 #@! TO.N,/LAT*
X36576000Y50800000D03*
G04 #@! TO.P,A1,9*
G04 #@! TO.N,/OE*
X39116000Y50800000D03*
G04 #@! TO.P,A1,8*
G04 #@! TO.N,/CLK*
X41656000Y50800000D03*
G04 #@! TO.P,A1,7*
G04 #@! TO.N,/B2*
X45720000Y50800000D03*
G04 #@! TO.P,A1,6*
G04 #@! TO.N,/G2*
X48260000Y50800000D03*
G04 #@! TO.P,A1,5*
G04 #@! TO.N,/R2*
X50800000Y50800000D03*
G04 #@! TO.P,A1,4*
G04 #@! TO.N,/B1*
X53340000Y50800000D03*
G04 #@! TO.P,A1,3*
G04 #@! TO.N,/G1*
X55880000Y50800000D03*
G04 #@! TO.P,A1,2*
G04 #@! TO.N,/R1*
X58420000Y50800000D03*
G04 #@! TO.P,A1,1*
G04 #@! TO.N,/TX*
X60960000Y50800000D03*
G04 #@! TO.P,A1,0*
G04 #@! TO.N,/RX*
X63500000Y50800000D03*
D13*
G04 #@! TO.P,A1,*
G04 #@! TO.N,*
X15240000Y50800000D03*
X66040000Y35560000D03*
X66040000Y7620000D03*
X13970000Y2540000D03*
G04 #@! TD*
D14*
G04 #@! TO.P,J1,1*
G04 #@! TO.N,/R1*
X55524400Y21691600D03*
G04 #@! TO.P,J1,2*
G04 #@! TO.N,/G1*
X52984400Y21691600D03*
G04 #@! TO.P,J1,3*
G04 #@! TO.N,/B1*
X55524400Y24231600D03*
G04 #@! TO.P,J1,4*
G04 #@! TO.N,GND*
X52984400Y24231600D03*
G04 #@! TO.P,J1,5*
G04 #@! TO.N,/R2*
X55524400Y26771600D03*
G04 #@! TO.P,J1,6*
G04 #@! TO.N,/G2*
X52984400Y26771600D03*
G04 #@! TO.P,J1,7*
G04 #@! TO.N,/B2*
X55524400Y29311600D03*
G04 #@! TO.P,J1,8*
G04 #@! TO.N,GND*
X52984400Y29311600D03*
G04 #@! TO.P,J1,9*
G04 #@! TO.N,/A*
X55524400Y31851600D03*
G04 #@! TO.P,J1,10*
G04 #@! TO.N,/B*
X52984400Y31851600D03*
G04 #@! TO.P,J1,11*
G04 #@! TO.N,/C*
X55524400Y34391600D03*
G04 #@! TO.P,J1,12*
G04 #@! TO.N,GND*
X52984400Y34391600D03*
G04 #@! TO.P,J1,13*
G04 #@! TO.N,/CLK*
X55524400Y36931600D03*
G04 #@! TO.P,J1,14*
G04 #@! TO.N,/LAT*
X52984400Y36931600D03*
G04 #@! TO.P,J1,15*
G04 #@! TO.N,/OE*
X55524400Y39471600D03*
G04 #@! TO.P,J1,16*
G04 #@! TO.N,GND*
X52984400Y39471600D03*
G04 #@! TD*
G04 #@! TO.P,J2,6*
G04 #@! TO.N,/SDA*
X46355000Y10160000D03*
G04 #@! TO.P,J2,5*
G04 #@! TO.N,/SCL*
X48895000Y10160000D03*
G04 #@! TO.P,J2,4*
G04 #@! TO.N,GND*
X51435000Y10160000D03*
G04 #@! TO.P,J2,3*
G04 #@! TO.N,/A3*
X53975000Y10160000D03*
G04 #@! TO.P,J2,2*
G04 #@! TO.N,/A4*
X56515000Y10160000D03*
D15*
G04 #@! TO.P,J2,1*
G04 #@! TO.N,/A5*
X59055000Y10160000D03*
G04 #@! TD*
D14*
G04 #@! TO.P,J3,6*
G04 #@! TO.N,Net-(J3-Pad6)*
X43180000Y10160000D03*
G04 #@! TO.P,J3,5*
G04 #@! TO.N,GND*
X40640000Y10160000D03*
G04 #@! TO.P,J3,4*
G04 #@! TO.N,/5V*
X38100000Y10160000D03*
G04 #@! TO.P,J3,3*
G04 #@! TO.N,/3.3V*
X35560000Y10160000D03*
G04 #@! TO.P,J3,2*
G04 #@! TO.N,/RESET*
X33020000Y10160000D03*
D15*
G04 #@! TO.P,J3,1*
G04 #@! TO.N,/IOREF*
X30480000Y10160000D03*
G04 #@! TD*
D14*
G04 #@! TO.P,J4,6*
G04 #@! TO.N,Net-(J4-Pad6)*
X21336000Y40640000D03*
G04 #@! TO.P,J4,5*
G04 #@! TO.N,/AREF*
X23876000Y40640000D03*
G04 #@! TO.P,J4,4*
G04 #@! TO.N,GND*
X26416000Y40640000D03*
G04 #@! TO.P,J4,3*
G04 #@! TO.N,/SCK*
X28956000Y40640000D03*
G04 #@! TO.P,J4,2*
G04 #@! TO.N,/MISO*
X31496000Y40640000D03*
D15*
G04 #@! TO.P,J4,1*
G04 #@! TO.N,/MOSI*
X34036000Y40640000D03*
G04 #@! TD*
D16*
G04 #@! TO.P,J6,2*
G04 #@! TO.N,GND*
X13365600Y15544800D03*
D17*
G04 #@! TO.P,J6,1*
G04 #@! TO.N,+5V*
X16865600Y15544800D03*
G04 #@! TD*
D18*
G04 #@! TO.N,/G2*
X48564800Y44246800D03*
G04 #@! TO.N,/5V*
X38100000Y6096000D03*
G04 #@! TO.N,/3.3V*
X35560000Y5435600D03*
G04 #@! TD*
D19*
G04 #@! TO.N,/R1*
X56655770Y21691600D02*
X55524400Y21691600D01*
X60220038Y25255868D02*
X56655770Y21691600D01*
X60220038Y48999962D02*
X60220038Y25255868D01*
X58420000Y50800000D02*
X60220038Y48999962D01*
G04 #@! TO.N,/G1*
X59770029Y46909971D02*
X59770029Y26292829D01*
X55880000Y50800000D02*
X59770029Y46909971D01*
X53784399Y22491599D02*
X52984400Y21691600D01*
X54109401Y22816601D02*
X53784399Y22491599D01*
X56293801Y22816601D02*
X54109401Y22816601D01*
X59770029Y26292829D02*
X56293801Y22816601D01*
G04 #@! TO.N,/B1*
X53340000Y50800000D02*
X53340000Y45466000D01*
X54667990Y44138010D02*
X56293590Y44138010D01*
X53340000Y45466000D02*
X54667990Y44138010D01*
X56324399Y25031599D02*
X55524400Y24231600D01*
X59320020Y28027220D02*
X56324399Y25031599D01*
X59320020Y41111580D02*
X59320020Y28027220D01*
X56293590Y44138010D02*
X59320020Y41111580D01*
G04 #@! TO.N,/R2*
X56324399Y27571599D02*
X55524400Y26771600D01*
X50800000Y44704000D02*
X51823190Y43680810D01*
X51823190Y43680810D02*
X51830380Y43688000D01*
X58870010Y30117210D02*
X56324399Y27571599D01*
X51830380Y43688000D02*
X56086020Y43688000D01*
X56086020Y43688000D02*
X58870010Y40904010D01*
X50800000Y50800000D02*
X50800000Y44704000D01*
X58870010Y40904010D02*
X58870010Y30117210D01*
G04 #@! TO.N,/G2*
X48260000Y50800000D02*
X48260000Y44551600D01*
X48260000Y44551600D02*
X48564800Y44246800D01*
G04 #@! TO.N,/B2*
X45720000Y49696914D02*
X45770800Y49646114D01*
X45720000Y50800000D02*
X45720000Y49696914D01*
X45770800Y49646114D02*
X45770800Y44704000D01*
X45770800Y44704000D02*
X47244000Y43230800D01*
X55906810Y43230800D02*
X58420000Y40717610D01*
X47244000Y43230800D02*
X55906810Y43230800D01*
X58420000Y32207200D02*
X55524400Y29311600D01*
X58420000Y40717610D02*
X58420000Y32207200D01*
G04 #@! TO.N,/CLK*
X42435999Y50020001D02*
X42435999Y47276801D01*
X41656000Y50800000D02*
X42435999Y50020001D01*
X42435999Y47276801D02*
X47040800Y42672000D01*
X47040800Y42672000D02*
X55829200Y42672000D01*
X55829200Y42672000D02*
X57810400Y40690800D01*
X57810400Y39217600D02*
X55524400Y36931600D01*
X57810400Y40690800D02*
X57810400Y39217600D01*
G04 #@! TO.N,/OE*
X39895999Y50020001D02*
X39895999Y48750001D01*
X39116000Y50800000D02*
X39895999Y50020001D01*
X39895999Y48750001D02*
X46685200Y41960800D01*
X53035200Y41960800D02*
X55524400Y39471600D01*
X46685200Y41960800D02*
X53035200Y41960800D01*
G04 #@! TO.N,/LAT*
X51853030Y36931600D02*
X52984400Y36931600D01*
X49341314Y36931600D02*
X51853030Y36931600D01*
X36576000Y49696914D02*
X49341314Y36931600D01*
X36576000Y50800000D02*
X36576000Y49696914D01*
G04 #@! TO.N,/MOSI*
X34036000Y50800000D02*
X34036000Y40640000D01*
G04 #@! TO.N,/MISO*
X31496000Y49696914D02*
X31496000Y40640000D01*
X31496000Y50800000D02*
X31496000Y49696914D01*
G04 #@! TO.N,/SCK*
X28956000Y50800000D02*
X28956000Y40640000D01*
G04 #@! TO.N,GND*
X26416000Y50800000D02*
X26416000Y40640000D01*
G04 #@! TO.N,/AREF*
X23876000Y49696914D02*
X23876000Y40640000D01*
X23876000Y50800000D02*
X23876000Y49696914D01*
G04 #@! TO.N,/SDA*
X46355000Y10160000D02*
X46355000Y13182600D01*
X46355000Y13182600D02*
X27432000Y32105600D01*
X27432000Y32105600D02*
X25196800Y32105600D01*
X25196800Y32105600D02*
X19507200Y37795200D01*
X19507200Y37795200D02*
X19507200Y42926000D01*
X21336000Y44754800D02*
X21336000Y50800000D01*
X19507200Y42926000D02*
X21336000Y44754800D01*
G04 #@! TO.N,/SCL*
X18796000Y37869990D02*
X18796000Y49696914D01*
X27178000Y31546800D02*
X25119190Y31546800D01*
X48895000Y9067800D02*
X48158400Y8331200D01*
X48895000Y10160000D02*
X48895000Y9067800D01*
X18796000Y49696914D02*
X18796000Y50800000D01*
X48158400Y8331200D02*
X45567600Y8331200D01*
X45567600Y8331200D02*
X44856400Y9042400D01*
X25119190Y31546800D02*
X18796000Y37869990D01*
X44856400Y9042400D02*
X44856400Y13868400D01*
X44856400Y13868400D02*
X27178000Y31546800D01*
G04 #@! TO.N,/A5*
X59055000Y6985000D02*
X63500000Y2540000D01*
X59055000Y10160000D02*
X59055000Y6985000D01*
G04 #@! TO.N,/A4*
X56515000Y6985000D02*
X60960000Y2540000D01*
X56515000Y10160000D02*
X56515000Y6985000D01*
G04 #@! TO.N,/A3*
X53975000Y6985000D02*
X58420000Y2540000D01*
X53975000Y10160000D02*
X53975000Y6985000D01*
G04 #@! TO.N,+12V*
X5777800Y39433500D02*
X1473200Y35128900D01*
X6527800Y39433500D02*
X5777800Y39433500D01*
X1473200Y17932400D02*
X3860800Y15544800D01*
X1473200Y35128900D02*
X1473200Y17932400D01*
G04 #@! TO.N,/5V*
X37896800Y6299200D02*
X38100000Y6096000D01*
X37534315Y6096000D02*
X37331115Y6299200D01*
X38100000Y6096000D02*
X37534315Y6096000D01*
X37331115Y6299200D02*
X24536400Y6299200D01*
X23964900Y5727700D02*
X21501100Y5727700D01*
X24536400Y6299200D02*
X23964900Y5727700D01*
G04 #@! TO.N,/3.3V*
X21501100Y3886200D02*
X23088600Y3886200D01*
X24638000Y5435600D02*
X35560000Y5435600D01*
X23088600Y3886200D02*
X24638000Y5435600D01*
D20*
G04 #@! TO.N,+5V*
X3860800Y17544800D02*
X5352800Y17544800D01*
X5352800Y17544800D02*
X7162800Y19354800D01*
X16319500Y36715000D02*
X16319500Y37465000D01*
X16319500Y23768700D02*
X16319500Y36715000D01*
X11905600Y19354800D02*
X16319500Y23768700D01*
X14205600Y19354800D02*
X11734800Y19354800D01*
X16865600Y16694800D02*
X14205600Y19354800D01*
X16865600Y15544800D02*
X16865600Y16694800D01*
X7162800Y19354800D02*
X11734800Y19354800D01*
X11734800Y19354800D02*
X11905600Y19354800D01*
X16256000Y37528500D02*
X16319500Y37465000D01*
X6527800Y37528500D02*
X16256000Y37528500D01*
G04 #@! TD*
D21*
G04 #@! TO.N,GND*
G36*
X13550229Y52553838D02*
X13175707Y52179316D01*
X12805000Y51284352D01*
X12805000Y50315648D01*
X13175707Y49420684D01*
X13860684Y48735707D01*
X14755648Y48365000D01*
X15724352Y48365000D01*
X16619316Y48735707D01*
X17304293Y49420684D01*
X17570020Y50062205D01*
X17596421Y49998467D01*
X17994467Y49600421D01*
X18036001Y49583217D01*
X18036000Y37944837D01*
X18021112Y37869990D01*
X18036000Y37795143D01*
X18036000Y37795139D01*
X18080096Y37573454D01*
X18248071Y37322061D01*
X18311530Y37279659D01*
X24528860Y31062328D01*
X24571261Y30998871D01*
X24822653Y30830896D01*
X25044338Y30786800D01*
X25044342Y30786800D01*
X25119189Y30771912D01*
X25194036Y30786800D01*
X26863199Y30786800D01*
X44096401Y13553597D01*
X44096400Y11272996D01*
X43992862Y11376534D01*
X43465439Y11595000D01*
X42894561Y11595000D01*
X42367138Y11376534D01*
X41963466Y10972862D01*
X41916475Y10859417D01*
X41893864Y10914005D01*
X41647745Y10988139D01*
X40819605Y10160000D01*
X41647745Y9331861D01*
X41893864Y9405995D01*
X41914874Y9464448D01*
X41963466Y9347138D01*
X42367138Y8943466D01*
X42894561Y8725000D01*
X43465439Y8725000D01*
X43992862Y8943466D01*
X44083218Y9033822D01*
X44096400Y8967553D01*
X44096400Y8967549D01*
X44140496Y8745864D01*
X44308471Y8494471D01*
X44371930Y8452069D01*
X44977271Y7846727D01*
X45019671Y7783271D01*
X45083127Y7740871D01*
X45271062Y7615296D01*
X45319205Y7605720D01*
X45492748Y7571200D01*
X45492752Y7571200D01*
X45567600Y7556312D01*
X45642448Y7571200D01*
X48083553Y7571200D01*
X48158400Y7556312D01*
X48233247Y7571200D01*
X48233252Y7571200D01*
X48454937Y7615296D01*
X48706329Y7783271D01*
X48748731Y7846730D01*
X49379473Y8477471D01*
X49442929Y8519871D01*
X49515004Y8627738D01*
X49610904Y8771262D01*
X49639527Y8915161D01*
X49707862Y8943466D01*
X49916651Y9152255D01*
X50606861Y9152255D01*
X50680995Y8906136D01*
X51218223Y8713035D01*
X51788454Y8740222D01*
X52189005Y8906136D01*
X52263139Y9152255D01*
X51435000Y9980395D01*
X50606861Y9152255D01*
X49916651Y9152255D01*
X50111534Y9347138D01*
X50158525Y9460583D01*
X50181136Y9405995D01*
X50427255Y9331861D01*
X51255395Y10160000D01*
X50427255Y10988139D01*
X50181136Y10914005D01*
X50160126Y10855552D01*
X50111534Y10972862D01*
X49916651Y11167745D01*
X50606861Y11167745D01*
X51435000Y10339605D01*
X52263139Y11167745D01*
X52189005Y11413864D01*
X51651777Y11606965D01*
X51081546Y11579778D01*
X50680995Y11413864D01*
X50606861Y11167745D01*
X49916651Y11167745D01*
X49707862Y11376534D01*
X49180439Y11595000D01*
X48609561Y11595000D01*
X48082138Y11376534D01*
X47678466Y10972862D01*
X47625000Y10843784D01*
X47571534Y10972862D01*
X47167862Y11376534D01*
X47115000Y11398430D01*
X47115000Y13107754D01*
X47129888Y13182601D01*
X47115000Y13257448D01*
X47115000Y13257452D01*
X47070904Y13479137D01*
X46902929Y13730529D01*
X46839473Y13772929D01*
X36164025Y24448377D01*
X51537435Y24448377D01*
X51564622Y23878146D01*
X51730536Y23477595D01*
X51976655Y23403461D01*
X52804795Y24231600D01*
X51976655Y25059739D01*
X51730536Y24985605D01*
X51537435Y24448377D01*
X36164025Y24448377D01*
X31084025Y29528377D01*
X51537435Y29528377D01*
X51564622Y28958146D01*
X51730536Y28557595D01*
X51976655Y28483461D01*
X52804795Y29311600D01*
X51976655Y30139739D01*
X51730536Y30065605D01*
X51537435Y29528377D01*
X31084025Y29528377D01*
X28022331Y32590070D01*
X27979929Y32653529D01*
X27728537Y32821504D01*
X27506852Y32865600D01*
X27506847Y32865600D01*
X27432000Y32880488D01*
X27357153Y32865600D01*
X25511603Y32865600D01*
X23768826Y34608377D01*
X51537435Y34608377D01*
X51564622Y34038146D01*
X51730536Y33637595D01*
X51976655Y33563461D01*
X52804795Y34391600D01*
X51976655Y35219739D01*
X51730536Y35145605D01*
X51537435Y34608377D01*
X23768826Y34608377D01*
X20267200Y38110001D01*
X20267200Y39679404D01*
X20523138Y39423466D01*
X21050561Y39205000D01*
X21621439Y39205000D01*
X22148862Y39423466D01*
X22552534Y39827138D01*
X22606000Y39956216D01*
X22659466Y39827138D01*
X23063138Y39423466D01*
X23590561Y39205000D01*
X24161439Y39205000D01*
X24688862Y39423466D01*
X24897651Y39632255D01*
X25587861Y39632255D01*
X25661995Y39386136D01*
X26199223Y39193035D01*
X26769454Y39220222D01*
X27170005Y39386136D01*
X27244139Y39632255D01*
X26416000Y40460395D01*
X25587861Y39632255D01*
X24897651Y39632255D01*
X25092534Y39827138D01*
X25139525Y39940583D01*
X25162136Y39885995D01*
X25408255Y39811861D01*
X26236395Y40640000D01*
X25408255Y41468139D01*
X25162136Y41394005D01*
X25141126Y41335552D01*
X25092534Y41452862D01*
X24897651Y41647745D01*
X25587861Y41647745D01*
X26416000Y40819605D01*
X27244139Y41647745D01*
X27170005Y41893864D01*
X26632777Y42086965D01*
X26062546Y42059778D01*
X25661995Y41893864D01*
X25587861Y41647745D01*
X24897651Y41647745D01*
X24688862Y41856534D01*
X24636000Y41878430D01*
X24636000Y49583217D01*
X24677533Y49600421D01*
X24883857Y49806745D01*
X25602350Y49806745D01*
X25674028Y49562697D01*
X26204003Y49372940D01*
X26766252Y49400441D01*
X27157972Y49562697D01*
X27229650Y49806745D01*
X26416000Y50620395D01*
X25602350Y49806745D01*
X24883857Y49806745D01*
X25075579Y49998467D01*
X25139473Y50152722D01*
X25178697Y50058028D01*
X25422745Y49986350D01*
X26236395Y50800000D01*
X26595605Y50800000D01*
X27409255Y49986350D01*
X27653303Y50058028D01*
X27689674Y50159609D01*
X27756421Y49998467D01*
X28154467Y49600421D01*
X28196000Y49583217D01*
X28196001Y41878431D01*
X28143138Y41856534D01*
X27739466Y41452862D01*
X27692475Y41339417D01*
X27669864Y41394005D01*
X27423745Y41468139D01*
X26595605Y40640000D01*
X27423745Y39811861D01*
X27669864Y39885995D01*
X27690874Y39944448D01*
X27739466Y39827138D01*
X28143138Y39423466D01*
X28670561Y39205000D01*
X29241439Y39205000D01*
X29768862Y39423466D01*
X30172534Y39827138D01*
X30226000Y39956216D01*
X30279466Y39827138D01*
X30683138Y39423466D01*
X31210561Y39205000D01*
X31781439Y39205000D01*
X32308862Y39423466D01*
X32611262Y39725866D01*
X32637843Y39592235D01*
X32778191Y39382191D01*
X32988235Y39241843D01*
X33236000Y39192560D01*
X34836000Y39192560D01*
X35083765Y39241843D01*
X35293809Y39382191D01*
X35434157Y39592235D01*
X35483440Y39840000D01*
X35483440Y41440000D01*
X35434157Y41687765D01*
X35293809Y41897809D01*
X35083765Y42038157D01*
X34836000Y42087440D01*
X34796000Y42087440D01*
X34796000Y49583217D01*
X34837533Y49600421D01*
X35235579Y49998467D01*
X35306000Y50168478D01*
X35376421Y49998467D01*
X35774467Y49600421D01*
X35824422Y49579729D01*
X35860097Y49400377D01*
X35924429Y49304098D01*
X36028072Y49148985D01*
X36091528Y49106585D01*
X48750985Y36447127D01*
X48793385Y36383671D01*
X49044777Y36215696D01*
X49266462Y36171600D01*
X49266466Y36171600D01*
X49341313Y36156712D01*
X49416160Y36171600D01*
X51745970Y36171600D01*
X51767866Y36118738D01*
X52171538Y35715066D01*
X52284983Y35668075D01*
X52230395Y35645464D01*
X52156261Y35399345D01*
X52984400Y34571205D01*
X53812539Y35399345D01*
X53738405Y35645464D01*
X53679952Y35666474D01*
X53797262Y35715066D01*
X54200934Y36118738D01*
X54254400Y36247816D01*
X54307866Y36118738D01*
X54711538Y35715066D01*
X54840616Y35661600D01*
X54711538Y35608134D01*
X54307866Y35204462D01*
X54260875Y35091017D01*
X54238264Y35145605D01*
X53992145Y35219739D01*
X53164005Y34391600D01*
X53992145Y33563461D01*
X54238264Y33637595D01*
X54259274Y33696048D01*
X54307866Y33578738D01*
X54711538Y33175066D01*
X54840616Y33121600D01*
X54711538Y33068134D01*
X54307866Y32664462D01*
X54254400Y32535384D01*
X54200934Y32664462D01*
X53797262Y33068134D01*
X53683817Y33115125D01*
X53738405Y33137736D01*
X53812539Y33383855D01*
X52984400Y34211995D01*
X52156261Y33383855D01*
X52230395Y33137736D01*
X52288848Y33116726D01*
X52171538Y33068134D01*
X51767866Y32664462D01*
X51549400Y32137039D01*
X51549400Y31566161D01*
X51767866Y31038738D01*
X52171538Y30635066D01*
X52284983Y30588075D01*
X52230395Y30565464D01*
X52156261Y30319345D01*
X52984400Y29491205D01*
X53812539Y30319345D01*
X53738405Y30565464D01*
X53679952Y30586474D01*
X53797262Y30635066D01*
X54200934Y31038738D01*
X54254400Y31167816D01*
X54307866Y31038738D01*
X54711538Y30635066D01*
X54840616Y30581600D01*
X54711538Y30528134D01*
X54307866Y30124462D01*
X54260875Y30011017D01*
X54238264Y30065605D01*
X53992145Y30139739D01*
X53164005Y29311600D01*
X53992145Y28483461D01*
X54238264Y28557595D01*
X54259274Y28616048D01*
X54307866Y28498738D01*
X54711538Y28095066D01*
X54840616Y28041600D01*
X54711538Y27988134D01*
X54307866Y27584462D01*
X54254400Y27455384D01*
X54200934Y27584462D01*
X53797262Y27988134D01*
X53683817Y28035125D01*
X53738405Y28057736D01*
X53812539Y28303855D01*
X52984400Y29131995D01*
X52156261Y28303855D01*
X52230395Y28057736D01*
X52288848Y28036726D01*
X52171538Y27988134D01*
X51767866Y27584462D01*
X51549400Y27057039D01*
X51549400Y26486161D01*
X51767866Y25958738D01*
X52171538Y25555066D01*
X52284983Y25508075D01*
X52230395Y25485464D01*
X52156261Y25239345D01*
X52984400Y24411205D01*
X53812539Y25239345D01*
X53738405Y25485464D01*
X53679952Y25506474D01*
X53797262Y25555066D01*
X54200934Y25958738D01*
X54254400Y26087816D01*
X54307866Y25958738D01*
X54711538Y25555066D01*
X54840616Y25501600D01*
X54711538Y25448134D01*
X54307866Y25044462D01*
X54260875Y24931017D01*
X54238264Y24985605D01*
X53992145Y25059739D01*
X53164005Y24231600D01*
X53178148Y24217458D01*
X52998542Y24037852D01*
X52984400Y24051995D01*
X52156261Y23223855D01*
X52230395Y22977736D01*
X52288848Y22956726D01*
X52171538Y22908134D01*
X51767866Y22504462D01*
X51549400Y21977039D01*
X51549400Y21406161D01*
X51767866Y20878738D01*
X52171538Y20475066D01*
X52698961Y20256600D01*
X53269839Y20256600D01*
X53797262Y20475066D01*
X54200934Y20878738D01*
X54254400Y21007816D01*
X54307866Y20878738D01*
X54711538Y20475066D01*
X55238961Y20256600D01*
X55809839Y20256600D01*
X56337262Y20475066D01*
X56740934Y20878738D01*
X56765722Y20938582D01*
X56952307Y20975696D01*
X57203699Y21143671D01*
X57246101Y21207130D01*
X60704511Y24665539D01*
X60767967Y24707939D01*
X60935942Y24959331D01*
X60980038Y25181016D01*
X60980038Y25181020D01*
X60994926Y25255867D01*
X60980038Y25330714D01*
X60980038Y48925116D01*
X60994926Y48999963D01*
X60980038Y49074810D01*
X60980038Y49074814D01*
X60935942Y49296499D01*
X60876807Y49385000D01*
X61241461Y49385000D01*
X61761533Y49600421D01*
X62159579Y49998467D01*
X62230000Y50168478D01*
X62300421Y49998467D01*
X62698467Y49600421D01*
X63218539Y49385000D01*
X63781461Y49385000D01*
X64301533Y49600421D01*
X64699579Y49998467D01*
X64915000Y50518539D01*
X64915000Y51081461D01*
X64699579Y51601533D01*
X64301533Y51999579D01*
X63781461Y52215000D01*
X63218539Y52215000D01*
X62698467Y51999579D01*
X62300421Y51601533D01*
X62230000Y51431522D01*
X62159579Y51601533D01*
X61761533Y51999579D01*
X61241461Y52215000D01*
X60678539Y52215000D01*
X60158467Y51999579D01*
X59760421Y51601533D01*
X59690000Y51431522D01*
X59619579Y51601533D01*
X59221533Y51999579D01*
X58701461Y52215000D01*
X58138539Y52215000D01*
X57618467Y51999579D01*
X57220421Y51601533D01*
X57150000Y51431522D01*
X57079579Y51601533D01*
X56681533Y51999579D01*
X56161461Y52215000D01*
X55598539Y52215000D01*
X55078467Y51999579D01*
X54680421Y51601533D01*
X54610000Y51431522D01*
X54539579Y51601533D01*
X54141533Y51999579D01*
X53621461Y52215000D01*
X53058539Y52215000D01*
X52538467Y51999579D01*
X52140421Y51601533D01*
X52070000Y51431522D01*
X51999579Y51601533D01*
X51601533Y51999579D01*
X51081461Y52215000D01*
X50518539Y52215000D01*
X49998467Y51999579D01*
X49600421Y51601533D01*
X49530000Y51431522D01*
X49459579Y51601533D01*
X49061533Y51999579D01*
X48541461Y52215000D01*
X47978539Y52215000D01*
X47458467Y51999579D01*
X47060421Y51601533D01*
X46990000Y51431522D01*
X46919579Y51601533D01*
X46521533Y51999579D01*
X46001461Y52215000D01*
X45438539Y52215000D01*
X44918467Y51999579D01*
X44520421Y51601533D01*
X44305000Y51081461D01*
X44305000Y50518539D01*
X44520421Y49998467D01*
X44918467Y49600421D01*
X44968422Y49579729D01*
X45004097Y49400377D01*
X45010800Y49390345D01*
X45010801Y45776801D01*
X43195999Y47591602D01*
X43195999Y49945155D01*
X43210887Y50020002D01*
X43195999Y50094849D01*
X43195999Y50094853D01*
X43151903Y50316538D01*
X43050308Y50468585D01*
X43071000Y50518539D01*
X43071000Y51081461D01*
X42855579Y51601533D01*
X42457533Y51999579D01*
X41937461Y52215000D01*
X41374539Y52215000D01*
X40854467Y51999579D01*
X40456421Y51601533D01*
X40386000Y51431522D01*
X40315579Y51601533D01*
X39917533Y51999579D01*
X39397461Y52215000D01*
X38834539Y52215000D01*
X38314467Y51999579D01*
X37916421Y51601533D01*
X37846000Y51431522D01*
X37775579Y51601533D01*
X37377533Y51999579D01*
X36857461Y52215000D01*
X36294539Y52215000D01*
X35774467Y51999579D01*
X35376421Y51601533D01*
X35306000Y51431522D01*
X35235579Y51601533D01*
X34837533Y51999579D01*
X34317461Y52215000D01*
X33754539Y52215000D01*
X33234467Y51999579D01*
X32836421Y51601533D01*
X32766000Y51431522D01*
X32695579Y51601533D01*
X32297533Y51999579D01*
X31777461Y52215000D01*
X31214539Y52215000D01*
X30694467Y51999579D01*
X30296421Y51601533D01*
X30226000Y51431522D01*
X30155579Y51601533D01*
X29757533Y51999579D01*
X29237461Y52215000D01*
X28674539Y52215000D01*
X28154467Y51999579D01*
X27756421Y51601533D01*
X27692527Y51447278D01*
X27653303Y51541972D01*
X27409255Y51613650D01*
X26595605Y50800000D01*
X26236395Y50800000D01*
X25422745Y51613650D01*
X25178697Y51541972D01*
X25142326Y51440391D01*
X25075579Y51601533D01*
X24883857Y51793255D01*
X25602350Y51793255D01*
X26416000Y50979605D01*
X27229650Y51793255D01*
X27157972Y52037303D01*
X26627997Y52227060D01*
X26065748Y52199559D01*
X25674028Y52037303D01*
X25602350Y51793255D01*
X24883857Y51793255D01*
X24677533Y51999579D01*
X24157461Y52215000D01*
X23594539Y52215000D01*
X23074467Y51999579D01*
X22676421Y51601533D01*
X22606000Y51431522D01*
X22535579Y51601533D01*
X22137533Y51999579D01*
X21617461Y52215000D01*
X21054539Y52215000D01*
X20534467Y51999579D01*
X20136421Y51601533D01*
X20066000Y51431522D01*
X19995579Y51601533D01*
X19597533Y51999579D01*
X19077461Y52215000D01*
X18514539Y52215000D01*
X17994467Y51999579D01*
X17596421Y51601533D01*
X17570020Y51537795D01*
X17304293Y52179316D01*
X16933088Y52550521D01*
X65132252Y52503267D01*
X65330000Y52325293D01*
X65330001Y40455929D01*
X65316091Y40386000D01*
X65364453Y40142871D01*
X65371196Y40108972D01*
X65528120Y39874119D01*
X65587402Y39834508D01*
X67870000Y37551909D01*
X67870000Y37173609D01*
X67419316Y37624293D01*
X66524352Y37995000D01*
X65555648Y37995000D01*
X64660684Y37624293D01*
X63975707Y36939316D01*
X63605000Y36044352D01*
X63605000Y35075648D01*
X63975707Y34180684D01*
X64660684Y33495707D01*
X65555648Y33125000D01*
X66524352Y33125000D01*
X67419316Y33495707D01*
X67870000Y33946391D01*
X67870001Y9233608D01*
X67419316Y9684293D01*
X66524352Y10055000D01*
X65555648Y10055000D01*
X64660684Y9684293D01*
X63975707Y8999316D01*
X63605000Y8104352D01*
X63605000Y7135648D01*
X63975707Y6240684D01*
X64660684Y5555707D01*
X65555648Y5185000D01*
X66524352Y5185000D01*
X67419316Y5555707D01*
X67870001Y6006392D01*
X67870001Y5374092D01*
X65587402Y3091492D01*
X65528119Y3051880D01*
X65371195Y2817027D01*
X65365430Y2788043D01*
X65316091Y2540000D01*
X65330000Y2470075D01*
X65330001Y887707D01*
X65132549Y710000D01*
X15583609Y710000D01*
X16034293Y1160684D01*
X16405000Y2055648D01*
X16405000Y3024352D01*
X16034293Y3919316D01*
X15349316Y4604293D01*
X14454352Y4975000D01*
X13485648Y4975000D01*
X12590684Y4604293D01*
X11905707Y3919316D01*
X11535000Y3024352D01*
X11535000Y2055648D01*
X11905707Y1160684D01*
X12356391Y710000D01*
X929091Y710000D01*
X710000Y929091D01*
X710000Y6227700D01*
X20353660Y6227700D01*
X20353660Y5227700D01*
X20402943Y4979935D01*
X20518529Y4806950D01*
X20402943Y4633965D01*
X20353660Y4386200D01*
X20353660Y3386200D01*
X20402943Y3138435D01*
X20543291Y2928391D01*
X20753335Y2788043D01*
X21001100Y2738760D01*
X22001100Y2738760D01*
X22248865Y2788043D01*
X22298878Y2821461D01*
X26525000Y2821461D01*
X26525000Y2258539D01*
X26740421Y1738467D01*
X27138467Y1340421D01*
X27658539Y1125000D01*
X28221461Y1125000D01*
X28741533Y1340421D01*
X29139579Y1738467D01*
X29210000Y1908478D01*
X29280421Y1738467D01*
X29678467Y1340421D01*
X30198539Y1125000D01*
X30761461Y1125000D01*
X31281533Y1340421D01*
X31679579Y1738467D01*
X31750000Y1908478D01*
X31820421Y1738467D01*
X32218467Y1340421D01*
X32738539Y1125000D01*
X33301461Y1125000D01*
X33821533Y1340421D01*
X34219579Y1738467D01*
X34290000Y1908478D01*
X34360421Y1738467D01*
X34758467Y1340421D01*
X35278539Y1125000D01*
X35841461Y1125000D01*
X36361533Y1340421D01*
X36759579Y1738467D01*
X36830000Y1908478D01*
X36900421Y1738467D01*
X37298467Y1340421D01*
X37818539Y1125000D01*
X38381461Y1125000D01*
X38901533Y1340421D01*
X39107857Y1546745D01*
X39826350Y1546745D01*
X39898028Y1302697D01*
X40428003Y1112940D01*
X40990252Y1140441D01*
X41381972Y1302697D01*
X41453650Y1546745D01*
X42366350Y1546745D01*
X42438028Y1302697D01*
X42968003Y1112940D01*
X43530252Y1140441D01*
X43921972Y1302697D01*
X43993650Y1546745D01*
X43180000Y2360395D01*
X42366350Y1546745D01*
X41453650Y1546745D01*
X40640000Y2360395D01*
X39826350Y1546745D01*
X39107857Y1546745D01*
X39299579Y1738467D01*
X39363473Y1892722D01*
X39402697Y1798028D01*
X39646745Y1726350D01*
X40460395Y2540000D01*
X40819605Y2540000D01*
X41633255Y1726350D01*
X41877303Y1798028D01*
X41907622Y1882706D01*
X41942697Y1798028D01*
X42186745Y1726350D01*
X43000395Y2540000D01*
X43359605Y2540000D01*
X44173255Y1726350D01*
X44417303Y1798028D01*
X44453674Y1899609D01*
X44520421Y1738467D01*
X44918467Y1340421D01*
X45438539Y1125000D01*
X46001461Y1125000D01*
X46521533Y1340421D01*
X46919579Y1738467D01*
X47135000Y2258539D01*
X47135000Y2821461D01*
X49385000Y2821461D01*
X49385000Y2258539D01*
X49600421Y1738467D01*
X49998467Y1340421D01*
X50518539Y1125000D01*
X51081461Y1125000D01*
X51601533Y1340421D01*
X51999579Y1738467D01*
X52070000Y1908478D01*
X52140421Y1738467D01*
X52538467Y1340421D01*
X53058539Y1125000D01*
X53621461Y1125000D01*
X54141533Y1340421D01*
X54539579Y1738467D01*
X54610000Y1908478D01*
X54680421Y1738467D01*
X55078467Y1340421D01*
X55598539Y1125000D01*
X56161461Y1125000D01*
X56681533Y1340421D01*
X57079579Y1738467D01*
X57150000Y1908478D01*
X57220421Y1738467D01*
X57618467Y1340421D01*
X58138539Y1125000D01*
X58701461Y1125000D01*
X59221533Y1340421D01*
X59619579Y1738467D01*
X59690000Y1908478D01*
X59760421Y1738467D01*
X60158467Y1340421D01*
X60678539Y1125000D01*
X61241461Y1125000D01*
X61761533Y1340421D01*
X62159579Y1738467D01*
X62230000Y1908478D01*
X62300421Y1738467D01*
X62698467Y1340421D01*
X63218539Y1125000D01*
X63781461Y1125000D01*
X64301533Y1340421D01*
X64699579Y1738467D01*
X64915000Y2258539D01*
X64915000Y2821461D01*
X64699579Y3341533D01*
X64301533Y3739579D01*
X63781461Y3955000D01*
X63218539Y3955000D01*
X63177006Y3937796D01*
X59815000Y7299801D01*
X59815000Y8712560D01*
X59855000Y8712560D01*
X60102765Y8761843D01*
X60312809Y8902191D01*
X60453157Y9112235D01*
X60502440Y9360000D01*
X60502440Y10960000D01*
X60453157Y11207765D01*
X60312809Y11417809D01*
X60102765Y11558157D01*
X59855000Y11607440D01*
X58255000Y11607440D01*
X58007235Y11558157D01*
X57797191Y11417809D01*
X57656843Y11207765D01*
X57630262Y11074134D01*
X57327862Y11376534D01*
X56800439Y11595000D01*
X56229561Y11595000D01*
X55702138Y11376534D01*
X55298466Y10972862D01*
X55245000Y10843784D01*
X55191534Y10972862D01*
X54787862Y11376534D01*
X54260439Y11595000D01*
X53689561Y11595000D01*
X53162138Y11376534D01*
X52758466Y10972862D01*
X52711475Y10859417D01*
X52688864Y10914005D01*
X52442745Y10988139D01*
X51614605Y10160000D01*
X52442745Y9331861D01*
X52688864Y9405995D01*
X52709874Y9464448D01*
X52758466Y9347138D01*
X53162138Y8943466D01*
X53215000Y8921570D01*
X53215001Y7059852D01*
X53200112Y6985000D01*
X53259097Y6688463D01*
X53321055Y6595737D01*
X53427072Y6437071D01*
X53490528Y6394671D01*
X55930198Y3955000D01*
X55598539Y3955000D01*
X55078467Y3739579D01*
X54680421Y3341533D01*
X54610000Y3171522D01*
X54539579Y3341533D01*
X54141533Y3739579D01*
X53621461Y3955000D01*
X53058539Y3955000D01*
X52538467Y3739579D01*
X52140421Y3341533D01*
X52070000Y3171522D01*
X51999579Y3341533D01*
X51601533Y3739579D01*
X51081461Y3955000D01*
X50518539Y3955000D01*
X49998467Y3739579D01*
X49600421Y3341533D01*
X49385000Y2821461D01*
X47135000Y2821461D01*
X46919579Y3341533D01*
X46521533Y3739579D01*
X46001461Y3955000D01*
X45438539Y3955000D01*
X44918467Y3739579D01*
X44520421Y3341533D01*
X44456527Y3187278D01*
X44417303Y3281972D01*
X44173255Y3353650D01*
X43359605Y2540000D01*
X43000395Y2540000D01*
X42186745Y3353650D01*
X41942697Y3281972D01*
X41912378Y3197294D01*
X41877303Y3281972D01*
X41633255Y3353650D01*
X40819605Y2540000D01*
X40460395Y2540000D01*
X39646745Y3353650D01*
X39402697Y3281972D01*
X39366326Y3180391D01*
X39299579Y3341533D01*
X39107857Y3533255D01*
X39826350Y3533255D01*
X40640000Y2719605D01*
X41453650Y3533255D01*
X42366350Y3533255D01*
X43180000Y2719605D01*
X43993650Y3533255D01*
X43921972Y3777303D01*
X43391997Y3967060D01*
X42829748Y3939559D01*
X42438028Y3777303D01*
X42366350Y3533255D01*
X41453650Y3533255D01*
X41381972Y3777303D01*
X40851997Y3967060D01*
X40289748Y3939559D01*
X39898028Y3777303D01*
X39826350Y3533255D01*
X39107857Y3533255D01*
X38901533Y3739579D01*
X38381461Y3955000D01*
X37818539Y3955000D01*
X37298467Y3739579D01*
X36900421Y3341533D01*
X36830000Y3171522D01*
X36759579Y3341533D01*
X36361533Y3739579D01*
X35841461Y3955000D01*
X35278539Y3955000D01*
X34758467Y3739579D01*
X34360421Y3341533D01*
X34290000Y3171522D01*
X34219579Y3341533D01*
X33821533Y3739579D01*
X33301461Y3955000D01*
X32738539Y3955000D01*
X32218467Y3739579D01*
X31820421Y3341533D01*
X31750000Y3171522D01*
X31679579Y3341533D01*
X31281533Y3739579D01*
X30761461Y3955000D01*
X30198539Y3955000D01*
X29678467Y3739579D01*
X29280421Y3341533D01*
X29210000Y3171522D01*
X29139579Y3341533D01*
X28741533Y3739579D01*
X28221461Y3955000D01*
X27658539Y3955000D01*
X27138467Y3739579D01*
X26740421Y3341533D01*
X26525000Y2821461D01*
X22298878Y2821461D01*
X22458909Y2928391D01*
X22591082Y3126200D01*
X23013753Y3126200D01*
X23088600Y3111312D01*
X23163447Y3126200D01*
X23163452Y3126200D01*
X23385137Y3170296D01*
X23636529Y3338271D01*
X23678931Y3401730D01*
X24952803Y4675600D01*
X34856289Y4675600D01*
X34973720Y4558169D01*
X35354126Y4400600D01*
X35765874Y4400600D01*
X36146280Y4558169D01*
X36437431Y4849320D01*
X36595000Y5229726D01*
X36595000Y5539200D01*
X36999662Y5539200D01*
X37237778Y5380096D01*
X37380603Y5351686D01*
X37513720Y5218569D01*
X37894126Y5061000D01*
X38305874Y5061000D01*
X38686280Y5218569D01*
X38977431Y5509720D01*
X39135000Y5890126D01*
X39135000Y6301874D01*
X38977431Y6682280D01*
X38686280Y6973431D01*
X38305874Y7131000D01*
X37894126Y7131000D01*
X37627317Y7020484D01*
X37613960Y7017828D01*
X37405967Y7059200D01*
X37405962Y7059200D01*
X37331115Y7074088D01*
X37256268Y7059200D01*
X24611246Y7059200D01*
X24536399Y7074088D01*
X24461552Y7059200D01*
X24461548Y7059200D01*
X24239863Y7015104D01*
X23988471Y6847129D01*
X23946071Y6783673D01*
X23650099Y6487700D01*
X22591082Y6487700D01*
X22458909Y6685509D01*
X22424276Y6708650D01*
X22539427Y6823802D01*
X22636100Y7057191D01*
X22636100Y7397750D01*
X22477350Y7556500D01*
X21628100Y7556500D01*
X21628100Y7536500D01*
X21374100Y7536500D01*
X21374100Y7556500D01*
X20524850Y7556500D01*
X20366100Y7397750D01*
X20366100Y7057191D01*
X20462773Y6823802D01*
X20577924Y6708650D01*
X20543291Y6685509D01*
X20402943Y6475465D01*
X20353660Y6227700D01*
X710000Y6227700D01*
X710000Y8309809D01*
X20366100Y8309809D01*
X20366100Y7969250D01*
X20524850Y7810500D01*
X21374100Y7810500D01*
X21374100Y8659750D01*
X21628100Y8659750D01*
X21628100Y7810500D01*
X22477350Y7810500D01*
X22636100Y7969250D01*
X22636100Y8309809D01*
X22539427Y8543198D01*
X22360799Y8721827D01*
X22127410Y8818500D01*
X21786850Y8818500D01*
X21628100Y8659750D01*
X21374100Y8659750D01*
X21215350Y8818500D01*
X20874790Y8818500D01*
X20641401Y8721827D01*
X20462773Y8543198D01*
X20366100Y8309809D01*
X710000Y8309809D01*
X710000Y10960000D01*
X29032560Y10960000D01*
X29032560Y9360000D01*
X29081843Y9112235D01*
X29222191Y8902191D01*
X29432235Y8761843D01*
X29680000Y8712560D01*
X31280000Y8712560D01*
X31527765Y8761843D01*
X31737809Y8902191D01*
X31878157Y9112235D01*
X31904738Y9245866D01*
X32207138Y8943466D01*
X32734561Y8725000D01*
X33305439Y8725000D01*
X33832862Y8943466D01*
X34236534Y9347138D01*
X34290000Y9476216D01*
X34343466Y9347138D01*
X34747138Y8943466D01*
X35274561Y8725000D01*
X35845439Y8725000D01*
X36372862Y8943466D01*
X36776534Y9347138D01*
X36830000Y9476216D01*
X36883466Y9347138D01*
X37287138Y8943466D01*
X37814561Y8725000D01*
X38385439Y8725000D01*
X38912862Y8943466D01*
X39121651Y9152255D01*
X39811861Y9152255D01*
X39885995Y8906136D01*
X40423223Y8713035D01*
X40993454Y8740222D01*
X41394005Y8906136D01*
X41468139Y9152255D01*
X40640000Y9980395D01*
X39811861Y9152255D01*
X39121651Y9152255D01*
X39316534Y9347138D01*
X39363525Y9460583D01*
X39386136Y9405995D01*
X39632255Y9331861D01*
X40460395Y10160000D01*
X39632255Y10988139D01*
X39386136Y10914005D01*
X39365126Y10855552D01*
X39316534Y10972862D01*
X39121651Y11167745D01*
X39811861Y11167745D01*
X40640000Y10339605D01*
X41468139Y11167745D01*
X41394005Y11413864D01*
X40856777Y11606965D01*
X40286546Y11579778D01*
X39885995Y11413864D01*
X39811861Y11167745D01*
X39121651Y11167745D01*
X38912862Y11376534D01*
X38385439Y11595000D01*
X37814561Y11595000D01*
X37287138Y11376534D01*
X36883466Y10972862D01*
X36830000Y10843784D01*
X36776534Y10972862D01*
X36372862Y11376534D01*
X35845439Y11595000D01*
X35274561Y11595000D01*
X34747138Y11376534D01*
X34343466Y10972862D01*
X34290000Y10843784D01*
X34236534Y10972862D01*
X33832862Y11376534D01*
X33305439Y11595000D01*
X32734561Y11595000D01*
X32207138Y11376534D01*
X31904738Y11074134D01*
X31878157Y11207765D01*
X31737809Y11417809D01*
X31527765Y11558157D01*
X31280000Y11607440D01*
X29680000Y11607440D01*
X29432235Y11558157D01*
X29222191Y11417809D01*
X29081843Y11207765D01*
X29032560Y10960000D01*
X710000Y10960000D01*
X710000Y17873641D01*
X713201Y17857548D01*
X757297Y17635863D01*
X925272Y17384471D01*
X988728Y17342071D01*
X2476780Y15854018D01*
X2463800Y15822681D01*
X2463800Y15266919D01*
X2676480Y14753463D01*
X3069463Y14360480D01*
X3582919Y14147800D01*
X4138681Y14147800D01*
X4652137Y14360480D01*
X4756298Y14464641D01*
X12465046Y14464641D01*
X12551452Y14208157D01*
X13124936Y13998342D01*
X13735060Y14023961D01*
X14179748Y14208157D01*
X14266154Y14464641D01*
X13365600Y15365195D01*
X12465046Y14464641D01*
X4756298Y14464641D01*
X5045120Y14753463D01*
X5257800Y15266919D01*
X5257800Y15785464D01*
X11819142Y15785464D01*
X11844761Y15175340D01*
X12028957Y14730652D01*
X12285441Y14644246D01*
X13185995Y15544800D01*
X13545205Y15544800D01*
X14445759Y14644246D01*
X14702243Y14730652D01*
X14912058Y15304136D01*
X14886439Y15914260D01*
X14702243Y16358948D01*
X14445759Y16445354D01*
X13545205Y15544800D01*
X13185995Y15544800D01*
X12285441Y16445354D01*
X12028957Y16358948D01*
X11819142Y15785464D01*
X5257800Y15785464D01*
X5257800Y15822681D01*
X5045120Y16336137D01*
X4836457Y16544800D01*
X4916616Y16624959D01*
X12465046Y16624959D01*
X13365600Y15724405D01*
X14266154Y16624959D01*
X14179748Y16881443D01*
X13606264Y17091258D01*
X12996140Y17065639D01*
X12551452Y16881443D01*
X12465046Y16624959D01*
X4916616Y16624959D01*
X4951457Y16659800D01*
X5265639Y16659800D01*
X5352800Y16642463D01*
X5439961Y16659800D01*
X5439965Y16659800D01*
X5698110Y16711148D01*
X5990849Y16906751D01*
X6040225Y16980647D01*
X7529379Y18469800D01*
X11818439Y18469800D01*
X11905600Y18452463D01*
X11992761Y18469800D01*
X13839022Y18469800D01*
X15467104Y16841717D01*
X15367443Y16692565D01*
X15318160Y16444800D01*
X15318160Y14644800D01*
X15367443Y14397035D01*
X15507791Y14186991D01*
X15717835Y14046643D01*
X15965600Y13997360D01*
X17765600Y13997360D01*
X18013365Y14046643D01*
X18223409Y14186991D01*
X18363757Y14397035D01*
X18413040Y14644800D01*
X18413040Y16444800D01*
X18363757Y16692565D01*
X18223409Y16902609D01*
X18013365Y17042957D01*
X17765600Y17092240D01*
X17664420Y17092240D01*
X17503649Y17332849D01*
X17429756Y17382223D01*
X14893024Y19918954D01*
X14843649Y19992849D01*
X14550910Y20188452D01*
X14292765Y20239800D01*
X14292761Y20239800D01*
X14205600Y20257137D01*
X14118439Y20239800D01*
X14042178Y20239800D01*
X16883656Y23081277D01*
X16957549Y23130651D01*
X17008900Y23207502D01*
X17139836Y23403461D01*
X17153152Y23423390D01*
X17204500Y23681535D01*
X17204500Y23681539D01*
X17221837Y23768699D01*
X17204500Y23855859D01*
X17204500Y36458541D01*
X17277309Y36507191D01*
X17417657Y36717235D01*
X17466940Y36965000D01*
X17466940Y37965000D01*
X17417657Y38212765D01*
X17277309Y38422809D01*
X17212884Y38465857D01*
X17357328Y38610300D01*
X17454001Y38843689D01*
X17454001Y39184249D01*
X17295251Y39342999D01*
X16446001Y39342999D01*
X16446001Y39322999D01*
X16192001Y39322999D01*
X16192001Y39342999D01*
X15342751Y39342999D01*
X15184001Y39184249D01*
X15184001Y38843689D01*
X15280674Y38610300D01*
X15425518Y38465457D01*
X15361691Y38422809D01*
X15355471Y38413500D01*
X7534259Y38413500D01*
X7489156Y38481000D01*
X7625957Y38685735D01*
X7675240Y38933500D01*
X7675240Y39933500D01*
X7642856Y40096309D01*
X15184001Y40096309D01*
X15184001Y39755749D01*
X15342751Y39596999D01*
X16192001Y39596999D01*
X16192001Y40446249D01*
X16446001Y40446249D01*
X16446001Y39596999D01*
X17295251Y39596999D01*
X17454001Y39755749D01*
X17454001Y40096309D01*
X17357328Y40329698D01*
X17178699Y40508326D01*
X16945310Y40604999D01*
X16604751Y40604999D01*
X16446001Y40446249D01*
X16192001Y40446249D01*
X16033251Y40604999D01*
X15692692Y40604999D01*
X15459303Y40508326D01*
X15280674Y40329698D01*
X15184001Y40096309D01*
X7642856Y40096309D01*
X7625957Y40181265D01*
X7485609Y40391309D01*
X7275565Y40531657D01*
X7027800Y40580940D01*
X6027800Y40580940D01*
X5780035Y40531657D01*
X5569991Y40391309D01*
X5429643Y40181265D01*
X5414422Y40104743D01*
X5395458Y40092071D01*
X5229871Y39981429D01*
X5187471Y39917973D01*
X988730Y35719231D01*
X925271Y35676829D01*
X757296Y35425436D01*
X713200Y35203751D01*
X713200Y35203747D01*
X710000Y35187659D01*
X710000Y52388794D01*
X907155Y52566233D01*
X13550229Y52553838D01*
X13550229Y52553838D01*
G37*
X13550229Y52553838D02*
X13175707Y52179316D01*
X12805000Y51284352D01*
X12805000Y50315648D01*
X13175707Y49420684D01*
X13860684Y48735707D01*
X14755648Y48365000D01*
X15724352Y48365000D01*
X16619316Y48735707D01*
X17304293Y49420684D01*
X17570020Y50062205D01*
X17596421Y49998467D01*
X17994467Y49600421D01*
X18036001Y49583217D01*
X18036000Y37944837D01*
X18021112Y37869990D01*
X18036000Y37795143D01*
X18036000Y37795139D01*
X18080096Y37573454D01*
X18248071Y37322061D01*
X18311530Y37279659D01*
X24528860Y31062328D01*
X24571261Y30998871D01*
X24822653Y30830896D01*
X25044338Y30786800D01*
X25044342Y30786800D01*
X25119189Y30771912D01*
X25194036Y30786800D01*
X26863199Y30786800D01*
X44096401Y13553597D01*
X44096400Y11272996D01*
X43992862Y11376534D01*
X43465439Y11595000D01*
X42894561Y11595000D01*
X42367138Y11376534D01*
X41963466Y10972862D01*
X41916475Y10859417D01*
X41893864Y10914005D01*
X41647745Y10988139D01*
X40819605Y10160000D01*
X41647745Y9331861D01*
X41893864Y9405995D01*
X41914874Y9464448D01*
X41963466Y9347138D01*
X42367138Y8943466D01*
X42894561Y8725000D01*
X43465439Y8725000D01*
X43992862Y8943466D01*
X44083218Y9033822D01*
X44096400Y8967553D01*
X44096400Y8967549D01*
X44140496Y8745864D01*
X44308471Y8494471D01*
X44371930Y8452069D01*
X44977271Y7846727D01*
X45019671Y7783271D01*
X45083127Y7740871D01*
X45271062Y7615296D01*
X45319205Y7605720D01*
X45492748Y7571200D01*
X45492752Y7571200D01*
X45567600Y7556312D01*
X45642448Y7571200D01*
X48083553Y7571200D01*
X48158400Y7556312D01*
X48233247Y7571200D01*
X48233252Y7571200D01*
X48454937Y7615296D01*
X48706329Y7783271D01*
X48748731Y7846730D01*
X49379473Y8477471D01*
X49442929Y8519871D01*
X49515004Y8627738D01*
X49610904Y8771262D01*
X49639527Y8915161D01*
X49707862Y8943466D01*
X49916651Y9152255D01*
X50606861Y9152255D01*
X50680995Y8906136D01*
X51218223Y8713035D01*
X51788454Y8740222D01*
X52189005Y8906136D01*
X52263139Y9152255D01*
X51435000Y9980395D01*
X50606861Y9152255D01*
X49916651Y9152255D01*
X50111534Y9347138D01*
X50158525Y9460583D01*
X50181136Y9405995D01*
X50427255Y9331861D01*
X51255395Y10160000D01*
X50427255Y10988139D01*
X50181136Y10914005D01*
X50160126Y10855552D01*
X50111534Y10972862D01*
X49916651Y11167745D01*
X50606861Y11167745D01*
X51435000Y10339605D01*
X52263139Y11167745D01*
X52189005Y11413864D01*
X51651777Y11606965D01*
X51081546Y11579778D01*
X50680995Y11413864D01*
X50606861Y11167745D01*
X49916651Y11167745D01*
X49707862Y11376534D01*
X49180439Y11595000D01*
X48609561Y11595000D01*
X48082138Y11376534D01*
X47678466Y10972862D01*
X47625000Y10843784D01*
X47571534Y10972862D01*
X47167862Y11376534D01*
X47115000Y11398430D01*
X47115000Y13107754D01*
X47129888Y13182601D01*
X47115000Y13257448D01*
X47115000Y13257452D01*
X47070904Y13479137D01*
X46902929Y13730529D01*
X46839473Y13772929D01*
X36164025Y24448377D01*
X51537435Y24448377D01*
X51564622Y23878146D01*
X51730536Y23477595D01*
X51976655Y23403461D01*
X52804795Y24231600D01*
X51976655Y25059739D01*
X51730536Y24985605D01*
X51537435Y24448377D01*
X36164025Y24448377D01*
X31084025Y29528377D01*
X51537435Y29528377D01*
X51564622Y28958146D01*
X51730536Y28557595D01*
X51976655Y28483461D01*
X52804795Y29311600D01*
X51976655Y30139739D01*
X51730536Y30065605D01*
X51537435Y29528377D01*
X31084025Y29528377D01*
X28022331Y32590070D01*
X27979929Y32653529D01*
X27728537Y32821504D01*
X27506852Y32865600D01*
X27506847Y32865600D01*
X27432000Y32880488D01*
X27357153Y32865600D01*
X25511603Y32865600D01*
X23768826Y34608377D01*
X51537435Y34608377D01*
X51564622Y34038146D01*
X51730536Y33637595D01*
X51976655Y33563461D01*
X52804795Y34391600D01*
X51976655Y35219739D01*
X51730536Y35145605D01*
X51537435Y34608377D01*
X23768826Y34608377D01*
X20267200Y38110001D01*
X20267200Y39679404D01*
X20523138Y39423466D01*
X21050561Y39205000D01*
X21621439Y39205000D01*
X22148862Y39423466D01*
X22552534Y39827138D01*
X22606000Y39956216D01*
X22659466Y39827138D01*
X23063138Y39423466D01*
X23590561Y39205000D01*
X24161439Y39205000D01*
X24688862Y39423466D01*
X24897651Y39632255D01*
X25587861Y39632255D01*
X25661995Y39386136D01*
X26199223Y39193035D01*
X26769454Y39220222D01*
X27170005Y39386136D01*
X27244139Y39632255D01*
X26416000Y40460395D01*
X25587861Y39632255D01*
X24897651Y39632255D01*
X25092534Y39827138D01*
X25139525Y39940583D01*
X25162136Y39885995D01*
X25408255Y39811861D01*
X26236395Y40640000D01*
X25408255Y41468139D01*
X25162136Y41394005D01*
X25141126Y41335552D01*
X25092534Y41452862D01*
X24897651Y41647745D01*
X25587861Y41647745D01*
X26416000Y40819605D01*
X27244139Y41647745D01*
X27170005Y41893864D01*
X26632777Y42086965D01*
X26062546Y42059778D01*
X25661995Y41893864D01*
X25587861Y41647745D01*
X24897651Y41647745D01*
X24688862Y41856534D01*
X24636000Y41878430D01*
X24636000Y49583217D01*
X24677533Y49600421D01*
X24883857Y49806745D01*
X25602350Y49806745D01*
X25674028Y49562697D01*
X26204003Y49372940D01*
X26766252Y49400441D01*
X27157972Y49562697D01*
X27229650Y49806745D01*
X26416000Y50620395D01*
X25602350Y49806745D01*
X24883857Y49806745D01*
X25075579Y49998467D01*
X25139473Y50152722D01*
X25178697Y50058028D01*
X25422745Y49986350D01*
X26236395Y50800000D01*
X26595605Y50800000D01*
X27409255Y49986350D01*
X27653303Y50058028D01*
X27689674Y50159609D01*
X27756421Y49998467D01*
X28154467Y49600421D01*
X28196000Y49583217D01*
X28196001Y41878431D01*
X28143138Y41856534D01*
X27739466Y41452862D01*
X27692475Y41339417D01*
X27669864Y41394005D01*
X27423745Y41468139D01*
X26595605Y40640000D01*
X27423745Y39811861D01*
X27669864Y39885995D01*
X27690874Y39944448D01*
X27739466Y39827138D01*
X28143138Y39423466D01*
X28670561Y39205000D01*
X29241439Y39205000D01*
X29768862Y39423466D01*
X30172534Y39827138D01*
X30226000Y39956216D01*
X30279466Y39827138D01*
X30683138Y39423466D01*
X31210561Y39205000D01*
X31781439Y39205000D01*
X32308862Y39423466D01*
X32611262Y39725866D01*
X32637843Y39592235D01*
X32778191Y39382191D01*
X32988235Y39241843D01*
X33236000Y39192560D01*
X34836000Y39192560D01*
X35083765Y39241843D01*
X35293809Y39382191D01*
X35434157Y39592235D01*
X35483440Y39840000D01*
X35483440Y41440000D01*
X35434157Y41687765D01*
X35293809Y41897809D01*
X35083765Y42038157D01*
X34836000Y42087440D01*
X34796000Y42087440D01*
X34796000Y49583217D01*
X34837533Y49600421D01*
X35235579Y49998467D01*
X35306000Y50168478D01*
X35376421Y49998467D01*
X35774467Y49600421D01*
X35824422Y49579729D01*
X35860097Y49400377D01*
X35924429Y49304098D01*
X36028072Y49148985D01*
X36091528Y49106585D01*
X48750985Y36447127D01*
X48793385Y36383671D01*
X49044777Y36215696D01*
X49266462Y36171600D01*
X49266466Y36171600D01*
X49341313Y36156712D01*
X49416160Y36171600D01*
X51745970Y36171600D01*
X51767866Y36118738D01*
X52171538Y35715066D01*
X52284983Y35668075D01*
X52230395Y35645464D01*
X52156261Y35399345D01*
X52984400Y34571205D01*
X53812539Y35399345D01*
X53738405Y35645464D01*
X53679952Y35666474D01*
X53797262Y35715066D01*
X54200934Y36118738D01*
X54254400Y36247816D01*
X54307866Y36118738D01*
X54711538Y35715066D01*
X54840616Y35661600D01*
X54711538Y35608134D01*
X54307866Y35204462D01*
X54260875Y35091017D01*
X54238264Y35145605D01*
X53992145Y35219739D01*
X53164005Y34391600D01*
X53992145Y33563461D01*
X54238264Y33637595D01*
X54259274Y33696048D01*
X54307866Y33578738D01*
X54711538Y33175066D01*
X54840616Y33121600D01*
X54711538Y33068134D01*
X54307866Y32664462D01*
X54254400Y32535384D01*
X54200934Y32664462D01*
X53797262Y33068134D01*
X53683817Y33115125D01*
X53738405Y33137736D01*
X53812539Y33383855D01*
X52984400Y34211995D01*
X52156261Y33383855D01*
X52230395Y33137736D01*
X52288848Y33116726D01*
X52171538Y33068134D01*
X51767866Y32664462D01*
X51549400Y32137039D01*
X51549400Y31566161D01*
X51767866Y31038738D01*
X52171538Y30635066D01*
X52284983Y30588075D01*
X52230395Y30565464D01*
X52156261Y30319345D01*
X52984400Y29491205D01*
X53812539Y30319345D01*
X53738405Y30565464D01*
X53679952Y30586474D01*
X53797262Y30635066D01*
X54200934Y31038738D01*
X54254400Y31167816D01*
X54307866Y31038738D01*
X54711538Y30635066D01*
X54840616Y30581600D01*
X54711538Y30528134D01*
X54307866Y30124462D01*
X54260875Y30011017D01*
X54238264Y30065605D01*
X53992145Y30139739D01*
X53164005Y29311600D01*
X53992145Y28483461D01*
X54238264Y28557595D01*
X54259274Y28616048D01*
X54307866Y28498738D01*
X54711538Y28095066D01*
X54840616Y28041600D01*
X54711538Y27988134D01*
X54307866Y27584462D01*
X54254400Y27455384D01*
X54200934Y27584462D01*
X53797262Y27988134D01*
X53683817Y28035125D01*
X53738405Y28057736D01*
X53812539Y28303855D01*
X52984400Y29131995D01*
X52156261Y28303855D01*
X52230395Y28057736D01*
X52288848Y28036726D01*
X52171538Y27988134D01*
X51767866Y27584462D01*
X51549400Y27057039D01*
X51549400Y26486161D01*
X51767866Y25958738D01*
X52171538Y25555066D01*
X52284983Y25508075D01*
X52230395Y25485464D01*
X52156261Y25239345D01*
X52984400Y24411205D01*
X53812539Y25239345D01*
X53738405Y25485464D01*
X53679952Y25506474D01*
X53797262Y25555066D01*
X54200934Y25958738D01*
X54254400Y26087816D01*
X54307866Y25958738D01*
X54711538Y25555066D01*
X54840616Y25501600D01*
X54711538Y25448134D01*
X54307866Y25044462D01*
X54260875Y24931017D01*
X54238264Y24985605D01*
X53992145Y25059739D01*
X53164005Y24231600D01*
X53178148Y24217458D01*
X52998542Y24037852D01*
X52984400Y24051995D01*
X52156261Y23223855D01*
X52230395Y22977736D01*
X52288848Y22956726D01*
X52171538Y22908134D01*
X51767866Y22504462D01*
X51549400Y21977039D01*
X51549400Y21406161D01*
X51767866Y20878738D01*
X52171538Y20475066D01*
X52698961Y20256600D01*
X53269839Y20256600D01*
X53797262Y20475066D01*
X54200934Y20878738D01*
X54254400Y21007816D01*
X54307866Y20878738D01*
X54711538Y20475066D01*
X55238961Y20256600D01*
X55809839Y20256600D01*
X56337262Y20475066D01*
X56740934Y20878738D01*
X56765722Y20938582D01*
X56952307Y20975696D01*
X57203699Y21143671D01*
X57246101Y21207130D01*
X60704511Y24665539D01*
X60767967Y24707939D01*
X60935942Y24959331D01*
X60980038Y25181016D01*
X60980038Y25181020D01*
X60994926Y25255867D01*
X60980038Y25330714D01*
X60980038Y48925116D01*
X60994926Y48999963D01*
X60980038Y49074810D01*
X60980038Y49074814D01*
X60935942Y49296499D01*
X60876807Y49385000D01*
X61241461Y49385000D01*
X61761533Y49600421D01*
X62159579Y49998467D01*
X62230000Y50168478D01*
X62300421Y49998467D01*
X62698467Y49600421D01*
X63218539Y49385000D01*
X63781461Y49385000D01*
X64301533Y49600421D01*
X64699579Y49998467D01*
X64915000Y50518539D01*
X64915000Y51081461D01*
X64699579Y51601533D01*
X64301533Y51999579D01*
X63781461Y52215000D01*
X63218539Y52215000D01*
X62698467Y51999579D01*
X62300421Y51601533D01*
X62230000Y51431522D01*
X62159579Y51601533D01*
X61761533Y51999579D01*
X61241461Y52215000D01*
X60678539Y52215000D01*
X60158467Y51999579D01*
X59760421Y51601533D01*
X59690000Y51431522D01*
X59619579Y51601533D01*
X59221533Y51999579D01*
X58701461Y52215000D01*
X58138539Y52215000D01*
X57618467Y51999579D01*
X57220421Y51601533D01*
X57150000Y51431522D01*
X57079579Y51601533D01*
X56681533Y51999579D01*
X56161461Y52215000D01*
X55598539Y52215000D01*
X55078467Y51999579D01*
X54680421Y51601533D01*
X54610000Y51431522D01*
X54539579Y51601533D01*
X54141533Y51999579D01*
X53621461Y52215000D01*
X53058539Y52215000D01*
X52538467Y51999579D01*
X52140421Y51601533D01*
X52070000Y51431522D01*
X51999579Y51601533D01*
X51601533Y51999579D01*
X51081461Y52215000D01*
X50518539Y52215000D01*
X49998467Y51999579D01*
X49600421Y51601533D01*
X49530000Y51431522D01*
X49459579Y51601533D01*
X49061533Y51999579D01*
X48541461Y52215000D01*
X47978539Y52215000D01*
X47458467Y51999579D01*
X47060421Y51601533D01*
X46990000Y51431522D01*
X46919579Y51601533D01*
X46521533Y51999579D01*
X46001461Y52215000D01*
X45438539Y52215000D01*
X44918467Y51999579D01*
X44520421Y51601533D01*
X44305000Y51081461D01*
X44305000Y50518539D01*
X44520421Y49998467D01*
X44918467Y49600421D01*
X44968422Y49579729D01*
X45004097Y49400377D01*
X45010800Y49390345D01*
X45010801Y45776801D01*
X43195999Y47591602D01*
X43195999Y49945155D01*
X43210887Y50020002D01*
X43195999Y50094849D01*
X43195999Y50094853D01*
X43151903Y50316538D01*
X43050308Y50468585D01*
X43071000Y50518539D01*
X43071000Y51081461D01*
X42855579Y51601533D01*
X42457533Y51999579D01*
X41937461Y52215000D01*
X41374539Y52215000D01*
X40854467Y51999579D01*
X40456421Y51601533D01*
X40386000Y51431522D01*
X40315579Y51601533D01*
X39917533Y51999579D01*
X39397461Y52215000D01*
X38834539Y52215000D01*
X38314467Y51999579D01*
X37916421Y51601533D01*
X37846000Y51431522D01*
X37775579Y51601533D01*
X37377533Y51999579D01*
X36857461Y52215000D01*
X36294539Y52215000D01*
X35774467Y51999579D01*
X35376421Y51601533D01*
X35306000Y51431522D01*
X35235579Y51601533D01*
X34837533Y51999579D01*
X34317461Y52215000D01*
X33754539Y52215000D01*
X33234467Y51999579D01*
X32836421Y51601533D01*
X32766000Y51431522D01*
X32695579Y51601533D01*
X32297533Y51999579D01*
X31777461Y52215000D01*
X31214539Y52215000D01*
X30694467Y51999579D01*
X30296421Y51601533D01*
X30226000Y51431522D01*
X30155579Y51601533D01*
X29757533Y51999579D01*
X29237461Y52215000D01*
X28674539Y52215000D01*
X28154467Y51999579D01*
X27756421Y51601533D01*
X27692527Y51447278D01*
X27653303Y51541972D01*
X27409255Y51613650D01*
X26595605Y50800000D01*
X26236395Y50800000D01*
X25422745Y51613650D01*
X25178697Y51541972D01*
X25142326Y51440391D01*
X25075579Y51601533D01*
X24883857Y51793255D01*
X25602350Y51793255D01*
X26416000Y50979605D01*
X27229650Y51793255D01*
X27157972Y52037303D01*
X26627997Y52227060D01*
X26065748Y52199559D01*
X25674028Y52037303D01*
X25602350Y51793255D01*
X24883857Y51793255D01*
X24677533Y51999579D01*
X24157461Y52215000D01*
X23594539Y52215000D01*
X23074467Y51999579D01*
X22676421Y51601533D01*
X22606000Y51431522D01*
X22535579Y51601533D01*
X22137533Y51999579D01*
X21617461Y52215000D01*
X21054539Y52215000D01*
X20534467Y51999579D01*
X20136421Y51601533D01*
X20066000Y51431522D01*
X19995579Y51601533D01*
X19597533Y51999579D01*
X19077461Y52215000D01*
X18514539Y52215000D01*
X17994467Y51999579D01*
X17596421Y51601533D01*
X17570020Y51537795D01*
X17304293Y52179316D01*
X16933088Y52550521D01*
X65132252Y52503267D01*
X65330000Y52325293D01*
X65330001Y40455929D01*
X65316091Y40386000D01*
X65364453Y40142871D01*
X65371196Y40108972D01*
X65528120Y39874119D01*
X65587402Y39834508D01*
X67870000Y37551909D01*
X67870000Y37173609D01*
X67419316Y37624293D01*
X66524352Y37995000D01*
X65555648Y37995000D01*
X64660684Y37624293D01*
X63975707Y36939316D01*
X63605000Y36044352D01*
X63605000Y35075648D01*
X63975707Y34180684D01*
X64660684Y33495707D01*
X65555648Y33125000D01*
X66524352Y33125000D01*
X67419316Y33495707D01*
X67870000Y33946391D01*
X67870001Y9233608D01*
X67419316Y9684293D01*
X66524352Y10055000D01*
X65555648Y10055000D01*
X64660684Y9684293D01*
X63975707Y8999316D01*
X63605000Y8104352D01*
X63605000Y7135648D01*
X63975707Y6240684D01*
X64660684Y5555707D01*
X65555648Y5185000D01*
X66524352Y5185000D01*
X67419316Y5555707D01*
X67870001Y6006392D01*
X67870001Y5374092D01*
X65587402Y3091492D01*
X65528119Y3051880D01*
X65371195Y2817027D01*
X65365430Y2788043D01*
X65316091Y2540000D01*
X65330000Y2470075D01*
X65330001Y887707D01*
X65132549Y710000D01*
X15583609Y710000D01*
X16034293Y1160684D01*
X16405000Y2055648D01*
X16405000Y3024352D01*
X16034293Y3919316D01*
X15349316Y4604293D01*
X14454352Y4975000D01*
X13485648Y4975000D01*
X12590684Y4604293D01*
X11905707Y3919316D01*
X11535000Y3024352D01*
X11535000Y2055648D01*
X11905707Y1160684D01*
X12356391Y710000D01*
X929091Y710000D01*
X710000Y929091D01*
X710000Y6227700D01*
X20353660Y6227700D01*
X20353660Y5227700D01*
X20402943Y4979935D01*
X20518529Y4806950D01*
X20402943Y4633965D01*
X20353660Y4386200D01*
X20353660Y3386200D01*
X20402943Y3138435D01*
X20543291Y2928391D01*
X20753335Y2788043D01*
X21001100Y2738760D01*
X22001100Y2738760D01*
X22248865Y2788043D01*
X22298878Y2821461D01*
X26525000Y2821461D01*
X26525000Y2258539D01*
X26740421Y1738467D01*
X27138467Y1340421D01*
X27658539Y1125000D01*
X28221461Y1125000D01*
X28741533Y1340421D01*
X29139579Y1738467D01*
X29210000Y1908478D01*
X29280421Y1738467D01*
X29678467Y1340421D01*
X30198539Y1125000D01*
X30761461Y1125000D01*
X31281533Y1340421D01*
X31679579Y1738467D01*
X31750000Y1908478D01*
X31820421Y1738467D01*
X32218467Y1340421D01*
X32738539Y1125000D01*
X33301461Y1125000D01*
X33821533Y1340421D01*
X34219579Y1738467D01*
X34290000Y1908478D01*
X34360421Y1738467D01*
X34758467Y1340421D01*
X35278539Y1125000D01*
X35841461Y1125000D01*
X36361533Y1340421D01*
X36759579Y1738467D01*
X36830000Y1908478D01*
X36900421Y1738467D01*
X37298467Y1340421D01*
X37818539Y1125000D01*
X38381461Y1125000D01*
X38901533Y1340421D01*
X39107857Y1546745D01*
X39826350Y1546745D01*
X39898028Y1302697D01*
X40428003Y1112940D01*
X40990252Y1140441D01*
X41381972Y1302697D01*
X41453650Y1546745D01*
X42366350Y1546745D01*
X42438028Y1302697D01*
X42968003Y1112940D01*
X43530252Y1140441D01*
X43921972Y1302697D01*
X43993650Y1546745D01*
X43180000Y2360395D01*
X42366350Y1546745D01*
X41453650Y1546745D01*
X40640000Y2360395D01*
X39826350Y1546745D01*
X39107857Y1546745D01*
X39299579Y1738467D01*
X39363473Y1892722D01*
X39402697Y1798028D01*
X39646745Y1726350D01*
X40460395Y2540000D01*
X40819605Y2540000D01*
X41633255Y1726350D01*
X41877303Y1798028D01*
X41907622Y1882706D01*
X41942697Y1798028D01*
X42186745Y1726350D01*
X43000395Y2540000D01*
X43359605Y2540000D01*
X44173255Y1726350D01*
X44417303Y1798028D01*
X44453674Y1899609D01*
X44520421Y1738467D01*
X44918467Y1340421D01*
X45438539Y1125000D01*
X46001461Y1125000D01*
X46521533Y1340421D01*
X46919579Y1738467D01*
X47135000Y2258539D01*
X47135000Y2821461D01*
X49385000Y2821461D01*
X49385000Y2258539D01*
X49600421Y1738467D01*
X49998467Y1340421D01*
X50518539Y1125000D01*
X51081461Y1125000D01*
X51601533Y1340421D01*
X51999579Y1738467D01*
X52070000Y1908478D01*
X52140421Y1738467D01*
X52538467Y1340421D01*
X53058539Y1125000D01*
X53621461Y1125000D01*
X54141533Y1340421D01*
X54539579Y1738467D01*
X54610000Y1908478D01*
X54680421Y1738467D01*
X55078467Y1340421D01*
X55598539Y1125000D01*
X56161461Y1125000D01*
X56681533Y1340421D01*
X57079579Y1738467D01*
X57150000Y1908478D01*
X57220421Y1738467D01*
X57618467Y1340421D01*
X58138539Y1125000D01*
X58701461Y1125000D01*
X59221533Y1340421D01*
X59619579Y1738467D01*
X59690000Y1908478D01*
X59760421Y1738467D01*
X60158467Y1340421D01*
X60678539Y1125000D01*
X61241461Y1125000D01*
X61761533Y1340421D01*
X62159579Y1738467D01*
X62230000Y1908478D01*
X62300421Y1738467D01*
X62698467Y1340421D01*
X63218539Y1125000D01*
X63781461Y1125000D01*
X64301533Y1340421D01*
X64699579Y1738467D01*
X64915000Y2258539D01*
X64915000Y2821461D01*
X64699579Y3341533D01*
X64301533Y3739579D01*
X63781461Y3955000D01*
X63218539Y3955000D01*
X63177006Y3937796D01*
X59815000Y7299801D01*
X59815000Y8712560D01*
X59855000Y8712560D01*
X60102765Y8761843D01*
X60312809Y8902191D01*
X60453157Y9112235D01*
X60502440Y9360000D01*
X60502440Y10960000D01*
X60453157Y11207765D01*
X60312809Y11417809D01*
X60102765Y11558157D01*
X59855000Y11607440D01*
X58255000Y11607440D01*
X58007235Y11558157D01*
X57797191Y11417809D01*
X57656843Y11207765D01*
X57630262Y11074134D01*
X57327862Y11376534D01*
X56800439Y11595000D01*
X56229561Y11595000D01*
X55702138Y11376534D01*
X55298466Y10972862D01*
X55245000Y10843784D01*
X55191534Y10972862D01*
X54787862Y11376534D01*
X54260439Y11595000D01*
X53689561Y11595000D01*
X53162138Y11376534D01*
X52758466Y10972862D01*
X52711475Y10859417D01*
X52688864Y10914005D01*
X52442745Y10988139D01*
X51614605Y10160000D01*
X52442745Y9331861D01*
X52688864Y9405995D01*
X52709874Y9464448D01*
X52758466Y9347138D01*
X53162138Y8943466D01*
X53215000Y8921570D01*
X53215001Y7059852D01*
X53200112Y6985000D01*
X53259097Y6688463D01*
X53321055Y6595737D01*
X53427072Y6437071D01*
X53490528Y6394671D01*
X55930198Y3955000D01*
X55598539Y3955000D01*
X55078467Y3739579D01*
X54680421Y3341533D01*
X54610000Y3171522D01*
X54539579Y3341533D01*
X54141533Y3739579D01*
X53621461Y3955000D01*
X53058539Y3955000D01*
X52538467Y3739579D01*
X52140421Y3341533D01*
X52070000Y3171522D01*
X51999579Y3341533D01*
X51601533Y3739579D01*
X51081461Y3955000D01*
X50518539Y3955000D01*
X49998467Y3739579D01*
X49600421Y3341533D01*
X49385000Y2821461D01*
X47135000Y2821461D01*
X46919579Y3341533D01*
X46521533Y3739579D01*
X46001461Y3955000D01*
X45438539Y3955000D01*
X44918467Y3739579D01*
X44520421Y3341533D01*
X44456527Y3187278D01*
X44417303Y3281972D01*
X44173255Y3353650D01*
X43359605Y2540000D01*
X43000395Y2540000D01*
X42186745Y3353650D01*
X41942697Y3281972D01*
X41912378Y3197294D01*
X41877303Y3281972D01*
X41633255Y3353650D01*
X40819605Y2540000D01*
X40460395Y2540000D01*
X39646745Y3353650D01*
X39402697Y3281972D01*
X39366326Y3180391D01*
X39299579Y3341533D01*
X39107857Y3533255D01*
X39826350Y3533255D01*
X40640000Y2719605D01*
X41453650Y3533255D01*
X42366350Y3533255D01*
X43180000Y2719605D01*
X43993650Y3533255D01*
X43921972Y3777303D01*
X43391997Y3967060D01*
X42829748Y3939559D01*
X42438028Y3777303D01*
X42366350Y3533255D01*
X41453650Y3533255D01*
X41381972Y3777303D01*
X40851997Y3967060D01*
X40289748Y3939559D01*
X39898028Y3777303D01*
X39826350Y3533255D01*
X39107857Y3533255D01*
X38901533Y3739579D01*
X38381461Y3955000D01*
X37818539Y3955000D01*
X37298467Y3739579D01*
X36900421Y3341533D01*
X36830000Y3171522D01*
X36759579Y3341533D01*
X36361533Y3739579D01*
X35841461Y3955000D01*
X35278539Y3955000D01*
X34758467Y3739579D01*
X34360421Y3341533D01*
X34290000Y3171522D01*
X34219579Y3341533D01*
X33821533Y3739579D01*
X33301461Y3955000D01*
X32738539Y3955000D01*
X32218467Y3739579D01*
X31820421Y3341533D01*
X31750000Y3171522D01*
X31679579Y3341533D01*
X31281533Y3739579D01*
X30761461Y3955000D01*
X30198539Y3955000D01*
X29678467Y3739579D01*
X29280421Y3341533D01*
X29210000Y3171522D01*
X29139579Y3341533D01*
X28741533Y3739579D01*
X28221461Y3955000D01*
X27658539Y3955000D01*
X27138467Y3739579D01*
X26740421Y3341533D01*
X26525000Y2821461D01*
X22298878Y2821461D01*
X22458909Y2928391D01*
X22591082Y3126200D01*
X23013753Y3126200D01*
X23088600Y3111312D01*
X23163447Y3126200D01*
X23163452Y3126200D01*
X23385137Y3170296D01*
X23636529Y3338271D01*
X23678931Y3401730D01*
X24952803Y4675600D01*
X34856289Y4675600D01*
X34973720Y4558169D01*
X35354126Y4400600D01*
X35765874Y4400600D01*
X36146280Y4558169D01*
X36437431Y4849320D01*
X36595000Y5229726D01*
X36595000Y5539200D01*
X36999662Y5539200D01*
X37237778Y5380096D01*
X37380603Y5351686D01*
X37513720Y5218569D01*
X37894126Y5061000D01*
X38305874Y5061000D01*
X38686280Y5218569D01*
X38977431Y5509720D01*
X39135000Y5890126D01*
X39135000Y6301874D01*
X38977431Y6682280D01*
X38686280Y6973431D01*
X38305874Y7131000D01*
X37894126Y7131000D01*
X37627317Y7020484D01*
X37613960Y7017828D01*
X37405967Y7059200D01*
X37405962Y7059200D01*
X37331115Y7074088D01*
X37256268Y7059200D01*
X24611246Y7059200D01*
X24536399Y7074088D01*
X24461552Y7059200D01*
X24461548Y7059200D01*
X24239863Y7015104D01*
X23988471Y6847129D01*
X23946071Y6783673D01*
X23650099Y6487700D01*
X22591082Y6487700D01*
X22458909Y6685509D01*
X22424276Y6708650D01*
X22539427Y6823802D01*
X22636100Y7057191D01*
X22636100Y7397750D01*
X22477350Y7556500D01*
X21628100Y7556500D01*
X21628100Y7536500D01*
X21374100Y7536500D01*
X21374100Y7556500D01*
X20524850Y7556500D01*
X20366100Y7397750D01*
X20366100Y7057191D01*
X20462773Y6823802D01*
X20577924Y6708650D01*
X20543291Y6685509D01*
X20402943Y6475465D01*
X20353660Y6227700D01*
X710000Y6227700D01*
X710000Y8309809D01*
X20366100Y8309809D01*
X20366100Y7969250D01*
X20524850Y7810500D01*
X21374100Y7810500D01*
X21374100Y8659750D01*
X21628100Y8659750D01*
X21628100Y7810500D01*
X22477350Y7810500D01*
X22636100Y7969250D01*
X22636100Y8309809D01*
X22539427Y8543198D01*
X22360799Y8721827D01*
X22127410Y8818500D01*
X21786850Y8818500D01*
X21628100Y8659750D01*
X21374100Y8659750D01*
X21215350Y8818500D01*
X20874790Y8818500D01*
X20641401Y8721827D01*
X20462773Y8543198D01*
X20366100Y8309809D01*
X710000Y8309809D01*
X710000Y10960000D01*
X29032560Y10960000D01*
X29032560Y9360000D01*
X29081843Y9112235D01*
X29222191Y8902191D01*
X29432235Y8761843D01*
X29680000Y8712560D01*
X31280000Y8712560D01*
X31527765Y8761843D01*
X31737809Y8902191D01*
X31878157Y9112235D01*
X31904738Y9245866D01*
X32207138Y8943466D01*
X32734561Y8725000D01*
X33305439Y8725000D01*
X33832862Y8943466D01*
X34236534Y9347138D01*
X34290000Y9476216D01*
X34343466Y9347138D01*
X34747138Y8943466D01*
X35274561Y8725000D01*
X35845439Y8725000D01*
X36372862Y8943466D01*
X36776534Y9347138D01*
X36830000Y9476216D01*
X36883466Y9347138D01*
X37287138Y8943466D01*
X37814561Y8725000D01*
X38385439Y8725000D01*
X38912862Y8943466D01*
X39121651Y9152255D01*
X39811861Y9152255D01*
X39885995Y8906136D01*
X40423223Y8713035D01*
X40993454Y8740222D01*
X41394005Y8906136D01*
X41468139Y9152255D01*
X40640000Y9980395D01*
X39811861Y9152255D01*
X39121651Y9152255D01*
X39316534Y9347138D01*
X39363525Y9460583D01*
X39386136Y9405995D01*
X39632255Y9331861D01*
X40460395Y10160000D01*
X39632255Y10988139D01*
X39386136Y10914005D01*
X39365126Y10855552D01*
X39316534Y10972862D01*
X39121651Y11167745D01*
X39811861Y11167745D01*
X40640000Y10339605D01*
X41468139Y11167745D01*
X41394005Y11413864D01*
X40856777Y11606965D01*
X40286546Y11579778D01*
X39885995Y11413864D01*
X39811861Y11167745D01*
X39121651Y11167745D01*
X38912862Y11376534D01*
X38385439Y11595000D01*
X37814561Y11595000D01*
X37287138Y11376534D01*
X36883466Y10972862D01*
X36830000Y10843784D01*
X36776534Y10972862D01*
X36372862Y11376534D01*
X35845439Y11595000D01*
X35274561Y11595000D01*
X34747138Y11376534D01*
X34343466Y10972862D01*
X34290000Y10843784D01*
X34236534Y10972862D01*
X33832862Y11376534D01*
X33305439Y11595000D01*
X32734561Y11595000D01*
X32207138Y11376534D01*
X31904738Y11074134D01*
X31878157Y11207765D01*
X31737809Y11417809D01*
X31527765Y11558157D01*
X31280000Y11607440D01*
X29680000Y11607440D01*
X29432235Y11558157D01*
X29222191Y11417809D01*
X29081843Y11207765D01*
X29032560Y10960000D01*
X710000Y10960000D01*
X710000Y17873641D01*
X713201Y17857548D01*
X757297Y17635863D01*
X925272Y17384471D01*
X988728Y17342071D01*
X2476780Y15854018D01*
X2463800Y15822681D01*
X2463800Y15266919D01*
X2676480Y14753463D01*
X3069463Y14360480D01*
X3582919Y14147800D01*
X4138681Y14147800D01*
X4652137Y14360480D01*
X4756298Y14464641D01*
X12465046Y14464641D01*
X12551452Y14208157D01*
X13124936Y13998342D01*
X13735060Y14023961D01*
X14179748Y14208157D01*
X14266154Y14464641D01*
X13365600Y15365195D01*
X12465046Y14464641D01*
X4756298Y14464641D01*
X5045120Y14753463D01*
X5257800Y15266919D01*
X5257800Y15785464D01*
X11819142Y15785464D01*
X11844761Y15175340D01*
X12028957Y14730652D01*
X12285441Y14644246D01*
X13185995Y15544800D01*
X13545205Y15544800D01*
X14445759Y14644246D01*
X14702243Y14730652D01*
X14912058Y15304136D01*
X14886439Y15914260D01*
X14702243Y16358948D01*
X14445759Y16445354D01*
X13545205Y15544800D01*
X13185995Y15544800D01*
X12285441Y16445354D01*
X12028957Y16358948D01*
X11819142Y15785464D01*
X5257800Y15785464D01*
X5257800Y15822681D01*
X5045120Y16336137D01*
X4836457Y16544800D01*
X4916616Y16624959D01*
X12465046Y16624959D01*
X13365600Y15724405D01*
X14266154Y16624959D01*
X14179748Y16881443D01*
X13606264Y17091258D01*
X12996140Y17065639D01*
X12551452Y16881443D01*
X12465046Y16624959D01*
X4916616Y16624959D01*
X4951457Y16659800D01*
X5265639Y16659800D01*
X5352800Y16642463D01*
X5439961Y16659800D01*
X5439965Y16659800D01*
X5698110Y16711148D01*
X5990849Y16906751D01*
X6040225Y16980647D01*
X7529379Y18469800D01*
X11818439Y18469800D01*
X11905600Y18452463D01*
X11992761Y18469800D01*
X13839022Y18469800D01*
X15467104Y16841717D01*
X15367443Y16692565D01*
X15318160Y16444800D01*
X15318160Y14644800D01*
X15367443Y14397035D01*
X15507791Y14186991D01*
X15717835Y14046643D01*
X15965600Y13997360D01*
X17765600Y13997360D01*
X18013365Y14046643D01*
X18223409Y14186991D01*
X18363757Y14397035D01*
X18413040Y14644800D01*
X18413040Y16444800D01*
X18363757Y16692565D01*
X18223409Y16902609D01*
X18013365Y17042957D01*
X17765600Y17092240D01*
X17664420Y17092240D01*
X17503649Y17332849D01*
X17429756Y17382223D01*
X14893024Y19918954D01*
X14843649Y19992849D01*
X14550910Y20188452D01*
X14292765Y20239800D01*
X14292761Y20239800D01*
X14205600Y20257137D01*
X14118439Y20239800D01*
X14042178Y20239800D01*
X16883656Y23081277D01*
X16957549Y23130651D01*
X17008900Y23207502D01*
X17139836Y23403461D01*
X17153152Y23423390D01*
X17204500Y23681535D01*
X17204500Y23681539D01*
X17221837Y23768699D01*
X17204500Y23855859D01*
X17204500Y36458541D01*
X17277309Y36507191D01*
X17417657Y36717235D01*
X17466940Y36965000D01*
X17466940Y37965000D01*
X17417657Y38212765D01*
X17277309Y38422809D01*
X17212884Y38465857D01*
X17357328Y38610300D01*
X17454001Y38843689D01*
X17454001Y39184249D01*
X17295251Y39342999D01*
X16446001Y39342999D01*
X16446001Y39322999D01*
X16192001Y39322999D01*
X16192001Y39342999D01*
X15342751Y39342999D01*
X15184001Y39184249D01*
X15184001Y38843689D01*
X15280674Y38610300D01*
X15425518Y38465457D01*
X15361691Y38422809D01*
X15355471Y38413500D01*
X7534259Y38413500D01*
X7489156Y38481000D01*
X7625957Y38685735D01*
X7675240Y38933500D01*
X7675240Y39933500D01*
X7642856Y40096309D01*
X15184001Y40096309D01*
X15184001Y39755749D01*
X15342751Y39596999D01*
X16192001Y39596999D01*
X16192001Y40446249D01*
X16446001Y40446249D01*
X16446001Y39596999D01*
X17295251Y39596999D01*
X17454001Y39755749D01*
X17454001Y40096309D01*
X17357328Y40329698D01*
X17178699Y40508326D01*
X16945310Y40604999D01*
X16604751Y40604999D01*
X16446001Y40446249D01*
X16192001Y40446249D01*
X16033251Y40604999D01*
X15692692Y40604999D01*
X15459303Y40508326D01*
X15280674Y40329698D01*
X15184001Y40096309D01*
X7642856Y40096309D01*
X7625957Y40181265D01*
X7485609Y40391309D01*
X7275565Y40531657D01*
X7027800Y40580940D01*
X6027800Y40580940D01*
X5780035Y40531657D01*
X5569991Y40391309D01*
X5429643Y40181265D01*
X5414422Y40104743D01*
X5395458Y40092071D01*
X5229871Y39981429D01*
X5187471Y39917973D01*
X988730Y35719231D01*
X925271Y35676829D01*
X757296Y35425436D01*
X713200Y35203751D01*
X713200Y35203747D01*
X710000Y35187659D01*
X710000Y52388794D01*
X907155Y52566233D01*
X13550229Y52553838D01*
G36*
X37916421Y49998467D02*
X38314467Y49600421D01*
X38834539Y49385000D01*
X39136000Y49385000D01*
X39136000Y48824852D01*
X39121111Y48750001D01*
X39136000Y48675149D01*
X39180096Y48453464D01*
X39348071Y48202072D01*
X39411527Y48159672D01*
X46094870Y41476328D01*
X46137271Y41412871D01*
X46388663Y41244896D01*
X46610348Y41200800D01*
X46610352Y41200800D01*
X46685199Y41185912D01*
X46760046Y41200800D01*
X52720399Y41200800D01*
X53011669Y40909530D01*
X52630946Y40891378D01*
X52230395Y40725464D01*
X52156261Y40479345D01*
X52984400Y39651205D01*
X52998542Y39665348D01*
X53178148Y39485742D01*
X53164005Y39471600D01*
X53992145Y38643461D01*
X54238264Y38717595D01*
X54259274Y38776048D01*
X54307866Y38658738D01*
X54711538Y38255066D01*
X54840616Y38201600D01*
X54711538Y38148134D01*
X54307866Y37744462D01*
X54254400Y37615384D01*
X54200934Y37744462D01*
X53797262Y38148134D01*
X53683817Y38195125D01*
X53738405Y38217736D01*
X53812539Y38463855D01*
X52984400Y39291995D01*
X52156261Y38463855D01*
X52230395Y38217736D01*
X52288848Y38196726D01*
X52171538Y38148134D01*
X51767866Y37744462D01*
X51745970Y37691600D01*
X49656116Y37691600D01*
X47659339Y39688377D01*
X51537435Y39688377D01*
X51564622Y39118146D01*
X51730536Y38717595D01*
X51976655Y38643461D01*
X52804795Y39471600D01*
X51976655Y40299739D01*
X51730536Y40225605D01*
X51537435Y39688377D01*
X47659339Y39688377D01*
X37562414Y49785302D01*
X37775579Y49998467D01*
X37846000Y50168478D01*
X37916421Y49998467D01*
X37916421Y49998467D01*
G37*
X37916421Y49998467D02*
X38314467Y49600421D01*
X38834539Y49385000D01*
X39136000Y49385000D01*
X39136000Y48824852D01*
X39121111Y48750001D01*
X39136000Y48675149D01*
X39180096Y48453464D01*
X39348071Y48202072D01*
X39411527Y48159672D01*
X46094870Y41476328D01*
X46137271Y41412871D01*
X46388663Y41244896D01*
X46610348Y41200800D01*
X46610352Y41200800D01*
X46685199Y41185912D01*
X46760046Y41200800D01*
X52720399Y41200800D01*
X53011669Y40909530D01*
X52630946Y40891378D01*
X52230395Y40725464D01*
X52156261Y40479345D01*
X52984400Y39651205D01*
X52998542Y39665348D01*
X53178148Y39485742D01*
X53164005Y39471600D01*
X53992145Y38643461D01*
X54238264Y38717595D01*
X54259274Y38776048D01*
X54307866Y38658738D01*
X54711538Y38255066D01*
X54840616Y38201600D01*
X54711538Y38148134D01*
X54307866Y37744462D01*
X54254400Y37615384D01*
X54200934Y37744462D01*
X53797262Y38148134D01*
X53683817Y38195125D01*
X53738405Y38217736D01*
X53812539Y38463855D01*
X52984400Y39291995D01*
X52156261Y38463855D01*
X52230395Y38217736D01*
X52288848Y38196726D01*
X52171538Y38148134D01*
X51767866Y37744462D01*
X51745970Y37691600D01*
X49656116Y37691600D01*
X47659339Y39688377D01*
X51537435Y39688377D01*
X51564622Y39118146D01*
X51730536Y38717595D01*
X51976655Y38643461D01*
X52804795Y39471600D01*
X51976655Y40299739D01*
X51730536Y40225605D01*
X51537435Y39688377D01*
X47659339Y39688377D01*
X37562414Y49785302D01*
X37775579Y49998467D01*
X37846000Y50168478D01*
X37916421Y49998467D01*
G36*
X5380360Y37028500D02*
X5429643Y36780735D01*
X5569991Y36570691D01*
X5650303Y36517028D01*
X5552973Y36419699D01*
X5456300Y36186310D01*
X5456300Y35845750D01*
X5615050Y35687000D01*
X6464300Y35687000D01*
X6464300Y35707000D01*
X6718300Y35707000D01*
X6718300Y35687000D01*
X7567550Y35687000D01*
X7726300Y35845750D01*
X7726300Y36186310D01*
X7629627Y36419699D01*
X7481428Y36567897D01*
X7485609Y36570691D01*
X7534259Y36643500D01*
X15270612Y36643500D01*
X15361691Y36507191D01*
X15434501Y36458541D01*
X15434500Y24135279D01*
X11539022Y20239800D01*
X7249961Y20239800D01*
X7162800Y20257137D01*
X7075639Y20239800D01*
X7075635Y20239800D01*
X6817490Y20188452D01*
X6598645Y20042224D01*
X6598644Y20042223D01*
X6524751Y19992849D01*
X6475377Y19918956D01*
X4986222Y18429800D01*
X4951457Y18429800D01*
X4652137Y18729120D01*
X4387089Y18838906D01*
X3860800Y19365195D01*
X3334511Y18838906D01*
X3069463Y18729120D01*
X2676480Y18336137D01*
X2520598Y17959804D01*
X2233200Y18247201D01*
X2233200Y19752498D01*
X2451656Y19752498D01*
X2479438Y19197432D01*
X2638403Y18813657D01*
X2880587Y18744192D01*
X3681195Y19544800D01*
X4040405Y19544800D01*
X4841013Y18744192D01*
X5083197Y18813657D01*
X5269944Y19337102D01*
X5242162Y19892168D01*
X5083197Y20275943D01*
X4841013Y20345408D01*
X4040405Y19544800D01*
X3681195Y19544800D01*
X2880587Y20345408D01*
X2638403Y20275943D01*
X2451656Y19752498D01*
X2233200Y19752498D01*
X2233200Y25822681D01*
X2463800Y25822681D01*
X2463800Y25266919D01*
X2676480Y24753463D01*
X2885143Y24544800D01*
X2676480Y24336137D01*
X2463800Y23822681D01*
X2463800Y23266919D01*
X2676480Y22753463D01*
X2885143Y22544800D01*
X2676480Y22336137D01*
X2463800Y21822681D01*
X2463800Y21266919D01*
X2676480Y20753463D01*
X3069463Y20360480D01*
X3334511Y20250694D01*
X3860800Y19724405D01*
X4387089Y20250694D01*
X4652137Y20360480D01*
X5045120Y20753463D01*
X5257800Y21266919D01*
X5257800Y21822681D01*
X5045120Y22336137D01*
X4836457Y22544800D01*
X5045120Y22753463D01*
X5257800Y23266919D01*
X5257800Y23822681D01*
X5045120Y24336137D01*
X4836457Y24544800D01*
X5045120Y24753463D01*
X5257800Y25266919D01*
X5257800Y25822681D01*
X5045120Y26336137D01*
X4652137Y26729120D01*
X4138681Y26941800D01*
X3582919Y26941800D01*
X3069463Y26729120D01*
X2676480Y26336137D01*
X2463800Y25822681D01*
X2233200Y25822681D01*
X2233200Y34814099D01*
X2693351Y35274250D01*
X5456300Y35274250D01*
X5456300Y34933690D01*
X5552973Y34700301D01*
X5731602Y34521673D01*
X5964991Y34425000D01*
X6305550Y34425000D01*
X6464300Y34583750D01*
X6464300Y35433000D01*
X6718300Y35433000D01*
X6718300Y34583750D01*
X6877050Y34425000D01*
X7217609Y34425000D01*
X7450998Y34521673D01*
X7629627Y34700301D01*
X7726300Y34933690D01*
X7726300Y35274250D01*
X7567550Y35433000D01*
X6718300Y35433000D01*
X6464300Y35433000D01*
X5615050Y35433000D01*
X5456300Y35274250D01*
X2693351Y35274250D01*
X5380360Y37961258D01*
X5380360Y37028500D01*
X5380360Y37028500D01*
G37*
X5380360Y37028500D02*
X5429643Y36780735D01*
X5569991Y36570691D01*
X5650303Y36517028D01*
X5552973Y36419699D01*
X5456300Y36186310D01*
X5456300Y35845750D01*
X5615050Y35687000D01*
X6464300Y35687000D01*
X6464300Y35707000D01*
X6718300Y35707000D01*
X6718300Y35687000D01*
X7567550Y35687000D01*
X7726300Y35845750D01*
X7726300Y36186310D01*
X7629627Y36419699D01*
X7481428Y36567897D01*
X7485609Y36570691D01*
X7534259Y36643500D01*
X15270612Y36643500D01*
X15361691Y36507191D01*
X15434501Y36458541D01*
X15434500Y24135279D01*
X11539022Y20239800D01*
X7249961Y20239800D01*
X7162800Y20257137D01*
X7075639Y20239800D01*
X7075635Y20239800D01*
X6817490Y20188452D01*
X6598645Y20042224D01*
X6598644Y20042223D01*
X6524751Y19992849D01*
X6475377Y19918956D01*
X4986222Y18429800D01*
X4951457Y18429800D01*
X4652137Y18729120D01*
X4387089Y18838906D01*
X3860800Y19365195D01*
X3334511Y18838906D01*
X3069463Y18729120D01*
X2676480Y18336137D01*
X2520598Y17959804D01*
X2233200Y18247201D01*
X2233200Y19752498D01*
X2451656Y19752498D01*
X2479438Y19197432D01*
X2638403Y18813657D01*
X2880587Y18744192D01*
X3681195Y19544800D01*
X4040405Y19544800D01*
X4841013Y18744192D01*
X5083197Y18813657D01*
X5269944Y19337102D01*
X5242162Y19892168D01*
X5083197Y20275943D01*
X4841013Y20345408D01*
X4040405Y19544800D01*
X3681195Y19544800D01*
X2880587Y20345408D01*
X2638403Y20275943D01*
X2451656Y19752498D01*
X2233200Y19752498D01*
X2233200Y25822681D01*
X2463800Y25822681D01*
X2463800Y25266919D01*
X2676480Y24753463D01*
X2885143Y24544800D01*
X2676480Y24336137D01*
X2463800Y23822681D01*
X2463800Y23266919D01*
X2676480Y22753463D01*
X2885143Y22544800D01*
X2676480Y22336137D01*
X2463800Y21822681D01*
X2463800Y21266919D01*
X2676480Y20753463D01*
X3069463Y20360480D01*
X3334511Y20250694D01*
X3860800Y19724405D01*
X4387089Y20250694D01*
X4652137Y20360480D01*
X5045120Y20753463D01*
X5257800Y21266919D01*
X5257800Y21822681D01*
X5045120Y22336137D01*
X4836457Y22544800D01*
X5045120Y22753463D01*
X5257800Y23266919D01*
X5257800Y23822681D01*
X5045120Y24336137D01*
X4836457Y24544800D01*
X5045120Y24753463D01*
X5257800Y25266919D01*
X5257800Y25822681D01*
X5045120Y26336137D01*
X4652137Y26729120D01*
X4138681Y26941800D01*
X3582919Y26941800D01*
X3069463Y26729120D01*
X2676480Y26336137D01*
X2463800Y25822681D01*
X2233200Y25822681D01*
X2233200Y34814099D01*
X2693351Y35274250D01*
X5456300Y35274250D01*
X5456300Y34933690D01*
X5552973Y34700301D01*
X5731602Y34521673D01*
X5964991Y34425000D01*
X6305550Y34425000D01*
X6464300Y34583750D01*
X6464300Y35433000D01*
X6718300Y35433000D01*
X6718300Y34583750D01*
X6877050Y34425000D01*
X7217609Y34425000D01*
X7450998Y34521673D01*
X7629627Y34700301D01*
X7726300Y34933690D01*
X7726300Y35274250D01*
X7567550Y35433000D01*
X6718300Y35433000D01*
X6464300Y35433000D01*
X5615050Y35433000D01*
X5456300Y35274250D01*
X2693351Y35274250D01*
X5380360Y37961258D01*
X5380360Y37028500D01*
G04 #@! TD*
M02*
