G04 #@! TF.GenerationSoftware,KiCad,Pcbnew,(5.1.10-1-10_14)*
G04 #@! TF.CreationDate,2022-06-07T22:38:41-07:00*
G04 #@! TF.ProjectId,Control_Boards,436f6e74-726f-46c5-9f42-6f617264732e,rev?*
G04 #@! TF.SameCoordinates,Original*
G04 #@! TF.FileFunction,Legend,Bot*
G04 #@! TF.FilePolarity,Positive*
%FSLAX46Y46*%
G04 Gerber Fmt 4.6, Leading zero omitted, Abs format (unit mm)*
G04 Created by KiCad (PCBNEW (5.1.10-1-10_14)) date 2022-06-07 22:38:41*
%MOMM*%
%LPD*%
G01*
G04 APERTURE LIST*
%ADD10C,0.120000*%
%ADD11C,0.250000*%
%ADD12C,0.500000*%
%ADD13C,0.150000*%
G04 APERTURE END LIST*
D10*
X146177000Y-115506500D02*
X156337000Y-115506500D01*
X156337000Y-115506500D02*
X177927000Y-115506500D01*
X146177000Y-115506500D02*
X146177000Y-72326500D01*
X146177000Y-72326500D02*
X177927000Y-72326500D01*
X177927000Y-72326500D02*
X177927000Y-115506500D01*
X183069000Y-39435000D02*
X184469000Y-39435000D01*
X184469000Y-39435000D02*
X184469000Y-38035000D01*
X184469000Y-38035000D02*
X183069000Y-38035000D01*
X183069000Y-38035000D02*
X183069000Y-39435000D01*
X111314000Y-62295000D02*
X112714000Y-62295000D01*
X112714000Y-62295000D02*
X112714000Y-60895000D01*
X112714000Y-60895000D02*
X111314000Y-60895000D01*
X111314000Y-60895000D02*
X111314000Y-62295000D01*
X111314000Y-57850000D02*
X112714000Y-57850000D01*
X112714000Y-57850000D02*
X112714000Y-56450000D01*
X112714000Y-56450000D02*
X111314000Y-56450000D01*
X111314000Y-56450000D02*
X111314000Y-57850000D01*
D11*
X54605575Y-156654858D02*
X54605575Y-160464858D01*
X49525575Y-156654858D02*
X54605575Y-156654858D01*
X49525575Y-160210858D02*
X49525575Y-156654858D01*
D12*
X89835575Y-118604858D02*
X41575575Y-118604858D01*
X89835575Y-160260858D02*
X89835575Y-118604858D01*
X41575575Y-160260858D02*
X89835575Y-160260858D01*
X41575575Y-118604858D02*
X41575575Y-160260858D01*
D11*
X218186000Y-126746000D02*
X218186000Y-149860000D01*
X210312000Y-149860000D02*
X218186000Y-149860000D01*
X210312000Y-126746000D02*
X210312000Y-149860000D01*
X210312000Y-126746000D02*
X218186000Y-126746000D01*
X115951000Y-128016000D02*
X115951000Y-151130000D01*
X108077000Y-151130000D02*
X115951000Y-151130000D01*
X108077000Y-128016000D02*
X108077000Y-151130000D01*
X108077000Y-128016000D02*
X115951000Y-128016000D01*
X157946770Y-163112086D02*
X157946770Y-166922086D01*
X152866770Y-163112086D02*
X157946770Y-163112086D01*
X152866770Y-166668086D02*
X152866770Y-163112086D01*
D12*
X193176770Y-125062086D02*
X144916770Y-125062086D01*
X193176770Y-166718086D02*
X193176770Y-125062086D01*
X144916770Y-166718086D02*
X193176770Y-166718086D01*
X144916770Y-125062086D02*
X144916770Y-166718086D01*
D10*
X62020200Y-111545500D02*
X62020200Y-111215500D01*
X62020200Y-111215500D02*
X55480200Y-111215500D01*
X55480200Y-111215500D02*
X55480200Y-111545500D01*
X62020200Y-113625500D02*
X62020200Y-113955500D01*
X62020200Y-113955500D02*
X55480200Y-113955500D01*
X55480200Y-113955500D02*
X55480200Y-113625500D01*
X67057400Y-110560100D02*
X66727400Y-110560100D01*
X66727400Y-110560100D02*
X66727400Y-117100100D01*
X66727400Y-117100100D02*
X67057400Y-117100100D01*
X69137400Y-110560100D02*
X69467400Y-110560100D01*
X69467400Y-110560100D02*
X69467400Y-117100100D01*
X69467400Y-117100100D02*
X69137400Y-117100100D01*
X62045600Y-115228500D02*
X62045600Y-114898500D01*
X62045600Y-114898500D02*
X55505600Y-114898500D01*
X55505600Y-114898500D02*
X55505600Y-115228500D01*
X62045600Y-117308500D02*
X62045600Y-117638500D01*
X62045600Y-117638500D02*
X55505600Y-117638500D01*
X55505600Y-117638500D02*
X55505600Y-117308500D01*
X45193200Y-113625500D02*
X45193200Y-113955500D01*
X45193200Y-113955500D02*
X51733200Y-113955500D01*
X51733200Y-113955500D02*
X51733200Y-113625500D01*
X45193200Y-111545500D02*
X45193200Y-111215500D01*
X45193200Y-111215500D02*
X51733200Y-111215500D01*
X51733200Y-111215500D02*
X51733200Y-111545500D01*
X45269400Y-116978300D02*
X45269400Y-117308300D01*
X45269400Y-117308300D02*
X51809400Y-117308300D01*
X51809400Y-117308300D02*
X51809400Y-116978300D01*
X45269400Y-114898300D02*
X45269400Y-114568300D01*
X45269400Y-114568300D02*
X51809400Y-114568300D01*
X51809400Y-114568300D02*
X51809400Y-114898300D01*
X195802253Y-40350465D02*
X195472253Y-40350465D01*
X195472253Y-40350465D02*
X195472253Y-46890465D01*
X195472253Y-46890465D02*
X195802253Y-46890465D01*
X197882253Y-40350465D02*
X198212253Y-40350465D01*
X198212253Y-40350465D02*
X198212253Y-46890465D01*
X198212253Y-46890465D02*
X197882253Y-46890465D01*
X197882253Y-35460465D02*
X198212253Y-35460465D01*
X198212253Y-35460465D02*
X198212253Y-28920465D01*
X198212253Y-28920465D02*
X197882253Y-28920465D01*
X195802253Y-35460465D02*
X195472253Y-35460465D01*
X195472253Y-35460465D02*
X195472253Y-28920465D01*
X195472253Y-28920465D02*
X195802253Y-28920465D01*
D13*
X178649380Y-112839595D02*
X179458904Y-112839595D01*
X179554142Y-112887214D01*
X179601761Y-112934833D01*
X179649380Y-113030071D01*
X179649380Y-113220547D01*
X179601761Y-113315785D01*
X179554142Y-113363404D01*
X179458904Y-113411023D01*
X178649380Y-113411023D01*
X178982714Y-114315785D02*
X179649380Y-114315785D01*
X178601761Y-114077690D02*
X179316047Y-113839595D01*
X179316047Y-114458642D01*
X149804380Y-101441738D02*
X148804380Y-101441738D01*
X148804380Y-101679833D01*
X148852000Y-101822690D01*
X148947238Y-101917928D01*
X149042476Y-101965547D01*
X149232952Y-102013166D01*
X149375809Y-102013166D01*
X149566285Y-101965547D01*
X149661523Y-101917928D01*
X149756761Y-101822690D01*
X149804380Y-101679833D01*
X149804380Y-101441738D01*
X148899619Y-102394119D02*
X148852000Y-102441738D01*
X148804380Y-102536976D01*
X148804380Y-102775071D01*
X148852000Y-102870309D01*
X148899619Y-102917928D01*
X148994857Y-102965547D01*
X149090095Y-102965547D01*
X149232952Y-102917928D01*
X149804380Y-102346500D01*
X149804380Y-102965547D01*
X149137714Y-103822690D02*
X149804380Y-103822690D01*
X148756761Y-103584595D02*
X149471047Y-103346500D01*
X149471047Y-103965547D01*
X148804380Y-104203642D02*
X149804380Y-104536976D01*
X148804380Y-104870309D01*
X149804380Y-105727452D02*
X149804380Y-105156023D01*
X149804380Y-105441738D02*
X148804380Y-105441738D01*
X148947238Y-105346500D01*
X149042476Y-105251261D01*
X149090095Y-105156023D01*
X148804380Y-106632214D02*
X148804380Y-106156023D01*
X149280571Y-106108404D01*
X149232952Y-106156023D01*
X149185333Y-106251261D01*
X149185333Y-106489357D01*
X149232952Y-106584595D01*
X149280571Y-106632214D01*
X149375809Y-106679833D01*
X149613904Y-106679833D01*
X149709142Y-106632214D01*
X149756761Y-106584595D01*
X149804380Y-106489357D01*
X149804380Y-106251261D01*
X149756761Y-106156023D01*
X149709142Y-106108404D01*
X148804380Y-107298880D02*
X148804380Y-107394119D01*
X148852000Y-107489357D01*
X148899619Y-107536976D01*
X148994857Y-107584595D01*
X149185333Y-107632214D01*
X149423428Y-107632214D01*
X149613904Y-107584595D01*
X149709142Y-107536976D01*
X149756761Y-107489357D01*
X149804380Y-107394119D01*
X149804380Y-107298880D01*
X149756761Y-107203642D01*
X149709142Y-107156023D01*
X149613904Y-107108404D01*
X149423428Y-107060785D01*
X149185333Y-107060785D01*
X148994857Y-107108404D01*
X148899619Y-107156023D01*
X148852000Y-107203642D01*
X148804380Y-107298880D01*
X149280571Y-108394119D02*
X149280571Y-108060785D01*
X149804380Y-108060785D02*
X148804380Y-108060785D01*
X148804380Y-108536976D01*
X149804380Y-108822690D02*
X149137714Y-109346500D01*
X149137714Y-108822690D02*
X149804380Y-109346500D01*
X184530904Y-39635380D02*
X183959476Y-39635380D01*
X184245190Y-40635380D02*
X184245190Y-39635380D01*
X183197571Y-39968714D02*
X183197571Y-40635380D01*
X183435666Y-39587761D02*
X183673761Y-40302047D01*
X183054714Y-40302047D01*
X112775904Y-62495380D02*
X112204476Y-62495380D01*
X112490190Y-63495380D02*
X112490190Y-62495380D01*
X111347333Y-63495380D02*
X111918761Y-63495380D01*
X111633047Y-63495380D02*
X111633047Y-62495380D01*
X111728285Y-62638238D01*
X111823523Y-62733476D01*
X111918761Y-62781095D01*
X112775904Y-58050380D02*
X112204476Y-58050380D01*
X112490190Y-59050380D02*
X112490190Y-58050380D01*
X111394952Y-58050380D02*
X111871142Y-58050380D01*
X111918761Y-58526571D01*
X111871142Y-58478952D01*
X111775904Y-58431333D01*
X111537809Y-58431333D01*
X111442571Y-58478952D01*
X111394952Y-58526571D01*
X111347333Y-58621809D01*
X111347333Y-58859904D01*
X111394952Y-58955142D01*
X111442571Y-59002761D01*
X111537809Y-59050380D01*
X111775904Y-59050380D01*
X111871142Y-59002761D01*
X111918761Y-58955142D01*
X91887955Y-119882691D02*
X91411765Y-119549358D01*
X91887955Y-119311262D02*
X90887955Y-119311262D01*
X90887955Y-119692215D01*
X90935575Y-119787453D01*
X90983194Y-119835072D01*
X91078432Y-119882691D01*
X91221289Y-119882691D01*
X91316527Y-119835072D01*
X91364146Y-119787453D01*
X91411765Y-119692215D01*
X91411765Y-119311262D01*
X91792717Y-120882691D02*
X91840336Y-120835072D01*
X91887955Y-120692215D01*
X91887955Y-120596977D01*
X91840336Y-120454119D01*
X91745098Y-120358881D01*
X91649860Y-120311262D01*
X91459384Y-120263643D01*
X91316527Y-120263643D01*
X91126051Y-120311262D01*
X91030813Y-120358881D01*
X90935575Y-120454119D01*
X90887955Y-120596977D01*
X90887955Y-120692215D01*
X90935575Y-120835072D01*
X90983194Y-120882691D01*
X90887955Y-121216024D02*
X90887955Y-121835072D01*
X91268908Y-121501738D01*
X91268908Y-121644596D01*
X91316527Y-121739834D01*
X91364146Y-121787453D01*
X91459384Y-121835072D01*
X91697479Y-121835072D01*
X91792717Y-121787453D01*
X91840336Y-121739834D01*
X91887955Y-121644596D01*
X91887955Y-121358881D01*
X91840336Y-121263643D01*
X91792717Y-121216024D01*
X218146380Y-128476476D02*
X218860666Y-128476476D01*
X219003523Y-128428857D01*
X219098761Y-128333619D01*
X219146380Y-128190761D01*
X219146380Y-128095523D01*
X219146380Y-129476476D02*
X219146380Y-128905047D01*
X219146380Y-129190761D02*
X218146380Y-129190761D01*
X218289238Y-129095523D01*
X218384476Y-129000285D01*
X218432095Y-128905047D01*
X218146380Y-130333619D02*
X218146380Y-130143142D01*
X218194000Y-130047904D01*
X218241619Y-130000285D01*
X218384476Y-129905047D01*
X218574952Y-129857428D01*
X218955904Y-129857428D01*
X219051142Y-129905047D01*
X219098761Y-129952666D01*
X219146380Y-130047904D01*
X219146380Y-130238380D01*
X219098761Y-130333619D01*
X219051142Y-130381238D01*
X218955904Y-130428857D01*
X218717809Y-130428857D01*
X218622571Y-130381238D01*
X218574952Y-130333619D01*
X218527333Y-130238380D01*
X218527333Y-130047904D01*
X218574952Y-129952666D01*
X218622571Y-129905047D01*
X218717809Y-129857428D01*
X115911380Y-129746476D02*
X116625666Y-129746476D01*
X116768523Y-129698857D01*
X116863761Y-129603619D01*
X116911380Y-129460761D01*
X116911380Y-129365523D01*
X116911380Y-130746476D02*
X116911380Y-130175047D01*
X116911380Y-130460761D02*
X115911380Y-130460761D01*
X116054238Y-130365523D01*
X116149476Y-130270285D01*
X116197095Y-130175047D01*
X116339952Y-131317904D02*
X116292333Y-131222666D01*
X116244714Y-131175047D01*
X116149476Y-131127428D01*
X116101857Y-131127428D01*
X116006619Y-131175047D01*
X115959000Y-131222666D01*
X115911380Y-131317904D01*
X115911380Y-131508380D01*
X115959000Y-131603619D01*
X116006619Y-131651238D01*
X116101857Y-131698857D01*
X116149476Y-131698857D01*
X116244714Y-131651238D01*
X116292333Y-131603619D01*
X116339952Y-131508380D01*
X116339952Y-131317904D01*
X116387571Y-131222666D01*
X116435190Y-131175047D01*
X116530428Y-131127428D01*
X116720904Y-131127428D01*
X116816142Y-131175047D01*
X116863761Y-131222666D01*
X116911380Y-131317904D01*
X116911380Y-131508380D01*
X116863761Y-131603619D01*
X116816142Y-131651238D01*
X116720904Y-131698857D01*
X116530428Y-131698857D01*
X116435190Y-131651238D01*
X116387571Y-131603619D01*
X116339952Y-131508380D01*
X143959350Y-126339919D02*
X143483160Y-126006586D01*
X143959350Y-125768490D02*
X142959350Y-125768490D01*
X142959350Y-126149443D01*
X143006970Y-126244681D01*
X143054589Y-126292300D01*
X143149827Y-126339919D01*
X143292684Y-126339919D01*
X143387922Y-126292300D01*
X143435541Y-126244681D01*
X143483160Y-126149443D01*
X143483160Y-125768490D01*
X143864112Y-127339919D02*
X143911731Y-127292300D01*
X143959350Y-127149443D01*
X143959350Y-127054205D01*
X143911731Y-126911347D01*
X143816493Y-126816109D01*
X143721255Y-126768490D01*
X143530779Y-126720871D01*
X143387922Y-126720871D01*
X143197446Y-126768490D01*
X143102208Y-126816109D01*
X143006970Y-126911347D01*
X142959350Y-127054205D01*
X142959350Y-127149443D01*
X143006970Y-127292300D01*
X143054589Y-127339919D01*
X143959350Y-128292300D02*
X143959350Y-127720871D01*
X143959350Y-128006586D02*
X142959350Y-128006586D01*
X143102208Y-127911347D01*
X143197446Y-127816109D01*
X143245065Y-127720871D01*
X59393057Y-110572642D02*
X59440676Y-110620261D01*
X59583533Y-110667880D01*
X59678771Y-110667880D01*
X59821628Y-110620261D01*
X59916866Y-110525023D01*
X59964485Y-110429785D01*
X60012104Y-110239309D01*
X60012104Y-110096452D01*
X59964485Y-109905976D01*
X59916866Y-109810738D01*
X59821628Y-109715500D01*
X59678771Y-109667880D01*
X59583533Y-109667880D01*
X59440676Y-109715500D01*
X59393057Y-109763119D01*
X59012104Y-109763119D02*
X58964485Y-109715500D01*
X58869247Y-109667880D01*
X58631152Y-109667880D01*
X58535914Y-109715500D01*
X58488295Y-109763119D01*
X58440676Y-109858357D01*
X58440676Y-109953595D01*
X58488295Y-110096452D01*
X59059723Y-110667880D01*
X58440676Y-110667880D01*
X57488295Y-110667880D02*
X58059723Y-110667880D01*
X57774009Y-110667880D02*
X57774009Y-109667880D01*
X57869247Y-109810738D01*
X57964485Y-109905976D01*
X58059723Y-109953595D01*
X66084542Y-113663433D02*
X66132161Y-113615814D01*
X66179780Y-113472957D01*
X66179780Y-113377719D01*
X66132161Y-113234861D01*
X66036923Y-113139623D01*
X65941685Y-113092004D01*
X65751209Y-113044385D01*
X65608352Y-113044385D01*
X65417876Y-113092004D01*
X65322638Y-113139623D01*
X65227400Y-113234861D01*
X65179780Y-113377719D01*
X65179780Y-113472957D01*
X65227400Y-113615814D01*
X65275019Y-113663433D01*
X65179780Y-114520576D02*
X65179780Y-114330100D01*
X65227400Y-114234861D01*
X65275019Y-114187242D01*
X65417876Y-114092004D01*
X65608352Y-114044385D01*
X65989304Y-114044385D01*
X66084542Y-114092004D01*
X66132161Y-114139623D01*
X66179780Y-114234861D01*
X66179780Y-114425338D01*
X66132161Y-114520576D01*
X66084542Y-114568195D01*
X65989304Y-114615814D01*
X65751209Y-114615814D01*
X65655971Y-114568195D01*
X65608352Y-114520576D01*
X65560733Y-114425338D01*
X65560733Y-114234861D01*
X65608352Y-114139623D01*
X65655971Y-114092004D01*
X65751209Y-114044385D01*
X59418457Y-114255642D02*
X59466076Y-114303261D01*
X59608933Y-114350880D01*
X59704171Y-114350880D01*
X59847028Y-114303261D01*
X59942266Y-114208023D01*
X59989885Y-114112785D01*
X60037504Y-113922309D01*
X60037504Y-113779452D01*
X59989885Y-113588976D01*
X59942266Y-113493738D01*
X59847028Y-113398500D01*
X59704171Y-113350880D01*
X59608933Y-113350880D01*
X59466076Y-113398500D01*
X59418457Y-113446119D01*
X58466076Y-114350880D02*
X59037504Y-114350880D01*
X58751790Y-114350880D02*
X58751790Y-113350880D01*
X58847028Y-113493738D01*
X58942266Y-113588976D01*
X59037504Y-113636595D01*
X57894647Y-113779452D02*
X57989885Y-113731833D01*
X58037504Y-113684214D01*
X58085123Y-113588976D01*
X58085123Y-113541357D01*
X58037504Y-113446119D01*
X57989885Y-113398500D01*
X57894647Y-113350880D01*
X57704171Y-113350880D01*
X57608933Y-113398500D01*
X57561314Y-113446119D01*
X57513695Y-113541357D01*
X57513695Y-113588976D01*
X57561314Y-113684214D01*
X57608933Y-113731833D01*
X57704171Y-113779452D01*
X57894647Y-113779452D01*
X57989885Y-113827071D01*
X58037504Y-113874690D01*
X58085123Y-113969928D01*
X58085123Y-114160404D01*
X58037504Y-114255642D01*
X57989885Y-114303261D01*
X57894647Y-114350880D01*
X57704171Y-114350880D01*
X57608933Y-114303261D01*
X57561314Y-114255642D01*
X57513695Y-114160404D01*
X57513695Y-113969928D01*
X57561314Y-113874690D01*
X57608933Y-113827071D01*
X57704171Y-113779452D01*
X49106057Y-115312642D02*
X49153676Y-115360261D01*
X49296533Y-115407880D01*
X49391771Y-115407880D01*
X49534628Y-115360261D01*
X49629866Y-115265023D01*
X49677485Y-115169785D01*
X49725104Y-114979309D01*
X49725104Y-114836452D01*
X49677485Y-114645976D01*
X49629866Y-114550738D01*
X49534628Y-114455500D01*
X49391771Y-114407880D01*
X49296533Y-114407880D01*
X49153676Y-114455500D01*
X49106057Y-114503119D01*
X48153676Y-115407880D02*
X48725104Y-115407880D01*
X48439390Y-115407880D02*
X48439390Y-114407880D01*
X48534628Y-114550738D01*
X48629866Y-114645976D01*
X48725104Y-114693595D01*
X47296533Y-114741214D02*
X47296533Y-115407880D01*
X47534628Y-114360261D02*
X47772723Y-115074547D01*
X47153676Y-115074547D01*
X49182257Y-118665442D02*
X49229876Y-118713061D01*
X49372733Y-118760680D01*
X49467971Y-118760680D01*
X49610828Y-118713061D01*
X49706066Y-118617823D01*
X49753685Y-118522585D01*
X49801304Y-118332109D01*
X49801304Y-118189252D01*
X49753685Y-117998776D01*
X49706066Y-117903538D01*
X49610828Y-117808300D01*
X49467971Y-117760680D01*
X49372733Y-117760680D01*
X49229876Y-117808300D01*
X49182257Y-117855919D01*
X48229876Y-118760680D02*
X48801304Y-118760680D01*
X48515590Y-118760680D02*
X48515590Y-117760680D01*
X48610828Y-117903538D01*
X48706066Y-117998776D01*
X48801304Y-118046395D01*
X47372733Y-117760680D02*
X47563209Y-117760680D01*
X47658447Y-117808300D01*
X47706066Y-117855919D01*
X47801304Y-117998776D01*
X47848923Y-118189252D01*
X47848923Y-118570204D01*
X47801304Y-118665442D01*
X47753685Y-118713061D01*
X47658447Y-118760680D01*
X47467971Y-118760680D01*
X47372733Y-118713061D01*
X47325114Y-118665442D01*
X47277495Y-118570204D01*
X47277495Y-118332109D01*
X47325114Y-118236871D01*
X47372733Y-118189252D01*
X47467971Y-118141633D01*
X47658447Y-118141633D01*
X47753685Y-118189252D01*
X47801304Y-118236871D01*
X47848923Y-118332109D01*
X194829395Y-43453798D02*
X194877014Y-43406179D01*
X194924633Y-43263322D01*
X194924633Y-43168084D01*
X194877014Y-43025226D01*
X194781776Y-42929988D01*
X194686538Y-42882369D01*
X194496062Y-42834750D01*
X194353205Y-42834750D01*
X194162729Y-42882369D01*
X194067491Y-42929988D01*
X193972253Y-43025226D01*
X193924633Y-43168084D01*
X193924633Y-43263322D01*
X193972253Y-43406179D01*
X194019872Y-43453798D01*
X194924633Y-44406179D02*
X194924633Y-43834750D01*
X194924633Y-44120465D02*
X193924633Y-44120465D01*
X194067491Y-44025226D01*
X194162729Y-43929988D01*
X194210348Y-43834750D01*
X199664633Y-32023798D02*
X199188443Y-31690465D01*
X199664633Y-31452369D02*
X198664633Y-31452369D01*
X198664633Y-31833322D01*
X198712253Y-31928560D01*
X198759872Y-31976179D01*
X198855110Y-32023798D01*
X198997967Y-32023798D01*
X199093205Y-31976179D01*
X199140824Y-31928560D01*
X199188443Y-31833322D01*
X199188443Y-31452369D01*
X198664633Y-32928560D02*
X198664633Y-32452369D01*
X199140824Y-32404750D01*
X199093205Y-32452369D01*
X199045586Y-32547607D01*
X199045586Y-32785703D01*
X199093205Y-32880941D01*
X199140824Y-32928560D01*
X199236062Y-32976179D01*
X199474157Y-32976179D01*
X199569395Y-32928560D01*
X199617014Y-32880941D01*
X199664633Y-32785703D01*
X199664633Y-32547607D01*
X199617014Y-32452369D01*
X199569395Y-32404750D01*
M02*
