G04 #@! TF.GenerationSoftware,KiCad,Pcbnew,(5.1.10-1-10_14)*
G04 #@! TF.CreationDate,2022-06-07T22:38:41-07:00*
G04 #@! TF.ProjectId,Control_Boards,436f6e74-726f-46c5-9f42-6f617264732e,rev?*
G04 #@! TF.SameCoordinates,Original*
G04 #@! TF.FileFunction,Legend,Top*
G04 #@! TF.FilePolarity,Positive*
%FSLAX46Y46*%
G04 Gerber Fmt 4.6, Leading zero omitted, Abs format (unit mm)*
G04 Created by KiCad (PCBNEW (5.1.10-1-10_14)) date 2022-06-07 22:38:41*
%MOMM*%
%LPD*%
G01*
G04 APERTURE LIST*
%ADD10C,0.120000*%
%ADD11C,0.250000*%
%ADD12C,0.150000*%
%ADD13C,0.500000*%
G04 APERTURE END LIST*
D10*
X140748000Y-56415000D02*
X140748000Y-56745000D01*
X147288000Y-56415000D02*
X140748000Y-56415000D01*
X147288000Y-56745000D02*
X147288000Y-56415000D01*
X140748000Y-59155000D02*
X140748000Y-58825000D01*
X147288000Y-59155000D02*
X140748000Y-59155000D01*
X147288000Y-58825000D02*
X147288000Y-59155000D01*
D11*
X193167000Y-45656500D02*
X193167000Y-27876500D01*
X190627000Y-25336500D02*
X172847000Y-25336500D01*
X170307000Y-45656500D02*
X170307000Y-27876500D01*
X172847000Y-48196500D02*
X190627000Y-48196500D01*
X170307000Y-27876500D02*
G75*
G02*
X172847000Y-25336500I2540000J0D01*
G01*
X172847000Y-48196500D02*
G75*
G02*
X170307000Y-45656500I0J2540000D01*
G01*
X193167000Y-45656500D02*
G75*
G02*
X190627000Y-48196500I-2540000J0D01*
G01*
X190627000Y-25336500D02*
G75*
G02*
X193167000Y-27876500I0J-2540000D01*
G01*
D10*
X87309000Y-167065000D02*
X87309000Y-164405000D01*
X69469000Y-167065000D02*
X87309000Y-167065000D01*
X69469000Y-164405000D02*
X87309000Y-164405000D01*
X69469000Y-167065000D02*
X69469000Y-164405000D01*
X68199000Y-167065000D02*
X66869000Y-167065000D01*
X66869000Y-167065000D02*
X66869000Y-165735000D01*
D11*
X201277000Y-53022500D02*
X182245000Y-53022500D01*
X204597000Y-56324500D02*
X204597000Y-112186500D01*
X178943000Y-112186500D02*
X178943000Y-56324500D01*
X182245000Y-115506500D02*
X201277000Y-115506500D01*
X182245000Y-53022500D02*
G75*
G03*
X178943000Y-56324500I0J-3302000D01*
G01*
X201277000Y-53004500D02*
G75*
G02*
X204597000Y-56324500I0J-3320000D01*
G01*
X204597000Y-112186500D02*
G75*
G02*
X201277000Y-115506500I-3320000J0D01*
G01*
X178925000Y-112186500D02*
G75*
G03*
X182245000Y-115506500I3320000J0D01*
G01*
D10*
X53529000Y-33590000D02*
X54929000Y-33590000D01*
X54929000Y-33590000D02*
X54929000Y-34990000D01*
X54929000Y-34990000D02*
X53529000Y-34990000D01*
X53529000Y-34990000D02*
X53529000Y-33590000D01*
X157669000Y-43750000D02*
X159069000Y-43750000D01*
X159069000Y-43750000D02*
X159069000Y-45150000D01*
X159069000Y-45150000D02*
X157669000Y-45150000D01*
X157669000Y-45150000D02*
X157669000Y-43750000D01*
X218059000Y-55763160D02*
X208407000Y-55763160D01*
X218059000Y-69479160D02*
X208407000Y-69479160D01*
X208407000Y-55763160D02*
X208407000Y-69479160D01*
X218059000Y-55763160D02*
X218059000Y-69479160D01*
X218059000Y-60919360D02*
X219329000Y-60919360D01*
X219329000Y-60919360D02*
X219329000Y-64322960D01*
X219329000Y-64322960D02*
X218059000Y-64322960D01*
D12*
X157607000Y-71076500D02*
X175407000Y-71076500D01*
X175407000Y-71076500D02*
X175407000Y-53276500D01*
X175407000Y-53276500D02*
X157607000Y-53276500D01*
X157607000Y-71076500D02*
X157607000Y-53276500D01*
D11*
X131826000Y-128097556D02*
X123952000Y-128097556D01*
X131826000Y-128097556D02*
X131826000Y-151211556D01*
X131826000Y-151211556D02*
X123952000Y-151211556D01*
X123952000Y-128097556D02*
X123952000Y-151211556D01*
X94970600Y-40576500D02*
X94970600Y-45656500D01*
X94970600Y-45656500D02*
X121234200Y-45656500D01*
X121234200Y-45656500D02*
X121234200Y-40576500D01*
X121234200Y-40576500D02*
X94970600Y-40576500D01*
X203327000Y-23812500D02*
X203327000Y-49466500D01*
X213487000Y-23812500D02*
X203327000Y-23812500D01*
X213487000Y-49466500D02*
X213487000Y-23812500D01*
X203327000Y-49466500D02*
X213487000Y-49466500D01*
X205917800Y-48196500D02*
X207645000Y-48196500D01*
X207645000Y-48196500D02*
X207645000Y-47383700D01*
X207645000Y-47383700D02*
X209016600Y-48247300D01*
X209016600Y-48247300D02*
X207645000Y-49060100D01*
X207645000Y-49060100D02*
X207645000Y-48196500D01*
X209016600Y-48247300D02*
X210642200Y-48247300D01*
X209016600Y-45758100D02*
X210642200Y-45758100D01*
X209016600Y-45758100D02*
X207645000Y-46570900D01*
X205917800Y-45707300D02*
X207645000Y-45707300D01*
X207645000Y-45707300D02*
X207645000Y-44894500D01*
X207645000Y-44894500D02*
X209016600Y-45758100D01*
X207645000Y-46570900D02*
X207645000Y-45707300D01*
X209016600Y-43218100D02*
X210642200Y-43218100D01*
X209016600Y-43218100D02*
X207645000Y-44030900D01*
X205917800Y-43167300D02*
X207645000Y-43167300D01*
X207645000Y-43167300D02*
X207645000Y-42354500D01*
X207645000Y-42354500D02*
X209016600Y-43218100D01*
X207645000Y-44030900D02*
X207645000Y-43167300D01*
X209016600Y-40678100D02*
X210642200Y-40678100D01*
X209016600Y-40678100D02*
X207645000Y-41490900D01*
X205917800Y-40627300D02*
X207645000Y-40627300D01*
X207645000Y-40627300D02*
X207645000Y-39814500D01*
X207645000Y-39814500D02*
X209016600Y-40678100D01*
X207645000Y-41490900D02*
X207645000Y-40627300D01*
X209016600Y-38138100D02*
X210642200Y-38138100D01*
X209016600Y-38138100D02*
X207645000Y-38950900D01*
X205917800Y-38087300D02*
X207645000Y-38087300D01*
X207645000Y-38087300D02*
X207645000Y-37274500D01*
X207645000Y-37274500D02*
X209016600Y-38138100D01*
X207645000Y-38950900D02*
X207645000Y-38087300D01*
X209016600Y-35598100D02*
X210642200Y-35598100D01*
X209016600Y-35598100D02*
X207645000Y-36410900D01*
X205917800Y-35547300D02*
X207645000Y-35547300D01*
X207645000Y-35547300D02*
X207645000Y-34734500D01*
X207645000Y-34734500D02*
X209016600Y-35598100D01*
X207645000Y-36410900D02*
X207645000Y-35547300D01*
X209016600Y-33058100D02*
X210642200Y-33058100D01*
X209016600Y-33058100D02*
X207645000Y-33870900D01*
X205917800Y-33007300D02*
X207645000Y-33007300D01*
X207645000Y-33007300D02*
X207645000Y-32194500D01*
X207645000Y-32194500D02*
X209016600Y-33058100D01*
X207645000Y-33870900D02*
X207645000Y-33007300D01*
X209016600Y-30518100D02*
X210642200Y-30518100D01*
X209016600Y-30518100D02*
X207645000Y-31330900D01*
X205917800Y-30467300D02*
X207645000Y-30467300D01*
X207645000Y-30467300D02*
X207645000Y-29654500D01*
X207645000Y-29654500D02*
X209016600Y-30518100D01*
X207645000Y-31330900D02*
X207645000Y-30467300D01*
X209016600Y-27978100D02*
X210642200Y-27978100D01*
X209016600Y-27978100D02*
X207645000Y-28790900D01*
X205917800Y-27927300D02*
X207645000Y-27927300D01*
X207645000Y-27927300D02*
X207645000Y-27114500D01*
X207645000Y-27114500D02*
X209016600Y-27978100D01*
X207645000Y-28790900D02*
X207645000Y-27927300D01*
X209016600Y-25438100D02*
X210642200Y-25438100D01*
X209016600Y-25438100D02*
X207645000Y-26250900D01*
X205917800Y-25387300D02*
X207645000Y-25387300D01*
X207645000Y-25387300D02*
X207645000Y-24574500D01*
X207645000Y-24574500D02*
X209016600Y-25438100D01*
X207645000Y-26250900D02*
X207645000Y-25387300D01*
X139827000Y-166941500D02*
X139827000Y-159321500D01*
X139827000Y-159321500D02*
X129667000Y-159321500D01*
X129667000Y-159321500D02*
X129667000Y-166941500D01*
X129667000Y-166941500D02*
X139827000Y-166941500D01*
X57277000Y-24066500D02*
X57277000Y-27876500D01*
X57277000Y-27876500D02*
X82677000Y-27876500D01*
X82677000Y-27876500D02*
X82677000Y-24066500D01*
X82677000Y-21526500D02*
X82677000Y-17716500D01*
X82677000Y-17716500D02*
X57277000Y-17716500D01*
X57277000Y-17716500D02*
X57277000Y-21526500D01*
D12*
X110744000Y-155575000D02*
X110744000Y-160655000D01*
X123444000Y-155575000D02*
X110744000Y-155575000D01*
X123444000Y-165735000D02*
X123444000Y-155575000D01*
X110744000Y-165735000D02*
X123444000Y-165735000D01*
X110744000Y-160655000D02*
X110744000Y-165735000D01*
D10*
X97747000Y-161665000D02*
X97747000Y-152945000D01*
X97747000Y-152945000D02*
X103167000Y-152945000D01*
X103167000Y-161665000D02*
X103167000Y-152945000D01*
X99047000Y-163365000D02*
X97747000Y-161665000D01*
X101867000Y-163365000D02*
X103167000Y-161665000D01*
X99047000Y-163365000D02*
X101867000Y-163365000D01*
X160317000Y-19500500D02*
X160317000Y-28220500D01*
X160317000Y-28220500D02*
X154897000Y-28220500D01*
X154897000Y-19500500D02*
X154897000Y-28220500D01*
X159017000Y-17800500D02*
X160317000Y-19500500D01*
X156197000Y-17800500D02*
X154897000Y-19500500D01*
X159017000Y-17800500D02*
X156197000Y-17800500D01*
X143807000Y-19500500D02*
X143807000Y-28220500D01*
X143807000Y-28220500D02*
X138387000Y-28220500D01*
X138387000Y-19500500D02*
X138387000Y-28220500D01*
X142507000Y-17800500D02*
X143807000Y-19500500D01*
X139687000Y-17800500D02*
X138387000Y-19500500D01*
X142507000Y-17800500D02*
X139687000Y-17800500D01*
X52367000Y-19246500D02*
X52367000Y-27966500D01*
X52367000Y-27966500D02*
X46947000Y-27966500D01*
X46947000Y-19246500D02*
X46947000Y-27966500D01*
X51067000Y-17546500D02*
X52367000Y-19246500D01*
X48247000Y-17546500D02*
X46947000Y-19246500D01*
X51067000Y-17546500D02*
X48247000Y-17546500D01*
X94277000Y-19500500D02*
X94277000Y-28220500D01*
X94277000Y-28220500D02*
X88857000Y-28220500D01*
X88857000Y-19500500D02*
X88857000Y-28220500D01*
X92977000Y-17800500D02*
X94277000Y-19500500D01*
X90157000Y-17800500D02*
X88857000Y-19500500D01*
X92977000Y-17800500D02*
X90157000Y-17800500D01*
D11*
X192024000Y-163195000D02*
X192024000Y-167005000D01*
X197104000Y-163195000D02*
X192024000Y-163195000D01*
X197104000Y-166751000D02*
X197104000Y-163195000D01*
D13*
X156794000Y-125145000D02*
X205054000Y-125145000D01*
X156794000Y-166801000D02*
X156794000Y-125145000D01*
X205054000Y-166801000D02*
X156794000Y-166801000D01*
X205054000Y-125145000D02*
X205054000Y-166801000D01*
D12*
X67183000Y-31686500D02*
X67945000Y-31686500D01*
X67945000Y-31686500D02*
X67945000Y-30924500D01*
X67945000Y-30924500D02*
X68961000Y-31686500D01*
X68961000Y-31686500D02*
X67945000Y-32448500D01*
X67945000Y-32448500D02*
X67945000Y-31686500D01*
X68961000Y-31686500D02*
X69977000Y-31686500D01*
G36*
X67945000Y-30924500D02*
G01*
X68961000Y-31686500D01*
X67945000Y-32448500D01*
X67945000Y-30924500D01*
G37*
X67945000Y-30924500D02*
X68961000Y-31686500D01*
X67945000Y-32448500D01*
X67945000Y-30924500D01*
D10*
X42037000Y-54663340D02*
X51689000Y-54663340D01*
X42037000Y-40947340D02*
X51689000Y-40947340D01*
X51689000Y-54663340D02*
X51689000Y-40947340D01*
X42037000Y-54663340D02*
X42037000Y-40947340D01*
X42037000Y-49507140D02*
X40767000Y-49507140D01*
X40767000Y-49507140D02*
X40767000Y-46103540D01*
X40767000Y-46103540D02*
X42037000Y-46103540D01*
X42037000Y-105463340D02*
X51689000Y-105463340D01*
X42037000Y-91747340D02*
X51689000Y-91747340D01*
X51689000Y-105463340D02*
X51689000Y-91747340D01*
X42037000Y-105463340D02*
X42037000Y-91747340D01*
X42037000Y-100307140D02*
X40767000Y-100307140D01*
X40767000Y-100307140D02*
X40767000Y-96903540D01*
X40767000Y-96903540D02*
X42037000Y-96903540D01*
X217932000Y-101419660D02*
X208280000Y-101419660D01*
X217932000Y-115135660D02*
X208280000Y-115135660D01*
X208280000Y-101419660D02*
X208280000Y-115135660D01*
X217932000Y-101419660D02*
X217932000Y-115135660D01*
X217932000Y-106575860D02*
X219202000Y-106575860D01*
X219202000Y-106575860D02*
X219202000Y-109979460D01*
X219202000Y-109979460D02*
X217932000Y-109979460D01*
X42037000Y-80063340D02*
X51689000Y-80063340D01*
X42037000Y-66347340D02*
X51689000Y-66347340D01*
X51689000Y-80063340D02*
X51689000Y-66347340D01*
X42037000Y-80063340D02*
X42037000Y-66347340D01*
X42037000Y-74907140D02*
X40767000Y-74907140D01*
X40767000Y-74907140D02*
X40767000Y-71503540D01*
X40767000Y-71503540D02*
X42037000Y-71503540D01*
X217932000Y-78559660D02*
X208280000Y-78559660D01*
X217932000Y-92275660D02*
X208280000Y-92275660D01*
X208280000Y-78559660D02*
X208280000Y-92275660D01*
X217932000Y-78559660D02*
X217932000Y-92275660D01*
X217932000Y-83715860D02*
X219202000Y-83715860D01*
X219202000Y-83715860D02*
X219202000Y-87119460D01*
X219202000Y-87119460D02*
X217932000Y-87119460D01*
X146707782Y-119812641D02*
X146707782Y-119482641D01*
X146707782Y-119482641D02*
X153247782Y-119482641D01*
X153247782Y-119482641D02*
X153247782Y-119812641D01*
X146707782Y-121892641D02*
X146707782Y-122222641D01*
X146707782Y-122222641D02*
X153247782Y-122222641D01*
X153247782Y-122222641D02*
X153247782Y-121892641D01*
X137737600Y-155662500D02*
X137737600Y-155992500D01*
X137737600Y-155992500D02*
X131197600Y-155992500D01*
X131197600Y-155992500D02*
X131197600Y-155662500D01*
X137737600Y-153582500D02*
X137737600Y-153252500D01*
X137737600Y-153252500D02*
X131197600Y-153252500D01*
X131197600Y-153252500D02*
X131197600Y-153582500D01*
X89257000Y-46386500D02*
X88927000Y-46386500D01*
X88927000Y-46386500D02*
X88927000Y-39846500D01*
X88927000Y-39846500D02*
X89257000Y-39846500D01*
X91337000Y-46386500D02*
X91667000Y-46386500D01*
X91667000Y-46386500D02*
X91667000Y-39846500D01*
X91667000Y-39846500D02*
X91337000Y-39846500D01*
X103561735Y-105958696D02*
X103561735Y-106288696D01*
X103561735Y-106288696D02*
X97021735Y-106288696D01*
X97021735Y-106288696D02*
X97021735Y-105958696D01*
X103561735Y-103878696D02*
X103561735Y-103548696D01*
X103561735Y-103548696D02*
X97021735Y-103548696D01*
X97021735Y-103548696D02*
X97021735Y-103878696D01*
X210844000Y-156115000D02*
X211174000Y-156115000D01*
X211174000Y-156115000D02*
X211174000Y-162655000D01*
X211174000Y-162655000D02*
X210844000Y-162655000D01*
X208764000Y-156115000D02*
X208434000Y-156115000D01*
X208434000Y-156115000D02*
X208434000Y-162655000D01*
X208434000Y-162655000D02*
X208764000Y-162655000D01*
X85998135Y-103954896D02*
X85998135Y-103624896D01*
X85998135Y-103624896D02*
X92538135Y-103624896D01*
X92538135Y-103624896D02*
X92538135Y-103954896D01*
X85998135Y-106034896D02*
X85998135Y-106364896D01*
X85998135Y-106364896D02*
X92538135Y-106364896D01*
X92538135Y-106364896D02*
X92538135Y-106034896D01*
X166240382Y-168225041D02*
X166240382Y-167895041D01*
X166240382Y-167895041D02*
X172780382Y-167895041D01*
X172780382Y-167895041D02*
X172780382Y-168225041D01*
X166240382Y-170305041D02*
X166240382Y-170635041D01*
X166240382Y-170635041D02*
X172780382Y-170635041D01*
X172780382Y-170635041D02*
X172780382Y-170305041D01*
X164763200Y-121956700D02*
X164763200Y-122286700D01*
X164763200Y-122286700D02*
X158223200Y-122286700D01*
X158223200Y-122286700D02*
X158223200Y-121956700D01*
X164763200Y-119876700D02*
X164763200Y-119546700D01*
X164763200Y-119546700D02*
X158223200Y-119546700D01*
X158223200Y-119546700D02*
X158223200Y-119876700D01*
X85998135Y-107333096D02*
X85998135Y-107003096D01*
X85998135Y-107003096D02*
X92538135Y-107003096D01*
X92538135Y-107003096D02*
X92538135Y-107333096D01*
X85998135Y-109413096D02*
X85998135Y-109743096D01*
X85998135Y-109743096D02*
X92538135Y-109743096D01*
X92538135Y-109743096D02*
X92538135Y-109413096D01*
X103536335Y-109387696D02*
X103536335Y-109717696D01*
X103536335Y-109717696D02*
X96996335Y-109717696D01*
X96996335Y-109717696D02*
X96996335Y-109387696D01*
X103536335Y-107307696D02*
X103536335Y-106977696D01*
X103536335Y-106977696D02*
X96996335Y-106977696D01*
X96996335Y-106977696D02*
X96996335Y-107307696D01*
X147313400Y-49236500D02*
X147313400Y-49566500D01*
X147313400Y-49566500D02*
X140773400Y-49566500D01*
X140773400Y-49566500D02*
X140773400Y-49236500D01*
X147313400Y-47156500D02*
X147313400Y-46826500D01*
X147313400Y-46826500D02*
X140773400Y-46826500D01*
X140773400Y-46826500D02*
X140773400Y-47156500D01*
X147288000Y-55611900D02*
X147288000Y-55941900D01*
X147288000Y-55941900D02*
X140748000Y-55941900D01*
X140748000Y-55941900D02*
X140748000Y-55611900D01*
X147288000Y-53531900D02*
X147288000Y-53201900D01*
X147288000Y-53201900D02*
X140748000Y-53201900D01*
X140748000Y-53201900D02*
X140748000Y-53531900D01*
X100687000Y-26066500D02*
X100357000Y-26066500D01*
X100357000Y-26066500D02*
X100357000Y-19526500D01*
X100357000Y-19526500D02*
X100687000Y-19526500D01*
X102767000Y-26066500D02*
X103097000Y-26066500D01*
X103097000Y-26066500D02*
X103097000Y-19526500D01*
X103097000Y-19526500D02*
X102767000Y-19526500D01*
X124771400Y-47918500D02*
X124771400Y-47588500D01*
X124771400Y-47588500D02*
X131311400Y-47588500D01*
X131311400Y-47588500D02*
X131311400Y-47918500D01*
X124771400Y-49998500D02*
X124771400Y-50328500D01*
X124771400Y-50328500D02*
X131311400Y-50328500D01*
X131311400Y-50328500D02*
X131311400Y-49998500D01*
X124746000Y-44514900D02*
X124746000Y-44184900D01*
X124746000Y-44184900D02*
X131286000Y-44184900D01*
X131286000Y-44184900D02*
X131286000Y-44514900D01*
X124746000Y-46594900D02*
X124746000Y-46924900D01*
X124746000Y-46924900D02*
X131286000Y-46924900D01*
X131286000Y-46924900D02*
X131286000Y-46594900D01*
X124695200Y-40882700D02*
X124695200Y-40552700D01*
X124695200Y-40552700D02*
X131235200Y-40552700D01*
X131235200Y-40552700D02*
X131235200Y-40882700D01*
X124695200Y-42962700D02*
X124695200Y-43292700D01*
X124695200Y-43292700D02*
X131235200Y-43292700D01*
X131235200Y-43292700D02*
X131235200Y-42962700D01*
X72104000Y-37235000D02*
X72104000Y-37565000D01*
X72104000Y-37565000D02*
X65564000Y-37565000D01*
X65564000Y-37565000D02*
X65564000Y-37235000D01*
X72104000Y-35155000D02*
X72104000Y-34825000D01*
X72104000Y-34825000D02*
X65564000Y-34825000D01*
X65564000Y-34825000D02*
X65564000Y-35155000D01*
X147364200Y-52513100D02*
X147364200Y-52843100D01*
X147364200Y-52843100D02*
X140824200Y-52843100D01*
X140824200Y-52843100D02*
X140824200Y-52513100D01*
X147364200Y-50433100D02*
X147364200Y-50103100D01*
X147364200Y-50103100D02*
X140824200Y-50103100D01*
X140824200Y-50103100D02*
X140824200Y-50433100D01*
X166394000Y-30385000D02*
X166724000Y-30385000D01*
X166724000Y-30385000D02*
X166724000Y-36925000D01*
X166724000Y-36925000D02*
X166394000Y-36925000D01*
X164314000Y-30385000D02*
X163984000Y-30385000D01*
X163984000Y-30385000D02*
X163984000Y-36925000D01*
X163984000Y-36925000D02*
X164314000Y-36925000D01*
X184372000Y-170318300D02*
X184372000Y-170648300D01*
X184372000Y-170648300D02*
X177832000Y-170648300D01*
X177832000Y-170648300D02*
X177832000Y-170318300D01*
X184372000Y-168238300D02*
X184372000Y-167908300D01*
X184372000Y-167908300D02*
X177832000Y-167908300D01*
X177832000Y-167908300D02*
X177832000Y-168238300D01*
D12*
X143375142Y-60607380D02*
X143041809Y-60131190D01*
X142803714Y-60607380D02*
X142803714Y-59607380D01*
X143184666Y-59607380D01*
X143279904Y-59655000D01*
X143327523Y-59702619D01*
X143375142Y-59797857D01*
X143375142Y-59940714D01*
X143327523Y-60035952D01*
X143279904Y-60083571D01*
X143184666Y-60131190D01*
X142803714Y-60131190D01*
X143756095Y-59702619D02*
X143803714Y-59655000D01*
X143898952Y-59607380D01*
X144137047Y-59607380D01*
X144232285Y-59655000D01*
X144279904Y-59702619D01*
X144327523Y-59797857D01*
X144327523Y-59893095D01*
X144279904Y-60035952D01*
X143708476Y-60607380D01*
X144327523Y-60607380D01*
X145279904Y-60607380D02*
X144708476Y-60607380D01*
X144994190Y-60607380D02*
X144994190Y-59607380D01*
X144898952Y-59750238D01*
X144803714Y-59845476D01*
X144708476Y-59893095D01*
X168489380Y-47180404D02*
X169298904Y-47180404D01*
X169394142Y-47132785D01*
X169441761Y-47085166D01*
X169489380Y-46989928D01*
X169489380Y-46799452D01*
X169441761Y-46704214D01*
X169394142Y-46656595D01*
X169298904Y-46608976D01*
X168489380Y-46608976D01*
X169489380Y-45608976D02*
X169489380Y-46180404D01*
X169489380Y-45894690D02*
X168489380Y-45894690D01*
X168632238Y-45989928D01*
X168727476Y-46085166D01*
X168775095Y-46180404D01*
X65321380Y-166544523D02*
X66035666Y-166544523D01*
X66178523Y-166592142D01*
X66273761Y-166687380D01*
X66321380Y-166830238D01*
X66321380Y-166925476D01*
X65416619Y-166115952D02*
X65369000Y-166068333D01*
X65321380Y-165973095D01*
X65321380Y-165735000D01*
X65369000Y-165639761D01*
X65416619Y-165592142D01*
X65511857Y-165544523D01*
X65607095Y-165544523D01*
X65749952Y-165592142D01*
X66321380Y-166163571D01*
X66321380Y-165544523D01*
X65321380Y-164925476D02*
X65321380Y-164830238D01*
X65369000Y-164735000D01*
X65416619Y-164687380D01*
X65511857Y-164639761D01*
X65702333Y-164592142D01*
X65940428Y-164592142D01*
X66130904Y-164639761D01*
X66226142Y-164687380D01*
X66273761Y-164735000D01*
X66321380Y-164830238D01*
X66321380Y-164925476D01*
X66273761Y-165020714D01*
X66226142Y-165068333D01*
X66130904Y-165115952D01*
X65940428Y-165163571D01*
X65702333Y-165163571D01*
X65511857Y-165115952D01*
X65416619Y-165068333D01*
X65369000Y-165020714D01*
X65321380Y-164925476D01*
X177379380Y-85788404D02*
X178188904Y-85788404D01*
X178284142Y-85740785D01*
X178331761Y-85693166D01*
X178379380Y-85597928D01*
X178379380Y-85407452D01*
X178331761Y-85312214D01*
X178284142Y-85264595D01*
X178188904Y-85216976D01*
X177379380Y-85216976D01*
X177474619Y-84788404D02*
X177427000Y-84740785D01*
X177379380Y-84645547D01*
X177379380Y-84407452D01*
X177427000Y-84312214D01*
X177474619Y-84264595D01*
X177569857Y-84216976D01*
X177665095Y-84216976D01*
X177807952Y-84264595D01*
X178379380Y-84836023D01*
X178379380Y-84216976D01*
X53467095Y-32294380D02*
X54038523Y-32294380D01*
X53752809Y-33294380D02*
X53752809Y-32294380D01*
X54324238Y-32389619D02*
X54371857Y-32342000D01*
X54467095Y-32294380D01*
X54705190Y-32294380D01*
X54800428Y-32342000D01*
X54848047Y-32389619D01*
X54895666Y-32484857D01*
X54895666Y-32580095D01*
X54848047Y-32722952D01*
X54276619Y-33294380D01*
X54895666Y-33294380D01*
X157607095Y-42454380D02*
X158178523Y-42454380D01*
X157892809Y-43454380D02*
X157892809Y-42454380D01*
X158416619Y-42454380D02*
X159035666Y-42454380D01*
X158702333Y-42835333D01*
X158845190Y-42835333D01*
X158940428Y-42882952D01*
X158988047Y-42930571D01*
X159035666Y-43025809D01*
X159035666Y-43263904D01*
X158988047Y-43359142D01*
X158940428Y-43406761D01*
X158845190Y-43454380D01*
X158559476Y-43454380D01*
X158464238Y-43406761D01*
X158416619Y-43359142D01*
X218781380Y-59229523D02*
X219495666Y-59229523D01*
X219638523Y-59277142D01*
X219733761Y-59372380D01*
X219781380Y-59515238D01*
X219781380Y-59610476D01*
X219781380Y-58229523D02*
X219781380Y-58800952D01*
X219781380Y-58515238D02*
X218781380Y-58515238D01*
X218924238Y-58610476D01*
X219019476Y-58705714D01*
X219067095Y-58800952D01*
X219781380Y-57277142D02*
X219781380Y-57848571D01*
X219781380Y-57562857D02*
X218781380Y-57562857D01*
X218924238Y-57658095D01*
X219019476Y-57753333D01*
X219067095Y-57848571D01*
X155789380Y-55308404D02*
X156598904Y-55308404D01*
X156694142Y-55260785D01*
X156741761Y-55213166D01*
X156789380Y-55117928D01*
X156789380Y-54927452D01*
X156741761Y-54832214D01*
X156694142Y-54784595D01*
X156598904Y-54736976D01*
X155789380Y-54736976D01*
X155789380Y-54356023D02*
X155789380Y-53736976D01*
X156170333Y-54070309D01*
X156170333Y-53927452D01*
X156217952Y-53832214D01*
X156265571Y-53784595D01*
X156360809Y-53736976D01*
X156598904Y-53736976D01*
X156694142Y-53784595D01*
X156741761Y-53832214D01*
X156789380Y-53927452D01*
X156789380Y-54213166D01*
X156741761Y-54308404D01*
X156694142Y-54356023D01*
X122896380Y-131447079D02*
X123610666Y-131447079D01*
X123753523Y-131494698D01*
X123848761Y-131589936D01*
X123896380Y-131732794D01*
X123896380Y-131828032D01*
X123896380Y-130447079D02*
X123896380Y-131018508D01*
X123896380Y-130732794D02*
X122896380Y-130732794D01*
X123039238Y-130828032D01*
X123134476Y-130923270D01*
X123182095Y-131018508D01*
X122896380Y-130113746D02*
X122896380Y-129447079D01*
X123896380Y-129875651D01*
X107267476Y-38758880D02*
X107267476Y-39473166D01*
X107219857Y-39616023D01*
X107124619Y-39711261D01*
X106981761Y-39758880D01*
X106886523Y-39758880D01*
X107696047Y-38854119D02*
X107743666Y-38806500D01*
X107838904Y-38758880D01*
X108077000Y-38758880D01*
X108172238Y-38806500D01*
X108219857Y-38854119D01*
X108267476Y-38949357D01*
X108267476Y-39044595D01*
X108219857Y-39187452D01*
X107648428Y-39758880D01*
X108267476Y-39758880D01*
X109219857Y-39758880D02*
X108648428Y-39758880D01*
X108934142Y-39758880D02*
X108934142Y-38758880D01*
X108838904Y-38901738D01*
X108743666Y-38996976D01*
X108648428Y-39044595D01*
X214463380Y-48196404D02*
X215272904Y-48196404D01*
X215368142Y-48148785D01*
X215415761Y-48101166D01*
X215463380Y-48005928D01*
X215463380Y-47815452D01*
X215415761Y-47720214D01*
X215368142Y-47672595D01*
X215272904Y-47624976D01*
X214463380Y-47624976D01*
X214463380Y-46672595D02*
X214463380Y-47148785D01*
X214939571Y-47196404D01*
X214891952Y-47148785D01*
X214844333Y-47053547D01*
X214844333Y-46815452D01*
X214891952Y-46720214D01*
X214939571Y-46672595D01*
X215034809Y-46624976D01*
X215272904Y-46624976D01*
X215368142Y-46672595D01*
X215415761Y-46720214D01*
X215463380Y-46815452D01*
X215463380Y-47053547D01*
X215415761Y-47148785D01*
X215368142Y-47196404D01*
X137112476Y-157503880D02*
X137112476Y-158218166D01*
X137064857Y-158361023D01*
X136969619Y-158456261D01*
X136826761Y-158503880D01*
X136731523Y-158503880D01*
X138112476Y-158503880D02*
X137541047Y-158503880D01*
X137826761Y-158503880D02*
X137826761Y-157503880D01*
X137731523Y-157646738D01*
X137636285Y-157741976D01*
X137541047Y-157789595D01*
X138588666Y-158503880D02*
X138779142Y-158503880D01*
X138874380Y-158456261D01*
X138922000Y-158408642D01*
X139017238Y-158265785D01*
X139064857Y-158075309D01*
X139064857Y-157694357D01*
X139017238Y-157599119D01*
X138969619Y-157551500D01*
X138874380Y-157503880D01*
X138683904Y-157503880D01*
X138588666Y-157551500D01*
X138541047Y-157599119D01*
X138493428Y-157694357D01*
X138493428Y-157932452D01*
X138541047Y-158027690D01*
X138588666Y-158075309D01*
X138683904Y-158122928D01*
X138874380Y-158122928D01*
X138969619Y-158075309D01*
X139017238Y-158027690D01*
X139064857Y-157932452D01*
X58848666Y-29075071D02*
X58515333Y-29075071D01*
X58515333Y-29598880D02*
X58515333Y-28598880D01*
X58991523Y-28598880D01*
X59896285Y-29598880D02*
X59324857Y-29598880D01*
X59610571Y-29598880D02*
X59610571Y-28598880D01*
X59515333Y-28741738D01*
X59420095Y-28836976D01*
X59324857Y-28884595D01*
X112950666Y-166457380D02*
X112950666Y-167171666D01*
X112903047Y-167314523D01*
X112807809Y-167409761D01*
X112664952Y-167457380D01*
X112569714Y-167457380D01*
X113855428Y-166457380D02*
X113664952Y-166457380D01*
X113569714Y-166505000D01*
X113522095Y-166552619D01*
X113426857Y-166695476D01*
X113379238Y-166885952D01*
X113379238Y-167266904D01*
X113426857Y-167362142D01*
X113474476Y-167409761D01*
X113569714Y-167457380D01*
X113760190Y-167457380D01*
X113855428Y-167409761D01*
X113903047Y-167362142D01*
X113950666Y-167266904D01*
X113950666Y-167028809D01*
X113903047Y-166933571D01*
X113855428Y-166885952D01*
X113760190Y-166838333D01*
X113569714Y-166838333D01*
X113474476Y-166885952D01*
X113426857Y-166933571D01*
X113379238Y-167028809D01*
X95909380Y-158488333D02*
X96623666Y-158488333D01*
X96766523Y-158535952D01*
X96861761Y-158631190D01*
X96909380Y-158774047D01*
X96909380Y-158869285D01*
X96004619Y-158059761D02*
X95957000Y-158012142D01*
X95909380Y-157916904D01*
X95909380Y-157678809D01*
X95957000Y-157583571D01*
X96004619Y-157535952D01*
X96099857Y-157488333D01*
X96195095Y-157488333D01*
X96337952Y-157535952D01*
X96909380Y-158107380D01*
X96909380Y-157488333D01*
X100564142Y-165226428D02*
X100564142Y-164083571D01*
X100564142Y-152226428D02*
X100564142Y-151083571D01*
X101135571Y-151655000D02*
X99992714Y-151655000D01*
X161059380Y-23343833D02*
X161773666Y-23343833D01*
X161916523Y-23391452D01*
X162011761Y-23486690D01*
X162059380Y-23629547D01*
X162059380Y-23724785D01*
X161059380Y-22391452D02*
X161059380Y-22867642D01*
X161535571Y-22915261D01*
X161487952Y-22867642D01*
X161440333Y-22772404D01*
X161440333Y-22534309D01*
X161487952Y-22439071D01*
X161535571Y-22391452D01*
X161630809Y-22343833D01*
X161868904Y-22343833D01*
X161964142Y-22391452D01*
X162011761Y-22439071D01*
X162059380Y-22534309D01*
X162059380Y-22772404D01*
X162011761Y-22867642D01*
X161964142Y-22915261D01*
X157714142Y-17081928D02*
X157714142Y-15939071D01*
X157714142Y-30081928D02*
X157714142Y-28939071D01*
X158285571Y-29510500D02*
X157142714Y-29510500D01*
X144549380Y-23343833D02*
X145263666Y-23343833D01*
X145406523Y-23391452D01*
X145501761Y-23486690D01*
X145549380Y-23629547D01*
X145549380Y-23724785D01*
X144882714Y-22439071D02*
X145549380Y-22439071D01*
X144501761Y-22677166D02*
X145216047Y-22915261D01*
X145216047Y-22296214D01*
X141204142Y-17081928D02*
X141204142Y-15939071D01*
X141204142Y-30081928D02*
X141204142Y-28939071D01*
X141775571Y-29510500D02*
X140632714Y-29510500D01*
X53109380Y-23089833D02*
X53823666Y-23089833D01*
X53966523Y-23137452D01*
X54061761Y-23232690D01*
X54109380Y-23375547D01*
X54109380Y-23470785D01*
X54109380Y-22089833D02*
X54109380Y-22661261D01*
X54109380Y-22375547D02*
X53109380Y-22375547D01*
X53252238Y-22470785D01*
X53347476Y-22566023D01*
X53395095Y-22661261D01*
X49764142Y-16827928D02*
X49764142Y-15685071D01*
X49764142Y-29827928D02*
X49764142Y-28685071D01*
X50335571Y-29256500D02*
X49192714Y-29256500D01*
X95019380Y-27701833D02*
X95733666Y-27701833D01*
X95876523Y-27749452D01*
X95971761Y-27844690D01*
X96019380Y-27987547D01*
X96019380Y-28082785D01*
X95019380Y-27320880D02*
X95019380Y-26701833D01*
X95400333Y-27035166D01*
X95400333Y-26892309D01*
X95447952Y-26797071D01*
X95495571Y-26749452D01*
X95590809Y-26701833D01*
X95828904Y-26701833D01*
X95924142Y-26749452D01*
X95971761Y-26797071D01*
X96019380Y-26892309D01*
X96019380Y-27178023D01*
X95971761Y-27273261D01*
X95924142Y-27320880D01*
X91674142Y-17081928D02*
X91674142Y-15939071D01*
X91674142Y-30081928D02*
X91674142Y-28939071D01*
X92245571Y-29510500D02*
X91102714Y-29510500D01*
X202966380Y-121239666D02*
X202490190Y-121573000D01*
X202966380Y-121811095D02*
X201966380Y-121811095D01*
X201966380Y-121430142D01*
X202014000Y-121334904D01*
X202061619Y-121287285D01*
X202156857Y-121239666D01*
X202299714Y-121239666D01*
X202394952Y-121287285D01*
X202442571Y-121334904D01*
X202490190Y-121430142D01*
X202490190Y-121811095D01*
X202871142Y-120239666D02*
X202918761Y-120287285D01*
X202966380Y-120430142D01*
X202966380Y-120525380D01*
X202918761Y-120668238D01*
X202823523Y-120763476D01*
X202728285Y-120811095D01*
X202537809Y-120858714D01*
X202394952Y-120858714D01*
X202204476Y-120811095D01*
X202109238Y-120763476D01*
X202014000Y-120668238D01*
X201966380Y-120525380D01*
X201966380Y-120430142D01*
X202014000Y-120287285D01*
X202061619Y-120239666D01*
X202061619Y-119858714D02*
X202014000Y-119811095D01*
X201966380Y-119715857D01*
X201966380Y-119477761D01*
X202014000Y-119382523D01*
X202061619Y-119334904D01*
X202156857Y-119287285D01*
X202252095Y-119287285D01*
X202394952Y-119334904D01*
X202966380Y-119906333D01*
X202966380Y-119287285D01*
X66444904Y-35440880D02*
X66444904Y-34440880D01*
X66683000Y-34440880D01*
X66825857Y-34488500D01*
X66921095Y-34583738D01*
X66968714Y-34678976D01*
X67016333Y-34869452D01*
X67016333Y-35012309D01*
X66968714Y-35202785D01*
X66921095Y-35298023D01*
X66825857Y-35393261D01*
X66683000Y-35440880D01*
X66444904Y-35440880D01*
X67968714Y-35440880D02*
X67397285Y-35440880D01*
X67683000Y-35440880D02*
X67683000Y-34440880D01*
X67587761Y-34583738D01*
X67492523Y-34678976D01*
X67397285Y-34726595D01*
X40219380Y-52816023D02*
X40933666Y-52816023D01*
X41076523Y-52863642D01*
X41171761Y-52958880D01*
X41219380Y-53101738D01*
X41219380Y-53196976D01*
X41219380Y-51816023D02*
X41219380Y-52387452D01*
X41219380Y-52101738D02*
X40219380Y-52101738D01*
X40362238Y-52196976D01*
X40457476Y-52292214D01*
X40505095Y-52387452D01*
X40219380Y-51196976D02*
X40219380Y-51101738D01*
X40267000Y-51006500D01*
X40314619Y-50958880D01*
X40409857Y-50911261D01*
X40600333Y-50863642D01*
X40838428Y-50863642D01*
X41028904Y-50911261D01*
X41124142Y-50958880D01*
X41171761Y-51006500D01*
X41219380Y-51101738D01*
X41219380Y-51196976D01*
X41171761Y-51292214D01*
X41124142Y-51339833D01*
X41028904Y-51387452D01*
X40838428Y-51435071D01*
X40600333Y-51435071D01*
X40409857Y-51387452D01*
X40314619Y-51339833D01*
X40267000Y-51292214D01*
X40219380Y-51196976D01*
X40219380Y-103616023D02*
X40933666Y-103616023D01*
X41076523Y-103663642D01*
X41171761Y-103758880D01*
X41219380Y-103901738D01*
X41219380Y-103996976D01*
X41219380Y-102616023D02*
X41219380Y-103187452D01*
X41219380Y-102901738D02*
X40219380Y-102901738D01*
X40362238Y-102996976D01*
X40457476Y-103092214D01*
X40505095Y-103187452D01*
X40219380Y-102282690D02*
X40219380Y-101663642D01*
X40600333Y-101996976D01*
X40600333Y-101854119D01*
X40647952Y-101758880D01*
X40695571Y-101711261D01*
X40790809Y-101663642D01*
X41028904Y-101663642D01*
X41124142Y-101711261D01*
X41171761Y-101758880D01*
X41219380Y-101854119D01*
X41219380Y-102139833D01*
X41171761Y-102235071D01*
X41124142Y-102282690D01*
X218654380Y-104409833D02*
X219368666Y-104409833D01*
X219511523Y-104457452D01*
X219606761Y-104552690D01*
X219654380Y-104695547D01*
X219654380Y-104790785D01*
X219082952Y-103790785D02*
X219035333Y-103886023D01*
X218987714Y-103933642D01*
X218892476Y-103981261D01*
X218844857Y-103981261D01*
X218749619Y-103933642D01*
X218702000Y-103886023D01*
X218654380Y-103790785D01*
X218654380Y-103600309D01*
X218702000Y-103505071D01*
X218749619Y-103457452D01*
X218844857Y-103409833D01*
X218892476Y-103409833D01*
X218987714Y-103457452D01*
X219035333Y-103505071D01*
X219082952Y-103600309D01*
X219082952Y-103790785D01*
X219130571Y-103886023D01*
X219178190Y-103933642D01*
X219273428Y-103981261D01*
X219463904Y-103981261D01*
X219559142Y-103933642D01*
X219606761Y-103886023D01*
X219654380Y-103790785D01*
X219654380Y-103600309D01*
X219606761Y-103505071D01*
X219559142Y-103457452D01*
X219463904Y-103409833D01*
X219273428Y-103409833D01*
X219178190Y-103457452D01*
X219130571Y-103505071D01*
X219082952Y-103600309D01*
X40219380Y-78216023D02*
X40933666Y-78216023D01*
X41076523Y-78263642D01*
X41171761Y-78358880D01*
X41219380Y-78501738D01*
X41219380Y-78596976D01*
X41219380Y-77216023D02*
X41219380Y-77787452D01*
X41219380Y-77501738D02*
X40219380Y-77501738D01*
X40362238Y-77596976D01*
X40457476Y-77692214D01*
X40505095Y-77787452D01*
X40552714Y-76358880D02*
X41219380Y-76358880D01*
X40171761Y-76596976D02*
X40886047Y-76835071D01*
X40886047Y-76216023D01*
X218654380Y-81549833D02*
X219368666Y-81549833D01*
X219511523Y-81597452D01*
X219606761Y-81692690D01*
X219654380Y-81835547D01*
X219654380Y-81930785D01*
X219654380Y-81026023D02*
X219654380Y-80835547D01*
X219606761Y-80740309D01*
X219559142Y-80692690D01*
X219416285Y-80597452D01*
X219225809Y-80549833D01*
X218844857Y-80549833D01*
X218749619Y-80597452D01*
X218702000Y-80645071D01*
X218654380Y-80740309D01*
X218654380Y-80930785D01*
X218702000Y-81026023D01*
X218749619Y-81073642D01*
X218844857Y-81121261D01*
X219082952Y-81121261D01*
X219178190Y-81073642D01*
X219225809Y-81026023D01*
X219273428Y-80930785D01*
X219273428Y-80740309D01*
X219225809Y-80645071D01*
X219178190Y-80597452D01*
X219082952Y-80549833D01*
X149334924Y-118839783D02*
X149287305Y-118887402D01*
X149144448Y-118935021D01*
X149049210Y-118935021D01*
X148906353Y-118887402D01*
X148811115Y-118792164D01*
X148763496Y-118696926D01*
X148715877Y-118506450D01*
X148715877Y-118363593D01*
X148763496Y-118173117D01*
X148811115Y-118077879D01*
X148906353Y-117982641D01*
X149049210Y-117935021D01*
X149144448Y-117935021D01*
X149287305Y-117982641D01*
X149334924Y-118030260D01*
X149715877Y-118030260D02*
X149763496Y-117982641D01*
X149858734Y-117935021D01*
X150096829Y-117935021D01*
X150192067Y-117982641D01*
X150239686Y-118030260D01*
X150287305Y-118125498D01*
X150287305Y-118220736D01*
X150239686Y-118363593D01*
X149668258Y-118935021D01*
X150287305Y-118935021D01*
X150906353Y-117935021D02*
X151001591Y-117935021D01*
X151096829Y-117982641D01*
X151144448Y-118030260D01*
X151192067Y-118125498D01*
X151239686Y-118315974D01*
X151239686Y-118554069D01*
X151192067Y-118744545D01*
X151144448Y-118839783D01*
X151096829Y-118887402D01*
X151001591Y-118935021D01*
X150906353Y-118935021D01*
X150811115Y-118887402D01*
X150763496Y-118839783D01*
X150715877Y-118744545D01*
X150668258Y-118554069D01*
X150668258Y-118315974D01*
X150715877Y-118125498D01*
X150763496Y-118030260D01*
X150811115Y-117982641D01*
X150906353Y-117935021D01*
X133824742Y-157349642D02*
X133777123Y-157397261D01*
X133634266Y-157444880D01*
X133539028Y-157444880D01*
X133396171Y-157397261D01*
X133300933Y-157302023D01*
X133253314Y-157206785D01*
X133205695Y-157016309D01*
X133205695Y-156873452D01*
X133253314Y-156682976D01*
X133300933Y-156587738D01*
X133396171Y-156492500D01*
X133539028Y-156444880D01*
X133634266Y-156444880D01*
X133777123Y-156492500D01*
X133824742Y-156540119D01*
X134777123Y-157444880D02*
X134205695Y-157444880D01*
X134491409Y-157444880D02*
X134491409Y-156444880D01*
X134396171Y-156587738D01*
X134300933Y-156682976D01*
X134205695Y-156730595D01*
X135253314Y-157444880D02*
X135443790Y-157444880D01*
X135539028Y-157397261D01*
X135586647Y-157349642D01*
X135681885Y-157206785D01*
X135729504Y-157016309D01*
X135729504Y-156635357D01*
X135681885Y-156540119D01*
X135634266Y-156492500D01*
X135539028Y-156444880D01*
X135348552Y-156444880D01*
X135253314Y-156492500D01*
X135205695Y-156540119D01*
X135158076Y-156635357D01*
X135158076Y-156873452D01*
X135205695Y-156968690D01*
X135253314Y-157016309D01*
X135348552Y-157063928D01*
X135539028Y-157063928D01*
X135634266Y-157016309D01*
X135681885Y-156968690D01*
X135729504Y-156873452D01*
X88284142Y-43283166D02*
X88331761Y-43330785D01*
X88379380Y-43473642D01*
X88379380Y-43568880D01*
X88331761Y-43711738D01*
X88236523Y-43806976D01*
X88141285Y-43854595D01*
X87950809Y-43902214D01*
X87807952Y-43902214D01*
X87617476Y-43854595D01*
X87522238Y-43806976D01*
X87427000Y-43711738D01*
X87379380Y-43568880D01*
X87379380Y-43473642D01*
X87427000Y-43330785D01*
X87474619Y-43283166D01*
X87379380Y-42949833D02*
X87379380Y-42330785D01*
X87760333Y-42664119D01*
X87760333Y-42521261D01*
X87807952Y-42426023D01*
X87855571Y-42378404D01*
X87950809Y-42330785D01*
X88188904Y-42330785D01*
X88284142Y-42378404D01*
X88331761Y-42426023D01*
X88379380Y-42521261D01*
X88379380Y-42806976D01*
X88331761Y-42902214D01*
X88284142Y-42949833D01*
X100125068Y-107645838D02*
X100077449Y-107693457D01*
X99934592Y-107741076D01*
X99839354Y-107741076D01*
X99696496Y-107693457D01*
X99601258Y-107598219D01*
X99553639Y-107502981D01*
X99506020Y-107312505D01*
X99506020Y-107169648D01*
X99553639Y-106979172D01*
X99601258Y-106883934D01*
X99696496Y-106788696D01*
X99839354Y-106741076D01*
X99934592Y-106741076D01*
X100077449Y-106788696D01*
X100125068Y-106836315D01*
X100982211Y-107074410D02*
X100982211Y-107741076D01*
X100744115Y-106693457D02*
X100506020Y-107407743D01*
X101125068Y-107407743D01*
X212531142Y-159551666D02*
X212578761Y-159599285D01*
X212626380Y-159742142D01*
X212626380Y-159837380D01*
X212578761Y-159980238D01*
X212483523Y-160075476D01*
X212388285Y-160123095D01*
X212197809Y-160170714D01*
X212054952Y-160170714D01*
X211864476Y-160123095D01*
X211769238Y-160075476D01*
X211674000Y-159980238D01*
X211626380Y-159837380D01*
X211626380Y-159742142D01*
X211674000Y-159599285D01*
X211721619Y-159551666D01*
X211626380Y-158646904D02*
X211626380Y-159123095D01*
X212102571Y-159170714D01*
X212054952Y-159123095D01*
X212007333Y-159027857D01*
X212007333Y-158789761D01*
X212054952Y-158694523D01*
X212102571Y-158646904D01*
X212197809Y-158599285D01*
X212435904Y-158599285D01*
X212531142Y-158646904D01*
X212578761Y-158694523D01*
X212626380Y-158789761D01*
X212626380Y-159027857D01*
X212578761Y-159123095D01*
X212531142Y-159170714D01*
X88625277Y-102982038D02*
X88577658Y-103029657D01*
X88434801Y-103077276D01*
X88339563Y-103077276D01*
X88196706Y-103029657D01*
X88101468Y-102934419D01*
X88053849Y-102839181D01*
X88006230Y-102648705D01*
X88006230Y-102505848D01*
X88053849Y-102315372D01*
X88101468Y-102220134D01*
X88196706Y-102124896D01*
X88339563Y-102077276D01*
X88434801Y-102077276D01*
X88577658Y-102124896D01*
X88625277Y-102172515D01*
X89577658Y-103077276D02*
X89006230Y-103077276D01*
X89291944Y-103077276D02*
X89291944Y-102077276D01*
X89196706Y-102220134D01*
X89101468Y-102315372D01*
X89006230Y-102362991D01*
X90196706Y-102077276D02*
X90291944Y-102077276D01*
X90387182Y-102124896D01*
X90434801Y-102172515D01*
X90482420Y-102267753D01*
X90530039Y-102458229D01*
X90530039Y-102696324D01*
X90482420Y-102886800D01*
X90434801Y-102982038D01*
X90387182Y-103029657D01*
X90291944Y-103077276D01*
X90196706Y-103077276D01*
X90101468Y-103029657D01*
X90053849Y-102982038D01*
X90006230Y-102886800D01*
X89958611Y-102696324D01*
X89958611Y-102458229D01*
X90006230Y-102267753D01*
X90053849Y-102172515D01*
X90101468Y-102124896D01*
X90196706Y-102077276D01*
X168867524Y-167252183D02*
X168819905Y-167299802D01*
X168677048Y-167347421D01*
X168581810Y-167347421D01*
X168438953Y-167299802D01*
X168343715Y-167204564D01*
X168296096Y-167109326D01*
X168248477Y-166918850D01*
X168248477Y-166775993D01*
X168296096Y-166585517D01*
X168343715Y-166490279D01*
X168438953Y-166395041D01*
X168581810Y-166347421D01*
X168677048Y-166347421D01*
X168819905Y-166395041D01*
X168867524Y-166442660D01*
X169819905Y-167347421D02*
X169248477Y-167347421D01*
X169534191Y-167347421D02*
X169534191Y-166347421D01*
X169438953Y-166490279D01*
X169343715Y-166585517D01*
X169248477Y-166633136D01*
X170153239Y-166347421D02*
X170772286Y-166347421D01*
X170438953Y-166728374D01*
X170581810Y-166728374D01*
X170677048Y-166775993D01*
X170724667Y-166823612D01*
X170772286Y-166918850D01*
X170772286Y-167156945D01*
X170724667Y-167252183D01*
X170677048Y-167299802D01*
X170581810Y-167347421D01*
X170296096Y-167347421D01*
X170200858Y-167299802D01*
X170153239Y-167252183D01*
X160850342Y-123643842D02*
X160802723Y-123691461D01*
X160659866Y-123739080D01*
X160564628Y-123739080D01*
X160421771Y-123691461D01*
X160326533Y-123596223D01*
X160278914Y-123500985D01*
X160231295Y-123310509D01*
X160231295Y-123167652D01*
X160278914Y-122977176D01*
X160326533Y-122881938D01*
X160421771Y-122786700D01*
X160564628Y-122739080D01*
X160659866Y-122739080D01*
X160802723Y-122786700D01*
X160850342Y-122834319D01*
X161802723Y-123739080D02*
X161231295Y-123739080D01*
X161517009Y-123739080D02*
X161517009Y-122739080D01*
X161421771Y-122881938D01*
X161326533Y-122977176D01*
X161231295Y-123024795D01*
X162707485Y-122739080D02*
X162231295Y-122739080D01*
X162183676Y-123215271D01*
X162231295Y-123167652D01*
X162326533Y-123120033D01*
X162564628Y-123120033D01*
X162659866Y-123167652D01*
X162707485Y-123215271D01*
X162755104Y-123310509D01*
X162755104Y-123548604D01*
X162707485Y-123643842D01*
X162659866Y-123691461D01*
X162564628Y-123739080D01*
X162326533Y-123739080D01*
X162231295Y-123691461D01*
X162183676Y-123643842D01*
X89101468Y-106360238D02*
X89053849Y-106407857D01*
X88910992Y-106455476D01*
X88815754Y-106455476D01*
X88672896Y-106407857D01*
X88577658Y-106312619D01*
X88530039Y-106217381D01*
X88482420Y-106026905D01*
X88482420Y-105884048D01*
X88530039Y-105693572D01*
X88577658Y-105598334D01*
X88672896Y-105503096D01*
X88815754Y-105455476D01*
X88910992Y-105455476D01*
X89053849Y-105503096D01*
X89101468Y-105550715D01*
X89482420Y-105550715D02*
X89530039Y-105503096D01*
X89625277Y-105455476D01*
X89863373Y-105455476D01*
X89958611Y-105503096D01*
X90006230Y-105550715D01*
X90053849Y-105645953D01*
X90053849Y-105741191D01*
X90006230Y-105884048D01*
X89434801Y-106455476D01*
X90053849Y-106455476D01*
X100099668Y-111074838D02*
X100052049Y-111122457D01*
X99909192Y-111170076D01*
X99813954Y-111170076D01*
X99671096Y-111122457D01*
X99575858Y-111027219D01*
X99528239Y-110931981D01*
X99480620Y-110741505D01*
X99480620Y-110598648D01*
X99528239Y-110408172D01*
X99575858Y-110312934D01*
X99671096Y-110217696D01*
X99813954Y-110170076D01*
X99909192Y-110170076D01*
X100052049Y-110217696D01*
X100099668Y-110265315D01*
X100575858Y-111170076D02*
X100766335Y-111170076D01*
X100861573Y-111122457D01*
X100909192Y-111074838D01*
X101004430Y-110931981D01*
X101052049Y-110741505D01*
X101052049Y-110360553D01*
X101004430Y-110265315D01*
X100956811Y-110217696D01*
X100861573Y-110170076D01*
X100671096Y-110170076D01*
X100575858Y-110217696D01*
X100528239Y-110265315D01*
X100480620Y-110360553D01*
X100480620Y-110598648D01*
X100528239Y-110693886D01*
X100575858Y-110741505D01*
X100671096Y-110789124D01*
X100861573Y-110789124D01*
X100956811Y-110741505D01*
X101004430Y-110693886D01*
X101052049Y-110598648D01*
X143400542Y-51018880D02*
X143067209Y-50542690D01*
X142829114Y-51018880D02*
X142829114Y-50018880D01*
X143210066Y-50018880D01*
X143305304Y-50066500D01*
X143352923Y-50114119D01*
X143400542Y-50209357D01*
X143400542Y-50352214D01*
X143352923Y-50447452D01*
X143305304Y-50495071D01*
X143210066Y-50542690D01*
X142829114Y-50542690D01*
X144352923Y-51018880D02*
X143781495Y-51018880D01*
X144067209Y-51018880D02*
X144067209Y-50018880D01*
X143971971Y-50161738D01*
X143876733Y-50256976D01*
X143781495Y-50304595D01*
X144971971Y-50018880D02*
X145067209Y-50018880D01*
X145162447Y-50066500D01*
X145210066Y-50114119D01*
X145257685Y-50209357D01*
X145305304Y-50399833D01*
X145305304Y-50637928D01*
X145257685Y-50828404D01*
X145210066Y-50923642D01*
X145162447Y-50971261D01*
X145067209Y-51018880D01*
X144971971Y-51018880D01*
X144876733Y-50971261D01*
X144829114Y-50923642D01*
X144781495Y-50828404D01*
X144733876Y-50637928D01*
X144733876Y-50399833D01*
X144781495Y-50209357D01*
X144829114Y-50114119D01*
X144876733Y-50066500D01*
X144971971Y-50018880D01*
X143851333Y-57394280D02*
X143518000Y-56918090D01*
X143279904Y-57394280D02*
X143279904Y-56394280D01*
X143660857Y-56394280D01*
X143756095Y-56441900D01*
X143803714Y-56489519D01*
X143851333Y-56584757D01*
X143851333Y-56727614D01*
X143803714Y-56822852D01*
X143756095Y-56870471D01*
X143660857Y-56918090D01*
X143279904Y-56918090D01*
X144422761Y-56822852D02*
X144327523Y-56775233D01*
X144279904Y-56727614D01*
X144232285Y-56632376D01*
X144232285Y-56584757D01*
X144279904Y-56489519D01*
X144327523Y-56441900D01*
X144422761Y-56394280D01*
X144613238Y-56394280D01*
X144708476Y-56441900D01*
X144756095Y-56489519D01*
X144803714Y-56584757D01*
X144803714Y-56632376D01*
X144756095Y-56727614D01*
X144708476Y-56775233D01*
X144613238Y-56822852D01*
X144422761Y-56822852D01*
X144327523Y-56870471D01*
X144279904Y-56918090D01*
X144232285Y-57013328D01*
X144232285Y-57203804D01*
X144279904Y-57299042D01*
X144327523Y-57346661D01*
X144422761Y-57394280D01*
X144613238Y-57394280D01*
X144708476Y-57346661D01*
X144756095Y-57299042D01*
X144803714Y-57203804D01*
X144803714Y-57013328D01*
X144756095Y-56918090D01*
X144708476Y-56870471D01*
X144613238Y-56822852D01*
X99809380Y-22963166D02*
X99333190Y-23296500D01*
X99809380Y-23534595D02*
X98809380Y-23534595D01*
X98809380Y-23153642D01*
X98857000Y-23058404D01*
X98904619Y-23010785D01*
X98999857Y-22963166D01*
X99142714Y-22963166D01*
X99237952Y-23010785D01*
X99285571Y-23058404D01*
X99333190Y-23153642D01*
X99333190Y-23534595D01*
X99809380Y-22010785D02*
X99809380Y-22582214D01*
X99809380Y-22296500D02*
X98809380Y-22296500D01*
X98952238Y-22391738D01*
X99047476Y-22486976D01*
X99095095Y-22582214D01*
X127874733Y-47040880D02*
X127541400Y-46564690D01*
X127303304Y-47040880D02*
X127303304Y-46040880D01*
X127684257Y-46040880D01*
X127779495Y-46088500D01*
X127827114Y-46136119D01*
X127874733Y-46231357D01*
X127874733Y-46374214D01*
X127827114Y-46469452D01*
X127779495Y-46517071D01*
X127684257Y-46564690D01*
X127303304Y-46564690D01*
X128255685Y-46136119D02*
X128303304Y-46088500D01*
X128398542Y-46040880D01*
X128636638Y-46040880D01*
X128731876Y-46088500D01*
X128779495Y-46136119D01*
X128827114Y-46231357D01*
X128827114Y-46326595D01*
X128779495Y-46469452D01*
X128208066Y-47040880D01*
X128827114Y-47040880D01*
X127849333Y-43637280D02*
X127516000Y-43161090D01*
X127277904Y-43637280D02*
X127277904Y-42637280D01*
X127658857Y-42637280D01*
X127754095Y-42684900D01*
X127801714Y-42732519D01*
X127849333Y-42827757D01*
X127849333Y-42970614D01*
X127801714Y-43065852D01*
X127754095Y-43113471D01*
X127658857Y-43161090D01*
X127277904Y-43161090D01*
X128182666Y-42637280D02*
X128801714Y-42637280D01*
X128468380Y-43018233D01*
X128611238Y-43018233D01*
X128706476Y-43065852D01*
X128754095Y-43113471D01*
X128801714Y-43208709D01*
X128801714Y-43446804D01*
X128754095Y-43542042D01*
X128706476Y-43589661D01*
X128611238Y-43637280D01*
X128325523Y-43637280D01*
X128230285Y-43589661D01*
X128182666Y-43542042D01*
X127798533Y-40005080D02*
X127465200Y-39528890D01*
X127227104Y-40005080D02*
X127227104Y-39005080D01*
X127608057Y-39005080D01*
X127703295Y-39052700D01*
X127750914Y-39100319D01*
X127798533Y-39195557D01*
X127798533Y-39338414D01*
X127750914Y-39433652D01*
X127703295Y-39481271D01*
X127608057Y-39528890D01*
X127227104Y-39528890D01*
X128655676Y-39338414D02*
X128655676Y-40005080D01*
X128417580Y-38957461D02*
X128179485Y-39671747D01*
X128798533Y-39671747D01*
X68667333Y-39017380D02*
X68334000Y-38541190D01*
X68095904Y-39017380D02*
X68095904Y-38017380D01*
X68476857Y-38017380D01*
X68572095Y-38065000D01*
X68619714Y-38112619D01*
X68667333Y-38207857D01*
X68667333Y-38350714D01*
X68619714Y-38445952D01*
X68572095Y-38493571D01*
X68476857Y-38541190D01*
X68095904Y-38541190D01*
X69524476Y-38017380D02*
X69334000Y-38017380D01*
X69238761Y-38065000D01*
X69191142Y-38112619D01*
X69095904Y-38255476D01*
X69048285Y-38445952D01*
X69048285Y-38826904D01*
X69095904Y-38922142D01*
X69143523Y-38969761D01*
X69238761Y-39017380D01*
X69429238Y-39017380D01*
X69524476Y-38969761D01*
X69572095Y-38922142D01*
X69619714Y-38826904D01*
X69619714Y-38588809D01*
X69572095Y-38493571D01*
X69524476Y-38445952D01*
X69429238Y-38398333D01*
X69238761Y-38398333D01*
X69143523Y-38445952D01*
X69095904Y-38493571D01*
X69048285Y-38588809D01*
X143927533Y-54295480D02*
X143594200Y-53819290D01*
X143356104Y-54295480D02*
X143356104Y-53295480D01*
X143737057Y-53295480D01*
X143832295Y-53343100D01*
X143879914Y-53390719D01*
X143927533Y-53485957D01*
X143927533Y-53628814D01*
X143879914Y-53724052D01*
X143832295Y-53771671D01*
X143737057Y-53819290D01*
X143356104Y-53819290D01*
X144403723Y-54295480D02*
X144594200Y-54295480D01*
X144689438Y-54247861D01*
X144737057Y-54200242D01*
X144832295Y-54057385D01*
X144879914Y-53866909D01*
X144879914Y-53485957D01*
X144832295Y-53390719D01*
X144784676Y-53343100D01*
X144689438Y-53295480D01*
X144498961Y-53295480D01*
X144403723Y-53343100D01*
X144356104Y-53390719D01*
X144308485Y-53485957D01*
X144308485Y-53724052D01*
X144356104Y-53819290D01*
X144403723Y-53866909D01*
X144498961Y-53914528D01*
X144689438Y-53914528D01*
X144784676Y-53866909D01*
X144832295Y-53819290D01*
X144879914Y-53724052D01*
X168176380Y-33821666D02*
X167700190Y-34155000D01*
X168176380Y-34393095D02*
X167176380Y-34393095D01*
X167176380Y-34012142D01*
X167224000Y-33916904D01*
X167271619Y-33869285D01*
X167366857Y-33821666D01*
X167509714Y-33821666D01*
X167604952Y-33869285D01*
X167652571Y-33916904D01*
X167700190Y-34012142D01*
X167700190Y-34393095D01*
X167176380Y-33488333D02*
X167176380Y-32821666D01*
X168176380Y-33250238D01*
X180459142Y-172005442D02*
X180411523Y-172053061D01*
X180268666Y-172100680D01*
X180173428Y-172100680D01*
X180030571Y-172053061D01*
X179935333Y-171957823D01*
X179887714Y-171862585D01*
X179840095Y-171672109D01*
X179840095Y-171529252D01*
X179887714Y-171338776D01*
X179935333Y-171243538D01*
X180030571Y-171148300D01*
X180173428Y-171100680D01*
X180268666Y-171100680D01*
X180411523Y-171148300D01*
X180459142Y-171195919D01*
X181411523Y-172100680D02*
X180840095Y-172100680D01*
X181125809Y-172100680D02*
X181125809Y-171100680D01*
X181030571Y-171243538D01*
X180935333Y-171338776D01*
X180840095Y-171386395D01*
X181744857Y-171100680D02*
X182411523Y-171100680D01*
X181982952Y-172100680D01*
M02*
