G04 #@! TF.GenerationSoftware,KiCad,Pcbnew,(5.1.10-1-10_14)*
G04 #@! TF.CreationDate,2022-06-07T22:38:41-07:00*
G04 #@! TF.ProjectId,Control_Boards,436f6e74-726f-46c5-9f42-6f617264732e,rev?*
G04 #@! TF.SameCoordinates,Original*
G04 #@! TF.FileFunction,Soldermask,Bot*
G04 #@! TF.FilePolarity,Negative*
%FSLAX46Y46*%
G04 Gerber Fmt 4.6, Leading zero omitted, Abs format (unit mm)*
G04 Created by KiCad (PCBNEW (5.1.10-1-10_14)) date 2022-06-07 22:38:41*
%MOMM*%
%LPD*%
G01*
G04 APERTURE LIST*
%ADD10O,1.600000X1.600000*%
%ADD11C,1.600000*%
%ADD12C,1.778000*%
%ADD13O,2.700000X1.760000*%
%ADD14O,3.500000X3.500000*%
%ADD15O,1.700000X1.700000*%
%ADD16R,1.700000X1.700000*%
%ADD17C,1.780000*%
%ADD18C,3.000000*%
%ADD19C,6.500000*%
%ADD20C,3.698499*%
%ADD21C,1.670000*%
%ADD22O,2.800000X1.760000*%
%ADD23R,1.000000X1.000000*%
%ADD24C,2.997200*%
%ADD25C,2.209800*%
%ADD26C,3.800000*%
%ADD27C,1.560000*%
%ADD28R,1.560000X1.560000*%
%ADD29C,3.400000*%
%ADD30R,1.778000X1.778000*%
%ADD31R,1.670000X1.670000*%
%ADD32R,1.524000X1.524000*%
%ADD33C,2.500000*%
%ADD34R,2.500000X2.500000*%
%ADD35R,4.000000X4.000000*%
%ADD36R,3.800000X3.800000*%
%ADD37C,1.550000*%
%ADD38R,1.550000X1.550000*%
G04 APERTURE END LIST*
D10*
X140208000Y-57785000D03*
D11*
X147828000Y-57785000D03*
D12*
X190627000Y-45656500D03*
X190627000Y-43116500D03*
X190627000Y-40576500D03*
X190627000Y-38036500D03*
X190627000Y-35496500D03*
X190627000Y-32956500D03*
X190627000Y-30416500D03*
X190627000Y-27876500D03*
D13*
X174117000Y-39306500D03*
X174117000Y-34226500D03*
D14*
X172847000Y-45656500D03*
X172847000Y-27876500D03*
D15*
X85979000Y-165735000D03*
X83439000Y-165735000D03*
X80899000Y-165735000D03*
X78359000Y-165735000D03*
X75819000Y-165735000D03*
X73279000Y-165735000D03*
X70739000Y-165735000D03*
D16*
X68199000Y-165735000D03*
D17*
X151257000Y-78676500D03*
X151257000Y-81216500D03*
X151257000Y-83756500D03*
X151257000Y-86296500D03*
X148717000Y-88836500D03*
X148717000Y-91376500D03*
X148717000Y-93916500D03*
X148717000Y-96456500D03*
X148717000Y-98996500D03*
D18*
X150377000Y-74506500D03*
X175777000Y-74506500D03*
X175777000Y-113306500D03*
X150377000Y-113306500D03*
D12*
X151257000Y-109156500D03*
X151257000Y-104076500D03*
X151257000Y-106616500D03*
X151257000Y-101536500D03*
D19*
X72644000Y-121285000D03*
X113919000Y-106680000D03*
X129794000Y-57785000D03*
X57404000Y-52070000D03*
D20*
X201277000Y-112186500D03*
X182245000Y-112186500D03*
X182245000Y-56324500D03*
X201277000Y-56324500D03*
D21*
X197993000Y-113474500D03*
X195453000Y-113474500D03*
X192913000Y-113474500D03*
X190373000Y-113474500D03*
X187833000Y-113474500D03*
X185293000Y-113474500D03*
D22*
X182397400Y-86804500D03*
X182397400Y-81724500D03*
D21*
X197993000Y-108394500D03*
X200533000Y-108394500D03*
X203073000Y-108394500D03*
X197993000Y-105854500D03*
X200533000Y-105854500D03*
X203073000Y-105854500D03*
X197993000Y-103314500D03*
X200533000Y-103314500D03*
X203073000Y-103314500D03*
X197993000Y-100774500D03*
X200533000Y-100774500D03*
X203073000Y-100774500D03*
X197993000Y-95694500D03*
X200533000Y-95694500D03*
X203073000Y-95694500D03*
X197993000Y-93154500D03*
X200533000Y-93154500D03*
X203073000Y-93154500D03*
X197993000Y-90614500D03*
X200533000Y-90614500D03*
X203073000Y-90614500D03*
X197993000Y-88074500D03*
X200533000Y-88074500D03*
X203073000Y-88074500D03*
X197993000Y-80454500D03*
X200533000Y-80454500D03*
X203073000Y-80454500D03*
X197993000Y-77914500D03*
X200533000Y-77914500D03*
X203073000Y-77914500D03*
X197993000Y-75374500D03*
X200533000Y-75374500D03*
X203073000Y-75374500D03*
X197993000Y-72834500D03*
X200533000Y-72834500D03*
X203073000Y-72834500D03*
X197993000Y-67754500D03*
X200533000Y-67754500D03*
X203073000Y-67754500D03*
X197993000Y-65214500D03*
X200533000Y-65214500D03*
X203073000Y-65214500D03*
X197993000Y-62674500D03*
X200533000Y-62674500D03*
X203073000Y-62674500D03*
X197993000Y-60134500D03*
X200533000Y-60134500D03*
X203073000Y-60134500D03*
D23*
X183769000Y-38735000D03*
X112014000Y-61595000D03*
X112014000Y-57150000D03*
D24*
X215493600Y-53715920D03*
X215493600Y-71521320D03*
D25*
X215950800Y-66822320D03*
X215950800Y-62621160D03*
X215950800Y-58420000D03*
X210439000Y-66822320D03*
X210439000Y-62621160D03*
X210439000Y-58420000D03*
D11*
X47715575Y-127854858D03*
X50255575Y-127854858D03*
X47715575Y-130394858D03*
X50255575Y-130394858D03*
X47715575Y-132934858D03*
X50255575Y-132934858D03*
X47715575Y-135474858D03*
X50255575Y-135474858D03*
X47715575Y-138014858D03*
X50255575Y-138014858D03*
X47715575Y-140554858D03*
X50255575Y-140554858D03*
X47715575Y-143094858D03*
X50255575Y-143094858D03*
X47715575Y-145634858D03*
X50255575Y-145634858D03*
X47715575Y-148174858D03*
X50255575Y-148174858D03*
X47715575Y-150714858D03*
X50255575Y-150714858D03*
X45175575Y-140554858D03*
X45175575Y-143094858D03*
X45175575Y-145634858D03*
X45175575Y-148174858D03*
X45175575Y-150714858D03*
D26*
X44445575Y-121094858D03*
X44445575Y-157543858D03*
X86990575Y-121094858D03*
X86990575Y-157543858D03*
D27*
X158877000Y-64706500D03*
X158877000Y-62166500D03*
X158877000Y-59626500D03*
X158877000Y-57086500D03*
D28*
X158877000Y-54546500D03*
D29*
X173107000Y-55576500D03*
X159907000Y-68776500D03*
D21*
X213614000Y-129540000D03*
X213614000Y-133040000D03*
X213614000Y-136540000D03*
X213614000Y-140040000D03*
X213614000Y-143540000D03*
X213614000Y-147040000D03*
X128524000Y-148391556D03*
X128524000Y-144891556D03*
X128524000Y-141391556D03*
X128524000Y-137891556D03*
X128524000Y-134391556D03*
X128524000Y-130891556D03*
X111379000Y-130810000D03*
X111379000Y-134310000D03*
X111379000Y-137810000D03*
X111379000Y-141310000D03*
X111379000Y-144810000D03*
X111379000Y-148310000D03*
D30*
X96647000Y-44386500D03*
D12*
X96647000Y-41846500D03*
X99187000Y-44386500D03*
X101727000Y-44386500D03*
X104267000Y-44386500D03*
X106807000Y-44386500D03*
X109347000Y-44386500D03*
X111887000Y-44386500D03*
X114427000Y-44386500D03*
X116967000Y-44386500D03*
X119507000Y-44386500D03*
X99187000Y-41846500D03*
X101727000Y-41846500D03*
X104267000Y-41846500D03*
X106807000Y-41846500D03*
X109347000Y-41846500D03*
X111887000Y-41846500D03*
X114427000Y-41846500D03*
X116967000Y-41846500D03*
X119507000Y-41846500D03*
D31*
X204597000Y-48196500D03*
D21*
X204597000Y-45656500D03*
X204597000Y-43116500D03*
X204597000Y-40576500D03*
X204597000Y-38036500D03*
X204597000Y-35496500D03*
X204597000Y-32956500D03*
X204597000Y-30416500D03*
X204597000Y-27876500D03*
X204597000Y-25336500D03*
X212097000Y-48196500D03*
X212097000Y-45656500D03*
X212097000Y-43116500D03*
X212097000Y-40576500D03*
X212097000Y-38036500D03*
X212097000Y-35496500D03*
X212097000Y-32956500D03*
X212097000Y-30416500D03*
X212097000Y-27876500D03*
X212097000Y-25336500D03*
X130937000Y-160591500D03*
X130937000Y-163131500D03*
X130937000Y-165671500D03*
X133477000Y-160591500D03*
X133477000Y-163131500D03*
X133477000Y-165671500D03*
X136017000Y-160591500D03*
X136017000Y-163131500D03*
X136017000Y-165671500D03*
X138557000Y-160591500D03*
D32*
X138557000Y-165671500D03*
D21*
X138557000Y-163131500D03*
D33*
X81277000Y-22796500D03*
X58677000Y-22796500D03*
D34*
X114554000Y-160655000D03*
D33*
X119634000Y-160655000D03*
D35*
X100457000Y-155655000D03*
D36*
X100457000Y-160655000D03*
X157607000Y-25510500D03*
X157607000Y-20510500D03*
D35*
X141097000Y-25510500D03*
D36*
X141097000Y-20510500D03*
X49657000Y-25256500D03*
X49657000Y-20256500D03*
D35*
X91567000Y-25510500D03*
D36*
X91567000Y-20510500D03*
D11*
X198914000Y-134395000D03*
X196374000Y-134395000D03*
X198914000Y-136935000D03*
X196374000Y-136935000D03*
X198914000Y-139475000D03*
X196374000Y-139475000D03*
X198914000Y-142015000D03*
X196374000Y-142015000D03*
X198914000Y-144555000D03*
X196374000Y-144555000D03*
X198914000Y-147095000D03*
X196374000Y-147095000D03*
X198914000Y-149635000D03*
X196374000Y-149635000D03*
X198914000Y-152175000D03*
X196374000Y-152175000D03*
X198914000Y-154715000D03*
X196374000Y-154715000D03*
X198914000Y-157255000D03*
X196374000Y-157255000D03*
X201454000Y-147095000D03*
X201454000Y-149635000D03*
X201454000Y-152175000D03*
X201454000Y-154715000D03*
X201454000Y-157255000D03*
D26*
X202184000Y-127635000D03*
X202184000Y-164084000D03*
X159639000Y-127635000D03*
X159639000Y-164084000D03*
D11*
X151056770Y-134312086D03*
X153596770Y-134312086D03*
X151056770Y-136852086D03*
X153596770Y-136852086D03*
X151056770Y-139392086D03*
X153596770Y-139392086D03*
X151056770Y-141932086D03*
X153596770Y-141932086D03*
X151056770Y-144472086D03*
X153596770Y-144472086D03*
X151056770Y-147012086D03*
X153596770Y-147012086D03*
X151056770Y-149552086D03*
X153596770Y-149552086D03*
X151056770Y-152092086D03*
X153596770Y-152092086D03*
X151056770Y-154632086D03*
X153596770Y-154632086D03*
X151056770Y-157172086D03*
X153596770Y-157172086D03*
X148516770Y-147012086D03*
X148516770Y-149552086D03*
X148516770Y-152092086D03*
X148516770Y-154632086D03*
X148516770Y-157172086D03*
D26*
X147786770Y-127552086D03*
X147786770Y-164001086D03*
X190331770Y-127552086D03*
X190331770Y-164001086D03*
D19*
X43434000Y-168275000D03*
X44704000Y-32385000D03*
X216789000Y-168275000D03*
X216789000Y-20955000D03*
D37*
X71167000Y-31686500D03*
D38*
X66167000Y-31686500D03*
D24*
X44602400Y-56710580D03*
X44602400Y-38905180D03*
D25*
X44145200Y-43604180D03*
X44145200Y-47805340D03*
X44145200Y-52006500D03*
X49657000Y-43604180D03*
X49657000Y-47805340D03*
X49657000Y-52006500D03*
D24*
X44602400Y-107510580D03*
X44602400Y-89705180D03*
D25*
X44145200Y-94404180D03*
X44145200Y-98605340D03*
X44145200Y-102806500D03*
X49657000Y-94404180D03*
X49657000Y-98605340D03*
X49657000Y-102806500D03*
D24*
X215366600Y-99372420D03*
X215366600Y-117177820D03*
D25*
X215823800Y-112478820D03*
X215823800Y-108277660D03*
X215823800Y-104076500D03*
X210312000Y-112478820D03*
X210312000Y-108277660D03*
X210312000Y-104076500D03*
D24*
X44602400Y-82110580D03*
X44602400Y-64305180D03*
D25*
X44145200Y-69004180D03*
X44145200Y-73205340D03*
X44145200Y-77406500D03*
X49657000Y-69004180D03*
X49657000Y-73205340D03*
X49657000Y-77406500D03*
D24*
X215366600Y-76512420D03*
X215366600Y-94317820D03*
D25*
X215823800Y-89618820D03*
X215823800Y-85417660D03*
X215823800Y-81216500D03*
X210312000Y-89618820D03*
X210312000Y-85417660D03*
X210312000Y-81216500D03*
D10*
X54940200Y-112585500D03*
D11*
X62560200Y-112585500D03*
D10*
X153787782Y-120852641D03*
D11*
X146167782Y-120852641D03*
D10*
X130657600Y-154622500D03*
D11*
X138277600Y-154622500D03*
D10*
X90297000Y-39306500D03*
D11*
X90297000Y-46926500D03*
D10*
X96481735Y-104918696D03*
D11*
X104101735Y-104918696D03*
D10*
X209804000Y-163195000D03*
D11*
X209804000Y-155575000D03*
D10*
X68097400Y-117640100D03*
D11*
X68097400Y-110020100D03*
D10*
X54965600Y-116268500D03*
D11*
X62585600Y-116268500D03*
D10*
X93078135Y-104994896D03*
D11*
X85458135Y-104994896D03*
D10*
X173320382Y-169265041D03*
D11*
X165700382Y-169265041D03*
D10*
X52273200Y-112585500D03*
D11*
X44653200Y-112585500D03*
D10*
X157683200Y-120916700D03*
D11*
X165303200Y-120916700D03*
D10*
X93078135Y-108373096D03*
D11*
X85458135Y-108373096D03*
D10*
X96456335Y-108347696D03*
D11*
X104076335Y-108347696D03*
D10*
X140233400Y-48196500D03*
D11*
X147853400Y-48196500D03*
D10*
X52349400Y-115938300D03*
D11*
X44729400Y-115938300D03*
D10*
X140208000Y-54571900D03*
D11*
X147828000Y-54571900D03*
D10*
X196842253Y-47430465D03*
D11*
X196842253Y-39810465D03*
D10*
X101727000Y-18986500D03*
D11*
X101727000Y-26606500D03*
D10*
X131851400Y-48958500D03*
D11*
X124231400Y-48958500D03*
D10*
X131826000Y-45554900D03*
D11*
X124206000Y-45554900D03*
D10*
X131775200Y-41922700D03*
D11*
X124155200Y-41922700D03*
D10*
X196842253Y-28380465D03*
D11*
X196842253Y-36000465D03*
D10*
X65024000Y-36195000D03*
D11*
X72644000Y-36195000D03*
D10*
X140284200Y-51473100D03*
D11*
X147904200Y-51473100D03*
D10*
X165354000Y-37465000D03*
D11*
X165354000Y-29845000D03*
D10*
X177292000Y-169278300D03*
D11*
X184912000Y-169278300D03*
M02*
