M48
; DRILL file {KiCad (5.1.10-1-10_14)} date Tuesday, June 07, 2022 at 10:40:08 PM
; FORMAT={-:-/ absolute / inch / decimal}
; #@! TF.CreationDate,2022-06-07T22:40:08-07:00
; #@! TF.GenerationSoftware,Kicad,Pcbnew,(5.1.10-1-10_14)
FMAT,2
INCH
T1C0.0157
T2C0.0315
T3C0.0354
T4C0.0394
T5C0.0400
T6C0.0402
T7C0.0417
T8C0.0512
T9C0.0570
T10C0.0591
T11C0.1063
T12C0.0858
T13C0.0984
T14C0.1000
T15C0.1142
T16C0.1180
T17C0.1181
T18C0.1496
%
G90
G05
T1
X1.6315Y-4.1
X1.81Y-4.65
X1.8378Y-4.6785
X1.96Y-4.65
X1.9878Y-4.6785
X2.11Y-2.425
X2.16Y-2.4
X2.2023Y-5.8577
X2.2156Y-2.3944
X2.2427Y-5.8173
X2.2559Y-2.4096
X2.26Y-3.1871
X2.26Y-3.85
X2.285Y-4.975
X2.2855Y-5.0149
X2.31Y-3.2
X2.31Y-3.85
X2.31Y-5.9535
X2.3322Y-5.8965
X2.36Y-3.2
X2.36Y-3.8
X2.36Y-5.925
X2.41Y-3.2
X2.41Y-3.775
X2.4533Y-3.752
X2.46Y-3.175
X2.4819Y-3.7138
X2.4845Y-5.8351
X2.485Y-5.875
X2.4885Y-3.1472
X2.5249Y-5.8755
X2.56Y-6.2
X2.5605Y-6.1601
X2.565Y-5.8757
X2.585Y-4.075
X2.6076Y-6.165
X2.635Y-4.025
X2.6427Y-6.1923
X2.6451Y-5.6995
X2.66Y-3.975
X2.685Y-3.925
X2.685Y-5.7
X2.6855Y-5.7399
X2.71Y-3.7817
X2.71Y-3.825
X2.71Y-3.875
X2.7316Y-5.7341
X2.748Y-3.7531
X2.9201Y-5.4245
X2.9568Y-4.6544
X2.96Y-5.425
X2.9601Y-5.5057
X2.9605Y-5.4649
X3.0265Y-4.6835
X3.035Y-1.425
X3.0497Y-4.73
X3.0544Y-4.6556
X3.06Y-5.05
X3.085Y-4.625
X3.0987Y-5.0363
X3.11Y-4.575
X3.1265Y-5.0085
X3.1544Y-4.9806
X3.1572Y-5.1722
X3.16Y-4.4
X3.16Y-4.55
X3.1836Y-5.2792
X3.185Y-4.95
X3.185Y-5.2
X3.1855Y-5.2399
X3.21Y-4.425
X3.21Y-4.525
X3.21Y-4.9
X3.235Y-4.325
X3.285Y-4.3
X3.31Y-4.225
X3.435Y-1.425
X3.51Y-5.275
X3.5244Y-3.5968
X3.535Y-5.225
X3.5572Y-3.6472
X3.56Y-3.9
X3.5622Y-3.6081
X3.585Y-3.675
X3.5878Y-3.9285
X3.5994Y-3.2847
X3.6144Y-2.6995
X3.6161Y-3.9571
X3.6279Y-3.2561
X3.655Y-2.6993
X3.6565Y-3.2278
X3.685Y-2.025
X3.685Y-3.2
X3.685Y-4.475
X3.685Y-4.525
X3.685Y-4.575
X3.685Y-4.625
X3.6951Y-2.6995
X3.735Y-2.7
X3.76Y-1.425
X3.772Y-6.6642
X3.81Y-6.6819
X3.86Y-2.4
X3.8779Y-2.45
X3.9065Y-2.3778
X3.9201Y-1.9995
X3.935Y-1.575
X3.935Y-2.35
X3.9516Y-5.7084
X3.96Y-2.0
X3.985Y-5.675
X3.9994Y-2.0
X4.035Y-3.9
X4.0387Y-2.0
X4.0628Y-3.9285
X4.0911Y-3.9571
X4.21Y-6.6819
X4.2551Y-6.6642
X4.285Y-3.825
X4.3337Y-3.7929
X4.3773Y-3.7923
X4.385Y-3.85
X4.585Y-5.1
X4.635Y-5.075
X4.81Y-5.25
X4.8513Y-2.2216
X4.86Y-5.225
X4.8779Y-2.2689
X4.9065Y-2.2972
X4.935Y-2.325
X4.96Y-1.725
X4.9921Y-2.4
X5.1345Y-2.8149
X5.135Y-2.775
X5.1523Y-2.8577
X5.1749Y-2.7745
X5.1944Y-5.1742
X5.2041Y-5.2189
X5.21Y-2.75
X5.2315Y-5.2472
X5.26Y-5.275
X5.2769Y-5.3204
X5.2992Y-5.3528
X5.306Y-5.3971
X5.3552Y-4.625
X5.3729Y-4.6636
X5.3801Y-3.5644
X5.3822Y-3.6215
X5.4015Y-4.6915
X5.41Y-3.65
X5.41Y-4.875
X5.41Y-5.025
X5.4133Y-3.5929
X5.4533Y-5.3
X5.471Y-5.2548
X5.4887Y-3.75
X5.5065Y-3.7093
X5.51Y-2.975
X5.51Y-5.775
X5.5104Y-5.2909
X5.535Y-3.6785
X5.5385Y-5.7472
X5.5659Y-5.7189
X5.574Y-5.674
X5.5744Y-3.6785
X5.585Y-6.4
X5.5917Y-5.6383
X5.6135Y-6.35
X5.6226Y-6.3883
X5.6236Y-5.6152
X5.6271Y-5.5667
X5.6294Y-4.5944
X5.6336Y-4.5498
X5.6352Y-6.4256
X5.6489Y-4.5094
X5.6557Y-5.5344
X5.66Y-4.625
X5.661Y-4.472
X5.6658Y-5.4519
X5.6722Y-5.4986
X5.685Y-4.675
X5.7156Y-4.7056
X5.735Y-6.6642
X5.7435Y-4.6778
X5.782Y-6.6575
X5.7908Y-4.7131
X5.8317Y-6.659
X5.8766Y-6.6545
X5.915Y-6.6636
X5.9301Y-6.3292
X5.9679Y-6.3616
X5.985Y-6.3
X6.01Y-6.3606
X6.035Y-3.675
X6.0494Y-6.3606
X6.0749Y-3.6745
X6.085Y-4.125
X6.0887Y-6.3606
X6.0957Y-3.6327
X6.1135Y-4.0972
X6.1304Y-3.614
X6.1421Y-4.0689
X6.1589Y-3.6531
X6.16Y-4.4
X6.1706Y-4.103
X6.185Y-4.45
X6.1992Y-4.068
X6.2071Y-4.5142
X6.2204Y-4.4758
X6.2619Y-4.5173
X6.3215Y-4.5115
X6.36Y-4.525
X6.3994Y-4.525
X6.435Y-3.925
X6.4387Y-4.525
X6.4635Y-4.3925
X6.4635Y-4.4319
X6.4674Y-4.4711
X6.4684Y-3.9584
X6.5206Y-4.3814
X6.5246Y-4.4206
X6.5298Y-4.0487
X6.5442Y-4.0092
X6.5608Y-3.9676
X6.5615Y-3.9265
X6.585Y-4.775
X6.5982Y-0.8981
X6.6096Y-4.1855
X6.61Y-5.625
X6.6111Y-4.1461
X6.613Y-4.7465
X6.6134Y-4.1034
X6.6181Y-4.0583
X6.623Y-4.013
X6.6412Y-4.719
X6.6425Y-0.8825
X6.646Y-1.0793
X6.6689Y-4.6904
X6.6703Y-0.9103
X6.6973Y-4.6632
X6.76Y-5.5
X6.808Y-0.8552
X6.86Y-6.525
X6.885Y-5.8
X6.885Y-6.3606
X6.91Y-5.35
X6.91Y-6.525
X6.9135Y-5.8278
X6.9244Y-6.3606
X6.9823Y-3.432
X6.9843Y-3.3534
X6.985Y-3.4713
X6.985Y-3.5106
X6.985Y-3.55
X6.9856Y-3.3927
X7.0485Y-5.1865
X7.0551Y-4.775
X7.0615Y-3.1515
X7.0894Y-3.1794
X7.2396Y-5.2315
X7.2446Y-5.2768
X7.2773Y-5.3327
X7.2908Y-5.3712
X7.335Y-2.75
X7.3518Y-2.8
X7.56Y-1.875
X7.56Y-2.15
X7.5877Y-3.4712
X7.5885Y-1.9028
X7.5956Y-2.125
X7.598Y-3.206
X7.6265Y-3.1722
X7.6265Y-3.4778
X7.635Y-2.125
X7.66Y-3.2
X7.66Y-3.45
X7.6935Y-4.025
X7.7175Y-3.9516
X7.7461Y-3.914
X7.785Y-3.8963
X7.835Y-0.8165
X7.835Y-1.025
X7.86Y-1.075
X7.898Y-1.0549
X7.9315Y-1.025
X7.935Y-0.85
X8.0815Y-4.0222
X8.0951Y-4.5755
X8.11Y-4.05
X8.1206Y-4.775
X8.1206Y-5.25
X8.1285Y-3.2987
X8.1315Y-3.6465
X8.135Y-4.575
X8.16Y-3.275
X8.16Y-4.775
X8.16Y-5.25
X8.1742Y-3.621
X8.235Y-3.85
X8.235Y-3.8894
T2
X1.758Y-4.4325
X1.761Y-4.5645
X2.058Y-4.4325
X2.061Y-4.5645
X2.163Y-4.4325
X2.164Y-4.5775
X2.463Y-4.4325
X2.464Y-4.5775
X2.56Y-1.425
X2.681Y-4.3315
X2.681Y-4.6315
X2.86Y-1.425
X3.3645Y-4.1337
X3.3645Y-4.2667
X3.555Y-1.5475
X3.555Y-1.8475
X3.6645Y-4.1337
X3.6645Y-4.2667
X3.7975Y-4.2657
X3.7985Y-4.1307
X4.005Y-0.7475
X4.005Y-1.0475
X4.0975Y-4.2657
X4.0985Y-4.1307
X4.888Y-1.6505
X4.89Y-1.7935
X4.891Y-1.9275
X5.144Y-6.0875
X5.188Y-1.6505
X5.19Y-1.7935
X5.191Y-1.9275
X5.444Y-6.0875
X5.52Y-2.1485
X5.52Y-2.275
X5.521Y-1.8975
X5.523Y-2.0265
X5.7546Y-4.758
X5.82Y-2.1485
X5.82Y-2.275
X5.821Y-1.8975
X5.823Y-2.0265
X6.0546Y-4.758
X6.208Y-4.7605
X6.508Y-4.7605
X6.51Y-1.175
X6.51Y-1.475
X6.5236Y-6.664
X6.8236Y-6.664
X6.98Y-6.6645
X7.28Y-6.6645
X7.7497Y-1.1173
X7.7497Y-1.4173
X7.7497Y-1.5673
X7.7497Y-1.8673
X8.26Y-6.125
X8.26Y-6.425
T3
X2.605Y-1.2475
X2.8019Y-1.2475
T4
X2.685Y-6.525
X2.785Y-6.525
X2.885Y-6.525
X2.985Y-6.525
X3.085Y-6.525
X3.185Y-6.525
X3.285Y-6.525
X3.385Y-6.525
X8.055Y-0.9975
X8.055Y-1.0975
X8.055Y-1.1975
X8.055Y-1.2975
X8.055Y-1.3975
X8.055Y-1.4975
X8.055Y-1.5975
X8.055Y-1.6975
X8.055Y-1.7975
X8.055Y-1.8975
X8.3503Y-0.9975
X8.3503Y-1.0975
X8.3503Y-1.1975
X8.3503Y-1.2975
X8.3503Y-1.3975
X8.3503Y-1.4975
X8.3503Y-1.5975
X8.3503Y-1.6975
X8.3503Y-1.7975
X8.3503Y-1.8975
T5
X3.805Y-1.6475
X3.805Y-1.7475
X3.905Y-1.6475
X3.905Y-1.7475
X4.005Y-1.6475
X4.005Y-1.7475
X4.105Y-1.6475
X4.105Y-1.7475
X4.205Y-1.6475
X4.205Y-1.7475
X4.305Y-1.6475
X4.305Y-1.7475
X4.405Y-1.6475
X4.405Y-1.7475
X4.505Y-1.6475
X4.505Y-1.7475
X4.605Y-1.6475
X4.605Y-1.7475
X4.705Y-1.6475
X4.705Y-1.7475
X5.955Y-3.9975
X5.955Y-4.0975
X5.955Y-4.1975
X5.955Y-4.2975
X7.505Y-1.0975
X7.505Y-1.1975
X7.505Y-1.2975
X7.505Y-1.3975
X7.505Y-1.4975
X7.505Y-1.5975
X7.505Y-1.6975
X7.505Y-1.7975
T6
X1.7786Y-5.5337
X1.7786Y-5.6337
X1.7786Y-5.7337
X1.7786Y-5.8337
X1.7786Y-5.9337
X1.8786Y-5.0337
X1.8786Y-5.1337
X1.8786Y-5.2337
X1.8786Y-5.3337
X1.8786Y-5.4337
X1.8786Y-5.5337
X1.8786Y-5.6337
X1.8786Y-5.7337
X1.8786Y-5.8337
X1.8786Y-5.9337
X1.9786Y-5.0337
X1.9786Y-5.1337
X1.9786Y-5.2337
X1.9786Y-5.3337
X1.9786Y-5.4337
X1.9786Y-5.5337
X1.9786Y-5.6337
X1.9786Y-5.7337
X1.9786Y-5.8337
X1.9786Y-5.9337
X4.385Y-5.15
X4.385Y-5.2878
X4.385Y-5.4256
X4.385Y-5.5634
X4.385Y-5.7012
X4.385Y-5.839
X5.06Y-5.1532
X5.06Y-5.291
X5.06Y-5.4288
X5.06Y-5.5666
X5.06Y-5.7044
X5.06Y-5.8422
X5.155Y-6.3225
X5.155Y-6.4225
X5.155Y-6.5225
X5.255Y-6.3225
X5.255Y-6.4225
X5.255Y-6.5225
X5.355Y-6.3225
X5.355Y-6.4225
X5.355Y-6.5225
X5.455Y-6.3225
X5.455Y-6.4225
X5.455Y-6.5225
X5.8471Y-5.7879
X5.8471Y-5.8879
X5.8471Y-5.9879
X5.8471Y-6.0879
X5.8471Y-6.1879
X5.9471Y-5.2879
X5.9471Y-5.3879
X5.9471Y-5.4879
X5.9471Y-5.5879
X5.9471Y-5.6879
X5.9471Y-5.7879
X5.9471Y-5.8879
X5.9471Y-5.9879
X5.9471Y-6.0879
X5.9471Y-6.1879
X6.0471Y-5.2879
X6.0471Y-5.3879
X6.0471Y-5.4879
X6.0471Y-5.5879
X6.0471Y-5.6879
X6.0471Y-5.7879
X6.0471Y-5.8879
X6.0471Y-5.9879
X6.0471Y-6.0879
X6.0471Y-6.1879
X6.255Y-2.1475
X6.255Y-2.2475
X6.255Y-2.3475
X6.255Y-2.4475
X6.255Y-2.5475
X7.295Y-4.4675
X7.395Y-4.4675
X7.495Y-4.4675
X7.595Y-4.4675
X7.695Y-4.4675
X7.7313Y-5.2911
X7.7313Y-5.3911
X7.7313Y-5.4911
X7.7313Y-5.5911
X7.7313Y-5.6911
X7.7313Y-5.7911
X7.7313Y-5.8911
X7.7313Y-5.9911
X7.7313Y-6.0911
X7.7313Y-6.1911
X7.795Y-2.3675
X7.795Y-2.4675
X7.795Y-2.5675
X7.795Y-2.6675
X7.795Y-2.8675
X7.795Y-2.9675
X7.795Y-3.0675
X7.795Y-3.1675
X7.795Y-3.4675
X7.795Y-3.5675
X7.795Y-3.6675
X7.795Y-3.7675
X7.795Y-3.9675
X7.795Y-4.0675
X7.795Y-4.1675
X7.795Y-4.2675
X7.795Y-4.4675
X7.8313Y-5.2911
X7.8313Y-5.3911
X7.8313Y-5.4911
X7.8313Y-5.5911
X7.8313Y-5.6911
X7.8313Y-5.7911
X7.8313Y-5.8911
X7.8313Y-5.9911
X7.8313Y-6.0911
X7.8313Y-6.1911
X7.895Y-2.3675
X7.895Y-2.4675
X7.895Y-2.5675
X7.895Y-2.6675
X7.895Y-2.8675
X7.895Y-2.9675
X7.895Y-3.0675
X7.895Y-3.1675
X7.895Y-3.4675
X7.895Y-3.5675
X7.895Y-3.6675
X7.895Y-3.7675
X7.895Y-3.9675
X7.895Y-4.0675
X7.895Y-4.1675
X7.895Y-4.2675
X7.9313Y-5.7911
X7.9313Y-5.8911
X7.9313Y-5.9911
X7.9313Y-6.0911
X7.9313Y-6.1911
X7.995Y-2.3675
X7.995Y-2.4675
X7.995Y-2.5675
X7.995Y-2.6675
X7.995Y-2.8675
X7.995Y-2.9675
X7.995Y-3.0675
X7.995Y-3.1675
X7.995Y-3.4675
X7.995Y-3.5675
X7.995Y-3.6675
X7.995Y-3.7675
X7.995Y-3.9675
X7.995Y-4.0675
X7.995Y-4.1675
X7.995Y-4.2675
X8.41Y-5.1
X8.41Y-5.2378
X8.41Y-5.3756
X8.41Y-5.5134
X8.41Y-5.6512
X8.41Y-5.789
T7
X5.855Y-3.4975
X5.855Y-3.5975
X5.855Y-3.6975
X5.855Y-3.7975
X5.855Y-3.8975
X5.955Y-3.0975
X5.955Y-3.1975
X5.955Y-3.2975
X5.955Y-3.3975
T8
X4.51Y-6.325
X4.71Y-6.325
X6.855Y-1.3475
X6.855Y-1.5475
X7.181Y-3.2175
X7.181Y-3.4175
T9
X1.738Y-1.7167
X1.738Y-1.8821
X1.738Y-2.0475
X1.738Y-2.7167
X1.738Y-2.8821
X1.738Y-3.0475
X1.738Y-3.7167
X1.738Y-3.8821
X1.738Y-4.0475
X1.955Y-1.7167
X1.955Y-1.8821
X1.955Y-2.0475
X1.955Y-2.7167
X1.955Y-2.8821
X1.955Y-3.0475
X1.955Y-3.7167
X1.955Y-3.8821
X1.955Y-4.0475
X8.28Y-3.1975
X8.28Y-3.3629
X8.28Y-3.5283
X8.28Y-4.0975
X8.28Y-4.2629
X8.28Y-4.4283
X8.285Y-2.3
X8.285Y-2.4654
X8.285Y-2.6308
X8.497Y-3.1975
X8.497Y-3.3629
X8.497Y-3.5283
X8.497Y-4.0975
X8.497Y-4.2629
X8.497Y-4.4283
X8.502Y-2.3
X8.502Y-2.4654
X8.502Y-2.6308
T10
X2.3101Y-0.8975
X3.1999Y-0.8975
T11
X1.955Y-0.7975
X1.955Y-0.9944
X3.605Y-0.8075
X3.605Y-1.0044
X3.955Y-6.1281
X3.955Y-6.325
X5.555Y-0.8075
X5.555Y-1.0044
X6.205Y-0.8075
X6.205Y-1.0044
T12
X6.2956Y-2.7077
X6.8152Y-2.1881
T13
X5.9204Y-2.9333
X5.9204Y-4.4609
X6.9204Y-2.9333
X6.9204Y-4.4609
T14
X6.805Y-1.0975
X6.805Y-1.7975
T15
X1.7498Y-4.7675
X1.7498Y-6.2025
X3.4248Y-4.7675
X3.4248Y-6.2025
X5.8184Y-5.0217
X5.8184Y-6.4567
X6.285Y-5.025
X6.285Y-6.46
X7.4934Y-5.0217
X7.4934Y-6.4567
X7.96Y-5.025
X7.96Y-6.46
T16
X1.756Y-1.5317
X1.756Y-2.2327
X1.756Y-2.5317
X1.756Y-3.2327
X1.756Y-3.5317
X1.756Y-4.2327
X8.479Y-3.0123
X8.479Y-3.7133
X8.479Y-3.9123
X8.479Y-4.6133
X8.484Y-2.1148
X8.484Y-2.8158
T17
X7.175Y-2.2175
X7.175Y-4.4168
X7.9243Y-2.2175
X7.9243Y-4.4168
T18
X1.71Y-6.625
X1.76Y-1.275
X2.26Y-2.05
X2.86Y-4.775
X4.485Y-4.2
X5.11Y-2.275
X8.535Y-0.825
X8.535Y-6.625
T0
M30
