G04 #@! TF.GenerationSoftware,KiCad,Pcbnew,(5.0.2)-1*
G04 #@! TF.CreationDate,2019-04-01T18:20:07-07:00*
G04 #@! TF.ProjectId,Arduino_uno_sheild,41726475-696e-46f5-9f75-6e6f5f736865,rev?*
G04 #@! TF.SameCoordinates,Original*
G04 #@! TF.FileFunction,Legend,Top*
G04 #@! TF.FilePolarity,Positive*
%FSLAX46Y46*%
G04 Gerber Fmt 4.6, Leading zero omitted, Abs format (unit mm)*
G04 Created by KiCad (PCBNEW (5.0.2)-1) date 4/1/2019 6:20:07 PM*
%MOMM*%
%LPD*%
G01*
G04 APERTURE LIST*
%ADD10C,0.100000*%
%ADD11C,0.150000*%
%ADD12C,0.120000*%
G04 APERTURE END LIST*
D10*
X17907071Y39808500D02*
X17835642Y39844214D01*
X17728500Y39844214D01*
X17621357Y39808500D01*
X17549928Y39737071D01*
X17514214Y39665642D01*
X17478500Y39522785D01*
X17478500Y39415642D01*
X17514214Y39272785D01*
X17549928Y39201357D01*
X17621357Y39129928D01*
X17728500Y39094214D01*
X17799928Y39094214D01*
X17907071Y39129928D01*
X17942785Y39165642D01*
X17942785Y39415642D01*
X17799928Y39415642D01*
X18264214Y39094214D02*
X18264214Y39844214D01*
X18692785Y39094214D01*
X18692785Y39844214D01*
X19049928Y39094214D02*
X19049928Y39844214D01*
X19228500Y39844214D01*
X19335642Y39808500D01*
X19407071Y39737071D01*
X19442785Y39665642D01*
X19478500Y39522785D01*
X19478500Y39415642D01*
X19442785Y39272785D01*
X19407071Y39201357D01*
X19335642Y39129928D01*
X19228500Y39094214D01*
X19049928Y39094214D01*
X18018142Y37812214D02*
X17661000Y37812214D01*
X17625285Y37455071D01*
X17661000Y37490785D01*
X17732428Y37526500D01*
X17911000Y37526500D01*
X17982428Y37490785D01*
X18018142Y37455071D01*
X18053857Y37383642D01*
X18053857Y37205071D01*
X18018142Y37133642D01*
X17982428Y37097928D01*
X17911000Y37062214D01*
X17732428Y37062214D01*
X17661000Y37097928D01*
X17625285Y37133642D01*
X18268142Y37812214D02*
X18518142Y37062214D01*
X18768142Y37812214D01*
X23622071Y8033100D02*
X23550642Y8068814D01*
X23443500Y8068814D01*
X23336357Y8033100D01*
X23264928Y7961671D01*
X23229214Y7890242D01*
X23193500Y7747385D01*
X23193500Y7640242D01*
X23229214Y7497385D01*
X23264928Y7425957D01*
X23336357Y7354528D01*
X23443500Y7318814D01*
X23514928Y7318814D01*
X23622071Y7354528D01*
X23657785Y7390242D01*
X23657785Y7640242D01*
X23514928Y7640242D01*
X23979214Y7318814D02*
X23979214Y8068814D01*
X24407785Y7318814D01*
X24407785Y8068814D01*
X24764928Y7318814D02*
X24764928Y8068814D01*
X24943500Y8068814D01*
X25050642Y8033100D01*
X25122071Y7961671D01*
X25157785Y7890242D01*
X25193500Y7747385D01*
X25193500Y7640242D01*
X25157785Y7497385D01*
X25122071Y7425957D01*
X25050642Y7354528D01*
X24943500Y7318814D01*
X24764928Y7318814D01*
X23149857Y4525514D02*
X23614142Y4525514D01*
X23364142Y4239800D01*
X23471285Y4239800D01*
X23542714Y4204085D01*
X23578428Y4168371D01*
X23614142Y4096942D01*
X23614142Y3918371D01*
X23578428Y3846942D01*
X23542714Y3811228D01*
X23471285Y3775514D01*
X23257000Y3775514D01*
X23185571Y3811228D01*
X23149857Y3846942D01*
X23935571Y3846942D02*
X23971285Y3811228D01*
X23935571Y3775514D01*
X23899857Y3811228D01*
X23935571Y3846942D01*
X23935571Y3775514D01*
X24221285Y4525514D02*
X24685571Y4525514D01*
X24435571Y4239800D01*
X24542714Y4239800D01*
X24614142Y4204085D01*
X24649857Y4168371D01*
X24685571Y4096942D01*
X24685571Y3918371D01*
X24649857Y3846942D01*
X24614142Y3811228D01*
X24542714Y3775514D01*
X24328428Y3775514D01*
X24257000Y3811228D01*
X24221285Y3846942D01*
X24899857Y4525514D02*
X25149857Y3775514D01*
X25399857Y4525514D01*
X23542642Y6303514D02*
X23185500Y6303514D01*
X23149785Y5946371D01*
X23185500Y5982085D01*
X23256928Y6017800D01*
X23435500Y6017800D01*
X23506928Y5982085D01*
X23542642Y5946371D01*
X23578357Y5874942D01*
X23578357Y5696371D01*
X23542642Y5624942D01*
X23506928Y5589228D01*
X23435500Y5553514D01*
X23256928Y5553514D01*
X23185500Y5589228D01*
X23149785Y5624942D01*
X23792642Y6303514D02*
X24042642Y5553514D01*
X24292642Y6303514D01*
X8115371Y35998500D02*
X8043942Y36034214D01*
X7936800Y36034214D01*
X7829657Y35998500D01*
X7758228Y35927071D01*
X7722514Y35855642D01*
X7686800Y35712785D01*
X7686800Y35605642D01*
X7722514Y35462785D01*
X7758228Y35391357D01*
X7829657Y35319928D01*
X7936800Y35284214D01*
X8008228Y35284214D01*
X8115371Y35319928D01*
X8151085Y35355642D01*
X8151085Y35605642D01*
X8008228Y35605642D01*
X8472514Y35284214D02*
X8472514Y36034214D01*
X8901085Y35284214D01*
X8901085Y36034214D01*
X9258228Y35284214D02*
X9258228Y36034214D01*
X9436800Y36034214D01*
X9543942Y35998500D01*
X9615371Y35927071D01*
X9651085Y35855642D01*
X9686800Y35712785D01*
X9686800Y35605642D01*
X9651085Y35462785D01*
X9615371Y35391357D01*
X9543942Y35319928D01*
X9436800Y35284214D01*
X9258228Y35284214D01*
X8162942Y38002714D02*
X7805800Y38002714D01*
X7770085Y37645571D01*
X7805800Y37681285D01*
X7877228Y37717000D01*
X8055800Y37717000D01*
X8127228Y37681285D01*
X8162942Y37645571D01*
X8198657Y37574142D01*
X8198657Y37395571D01*
X8162942Y37324142D01*
X8127228Y37288428D01*
X8055800Y37252714D01*
X7877228Y37252714D01*
X7805800Y37288428D01*
X7770085Y37324142D01*
X8412942Y38002714D02*
X8662942Y37252714D01*
X8912942Y38002714D01*
X8095514Y39157714D02*
X7666942Y39157714D01*
X7881228Y39157714D02*
X7881228Y39907714D01*
X7809800Y39800571D01*
X7738371Y39729142D01*
X7666942Y39693428D01*
X8381228Y39836285D02*
X8416942Y39872000D01*
X8488371Y39907714D01*
X8666942Y39907714D01*
X8738371Y39872000D01*
X8774085Y39836285D01*
X8809800Y39764857D01*
X8809800Y39693428D01*
X8774085Y39586285D01*
X8345514Y39157714D01*
X8809800Y39157714D01*
X9024085Y39907714D02*
X9274085Y39157714D01*
X9524085Y39907714D01*
X12547695Y12285600D02*
X12452457Y12333219D01*
X12309600Y12333219D01*
X12166742Y12285600D01*
X12071504Y12190361D01*
X12023885Y12095123D01*
X11976266Y11904647D01*
X11976266Y11761790D01*
X12023885Y11571314D01*
X12071504Y11476076D01*
X12166742Y11380838D01*
X12309600Y11333219D01*
X12404838Y11333219D01*
X12547695Y11380838D01*
X12595314Y11428457D01*
X12595314Y11761790D01*
X12404838Y11761790D01*
X13023885Y11333219D02*
X13023885Y12333219D01*
X13595314Y11333219D01*
X13595314Y12333219D01*
X14071504Y11333219D02*
X14071504Y12333219D01*
X14309600Y12333219D01*
X14452457Y12285600D01*
X14547695Y12190361D01*
X14595314Y12095123D01*
X14642933Y11904647D01*
X14642933Y11761790D01*
X14595314Y11571314D01*
X14547695Y11476076D01*
X14452457Y11380838D01*
X14309600Y11333219D01*
X14071504Y11333219D01*
X15681485Y11917371D02*
X16443390Y11917371D01*
X16062438Y11536419D02*
X16062438Y12298323D01*
X17395771Y12536419D02*
X16919580Y12536419D01*
X16871961Y12060228D01*
X16919580Y12107847D01*
X17014819Y12155466D01*
X17252914Y12155466D01*
X17348152Y12107847D01*
X17395771Y12060228D01*
X17443390Y11964990D01*
X17443390Y11726895D01*
X17395771Y11631657D01*
X17348152Y11584038D01*
X17252914Y11536419D01*
X17014819Y11536419D01*
X16919580Y11584038D01*
X16871961Y11631657D01*
X17729104Y12536419D02*
X18062438Y11536419D01*
X18395771Y12536419D01*
X11976552Y20007219D02*
X11500361Y20007219D01*
X11500361Y21007219D01*
X12309885Y20531028D02*
X12643219Y20531028D01*
X12786076Y20007219D02*
X12309885Y20007219D01*
X12309885Y21007219D01*
X12786076Y21007219D01*
X13214647Y20007219D02*
X13214647Y21007219D01*
X13452742Y21007219D01*
X13595600Y20959600D01*
X13690838Y20864361D01*
X13738457Y20769123D01*
X13786076Y20578647D01*
X13786076Y20435790D01*
X13738457Y20245314D01*
X13690838Y20150076D01*
X13595600Y20054838D01*
X13452742Y20007219D01*
X13214647Y20007219D01*
X14976552Y20007219D02*
X14976552Y21007219D01*
X15309885Y20292933D01*
X15643219Y21007219D01*
X15643219Y20007219D01*
X16071790Y20292933D02*
X16547980Y20292933D01*
X15976552Y20007219D02*
X16309885Y21007219D01*
X16643219Y20007219D01*
X16833695Y21007219D02*
X17405123Y21007219D01*
X17119409Y20007219D02*
X17119409Y21007219D01*
X18309885Y20007219D02*
X17976552Y20483409D01*
X17738457Y20007219D02*
X17738457Y21007219D01*
X18119409Y21007219D01*
X18214647Y20959600D01*
X18262266Y20911980D01*
X18309885Y20816742D01*
X18309885Y20673885D01*
X18262266Y20578647D01*
X18214647Y20531028D01*
X18119409Y20483409D01*
X17738457Y20483409D01*
X18738457Y20007219D02*
X18738457Y21007219D01*
X19119409Y21007219D02*
X19786076Y20007219D01*
X19786076Y21007219D02*
X19119409Y20007219D01*
X13286076Y18407219D02*
X13286076Y19407219D01*
X13667028Y19407219D01*
X13762266Y19359600D01*
X13809885Y19311980D01*
X13857504Y19216742D01*
X13857504Y19073885D01*
X13809885Y18978647D01*
X13762266Y18931028D01*
X13667028Y18883409D01*
X13286076Y18883409D01*
X14476552Y19407219D02*
X14667028Y19407219D01*
X14762266Y19359600D01*
X14857504Y19264361D01*
X14905123Y19073885D01*
X14905123Y18740552D01*
X14857504Y18550076D01*
X14762266Y18454838D01*
X14667028Y18407219D01*
X14476552Y18407219D01*
X14381314Y18454838D01*
X14286076Y18550076D01*
X14238457Y18740552D01*
X14238457Y19073885D01*
X14286076Y19264361D01*
X14381314Y19359600D01*
X14476552Y19407219D01*
X15238457Y19407219D02*
X15476552Y18407219D01*
X15667028Y19121504D01*
X15857504Y18407219D01*
X16095600Y19407219D01*
X16476552Y18931028D02*
X16809885Y18931028D01*
X16952742Y18407219D02*
X16476552Y18407219D01*
X16476552Y19407219D01*
X16952742Y19407219D01*
X17952742Y18407219D02*
X17619409Y18883409D01*
X17381314Y18407219D02*
X17381314Y19407219D01*
X17762266Y19407219D01*
X17857504Y19359600D01*
X17905123Y19311980D01*
X17952742Y19216742D01*
X17952742Y19073885D01*
X17905123Y18978647D01*
X17857504Y18931028D01*
X17762266Y18883409D01*
X17381314Y18883409D01*
X7351733Y20985219D02*
X7018400Y21461409D01*
X6780304Y20985219D02*
X6780304Y21985219D01*
X7161257Y21985219D01*
X7256495Y21937600D01*
X7304114Y21889980D01*
X7351733Y21794742D01*
X7351733Y21651885D01*
X7304114Y21556647D01*
X7256495Y21509028D01*
X7161257Y21461409D01*
X6780304Y21461409D01*
X7685066Y21985219D02*
X8351733Y20985219D01*
X8351733Y21985219D02*
X7685066Y20985219D01*
X7429523Y17972019D02*
X6953333Y17972019D01*
X6905714Y17495828D01*
X6953333Y17543447D01*
X7048571Y17591066D01*
X7286666Y17591066D01*
X7381904Y17543447D01*
X7429523Y17495828D01*
X7477142Y17400590D01*
X7477142Y17162495D01*
X7429523Y17067257D01*
X7381904Y17019638D01*
X7286666Y16972019D01*
X7048571Y16972019D01*
X6953333Y17019638D01*
X6905714Y17067257D01*
X7762857Y17972019D02*
X8096190Y16972019D01*
X8429523Y17972019D01*
X7051752Y15092419D02*
X6480323Y15092419D01*
X6766038Y15092419D02*
X6766038Y16092419D01*
X6670800Y15949561D01*
X6575561Y15854323D01*
X6480323Y15806704D01*
X7432704Y15997180D02*
X7480323Y16044800D01*
X7575561Y16092419D01*
X7813657Y16092419D01*
X7908895Y16044800D01*
X7956514Y15997180D01*
X8004133Y15901942D01*
X8004133Y15806704D01*
X7956514Y15663847D01*
X7385085Y15092419D01*
X8004133Y15092419D01*
X8289847Y16092419D02*
X8623180Y15092419D01*
X8956514Y16092419D01*
X7213695Y20108800D02*
X7118457Y20156419D01*
X6975599Y20156419D01*
X6832742Y20108800D01*
X6737504Y20013561D01*
X6689885Y19918323D01*
X6642266Y19727847D01*
X6642266Y19584990D01*
X6689885Y19394514D01*
X6737504Y19299276D01*
X6832742Y19204038D01*
X6975599Y19156419D01*
X7070838Y19156419D01*
X7213695Y19204038D01*
X7261314Y19251657D01*
X7261314Y19584990D01*
X7070838Y19584990D01*
X7689885Y19156419D02*
X7689885Y20156419D01*
X8261314Y19156419D01*
X8261314Y20156419D01*
X8737504Y19156419D02*
X8737504Y20156419D01*
X8975600Y20156419D01*
X9118457Y20108800D01*
X9213695Y20013561D01*
X9261314Y19918323D01*
X9308933Y19727847D01*
X9308933Y19584990D01*
X9261314Y19394514D01*
X9213695Y19299276D01*
X9118457Y19204038D01*
X8975600Y19156419D01*
X8737504Y19156419D01*
X6604095Y23814019D02*
X7175523Y23814019D01*
X6889809Y22814019D02*
X6889809Y23814019D01*
X7413619Y23814019D02*
X8080285Y22814019D01*
X8080285Y23814019D02*
X7413619Y22814019D01*
X59285166Y11922214D02*
X59285166Y12398404D01*
X59570880Y11826976D02*
X58570880Y12160309D01*
X59570880Y12493642D01*
X58570880Y13303166D02*
X58570880Y12826976D01*
X59047071Y12779357D01*
X58999452Y12826976D01*
X58951833Y12922214D01*
X58951833Y13160309D01*
X58999452Y13255547D01*
X59047071Y13303166D01*
X59142309Y13350785D01*
X59380404Y13350785D01*
X59475642Y13303166D01*
X59523261Y13255547D01*
X59570880Y13160309D01*
X59570880Y12922214D01*
X59523261Y12826976D01*
X59475642Y12779357D01*
X56745166Y11922214D02*
X56745166Y12398404D01*
X57030880Y11826976D02*
X56030880Y12160309D01*
X57030880Y12493642D01*
X56364214Y13255547D02*
X57030880Y13255547D01*
X55983261Y13017452D02*
X56697547Y12779357D01*
X56697547Y13398404D01*
X54078166Y11922214D02*
X54078166Y12398404D01*
X54363880Y11826976D02*
X53363880Y12160309D01*
X54363880Y12493642D01*
X53363880Y12731738D02*
X53363880Y13350785D01*
X53744833Y13017452D01*
X53744833Y13160309D01*
X53792452Y13255547D01*
X53840071Y13303166D01*
X53935309Y13350785D01*
X54173404Y13350785D01*
X54268642Y13303166D01*
X54316261Y13255547D01*
X54363880Y13160309D01*
X54363880Y12874595D01*
X54316261Y12779357D01*
X54268642Y12731738D01*
X50871500Y12573095D02*
X50823880Y12477857D01*
X50823880Y12335000D01*
X50871500Y12192142D01*
X50966738Y12096904D01*
X51061976Y12049285D01*
X51252452Y12001666D01*
X51395309Y12001666D01*
X51585785Y12049285D01*
X51681023Y12096904D01*
X51776261Y12192142D01*
X51823880Y12335000D01*
X51823880Y12430238D01*
X51776261Y12573095D01*
X51728642Y12620714D01*
X51395309Y12620714D01*
X51395309Y12430238D01*
X51823880Y13049285D02*
X50823880Y13049285D01*
X51823880Y13620714D01*
X50823880Y13620714D01*
X51823880Y14096904D02*
X50823880Y14096904D01*
X50823880Y14335000D01*
X50871500Y14477857D01*
X50966738Y14573095D01*
X51061976Y14620714D01*
X51252452Y14668333D01*
X51395309Y14668333D01*
X51585785Y14620714D01*
X51681023Y14573095D01*
X51776261Y14477857D01*
X51823880Y14335000D01*
X51823880Y14096904D01*
X49299761Y12144523D02*
X49347380Y12287380D01*
X49347380Y12525476D01*
X49299761Y12620714D01*
X49252142Y12668333D01*
X49156904Y12715952D01*
X49061666Y12715952D01*
X48966428Y12668333D01*
X48918809Y12620714D01*
X48871190Y12525476D01*
X48823571Y12335000D01*
X48775952Y12239761D01*
X48728333Y12192142D01*
X48633095Y12144523D01*
X48537857Y12144523D01*
X48442619Y12192142D01*
X48395000Y12239761D01*
X48347380Y12335000D01*
X48347380Y12573095D01*
X48395000Y12715952D01*
X49252142Y13715952D02*
X49299761Y13668333D01*
X49347380Y13525476D01*
X49347380Y13430238D01*
X49299761Y13287380D01*
X49204523Y13192142D01*
X49109285Y13144523D01*
X48918809Y13096904D01*
X48775952Y13096904D01*
X48585476Y13144523D01*
X48490238Y13192142D01*
X48395000Y13287380D01*
X48347380Y13430238D01*
X48347380Y13525476D01*
X48395000Y13668333D01*
X48442619Y13715952D01*
X49347380Y14620714D02*
X49347380Y14144523D01*
X48347380Y14144523D01*
X46696261Y11930214D02*
X46743880Y12073071D01*
X46743880Y12311166D01*
X46696261Y12406404D01*
X46648642Y12454023D01*
X46553404Y12501642D01*
X46458166Y12501642D01*
X46362928Y12454023D01*
X46315309Y12406404D01*
X46267690Y12311166D01*
X46220071Y12120690D01*
X46172452Y12025452D01*
X46124833Y11977833D01*
X46029595Y11930214D01*
X45934357Y11930214D01*
X45839119Y11977833D01*
X45791500Y12025452D01*
X45743880Y12120690D01*
X45743880Y12358785D01*
X45791500Y12501642D01*
X46743880Y12930214D02*
X45743880Y12930214D01*
X45743880Y13168309D01*
X45791500Y13311166D01*
X45886738Y13406404D01*
X45981976Y13454023D01*
X46172452Y13501642D01*
X46315309Y13501642D01*
X46505785Y13454023D01*
X46601023Y13406404D01*
X46696261Y13311166D01*
X46743880Y13168309D01*
X46743880Y12930214D01*
X46458166Y13882595D02*
X46458166Y14358785D01*
X46743880Y13787357D02*
X45743880Y14120690D01*
X46743880Y14454023D01*
X40140000Y12446095D02*
X40092380Y12350857D01*
X40092380Y12208000D01*
X40140000Y12065142D01*
X40235238Y11969904D01*
X40330476Y11922285D01*
X40520952Y11874666D01*
X40663809Y11874666D01*
X40854285Y11922285D01*
X40949523Y11969904D01*
X41044761Y12065142D01*
X41092380Y12208000D01*
X41092380Y12303238D01*
X41044761Y12446095D01*
X40997142Y12493714D01*
X40663809Y12493714D01*
X40663809Y12303238D01*
X41092380Y12922285D02*
X40092380Y12922285D01*
X41092380Y13493714D01*
X40092380Y13493714D01*
X41092380Y13969904D02*
X40092380Y13969904D01*
X40092380Y14208000D01*
X40140000Y14350857D01*
X40235238Y14446095D01*
X40330476Y14493714D01*
X40520952Y14541333D01*
X40663809Y14541333D01*
X40854285Y14493714D01*
X40949523Y14446095D01*
X41044761Y14350857D01*
X41092380Y14208000D01*
X41092380Y13969904D01*
X37679380Y12573023D02*
X37679380Y12096833D01*
X38155571Y12049214D01*
X38107952Y12096833D01*
X38060333Y12192071D01*
X38060333Y12430166D01*
X38107952Y12525404D01*
X38155571Y12573023D01*
X38250809Y12620642D01*
X38488904Y12620642D01*
X38584142Y12573023D01*
X38631761Y12525404D01*
X38679380Y12430166D01*
X38679380Y12192071D01*
X38631761Y12096833D01*
X38584142Y12049214D01*
X37679380Y12906357D02*
X38679380Y13239690D01*
X37679380Y13573023D01*
X35075880Y11985809D02*
X35075880Y12604857D01*
X35456833Y12271523D01*
X35456833Y12414380D01*
X35504452Y12509619D01*
X35552071Y12557238D01*
X35647309Y12604857D01*
X35885404Y12604857D01*
X35980642Y12557238D01*
X36028261Y12509619D01*
X36075880Y12414380D01*
X36075880Y12128666D01*
X36028261Y12033428D01*
X35980642Y11985809D01*
X35980642Y13033428D02*
X36028261Y13081047D01*
X36075880Y13033428D01*
X36028261Y12985809D01*
X35980642Y13033428D01*
X36075880Y13033428D01*
X35075880Y13414380D02*
X35075880Y14033428D01*
X35456833Y13700095D01*
X35456833Y13842952D01*
X35504452Y13938190D01*
X35552071Y13985809D01*
X35647309Y14033428D01*
X35885404Y14033428D01*
X35980642Y13985809D01*
X36028261Y13938190D01*
X36075880Y13842952D01*
X36075880Y13557238D01*
X36028261Y13462000D01*
X35980642Y13414380D01*
X35075880Y14319142D02*
X36075880Y14652476D01*
X35075880Y14985809D01*
X33535880Y12454119D02*
X33059690Y12120785D01*
X33535880Y11882690D02*
X32535880Y11882690D01*
X32535880Y12263642D01*
X32583500Y12358880D01*
X32631119Y12406500D01*
X32726357Y12454119D01*
X32869214Y12454119D01*
X32964452Y12406500D01*
X33012071Y12358880D01*
X33059690Y12263642D01*
X33059690Y11882690D01*
X33012071Y12882690D02*
X33012071Y13216023D01*
X33535880Y13358880D02*
X33535880Y12882690D01*
X32535880Y12882690D01*
X32535880Y13358880D01*
X33488261Y13739833D02*
X33535880Y13882690D01*
X33535880Y14120785D01*
X33488261Y14216023D01*
X33440642Y14263642D01*
X33345404Y14311261D01*
X33250166Y14311261D01*
X33154928Y14263642D01*
X33107309Y14216023D01*
X33059690Y14120785D01*
X33012071Y13930309D01*
X32964452Y13835071D01*
X32916833Y13787452D01*
X32821595Y13739833D01*
X32726357Y13739833D01*
X32631119Y13787452D01*
X32583500Y13835071D01*
X32535880Y13930309D01*
X32535880Y14168404D01*
X32583500Y14311261D01*
X33012071Y14739833D02*
X33012071Y15073166D01*
X33535880Y15216023D02*
X33535880Y14739833D01*
X32535880Y14739833D01*
X32535880Y15216023D01*
X32535880Y15501738D02*
X32535880Y16073166D01*
X33535880Y15787452D02*
X32535880Y15787452D01*
X30932380Y11874738D02*
X29932380Y11874738D01*
X29932380Y12541404D02*
X29932380Y12731880D01*
X29980000Y12827119D01*
X30075238Y12922357D01*
X30265714Y12969976D01*
X30599047Y12969976D01*
X30789523Y12922357D01*
X30884761Y12827119D01*
X30932380Y12731880D01*
X30932380Y12541404D01*
X30884761Y12446166D01*
X30789523Y12350928D01*
X30599047Y12303309D01*
X30265714Y12303309D01*
X30075238Y12350928D01*
X29980000Y12446166D01*
X29932380Y12541404D01*
X30932380Y13969976D02*
X30456190Y13636642D01*
X30932380Y13398547D02*
X29932380Y13398547D01*
X29932380Y13779500D01*
X29980000Y13874738D01*
X30027619Y13922357D01*
X30122857Y13969976D01*
X30265714Y13969976D01*
X30360952Y13922357D01*
X30408571Y13874738D01*
X30456190Y13779500D01*
X30456190Y13398547D01*
X30408571Y14398547D02*
X30408571Y14731880D01*
X30932380Y14874738D02*
X30932380Y14398547D01*
X29932380Y14398547D01*
X29932380Y14874738D01*
X30408571Y15636642D02*
X30408571Y15303309D01*
X30932380Y15303309D02*
X29932380Y15303309D01*
X29932380Y15779500D01*
X48337010Y38588803D02*
X48146533Y38588803D01*
X48051295Y38636423D01*
X47956057Y38731661D01*
X47908438Y38922137D01*
X47908438Y39255470D01*
X47956057Y39445946D01*
X48051295Y39541184D01*
X48146533Y39588803D01*
X48337010Y39588803D01*
X48432248Y39541184D01*
X48527486Y39445946D01*
X48575105Y39255470D01*
X48575105Y38922137D01*
X48527486Y38731661D01*
X48432248Y38636423D01*
X48337010Y38588803D01*
X47479867Y39064994D02*
X47146533Y39064994D01*
X47003676Y39588803D02*
X47479867Y39588803D01*
X47479867Y38588803D01*
X47003676Y38588803D01*
X47991638Y37136342D02*
X48039257Y37183961D01*
X48182114Y37231580D01*
X48277352Y37231580D01*
X48420209Y37183961D01*
X48515447Y37088723D01*
X48563066Y36993485D01*
X48610685Y36803009D01*
X48610685Y36660152D01*
X48563066Y36469676D01*
X48515447Y36374438D01*
X48420209Y36279200D01*
X48277352Y36231580D01*
X48182114Y36231580D01*
X48039257Y36279200D01*
X47991638Y36326819D01*
X47086876Y37231580D02*
X47563066Y37231580D01*
X47563066Y36231580D01*
X46753542Y37231580D02*
X46753542Y36231580D01*
X46182114Y37231580D02*
X46610685Y36660152D01*
X46182114Y36231580D02*
X46753542Y36803009D01*
X47848167Y34642165D02*
X47895786Y34689784D01*
X48038643Y34737403D01*
X48133881Y34737403D01*
X48276738Y34689784D01*
X48371976Y34594546D01*
X48419595Y34499308D01*
X48467214Y34308832D01*
X48467214Y34165975D01*
X48419595Y33975499D01*
X48371976Y33880261D01*
X48276738Y33785023D01*
X48133881Y33737403D01*
X48038643Y33737403D01*
X47895786Y33785023D01*
X47848167Y33832642D01*
X48395786Y31848189D02*
X47919595Y31848189D01*
X48491024Y32133903D02*
X48157691Y31133903D01*
X47824357Y32133903D01*
X48181452Y29120894D02*
X48038595Y29168513D01*
X47990976Y29216132D01*
X47943357Y29311370D01*
X47943357Y29454227D01*
X47990976Y29549465D01*
X48038595Y29597084D01*
X48133833Y29644703D01*
X48514786Y29644703D01*
X48514786Y28644703D01*
X48181452Y28644703D01*
X48086214Y28692323D01*
X48038595Y28739942D01*
X47990976Y28835180D01*
X47990976Y28930418D01*
X48038595Y29025656D01*
X48086214Y29073275D01*
X48181452Y29120894D01*
X48514786Y29120894D01*
X47562405Y28739942D02*
X47514786Y28692323D01*
X47419548Y28644703D01*
X47181452Y28644703D01*
X47086214Y28692323D01*
X47038595Y28739942D01*
X46990976Y28835180D01*
X46990976Y28930418D01*
X47038595Y29073275D01*
X47610024Y29644703D01*
X46990976Y29644703D01*
X48006857Y27041203D02*
X48340191Y26565013D01*
X48578286Y27041203D02*
X48578286Y26041203D01*
X48197333Y26041203D01*
X48102095Y26088823D01*
X48054476Y26136442D01*
X48006857Y26231680D01*
X48006857Y26374537D01*
X48054476Y26469775D01*
X48102095Y26517394D01*
X48197333Y26565013D01*
X48578286Y26565013D01*
X47625905Y26136442D02*
X47578286Y26088823D01*
X47483048Y26041203D01*
X47244952Y26041203D01*
X47149714Y26088823D01*
X47102095Y26136442D01*
X47054476Y26231680D01*
X47054476Y26326918D01*
X47102095Y26469775D01*
X47673524Y27041203D01*
X47054476Y27041203D01*
X48181452Y23913894D02*
X48038595Y23961513D01*
X47990976Y24009132D01*
X47943357Y24104370D01*
X47943357Y24247227D01*
X47990976Y24342465D01*
X48038595Y24390084D01*
X48133833Y24437703D01*
X48514786Y24437703D01*
X48514786Y23437703D01*
X48181452Y23437703D01*
X48086214Y23485323D01*
X48038595Y23532942D01*
X47990976Y23628180D01*
X47990976Y23723418D01*
X48038595Y23818656D01*
X48086214Y23866275D01*
X48181452Y23913894D01*
X48514786Y23913894D01*
X46990976Y24437703D02*
X47562405Y24437703D01*
X47276691Y24437703D02*
X47276691Y23437703D01*
X47371929Y23580561D01*
X47467167Y23675799D01*
X47562405Y23723418D01*
X47943357Y21961203D02*
X48276691Y21485013D01*
X48514786Y21961203D02*
X48514786Y20961203D01*
X48133833Y20961203D01*
X48038595Y21008823D01*
X47990976Y21056442D01*
X47943357Y21151680D01*
X47943357Y21294537D01*
X47990976Y21389775D01*
X48038595Y21437394D01*
X48133833Y21485013D01*
X48514786Y21485013D01*
X46990976Y21961203D02*
X47562405Y21961203D01*
X47276691Y21961203D02*
X47276691Y20961203D01*
X47371929Y21104061D01*
X47467167Y21199299D01*
X47562405Y21246918D01*
X61987895Y39055523D02*
X62083133Y39007903D01*
X62225991Y39007903D01*
X62368848Y39055523D01*
X62464086Y39150761D01*
X62511705Y39245999D01*
X62559324Y39436475D01*
X62559324Y39579332D01*
X62511705Y39769808D01*
X62464086Y39865046D01*
X62368848Y39960284D01*
X62225991Y40007903D01*
X62130752Y40007903D01*
X61987895Y39960284D01*
X61940276Y39912665D01*
X61940276Y39579332D01*
X62130752Y39579332D01*
X61511705Y40007903D02*
X61511705Y39007903D01*
X60940276Y40007903D01*
X60940276Y39007903D01*
X60464086Y40007903D02*
X60464086Y39007903D01*
X60225991Y39007903D01*
X60083133Y39055523D01*
X59987895Y39150761D01*
X59940276Y39245999D01*
X59892657Y39436475D01*
X59892657Y39579332D01*
X59940276Y39769808D01*
X59987895Y39865046D01*
X60083133Y39960284D01*
X60225991Y40007903D01*
X60464086Y40007903D01*
X61979991Y37404403D02*
X62456181Y37404403D01*
X62456181Y36404403D01*
X61694276Y37118689D02*
X61218086Y37118689D01*
X61789514Y37404403D02*
X61456181Y36404403D01*
X61122848Y37404403D01*
X60932371Y36404403D02*
X60360943Y36404403D01*
X60646657Y37404403D02*
X60646657Y36404403D01*
X61860895Y33848523D02*
X61956133Y33800903D01*
X62098991Y33800903D01*
X62241848Y33848523D01*
X62337086Y33943761D01*
X62384705Y34038999D01*
X62432324Y34229475D01*
X62432324Y34372332D01*
X62384705Y34562808D01*
X62337086Y34658046D01*
X62241848Y34753284D01*
X62098991Y34800903D01*
X62003752Y34800903D01*
X61860895Y34753284D01*
X61813276Y34705665D01*
X61813276Y34372332D01*
X62003752Y34372332D01*
X61384705Y34800903D02*
X61384705Y33800903D01*
X60813276Y34800903D01*
X60813276Y33800903D01*
X60337086Y34800903D02*
X60337086Y33800903D01*
X60098991Y33800903D01*
X59956133Y33848523D01*
X59860895Y33943761D01*
X59813276Y34038999D01*
X59765657Y34229475D01*
X59765657Y34372332D01*
X59813276Y34562808D01*
X59860895Y34658046D01*
X59956133Y34753284D01*
X60098991Y34800903D01*
X60337086Y34800903D01*
X60214762Y31698994D02*
X60071905Y31746613D01*
X60024286Y31794232D01*
X59976667Y31889470D01*
X59976667Y32032327D01*
X60024286Y32127565D01*
X60071905Y32175184D01*
X60167143Y32222803D01*
X60548095Y32222803D01*
X60548095Y31222803D01*
X60214762Y31222803D01*
X60119524Y31270423D01*
X60071905Y31318042D01*
X60024286Y31413280D01*
X60024286Y31508518D01*
X60071905Y31603756D01*
X60119524Y31651375D01*
X60214762Y31698994D01*
X60548095Y31698994D01*
X61860895Y28832023D02*
X61956133Y28784403D01*
X62098991Y28784403D01*
X62241848Y28832023D01*
X62337086Y28927261D01*
X62384705Y29022499D01*
X62432324Y29212975D01*
X62432324Y29355832D01*
X62384705Y29546308D01*
X62337086Y29641546D01*
X62241848Y29736784D01*
X62098991Y29784403D01*
X62003752Y29784403D01*
X61860895Y29736784D01*
X61813276Y29689165D01*
X61813276Y29355832D01*
X62003752Y29355832D01*
X61384705Y29784403D02*
X61384705Y28784403D01*
X60813276Y29784403D01*
X60813276Y28784403D01*
X60337086Y29784403D02*
X60337086Y28784403D01*
X60098991Y28784403D01*
X59956133Y28832023D01*
X59860895Y28927261D01*
X59813276Y29022499D01*
X59765657Y29212975D01*
X59765657Y29355832D01*
X59813276Y29546308D01*
X59860895Y29641546D01*
X59956133Y29736784D01*
X60098991Y29784403D01*
X60337086Y29784403D01*
X60805276Y26139623D02*
X60900514Y26092003D01*
X61043371Y26092003D01*
X61186229Y26139623D01*
X61281467Y26234861D01*
X61329086Y26330099D01*
X61376705Y26520575D01*
X61376705Y26663432D01*
X61329086Y26853908D01*
X61281467Y26949146D01*
X61186229Y27044384D01*
X61043371Y27092003D01*
X60948133Y27092003D01*
X60805276Y27044384D01*
X60757657Y26996765D01*
X60757657Y26663432D01*
X60948133Y26663432D01*
X60376705Y26187242D02*
X60329086Y26139623D01*
X60233848Y26092003D01*
X59995752Y26092003D01*
X59900514Y26139623D01*
X59852895Y26187242D01*
X59805276Y26282480D01*
X59805276Y26377718D01*
X59852895Y26520575D01*
X60424324Y27092003D01*
X59805276Y27092003D01*
X61797395Y23752023D02*
X61892633Y23704403D01*
X62035491Y23704403D01*
X62178348Y23752023D01*
X62273586Y23847261D01*
X62321205Y23942499D01*
X62368824Y24132975D01*
X62368824Y24275832D01*
X62321205Y24466308D01*
X62273586Y24561546D01*
X62178348Y24656784D01*
X62035491Y24704403D01*
X61940252Y24704403D01*
X61797395Y24656784D01*
X61749776Y24609165D01*
X61749776Y24275832D01*
X61940252Y24275832D01*
X61321205Y24704403D02*
X61321205Y23704403D01*
X60749776Y24704403D01*
X60749776Y23704403D01*
X60273586Y24704403D02*
X60273586Y23704403D01*
X60035491Y23704403D01*
X59892633Y23752023D01*
X59797395Y23847261D01*
X59749776Y23942499D01*
X59702157Y24132975D01*
X59702157Y24275832D01*
X59749776Y24466308D01*
X59797395Y24561546D01*
X59892633Y24656784D01*
X60035491Y24704403D01*
X60273586Y24704403D01*
X60754476Y21364423D02*
X60849714Y21316803D01*
X60992571Y21316803D01*
X61135429Y21364423D01*
X61230667Y21459661D01*
X61278286Y21554899D01*
X61325905Y21745375D01*
X61325905Y21888232D01*
X61278286Y22078708D01*
X61230667Y22173946D01*
X61135429Y22269184D01*
X60992571Y22316803D01*
X60897333Y22316803D01*
X60754476Y22269184D01*
X60706857Y22221565D01*
X60706857Y21888232D01*
X60897333Y21888232D01*
X59754476Y22316803D02*
X60325905Y22316803D01*
X60040191Y22316803D02*
X60040191Y21316803D01*
X60135429Y21459661D01*
X60230667Y21554899D01*
X60325905Y21602518D01*
X34615380Y35576071D02*
X33615380Y35576071D01*
X34329666Y35909404D01*
X33615380Y36242738D01*
X34615380Y36242738D01*
X33615380Y36909404D02*
X33615380Y37099880D01*
X33663000Y37195119D01*
X33758238Y37290357D01*
X33948714Y37337976D01*
X34282047Y37337976D01*
X34472523Y37290357D01*
X34567761Y37195119D01*
X34615380Y37099880D01*
X34615380Y36909404D01*
X34567761Y36814166D01*
X34472523Y36718928D01*
X34282047Y36671309D01*
X33948714Y36671309D01*
X33758238Y36718928D01*
X33663000Y36814166D01*
X33615380Y36909404D01*
X34567761Y37718928D02*
X34615380Y37861785D01*
X34615380Y38099880D01*
X34567761Y38195119D01*
X34520142Y38242738D01*
X34424904Y38290357D01*
X34329666Y38290357D01*
X34234428Y38242738D01*
X34186809Y38195119D01*
X34139190Y38099880D01*
X34091571Y37909404D01*
X34043952Y37814166D01*
X33996333Y37766547D01*
X33901095Y37718928D01*
X33805857Y37718928D01*
X33710619Y37766547D01*
X33663000Y37814166D01*
X33615380Y37909404D01*
X33615380Y38147500D01*
X33663000Y38290357D01*
X34615380Y38718928D02*
X33615380Y38718928D01*
X32075380Y35576071D02*
X31075380Y35576071D01*
X31789666Y35909404D01*
X31075380Y36242738D01*
X32075380Y36242738D01*
X32075380Y36718928D02*
X31075380Y36718928D01*
X32027761Y37147500D02*
X32075380Y37290357D01*
X32075380Y37528452D01*
X32027761Y37623690D01*
X31980142Y37671309D01*
X31884904Y37718928D01*
X31789666Y37718928D01*
X31694428Y37671309D01*
X31646809Y37623690D01*
X31599190Y37528452D01*
X31551571Y37337976D01*
X31503952Y37242738D01*
X31456333Y37195119D01*
X31361095Y37147500D01*
X31265857Y37147500D01*
X31170619Y37195119D01*
X31123000Y37242738D01*
X31075380Y37337976D01*
X31075380Y37576071D01*
X31123000Y37718928D01*
X31075380Y38337976D02*
X31075380Y38528452D01*
X31123000Y38623690D01*
X31218238Y38718928D01*
X31408714Y38766547D01*
X31742047Y38766547D01*
X31932523Y38718928D01*
X32027761Y38623690D01*
X32075380Y38528452D01*
X32075380Y38337976D01*
X32027761Y38242738D01*
X31932523Y38147500D01*
X31742047Y38099880D01*
X31408714Y38099880D01*
X31218238Y38147500D01*
X31123000Y38242738D01*
X31075380Y38337976D01*
X29487761Y36179285D02*
X29535380Y36322142D01*
X29535380Y36560238D01*
X29487761Y36655476D01*
X29440142Y36703095D01*
X29344904Y36750714D01*
X29249666Y36750714D01*
X29154428Y36703095D01*
X29106809Y36655476D01*
X29059190Y36560238D01*
X29011571Y36369761D01*
X28963952Y36274523D01*
X28916333Y36226904D01*
X28821095Y36179285D01*
X28725857Y36179285D01*
X28630619Y36226904D01*
X28583000Y36274523D01*
X28535380Y36369761D01*
X28535380Y36607857D01*
X28583000Y36750714D01*
X29440142Y37750714D02*
X29487761Y37703095D01*
X29535380Y37560238D01*
X29535380Y37465000D01*
X29487761Y37322142D01*
X29392523Y37226904D01*
X29297285Y37179285D01*
X29106809Y37131666D01*
X28963952Y37131666D01*
X28773476Y37179285D01*
X28678238Y37226904D01*
X28583000Y37322142D01*
X28535380Y37465000D01*
X28535380Y37560238D01*
X28583000Y37703095D01*
X28630619Y37750714D01*
X29535380Y38179285D02*
X28535380Y38179285D01*
X29535380Y38750714D02*
X28963952Y38322142D01*
X28535380Y38750714D02*
X29106809Y38179285D01*
X26043000Y36576095D02*
X25995380Y36480857D01*
X25995380Y36338000D01*
X26043000Y36195142D01*
X26138238Y36099904D01*
X26233476Y36052285D01*
X26423952Y36004666D01*
X26566809Y36004666D01*
X26757285Y36052285D01*
X26852523Y36099904D01*
X26947761Y36195142D01*
X26995380Y36338000D01*
X26995380Y36433238D01*
X26947761Y36576095D01*
X26900142Y36623714D01*
X26566809Y36623714D01*
X26566809Y36433238D01*
X26995380Y37052285D02*
X25995380Y37052285D01*
X26995380Y37623714D01*
X25995380Y37623714D01*
X26995380Y38099904D02*
X25995380Y38099904D01*
X25995380Y38338000D01*
X26043000Y38480857D01*
X26138238Y38576095D01*
X26233476Y38623714D01*
X26423952Y38671333D01*
X26566809Y38671333D01*
X26757285Y38623714D01*
X26852523Y38576095D01*
X26947761Y38480857D01*
X26995380Y38338000D01*
X26995380Y38099904D01*
X24106166Y35528452D02*
X24106166Y36004642D01*
X24391880Y35433214D02*
X23391880Y35766547D01*
X24391880Y36099880D01*
X24391880Y37004642D02*
X23915690Y36671309D01*
X24391880Y36433214D02*
X23391880Y36433214D01*
X23391880Y36814166D01*
X23439500Y36909404D01*
X23487119Y36957023D01*
X23582357Y37004642D01*
X23725214Y37004642D01*
X23820452Y36957023D01*
X23868071Y36909404D01*
X23915690Y36814166D01*
X23915690Y36433214D01*
X23868071Y37433214D02*
X23868071Y37766547D01*
X24391880Y37909404D02*
X24391880Y37433214D01*
X23391880Y37433214D01*
X23391880Y37909404D01*
X23868071Y38671309D02*
X23868071Y38337976D01*
X24391880Y38337976D02*
X23391880Y38337976D01*
X23391880Y38814166D01*
D11*
X19387942Y29581942D02*
X19387942Y28724800D01*
X19330799Y28553371D01*
X19216514Y28439085D01*
X19045085Y28381942D01*
X18930799Y28381942D01*
X19959371Y28381942D02*
X19959371Y29581942D01*
X20416514Y29581942D01*
X20530799Y29524800D01*
X20587942Y29467657D01*
X20645085Y29353371D01*
X20645085Y29181942D01*
X20587942Y29067657D01*
X20530799Y29010514D01*
X20416514Y28953371D01*
X19959371Y28953371D01*
X21730799Y28381942D02*
X21159371Y28381942D01*
X21159371Y29581942D01*
X23273657Y29581942D02*
X23502228Y29581942D01*
X23616514Y29524800D01*
X23730799Y29410514D01*
X23787942Y29181942D01*
X23787942Y28781942D01*
X23730799Y28553371D01*
X23616514Y28439085D01*
X23502228Y28381942D01*
X23273657Y28381942D01*
X23159371Y28439085D01*
X23045085Y28553371D01*
X22987942Y28781942D01*
X22987942Y29181942D01*
X23045085Y29410514D01*
X23159371Y29524800D01*
X23273657Y29581942D01*
X24302228Y28381942D02*
X24302228Y29581942D01*
X24759371Y29581942D01*
X24873657Y29524800D01*
X24930799Y29467657D01*
X24987942Y29353371D01*
X24987942Y29181942D01*
X24930799Y29067657D01*
X24873657Y29010514D01*
X24759371Y28953371D01*
X24302228Y28953371D01*
X25502228Y29010514D02*
X25902228Y29010514D01*
X26073657Y28381942D02*
X25502228Y28381942D01*
X25502228Y29581942D01*
X26073657Y29581942D01*
X26587942Y28381942D02*
X26587942Y29581942D01*
X27273657Y28381942D01*
X27273657Y29581942D01*
X28702228Y28439085D02*
X28873657Y28381942D01*
X29159371Y28381942D01*
X29273657Y28439085D01*
X29330799Y28496228D01*
X29387942Y28610514D01*
X29387942Y28724800D01*
X29330799Y28839085D01*
X29273657Y28896228D01*
X29159371Y28953371D01*
X28930799Y29010514D01*
X28816514Y29067657D01*
X28759371Y29124800D01*
X28702228Y29239085D01*
X28702228Y29353371D01*
X28759371Y29467657D01*
X28816514Y29524800D01*
X28930799Y29581942D01*
X29216514Y29581942D01*
X29387942Y29524800D01*
X30130799Y29581942D02*
X30359371Y29581942D01*
X30473657Y29524800D01*
X30587942Y29410514D01*
X30645085Y29181942D01*
X30645085Y28781942D01*
X30587942Y28553371D01*
X30473657Y28439085D01*
X30359371Y28381942D01*
X30130799Y28381942D01*
X30016514Y28439085D01*
X29902228Y28553371D01*
X29845085Y28781942D01*
X29845085Y29181942D01*
X29902228Y29410514D01*
X30016514Y29524800D01*
X30130799Y29581942D01*
X31159371Y29581942D02*
X31159371Y28610514D01*
X31216514Y28496228D01*
X31273657Y28439085D01*
X31387942Y28381942D01*
X31616514Y28381942D01*
X31730799Y28439085D01*
X31787942Y28496228D01*
X31845085Y28610514D01*
X31845085Y29581942D01*
X33102228Y28381942D02*
X32702228Y28953371D01*
X32416514Y28381942D02*
X32416514Y29581942D01*
X32873657Y29581942D01*
X32987942Y29524800D01*
X33045085Y29467657D01*
X33102228Y29353371D01*
X33102228Y29181942D01*
X33045085Y29067657D01*
X32987942Y29010514D01*
X32873657Y28953371D01*
X32416514Y28953371D01*
X34302228Y28496228D02*
X34245085Y28439085D01*
X34073657Y28381942D01*
X33959371Y28381942D01*
X33787942Y28439085D01*
X33673657Y28553371D01*
X33616514Y28667657D01*
X33559371Y28896228D01*
X33559371Y29067657D01*
X33616514Y29296228D01*
X33673657Y29410514D01*
X33787942Y29524800D01*
X33959371Y29581942D01*
X34073657Y29581942D01*
X34245085Y29524800D01*
X34302228Y29467657D01*
X34816514Y29010514D02*
X35216514Y29010514D01*
X35387942Y28381942D02*
X34816514Y28381942D01*
X34816514Y29581942D01*
X35387942Y29581942D01*
X37502228Y28381942D02*
X37102228Y28953371D01*
X36816514Y28381942D02*
X36816514Y29581942D01*
X37273657Y29581942D01*
X37387942Y29524800D01*
X37445085Y29467657D01*
X37502228Y29353371D01*
X37502228Y29181942D01*
X37445085Y29067657D01*
X37387942Y29010514D01*
X37273657Y28953371D01*
X36816514Y28953371D01*
X38245085Y29581942D02*
X38473657Y29581942D01*
X38587942Y29524800D01*
X38702228Y29410514D01*
X38759371Y29181942D01*
X38759371Y28781942D01*
X38702228Y28553371D01*
X38587942Y28439085D01*
X38473657Y28381942D01*
X38245085Y28381942D01*
X38130799Y28439085D01*
X38016514Y28553371D01*
X37959371Y28781942D01*
X37959371Y29181942D01*
X38016514Y29410514D01*
X38130799Y29524800D01*
X38245085Y29581942D01*
X39102228Y29581942D02*
X39502228Y28381942D01*
X39902228Y29581942D01*
X40302228Y29010514D02*
X40702228Y29010514D01*
X40873657Y28381942D02*
X40302228Y28381942D01*
X40302228Y29581942D01*
X40873657Y29581942D01*
X42073657Y28381942D02*
X41673657Y28953371D01*
X41387942Y28381942D02*
X41387942Y29581942D01*
X41845085Y29581942D01*
X41959371Y29524800D01*
X42016514Y29467657D01*
X42073657Y29353371D01*
X42073657Y29181942D01*
X42016514Y29067657D01*
X41959371Y29010514D01*
X41845085Y28953371D01*
X41387942Y28953371D01*
X18273657Y26431942D02*
X17702228Y26431942D01*
X17702228Y27631942D01*
X18673657Y27060514D02*
X19073657Y27060514D01*
X19245085Y26431942D02*
X18673657Y26431942D01*
X18673657Y27631942D01*
X19245085Y27631942D01*
X19759371Y26431942D02*
X19759371Y27631942D01*
X20045085Y27631942D01*
X20216514Y27574800D01*
X20330800Y27460514D01*
X20387942Y27346228D01*
X20445085Y27117657D01*
X20445085Y26946228D01*
X20387942Y26717657D01*
X20330800Y26603371D01*
X20216514Y26489085D01*
X20045085Y26431942D01*
X19759371Y26431942D01*
X21873657Y26431942D02*
X21873657Y27631942D01*
X22273657Y26774800D01*
X22673657Y27631942D01*
X22673657Y26431942D01*
X23187942Y26774800D02*
X23759371Y26774800D01*
X23073657Y26431942D02*
X23473657Y27631942D01*
X23873657Y26431942D01*
X24102228Y27631942D02*
X24787942Y27631942D01*
X24445085Y26431942D02*
X24445085Y27631942D01*
X25873657Y26431942D02*
X25473657Y27003371D01*
X25187942Y26431942D02*
X25187942Y27631942D01*
X25645085Y27631942D01*
X25759371Y27574800D01*
X25816514Y27517657D01*
X25873657Y27403371D01*
X25873657Y27231942D01*
X25816514Y27117657D01*
X25759371Y27060514D01*
X25645085Y27003371D01*
X25187942Y27003371D01*
X26387942Y26431942D02*
X26387942Y27631942D01*
X26845085Y27631942D02*
X27645085Y26431942D01*
X27645085Y27631942D02*
X26845085Y26431942D01*
X28959371Y26774800D02*
X29530800Y26774800D01*
X28845085Y26431942D02*
X29245085Y27631942D01*
X29645085Y26431942D01*
X30730800Y26431942D02*
X30330800Y27003371D01*
X30045085Y26431942D02*
X30045085Y27631942D01*
X30502228Y27631942D01*
X30616514Y27574800D01*
X30673657Y27517657D01*
X30730800Y27403371D01*
X30730800Y27231942D01*
X30673657Y27117657D01*
X30616514Y27060514D01*
X30502228Y27003371D01*
X30045085Y27003371D01*
X31245085Y26431942D02*
X31245085Y27631942D01*
X31530800Y27631942D01*
X31702228Y27574800D01*
X31816514Y27460514D01*
X31873657Y27346228D01*
X31930800Y27117657D01*
X31930800Y26946228D01*
X31873657Y26717657D01*
X31816514Y26603371D01*
X31702228Y26489085D01*
X31530800Y26431942D01*
X31245085Y26431942D01*
X32445085Y27631942D02*
X32445085Y26660514D01*
X32502228Y26546228D01*
X32559371Y26489085D01*
X32673657Y26431942D01*
X32902228Y26431942D01*
X33016514Y26489085D01*
X33073657Y26546228D01*
X33130800Y26660514D01*
X33130800Y27631942D01*
X33702228Y26431942D02*
X33702228Y27631942D01*
X34273657Y26431942D02*
X34273657Y27631942D01*
X34959371Y26431942D01*
X34959371Y27631942D01*
X35759371Y27631942D02*
X35987942Y27631942D01*
X36102228Y27574800D01*
X36216514Y27460514D01*
X36273657Y27231942D01*
X36273657Y26831942D01*
X36216514Y26603371D01*
X36102228Y26489085D01*
X35987942Y26431942D01*
X35759371Y26431942D01*
X35645085Y26489085D01*
X35530800Y26603371D01*
X35473657Y26831942D01*
X35473657Y27231942D01*
X35530800Y27460514D01*
X35645085Y27574800D01*
X35759371Y27631942D01*
X37645085Y26489085D02*
X37816514Y26431942D01*
X38102228Y26431942D01*
X38216514Y26489085D01*
X38273657Y26546228D01*
X38330800Y26660514D01*
X38330800Y26774800D01*
X38273657Y26889085D01*
X38216514Y26946228D01*
X38102228Y27003371D01*
X37873657Y27060514D01*
X37759371Y27117657D01*
X37702228Y27174800D01*
X37645085Y27289085D01*
X37645085Y27403371D01*
X37702228Y27517657D01*
X37759371Y27574800D01*
X37873657Y27631942D01*
X38159371Y27631942D01*
X38330800Y27574800D01*
X38845085Y26431942D02*
X38845085Y27631942D01*
X38845085Y27060514D02*
X39530800Y27060514D01*
X39530800Y26431942D02*
X39530800Y27631942D01*
X40102228Y27060514D02*
X40502228Y27060514D01*
X40673657Y26431942D02*
X40102228Y26431942D01*
X40102228Y27631942D01*
X40673657Y27631942D01*
X41187942Y26431942D02*
X41187942Y27631942D01*
X42330800Y26431942D02*
X41759371Y26431942D01*
X41759371Y27631942D01*
X42730800Y26431942D02*
X42730800Y27631942D01*
X43016514Y27631942D01*
X43187942Y27574800D01*
X43302228Y27460514D01*
X43359371Y27346228D01*
X43416514Y27117657D01*
X43416514Y26946228D01*
X43359371Y26717657D01*
X43302228Y26603371D01*
X43187942Y26489085D01*
X43016514Y26431942D01*
X42730800Y26431942D01*
X27587942Y24481942D02*
X27187942Y25053371D01*
X26902228Y24481942D02*
X26902228Y25681942D01*
X27359371Y25681942D01*
X27473657Y25624800D01*
X27530800Y25567657D01*
X27587942Y25453371D01*
X27587942Y25281942D01*
X27530800Y25167657D01*
X27473657Y25110514D01*
X27359371Y25053371D01*
X26902228Y25053371D01*
X28102228Y25110514D02*
X28502228Y25110514D01*
X28673657Y24481942D02*
X28102228Y24481942D01*
X28102228Y25681942D01*
X28673657Y25681942D01*
X29016514Y25681942D02*
X29416514Y24481942D01*
X29816514Y25681942D01*
X31130800Y24939085D02*
X32045085Y24939085D01*
X33930800Y25110514D02*
X34102228Y25053371D01*
X34159371Y24996228D01*
X34216514Y24881942D01*
X34216514Y24710514D01*
X34159371Y24596228D01*
X34102228Y24539085D01*
X33987942Y24481942D01*
X33530800Y24481942D01*
X33530800Y25681942D01*
X33930800Y25681942D01*
X34045085Y25624800D01*
X34102228Y25567657D01*
X34159371Y25453371D01*
X34159371Y25339085D01*
X34102228Y25224800D01*
X34045085Y25167657D01*
X33930800Y25110514D01*
X33530800Y25110514D01*
G04 #@! TO.C,J5*
X5860800Y13544800D02*
X1860800Y13544800D01*
X1860800Y13544800D02*
X1860800Y27544800D01*
X1860800Y27544800D02*
X5860800Y27544800D01*
X5860800Y27544800D02*
X5860800Y13544800D01*
D12*
G04 #@! TO.C,TP8*
X15619001Y38769999D02*
X15619001Y40169999D01*
X17019001Y38769999D02*
X15619001Y38769999D01*
X17019001Y40169999D02*
X17019001Y38769999D01*
X15619001Y40169999D02*
X17019001Y40169999D01*
G04 #@! TO.C,TP7*
X15619500Y36765000D02*
X15619500Y38165000D01*
X17019500Y36765000D02*
X15619500Y36765000D01*
X17019500Y38165000D02*
X17019500Y36765000D01*
X15619500Y38165000D02*
X17019500Y38165000D01*
G04 #@! TO.C,TP6*
X5891300Y34860000D02*
X5891300Y36260000D01*
X7291300Y34860000D02*
X5891300Y34860000D01*
X7291300Y36260000D02*
X7291300Y34860000D01*
X5891300Y36260000D02*
X7291300Y36260000D01*
G04 #@! TO.C,TP5*
X5827800Y36828500D02*
X5827800Y38228500D01*
X7227800Y36828500D02*
X5827800Y36828500D01*
X7227800Y38228500D02*
X7227800Y36828500D01*
X5827800Y38228500D02*
X7227800Y38228500D01*
G04 #@! TO.C,TP4*
X22201100Y5027700D02*
X20801100Y5027700D01*
X22201100Y6427700D02*
X22201100Y5027700D01*
X20801100Y6427700D02*
X22201100Y6427700D01*
X20801100Y5027700D02*
X20801100Y6427700D01*
G04 #@! TO.C,TP3*
X22201100Y3186200D02*
X20801100Y3186200D01*
X22201100Y4586200D02*
X22201100Y3186200D01*
X20801100Y4586200D02*
X22201100Y4586200D01*
X20801100Y3186200D02*
X20801100Y4586200D01*
G04 #@! TO.C,TP2*
X22201100Y6983500D02*
X20801100Y6983500D01*
X22201100Y8383500D02*
X22201100Y6983500D01*
X20801100Y8383500D02*
X22201100Y8383500D01*
X20801100Y6983500D02*
X20801100Y8383500D01*
G04 #@! TO.C,TP1*
X5827800Y38733500D02*
X5827800Y40133500D01*
X7227800Y38733500D02*
X5827800Y38733500D01*
X7227800Y40133500D02*
X7227800Y38733500D01*
X5827800Y40133500D02*
X7227800Y40133500D01*
D11*
G04 #@! TO.C,J1*
X58754400Y16581600D02*
X58754400Y44581600D01*
X58754400Y44581600D02*
X49754400Y44581600D01*
X49754400Y44581600D02*
X49754400Y16581600D01*
X49754400Y16581600D02*
X58754400Y16581600D01*
G04 #@! TO.C,J2*
X45085000Y11430000D02*
X60325000Y11430000D01*
X45085000Y8890000D02*
X45085000Y11430000D01*
X60325000Y8890000D02*
X45085000Y8890000D01*
X60325000Y11430000D02*
X60325000Y8890000D01*
G04 #@! TO.C,J3*
X44450000Y8890000D02*
X29210000Y8890000D01*
X44450000Y11430000D02*
X44450000Y8890000D01*
X29210000Y11430000D02*
X44450000Y11430000D01*
X29210000Y8890000D02*
X29210000Y11430000D01*
G04 #@! TO.C,J4*
X20066000Y41910000D02*
X35306000Y41910000D01*
X20066000Y39370000D02*
X20066000Y41910000D01*
X35306000Y39370000D02*
X20066000Y39370000D01*
X35306000Y41910000D02*
X35306000Y39370000D01*
G04 #@! TO.C,J6*
X18770600Y13639800D02*
X18770600Y17449800D01*
X11150600Y13639800D02*
X18770600Y13639800D01*
X11150600Y17449800D02*
X11150600Y13639800D01*
X18770600Y17449800D02*
X11150600Y17449800D01*
G04 #@! TO.C,J5*
X1992380Y11909466D02*
X2706666Y11909466D01*
X2849523Y11861847D01*
X2944761Y11766609D01*
X2992380Y11623752D01*
X2992380Y11528514D01*
X1992380Y12861847D02*
X1992380Y12385657D01*
X2468571Y12338038D01*
X2420952Y12385657D01*
X2373333Y12480895D01*
X2373333Y12718990D01*
X2420952Y12814228D01*
X2468571Y12861847D01*
X2563809Y12909466D01*
X2801904Y12909466D01*
X2897142Y12861847D01*
X2944761Y12814228D01*
X2992380Y12718990D01*
X2992380Y12480895D01*
X2944761Y12385657D01*
X2897142Y12338038D01*
G04 #@! TO.C,TP8*
X12771595Y40044619D02*
X13343023Y40044619D01*
X13057309Y39044619D02*
X13057309Y40044619D01*
X13676357Y39044619D02*
X13676357Y40044619D01*
X14057309Y40044619D01*
X14152547Y39997000D01*
X14200166Y39949380D01*
X14247785Y39854142D01*
X14247785Y39711285D01*
X14200166Y39616047D01*
X14152547Y39568428D01*
X14057309Y39520809D01*
X13676357Y39520809D01*
X14819214Y39616047D02*
X14723976Y39663666D01*
X14676357Y39711285D01*
X14628738Y39806523D01*
X14628738Y39854142D01*
X14676357Y39949380D01*
X14723976Y39997000D01*
X14819214Y40044619D01*
X15009690Y40044619D01*
X15104928Y39997000D01*
X15152547Y39949380D01*
X15200166Y39854142D01*
X15200166Y39806523D01*
X15152547Y39711285D01*
X15104928Y39663666D01*
X15009690Y39616047D01*
X14819214Y39616047D01*
X14723976Y39568428D01*
X14676357Y39520809D01*
X14628738Y39425571D01*
X14628738Y39235095D01*
X14676357Y39139857D01*
X14723976Y39092238D01*
X14819214Y39044619D01*
X15009690Y39044619D01*
X15104928Y39092238D01*
X15152547Y39139857D01*
X15200166Y39235095D01*
X15200166Y39425571D01*
X15152547Y39520809D01*
X15104928Y39568428D01*
X15009690Y39616047D01*
G04 #@! TO.C,TP7*
X12644595Y38012619D02*
X13216023Y38012619D01*
X12930309Y37012619D02*
X12930309Y38012619D01*
X13549357Y37012619D02*
X13549357Y38012619D01*
X13930309Y38012619D01*
X14025547Y37965000D01*
X14073166Y37917380D01*
X14120785Y37822142D01*
X14120785Y37679285D01*
X14073166Y37584047D01*
X14025547Y37536428D01*
X13930309Y37488809D01*
X13549357Y37488809D01*
X14454119Y38012619D02*
X15120785Y38012619D01*
X14692214Y37012619D01*
G04 #@! TO.C,TP6*
X3043395Y36107619D02*
X3614823Y36107619D01*
X3329109Y35107619D02*
X3329109Y36107619D01*
X3948157Y35107619D02*
X3948157Y36107619D01*
X4329109Y36107619D01*
X4424347Y36060000D01*
X4471966Y36012380D01*
X4519585Y35917142D01*
X4519585Y35774285D01*
X4471966Y35679047D01*
X4424347Y35631428D01*
X4329109Y35583809D01*
X3948157Y35583809D01*
X5376728Y36107619D02*
X5186252Y36107619D01*
X5091014Y36060000D01*
X5043395Y36012380D01*
X4948157Y35869523D01*
X4900538Y35679047D01*
X4900538Y35298095D01*
X4948157Y35202857D01*
X4995776Y35155238D01*
X5091014Y35107619D01*
X5281490Y35107619D01*
X5376728Y35155238D01*
X5424347Y35202857D01*
X5471966Y35298095D01*
X5471966Y35536190D01*
X5424347Y35631428D01*
X5376728Y35679047D01*
X5281490Y35726666D01*
X5091014Y35726666D01*
X4995776Y35679047D01*
X4948157Y35631428D01*
X4900538Y35536190D01*
G04 #@! TO.C,TP5*
X2916395Y38076119D02*
X3487823Y38076119D01*
X3202109Y37076119D02*
X3202109Y38076119D01*
X3821157Y37076119D02*
X3821157Y38076119D01*
X4202109Y38076119D01*
X4297347Y38028500D01*
X4344966Y37980880D01*
X4392585Y37885642D01*
X4392585Y37742785D01*
X4344966Y37647547D01*
X4297347Y37599928D01*
X4202109Y37552309D01*
X3821157Y37552309D01*
X5297347Y38076119D02*
X4821157Y38076119D01*
X4773538Y37599928D01*
X4821157Y37647547D01*
X4916395Y37695166D01*
X5154490Y37695166D01*
X5249728Y37647547D01*
X5297347Y37599928D01*
X5344966Y37504690D01*
X5344966Y37266595D01*
X5297347Y37171357D01*
X5249728Y37123738D01*
X5154490Y37076119D01*
X4916395Y37076119D01*
X4821157Y37123738D01*
X4773538Y37171357D01*
G04 #@! TO.C,TP4*
X18016695Y6275319D02*
X18588123Y6275319D01*
X18302409Y5275319D02*
X18302409Y6275319D01*
X18921457Y5275319D02*
X18921457Y6275319D01*
X19302409Y6275319D01*
X19397647Y6227700D01*
X19445266Y6180080D01*
X19492885Y6084842D01*
X19492885Y5941985D01*
X19445266Y5846747D01*
X19397647Y5799128D01*
X19302409Y5751509D01*
X18921457Y5751509D01*
X20350028Y5941985D02*
X20350028Y5275319D01*
X20111933Y6322938D02*
X19873838Y5608652D01*
X20492885Y5608652D01*
G04 #@! TO.C,TP3*
X17889695Y4370319D02*
X18461123Y4370319D01*
X18175409Y3370319D02*
X18175409Y4370319D01*
X18794457Y3370319D02*
X18794457Y4370319D01*
X19175409Y4370319D01*
X19270647Y4322700D01*
X19318266Y4275080D01*
X19365885Y4179842D01*
X19365885Y4036985D01*
X19318266Y3941747D01*
X19270647Y3894128D01*
X19175409Y3846509D01*
X18794457Y3846509D01*
X19699219Y4370319D02*
X20318266Y4370319D01*
X19984933Y3989366D01*
X20127790Y3989366D01*
X20223028Y3941747D01*
X20270647Y3894128D01*
X20318266Y3798890D01*
X20318266Y3560795D01*
X20270647Y3465557D01*
X20223028Y3417938D01*
X20127790Y3370319D01*
X19842076Y3370319D01*
X19746838Y3417938D01*
X19699219Y3465557D01*
G04 #@! TO.C,TP2*
X18016695Y8167619D02*
X18588123Y8167619D01*
X18302409Y7167619D02*
X18302409Y8167619D01*
X18921457Y7167619D02*
X18921457Y8167619D01*
X19302409Y8167619D01*
X19397647Y8120000D01*
X19445266Y8072380D01*
X19492885Y7977142D01*
X19492885Y7834285D01*
X19445266Y7739047D01*
X19397647Y7691428D01*
X19302409Y7643809D01*
X18921457Y7643809D01*
X19873838Y8072380D02*
X19921457Y8120000D01*
X20016695Y8167619D01*
X20254790Y8167619D01*
X20350028Y8120000D01*
X20397647Y8072380D01*
X20445266Y7977142D01*
X20445266Y7881904D01*
X20397647Y7739047D01*
X19826219Y7167619D01*
X20445266Y7167619D01*
G04 #@! TO.C,TP1*
X2979895Y39981119D02*
X3551323Y39981119D01*
X3265609Y38981119D02*
X3265609Y39981119D01*
X3884657Y38981119D02*
X3884657Y39981119D01*
X4265609Y39981119D01*
X4360847Y39933500D01*
X4408466Y39885880D01*
X4456085Y39790642D01*
X4456085Y39647785D01*
X4408466Y39552547D01*
X4360847Y39504928D01*
X4265609Y39457309D01*
X3884657Y39457309D01*
X5408466Y38981119D02*
X4837038Y38981119D01*
X5122752Y38981119D02*
X5122752Y39981119D01*
X5027514Y39838261D01*
X4932276Y39743023D01*
X4837038Y39695404D01*
G04 #@! TO.C,J1*
X59396380Y17091066D02*
X60110666Y17091066D01*
X60253523Y17043447D01*
X60348761Y16948209D01*
X60396380Y16805352D01*
X60396380Y16710114D01*
X60396380Y18091066D02*
X60396380Y17519638D01*
X60396380Y17805352D02*
X59396380Y17805352D01*
X59539238Y17710114D01*
X59634476Y17614876D01*
X59682095Y17519638D01*
G04 #@! TO.C,J2*
X59420166Y8294619D02*
X59420166Y7580333D01*
X59372547Y7437476D01*
X59277309Y7342238D01*
X59134452Y7294619D01*
X59039214Y7294619D01*
X59848738Y8199380D02*
X59896357Y8247000D01*
X59991595Y8294619D01*
X60229690Y8294619D01*
X60324928Y8247000D01*
X60372547Y8199380D01*
X60420166Y8104142D01*
X60420166Y8008904D01*
X60372547Y7866047D01*
X59801119Y7294619D01*
X60420166Y7294619D01*
G04 #@! TO.C,J3*
X29511666Y8421619D02*
X29511666Y7707333D01*
X29464047Y7564476D01*
X29368809Y7469238D01*
X29225952Y7421619D01*
X29130714Y7421619D01*
X29892619Y8421619D02*
X30511666Y8421619D01*
X30178333Y8040666D01*
X30321190Y8040666D01*
X30416428Y7993047D01*
X30464047Y7945428D01*
X30511666Y7850190D01*
X30511666Y7612095D01*
X30464047Y7516857D01*
X30416428Y7469238D01*
X30321190Y7421619D01*
X30035476Y7421619D01*
X29940238Y7469238D01*
X29892619Y7516857D01*
G04 #@! TO.C,J4*
X20558166Y43346619D02*
X20558166Y42632333D01*
X20510547Y42489476D01*
X20415309Y42394238D01*
X20272452Y42346619D01*
X20177214Y42346619D01*
X21462928Y43013285D02*
X21462928Y42346619D01*
X21224833Y43394238D02*
X20986738Y42679952D01*
X21605785Y42679952D01*
G04 #@! TO.C,J6*
X19834266Y17210019D02*
X19834266Y16495733D01*
X19786647Y16352876D01*
X19691409Y16257638D01*
X19548552Y16210019D01*
X19453314Y16210019D01*
X20739028Y17210019D02*
X20548552Y17210019D01*
X20453314Y17162400D01*
X20405695Y17114780D01*
X20310457Y16971923D01*
X20262838Y16781447D01*
X20262838Y16400495D01*
X20310457Y16305257D01*
X20358076Y16257638D01*
X20453314Y16210019D01*
X20643790Y16210019D01*
X20739028Y16257638D01*
X20786647Y16305257D01*
X20834266Y16400495D01*
X20834266Y16638590D01*
X20786647Y16733828D01*
X20739028Y16781447D01*
X20643790Y16829066D01*
X20453314Y16829066D01*
X20358076Y16781447D01*
X20310457Y16733828D01*
X20262838Y16638590D01*
G04 #@! TD*
M02*
