G04 #@! TF.GenerationSoftware,KiCad,Pcbnew,(5.1.10-1-10_14)*
G04 #@! TF.CreationDate,2023-04-30T23:48:29-07:00*
G04 #@! TF.ProjectId,Control_Boards,436f6e74-726f-46c5-9f42-6f617264732e,rev?*
G04 #@! TF.SameCoordinates,Original*
G04 #@! TF.FileFunction,Legend,Bot*
G04 #@! TF.FilePolarity,Positive*
%FSLAX46Y46*%
G04 Gerber Fmt 4.6, Leading zero omitted, Abs format (unit mm)*
G04 Created by KiCad (PCBNEW (5.1.10-1-10_14)) date 2023-04-30 23:48:29*
%MOMM*%
%LPD*%
G01*
G04 APERTURE LIST*
%ADD10C,0.150000*%
%ADD11C,0.250000*%
%ADD12C,0.120000*%
%ADD13C,0.500000*%
%ADD14C,0.400000*%
G04 APERTURE END LIST*
D10*
X29616400Y-49047400D02*
X29743400Y-48895000D01*
X29895800Y-49047400D02*
X29743400Y-48895000D01*
X29743400Y-51638200D02*
X29743400Y-48895000D01*
X30319285Y-49558771D02*
X31069285Y-49558771D01*
X30355000Y-49558771D02*
X30319285Y-49630200D01*
X30319285Y-49773057D01*
X30355000Y-49844485D01*
X30390714Y-49880200D01*
X30462142Y-49915914D01*
X30676428Y-49915914D01*
X30747857Y-49880200D01*
X30783571Y-49844485D01*
X30819285Y-49773057D01*
X30819285Y-49630200D01*
X30783571Y-49558771D01*
X30819285Y-50237342D02*
X30319285Y-50237342D01*
X30069285Y-50237342D02*
X30105000Y-50201628D01*
X30140714Y-50237342D01*
X30105000Y-50273057D01*
X30069285Y-50237342D01*
X30140714Y-50237342D01*
X30319285Y-50594485D02*
X30819285Y-50594485D01*
X30390714Y-50594485D02*
X30355000Y-50630200D01*
X30319285Y-50701628D01*
X30319285Y-50808771D01*
X30355000Y-50880200D01*
X30426428Y-50915914D01*
X30819285Y-50915914D01*
X30819285Y-51380200D02*
X30783571Y-51308771D01*
X30747857Y-51273057D01*
X30676428Y-51237342D01*
X30462142Y-51237342D01*
X30390714Y-51273057D01*
X30355000Y-51308771D01*
X30319285Y-51380200D01*
X30319285Y-51487342D01*
X30355000Y-51558771D01*
X30390714Y-51594485D01*
X30462142Y-51630200D01*
X30676428Y-51630200D01*
X30747857Y-51594485D01*
X30783571Y-51558771D01*
X30819285Y-51487342D01*
X30819285Y-51380200D01*
X30319285Y-52273057D02*
X30819285Y-52273057D01*
X30319285Y-51951628D02*
X30712142Y-51951628D01*
X30783571Y-51987342D01*
X30819285Y-52058771D01*
X30819285Y-52165914D01*
X30783571Y-52237342D01*
X30747857Y-52273057D01*
X30319285Y-52523057D02*
X30319285Y-52808771D01*
X30069285Y-52630200D02*
X30712142Y-52630200D01*
X30783571Y-52665914D01*
X30819285Y-52737342D01*
X30819285Y-52808771D01*
X94545742Y-31043185D02*
X94545742Y-31793185D01*
X94545742Y-31078900D02*
X94474314Y-31043185D01*
X94331456Y-31043185D01*
X94260028Y-31078900D01*
X94224314Y-31114614D01*
X94188599Y-31186042D01*
X94188599Y-31400328D01*
X94224314Y-31471757D01*
X94260028Y-31507471D01*
X94331456Y-31543185D01*
X94474314Y-31543185D01*
X94545742Y-31507471D01*
X93867171Y-31543185D02*
X93867171Y-31043185D01*
X93867171Y-30793185D02*
X93902885Y-30828900D01*
X93867171Y-30864614D01*
X93831456Y-30828900D01*
X93867171Y-30793185D01*
X93867171Y-30864614D01*
X93510028Y-31043185D02*
X93510028Y-31543185D01*
X93510028Y-31114614D02*
X93474314Y-31078900D01*
X93402885Y-31043185D01*
X93295742Y-31043185D01*
X93224314Y-31078900D01*
X93188599Y-31150328D01*
X93188599Y-31543185D01*
X92724314Y-31543185D02*
X92795742Y-31507471D01*
X92831456Y-31471757D01*
X92867171Y-31400328D01*
X92867171Y-31186042D01*
X92831456Y-31114614D01*
X92795742Y-31078900D01*
X92724314Y-31043185D01*
X92617171Y-31043185D01*
X92545742Y-31078900D01*
X92510028Y-31114614D01*
X92474314Y-31186042D01*
X92474314Y-31400328D01*
X92510028Y-31471757D01*
X92545742Y-31507471D01*
X92617171Y-31543185D01*
X92724314Y-31543185D01*
X91831456Y-31043185D02*
X91831456Y-31543185D01*
X92152885Y-31043185D02*
X92152885Y-31436042D01*
X92117171Y-31507471D01*
X92045742Y-31543185D01*
X91938599Y-31543185D01*
X91867171Y-31507471D01*
X91831456Y-31471757D01*
X91581456Y-31043185D02*
X91295742Y-31043185D01*
X91474314Y-30793185D02*
X91474314Y-31436042D01*
X91438599Y-31507471D01*
X91367171Y-31543185D01*
X91295742Y-31543185D01*
X91084400Y-30556200D02*
X90932000Y-30429200D01*
X91084400Y-30276800D02*
X90932000Y-30429200D01*
X93675200Y-30429200D02*
X90932000Y-30429200D01*
X89180942Y-27237885D02*
X89609514Y-27237885D01*
X89395228Y-27237885D02*
X89395228Y-26487885D01*
X89466657Y-26595028D01*
X89538085Y-26666457D01*
X89609514Y-26702171D01*
X88895228Y-26559314D02*
X88859514Y-26523600D01*
X88788085Y-26487885D01*
X88609514Y-26487885D01*
X88538085Y-26523600D01*
X88502371Y-26559314D01*
X88466657Y-26630742D01*
X88466657Y-26702171D01*
X88502371Y-26809314D01*
X88930942Y-27237885D01*
X88466657Y-27237885D01*
X88252371Y-26487885D02*
X88002371Y-27237885D01*
X87752371Y-26487885D01*
X89395228Y-29069950D02*
X89466657Y-29034235D01*
X89573800Y-29034235D01*
X89680942Y-29069950D01*
X89752371Y-29141378D01*
X89788085Y-29212807D01*
X89823800Y-29355664D01*
X89823800Y-29462807D01*
X89788085Y-29605664D01*
X89752371Y-29677092D01*
X89680942Y-29748521D01*
X89573800Y-29784235D01*
X89502371Y-29784235D01*
X89395228Y-29748521D01*
X89359514Y-29712807D01*
X89359514Y-29462807D01*
X89502371Y-29462807D01*
X89038085Y-29784235D02*
X89038085Y-29034235D01*
X88609514Y-29784235D01*
X88609514Y-29034235D01*
X88252371Y-29784235D02*
X88252371Y-29034235D01*
X88073800Y-29034235D01*
X87966657Y-29069950D01*
X87895228Y-29141378D01*
X87859514Y-29212807D01*
X87823800Y-29355664D01*
X87823800Y-29462807D01*
X87859514Y-29605664D01*
X87895228Y-29677092D01*
X87966657Y-29748521D01*
X88073800Y-29784235D01*
X88252371Y-29784235D01*
X89859514Y-32330585D02*
X89859514Y-31580585D01*
X89573799Y-31580585D01*
X89502371Y-31616300D01*
X89466656Y-31652014D01*
X89430942Y-31723442D01*
X89430942Y-31830585D01*
X89466656Y-31902014D01*
X89502371Y-31937728D01*
X89573799Y-31973442D01*
X89859514Y-31973442D01*
X89180942Y-31580585D02*
X89002371Y-32330585D01*
X88859514Y-31794871D01*
X88716656Y-32330585D01*
X88538085Y-31580585D01*
X87823799Y-32330585D02*
X88073799Y-31973442D01*
X88252371Y-32330585D02*
X88252371Y-31580585D01*
X87966656Y-31580585D01*
X87895228Y-31616300D01*
X87859514Y-31652014D01*
X87823799Y-31723442D01*
X87823799Y-31830585D01*
X87859514Y-31902014D01*
X87895228Y-31937728D01*
X87966656Y-31973442D01*
X88252371Y-31973442D01*
X91216656Y-34876935D02*
X91645228Y-34876935D01*
X91430942Y-34876935D02*
X91430942Y-34126935D01*
X91502371Y-34234078D01*
X91573799Y-34305507D01*
X91645228Y-34341221D01*
X90930942Y-34198364D02*
X90895228Y-34162650D01*
X90823799Y-34126935D01*
X90645228Y-34126935D01*
X90573799Y-34162650D01*
X90538085Y-34198364D01*
X90502371Y-34269792D01*
X90502371Y-34341221D01*
X90538085Y-34448364D01*
X90966656Y-34876935D01*
X90502371Y-34876935D01*
X90288085Y-34126935D02*
X90038085Y-34876935D01*
X89788085Y-34126935D01*
X89716656Y-34948364D02*
X89145228Y-34948364D01*
X88966656Y-34484078D02*
X88716656Y-34484078D01*
X88609514Y-34876935D02*
X88966656Y-34876935D01*
X88966656Y-34126935D01*
X88609514Y-34126935D01*
X88288085Y-34876935D02*
X88288085Y-34126935D01*
X87859514Y-34876935D01*
X87859514Y-34126935D01*
X89823799Y-37423285D02*
X89823799Y-36673285D01*
X89395228Y-37423285D01*
X89395228Y-36673285D01*
X88502371Y-36637571D02*
X89145228Y-37601857D01*
X87823799Y-37351857D02*
X87859514Y-37387571D01*
X87966657Y-37423285D01*
X88038085Y-37423285D01*
X88145228Y-37387571D01*
X88216657Y-37316142D01*
X88252371Y-37244714D01*
X88288085Y-37101857D01*
X88288085Y-36994714D01*
X88252371Y-36851857D01*
X88216657Y-36780428D01*
X88145228Y-36709000D01*
X88038085Y-36673285D01*
X87966657Y-36673285D01*
X87859514Y-36709000D01*
X87823799Y-36744714D01*
X128926085Y-41361657D02*
X128926085Y-41825942D01*
X129211800Y-41575942D01*
X129211800Y-41683085D01*
X129247514Y-41754514D01*
X129283228Y-41790228D01*
X129354657Y-41825942D01*
X129533228Y-41825942D01*
X129604657Y-41790228D01*
X129640371Y-41754514D01*
X129676085Y-41683085D01*
X129676085Y-41468800D01*
X129640371Y-41397371D01*
X129604657Y-41361657D01*
X129604657Y-42147371D02*
X129640371Y-42183085D01*
X129676085Y-42147371D01*
X129640371Y-42111657D01*
X129604657Y-42147371D01*
X129676085Y-42147371D01*
X128926085Y-42433085D02*
X128926085Y-42897371D01*
X129211800Y-42647371D01*
X129211800Y-42754514D01*
X129247514Y-42825942D01*
X129283228Y-42861657D01*
X129354657Y-42897371D01*
X129533228Y-42897371D01*
X129604657Y-42861657D01*
X129640371Y-42825942D01*
X129676085Y-42754514D01*
X129676085Y-42540228D01*
X129640371Y-42468800D01*
X129604657Y-42433085D01*
X128926085Y-43111657D02*
X129676085Y-43361657D01*
X128926085Y-43611657D01*
X126418168Y-41846571D02*
X126382453Y-41775142D01*
X126382453Y-41668000D01*
X126418168Y-41560857D01*
X126489596Y-41489428D01*
X126561025Y-41453714D01*
X126703882Y-41418000D01*
X126811025Y-41418000D01*
X126953882Y-41453714D01*
X127025310Y-41489428D01*
X127096739Y-41560857D01*
X127132453Y-41668000D01*
X127132453Y-41739428D01*
X127096739Y-41846571D01*
X127061025Y-41882285D01*
X126811025Y-41882285D01*
X126811025Y-41739428D01*
X127132453Y-42203714D02*
X126382453Y-42203714D01*
X127132453Y-42632285D01*
X126382453Y-42632285D01*
X127132453Y-42989428D02*
X126382453Y-42989428D01*
X126382453Y-43168000D01*
X126418168Y-43275142D01*
X126489596Y-43346571D01*
X126561025Y-43382285D01*
X126703882Y-43418000D01*
X126811025Y-43418000D01*
X126953882Y-43382285D01*
X127025310Y-43346571D01*
X127096739Y-43275142D01*
X127132453Y-43168000D01*
X127132453Y-42989428D01*
X124484171Y-41398142D02*
X124519885Y-41505285D01*
X124519885Y-41683857D01*
X124484171Y-41755285D01*
X124448457Y-41791000D01*
X124377028Y-41826714D01*
X124305600Y-41826714D01*
X124234171Y-41791000D01*
X124198457Y-41755285D01*
X124162742Y-41683857D01*
X124127028Y-41541000D01*
X124091314Y-41469571D01*
X124055600Y-41433857D01*
X123984171Y-41398142D01*
X123912742Y-41398142D01*
X123841314Y-41433857D01*
X123805600Y-41469571D01*
X123769885Y-41541000D01*
X123769885Y-41719571D01*
X123805600Y-41826714D01*
X124448457Y-42576714D02*
X124484171Y-42541000D01*
X124519885Y-42433857D01*
X124519885Y-42362428D01*
X124484171Y-42255285D01*
X124412742Y-42183857D01*
X124341314Y-42148142D01*
X124198457Y-42112428D01*
X124091314Y-42112428D01*
X123948457Y-42148142D01*
X123877028Y-42183857D01*
X123805600Y-42255285D01*
X123769885Y-42362428D01*
X123769885Y-42433857D01*
X123805600Y-42541000D01*
X123841314Y-42576714D01*
X124519885Y-43255285D02*
X124519885Y-42898142D01*
X123769885Y-42898142D01*
X121918771Y-41405685D02*
X121954485Y-41512828D01*
X121954485Y-41691400D01*
X121918771Y-41762828D01*
X121883057Y-41798542D01*
X121811628Y-41834257D01*
X121740200Y-41834257D01*
X121668771Y-41798542D01*
X121633057Y-41762828D01*
X121597342Y-41691400D01*
X121561628Y-41548542D01*
X121525914Y-41477114D01*
X121490200Y-41441400D01*
X121418771Y-41405685D01*
X121347342Y-41405685D01*
X121275914Y-41441400D01*
X121240200Y-41477114D01*
X121204485Y-41548542D01*
X121204485Y-41727114D01*
X121240200Y-41834257D01*
X121954485Y-42155685D02*
X121204485Y-42155685D01*
X121204485Y-42334257D01*
X121240200Y-42441400D01*
X121311628Y-42512828D01*
X121383057Y-42548542D01*
X121525914Y-42584257D01*
X121633057Y-42584257D01*
X121775914Y-42548542D01*
X121847342Y-42512828D01*
X121918771Y-42441400D01*
X121954485Y-42334257D01*
X121954485Y-42155685D01*
X121740200Y-42869971D02*
X121740200Y-43227114D01*
X121954485Y-42798542D02*
X121204485Y-43048542D01*
X121954485Y-43298542D01*
X111870685Y-41453715D02*
X111120685Y-41453715D01*
X111120685Y-41739429D01*
X111156400Y-41810857D01*
X111192114Y-41846572D01*
X111263542Y-41882286D01*
X111370685Y-41882286D01*
X111442114Y-41846572D01*
X111477828Y-41810857D01*
X111513542Y-41739429D01*
X111513542Y-41453715D01*
X111120685Y-42132286D02*
X111870685Y-42310857D01*
X111334971Y-42453715D01*
X111870685Y-42596572D01*
X111120685Y-42775143D01*
X111870685Y-43489429D02*
X111513542Y-43239429D01*
X111870685Y-43060857D02*
X111120685Y-43060857D01*
X111120685Y-43346572D01*
X111156400Y-43418000D01*
X111192114Y-43453715D01*
X111263542Y-43489429D01*
X111370685Y-43489429D01*
X111442114Y-43453715D01*
X111477828Y-43418000D01*
X111513542Y-43346572D01*
X111513542Y-43060857D01*
X119287485Y-41766828D02*
X118894628Y-41766828D01*
X118823200Y-41731114D01*
X118787485Y-41659685D01*
X118787485Y-41516828D01*
X118823200Y-41445400D01*
X119251771Y-41766828D02*
X119287485Y-41695400D01*
X119287485Y-41516828D01*
X119251771Y-41445400D01*
X119180342Y-41409685D01*
X119108914Y-41409685D01*
X119037485Y-41445400D01*
X119001771Y-41516828D01*
X119001771Y-41695400D01*
X118966057Y-41766828D01*
X119287485Y-42231114D02*
X119251771Y-42159685D01*
X119180342Y-42123971D01*
X118537485Y-42123971D01*
X119251771Y-42802542D02*
X119287485Y-42731114D01*
X119287485Y-42588257D01*
X119251771Y-42516828D01*
X119180342Y-42481114D01*
X118894628Y-42481114D01*
X118823200Y-42516828D01*
X118787485Y-42588257D01*
X118787485Y-42731114D01*
X118823200Y-42802542D01*
X118894628Y-42838257D01*
X118966057Y-42838257D01*
X119037485Y-42481114D01*
X119287485Y-43159685D02*
X118787485Y-43159685D01*
X118930342Y-43159685D02*
X118858914Y-43195400D01*
X118823200Y-43231114D01*
X118787485Y-43302542D01*
X118787485Y-43373971D01*
X118787485Y-43516828D02*
X118787485Y-43802542D01*
X118537485Y-43623971D02*
X119180342Y-43623971D01*
X119251771Y-43659685D01*
X119287485Y-43731114D01*
X119287485Y-43802542D01*
X116957941Y-41453715D02*
X116207941Y-41453715D01*
X116957941Y-41882286D01*
X116207941Y-41882286D01*
X116172227Y-42775143D02*
X117136513Y-42132286D01*
X116886513Y-43453715D02*
X116922227Y-43418000D01*
X116957941Y-43310858D01*
X116957941Y-43239429D01*
X116922227Y-43132286D01*
X116850798Y-43060858D01*
X116779370Y-43025143D01*
X116636513Y-42989429D01*
X116529370Y-42989429D01*
X116386513Y-43025143D01*
X116315084Y-43060858D01*
X116243656Y-43132286D01*
X116207941Y-43239429D01*
X116207941Y-43310858D01*
X116243656Y-43418000D01*
X116279370Y-43453715D01*
X114414313Y-41453714D02*
X113664313Y-41453714D01*
X114200028Y-41703714D01*
X113664313Y-41953714D01*
X114414313Y-41953714D01*
X114414313Y-42310857D02*
X113664313Y-42310857D01*
X114200028Y-42560857D01*
X113664313Y-42810857D01*
X114414313Y-42810857D01*
X114414313Y-43525143D02*
X114414313Y-43168000D01*
X113664313Y-43168000D01*
X113664313Y-43918000D02*
X113664313Y-44060857D01*
X113700028Y-44132286D01*
X113771456Y-44203714D01*
X113914313Y-44239429D01*
X114164313Y-44239429D01*
X114307170Y-44203714D01*
X114378599Y-44132286D01*
X114414313Y-44060857D01*
X114414313Y-43918000D01*
X114378599Y-43846571D01*
X114307170Y-43775143D01*
X114164313Y-43739429D01*
X113914313Y-43739429D01*
X113771456Y-43775143D01*
X113700028Y-43846571D01*
X113664313Y-43918000D01*
X114200028Y-44525143D02*
X114200028Y-44882286D01*
X114414313Y-44453714D02*
X113664313Y-44703714D01*
X114414313Y-44953714D01*
X114414313Y-45203714D02*
X113664313Y-45203714D01*
X113664313Y-45382286D01*
X113700028Y-45489429D01*
X113771456Y-45560857D01*
X113842885Y-45596571D01*
X113985742Y-45632286D01*
X114092885Y-45632286D01*
X114235742Y-45596571D01*
X114307170Y-45560857D01*
X114378599Y-45489429D01*
X114414313Y-45382286D01*
X114414313Y-45203714D01*
X114128599Y-45953714D02*
X114128599Y-46525143D01*
X114414313Y-46239429D02*
X113842885Y-46239429D01*
X95343142Y-89391685D02*
X95343142Y-88641685D01*
X94914571Y-89391685D01*
X94914571Y-88641685D01*
X94021714Y-88605971D02*
X94664571Y-89570257D01*
X93343142Y-89320257D02*
X93378857Y-89355971D01*
X93486000Y-89391685D01*
X93557428Y-89391685D01*
X93664571Y-89355971D01*
X93736000Y-89284542D01*
X93771714Y-89213114D01*
X93807428Y-89070257D01*
X93807428Y-88963114D01*
X93771714Y-88820257D01*
X93736000Y-88748828D01*
X93664571Y-88677400D01*
X93557428Y-88641685D01*
X93486000Y-88641685D01*
X93378857Y-88677400D01*
X93343142Y-88713114D01*
X95521713Y-86091525D02*
X95057428Y-86091525D01*
X95307428Y-86377240D01*
X95200285Y-86377240D01*
X95128856Y-86412954D01*
X95093142Y-86448668D01*
X95057428Y-86520097D01*
X95057428Y-86698668D01*
X95093142Y-86770097D01*
X95128856Y-86805811D01*
X95200285Y-86841525D01*
X95414571Y-86841525D01*
X95485999Y-86805811D01*
X95521713Y-86770097D01*
X94735999Y-86770097D02*
X94700285Y-86805811D01*
X94735999Y-86841525D01*
X94771713Y-86805811D01*
X94735999Y-86770097D01*
X94735999Y-86841525D01*
X94450285Y-86091525D02*
X93985999Y-86091525D01*
X94235999Y-86377240D01*
X94128856Y-86377240D01*
X94057428Y-86412954D01*
X94021713Y-86448668D01*
X93985999Y-86520097D01*
X93985999Y-86698668D01*
X94021713Y-86770097D01*
X94057428Y-86805811D01*
X94128856Y-86841525D01*
X94343142Y-86841525D01*
X94414571Y-86805811D01*
X94450285Y-86770097D01*
X93771713Y-86091525D02*
X93521713Y-86841525D01*
X93271713Y-86091525D01*
X95330057Y-81685171D02*
X95222914Y-81720885D01*
X95044342Y-81720885D01*
X94972914Y-81685171D01*
X94937200Y-81649457D01*
X94901485Y-81578028D01*
X94901485Y-81506600D01*
X94937200Y-81435171D01*
X94972914Y-81399457D01*
X95044342Y-81363742D01*
X95187200Y-81328028D01*
X95258628Y-81292314D01*
X95294342Y-81256600D01*
X95330057Y-81185171D01*
X95330057Y-81113742D01*
X95294342Y-81042314D01*
X95258628Y-81006600D01*
X95187200Y-80970885D01*
X95008628Y-80970885D01*
X94901485Y-81006600D01*
X94151485Y-81649457D02*
X94187200Y-81685171D01*
X94294342Y-81720885D01*
X94365771Y-81720885D01*
X94472914Y-81685171D01*
X94544342Y-81613742D01*
X94580057Y-81542314D01*
X94615771Y-81399457D01*
X94615771Y-81292314D01*
X94580057Y-81149457D01*
X94544342Y-81078028D01*
X94472914Y-81006600D01*
X94365771Y-80970885D01*
X94294342Y-80970885D01*
X94187200Y-81006600D01*
X94151485Y-81042314D01*
X93472914Y-81720885D02*
X93830057Y-81720885D01*
X93830057Y-80970885D01*
X97914571Y-78441045D02*
X97771714Y-78441045D01*
X97700285Y-78476760D01*
X97628857Y-78548188D01*
X97593143Y-78691045D01*
X97593143Y-78941045D01*
X97628857Y-79083902D01*
X97700285Y-79155331D01*
X97771714Y-79191045D01*
X97914571Y-79191045D01*
X97986000Y-79155331D01*
X98057428Y-79083902D01*
X98093143Y-78941045D01*
X98093143Y-78691045D01*
X98057428Y-78548188D01*
X97986000Y-78476760D01*
X97914571Y-78441045D01*
X97271714Y-78798188D02*
X97021714Y-78798188D01*
X96914571Y-79191045D02*
X97271714Y-79191045D01*
X97271714Y-78441045D01*
X96914571Y-78441045D01*
X96628857Y-79155331D02*
X96557428Y-79191045D01*
X96414571Y-79191045D01*
X96343143Y-79155331D01*
X96307428Y-79083902D01*
X96307428Y-79048188D01*
X96343143Y-78976760D01*
X96414571Y-78941045D01*
X96521714Y-78941045D01*
X96593143Y-78905331D01*
X96628857Y-78833902D01*
X96628857Y-78798188D01*
X96593143Y-78726760D01*
X96521714Y-78691045D01*
X96414571Y-78691045D01*
X96343143Y-78726760D01*
X95700285Y-79155331D02*
X95771714Y-79191045D01*
X95914571Y-79191045D01*
X95986000Y-79155331D01*
X96021714Y-79083902D01*
X96021714Y-78798188D01*
X95986000Y-78726760D01*
X95914571Y-78691045D01*
X95771714Y-78691045D01*
X95700285Y-78726760D01*
X95664571Y-78798188D01*
X95664571Y-78869617D01*
X96021714Y-78941045D01*
X95343143Y-79191045D02*
X95343143Y-78691045D01*
X95343143Y-78833902D02*
X95307428Y-78762474D01*
X95271714Y-78726760D01*
X95200285Y-78691045D01*
X95128857Y-78691045D01*
X94950285Y-78691045D02*
X94771714Y-79191045D01*
X94593143Y-78691045D01*
X94200285Y-79191045D02*
X94271714Y-79155331D01*
X94307428Y-79119617D01*
X94343143Y-79048188D01*
X94343143Y-78833902D01*
X94307428Y-78762474D01*
X94271714Y-78726760D01*
X94200285Y-78691045D01*
X94093143Y-78691045D01*
X94021714Y-78726760D01*
X93986000Y-78762474D01*
X93950285Y-78833902D01*
X93950285Y-79048188D01*
X93986000Y-79119617D01*
X94021714Y-79155331D01*
X94093143Y-79191045D01*
X94200285Y-79191045D01*
X93664571Y-79155331D02*
X93593143Y-79191045D01*
X93450285Y-79191045D01*
X93378857Y-79155331D01*
X93343143Y-79083902D01*
X93343143Y-79048188D01*
X93378857Y-78976760D01*
X93450285Y-78941045D01*
X93557428Y-78941045D01*
X93628857Y-78905331D01*
X93664571Y-78833902D01*
X93664571Y-78798188D01*
X93628857Y-78726760D01*
X93557428Y-78691045D01*
X93450285Y-78691045D01*
X93378857Y-78726760D01*
X95322514Y-84255651D02*
X95215371Y-84291365D01*
X95036800Y-84291365D01*
X94965371Y-84255651D01*
X94929657Y-84219937D01*
X94893942Y-84148508D01*
X94893942Y-84077080D01*
X94929657Y-84005651D01*
X94965371Y-83969937D01*
X95036800Y-83934222D01*
X95179657Y-83898508D01*
X95251085Y-83862794D01*
X95286800Y-83827080D01*
X95322514Y-83755651D01*
X95322514Y-83684222D01*
X95286800Y-83612794D01*
X95251085Y-83577080D01*
X95179657Y-83541365D01*
X95001085Y-83541365D01*
X94893942Y-83577080D01*
X94572514Y-84291365D02*
X94572514Y-83541365D01*
X94393942Y-83541365D01*
X94286800Y-83577080D01*
X94215371Y-83648508D01*
X94179657Y-83719937D01*
X94143942Y-83862794D01*
X94143942Y-83969937D01*
X94179657Y-84112794D01*
X94215371Y-84184222D01*
X94286800Y-84255651D01*
X94393942Y-84291365D01*
X94572514Y-84291365D01*
X93858228Y-84077080D02*
X93501085Y-84077080D01*
X93929657Y-84291365D02*
X93679657Y-83541365D01*
X93429657Y-84291365D01*
X94914571Y-75926600D02*
X94986000Y-75890885D01*
X95093143Y-75890885D01*
X95200285Y-75926600D01*
X95271714Y-75998028D01*
X95307428Y-76069457D01*
X95343143Y-76212314D01*
X95343143Y-76319457D01*
X95307428Y-76462314D01*
X95271714Y-76533742D01*
X95200285Y-76605171D01*
X95093143Y-76640885D01*
X95021714Y-76640885D01*
X94914571Y-76605171D01*
X94878857Y-76569457D01*
X94878857Y-76319457D01*
X95021714Y-76319457D01*
X94557428Y-76640885D02*
X94557428Y-75890885D01*
X94128857Y-76640885D01*
X94128857Y-75890885D01*
X93771714Y-76640885D02*
X93771714Y-75890885D01*
X93593143Y-75890885D01*
X93486000Y-75926600D01*
X93414571Y-75998028D01*
X93378857Y-76069457D01*
X93343143Y-76212314D01*
X93343143Y-76319457D01*
X93378857Y-76462314D01*
X93414571Y-76533742D01*
X93486000Y-76605171D01*
X93593143Y-76640885D01*
X93771714Y-76640885D01*
X73437714Y-63528171D02*
X72866285Y-63528171D01*
X73152000Y-63813885D02*
X73152000Y-63242457D01*
X74129371Y-66455485D02*
X74129371Y-65705485D01*
X73843657Y-65705485D01*
X73772228Y-65741200D01*
X73736514Y-65776914D01*
X73700800Y-65848342D01*
X73700800Y-65955485D01*
X73736514Y-66026914D01*
X73772228Y-66062628D01*
X73843657Y-66098342D01*
X74129371Y-66098342D01*
X73450800Y-65705485D02*
X73272228Y-66455485D01*
X73129371Y-65919771D01*
X72986514Y-66455485D01*
X72807942Y-65705485D01*
X72522228Y-66455485D02*
X72522228Y-65705485D01*
X72272228Y-66241200D01*
X72022228Y-65705485D01*
X72022228Y-66455485D01*
X73412314Y-60861171D02*
X72840885Y-60861171D01*
X48018171Y-66455485D02*
X48018171Y-65705485D01*
X47732457Y-65705485D01*
X47661028Y-65741200D01*
X47625314Y-65776914D01*
X47589600Y-65848342D01*
X47589600Y-65955485D01*
X47625314Y-66026914D01*
X47661028Y-66062628D01*
X47732457Y-66098342D01*
X48018171Y-66098342D01*
X47339600Y-65705485D02*
X47161028Y-66455485D01*
X47018171Y-65919771D01*
X46875314Y-66455485D01*
X46696742Y-65705485D01*
X46411028Y-66455485D02*
X46411028Y-65705485D01*
X46161028Y-66241200D01*
X45911028Y-65705485D01*
X45911028Y-66455485D01*
X47301114Y-60861171D02*
X46729685Y-60861171D01*
X47326514Y-63528171D02*
X46755085Y-63528171D01*
X47040800Y-63813885D02*
X47040800Y-63242457D01*
X57671857Y-68035200D02*
X57707571Y-67999485D01*
X57743285Y-67892342D01*
X57743285Y-67820914D01*
X57707571Y-67713771D01*
X57636142Y-67642342D01*
X57564714Y-67606628D01*
X57421857Y-67570914D01*
X57314714Y-67570914D01*
X57171857Y-67606628D01*
X57100428Y-67642342D01*
X57029000Y-67713771D01*
X56993285Y-67820914D01*
X56993285Y-67892342D01*
X57029000Y-67999485D01*
X57064714Y-68035200D01*
X57743285Y-68356628D02*
X56993285Y-68356628D01*
X57350428Y-68356628D02*
X57350428Y-68785200D01*
X57743285Y-68785200D02*
X56993285Y-68785200D01*
X57743285Y-69535200D02*
X57743285Y-69106628D01*
X57743285Y-69320914D02*
X56993285Y-69320914D01*
X57100428Y-69249485D01*
X57171857Y-69178057D01*
X57207571Y-69106628D01*
X57743285Y-70249485D02*
X57743285Y-69820914D01*
X57743285Y-70035200D02*
X56993285Y-70035200D01*
X57100428Y-69963771D01*
X57171857Y-69892342D01*
X57207571Y-69820914D01*
X55131857Y-68035200D02*
X55167571Y-67999485D01*
X55203285Y-67892342D01*
X55203285Y-67820914D01*
X55167571Y-67713771D01*
X55096142Y-67642342D01*
X55024714Y-67606628D01*
X54881857Y-67570914D01*
X54774714Y-67570914D01*
X54631857Y-67606628D01*
X54560428Y-67642342D01*
X54489000Y-67713771D01*
X54453285Y-67820914D01*
X54453285Y-67892342D01*
X54489000Y-67999485D01*
X54524714Y-68035200D01*
X55203285Y-68356628D02*
X54453285Y-68356628D01*
X54810428Y-68356628D02*
X54810428Y-68785200D01*
X55203285Y-68785200D02*
X54453285Y-68785200D01*
X55203285Y-69535200D02*
X55203285Y-69106628D01*
X55203285Y-69320914D02*
X54453285Y-69320914D01*
X54560428Y-69249485D01*
X54631857Y-69178057D01*
X54667571Y-69106628D01*
X54453285Y-69999485D02*
X54453285Y-70070914D01*
X54489000Y-70142342D01*
X54524714Y-70178057D01*
X54596142Y-70213771D01*
X54739000Y-70249485D01*
X54917571Y-70249485D01*
X55060428Y-70213771D01*
X55131857Y-70178057D01*
X55167571Y-70142342D01*
X55203285Y-70070914D01*
X55203285Y-69999485D01*
X55167571Y-69928057D01*
X55131857Y-69892342D01*
X55060428Y-69856628D01*
X54917571Y-69820914D01*
X54739000Y-69820914D01*
X54596142Y-69856628D01*
X54524714Y-69892342D01*
X54489000Y-69928057D01*
X54453285Y-69999485D01*
X50051857Y-68036742D02*
X50087571Y-68001028D01*
X50123285Y-67893885D01*
X50123285Y-67822457D01*
X50087571Y-67715314D01*
X50016142Y-67643885D01*
X49944714Y-67608171D01*
X49801857Y-67572457D01*
X49694714Y-67572457D01*
X49551857Y-67608171D01*
X49480428Y-67643885D01*
X49409000Y-67715314D01*
X49373285Y-67822457D01*
X49373285Y-67893885D01*
X49409000Y-68001028D01*
X49444714Y-68036742D01*
X50123285Y-68358171D02*
X49373285Y-68358171D01*
X49730428Y-68358171D02*
X49730428Y-68786742D01*
X50123285Y-68786742D02*
X49373285Y-68786742D01*
X49694714Y-69251028D02*
X49659000Y-69179600D01*
X49623285Y-69143885D01*
X49551857Y-69108171D01*
X49516142Y-69108171D01*
X49444714Y-69143885D01*
X49409000Y-69179600D01*
X49373285Y-69251028D01*
X49373285Y-69393885D01*
X49409000Y-69465314D01*
X49444714Y-69501028D01*
X49516142Y-69536742D01*
X49551857Y-69536742D01*
X49623285Y-69501028D01*
X49659000Y-69465314D01*
X49694714Y-69393885D01*
X49694714Y-69251028D01*
X49730428Y-69179600D01*
X49766142Y-69143885D01*
X49837571Y-69108171D01*
X49980428Y-69108171D01*
X50051857Y-69143885D01*
X50087571Y-69179600D01*
X50123285Y-69251028D01*
X50123285Y-69393885D01*
X50087571Y-69465314D01*
X50051857Y-69501028D01*
X49980428Y-69536742D01*
X49837571Y-69536742D01*
X49766142Y-69501028D01*
X49730428Y-69465314D01*
X49694714Y-69393885D01*
X52591857Y-68036742D02*
X52627571Y-68001028D01*
X52663285Y-67893885D01*
X52663285Y-67822457D01*
X52627571Y-67715314D01*
X52556142Y-67643885D01*
X52484714Y-67608171D01*
X52341857Y-67572457D01*
X52234714Y-67572457D01*
X52091857Y-67608171D01*
X52020428Y-67643885D01*
X51949000Y-67715314D01*
X51913285Y-67822457D01*
X51913285Y-67893885D01*
X51949000Y-68001028D01*
X51984714Y-68036742D01*
X52663285Y-68358171D02*
X51913285Y-68358171D01*
X52270428Y-68358171D02*
X52270428Y-68786742D01*
X52663285Y-68786742D02*
X51913285Y-68786742D01*
X52663285Y-69179600D02*
X52663285Y-69322457D01*
X52627571Y-69393885D01*
X52591857Y-69429600D01*
X52484714Y-69501028D01*
X52341857Y-69536742D01*
X52056142Y-69536742D01*
X51984714Y-69501028D01*
X51949000Y-69465314D01*
X51913285Y-69393885D01*
X51913285Y-69251028D01*
X51949000Y-69179600D01*
X51984714Y-69143885D01*
X52056142Y-69108171D01*
X52234714Y-69108171D01*
X52306142Y-69143885D01*
X52341857Y-69179600D01*
X52377571Y-69251028D01*
X52377571Y-69393885D01*
X52341857Y-69465314D01*
X52306142Y-69501028D01*
X52234714Y-69536742D01*
X78652257Y-68112942D02*
X78687971Y-68077228D01*
X78723685Y-67970085D01*
X78723685Y-67898657D01*
X78687971Y-67791514D01*
X78616542Y-67720085D01*
X78545114Y-67684371D01*
X78402257Y-67648657D01*
X78295114Y-67648657D01*
X78152257Y-67684371D01*
X78080828Y-67720085D01*
X78009400Y-67791514D01*
X77973685Y-67898657D01*
X77973685Y-67970085D01*
X78009400Y-68077228D01*
X78045114Y-68112942D01*
X78723685Y-68434371D02*
X77973685Y-68434371D01*
X78330828Y-68434371D02*
X78330828Y-68862942D01*
X78723685Y-68862942D02*
X77973685Y-68862942D01*
X77973685Y-69577228D02*
X77973685Y-69220085D01*
X78330828Y-69184371D01*
X78295114Y-69220085D01*
X78259400Y-69291514D01*
X78259400Y-69470085D01*
X78295114Y-69541514D01*
X78330828Y-69577228D01*
X78402257Y-69612942D01*
X78580828Y-69612942D01*
X78652257Y-69577228D01*
X78687971Y-69541514D01*
X78723685Y-69470085D01*
X78723685Y-69291514D01*
X78687971Y-69220085D01*
X78652257Y-69184371D01*
X76112257Y-68112942D02*
X76147971Y-68077228D01*
X76183685Y-67970085D01*
X76183685Y-67898657D01*
X76147971Y-67791514D01*
X76076542Y-67720085D01*
X76005114Y-67684371D01*
X75862257Y-67648657D01*
X75755114Y-67648657D01*
X75612257Y-67684371D01*
X75540828Y-67720085D01*
X75469400Y-67791514D01*
X75433685Y-67898657D01*
X75433685Y-67970085D01*
X75469400Y-68077228D01*
X75505114Y-68112942D01*
X76183685Y-68434371D02*
X75433685Y-68434371D01*
X75790828Y-68434371D02*
X75790828Y-68862942D01*
X76183685Y-68862942D02*
X75433685Y-68862942D01*
X75683685Y-69541514D02*
X76183685Y-69541514D01*
X75397971Y-69362942D02*
X75933685Y-69184371D01*
X75933685Y-69648657D01*
X83732257Y-68112942D02*
X83767971Y-68077228D01*
X83803685Y-67970085D01*
X83803685Y-67898657D01*
X83767971Y-67791514D01*
X83696542Y-67720085D01*
X83625114Y-67684371D01*
X83482257Y-67648657D01*
X83375114Y-67648657D01*
X83232257Y-67684371D01*
X83160828Y-67720085D01*
X83089400Y-67791514D01*
X83053685Y-67898657D01*
X83053685Y-67970085D01*
X83089400Y-68077228D01*
X83125114Y-68112942D01*
X83803685Y-68434371D02*
X83053685Y-68434371D01*
X83410828Y-68434371D02*
X83410828Y-68862942D01*
X83803685Y-68862942D02*
X83053685Y-68862942D01*
X83053685Y-69148657D02*
X83053685Y-69648657D01*
X83803685Y-69327228D01*
X81192257Y-68112942D02*
X81227971Y-68077228D01*
X81263685Y-67970085D01*
X81263685Y-67898657D01*
X81227971Y-67791514D01*
X81156542Y-67720085D01*
X81085114Y-67684371D01*
X80942257Y-67648657D01*
X80835114Y-67648657D01*
X80692257Y-67684371D01*
X80620828Y-67720085D01*
X80549400Y-67791514D01*
X80513685Y-67898657D01*
X80513685Y-67970085D01*
X80549400Y-68077228D01*
X80585114Y-68112942D01*
X81263685Y-68434371D02*
X80513685Y-68434371D01*
X80870828Y-68434371D02*
X80870828Y-68862942D01*
X81263685Y-68862942D02*
X80513685Y-68862942D01*
X80513685Y-69541514D02*
X80513685Y-69398657D01*
X80549400Y-69327228D01*
X80585114Y-69291514D01*
X80692257Y-69220085D01*
X80835114Y-69184371D01*
X81120828Y-69184371D01*
X81192257Y-69220085D01*
X81227971Y-69255800D01*
X81263685Y-69327228D01*
X81263685Y-69470085D01*
X81227971Y-69541514D01*
X81192257Y-69577228D01*
X81120828Y-69612942D01*
X80942257Y-69612942D01*
X80870828Y-69577228D01*
X80835114Y-69541514D01*
X80799400Y-69470085D01*
X80799400Y-69327228D01*
X80835114Y-69255800D01*
X80870828Y-69220085D01*
X80942257Y-69184371D01*
X31197200Y-47348056D02*
X31161485Y-47276627D01*
X31161485Y-47169485D01*
X31197200Y-47062342D01*
X31268628Y-46990913D01*
X31340057Y-46955199D01*
X31482914Y-46919485D01*
X31590057Y-46919485D01*
X31732914Y-46955199D01*
X31804342Y-46990913D01*
X31875771Y-47062342D01*
X31911485Y-47169485D01*
X31911485Y-47240913D01*
X31875771Y-47348056D01*
X31840057Y-47383770D01*
X31590057Y-47383770D01*
X31590057Y-47240913D01*
X31911485Y-47705199D02*
X31161485Y-47705199D01*
X31911485Y-48133770D01*
X31161485Y-48133770D01*
X31911485Y-48490913D02*
X31161485Y-48490913D01*
X31161485Y-48669485D01*
X31197200Y-48776627D01*
X31268628Y-48848056D01*
X31340057Y-48883770D01*
X31482914Y-48919485D01*
X31590057Y-48919485D01*
X31732914Y-48883770D01*
X31804342Y-48848056D01*
X31875771Y-48776627D01*
X31911485Y-48669485D01*
X31911485Y-48490913D01*
X28596085Y-47312342D02*
X28596085Y-46955200D01*
X28953228Y-46919485D01*
X28917514Y-46955200D01*
X28881800Y-47026628D01*
X28881800Y-47205200D01*
X28917514Y-47276628D01*
X28953228Y-47312342D01*
X29024657Y-47348057D01*
X29203228Y-47348057D01*
X29274657Y-47312342D01*
X29310371Y-47276628D01*
X29346085Y-47205200D01*
X29346085Y-47026628D01*
X29310371Y-46955200D01*
X29274657Y-46919485D01*
X28596085Y-47562342D02*
X29346085Y-47812342D01*
X28596085Y-48062342D01*
X26030685Y-47312342D02*
X26030685Y-46955200D01*
X26387828Y-46919485D01*
X26352114Y-46955200D01*
X26316400Y-47026628D01*
X26316400Y-47205200D01*
X26352114Y-47276628D01*
X26387828Y-47312342D01*
X26459257Y-47348057D01*
X26637828Y-47348057D01*
X26709257Y-47312342D01*
X26744971Y-47276628D01*
X26780685Y-47205200D01*
X26780685Y-47026628D01*
X26744971Y-46955200D01*
X26709257Y-46919485D01*
X26030685Y-47562342D02*
X26780685Y-47812342D01*
X26030685Y-48062342D01*
X33762600Y-47348056D02*
X33726885Y-47276627D01*
X33726885Y-47169485D01*
X33762600Y-47062342D01*
X33834028Y-46990913D01*
X33905457Y-46955199D01*
X34048314Y-46919485D01*
X34155457Y-46919485D01*
X34298314Y-46955199D01*
X34369742Y-46990913D01*
X34441171Y-47062342D01*
X34476885Y-47169485D01*
X34476885Y-47240913D01*
X34441171Y-47348056D01*
X34405457Y-47383770D01*
X34155457Y-47383770D01*
X34155457Y-47240913D01*
X34476885Y-47705199D02*
X33726885Y-47705199D01*
X34476885Y-48133770D01*
X33726885Y-48133770D01*
X34476885Y-48490913D02*
X33726885Y-48490913D01*
X33726885Y-48669485D01*
X33762600Y-48776627D01*
X33834028Y-48848056D01*
X33905457Y-48883770D01*
X34048314Y-48919485D01*
X34155457Y-48919485D01*
X34298314Y-48883770D01*
X34369742Y-48848056D01*
X34441171Y-48776627D01*
X34476885Y-48669485D01*
X34476885Y-48490913D01*
X37042285Y-46759542D02*
X36292285Y-46759542D01*
X37042285Y-47188113D01*
X36292285Y-47188113D01*
X36256571Y-48080970D02*
X37220857Y-47438113D01*
X36970857Y-48759542D02*
X37006571Y-48723827D01*
X37042285Y-48616685D01*
X37042285Y-48545256D01*
X37006571Y-48438113D01*
X36935142Y-48366685D01*
X36863714Y-48330970D01*
X36720857Y-48295256D01*
X36613714Y-48295256D01*
X36470857Y-48330970D01*
X36399428Y-48366685D01*
X36328000Y-48438113D01*
X36292285Y-48545256D01*
X36292285Y-48616685D01*
X36328000Y-48723827D01*
X36363714Y-48759542D01*
X39588635Y-46759542D02*
X38838635Y-46759542D01*
X39588635Y-47188113D01*
X38838635Y-47188113D01*
X38802921Y-48080970D02*
X39767207Y-47438113D01*
X39517207Y-48759542D02*
X39552921Y-48723827D01*
X39588635Y-48616685D01*
X39588635Y-48545256D01*
X39552921Y-48438113D01*
X39481492Y-48366685D01*
X39410064Y-48330970D01*
X39267207Y-48295256D01*
X39160064Y-48295256D01*
X39017207Y-48330970D01*
X38945778Y-48366685D01*
X38874350Y-48438113D01*
X38838635Y-48545256D01*
X38838635Y-48616685D01*
X38874350Y-48723827D01*
X38910064Y-48759542D01*
X42134985Y-46759542D02*
X41384985Y-46759542D01*
X42134985Y-47188113D01*
X41384985Y-47188113D01*
X41349271Y-48080970D02*
X42313557Y-47438113D01*
X42063557Y-48759542D02*
X42099271Y-48723827D01*
X42134985Y-48616685D01*
X42134985Y-48545256D01*
X42099271Y-48438113D01*
X42027842Y-48366685D01*
X41956414Y-48330970D01*
X41813557Y-48295256D01*
X41706414Y-48295256D01*
X41563557Y-48330970D01*
X41492128Y-48366685D01*
X41420700Y-48438113D01*
X41384985Y-48545256D01*
X41384985Y-48616685D01*
X41420700Y-48723827D01*
X41456414Y-48759542D01*
X44681335Y-46759542D02*
X43931335Y-46759542D01*
X44681335Y-47188113D01*
X43931335Y-47188113D01*
X43895621Y-48080970D02*
X44859907Y-47438113D01*
X44609907Y-48759542D02*
X44645621Y-48723827D01*
X44681335Y-48616685D01*
X44681335Y-48545256D01*
X44645621Y-48438113D01*
X44574192Y-48366685D01*
X44502764Y-48330970D01*
X44359907Y-48295256D01*
X44252764Y-48295256D01*
X44109907Y-48330970D01*
X44038478Y-48366685D01*
X43967050Y-48438113D01*
X43931335Y-48545256D01*
X43931335Y-48616685D01*
X43967050Y-48723827D01*
X44002764Y-48759542D01*
X47227685Y-46759542D02*
X46477685Y-46759542D01*
X47227685Y-47188113D01*
X46477685Y-47188113D01*
X46441971Y-48080970D02*
X47406257Y-47438113D01*
X47156257Y-48759542D02*
X47191971Y-48723827D01*
X47227685Y-48616685D01*
X47227685Y-48545256D01*
X47191971Y-48438113D01*
X47120542Y-48366685D01*
X47049114Y-48330970D01*
X46906257Y-48295256D01*
X46799114Y-48295256D01*
X46656257Y-48330970D01*
X46584828Y-48366685D01*
X46513400Y-48438113D01*
X46477685Y-48545256D01*
X46477685Y-48616685D01*
X46513400Y-48723827D01*
X46549114Y-48759542D01*
X48977200Y-47348056D02*
X48941485Y-47276627D01*
X48941485Y-47169485D01*
X48977200Y-47062342D01*
X49048628Y-46990913D01*
X49120057Y-46955199D01*
X49262914Y-46919485D01*
X49370057Y-46919485D01*
X49512914Y-46955199D01*
X49584342Y-46990913D01*
X49655771Y-47062342D01*
X49691485Y-47169485D01*
X49691485Y-47240913D01*
X49655771Y-47348056D01*
X49620057Y-47383770D01*
X49370057Y-47383770D01*
X49370057Y-47240913D01*
X49691485Y-47705199D02*
X48941485Y-47705199D01*
X49691485Y-48133770D01*
X48941485Y-48133770D01*
X49691485Y-48490913D02*
X48941485Y-48490913D01*
X48941485Y-48669485D01*
X48977200Y-48776627D01*
X49048628Y-48848056D01*
X49120057Y-48883770D01*
X49262914Y-48919485D01*
X49370057Y-48919485D01*
X49512914Y-48883770D01*
X49584342Y-48848056D01*
X49655771Y-48776627D01*
X49691485Y-48669485D01*
X49691485Y-48490913D01*
X51517200Y-47348056D02*
X51481485Y-47276627D01*
X51481485Y-47169485D01*
X51517200Y-47062342D01*
X51588628Y-46990913D01*
X51660057Y-46955199D01*
X51802914Y-46919485D01*
X51910057Y-46919485D01*
X52052914Y-46955199D01*
X52124342Y-46990913D01*
X52195771Y-47062342D01*
X52231485Y-47169485D01*
X52231485Y-47240913D01*
X52195771Y-47348056D01*
X52160057Y-47383770D01*
X51910057Y-47383770D01*
X51910057Y-47240913D01*
X52231485Y-47705199D02*
X51481485Y-47705199D01*
X52231485Y-48133770D01*
X51481485Y-48133770D01*
X52231485Y-48490913D02*
X51481485Y-48490913D01*
X51481485Y-48669485D01*
X51517200Y-48776627D01*
X51588628Y-48848056D01*
X51660057Y-48883770D01*
X51802914Y-48919485D01*
X51910057Y-48919485D01*
X52052914Y-48883770D01*
X52124342Y-48848056D01*
X52195771Y-48776627D01*
X52231485Y-48669485D01*
X52231485Y-48490913D01*
X54771485Y-46955200D02*
X54021485Y-46955200D01*
X54021485Y-47240914D01*
X54057200Y-47312342D01*
X54092914Y-47348057D01*
X54164342Y-47383771D01*
X54271485Y-47383771D01*
X54342914Y-47348057D01*
X54378628Y-47312342D01*
X54414342Y-47240914D01*
X54414342Y-46955200D01*
X54021485Y-47633771D02*
X54771485Y-47812342D01*
X54235771Y-47955200D01*
X54771485Y-48098057D01*
X54021485Y-48276628D01*
X54771485Y-48990914D02*
X54414342Y-48740914D01*
X54771485Y-48562342D02*
X54021485Y-48562342D01*
X54021485Y-48848057D01*
X54057200Y-48919485D01*
X54092914Y-48955200D01*
X54164342Y-48990914D01*
X54271485Y-48990914D01*
X54342914Y-48955200D01*
X54378628Y-48919485D01*
X54414342Y-48848057D01*
X54414342Y-48562342D01*
X57311485Y-46955200D02*
X56561485Y-46955200D01*
X56561485Y-47240914D01*
X56597200Y-47312342D01*
X56632914Y-47348057D01*
X56704342Y-47383771D01*
X56811485Y-47383771D01*
X56882914Y-47348057D01*
X56918628Y-47312342D01*
X56954342Y-47240914D01*
X56954342Y-46955200D01*
X56561485Y-47633771D02*
X57311485Y-47812342D01*
X56775771Y-47955200D01*
X57311485Y-48098057D01*
X56561485Y-48276628D01*
X57311485Y-48990914D02*
X56954342Y-48740914D01*
X57311485Y-48562342D02*
X56561485Y-48562342D01*
X56561485Y-48848057D01*
X56597200Y-48919485D01*
X56632914Y-48955200D01*
X56704342Y-48990914D01*
X56811485Y-48990914D01*
X56882914Y-48955200D01*
X56918628Y-48919485D01*
X56954342Y-48848057D01*
X56954342Y-48562342D01*
X73262999Y-37474085D02*
X73262999Y-36724085D01*
X72834428Y-37474085D01*
X72834428Y-36724085D01*
X71941571Y-36688371D02*
X72584428Y-37652657D01*
X71262999Y-37402657D02*
X71298714Y-37438371D01*
X71405857Y-37474085D01*
X71477285Y-37474085D01*
X71584428Y-37438371D01*
X71655857Y-37366942D01*
X71691571Y-37295514D01*
X71727285Y-37152657D01*
X71727285Y-37045514D01*
X71691571Y-36902657D01*
X71655857Y-36831228D01*
X71584428Y-36759800D01*
X71477285Y-36724085D01*
X71405857Y-36724085D01*
X71298714Y-36759800D01*
X71262999Y-36795514D01*
X74655856Y-34927735D02*
X75084428Y-34927735D01*
X74870142Y-34927735D02*
X74870142Y-34177735D01*
X74941571Y-34284878D01*
X75012999Y-34356307D01*
X75084428Y-34392021D01*
X74370142Y-34249164D02*
X74334428Y-34213450D01*
X74262999Y-34177735D01*
X74084428Y-34177735D01*
X74012999Y-34213450D01*
X73977285Y-34249164D01*
X73941571Y-34320592D01*
X73941571Y-34392021D01*
X73977285Y-34499164D01*
X74405856Y-34927735D01*
X73941571Y-34927735D01*
X73727285Y-34177735D02*
X73477285Y-34927735D01*
X73227285Y-34177735D01*
X73155856Y-34999164D02*
X72584428Y-34999164D01*
X72405856Y-34534878D02*
X72155856Y-34534878D01*
X72048714Y-34927735D02*
X72405856Y-34927735D01*
X72405856Y-34177735D01*
X72048714Y-34177735D01*
X71727285Y-34927735D02*
X71727285Y-34177735D01*
X71298714Y-34927735D01*
X71298714Y-34177735D01*
X73298714Y-32381385D02*
X73298714Y-31631385D01*
X73012999Y-31631385D01*
X72941571Y-31667100D01*
X72905856Y-31702814D01*
X72870142Y-31774242D01*
X72870142Y-31881385D01*
X72905856Y-31952814D01*
X72941571Y-31988528D01*
X73012999Y-32024242D01*
X73298714Y-32024242D01*
X72620142Y-31631385D02*
X72441571Y-32381385D01*
X72298714Y-31845671D01*
X72155856Y-32381385D01*
X71977285Y-31631385D01*
X71262999Y-32381385D02*
X71512999Y-32024242D01*
X71691571Y-32381385D02*
X71691571Y-31631385D01*
X71405856Y-31631385D01*
X71334428Y-31667100D01*
X71298714Y-31702814D01*
X71262999Y-31774242D01*
X71262999Y-31881385D01*
X71298714Y-31952814D01*
X71334428Y-31988528D01*
X71405856Y-32024242D01*
X71691571Y-32024242D01*
X72834428Y-29120750D02*
X72905857Y-29085035D01*
X73013000Y-29085035D01*
X73120142Y-29120750D01*
X73191571Y-29192178D01*
X73227285Y-29263607D01*
X73263000Y-29406464D01*
X73263000Y-29513607D01*
X73227285Y-29656464D01*
X73191571Y-29727892D01*
X73120142Y-29799321D01*
X73013000Y-29835035D01*
X72941571Y-29835035D01*
X72834428Y-29799321D01*
X72798714Y-29763607D01*
X72798714Y-29513607D01*
X72941571Y-29513607D01*
X72477285Y-29835035D02*
X72477285Y-29085035D01*
X72048714Y-29835035D01*
X72048714Y-29085035D01*
X71691571Y-29835035D02*
X71691571Y-29085035D01*
X71513000Y-29085035D01*
X71405857Y-29120750D01*
X71334428Y-29192178D01*
X71298714Y-29263607D01*
X71263000Y-29406464D01*
X71263000Y-29513607D01*
X71298714Y-29656464D01*
X71334428Y-29727892D01*
X71405857Y-29799321D01*
X71513000Y-29835035D01*
X71691571Y-29835035D01*
X72620142Y-27288685D02*
X73048714Y-27288685D01*
X72834428Y-27288685D02*
X72834428Y-26538685D01*
X72905857Y-26645828D01*
X72977285Y-26717257D01*
X73048714Y-26752971D01*
X72334428Y-26610114D02*
X72298714Y-26574400D01*
X72227285Y-26538685D01*
X72048714Y-26538685D01*
X71977285Y-26574400D01*
X71941571Y-26610114D01*
X71905857Y-26681542D01*
X71905857Y-26752971D01*
X71941571Y-26860114D01*
X72370142Y-27288685D01*
X71905857Y-27288685D01*
X71691571Y-26538685D02*
X71441571Y-27288685D01*
X71191571Y-26538685D01*
X142219371Y-40344285D02*
X142219371Y-39594285D01*
X141969371Y-40130000D01*
X141719371Y-39594285D01*
X141719371Y-40344285D01*
X140969371Y-40344285D02*
X141397943Y-40344285D01*
X141183657Y-40344285D02*
X141183657Y-39594285D01*
X141255086Y-39701428D01*
X141326514Y-39772857D01*
X141397943Y-39808571D01*
X140397943Y-39951428D02*
X140290800Y-39987142D01*
X140255086Y-40022857D01*
X140219371Y-40094285D01*
X140219371Y-40201428D01*
X140255086Y-40272857D01*
X140290800Y-40308571D01*
X140362229Y-40344285D01*
X140647943Y-40344285D01*
X140647943Y-39594285D01*
X140397943Y-39594285D01*
X140326514Y-39630000D01*
X140290800Y-39665714D01*
X140255086Y-39737142D01*
X140255086Y-39808571D01*
X140290800Y-39880000D01*
X140326514Y-39915714D01*
X140397943Y-39951428D01*
X140647943Y-39951428D01*
X142219371Y-27339485D02*
X142219371Y-26589485D01*
X141969371Y-27125200D01*
X141719371Y-26589485D01*
X141719371Y-27339485D01*
X141397943Y-26660914D02*
X141362229Y-26625200D01*
X141290800Y-26589485D01*
X141112229Y-26589485D01*
X141040800Y-26625200D01*
X141005086Y-26660914D01*
X140969371Y-26732342D01*
X140969371Y-26803771D01*
X141005086Y-26910914D01*
X141433657Y-27339485D01*
X140969371Y-27339485D01*
X140397943Y-26946628D02*
X140290800Y-26982342D01*
X140255086Y-27018057D01*
X140219371Y-27089485D01*
X140219371Y-27196628D01*
X140255086Y-27268057D01*
X140290800Y-27303771D01*
X140362229Y-27339485D01*
X140647943Y-27339485D01*
X140647943Y-26589485D01*
X140397943Y-26589485D01*
X140326514Y-26625200D01*
X140290800Y-26660914D01*
X140255086Y-26732342D01*
X140255086Y-26803771D01*
X140290800Y-26875200D01*
X140326514Y-26910914D01*
X140397943Y-26946628D01*
X140647943Y-26946628D01*
X142255086Y-36864485D02*
X142255086Y-36114485D01*
X141969371Y-36114485D01*
X141897943Y-36150200D01*
X141862228Y-36185914D01*
X141826514Y-36257342D01*
X141826514Y-36364485D01*
X141862228Y-36435914D01*
X141897943Y-36471628D01*
X141969371Y-36507342D01*
X142255086Y-36507342D01*
X141576514Y-36114485D02*
X141397943Y-36864485D01*
X141255086Y-36328771D01*
X141112228Y-36864485D01*
X140933657Y-36114485D01*
X140219371Y-36864485D02*
X140469371Y-36507342D01*
X140647943Y-36864485D02*
X140647943Y-36114485D01*
X140362228Y-36114485D01*
X140290800Y-36150200D01*
X140255086Y-36185914D01*
X140219371Y-36257342D01*
X140219371Y-36364485D01*
X140255086Y-36435914D01*
X140290800Y-36471628D01*
X140362228Y-36507342D01*
X140647943Y-36507342D01*
X142112229Y-29854085D02*
X142112229Y-29104085D01*
X141862229Y-29639800D01*
X141612229Y-29104085D01*
X141612229Y-29854085D01*
X141290800Y-29175514D02*
X141255086Y-29139800D01*
X141183658Y-29104085D01*
X141005086Y-29104085D01*
X140933658Y-29139800D01*
X140897943Y-29175514D01*
X140862229Y-29246942D01*
X140862229Y-29318371D01*
X140897943Y-29425514D01*
X141326515Y-29854085D01*
X140862229Y-29854085D01*
X140576515Y-29639800D02*
X140219372Y-29639800D01*
X140647943Y-29854085D02*
X140397943Y-29104085D01*
X140147943Y-29854085D01*
X142112229Y-42808085D02*
X142112229Y-42058085D01*
X141862229Y-42593800D01*
X141612229Y-42058085D01*
X141612229Y-42808085D01*
X140862229Y-42808085D02*
X141290800Y-42808085D01*
X141076515Y-42808085D02*
X141076515Y-42058085D01*
X141147943Y-42165228D01*
X141219372Y-42236657D01*
X141290800Y-42272371D01*
X140576515Y-42593800D02*
X140219372Y-42593800D01*
X140647943Y-42808085D02*
X140397943Y-42058085D01*
X140147943Y-42808085D01*
X141790800Y-32645000D02*
X141862229Y-32609285D01*
X141969372Y-32609285D01*
X142076514Y-32645000D01*
X142147943Y-32716428D01*
X142183657Y-32787857D01*
X142219372Y-32930714D01*
X142219372Y-33037857D01*
X142183657Y-33180714D01*
X142147943Y-33252142D01*
X142076514Y-33323571D01*
X141969372Y-33359285D01*
X141897943Y-33359285D01*
X141790800Y-33323571D01*
X141755086Y-33287857D01*
X141755086Y-33037857D01*
X141897943Y-33037857D01*
X141433657Y-33359285D02*
X141433657Y-32609285D01*
X141005086Y-33359285D01*
X141005086Y-32609285D01*
X140647943Y-33359285D02*
X140647943Y-32609285D01*
X140469372Y-32609285D01*
X140362229Y-32645000D01*
X140290800Y-32716428D01*
X140255086Y-32787857D01*
X140219372Y-32930714D01*
X140219372Y-33037857D01*
X140255086Y-33180714D01*
X140290800Y-33252142D01*
X140362229Y-33323571D01*
X140469372Y-33359285D01*
X140647943Y-33359285D01*
X210504886Y-79079285D02*
X210504886Y-78329285D01*
X210219171Y-78329285D01*
X210147743Y-78365000D01*
X210112028Y-78400714D01*
X210076314Y-78472142D01*
X210076314Y-78579285D01*
X210112028Y-78650714D01*
X210147743Y-78686428D01*
X210219171Y-78722142D01*
X210504886Y-78722142D01*
X209826314Y-78329285D02*
X209647743Y-79079285D01*
X209504886Y-78543571D01*
X209362028Y-79079285D01*
X209183457Y-78329285D01*
X208469171Y-79079285D02*
X208719171Y-78722142D01*
X208897743Y-79079285D02*
X208897743Y-78329285D01*
X208612028Y-78329285D01*
X208540600Y-78365000D01*
X208504886Y-78400714D01*
X208469171Y-78472142D01*
X208469171Y-78579285D01*
X208504886Y-78650714D01*
X208540600Y-78686428D01*
X208612028Y-78722142D01*
X208897743Y-78722142D01*
X210469171Y-69554285D02*
X210469171Y-68804285D01*
X210219171Y-69340000D01*
X209969171Y-68804285D01*
X209969171Y-69554285D01*
X209647743Y-68875714D02*
X209612029Y-68840000D01*
X209540600Y-68804285D01*
X209362029Y-68804285D01*
X209290600Y-68840000D01*
X209254886Y-68875714D01*
X209219171Y-68947142D01*
X209219171Y-69018571D01*
X209254886Y-69125714D01*
X209683457Y-69554285D01*
X209219171Y-69554285D01*
X208647743Y-69161428D02*
X208540600Y-69197142D01*
X208504886Y-69232857D01*
X208469171Y-69304285D01*
X208469171Y-69411428D01*
X208504886Y-69482857D01*
X208540600Y-69518571D01*
X208612029Y-69554285D01*
X208897743Y-69554285D01*
X208897743Y-68804285D01*
X208647743Y-68804285D01*
X208576314Y-68840000D01*
X208540600Y-68875714D01*
X208504886Y-68947142D01*
X208504886Y-69018571D01*
X208540600Y-69090000D01*
X208576314Y-69125714D01*
X208647743Y-69161428D01*
X208897743Y-69161428D01*
X210362029Y-72068885D02*
X210362029Y-71318885D01*
X210112029Y-71854600D01*
X209862029Y-71318885D01*
X209862029Y-72068885D01*
X209540600Y-71390314D02*
X209504886Y-71354600D01*
X209433458Y-71318885D01*
X209254886Y-71318885D01*
X209183458Y-71354600D01*
X209147743Y-71390314D01*
X209112029Y-71461742D01*
X209112029Y-71533171D01*
X209147743Y-71640314D01*
X209576315Y-72068885D01*
X209112029Y-72068885D01*
X208826315Y-71854600D02*
X208469172Y-71854600D01*
X208897743Y-72068885D02*
X208647743Y-71318885D01*
X208397743Y-72068885D01*
X210040600Y-74859800D02*
X210112029Y-74824085D01*
X210219172Y-74824085D01*
X210326314Y-74859800D01*
X210397743Y-74931228D01*
X210433457Y-75002657D01*
X210469172Y-75145514D01*
X210469172Y-75252657D01*
X210433457Y-75395514D01*
X210397743Y-75466942D01*
X210326314Y-75538371D01*
X210219172Y-75574085D01*
X210147743Y-75574085D01*
X210040600Y-75538371D01*
X210004886Y-75502657D01*
X210004886Y-75252657D01*
X210147743Y-75252657D01*
X209683457Y-75574085D02*
X209683457Y-74824085D01*
X209254886Y-75574085D01*
X209254886Y-74824085D01*
X208897743Y-75574085D02*
X208897743Y-74824085D01*
X208719172Y-74824085D01*
X208612029Y-74859800D01*
X208540600Y-74931228D01*
X208504886Y-75002657D01*
X208469172Y-75145514D01*
X208469172Y-75252657D01*
X208504886Y-75395514D01*
X208540600Y-75466942D01*
X208612029Y-75538371D01*
X208719172Y-75574085D01*
X208897743Y-75574085D01*
X210362029Y-85022885D02*
X210362029Y-84272885D01*
X210112029Y-84808600D01*
X209862029Y-84272885D01*
X209862029Y-85022885D01*
X209112029Y-85022885D02*
X209540600Y-85022885D01*
X209326315Y-85022885D02*
X209326315Y-84272885D01*
X209397743Y-84380028D01*
X209469172Y-84451457D01*
X209540600Y-84487171D01*
X208826315Y-84808600D02*
X208469172Y-84808600D01*
X208897743Y-85022885D02*
X208647743Y-84272885D01*
X208397743Y-85022885D01*
X210469171Y-82559085D02*
X210469171Y-81809085D01*
X210219171Y-82344800D01*
X209969171Y-81809085D01*
X209969171Y-82559085D01*
X209219171Y-82559085D02*
X209647743Y-82559085D01*
X209433457Y-82559085D02*
X209433457Y-81809085D01*
X209504886Y-81916228D01*
X209576314Y-81987657D01*
X209647743Y-82023371D01*
X208647743Y-82166228D02*
X208540600Y-82201942D01*
X208504886Y-82237657D01*
X208469171Y-82309085D01*
X208469171Y-82416228D01*
X208504886Y-82487657D01*
X208540600Y-82523371D01*
X208612029Y-82559085D01*
X208897743Y-82559085D01*
X208897743Y-81809085D01*
X208647743Y-81809085D01*
X208576314Y-81844800D01*
X208540600Y-81880514D01*
X208504886Y-81951942D01*
X208504886Y-82023371D01*
X208540600Y-82094800D01*
X208576314Y-82130514D01*
X208647743Y-82166228D01*
X208897743Y-82166228D01*
X215184980Y-61945538D02*
X214708790Y-61612204D01*
X215184980Y-61374109D02*
X214184980Y-61374109D01*
X214184980Y-61755061D01*
X214232600Y-61850300D01*
X214280219Y-61897919D01*
X214375457Y-61945538D01*
X214518314Y-61945538D01*
X214613552Y-61897919D01*
X214661171Y-61850300D01*
X214708790Y-61755061D01*
X214708790Y-61374109D01*
X215089742Y-62945538D02*
X215137361Y-62897919D01*
X215184980Y-62755061D01*
X215184980Y-62659823D01*
X215137361Y-62516966D01*
X215042123Y-62421728D01*
X214946885Y-62374109D01*
X214756409Y-62326490D01*
X214613552Y-62326490D01*
X214423076Y-62374109D01*
X214327838Y-62421728D01*
X214232600Y-62516966D01*
X214184980Y-62659823D01*
X214184980Y-62755061D01*
X214232600Y-62897919D01*
X214280219Y-62945538D01*
X214280219Y-63326490D02*
X214232600Y-63374109D01*
X214184980Y-63469347D01*
X214184980Y-63707442D01*
X214232600Y-63802680D01*
X214280219Y-63850300D01*
X214375457Y-63897919D01*
X214470695Y-63897919D01*
X214613552Y-63850300D01*
X215184980Y-63278871D01*
X215184980Y-63897919D01*
X216834980Y-60183633D02*
X215834980Y-60183633D01*
X216549266Y-60516966D01*
X215834980Y-60850300D01*
X216834980Y-60850300D01*
X216834980Y-61469347D02*
X216787361Y-61374109D01*
X216739742Y-61326490D01*
X216644504Y-61278871D01*
X216358790Y-61278871D01*
X216263552Y-61326490D01*
X216215933Y-61374109D01*
X216168314Y-61469347D01*
X216168314Y-61612204D01*
X216215933Y-61707442D01*
X216263552Y-61755061D01*
X216358790Y-61802680D01*
X216644504Y-61802680D01*
X216739742Y-61755061D01*
X216787361Y-61707442D01*
X216834980Y-61612204D01*
X216834980Y-61469347D01*
X216168314Y-62088395D02*
X216168314Y-62469347D01*
X215834980Y-62231252D02*
X216692123Y-62231252D01*
X216787361Y-62278871D01*
X216834980Y-62374109D01*
X216834980Y-62469347D01*
X216834980Y-62945538D02*
X216787361Y-62850300D01*
X216739742Y-62802680D01*
X216644504Y-62755061D01*
X216358790Y-62755061D01*
X216263552Y-62802680D01*
X216215933Y-62850300D01*
X216168314Y-62945538D01*
X216168314Y-63088395D01*
X216215933Y-63183633D01*
X216263552Y-63231252D01*
X216358790Y-63278871D01*
X216644504Y-63278871D01*
X216739742Y-63231252D01*
X216787361Y-63183633D01*
X216834980Y-63088395D01*
X216834980Y-62945538D01*
X216834980Y-63707442D02*
X216168314Y-63707442D01*
X216358790Y-63707442D02*
X216263552Y-63755061D01*
X216215933Y-63802680D01*
X216168314Y-63897919D01*
X216168314Y-63993157D01*
X218437361Y-60088395D02*
X218484980Y-60231252D01*
X218484980Y-60469347D01*
X218437361Y-60564585D01*
X218389742Y-60612204D01*
X218294504Y-60659823D01*
X218199266Y-60659823D01*
X218104028Y-60612204D01*
X218056409Y-60564585D01*
X218008790Y-60469347D01*
X217961171Y-60278871D01*
X217913552Y-60183633D01*
X217865933Y-60136014D01*
X217770695Y-60088395D01*
X217675457Y-60088395D01*
X217580219Y-60136014D01*
X217532600Y-60183633D01*
X217484980Y-60278871D01*
X217484980Y-60516966D01*
X217532600Y-60659823D01*
X217818314Y-61516966D02*
X218484980Y-61516966D01*
X217818314Y-61088395D02*
X218342123Y-61088395D01*
X218437361Y-61136014D01*
X218484980Y-61231252D01*
X218484980Y-61374109D01*
X218437361Y-61469347D01*
X218389742Y-61516966D01*
X217818314Y-61993157D02*
X218818314Y-61993157D01*
X217865933Y-61993157D02*
X217818314Y-62088395D01*
X217818314Y-62278871D01*
X217865933Y-62374109D01*
X217913552Y-62421728D01*
X218008790Y-62469347D01*
X218294504Y-62469347D01*
X218389742Y-62421728D01*
X218437361Y-62374109D01*
X218484980Y-62278871D01*
X218484980Y-62088395D01*
X218437361Y-61993157D01*
X217818314Y-62897919D02*
X218818314Y-62897919D01*
X217865933Y-62897919D02*
X217818314Y-62993157D01*
X217818314Y-63183633D01*
X217865933Y-63278871D01*
X217913552Y-63326490D01*
X218008790Y-63374109D01*
X218294504Y-63374109D01*
X218389742Y-63326490D01*
X218437361Y-63278871D01*
X218484980Y-63183633D01*
X218484980Y-62993157D01*
X218437361Y-62897919D01*
X218484980Y-63945538D02*
X218437361Y-63850300D01*
X218342123Y-63802680D01*
X217484980Y-63802680D01*
X217818314Y-64231252D02*
X218484980Y-64469347D01*
X217818314Y-64707442D02*
X218484980Y-64469347D01*
X218723076Y-64374109D01*
X218770695Y-64326490D01*
X218818314Y-64231252D01*
X139441180Y-28136009D02*
X138964990Y-27802676D01*
X139441180Y-27564580D02*
X138441180Y-27564580D01*
X138441180Y-27945533D01*
X138488800Y-28040771D01*
X138536419Y-28088390D01*
X138631657Y-28136009D01*
X138774514Y-28136009D01*
X138869752Y-28088390D01*
X138917371Y-28040771D01*
X138964990Y-27945533D01*
X138964990Y-27564580D01*
X139345942Y-29136009D02*
X139393561Y-29088390D01*
X139441180Y-28945533D01*
X139441180Y-28850295D01*
X139393561Y-28707438D01*
X139298323Y-28612200D01*
X139203085Y-28564580D01*
X139012609Y-28516961D01*
X138869752Y-28516961D01*
X138679276Y-28564580D01*
X138584038Y-28612200D01*
X138488800Y-28707438D01*
X138441180Y-28850295D01*
X138441180Y-28945533D01*
X138488800Y-29088390D01*
X138536419Y-29136009D01*
X138441180Y-29469342D02*
X138441180Y-30088390D01*
X138822133Y-29755057D01*
X138822133Y-29897914D01*
X138869752Y-29993152D01*
X138917371Y-30040771D01*
X139012609Y-30088390D01*
X139250704Y-30088390D01*
X139345942Y-30040771D01*
X139393561Y-29993152D01*
X139441180Y-29897914D01*
X139441180Y-29612200D01*
X139393561Y-29516961D01*
X139345942Y-29469342D01*
X139441180Y-31278866D02*
X138441180Y-31278866D01*
X139155466Y-31612200D01*
X138441180Y-31945533D01*
X139441180Y-31945533D01*
X139441180Y-32564580D02*
X139393561Y-32469342D01*
X139345942Y-32421723D01*
X139250704Y-32374104D01*
X138964990Y-32374104D01*
X138869752Y-32421723D01*
X138822133Y-32469342D01*
X138774514Y-32564580D01*
X138774514Y-32707438D01*
X138822133Y-32802676D01*
X138869752Y-32850295D01*
X138964990Y-32897914D01*
X139250704Y-32897914D01*
X139345942Y-32850295D01*
X139393561Y-32802676D01*
X139441180Y-32707438D01*
X139441180Y-32564580D01*
X138774514Y-33183628D02*
X138774514Y-33564580D01*
X138441180Y-33326485D02*
X139298323Y-33326485D01*
X139393561Y-33374104D01*
X139441180Y-33469342D01*
X139441180Y-33564580D01*
X139441180Y-34040771D02*
X139393561Y-33945533D01*
X139345942Y-33897914D01*
X139250704Y-33850295D01*
X138964990Y-33850295D01*
X138869752Y-33897914D01*
X138822133Y-33945533D01*
X138774514Y-34040771D01*
X138774514Y-34183628D01*
X138822133Y-34278866D01*
X138869752Y-34326485D01*
X138964990Y-34374104D01*
X139250704Y-34374104D01*
X139345942Y-34326485D01*
X139393561Y-34278866D01*
X139441180Y-34183628D01*
X139441180Y-34040771D01*
X139441180Y-34802676D02*
X138774514Y-34802676D01*
X138964990Y-34802676D02*
X138869752Y-34850295D01*
X138822133Y-34897914D01*
X138774514Y-34993152D01*
X138774514Y-35088390D01*
X139393561Y-36136009D02*
X139441180Y-36278866D01*
X139441180Y-36516961D01*
X139393561Y-36612200D01*
X139345942Y-36659819D01*
X139250704Y-36707438D01*
X139155466Y-36707438D01*
X139060228Y-36659819D01*
X139012609Y-36612200D01*
X138964990Y-36516961D01*
X138917371Y-36326485D01*
X138869752Y-36231247D01*
X138822133Y-36183628D01*
X138726895Y-36136009D01*
X138631657Y-36136009D01*
X138536419Y-36183628D01*
X138488800Y-36231247D01*
X138441180Y-36326485D01*
X138441180Y-36564580D01*
X138488800Y-36707438D01*
X138774514Y-37564580D02*
X139441180Y-37564580D01*
X138774514Y-37136009D02*
X139298323Y-37136009D01*
X139393561Y-37183628D01*
X139441180Y-37278866D01*
X139441180Y-37421723D01*
X139393561Y-37516961D01*
X139345942Y-37564580D01*
X138774514Y-38040771D02*
X139774514Y-38040771D01*
X138822133Y-38040771D02*
X138774514Y-38136009D01*
X138774514Y-38326485D01*
X138822133Y-38421723D01*
X138869752Y-38469342D01*
X138964990Y-38516961D01*
X139250704Y-38516961D01*
X139345942Y-38469342D01*
X139393561Y-38421723D01*
X139441180Y-38326485D01*
X139441180Y-38136009D01*
X139393561Y-38040771D01*
X138774514Y-38945533D02*
X139774514Y-38945533D01*
X138822133Y-38945533D02*
X138774514Y-39040771D01*
X138774514Y-39231247D01*
X138822133Y-39326485D01*
X138869752Y-39374104D01*
X138964990Y-39421723D01*
X139250704Y-39421723D01*
X139345942Y-39374104D01*
X139393561Y-39326485D01*
X139441180Y-39231247D01*
X139441180Y-39040771D01*
X139393561Y-38945533D01*
X139441180Y-39993152D02*
X139393561Y-39897914D01*
X139298323Y-39850295D01*
X138441180Y-39850295D01*
X138774514Y-40278866D02*
X139441180Y-40516961D01*
X138774514Y-40755057D02*
X139441180Y-40516961D01*
X139679276Y-40421723D01*
X139726895Y-40374104D01*
X139774514Y-40278866D01*
X7302476Y-37780980D02*
X7778666Y-37780980D01*
X7826285Y-38257171D01*
X7778666Y-38209552D01*
X7683428Y-38161933D01*
X7445333Y-38161933D01*
X7350095Y-38209552D01*
X7302476Y-38257171D01*
X7254857Y-38352409D01*
X7254857Y-38590504D01*
X7302476Y-38685742D01*
X7350095Y-38733361D01*
X7445333Y-38780980D01*
X7683428Y-38780980D01*
X7778666Y-38733361D01*
X7826285Y-38685742D01*
X6969142Y-37780980D02*
X6635809Y-38780980D01*
X6302476Y-37780980D01*
X9496228Y-48950571D02*
X9353371Y-48998190D01*
X9305752Y-49045809D01*
X9258133Y-49141047D01*
X9258133Y-49283904D01*
X9305752Y-49379142D01*
X9353371Y-49426761D01*
X9448609Y-49474380D01*
X9829561Y-49474380D01*
X9829561Y-48474380D01*
X9496228Y-48474380D01*
X9400990Y-48522000D01*
X9353371Y-48569619D01*
X9305752Y-48664857D01*
X9305752Y-48760095D01*
X9353371Y-48855333D01*
X9400990Y-48902952D01*
X9496228Y-48950571D01*
X9829561Y-48950571D01*
X8400990Y-49474380D02*
X8400990Y-48950571D01*
X8448609Y-48855333D01*
X8543847Y-48807714D01*
X8734323Y-48807714D01*
X8829561Y-48855333D01*
X8400990Y-49426761D02*
X8496228Y-49474380D01*
X8734323Y-49474380D01*
X8829561Y-49426761D01*
X8877180Y-49331523D01*
X8877180Y-49236285D01*
X8829561Y-49141047D01*
X8734323Y-49093428D01*
X8496228Y-49093428D01*
X8400990Y-49045809D01*
X8067657Y-48807714D02*
X7686704Y-48807714D01*
X7924800Y-48474380D02*
X7924800Y-49331523D01*
X7877180Y-49426761D01*
X7781942Y-49474380D01*
X7686704Y-49474380D01*
X7496228Y-48807714D02*
X7115276Y-48807714D01*
X7353371Y-48474380D02*
X7353371Y-49331523D01*
X7305752Y-49426761D01*
X7210514Y-49474380D01*
X7115276Y-49474380D01*
X6781942Y-49093428D02*
X6020038Y-49093428D01*
X6400990Y-49474380D02*
X6400990Y-48712476D01*
X8724733Y-56408580D02*
X8724733Y-55408580D01*
X8343780Y-55408580D01*
X8248542Y-55456200D01*
X8200923Y-55503819D01*
X8153304Y-55599057D01*
X8153304Y-55741914D01*
X8200923Y-55837152D01*
X8248542Y-55884771D01*
X8343780Y-55932390D01*
X8724733Y-55932390D01*
X7819971Y-55408580D02*
X7581876Y-56408580D01*
X7391400Y-55694295D01*
X7200923Y-56408580D01*
X6962828Y-55408580D01*
X6010447Y-56408580D02*
X6343780Y-55932390D01*
X6581876Y-56408580D02*
X6581876Y-55408580D01*
X6200923Y-55408580D01*
X6105685Y-55456200D01*
X6058066Y-55503819D01*
X6010447Y-55599057D01*
X6010447Y-55741914D01*
X6058066Y-55837152D01*
X6105685Y-55884771D01*
X6200923Y-55932390D01*
X6581876Y-55932390D01*
X8264447Y-44694100D02*
X8835876Y-44694100D01*
X8550161Y-44694100D02*
X8550161Y-43694100D01*
X8645400Y-43836958D01*
X8740638Y-43932196D01*
X8835876Y-43979815D01*
X7883495Y-43789339D02*
X7835876Y-43741720D01*
X7740638Y-43694100D01*
X7502542Y-43694100D01*
X7407304Y-43741720D01*
X7359685Y-43789339D01*
X7312066Y-43884577D01*
X7312066Y-43979815D01*
X7359685Y-44122672D01*
X7931114Y-44694100D01*
X7312066Y-44694100D01*
X7026352Y-43694100D02*
X6693019Y-44694100D01*
X6359685Y-43694100D01*
X9223190Y-31888180D02*
X8604142Y-31888180D01*
X8937476Y-32269133D01*
X8794619Y-32269133D01*
X8699380Y-32316752D01*
X8651761Y-32364371D01*
X8604142Y-32459609D01*
X8604142Y-32697704D01*
X8651761Y-32792942D01*
X8699380Y-32840561D01*
X8794619Y-32888180D01*
X9080333Y-32888180D01*
X9175571Y-32840561D01*
X9223190Y-32792942D01*
X8175571Y-32792942D02*
X8127952Y-32840561D01*
X8175571Y-32888180D01*
X8223190Y-32840561D01*
X8175571Y-32792942D01*
X8175571Y-32888180D01*
X7794619Y-31888180D02*
X7175571Y-31888180D01*
X7508904Y-32269133D01*
X7366047Y-32269133D01*
X7270809Y-32316752D01*
X7223190Y-32364371D01*
X7175571Y-32459609D01*
X7175571Y-32697704D01*
X7223190Y-32792942D01*
X7270809Y-32840561D01*
X7366047Y-32888180D01*
X7651761Y-32888180D01*
X7746999Y-32840561D01*
X7794619Y-32792942D01*
X6889857Y-31888180D02*
X6556523Y-32888180D01*
X6223190Y-31888180D01*
X8407304Y-26093800D02*
X8502542Y-26046180D01*
X8645400Y-26046180D01*
X8788257Y-26093800D01*
X8883495Y-26189038D01*
X8931114Y-26284276D01*
X8978733Y-26474752D01*
X8978733Y-26617609D01*
X8931114Y-26808085D01*
X8883495Y-26903323D01*
X8788257Y-26998561D01*
X8645400Y-27046180D01*
X8550161Y-27046180D01*
X8407304Y-26998561D01*
X8359685Y-26950942D01*
X8359685Y-26617609D01*
X8550161Y-26617609D01*
X7931114Y-27046180D02*
X7931114Y-26046180D01*
X7359685Y-27046180D01*
X7359685Y-26046180D01*
X6883495Y-27046180D02*
X6883495Y-26046180D01*
X6645400Y-26046180D01*
X6502542Y-26093800D01*
X6407304Y-26189038D01*
X6359685Y-26284276D01*
X6312066Y-26474752D01*
X6312066Y-26617609D01*
X6359685Y-26808085D01*
X6407304Y-26903323D01*
X6502542Y-26998561D01*
X6645400Y-27046180D01*
X6883495Y-27046180D01*
D11*
X102890057Y-70249171D02*
X102890057Y-68749171D01*
X102318628Y-68749171D01*
X102175771Y-68820600D01*
X102104342Y-68892028D01*
X102032914Y-69034885D01*
X102032914Y-69249171D01*
X102104342Y-69392028D01*
X102175771Y-69463457D01*
X102318628Y-69534885D01*
X102890057Y-69534885D01*
X100532914Y-70106314D02*
X100604342Y-70177742D01*
X100818628Y-70249171D01*
X100961485Y-70249171D01*
X101175771Y-70177742D01*
X101318628Y-70034885D01*
X101390057Y-69892028D01*
X101461485Y-69606314D01*
X101461485Y-69392028D01*
X101390057Y-69106314D01*
X101318628Y-68963457D01*
X101175771Y-68820600D01*
X100961485Y-68749171D01*
X100818628Y-68749171D01*
X100604342Y-68820600D01*
X100532914Y-68892028D01*
X99961485Y-69820600D02*
X99247200Y-69820600D01*
X100104342Y-70249171D02*
X99604342Y-68749171D01*
X99104342Y-70249171D01*
X98532914Y-70249171D02*
X98247200Y-70249171D01*
X98104342Y-70177742D01*
X98032914Y-70106314D01*
X97890057Y-69892028D01*
X97818628Y-69606314D01*
X97818628Y-69034885D01*
X97890057Y-68892028D01*
X97961485Y-68820600D01*
X98104342Y-68749171D01*
X98390057Y-68749171D01*
X98532914Y-68820600D01*
X98604342Y-68892028D01*
X98675771Y-69034885D01*
X98675771Y-69392028D01*
X98604342Y-69534885D01*
X98532914Y-69606314D01*
X98390057Y-69677742D01*
X98104342Y-69677742D01*
X97961485Y-69606314D01*
X97890057Y-69534885D01*
X97818628Y-69392028D01*
X96532914Y-68749171D02*
X96818628Y-68749171D01*
X96961485Y-68820600D01*
X97032914Y-68892028D01*
X97175771Y-69106314D01*
X97247200Y-69392028D01*
X97247200Y-69963457D01*
X97175771Y-70106314D01*
X97104342Y-70177742D01*
X96961485Y-70249171D01*
X96675771Y-70249171D01*
X96532914Y-70177742D01*
X96461485Y-70106314D01*
X96390057Y-69963457D01*
X96390057Y-69606314D01*
X96461485Y-69463457D01*
X96532914Y-69392028D01*
X96675771Y-69320600D01*
X96961485Y-69320600D01*
X97104342Y-69392028D01*
X97175771Y-69463457D01*
X97247200Y-69606314D01*
X95532914Y-69392028D02*
X95675771Y-69320600D01*
X95747200Y-69249171D01*
X95818628Y-69106314D01*
X95818628Y-69034885D01*
X95747200Y-68892028D01*
X95675771Y-68820600D01*
X95532914Y-68749171D01*
X95247200Y-68749171D01*
X95104342Y-68820600D01*
X95032914Y-68892028D01*
X94961485Y-69034885D01*
X94961485Y-69106314D01*
X95032914Y-69249171D01*
X95104342Y-69320600D01*
X95247200Y-69392028D01*
X95532914Y-69392028D01*
X95675771Y-69463457D01*
X95747200Y-69534885D01*
X95818628Y-69677742D01*
X95818628Y-69963457D01*
X95747200Y-70106314D01*
X95675771Y-70177742D01*
X95532914Y-70249171D01*
X95247200Y-70249171D01*
X95104342Y-70177742D01*
X95032914Y-70106314D01*
X94961485Y-69963457D01*
X94961485Y-69677742D01*
X95032914Y-69534885D01*
X95104342Y-69463457D01*
X95247200Y-69392028D01*
X93604342Y-68749171D02*
X94318628Y-68749171D01*
X94390057Y-69463457D01*
X94318628Y-69392028D01*
X94175771Y-69320600D01*
X93818628Y-69320600D01*
X93675771Y-69392028D01*
X93604342Y-69463457D01*
X93532914Y-69606314D01*
X93532914Y-69963457D01*
X93604342Y-70106314D01*
X93675771Y-70177742D01*
X93818628Y-70249171D01*
X94175771Y-70249171D01*
X94318628Y-70177742D01*
X94390057Y-70106314D01*
X42501771Y-12691371D02*
X43216057Y-12691371D01*
X43287485Y-13405657D01*
X43216057Y-13334228D01*
X43073200Y-13262800D01*
X42716057Y-13262800D01*
X42573200Y-13334228D01*
X42501771Y-13405657D01*
X42430342Y-13548514D01*
X42430342Y-13905657D01*
X42501771Y-14048514D01*
X42573200Y-14119942D01*
X42716057Y-14191371D01*
X43073200Y-14191371D01*
X43216057Y-14119942D01*
X43287485Y-14048514D01*
X42001771Y-12691371D02*
X41501771Y-14191371D01*
X41001771Y-12691371D01*
X38501771Y-14191371D02*
X39001771Y-13477085D01*
X39358914Y-14191371D02*
X39358914Y-12691371D01*
X38787485Y-12691371D01*
X38644628Y-12762800D01*
X38573200Y-12834228D01*
X38501771Y-12977085D01*
X38501771Y-13191371D01*
X38573200Y-13334228D01*
X38644628Y-13405657D01*
X38787485Y-13477085D01*
X39358914Y-13477085D01*
X37287485Y-14119942D02*
X37430342Y-14191371D01*
X37716057Y-14191371D01*
X37858914Y-14119942D01*
X37930342Y-13977085D01*
X37930342Y-13405657D01*
X37858914Y-13262800D01*
X37716057Y-13191371D01*
X37430342Y-13191371D01*
X37287485Y-13262800D01*
X37216057Y-13405657D01*
X37216057Y-13548514D01*
X37930342Y-13691371D01*
X35930342Y-13191371D02*
X35930342Y-14405657D01*
X36001771Y-14548514D01*
X36073200Y-14619942D01*
X36216057Y-14691371D01*
X36430342Y-14691371D01*
X36573200Y-14619942D01*
X35930342Y-14119942D02*
X36073200Y-14191371D01*
X36358914Y-14191371D01*
X36501771Y-14119942D01*
X36573200Y-14048514D01*
X36644628Y-13905657D01*
X36644628Y-13477085D01*
X36573200Y-13334228D01*
X36501771Y-13262800D01*
X36358914Y-13191371D01*
X36073200Y-13191371D01*
X35930342Y-13262800D01*
X77968028Y-19601571D02*
X78825171Y-19601571D01*
X78396600Y-19601571D02*
X78396600Y-18101571D01*
X78539457Y-18315857D01*
X78682314Y-18458714D01*
X78825171Y-18530142D01*
X77396600Y-18244428D02*
X77325171Y-18173000D01*
X77182314Y-18101571D01*
X76825171Y-18101571D01*
X76682314Y-18173000D01*
X76610885Y-18244428D01*
X76539457Y-18387285D01*
X76539457Y-18530142D01*
X76610885Y-18744428D01*
X77468028Y-19601571D01*
X76539457Y-19601571D01*
X76110885Y-18101571D02*
X75610885Y-19601571D01*
X75110885Y-18101571D01*
X72610885Y-19601571D02*
X73110885Y-18887285D01*
X73468028Y-19601571D02*
X73468028Y-18101571D01*
X72896600Y-18101571D01*
X72753742Y-18173000D01*
X72682314Y-18244428D01*
X72610885Y-18387285D01*
X72610885Y-18601571D01*
X72682314Y-18744428D01*
X72753742Y-18815857D01*
X72896600Y-18887285D01*
X73468028Y-18887285D01*
X71396600Y-19530142D02*
X71539457Y-19601571D01*
X71825171Y-19601571D01*
X71968028Y-19530142D01*
X72039457Y-19387285D01*
X72039457Y-18815857D01*
X71968028Y-18673000D01*
X71825171Y-18601571D01*
X71539457Y-18601571D01*
X71396600Y-18673000D01*
X71325171Y-18815857D01*
X71325171Y-18958714D01*
X72039457Y-19101571D01*
X70039457Y-18601571D02*
X70039457Y-19815857D01*
X70110885Y-19958714D01*
X70182314Y-20030142D01*
X70325171Y-20101571D01*
X70539457Y-20101571D01*
X70682314Y-20030142D01*
X70039457Y-19530142D02*
X70182314Y-19601571D01*
X70468028Y-19601571D01*
X70610885Y-19530142D01*
X70682314Y-19458714D01*
X70753742Y-19315857D01*
X70753742Y-18887285D01*
X70682314Y-18744428D01*
X70610885Y-18673000D01*
X70468028Y-18601571D01*
X70182314Y-18601571D01*
X70039457Y-18673000D01*
X123891228Y-17620371D02*
X123891228Y-16120371D01*
X123176942Y-17620371D02*
X123176942Y-16120371D01*
X122319800Y-17620371D01*
X122319800Y-16120371D01*
X121676942Y-17191800D02*
X120962657Y-17191800D01*
X121819800Y-17620371D02*
X121319800Y-16120371D01*
X120819800Y-17620371D01*
X120391228Y-16263228D02*
X120319800Y-16191800D01*
X120176942Y-16120371D01*
X119819800Y-16120371D01*
X119676942Y-16191800D01*
X119605514Y-16263228D01*
X119534085Y-16406085D01*
X119534085Y-16548942D01*
X119605514Y-16763228D01*
X120462657Y-17620371D01*
X119534085Y-17620371D01*
X118248371Y-16120371D02*
X118534085Y-16120371D01*
X118676942Y-16191800D01*
X118748371Y-16263228D01*
X118891228Y-16477514D01*
X118962657Y-16763228D01*
X118962657Y-17334657D01*
X118891228Y-17477514D01*
X118819800Y-17548942D01*
X118676942Y-17620371D01*
X118391228Y-17620371D01*
X118248371Y-17548942D01*
X118176942Y-17477514D01*
X118105514Y-17334657D01*
X118105514Y-16977514D01*
X118176942Y-16834657D01*
X118248371Y-16763228D01*
X118391228Y-16691800D01*
X118676942Y-16691800D01*
X118819800Y-16763228D01*
X118891228Y-16834657D01*
X118962657Y-16977514D01*
X117176942Y-16120371D02*
X117034085Y-16120371D01*
X116891228Y-16191800D01*
X116819800Y-16263228D01*
X116748371Y-16406085D01*
X116676942Y-16691800D01*
X116676942Y-17048942D01*
X116748371Y-17334657D01*
X116819800Y-17477514D01*
X116891228Y-17548942D01*
X117034085Y-17620371D01*
X117176942Y-17620371D01*
X117319800Y-17548942D01*
X117391228Y-17477514D01*
X117462657Y-17334657D01*
X117534085Y-17048942D01*
X117534085Y-16691800D01*
X117462657Y-16406085D01*
X117391228Y-16263228D01*
X117319800Y-16191800D01*
X117176942Y-16120371D01*
X218848400Y-88468200D02*
X210974400Y-88468200D01*
X218844400Y-88468200D02*
X218844400Y-65354200D01*
X218846400Y-65354200D02*
X210972400Y-65354200D01*
X210974400Y-88468200D02*
X210974400Y-65354200D01*
X142644400Y-23190200D02*
X150518400Y-23190200D01*
X142648400Y-23190200D02*
X142648400Y-46304200D01*
X142646400Y-46304200D02*
X150520400Y-46304200D01*
X150518400Y-23190200D02*
X150518400Y-46304200D01*
D12*
X75704784Y-51607605D02*
G75*
G03*
X75180600Y-50880400I-2324184J-1122795D01*
G01*
X75737000Y-53829207D02*
G75*
G02*
X73380600Y-55330400I-2356400J1098807D01*
G01*
X71024200Y-53829207D02*
G75*
G03*
X73380600Y-55330400I2356400J1098807D01*
G01*
X71056416Y-51607605D02*
G75*
G02*
X71580600Y-50880400I2324184J-1122795D01*
G01*
X71580600Y-50880400D02*
X75180600Y-50880400D01*
X44599600Y-67362298D02*
X43799600Y-67362298D01*
X44199600Y-67762298D02*
X44199600Y-66962298D01*
X42417600Y-59271600D02*
X41351600Y-59271600D01*
X42652600Y-59311600D02*
X41116600Y-59311600D01*
X42832600Y-59351600D02*
X40936600Y-59351600D01*
X42982600Y-59391600D02*
X40786600Y-59391600D01*
X43113600Y-59431600D02*
X40655600Y-59431600D01*
X43230600Y-59471600D02*
X40538600Y-59471600D01*
X43337600Y-59511600D02*
X40431600Y-59511600D01*
X43436600Y-59551600D02*
X40332600Y-59551600D01*
X43529600Y-59591600D02*
X40239600Y-59591600D01*
X43615600Y-59631600D02*
X40153600Y-59631600D01*
X43697600Y-59671600D02*
X40071600Y-59671600D01*
X43774600Y-59711600D02*
X39994600Y-59711600D01*
X43848600Y-59751600D02*
X39920600Y-59751600D01*
X43918600Y-59791600D02*
X39850600Y-59791600D01*
X43986600Y-59831600D02*
X39782600Y-59831600D01*
X44050600Y-59871600D02*
X39718600Y-59871600D01*
X44112600Y-59911600D02*
X39656600Y-59911600D01*
X44171600Y-59951600D02*
X39597600Y-59951600D01*
X44229600Y-59991600D02*
X39539600Y-59991600D01*
X44284600Y-60031600D02*
X39484600Y-60031600D01*
X44338600Y-60071600D02*
X39430600Y-60071600D01*
X44389600Y-60111600D02*
X39379600Y-60111600D01*
X44440600Y-60151600D02*
X39328600Y-60151600D01*
X44488600Y-60191600D02*
X39280600Y-60191600D01*
X44535600Y-60231600D02*
X39233600Y-60231600D01*
X44581600Y-60271600D02*
X39187600Y-60271600D01*
X44625600Y-60311600D02*
X39143600Y-60311600D01*
X44668600Y-60351600D02*
X39100600Y-60351600D01*
X44710600Y-60391600D02*
X39058600Y-60391600D01*
X40844600Y-60431600D02*
X39017600Y-60431600D01*
X44751600Y-60431600D02*
X42924600Y-60431600D01*
X40844600Y-60471600D02*
X38977600Y-60471600D01*
X44791600Y-60471600D02*
X42924600Y-60471600D01*
X40844600Y-60511600D02*
X38939600Y-60511600D01*
X44829600Y-60511600D02*
X42924600Y-60511600D01*
X40844600Y-60551600D02*
X38901600Y-60551600D01*
X44867600Y-60551600D02*
X42924600Y-60551600D01*
X40844600Y-60591600D02*
X38865600Y-60591600D01*
X44903600Y-60591600D02*
X42924600Y-60591600D01*
X40844600Y-60631600D02*
X38829600Y-60631600D01*
X44939600Y-60631600D02*
X42924600Y-60631600D01*
X40844600Y-60671600D02*
X38794600Y-60671600D01*
X44974600Y-60671600D02*
X42924600Y-60671600D01*
X40844600Y-60711600D02*
X38760600Y-60711600D01*
X45008600Y-60711600D02*
X42924600Y-60711600D01*
X40844600Y-60751600D02*
X38728600Y-60751600D01*
X45040600Y-60751600D02*
X42924600Y-60751600D01*
X40844600Y-60791600D02*
X38695600Y-60791600D01*
X45073600Y-60791600D02*
X42924600Y-60791600D01*
X40844600Y-60831600D02*
X38664600Y-60831600D01*
X45104600Y-60831600D02*
X42924600Y-60831600D01*
X40844600Y-60871600D02*
X38634600Y-60871600D01*
X45134600Y-60871600D02*
X42924600Y-60871600D01*
X40844600Y-60911600D02*
X38604600Y-60911600D01*
X45164600Y-60911600D02*
X42924600Y-60911600D01*
X40844600Y-60951600D02*
X38575600Y-60951600D01*
X45193600Y-60951600D02*
X42924600Y-60951600D01*
X40844600Y-60991600D02*
X38546600Y-60991600D01*
X45222600Y-60991600D02*
X42924600Y-60991600D01*
X40844600Y-61031600D02*
X38519600Y-61031600D01*
X45249600Y-61031600D02*
X42924600Y-61031600D01*
X40844600Y-61071600D02*
X38492600Y-61071600D01*
X45276600Y-61071600D02*
X42924600Y-61071600D01*
X40844600Y-61111600D02*
X38466600Y-61111600D01*
X45302600Y-61111600D02*
X42924600Y-61111600D01*
X40844600Y-61151600D02*
X38440600Y-61151600D01*
X45328600Y-61151600D02*
X42924600Y-61151600D01*
X40844600Y-61191600D02*
X38415600Y-61191600D01*
X45353600Y-61191600D02*
X42924600Y-61191600D01*
X40844600Y-61231600D02*
X38391600Y-61231600D01*
X45377600Y-61231600D02*
X42924600Y-61231600D01*
X40844600Y-61271600D02*
X38367600Y-61271600D01*
X45401600Y-61271600D02*
X42924600Y-61271600D01*
X40844600Y-61311600D02*
X38344600Y-61311600D01*
X45424600Y-61311600D02*
X42924600Y-61311600D01*
X40844600Y-61351600D02*
X38322600Y-61351600D01*
X45446600Y-61351600D02*
X42924600Y-61351600D01*
X40844600Y-61391600D02*
X38300600Y-61391600D01*
X45468600Y-61391600D02*
X42924600Y-61391600D01*
X40844600Y-61431600D02*
X38278600Y-61431600D01*
X45490600Y-61431600D02*
X42924600Y-61431600D01*
X40844600Y-61471600D02*
X38257600Y-61471600D01*
X45511600Y-61471600D02*
X42924600Y-61471600D01*
X40844600Y-61511600D02*
X38237600Y-61511600D01*
X45531600Y-61511600D02*
X42924600Y-61511600D01*
X40844600Y-61551600D02*
X38218600Y-61551600D01*
X45550600Y-61551600D02*
X42924600Y-61551600D01*
X40844600Y-61591600D02*
X38198600Y-61591600D01*
X45570600Y-61591600D02*
X42924600Y-61591600D01*
X40844600Y-61631600D02*
X38180600Y-61631600D01*
X45588600Y-61631600D02*
X42924600Y-61631600D01*
X40844600Y-61671600D02*
X38162600Y-61671600D01*
X45606600Y-61671600D02*
X42924600Y-61671600D01*
X40844600Y-61711600D02*
X38144600Y-61711600D01*
X45624600Y-61711600D02*
X42924600Y-61711600D01*
X40844600Y-61751600D02*
X38127600Y-61751600D01*
X45641600Y-61751600D02*
X42924600Y-61751600D01*
X40844600Y-61791600D02*
X38110600Y-61791600D01*
X45658600Y-61791600D02*
X42924600Y-61791600D01*
X40844600Y-61831600D02*
X38094600Y-61831600D01*
X45674600Y-61831600D02*
X42924600Y-61831600D01*
X40844600Y-61871600D02*
X38079600Y-61871600D01*
X45689600Y-61871600D02*
X42924600Y-61871600D01*
X40844600Y-61911600D02*
X38063600Y-61911600D01*
X45705600Y-61911600D02*
X42924600Y-61911600D01*
X40844600Y-61951600D02*
X38049600Y-61951600D01*
X45719600Y-61951600D02*
X42924600Y-61951600D01*
X40844600Y-61991600D02*
X38034600Y-61991600D01*
X45734600Y-61991600D02*
X42924600Y-61991600D01*
X40844600Y-62031600D02*
X38021600Y-62031600D01*
X45747600Y-62031600D02*
X42924600Y-62031600D01*
X40844600Y-62071600D02*
X38007600Y-62071600D01*
X45761600Y-62071600D02*
X42924600Y-62071600D01*
X40844600Y-62111600D02*
X37995600Y-62111600D01*
X45773600Y-62111600D02*
X42924600Y-62111600D01*
X40844600Y-62151600D02*
X37982600Y-62151600D01*
X45786600Y-62151600D02*
X42924600Y-62151600D01*
X40844600Y-62191600D02*
X37970600Y-62191600D01*
X45798600Y-62191600D02*
X42924600Y-62191600D01*
X40844600Y-62231600D02*
X37959600Y-62231600D01*
X45809600Y-62231600D02*
X42924600Y-62231600D01*
X40844600Y-62271600D02*
X37948600Y-62271600D01*
X45820600Y-62271600D02*
X42924600Y-62271600D01*
X40844600Y-62311600D02*
X37937600Y-62311600D01*
X45831600Y-62311600D02*
X42924600Y-62311600D01*
X40844600Y-62351600D02*
X37927600Y-62351600D01*
X45841600Y-62351600D02*
X42924600Y-62351600D01*
X40844600Y-62391600D02*
X37917600Y-62391600D01*
X45851600Y-62391600D02*
X42924600Y-62391600D01*
X40844600Y-62431600D02*
X37908600Y-62431600D01*
X45860600Y-62431600D02*
X42924600Y-62431600D01*
X40844600Y-62471600D02*
X37899600Y-62471600D01*
X45869600Y-62471600D02*
X42924600Y-62471600D01*
X45878600Y-62511600D02*
X37890600Y-62511600D01*
X45886600Y-62551600D02*
X37882600Y-62551600D01*
X45894600Y-62591600D02*
X37874600Y-62591600D01*
X45901600Y-62631600D02*
X37867600Y-62631600D01*
X45908600Y-62672600D02*
X37860600Y-62672600D01*
X45914600Y-62712600D02*
X37854600Y-62712600D01*
X45921600Y-62752600D02*
X37847600Y-62752600D01*
X45926600Y-62792600D02*
X37842600Y-62792600D01*
X45932600Y-62832600D02*
X37836600Y-62832600D01*
X45936600Y-62872600D02*
X37832600Y-62872600D01*
X45941600Y-62912600D02*
X37827600Y-62912600D01*
X45945600Y-62952600D02*
X37823600Y-62952600D01*
X45949600Y-62992600D02*
X37819600Y-62992600D01*
X45952600Y-63032600D02*
X37816600Y-63032600D01*
X45955600Y-63072600D02*
X37813600Y-63072600D01*
X45958600Y-63112600D02*
X37810600Y-63112600D01*
X45960600Y-63152600D02*
X37808600Y-63152600D01*
X45961600Y-63192600D02*
X37807600Y-63192600D01*
X45963600Y-63232600D02*
X37805600Y-63232600D01*
X45964600Y-63272600D02*
X37804600Y-63272600D01*
X45964600Y-63312600D02*
X37804600Y-63312600D01*
X45964600Y-63352600D02*
X37804600Y-63352600D01*
X46004600Y-63352600D02*
G75*
G03*
X46004600Y-63352600I-4120000J0D01*
G01*
D11*
X48514000Y-67259949D02*
X48514000Y-59639949D01*
X48514000Y-59639949D02*
X58674000Y-59639949D01*
X58674000Y-59639949D02*
X58674000Y-67259949D01*
X58674000Y-67259949D02*
X48514000Y-67259949D01*
X74599800Y-67259949D02*
X74599800Y-59639949D01*
X74599800Y-59639949D02*
X84759800Y-59639949D01*
X84759800Y-59639949D02*
X84759800Y-67259949D01*
X84759800Y-67259949D02*
X74599800Y-67259949D01*
D12*
X70583800Y-67362298D02*
X69783800Y-67362298D01*
X70183800Y-67762298D02*
X70183800Y-66962298D01*
X68401800Y-59271600D02*
X67335800Y-59271600D01*
X68636800Y-59311600D02*
X67100800Y-59311600D01*
X68816800Y-59351600D02*
X66920800Y-59351600D01*
X68966800Y-59391600D02*
X66770800Y-59391600D01*
X69097800Y-59431600D02*
X66639800Y-59431600D01*
X69214800Y-59471600D02*
X66522800Y-59471600D01*
X69321800Y-59511600D02*
X66415800Y-59511600D01*
X69420800Y-59551600D02*
X66316800Y-59551600D01*
X69513800Y-59591600D02*
X66223800Y-59591600D01*
X69599800Y-59631600D02*
X66137800Y-59631600D01*
X69681800Y-59671600D02*
X66055800Y-59671600D01*
X69758800Y-59711600D02*
X65978800Y-59711600D01*
X69832800Y-59751600D02*
X65904800Y-59751600D01*
X69902800Y-59791600D02*
X65834800Y-59791600D01*
X69970800Y-59831600D02*
X65766800Y-59831600D01*
X70034800Y-59871600D02*
X65702800Y-59871600D01*
X70096800Y-59911600D02*
X65640800Y-59911600D01*
X70155800Y-59951600D02*
X65581800Y-59951600D01*
X70213800Y-59991600D02*
X65523800Y-59991600D01*
X70268800Y-60031600D02*
X65468800Y-60031600D01*
X70322800Y-60071600D02*
X65414800Y-60071600D01*
X70373800Y-60111600D02*
X65363800Y-60111600D01*
X70424800Y-60151600D02*
X65312800Y-60151600D01*
X70472800Y-60191600D02*
X65264800Y-60191600D01*
X70519800Y-60231600D02*
X65217800Y-60231600D01*
X70565800Y-60271600D02*
X65171800Y-60271600D01*
X70609800Y-60311600D02*
X65127800Y-60311600D01*
X70652800Y-60351600D02*
X65084800Y-60351600D01*
X70694800Y-60391600D02*
X65042800Y-60391600D01*
X66828800Y-60431600D02*
X65001800Y-60431600D01*
X70735800Y-60431600D02*
X68908800Y-60431600D01*
X66828800Y-60471600D02*
X64961800Y-60471600D01*
X70775800Y-60471600D02*
X68908800Y-60471600D01*
X66828800Y-60511600D02*
X64923800Y-60511600D01*
X70813800Y-60511600D02*
X68908800Y-60511600D01*
X66828800Y-60551600D02*
X64885800Y-60551600D01*
X70851800Y-60551600D02*
X68908800Y-60551600D01*
X66828800Y-60591600D02*
X64849800Y-60591600D01*
X70887800Y-60591600D02*
X68908800Y-60591600D01*
X66828800Y-60631600D02*
X64813800Y-60631600D01*
X70923800Y-60631600D02*
X68908800Y-60631600D01*
X66828800Y-60671600D02*
X64778800Y-60671600D01*
X70958800Y-60671600D02*
X68908800Y-60671600D01*
X66828800Y-60711600D02*
X64744800Y-60711600D01*
X70992800Y-60711600D02*
X68908800Y-60711600D01*
X66828800Y-60751600D02*
X64712800Y-60751600D01*
X71024800Y-60751600D02*
X68908800Y-60751600D01*
X66828800Y-60791600D02*
X64679800Y-60791600D01*
X71057800Y-60791600D02*
X68908800Y-60791600D01*
X66828800Y-60831600D02*
X64648800Y-60831600D01*
X71088800Y-60831600D02*
X68908800Y-60831600D01*
X66828800Y-60871600D02*
X64618800Y-60871600D01*
X71118800Y-60871600D02*
X68908800Y-60871600D01*
X66828800Y-60911600D02*
X64588800Y-60911600D01*
X71148800Y-60911600D02*
X68908800Y-60911600D01*
X66828800Y-60951600D02*
X64559800Y-60951600D01*
X71177800Y-60951600D02*
X68908800Y-60951600D01*
X66828800Y-60991600D02*
X64530800Y-60991600D01*
X71206800Y-60991600D02*
X68908800Y-60991600D01*
X66828800Y-61031600D02*
X64503800Y-61031600D01*
X71233800Y-61031600D02*
X68908800Y-61031600D01*
X66828800Y-61071600D02*
X64476800Y-61071600D01*
X71260800Y-61071600D02*
X68908800Y-61071600D01*
X66828800Y-61111600D02*
X64450800Y-61111600D01*
X71286800Y-61111600D02*
X68908800Y-61111600D01*
X66828800Y-61151600D02*
X64424800Y-61151600D01*
X71312800Y-61151600D02*
X68908800Y-61151600D01*
X66828800Y-61191600D02*
X64399800Y-61191600D01*
X71337800Y-61191600D02*
X68908800Y-61191600D01*
X66828800Y-61231600D02*
X64375800Y-61231600D01*
X71361800Y-61231600D02*
X68908800Y-61231600D01*
X66828800Y-61271600D02*
X64351800Y-61271600D01*
X71385800Y-61271600D02*
X68908800Y-61271600D01*
X66828800Y-61311600D02*
X64328800Y-61311600D01*
X71408800Y-61311600D02*
X68908800Y-61311600D01*
X66828800Y-61351600D02*
X64306800Y-61351600D01*
X71430800Y-61351600D02*
X68908800Y-61351600D01*
X66828800Y-61391600D02*
X64284800Y-61391600D01*
X71452800Y-61391600D02*
X68908800Y-61391600D01*
X66828800Y-61431600D02*
X64262800Y-61431600D01*
X71474800Y-61431600D02*
X68908800Y-61431600D01*
X66828800Y-61471600D02*
X64241800Y-61471600D01*
X71495800Y-61471600D02*
X68908800Y-61471600D01*
X66828800Y-61511600D02*
X64221800Y-61511600D01*
X71515800Y-61511600D02*
X68908800Y-61511600D01*
X66828800Y-61551600D02*
X64202800Y-61551600D01*
X71534800Y-61551600D02*
X68908800Y-61551600D01*
X66828800Y-61591600D02*
X64182800Y-61591600D01*
X71554800Y-61591600D02*
X68908800Y-61591600D01*
X66828800Y-61631600D02*
X64164800Y-61631600D01*
X71572800Y-61631600D02*
X68908800Y-61631600D01*
X66828800Y-61671600D02*
X64146800Y-61671600D01*
X71590800Y-61671600D02*
X68908800Y-61671600D01*
X66828800Y-61711600D02*
X64128800Y-61711600D01*
X71608800Y-61711600D02*
X68908800Y-61711600D01*
X66828800Y-61751600D02*
X64111800Y-61751600D01*
X71625800Y-61751600D02*
X68908800Y-61751600D01*
X66828800Y-61791600D02*
X64094800Y-61791600D01*
X71642800Y-61791600D02*
X68908800Y-61791600D01*
X66828800Y-61831600D02*
X64078800Y-61831600D01*
X71658800Y-61831600D02*
X68908800Y-61831600D01*
X66828800Y-61871600D02*
X64063800Y-61871600D01*
X71673800Y-61871600D02*
X68908800Y-61871600D01*
X66828800Y-61911600D02*
X64047800Y-61911600D01*
X71689800Y-61911600D02*
X68908800Y-61911600D01*
X66828800Y-61951600D02*
X64033800Y-61951600D01*
X71703800Y-61951600D02*
X68908800Y-61951600D01*
X66828800Y-61991600D02*
X64018800Y-61991600D01*
X71718800Y-61991600D02*
X68908800Y-61991600D01*
X66828800Y-62031600D02*
X64005800Y-62031600D01*
X71731800Y-62031600D02*
X68908800Y-62031600D01*
X66828800Y-62071600D02*
X63991800Y-62071600D01*
X71745800Y-62071600D02*
X68908800Y-62071600D01*
X66828800Y-62111600D02*
X63979800Y-62111600D01*
X71757800Y-62111600D02*
X68908800Y-62111600D01*
X66828800Y-62151600D02*
X63966800Y-62151600D01*
X71770800Y-62151600D02*
X68908800Y-62151600D01*
X66828800Y-62191600D02*
X63954800Y-62191600D01*
X71782800Y-62191600D02*
X68908800Y-62191600D01*
X66828800Y-62231600D02*
X63943800Y-62231600D01*
X71793800Y-62231600D02*
X68908800Y-62231600D01*
X66828800Y-62271600D02*
X63932800Y-62271600D01*
X71804800Y-62271600D02*
X68908800Y-62271600D01*
X66828800Y-62311600D02*
X63921800Y-62311600D01*
X71815800Y-62311600D02*
X68908800Y-62311600D01*
X66828800Y-62351600D02*
X63911800Y-62351600D01*
X71825800Y-62351600D02*
X68908800Y-62351600D01*
X66828800Y-62391600D02*
X63901800Y-62391600D01*
X71835800Y-62391600D02*
X68908800Y-62391600D01*
X66828800Y-62431600D02*
X63892800Y-62431600D01*
X71844800Y-62431600D02*
X68908800Y-62431600D01*
X66828800Y-62471600D02*
X63883800Y-62471600D01*
X71853800Y-62471600D02*
X68908800Y-62471600D01*
X71862800Y-62511600D02*
X63874800Y-62511600D01*
X71870800Y-62551600D02*
X63866800Y-62551600D01*
X71878800Y-62591600D02*
X63858800Y-62591600D01*
X71885800Y-62631600D02*
X63851800Y-62631600D01*
X71892800Y-62672600D02*
X63844800Y-62672600D01*
X71898800Y-62712600D02*
X63838800Y-62712600D01*
X71905800Y-62752600D02*
X63831800Y-62752600D01*
X71910800Y-62792600D02*
X63826800Y-62792600D01*
X71916800Y-62832600D02*
X63820800Y-62832600D01*
X71920800Y-62872600D02*
X63816800Y-62872600D01*
X71925800Y-62912600D02*
X63811800Y-62912600D01*
X71929800Y-62952600D02*
X63807800Y-62952600D01*
X71933800Y-62992600D02*
X63803800Y-62992600D01*
X71936800Y-63032600D02*
X63800800Y-63032600D01*
X71939800Y-63072600D02*
X63797800Y-63072600D01*
X71942800Y-63112600D02*
X63794800Y-63112600D01*
X71944800Y-63152600D02*
X63792800Y-63152600D01*
X71945800Y-63192600D02*
X63791800Y-63192600D01*
X71947800Y-63232600D02*
X63789800Y-63232600D01*
X71948800Y-63272600D02*
X63788800Y-63272600D01*
X71948800Y-63312600D02*
X63788800Y-63312600D01*
X71948800Y-63352600D02*
X63788800Y-63352600D01*
X71988800Y-63352600D02*
G75*
G03*
X71988800Y-63352600I-4120000J0D01*
G01*
D13*
X142900600Y-56844400D02*
X142900600Y-98500400D01*
X142900600Y-98500400D02*
X191160600Y-98500400D01*
X191160600Y-98500400D02*
X191160600Y-56844400D01*
X191160600Y-56844400D02*
X142900600Y-56844400D01*
D11*
X150850600Y-98450400D02*
X150850600Y-94894400D01*
X150850600Y-94894400D02*
X155930600Y-94894400D01*
X155930600Y-94894400D02*
X155930600Y-98704400D01*
X94056200Y-73202800D02*
X94056200Y-92234800D01*
X90736200Y-69900800D02*
X34874200Y-69900800D01*
X34874200Y-95554800D02*
X90736200Y-95554800D01*
X31572200Y-92234800D02*
X31572200Y-73202800D01*
X31572200Y-73202800D02*
G75*
G02*
X34874200Y-69900800I3302000J0D01*
G01*
X31554200Y-92234800D02*
G75*
G03*
X34874200Y-95554800I3320000J0D01*
G01*
X90736200Y-95554800D02*
G75*
G03*
X94056200Y-92234800I0J3320000D01*
G01*
X90736200Y-69882800D02*
G75*
G02*
X94056200Y-73202800I0J-3320000D01*
G01*
D12*
X59087000Y-53872000D02*
X59087000Y-54202000D01*
X59087000Y-54202000D02*
X65627000Y-54202000D01*
X65627000Y-54202000D02*
X65627000Y-53872000D01*
X59087000Y-51792000D02*
X59087000Y-51462000D01*
X59087000Y-51462000D02*
X65627000Y-51462000D01*
X65627000Y-51462000D02*
X65627000Y-51792000D01*
X79000600Y-53872000D02*
X79000600Y-54202000D01*
X79000600Y-54202000D02*
X85540600Y-54202000D01*
X85540600Y-54202000D02*
X85540600Y-53872000D01*
X79000600Y-51792000D02*
X79000600Y-51462000D01*
X79000600Y-51462000D02*
X85540600Y-51462000D01*
X85540600Y-51462000D02*
X85540600Y-51792000D01*
X51287800Y-53268800D02*
G75*
G03*
X51287800Y-53268800I-4120000J0D01*
G01*
X51247800Y-53268800D02*
X43087800Y-53268800D01*
X51247800Y-53228800D02*
X43087800Y-53228800D01*
X51247800Y-53188800D02*
X43087800Y-53188800D01*
X51246800Y-53148800D02*
X43088800Y-53148800D01*
X51244800Y-53108800D02*
X43090800Y-53108800D01*
X51243800Y-53068800D02*
X43091800Y-53068800D01*
X51241800Y-53028800D02*
X43093800Y-53028800D01*
X51238800Y-52988800D02*
X43096800Y-52988800D01*
X51235800Y-52948800D02*
X43099800Y-52948800D01*
X51232800Y-52908800D02*
X43102800Y-52908800D01*
X51228800Y-52868800D02*
X43106800Y-52868800D01*
X51224800Y-52828800D02*
X43110800Y-52828800D01*
X51219800Y-52788800D02*
X43115800Y-52788800D01*
X51215800Y-52748800D02*
X43119800Y-52748800D01*
X51209800Y-52708800D02*
X43125800Y-52708800D01*
X51204800Y-52668800D02*
X43130800Y-52668800D01*
X51197800Y-52628800D02*
X43137800Y-52628800D01*
X51191800Y-52588800D02*
X43143800Y-52588800D01*
X51184800Y-52547800D02*
X43150800Y-52547800D01*
X51177800Y-52507800D02*
X43157800Y-52507800D01*
X51169800Y-52467800D02*
X43165800Y-52467800D01*
X51161800Y-52427800D02*
X43173800Y-52427800D01*
X51152800Y-52387800D02*
X48207800Y-52387800D01*
X46127800Y-52387800D02*
X43182800Y-52387800D01*
X51143800Y-52347800D02*
X48207800Y-52347800D01*
X46127800Y-52347800D02*
X43191800Y-52347800D01*
X51134800Y-52307800D02*
X48207800Y-52307800D01*
X46127800Y-52307800D02*
X43200800Y-52307800D01*
X51124800Y-52267800D02*
X48207800Y-52267800D01*
X46127800Y-52267800D02*
X43210800Y-52267800D01*
X51114800Y-52227800D02*
X48207800Y-52227800D01*
X46127800Y-52227800D02*
X43220800Y-52227800D01*
X51103800Y-52187800D02*
X48207800Y-52187800D01*
X46127800Y-52187800D02*
X43231800Y-52187800D01*
X51092800Y-52147800D02*
X48207800Y-52147800D01*
X46127800Y-52147800D02*
X43242800Y-52147800D01*
X51081800Y-52107800D02*
X48207800Y-52107800D01*
X46127800Y-52107800D02*
X43253800Y-52107800D01*
X51069800Y-52067800D02*
X48207800Y-52067800D01*
X46127800Y-52067800D02*
X43265800Y-52067800D01*
X51056800Y-52027800D02*
X48207800Y-52027800D01*
X46127800Y-52027800D02*
X43278800Y-52027800D01*
X51044800Y-51987800D02*
X48207800Y-51987800D01*
X46127800Y-51987800D02*
X43290800Y-51987800D01*
X51030800Y-51947800D02*
X48207800Y-51947800D01*
X46127800Y-51947800D02*
X43304800Y-51947800D01*
X51017800Y-51907800D02*
X48207800Y-51907800D01*
X46127800Y-51907800D02*
X43317800Y-51907800D01*
X51002800Y-51867800D02*
X48207800Y-51867800D01*
X46127800Y-51867800D02*
X43332800Y-51867800D01*
X50988800Y-51827800D02*
X48207800Y-51827800D01*
X46127800Y-51827800D02*
X43346800Y-51827800D01*
X50972800Y-51787800D02*
X48207800Y-51787800D01*
X46127800Y-51787800D02*
X43362800Y-51787800D01*
X50957800Y-51747800D02*
X48207800Y-51747800D01*
X46127800Y-51747800D02*
X43377800Y-51747800D01*
X50941800Y-51707800D02*
X48207800Y-51707800D01*
X46127800Y-51707800D02*
X43393800Y-51707800D01*
X50924800Y-51667800D02*
X48207800Y-51667800D01*
X46127800Y-51667800D02*
X43410800Y-51667800D01*
X50907800Y-51627800D02*
X48207800Y-51627800D01*
X46127800Y-51627800D02*
X43427800Y-51627800D01*
X50889800Y-51587800D02*
X48207800Y-51587800D01*
X46127800Y-51587800D02*
X43445800Y-51587800D01*
X50871800Y-51547800D02*
X48207800Y-51547800D01*
X46127800Y-51547800D02*
X43463800Y-51547800D01*
X50853800Y-51507800D02*
X48207800Y-51507800D01*
X46127800Y-51507800D02*
X43481800Y-51507800D01*
X50833800Y-51467800D02*
X48207800Y-51467800D01*
X46127800Y-51467800D02*
X43501800Y-51467800D01*
X50814800Y-51427800D02*
X48207800Y-51427800D01*
X46127800Y-51427800D02*
X43520800Y-51427800D01*
X50794800Y-51387800D02*
X48207800Y-51387800D01*
X46127800Y-51387800D02*
X43540800Y-51387800D01*
X50773800Y-51347800D02*
X48207800Y-51347800D01*
X46127800Y-51347800D02*
X43561800Y-51347800D01*
X50751800Y-51307800D02*
X48207800Y-51307800D01*
X46127800Y-51307800D02*
X43583800Y-51307800D01*
X50729800Y-51267800D02*
X48207800Y-51267800D01*
X46127800Y-51267800D02*
X43605800Y-51267800D01*
X50707800Y-51227800D02*
X48207800Y-51227800D01*
X46127800Y-51227800D02*
X43627800Y-51227800D01*
X50684800Y-51187800D02*
X48207800Y-51187800D01*
X46127800Y-51187800D02*
X43650800Y-51187800D01*
X50660800Y-51147800D02*
X48207800Y-51147800D01*
X46127800Y-51147800D02*
X43674800Y-51147800D01*
X50636800Y-51107800D02*
X48207800Y-51107800D01*
X46127800Y-51107800D02*
X43698800Y-51107800D01*
X50611800Y-51067800D02*
X48207800Y-51067800D01*
X46127800Y-51067800D02*
X43723800Y-51067800D01*
X50585800Y-51027800D02*
X48207800Y-51027800D01*
X46127800Y-51027800D02*
X43749800Y-51027800D01*
X50559800Y-50987800D02*
X48207800Y-50987800D01*
X46127800Y-50987800D02*
X43775800Y-50987800D01*
X50532800Y-50947800D02*
X48207800Y-50947800D01*
X46127800Y-50947800D02*
X43802800Y-50947800D01*
X50505800Y-50907800D02*
X48207800Y-50907800D01*
X46127800Y-50907800D02*
X43829800Y-50907800D01*
X50476800Y-50867800D02*
X48207800Y-50867800D01*
X46127800Y-50867800D02*
X43858800Y-50867800D01*
X50447800Y-50827800D02*
X48207800Y-50827800D01*
X46127800Y-50827800D02*
X43887800Y-50827800D01*
X50417800Y-50787800D02*
X48207800Y-50787800D01*
X46127800Y-50787800D02*
X43917800Y-50787800D01*
X50387800Y-50747800D02*
X48207800Y-50747800D01*
X46127800Y-50747800D02*
X43947800Y-50747800D01*
X50356800Y-50707800D02*
X48207800Y-50707800D01*
X46127800Y-50707800D02*
X43978800Y-50707800D01*
X50323800Y-50667800D02*
X48207800Y-50667800D01*
X46127800Y-50667800D02*
X44011800Y-50667800D01*
X50291800Y-50627800D02*
X48207800Y-50627800D01*
X46127800Y-50627800D02*
X44043800Y-50627800D01*
X50257800Y-50587800D02*
X48207800Y-50587800D01*
X46127800Y-50587800D02*
X44077800Y-50587800D01*
X50222800Y-50547800D02*
X48207800Y-50547800D01*
X46127800Y-50547800D02*
X44112800Y-50547800D01*
X50186800Y-50507800D02*
X48207800Y-50507800D01*
X46127800Y-50507800D02*
X44148800Y-50507800D01*
X50150800Y-50467800D02*
X48207800Y-50467800D01*
X46127800Y-50467800D02*
X44184800Y-50467800D01*
X50112800Y-50427800D02*
X48207800Y-50427800D01*
X46127800Y-50427800D02*
X44222800Y-50427800D01*
X50074800Y-50387800D02*
X48207800Y-50387800D01*
X46127800Y-50387800D02*
X44260800Y-50387800D01*
X50034800Y-50347800D02*
X48207800Y-50347800D01*
X46127800Y-50347800D02*
X44300800Y-50347800D01*
X49993800Y-50307800D02*
X44341800Y-50307800D01*
X49951800Y-50267800D02*
X44383800Y-50267800D01*
X49908800Y-50227800D02*
X44426800Y-50227800D01*
X49864800Y-50187800D02*
X44470800Y-50187800D01*
X49818800Y-50147800D02*
X44516800Y-50147800D01*
X49771800Y-50107800D02*
X44563800Y-50107800D01*
X49723800Y-50067800D02*
X44611800Y-50067800D01*
X49672800Y-50027800D02*
X44662800Y-50027800D01*
X49621800Y-49987800D02*
X44713800Y-49987800D01*
X49567800Y-49947800D02*
X44767800Y-49947800D01*
X49512800Y-49907800D02*
X44822800Y-49907800D01*
X49454800Y-49867800D02*
X44880800Y-49867800D01*
X49395800Y-49827800D02*
X44939800Y-49827800D01*
X49333800Y-49787800D02*
X45001800Y-49787800D01*
X49269800Y-49747800D02*
X45065800Y-49747800D01*
X49201800Y-49707800D02*
X45133800Y-49707800D01*
X49131800Y-49667800D02*
X45203800Y-49667800D01*
X49057800Y-49627800D02*
X45277800Y-49627800D01*
X48980800Y-49587800D02*
X45354800Y-49587800D01*
X48898800Y-49547800D02*
X45436800Y-49547800D01*
X48812800Y-49507800D02*
X45522800Y-49507800D01*
X48719800Y-49467800D02*
X45615800Y-49467800D01*
X48620800Y-49427800D02*
X45714800Y-49427800D01*
X48513800Y-49387800D02*
X45821800Y-49387800D01*
X48396800Y-49347800D02*
X45938800Y-49347800D01*
X48265800Y-49307800D02*
X46069800Y-49307800D01*
X48115800Y-49267800D02*
X46219800Y-49267800D01*
X47935800Y-49227800D02*
X46399800Y-49227800D01*
X47700800Y-49187800D02*
X46634800Y-49187800D01*
X49482800Y-57678498D02*
X49482800Y-56878498D01*
X49882800Y-57278498D02*
X49082800Y-57278498D01*
X67054600Y-33851600D02*
X67384600Y-33851600D01*
X67384600Y-33851600D02*
X67384600Y-27311600D01*
X67384600Y-27311600D02*
X67054600Y-27311600D01*
X64974600Y-33851600D02*
X64644600Y-33851600D01*
X64644600Y-33851600D02*
X64644600Y-27311600D01*
X64644600Y-27311600D02*
X64974600Y-27311600D01*
D11*
X131800600Y-20777200D02*
X131800600Y-38557200D01*
X129260600Y-18237200D02*
X111480600Y-18237200D01*
X108940600Y-38557200D02*
X108940600Y-20777200D01*
X129260600Y-41097200D02*
X111480600Y-41097200D01*
X111480600Y-18237200D02*
G75*
G03*
X108940600Y-20777200I0J-2540000D01*
G01*
X131800600Y-20777200D02*
G75*
G03*
X129260600Y-18237200I-2540000J0D01*
G01*
X129260600Y-41097200D02*
G75*
G03*
X131800600Y-38557200I0J2540000D01*
G01*
X108940600Y-38557200D02*
G75*
G03*
X111480600Y-41097200I2540000J0D01*
G01*
D12*
X20218400Y-15087600D02*
X63398400Y-15087600D01*
X20218400Y-46837600D02*
X20218400Y-15087600D01*
X63398400Y-46837600D02*
X20218400Y-46837600D01*
X63398400Y-36677600D02*
X63398400Y-15087600D01*
X63398400Y-46837600D02*
X63398400Y-36677600D01*
D13*
X217047225Y-55664542D02*
X217047225Y-14008542D01*
X217047225Y-14008542D02*
X168787225Y-14008542D01*
X168787225Y-14008542D02*
X168787225Y-55664542D01*
X168787225Y-55664542D02*
X217047225Y-55664542D01*
D11*
X209097225Y-14058542D02*
X209097225Y-17614542D01*
X209097225Y-17614542D02*
X204017225Y-17614542D01*
X204017225Y-17614542D02*
X204017225Y-13804542D01*
D10*
X68707000Y-20528600D02*
X68707000Y-38328600D01*
X86507000Y-38328600D02*
X68707000Y-38328600D01*
X86507000Y-20528600D02*
X86507000Y-38328600D01*
X68707000Y-20528600D02*
X86507000Y-20528600D01*
D12*
X95759600Y-83471000D02*
X96089600Y-83471000D01*
X95759600Y-90011000D02*
X95759600Y-83471000D01*
X96089600Y-90011000D02*
X95759600Y-90011000D01*
X98499600Y-83471000D02*
X98169600Y-83471000D01*
X98499600Y-90011000D02*
X98499600Y-83471000D01*
X98169600Y-90011000D02*
X98499600Y-90011000D01*
X163290000Y-72764134D02*
X163290000Y-73094134D01*
X156750000Y-72764134D02*
X163290000Y-72764134D01*
X156750000Y-73094134D02*
X156750000Y-72764134D01*
X163290000Y-75504134D02*
X163290000Y-75174134D01*
X156750000Y-75504134D02*
X163290000Y-75504134D01*
X156750000Y-75174134D02*
X156750000Y-75504134D01*
X103201800Y53562000D02*
X103531800Y53562000D01*
X103201800Y47022000D02*
X103201800Y53562000D01*
X103531800Y47022000D02*
X103201800Y47022000D01*
X105941800Y53562000D02*
X105611800Y53562000D01*
X105941800Y47022000D02*
X105941800Y53562000D01*
X105611800Y47022000D02*
X105941800Y47022000D01*
X99264800Y53562000D02*
X99594800Y53562000D01*
X99264800Y47022000D02*
X99264800Y53562000D01*
X99594800Y47022000D02*
X99264800Y47022000D01*
X102004800Y53562000D02*
X101674800Y53562000D01*
X102004800Y47022000D02*
X102004800Y53562000D01*
X101674800Y47022000D02*
X102004800Y47022000D01*
X163290000Y-79452800D02*
X163290000Y-79782800D01*
X156750000Y-79452800D02*
X163290000Y-79452800D01*
X156750000Y-79782800D02*
X156750000Y-79452800D01*
X163290000Y-82192800D02*
X163290000Y-81862800D01*
X156750000Y-82192800D02*
X163290000Y-82192800D01*
X156750000Y-81862800D02*
X156750000Y-82192800D01*
X163290000Y-69419800D02*
X163290000Y-69749800D01*
X156750000Y-69419800D02*
X163290000Y-69419800D01*
X156750000Y-69749800D02*
X156750000Y-69419800D01*
X163290000Y-72159800D02*
X163290000Y-71829800D01*
X156750000Y-72159800D02*
X163290000Y-72159800D01*
X156750000Y-71829800D02*
X156750000Y-72159800D01*
X163290000Y-76108467D02*
X163290000Y-76438467D01*
X156750000Y-76108467D02*
X163290000Y-76108467D01*
X156750000Y-76438467D02*
X156750000Y-76108467D01*
X163290000Y-78848467D02*
X163290000Y-78518467D01*
X156750000Y-78848467D02*
X163290000Y-78848467D01*
X156750000Y-78518467D02*
X156750000Y-78848467D01*
X120038800Y-56051200D02*
X119708800Y-56051200D01*
X120038800Y-49511200D02*
X120038800Y-56051200D01*
X119708800Y-49511200D02*
X120038800Y-49511200D01*
X117298800Y-56051200D02*
X117628800Y-56051200D01*
X117298800Y-49511200D02*
X117298800Y-56051200D01*
X117628800Y-49511200D02*
X117298800Y-49511200D01*
X120600800Y-49485800D02*
X120930800Y-49485800D01*
X120600800Y-56025800D02*
X120600800Y-49485800D01*
X120930800Y-56025800D02*
X120600800Y-56025800D01*
X123340800Y-49485800D02*
X123010800Y-49485800D01*
X123340800Y-56025800D02*
X123340800Y-49485800D01*
X123010800Y-56025800D02*
X123340800Y-56025800D01*
D10*
X214982323Y-88987380D02*
X214982323Y-89701666D01*
X215029942Y-89844523D01*
X215125180Y-89939761D01*
X215268038Y-89987380D01*
X215363276Y-89987380D01*
X213982323Y-89987380D02*
X214553752Y-89987380D01*
X214268038Y-89987380D02*
X214268038Y-88987380D01*
X214363276Y-89130238D01*
X214458514Y-89225476D01*
X214553752Y-89273095D01*
X213648990Y-88987380D02*
X212982323Y-88987380D01*
X213410895Y-89987380D01*
X209571780Y-68263076D02*
X209571780Y-68072600D01*
X209619400Y-67977361D01*
X209667019Y-67929742D01*
X209809876Y-67834504D01*
X210000352Y-67786885D01*
X210381304Y-67786885D01*
X210476542Y-67834504D01*
X210524161Y-67882123D01*
X210571780Y-67977361D01*
X210571780Y-68167838D01*
X210524161Y-68263076D01*
X210476542Y-68310695D01*
X210381304Y-68358314D01*
X210143209Y-68358314D01*
X210047971Y-68310695D01*
X210000352Y-68263076D01*
X209952733Y-68167838D01*
X209952733Y-67977361D01*
X210000352Y-67882123D01*
X210047971Y-67834504D01*
X210143209Y-67786885D01*
X210510380Y-86086914D02*
X210510380Y-85515485D01*
X210510380Y-85801200D02*
X209510380Y-85801200D01*
X209653238Y-85705961D01*
X209748476Y-85610723D01*
X209796095Y-85515485D01*
X148739123Y-46797980D02*
X148739123Y-47512266D01*
X148786742Y-47655123D01*
X148881980Y-47750361D01*
X149024838Y-47797980D01*
X149120076Y-47797980D01*
X147739123Y-47797980D02*
X148310552Y-47797980D01*
X148024838Y-47797980D02*
X148024838Y-46797980D01*
X148120076Y-46940838D01*
X148215314Y-47036076D01*
X148310552Y-47083695D01*
X147167695Y-47226552D02*
X147262933Y-47178933D01*
X147310552Y-47131314D01*
X147358171Y-47036076D01*
X147358171Y-46988457D01*
X147310552Y-46893219D01*
X147262933Y-46845600D01*
X147167695Y-46797980D01*
X146977219Y-46797980D01*
X146881980Y-46845600D01*
X146834361Y-46893219D01*
X146786742Y-46988457D01*
X146786742Y-47036076D01*
X146834361Y-47131314D01*
X146881980Y-47178933D01*
X146977219Y-47226552D01*
X147167695Y-47226552D01*
X147262933Y-47274171D01*
X147310552Y-47321790D01*
X147358171Y-47417028D01*
X147358171Y-47607504D01*
X147310552Y-47702742D01*
X147262933Y-47750361D01*
X147167695Y-47797980D01*
X146977219Y-47797980D01*
X146881980Y-47750361D01*
X146834361Y-47702742D01*
X146786742Y-47607504D01*
X146786742Y-47417028D01*
X146834361Y-47321790D01*
X146881980Y-47274171D01*
X146977219Y-47226552D01*
X141199180Y-43649276D02*
X141199180Y-43458800D01*
X141246800Y-43363561D01*
X141294419Y-43315942D01*
X141437276Y-43220704D01*
X141627752Y-43173085D01*
X142008704Y-43173085D01*
X142103942Y-43220704D01*
X142151561Y-43268323D01*
X142199180Y-43363561D01*
X142199180Y-43554038D01*
X142151561Y-43649276D01*
X142103942Y-43696895D01*
X142008704Y-43744514D01*
X141770609Y-43744514D01*
X141675371Y-43696895D01*
X141627752Y-43649276D01*
X141580133Y-43554038D01*
X141580133Y-43363561D01*
X141627752Y-43268323D01*
X141675371Y-43220704D01*
X141770609Y-43173085D01*
X142199180Y-26244514D02*
X142199180Y-25673085D01*
X142199180Y-25958800D02*
X141199180Y-25958800D01*
X141342038Y-25863561D01*
X141437276Y-25768323D01*
X141484895Y-25673085D01*
X73475838Y-56838019D02*
X73571076Y-56790400D01*
X73666314Y-56695161D01*
X73809171Y-56552304D01*
X73904409Y-56504685D01*
X73999647Y-56504685D01*
X73952028Y-56742780D02*
X74047266Y-56695161D01*
X74142504Y-56599923D01*
X74190123Y-56409447D01*
X74190123Y-56076114D01*
X74142504Y-55885638D01*
X74047266Y-55790400D01*
X73952028Y-55742780D01*
X73761552Y-55742780D01*
X73666314Y-55790400D01*
X73571076Y-55885638D01*
X73523457Y-56076114D01*
X73523457Y-56409447D01*
X73571076Y-56599923D01*
X73666314Y-56695161D01*
X73761552Y-56742780D01*
X73952028Y-56742780D01*
X72571076Y-56742780D02*
X73142504Y-56742780D01*
X72856790Y-56742780D02*
X72856790Y-55742780D01*
X72952028Y-55885638D01*
X73047266Y-55980876D01*
X73142504Y-56028495D01*
X37701457Y-60148742D02*
X37749076Y-60196361D01*
X37891933Y-60243980D01*
X37987171Y-60243980D01*
X38130028Y-60196361D01*
X38225266Y-60101123D01*
X38272885Y-60005885D01*
X38320504Y-59815409D01*
X38320504Y-59672552D01*
X38272885Y-59482076D01*
X38225266Y-59386838D01*
X38130028Y-59291600D01*
X37987171Y-59243980D01*
X37891933Y-59243980D01*
X37749076Y-59291600D01*
X37701457Y-59339219D01*
X37320504Y-59339219D02*
X37272885Y-59291600D01*
X37177647Y-59243980D01*
X36939552Y-59243980D01*
X36844314Y-59291600D01*
X36796695Y-59339219D01*
X36749076Y-59434457D01*
X36749076Y-59529695D01*
X36796695Y-59672552D01*
X37368123Y-60243980D01*
X36749076Y-60243980D01*
X36415742Y-59243980D02*
X35749076Y-59243980D01*
X36177647Y-60243980D01*
X54479723Y-57771529D02*
X54479723Y-58485815D01*
X54527342Y-58628672D01*
X54622580Y-58723910D01*
X54765438Y-58771529D01*
X54860676Y-58771529D01*
X53479723Y-58771529D02*
X54051152Y-58771529D01*
X53765438Y-58771529D02*
X53765438Y-57771529D01*
X53860676Y-57914387D01*
X53955914Y-58009625D01*
X54051152Y-58057244D01*
X53098771Y-57866768D02*
X53051152Y-57819149D01*
X52955914Y-57771529D01*
X52717819Y-57771529D01*
X52622580Y-57819149D01*
X52574961Y-57866768D01*
X52527342Y-57962006D01*
X52527342Y-58057244D01*
X52574961Y-58200101D01*
X53146390Y-58771529D01*
X52527342Y-58771529D01*
X59118476Y-68625980D02*
X59689904Y-68625980D01*
X59404190Y-68625980D02*
X59404190Y-67625980D01*
X59499428Y-67768838D01*
X59594666Y-67864076D01*
X59689904Y-67911695D01*
X58499428Y-67625980D02*
X58404190Y-67625980D01*
X58308952Y-67673600D01*
X58261333Y-67721219D01*
X58213714Y-67816457D01*
X58166095Y-68006933D01*
X58166095Y-68245028D01*
X58213714Y-68435504D01*
X58261333Y-68530742D01*
X58308952Y-68578361D01*
X58404190Y-68625980D01*
X58499428Y-68625980D01*
X58594666Y-68578361D01*
X58642285Y-68530742D01*
X58689904Y-68435504D01*
X58737523Y-68245028D01*
X58737523Y-68006933D01*
X58689904Y-67816457D01*
X58642285Y-67721219D01*
X58594666Y-67673600D01*
X58499428Y-67625980D01*
X48456885Y-68575180D02*
X49028314Y-68575180D01*
X48742600Y-68575180D02*
X48742600Y-67575180D01*
X48837838Y-67718038D01*
X48933076Y-67813276D01*
X49028314Y-67860895D01*
X80089333Y-57771529D02*
X80089333Y-58485815D01*
X80136952Y-58628672D01*
X80232190Y-58723910D01*
X80375047Y-58771529D01*
X80470285Y-58771529D01*
X79708380Y-57771529D02*
X79041714Y-57771529D01*
X79470285Y-58771529D01*
X85026476Y-68549780D02*
X85597904Y-68549780D01*
X85312190Y-68549780D02*
X85312190Y-67549780D01*
X85407428Y-67692638D01*
X85502666Y-67787876D01*
X85597904Y-67835495D01*
X84407428Y-67549780D02*
X84312190Y-67549780D01*
X84216952Y-67597400D01*
X84169333Y-67645019D01*
X84121714Y-67740257D01*
X84074095Y-67930733D01*
X84074095Y-68168828D01*
X84121714Y-68359304D01*
X84169333Y-68454542D01*
X84216952Y-68502161D01*
X84312190Y-68549780D01*
X84407428Y-68549780D01*
X84502666Y-68502161D01*
X84550285Y-68454542D01*
X84597904Y-68359304D01*
X84645523Y-68168828D01*
X84645523Y-67930733D01*
X84597904Y-67740257D01*
X84550285Y-67645019D01*
X84502666Y-67597400D01*
X84407428Y-67549780D01*
X74568085Y-68575180D02*
X75139514Y-68575180D01*
X74853800Y-68575180D02*
X74853800Y-67575180D01*
X74949038Y-67718038D01*
X75044276Y-67813276D01*
X75139514Y-67860895D01*
X63787257Y-60097942D02*
X63834876Y-60145561D01*
X63977733Y-60193180D01*
X64072971Y-60193180D01*
X64215828Y-60145561D01*
X64311066Y-60050323D01*
X64358685Y-59955085D01*
X64406304Y-59764609D01*
X64406304Y-59621752D01*
X64358685Y-59431276D01*
X64311066Y-59336038D01*
X64215828Y-59240800D01*
X64072971Y-59193180D01*
X63977733Y-59193180D01*
X63834876Y-59240800D01*
X63787257Y-59288419D01*
X63406304Y-59288419D02*
X63358685Y-59240800D01*
X63263447Y-59193180D01*
X63025352Y-59193180D01*
X62930114Y-59240800D01*
X62882495Y-59288419D01*
X62834876Y-59383657D01*
X62834876Y-59478895D01*
X62882495Y-59621752D01*
X63453923Y-60193180D01*
X62834876Y-60193180D01*
X61930114Y-59193180D02*
X62406304Y-59193180D01*
X62453923Y-59669371D01*
X62406304Y-59621752D01*
X62311066Y-59574133D01*
X62072971Y-59574133D01*
X61977733Y-59621752D01*
X61930114Y-59669371D01*
X61882495Y-59764609D01*
X61882495Y-60002704D01*
X61930114Y-60097942D01*
X61977733Y-60145561D01*
X62072971Y-60193180D01*
X62311066Y-60193180D01*
X62406304Y-60145561D01*
X62453923Y-60097942D01*
D14*
X155587533Y-55717961D02*
X156254200Y-54765580D01*
X156730390Y-55717961D02*
X156730390Y-53717961D01*
X155968485Y-53717961D01*
X155778009Y-53813200D01*
X155682771Y-53908438D01*
X155587533Y-54098914D01*
X155587533Y-54384628D01*
X155682771Y-54575104D01*
X155778009Y-54670342D01*
X155968485Y-54765580D01*
X156730390Y-54765580D01*
X153587533Y-55527485D02*
X153682771Y-55622723D01*
X153968485Y-55717961D01*
X154158961Y-55717961D01*
X154444676Y-55622723D01*
X154635152Y-55432247D01*
X154730390Y-55241771D01*
X154825628Y-54860819D01*
X154825628Y-54575104D01*
X154730390Y-54194152D01*
X154635152Y-54003676D01*
X154444676Y-53813200D01*
X154158961Y-53717961D01*
X153968485Y-53717961D01*
X153682771Y-53813200D01*
X153587533Y-53908438D01*
X152825628Y-53908438D02*
X152730390Y-53813200D01*
X152539914Y-53717961D01*
X152063723Y-53717961D01*
X151873247Y-53813200D01*
X151778009Y-53908438D01*
X151682771Y-54098914D01*
X151682771Y-54289390D01*
X151778009Y-54575104D01*
X152920866Y-55717961D01*
X151682771Y-55717961D01*
D10*
X90652504Y-68210180D02*
X90652504Y-69019704D01*
X90604885Y-69114942D01*
X90557266Y-69162561D01*
X90462028Y-69210180D01*
X90271552Y-69210180D01*
X90176314Y-69162561D01*
X90128695Y-69114942D01*
X90081076Y-69019704D01*
X90081076Y-68210180D01*
X89652504Y-68305419D02*
X89604885Y-68257800D01*
X89509647Y-68210180D01*
X89271552Y-68210180D01*
X89176314Y-68257800D01*
X89128695Y-68305419D01*
X89081076Y-68400657D01*
X89081076Y-68495895D01*
X89128695Y-68638752D01*
X89700123Y-69210180D01*
X89081076Y-69210180D01*
X62999857Y-55654380D02*
X63333190Y-55178190D01*
X63571285Y-55654380D02*
X63571285Y-54654380D01*
X63190333Y-54654380D01*
X63095095Y-54702000D01*
X63047476Y-54749619D01*
X62999857Y-54844857D01*
X62999857Y-54987714D01*
X63047476Y-55082952D01*
X63095095Y-55130571D01*
X63190333Y-55178190D01*
X63571285Y-55178190D01*
X62618904Y-54749619D02*
X62571285Y-54702000D01*
X62476047Y-54654380D01*
X62237952Y-54654380D01*
X62142714Y-54702000D01*
X62095095Y-54749619D01*
X62047476Y-54844857D01*
X62047476Y-54940095D01*
X62095095Y-55082952D01*
X62666523Y-55654380D01*
X62047476Y-55654380D01*
X61190333Y-54987714D02*
X61190333Y-55654380D01*
X61428428Y-54606761D02*
X61666523Y-55321047D01*
X61047476Y-55321047D01*
X82913457Y-55654380D02*
X83246790Y-55178190D01*
X83484885Y-55654380D02*
X83484885Y-54654380D01*
X83103933Y-54654380D01*
X83008695Y-54702000D01*
X82961076Y-54749619D01*
X82913457Y-54844857D01*
X82913457Y-54987714D01*
X82961076Y-55082952D01*
X83008695Y-55130571D01*
X83103933Y-55178190D01*
X83484885Y-55178190D01*
X81961076Y-55654380D02*
X82532504Y-55654380D01*
X82246790Y-55654380D02*
X82246790Y-54654380D01*
X82342028Y-54797238D01*
X82437266Y-54892476D01*
X82532504Y-54940095D01*
X81056314Y-54654380D02*
X81532504Y-54654380D01*
X81580123Y-55130571D01*
X81532504Y-55082952D01*
X81437266Y-55035333D01*
X81199171Y-55035333D01*
X81103933Y-55082952D01*
X81056314Y-55130571D01*
X81008695Y-55225809D01*
X81008695Y-55463904D01*
X81056314Y-55559142D01*
X81103933Y-55606761D01*
X81199171Y-55654380D01*
X81437266Y-55654380D01*
X81532504Y-55606761D01*
X81580123Y-55559142D01*
X41721066Y-51665142D02*
X41768685Y-51712761D01*
X41911542Y-51760380D01*
X42006780Y-51760380D01*
X42149638Y-51712761D01*
X42244876Y-51617523D01*
X42292495Y-51522285D01*
X42340114Y-51331809D01*
X42340114Y-51188952D01*
X42292495Y-50998476D01*
X42244876Y-50903238D01*
X42149638Y-50808000D01*
X42006780Y-50760380D01*
X41911542Y-50760380D01*
X41768685Y-50808000D01*
X41721066Y-50855619D01*
X41387733Y-50760380D02*
X40721066Y-50760380D01*
X41149638Y-51760380D01*
X66416180Y-23385542D02*
X65939990Y-23052209D01*
X66416180Y-22814114D02*
X65416180Y-22814114D01*
X65416180Y-23195066D01*
X65463800Y-23290304D01*
X65511419Y-23337923D01*
X65606657Y-23385542D01*
X65749514Y-23385542D01*
X65844752Y-23337923D01*
X65892371Y-23290304D01*
X65939990Y-23195066D01*
X65939990Y-22814114D01*
X65511419Y-23766495D02*
X65463800Y-23814114D01*
X65416180Y-23909352D01*
X65416180Y-24147447D01*
X65463800Y-24242685D01*
X65511419Y-24290304D01*
X65606657Y-24337923D01*
X65701895Y-24337923D01*
X65844752Y-24290304D01*
X66416180Y-23718876D01*
X66416180Y-24337923D01*
X66416180Y-25290304D02*
X66416180Y-24718876D01*
X66416180Y-25004590D02*
X65416180Y-25004590D01*
X65559038Y-24909352D01*
X65654276Y-24814114D01*
X65701895Y-24718876D01*
X130784504Y-16419580D02*
X130784504Y-17229104D01*
X130736885Y-17324342D01*
X130689266Y-17371961D01*
X130594028Y-17419580D01*
X130403552Y-17419580D01*
X130308314Y-17371961D01*
X130260695Y-17324342D01*
X130213076Y-17229104D01*
X130213076Y-16419580D01*
X129213076Y-17419580D02*
X129784504Y-17419580D01*
X129498790Y-17419580D02*
X129498790Y-16419580D01*
X129594028Y-16562438D01*
X129689266Y-16657676D01*
X129784504Y-16705295D01*
X62255304Y-13269980D02*
X62255304Y-14079504D01*
X62207685Y-14174742D01*
X62160066Y-14222361D01*
X62064828Y-14269980D01*
X61874352Y-14269980D01*
X61779114Y-14222361D01*
X61731495Y-14174742D01*
X61683876Y-14079504D01*
X61683876Y-13269980D01*
X60779114Y-13603314D02*
X60779114Y-14269980D01*
X61017209Y-13222361D02*
X61255304Y-13936647D01*
X60636257Y-13936647D01*
X58362361Y-17216380D02*
X58362361Y-16216380D01*
X58124266Y-16216380D01*
X57981409Y-16264000D01*
X57886171Y-16359238D01*
X57838552Y-16454476D01*
X57790933Y-16644952D01*
X57790933Y-16787809D01*
X57838552Y-16978285D01*
X57886171Y-17073523D01*
X57981409Y-17168761D01*
X58124266Y-17216380D01*
X58362361Y-17216380D01*
X57409980Y-16311619D02*
X57362361Y-16264000D01*
X57267123Y-16216380D01*
X57029028Y-16216380D01*
X56933790Y-16264000D01*
X56886171Y-16311619D01*
X56838552Y-16406857D01*
X56838552Y-16502095D01*
X56886171Y-16644952D01*
X57457600Y-17216380D01*
X56838552Y-17216380D01*
X55981409Y-16549714D02*
X55981409Y-17216380D01*
X56219504Y-16168761D02*
X56457600Y-16883047D01*
X55838552Y-16883047D01*
X55600457Y-16216380D02*
X55267123Y-17216380D01*
X54933790Y-16216380D01*
X54076647Y-17216380D02*
X54648076Y-17216380D01*
X54362361Y-17216380D02*
X54362361Y-16216380D01*
X54457600Y-16359238D01*
X54552838Y-16454476D01*
X54648076Y-16502095D01*
X53171885Y-16216380D02*
X53648076Y-16216380D01*
X53695695Y-16692571D01*
X53648076Y-16644952D01*
X53552838Y-16597333D01*
X53314742Y-16597333D01*
X53219504Y-16644952D01*
X53171885Y-16692571D01*
X53124266Y-16787809D01*
X53124266Y-17025904D01*
X53171885Y-17121142D01*
X53219504Y-17168761D01*
X53314742Y-17216380D01*
X53552838Y-17216380D01*
X53648076Y-17168761D01*
X53695695Y-17121142D01*
X52505219Y-16216380D02*
X52409980Y-16216380D01*
X52314742Y-16264000D01*
X52267123Y-16311619D01*
X52219504Y-16406857D01*
X52171885Y-16597333D01*
X52171885Y-16835428D01*
X52219504Y-17025904D01*
X52267123Y-17121142D01*
X52314742Y-17168761D01*
X52409980Y-17216380D01*
X52505219Y-17216380D01*
X52600457Y-17168761D01*
X52648076Y-17121142D01*
X52695695Y-17025904D01*
X52743314Y-16835428D01*
X52743314Y-16597333D01*
X52695695Y-16406857D01*
X52648076Y-16311619D01*
X52600457Y-16264000D01*
X52505219Y-16216380D01*
X51409980Y-16692571D02*
X51743314Y-16692571D01*
X51743314Y-17216380D02*
X51743314Y-16216380D01*
X51267123Y-16216380D01*
X50981409Y-17216380D02*
X50457600Y-16549714D01*
X50981409Y-16549714D02*
X50457600Y-17216380D01*
D14*
X194500333Y-12664961D02*
X195167000Y-11712580D01*
X195643190Y-12664961D02*
X195643190Y-10664961D01*
X194881285Y-10664961D01*
X194690809Y-10760200D01*
X194595571Y-10855438D01*
X194500333Y-11045914D01*
X194500333Y-11331628D01*
X194595571Y-11522104D01*
X194690809Y-11617342D01*
X194881285Y-11712580D01*
X195643190Y-11712580D01*
X192500333Y-12474485D02*
X192595571Y-12569723D01*
X192881285Y-12664961D01*
X193071761Y-12664961D01*
X193357476Y-12569723D01*
X193547952Y-12379247D01*
X193643190Y-12188771D01*
X193738428Y-11807819D01*
X193738428Y-11522104D01*
X193643190Y-11141152D01*
X193547952Y-10950676D01*
X193357476Y-10760200D01*
X193071761Y-10664961D01*
X192881285Y-10664961D01*
X192595571Y-10760200D01*
X192500333Y-10855438D01*
X191833666Y-10664961D02*
X190595571Y-10664961D01*
X191262238Y-11426866D01*
X190976523Y-11426866D01*
X190786047Y-11522104D01*
X190690809Y-11617342D01*
X190595571Y-11807819D01*
X190595571Y-12284009D01*
X190690809Y-12474485D01*
X190786047Y-12569723D01*
X190976523Y-12664961D01*
X191547952Y-12664961D01*
X191738428Y-12569723D01*
X191833666Y-12474485D01*
D10*
X85801104Y-18680180D02*
X85801104Y-19489704D01*
X85753485Y-19584942D01*
X85705866Y-19632561D01*
X85610628Y-19680180D01*
X85420152Y-19680180D01*
X85324914Y-19632561D01*
X85277295Y-19584942D01*
X85229676Y-19489704D01*
X85229676Y-18680180D01*
X84848723Y-18680180D02*
X84229676Y-18680180D01*
X84563009Y-19061133D01*
X84420152Y-19061133D01*
X84324914Y-19108752D01*
X84277295Y-19156371D01*
X84229676Y-19251609D01*
X84229676Y-19489704D01*
X84277295Y-19584942D01*
X84324914Y-19632561D01*
X84420152Y-19680180D01*
X84705866Y-19680180D01*
X84801104Y-19632561D01*
X84848723Y-19584942D01*
X99856742Y-86574333D02*
X99904361Y-86526714D01*
X99951980Y-86383857D01*
X99951980Y-86288619D01*
X99904361Y-86145761D01*
X99809123Y-86050523D01*
X99713885Y-86002904D01*
X99523409Y-85955285D01*
X99380552Y-85955285D01*
X99190076Y-86002904D01*
X99094838Y-86050523D01*
X98999600Y-86145761D01*
X98951980Y-86288619D01*
X98951980Y-86383857D01*
X98999600Y-86526714D01*
X99047219Y-86574333D01*
X98951980Y-86907666D02*
X98951980Y-87526714D01*
X99332933Y-87193380D01*
X99332933Y-87336238D01*
X99380552Y-87431476D01*
X99428171Y-87479095D01*
X99523409Y-87526714D01*
X99761504Y-87526714D01*
X99856742Y-87479095D01*
X99904361Y-87431476D01*
X99951980Y-87336238D01*
X99951980Y-87050523D01*
X99904361Y-86955285D01*
X99856742Y-86907666D01*
X165755675Y-76057610D02*
X165803294Y-76105229D01*
X165946151Y-76152848D01*
X166041389Y-76152848D01*
X166184247Y-76105229D01*
X166279485Y-76009991D01*
X166327104Y-75914753D01*
X166374723Y-75724277D01*
X166374723Y-75581420D01*
X166327104Y-75390944D01*
X166279485Y-75295706D01*
X166184247Y-75200468D01*
X166041389Y-75152848D01*
X165946151Y-75152848D01*
X165803294Y-75200468D01*
X165755675Y-75248087D01*
X164898532Y-75486182D02*
X164898532Y-76152848D01*
X165136628Y-75105229D02*
X165374723Y-75819515D01*
X164755675Y-75819515D01*
X104936742Y56529266D02*
X104984361Y56576885D01*
X105031980Y56719742D01*
X105031980Y56814980D01*
X104984361Y56957838D01*
X104889123Y57053076D01*
X104793885Y57100695D01*
X104603409Y57148314D01*
X104460552Y57148314D01*
X104270076Y57100695D01*
X104174838Y57053076D01*
X104079600Y56957838D01*
X104031980Y56814980D01*
X104031980Y56719742D01*
X104079600Y56576885D01*
X104127219Y56529266D01*
X104031980Y55624504D02*
X104031980Y56100695D01*
X104508171Y56148314D01*
X104460552Y56100695D01*
X104412933Y56005457D01*
X104412933Y55767361D01*
X104460552Y55672123D01*
X104508171Y55624504D01*
X104603409Y55576885D01*
X104841504Y55576885D01*
X104936742Y55624504D01*
X104984361Y55672123D01*
X105031980Y55767361D01*
X105031980Y56005457D01*
X104984361Y56100695D01*
X104936742Y56148314D01*
X100999742Y56529266D02*
X101047361Y56576885D01*
X101094980Y56719742D01*
X101094980Y56814980D01*
X101047361Y56957838D01*
X100952123Y57053076D01*
X100856885Y57100695D01*
X100666409Y57148314D01*
X100523552Y57148314D01*
X100333076Y57100695D01*
X100237838Y57053076D01*
X100142600Y56957838D01*
X100094980Y56814980D01*
X100094980Y56719742D01*
X100142600Y56576885D01*
X100190219Y56529266D01*
X100094980Y55672123D02*
X100094980Y55862600D01*
X100142600Y55957838D01*
X100190219Y56005457D01*
X100333076Y56100695D01*
X100523552Y56148314D01*
X100904504Y56148314D01*
X100999742Y56100695D01*
X101047361Y56053076D01*
X101094980Y55957838D01*
X101094980Y55767361D01*
X101047361Y55672123D01*
X100999742Y55624504D01*
X100904504Y55576885D01*
X100666409Y55576885D01*
X100571171Y55624504D01*
X100523552Y55672123D01*
X100475933Y55767361D01*
X100475933Y55957838D01*
X100523552Y56053076D01*
X100571171Y56100695D01*
X100666409Y56148314D01*
X166708057Y-82932542D02*
X166755676Y-82980161D01*
X166898533Y-83027780D01*
X166993771Y-83027780D01*
X167136628Y-82980161D01*
X167231866Y-82884923D01*
X167279485Y-82789685D01*
X167327104Y-82599209D01*
X167327104Y-82456352D01*
X167279485Y-82265876D01*
X167231866Y-82170638D01*
X167136628Y-82075400D01*
X166993771Y-82027780D01*
X166898533Y-82027780D01*
X166755676Y-82075400D01*
X166708057Y-82123019D01*
X165755676Y-83027780D02*
X166327104Y-83027780D01*
X166041390Y-83027780D02*
X166041390Y-82027780D01*
X166136628Y-82170638D01*
X166231866Y-82265876D01*
X166327104Y-82313495D01*
X165136628Y-82027780D02*
X165041390Y-82027780D01*
X164946152Y-82075400D01*
X164898533Y-82123019D01*
X164850914Y-82218257D01*
X164803295Y-82408733D01*
X164803295Y-82646828D01*
X164850914Y-82837304D01*
X164898533Y-82932542D01*
X164946152Y-82980161D01*
X165041390Y-83027780D01*
X165136628Y-83027780D01*
X165231866Y-82980161D01*
X165279485Y-82932542D01*
X165327104Y-82837304D01*
X165374723Y-82646828D01*
X165374723Y-82408733D01*
X165327104Y-82218257D01*
X165279485Y-82123019D01*
X165231866Y-82075400D01*
X165136628Y-82027780D01*
X165755675Y-72620142D02*
X165803294Y-72667761D01*
X165946151Y-72715380D01*
X166041389Y-72715380D01*
X166184247Y-72667761D01*
X166279485Y-72572523D01*
X166327104Y-72477285D01*
X166374723Y-72286809D01*
X166374723Y-72143952D01*
X166327104Y-71953476D01*
X166279485Y-71858238D01*
X166184247Y-71763000D01*
X166041389Y-71715380D01*
X165946151Y-71715380D01*
X165803294Y-71763000D01*
X165755675Y-71810619D01*
X165374723Y-71810619D02*
X165327104Y-71763000D01*
X165231866Y-71715380D01*
X164993770Y-71715380D01*
X164898532Y-71763000D01*
X164850913Y-71810619D01*
X164803294Y-71905857D01*
X164803294Y-72001095D01*
X164850913Y-72143952D01*
X165422342Y-72715380D01*
X164803294Y-72715380D01*
X165755675Y-79495076D02*
X165803294Y-79542695D01*
X165946151Y-79590314D01*
X166041389Y-79590314D01*
X166184247Y-79542695D01*
X166279485Y-79447457D01*
X166327104Y-79352219D01*
X166374723Y-79161743D01*
X166374723Y-79018886D01*
X166327104Y-78828410D01*
X166279485Y-78733172D01*
X166184247Y-78637934D01*
X166041389Y-78590314D01*
X165946151Y-78590314D01*
X165803294Y-78637934D01*
X165755675Y-78685553D01*
X165279485Y-79590314D02*
X165089009Y-79590314D01*
X164993770Y-79542695D01*
X164946151Y-79495076D01*
X164850913Y-79352219D01*
X164803294Y-79161743D01*
X164803294Y-78780791D01*
X164850913Y-78685553D01*
X164898532Y-78637934D01*
X164993770Y-78590314D01*
X165184247Y-78590314D01*
X165279485Y-78637934D01*
X165327104Y-78685553D01*
X165374723Y-78780791D01*
X165374723Y-79018886D01*
X165327104Y-79114124D01*
X165279485Y-79161743D01*
X165184247Y-79209362D01*
X164993770Y-79209362D01*
X164898532Y-79161743D01*
X164850913Y-79114124D01*
X164803294Y-79018886D01*
X119043542Y-46518533D02*
X119091161Y-46470914D01*
X119138780Y-46328057D01*
X119138780Y-46232819D01*
X119091161Y-46089961D01*
X118995923Y-45994723D01*
X118900685Y-45947104D01*
X118710209Y-45899485D01*
X118567352Y-45899485D01*
X118376876Y-45947104D01*
X118281638Y-45994723D01*
X118186400Y-46089961D01*
X118138780Y-46232819D01*
X118138780Y-46328057D01*
X118186400Y-46470914D01*
X118234019Y-46518533D01*
X119138780Y-47470914D02*
X119138780Y-46899485D01*
X119138780Y-47185200D02*
X118138780Y-47185200D01*
X118281638Y-47089961D01*
X118376876Y-46994723D01*
X118424495Y-46899485D01*
X122473980Y-46543933D02*
X121997790Y-46210600D01*
X122473980Y-45972504D02*
X121473980Y-45972504D01*
X121473980Y-46353457D01*
X121521600Y-46448695D01*
X121569219Y-46496314D01*
X121664457Y-46543933D01*
X121807314Y-46543933D01*
X121902552Y-46496314D01*
X121950171Y-46448695D01*
X121997790Y-46353457D01*
X121997790Y-45972504D01*
X121473980Y-47448695D02*
X121473980Y-46972504D01*
X121950171Y-46924885D01*
X121902552Y-46972504D01*
X121854933Y-47067742D01*
X121854933Y-47305838D01*
X121902552Y-47401076D01*
X121950171Y-47448695D01*
X122045409Y-47496314D01*
X122283504Y-47496314D01*
X122378742Y-47448695D01*
X122426361Y-47401076D01*
X122473980Y-47305838D01*
X122473980Y-47067742D01*
X122426361Y-46972504D01*
X122378742Y-46924885D01*
M02*
