M48
; DRILL file {KiCad (5.1.10-1-10_14)} date Sunday, April 30, 2023 at 11:49:31 PM
; FORMAT={-:-/ absolute / inch / decimal}
; #@! TF.CreationDate,2023-04-30T23:49:31-07:00
; #@! TF.GenerationSoftware,Kicad,Pcbnew,(5.1.10-1-10_14)
FMAT,2
INCH
T1C0.0079
T2C0.0157
T3C0.0315
T4C0.0354
T5C0.0394
T6C0.0400
T7C0.0402
T8C0.0417
T9C0.0433
T10C0.0512
T11C0.0570
T12C0.0591
T13C0.1063
T14C0.0858
T15C0.0984
T16C0.1000
T17C0.1142
T18C0.1180
T19C0.1181
%
G90
G05
T1
X5.3Y-1.269
X5.301Y-1.1415
X6.5286Y-0.6556
X7.388Y-0.6556
X8.018Y-0.654
X8.203Y-0.654
T2
X0.347Y-1.6575
X0.3647Y-1.6184
X0.375Y-2.3404
X0.4541Y-0.6705
X0.4855Y-3.4895
X0.4914Y-0.683
X0.5076Y-3.5221
X0.5245Y-0.5838
X0.5287Y-0.6703
X0.5326Y-3.5525
X0.5345Y-2.302
X0.5595Y-0.6018
X0.5657Y-0.6838
X0.5675Y-1.2115
X0.6027Y-0.6704
X0.6367Y-0.585
X0.6402Y-0.6824
X0.6625Y-1.308
X0.6718Y-0.6029
X0.6806Y-0.6671
X0.707Y-0.5853
X0.7333Y-2.2631
X0.7663Y-0.6027
X0.787Y-2.069
X0.8018Y-0.5858
X1.0182Y-3.5998
X1.2095Y-0.3785
X1.21Y-0.3214
X1.212Y-0.2644
X1.2125Y-0.2073
X1.2395Y-0.4141
X1.2407Y-0.2375
X1.2407Y-0.2968
X1.241Y-0.3548
X1.2895Y-2.3477
X1.292Y-2.269
X1.292Y-2.3084
X2.1706Y-3.4474
X2.2176Y-0.3194
X2.218Y-0.205
X2.2192Y-0.3765
X2.2193Y-0.2624
X2.2461Y-0.4125
X2.2472Y-0.3489
X2.249Y-0.2338
X2.2497Y-0.2909
X2.599Y-0.661
X2.8062Y-3.4424
X3.1275Y-0.4342
X3.129Y-0.3948
X3.14Y-0.7375
X3.1673Y-0.709
X3.717Y-2.343
X3.7465Y-2.313
X3.749Y0.936
X3.785Y-2.503
X3.818Y0.887
X3.824Y-2.4974
X3.8451Y2.3977
X3.885Y2.3982
X3.9249Y-0.7357
X3.9426Y-0.6997
X3.9491Y-2.8926
X3.9507Y-2.8506
X3.9511Y-2.8099
X3.9711Y-1.9695
X3.982Y-0.6988
X3.9838Y1.0645
X3.9997Y-1.9383
X3.9997Y-0.737
X4.0015Y1.027
X4.0282Y-1.9685
X4.0372Y-2.831
X4.039Y-0.6985
X4.039Y-2.0725
X4.0406Y0.2241
X4.0549Y-2.7927
X4.0568Y-1.9395
X4.0568Y-2.036
X4.0568Y-0.7365
X4.0796Y0.236
X4.0836Y-2.7645
X4.0881Y0.1889
X4.104Y-0.735
X4.104Y-1.938
X4.113Y-2.463
X4.1263Y0.2001
X4.133Y0.142
X4.1565Y-2.4505
X4.16Y-0.73
X4.16Y-1.933
X4.1655Y-2.534
X4.179Y0.106
X4.1865Y0.8834
X4.1865Y0.844
X4.201Y-2.4575
X4.217Y-0.726
X4.217Y-1.929
X4.226Y0.075
X4.2595Y-2.5565
X4.272Y0.037
X4.275Y-0.722
X4.275Y-1.925
X4.29Y-2.477
X4.327Y-2.432
X4.3451Y0.5469
X4.3491Y0.5077
X4.37Y-2.392
X4.392Y0.512
X4.392Y0.468
X4.409Y-2.353
X4.4137Y2.3773
X4.431Y0.438
X4.433Y0.279
X4.453Y2.375
X4.472Y0.398
X4.505Y0.269
X4.638Y-3.224
X4.6389Y-3.1656
X4.6652Y-3.2525
X4.666Y-3.137
X4.6666Y-3.1941
X4.9451Y-2.0212
X4.9843Y-2.0071
X4.986Y-1.828
X5.0222Y-1.9942
X5.0654Y-1.9901
X5.1197Y0.1384
X5.1493Y0.1644
X5.1776Y0.1917
X5.178Y-3.2525
X5.1784Y-3.1938
X5.1787Y-3.1367
X5.206Y0.219
X5.2089Y-3.2202
X5.2091Y-3.1631
X5.312Y0.1976
X5.3352Y0.1658
X5.3561Y0.1325
X5.3793Y0.1006
X5.4022Y0.0686
X5.4246Y0.0362
X5.4477Y0.0043
X5.4691Y-0.0287
X5.7271Y-0.6272
X5.7664Y-0.6269
X5.779Y-2.176
X5.8058Y-0.6272
X5.8451Y-0.6249
X5.846Y-2.121
X5.893Y-2.066
X5.945Y-2.009
X5.9796Y-1.9616
X6.019Y-1.9618
X6.1865Y-1.7175
X6.2028Y-1.7552
X6.2477Y-2.6674
X6.2485Y-2.707
X6.2542Y-0.7788
X6.2934Y-0.7824
X6.2967Y-1.021
X6.2967Y-1.064
X6.2967Y-1.1034
X6.2967Y-1.1427
X6.3143Y-0.8792
X6.3233Y-2.675
X6.3328Y-0.7824
X6.3434Y-0.9143
X6.347Y-0.8572
X6.3518Y-2.6372
X6.3677Y-1.5832
X6.37Y-2.252
X6.3804Y-1.9345
X6.3853Y-1.534
X6.409Y-2.2235
X6.409Y-1.9615
X6.438Y-2.257
X6.4382Y-1.9351
X6.467Y-2.2235
X6.4675Y-1.9615
X6.4963Y-1.9346
X6.497Y-2.257
X6.525Y-1.9618
X6.525Y-2.2235
X6.5569Y-1.935
X6.557Y-2.257
X6.5858Y-1.9618
X6.586Y-2.2244
X6.8845Y-1.344
X7.184Y-0.846
X7.2113Y-0.8748
X7.2391Y-0.9027
X8.2266Y-2.4214
X8.2301Y-2.4606
X8.2711Y-2.4659
X8.2791Y-2.5044
X8.3221Y-2.5169
X8.4109Y-2.2381
X8.4504Y-2.24
X8.455Y-2.2822
X8.4936Y-2.2899
X8.5058Y-2.333
T3
X0.685Y-3.319
X0.686Y-2.949
X0.686Y-3.073
X0.686Y-3.197
X0.686Y-3.445
X0.985Y-3.319
X0.986Y-2.949
X0.986Y-3.073
X0.986Y-3.197
X0.986Y-3.445
X1.649Y-2.4194
X1.649Y-2.569
X1.857Y-2.0224
X1.857Y-2.172
X2.305Y-2.08
X2.599Y-1.054
X2.599Y-1.354
X2.605Y-2.08
X2.672Y-2.4194
X2.672Y-2.569
X2.789Y-2.076
X2.889Y-2.076
X2.989Y-2.076
X3.089Y-2.08
X3.389Y-2.08
X3.824Y-3.265
X3.824Y-3.565
X3.962Y2.13
X3.962Y1.83
X4.117Y2.13
X4.117Y1.83
X4.466Y-1.199
X4.6534Y2.597
X4.672Y-1.928
X4.672Y-2.228
X4.766Y-1.199
X4.802Y-1.927
X4.802Y-2.227
X4.803Y2.597
X6.15Y-2.787
X6.15Y-2.9187
X6.15Y-3.0503
X6.15Y-3.182
X6.45Y-2.787
X6.45Y-2.9187
X6.45Y-3.0503
X6.45Y-3.182
X6.664Y-0.968
X6.664Y-1.0935
X6.664Y-1.219
X6.664Y-1.415
X6.664Y-1.5415
X6.664Y-1.668
X6.9464Y-0.6556
X6.964Y-0.968
X6.964Y-1.0935
X6.964Y-1.219
X6.964Y-1.415
X6.964Y-1.5415
X6.964Y-1.668
X7.2464Y-0.6556
X7.265Y-2.79
X7.265Y-2.9157
X7.265Y-3.0413
X7.265Y-3.167
X7.565Y-2.79
X7.565Y-2.9157
X7.565Y-3.0413
X7.565Y-3.167
X7.719Y-1.293
X7.719Y-1.4247
X7.719Y-1.5563
X7.719Y-1.688
X8.019Y-1.293
X8.019Y-1.4247
X8.019Y-1.5563
X8.019Y-1.688
T4
X7.5761Y-0.6556
X7.773Y-0.6556
T5
X0.2137Y-2.506
X0.2137Y-2.606
X0.2137Y-2.706
X0.2137Y-2.806
X0.2137Y-2.906
X0.2137Y-3.006
X0.2137Y-3.106
X0.2137Y-3.206
X0.2137Y-3.306
X0.2137Y-3.406
X0.468Y-1.107
X0.468Y-1.207
X0.468Y-1.307
X0.468Y-1.407
X0.468Y-1.507
X0.468Y-1.607
X0.468Y-1.707
X0.468Y-1.807
X0.509Y-2.506
X0.509Y-2.606
X0.509Y-2.706
X0.509Y-2.806
X0.509Y-2.906
X0.509Y-3.006
X0.509Y-3.106
X0.509Y-3.206
X0.509Y-3.306
X0.509Y-3.406
T6
X1.946Y-1.644
X2.046Y-1.644
X2.146Y-1.644
X2.246Y-1.644
X2.3283Y-0.2362
X2.3283Y-0.3362
X2.4283Y-0.2362
X2.4283Y-0.3362
X2.5283Y-0.2362
X2.5283Y-0.3362
X2.6283Y-0.2362
X2.6283Y-0.3362
X2.7283Y-0.2362
X2.7283Y-0.3362
X2.8283Y-0.2362
X2.8283Y-0.3362
X2.9283Y-0.2362
X2.9283Y-0.3362
X3.0283Y-0.2362
X3.0283Y-0.3362
X3.1283Y-0.2362
X3.1283Y-0.3362
X3.2283Y-0.2362
X3.2283Y-0.3362
X4.389Y-1.518
X4.489Y-1.518
X4.589Y-1.518
X4.689Y-1.518
X4.789Y-1.518
X4.889Y-1.518
X4.989Y-1.518
X5.089Y-1.518
T7
X1.523Y-3.502
X1.523Y-3.602
X1.523Y-3.702
X1.623Y-3.502
X1.623Y-3.602
X1.623Y-3.702
X1.723Y-3.502
X1.723Y-3.602
X1.723Y-3.702
X1.823Y-3.502
X1.823Y-3.602
X1.823Y-3.702
X1.96Y-2.398
X1.96Y-2.498
X1.96Y-2.598
X2.023Y-3.502
X2.023Y-3.602
X2.023Y-3.702
X2.06Y-2.398
X2.06Y-2.498
X2.06Y-2.598
X2.123Y-3.502
X2.123Y-3.602
X2.123Y-3.702
X2.16Y-2.398
X2.16Y-2.498
X2.16Y-2.598
X2.223Y-3.502
X2.223Y-3.602
X2.223Y-3.702
X2.26Y-2.398
X2.26Y-2.498
X2.26Y-2.598
X2.323Y-3.502
X2.323Y-3.602
X2.323Y-3.702
X2.623Y-3.502
X2.623Y-3.602
X2.623Y-3.702
X2.723Y-3.502
X2.723Y-3.602
X2.723Y-3.702
X2.755Y-1.059
X2.755Y-1.159
X2.755Y-1.259
X2.755Y-1.359
X2.755Y-1.459
X2.823Y-3.502
X2.823Y-3.602
X2.823Y-3.702
X2.923Y-3.502
X2.923Y-3.602
X2.923Y-3.702
X2.987Y-2.398
X2.987Y-2.498
X2.987Y-2.598
X3.087Y-2.398
X3.087Y-2.498
X3.087Y-2.598
X3.123Y-3.502
X3.123Y-3.602
X3.123Y-3.702
X3.187Y-2.398
X3.187Y-2.498
X3.187Y-2.598
X3.223Y-3.502
X3.223Y-3.602
X3.223Y-3.702
X3.287Y-2.398
X3.287Y-2.498
X3.287Y-2.598
X3.323Y-3.502
X3.323Y-3.602
X3.323Y-3.702
X3.423Y-3.502
X3.423Y-3.602
X3.423Y-3.702
X3.623Y-3.002
X3.623Y-3.102
X3.623Y-3.202
X3.623Y-3.302
X3.623Y-3.402
X3.623Y-3.502
X4.08Y2.889
X4.08Y2.789
X4.08Y2.689
X4.18Y2.889
X4.18Y2.789
X4.18Y2.689
X4.28Y2.889
X4.28Y2.789
X4.28Y2.689
X4.38Y2.889
X4.38Y2.789
X4.38Y2.689
X5.199Y-2.395
X5.199Y-2.5328
X5.199Y-2.6706
X5.199Y-2.8084
X5.199Y-2.9462
X5.199Y-3.084
X5.7677Y-3.1021
X5.7677Y-3.2021
X5.7677Y-3.3021
X5.7677Y-3.4021
X5.7677Y-3.5021
X5.796Y-1.023
X5.796Y-1.1608
X5.796Y-1.2986
X5.796Y-1.4364
X5.796Y-1.5742
X5.796Y-1.712
X5.8677Y-2.6021
X5.8677Y-2.7021
X5.8677Y-2.8021
X5.8677Y-2.9021
X5.8677Y-3.0021
X5.8677Y-3.1021
X5.8677Y-3.2021
X5.8677Y-3.3021
X5.8677Y-3.4021
X5.8677Y-3.5021
X5.9677Y-2.6021
X5.9677Y-2.7021
X5.9677Y-2.8021
X5.9677Y-2.9021
X5.9677Y-3.0021
X5.9677Y-3.1021
X5.9677Y-3.2021
X5.9677Y-3.3021
X5.9677Y-3.4021
X5.9677Y-3.5021
X7.7473Y-2.5991
X7.7473Y-2.6991
X7.7473Y-2.7991
X7.7473Y-2.8991
X7.7473Y-2.9991
X7.7473Y-3.0991
X7.7473Y-3.1991
X7.7473Y-3.2991
X7.7473Y-3.3991
X7.7473Y-3.4991
X7.8473Y-2.5991
X7.8473Y-2.6991
X7.8473Y-2.7991
X7.8473Y-2.8991
X7.8473Y-2.9991
X7.8473Y-3.0991
X7.8473Y-3.1991
X7.8473Y-3.2991
X7.8473Y-3.3991
X7.8473Y-3.4991
X7.9473Y-3.0991
X7.9473Y-3.1991
X7.9473Y-3.2991
X7.9473Y-3.3991
X7.9473Y-3.4991
X8.2034Y-0.9273
X8.2034Y-1.0273
X8.2034Y-1.1273
X8.2034Y-1.2273
X8.2034Y-1.3273
X8.2034Y-1.4273
X8.2034Y-1.5273
X8.2034Y-1.6273
X8.2034Y-1.7273
X8.2034Y-1.8273
X8.3034Y-0.9273
X8.3034Y-1.0273
X8.3034Y-1.1273
X8.3034Y-1.2273
X8.3034Y-1.3273
X8.3034Y-1.4273
X8.3034Y-1.5273
X8.3034Y-1.6273
X8.3034Y-1.7273
X8.3034Y-1.8273
X8.4034Y-0.9273
X8.4034Y-1.0273
X8.4034Y-1.1273
X8.4034Y-1.2273
X8.4034Y-1.3273
X8.436Y-2.684
X8.436Y-2.8218
X8.436Y-2.9596
X8.436Y-3.0974
X8.436Y-3.2352
X8.436Y-3.373
T8
X1.046Y-1.644
X1.146Y-1.644
X1.246Y-1.644
X1.346Y-1.644
X1.446Y-1.744
X1.546Y-1.744
X1.646Y-1.744
X1.746Y-1.744
X1.846Y-1.744
T9
X0.417Y-2.069
X0.417Y-2.169
X0.417Y-2.269
T10
X0.2575Y-0.5595
X0.2575Y-0.7595
X2.373Y-2.888
X2.573Y-2.888
X4.639Y-0.868
X4.839Y-0.868
X5.075Y-3.657
X5.275Y-3.657
T11
X3.3263Y2.6108
X3.3263Y2.4454
X3.3263Y2.28
X3.3263Y1.6988
X3.3263Y1.5334
X3.3263Y1.368
X3.3263Y0.7888
X3.3263Y0.6234
X3.3263Y0.458
X3.5433Y2.6108
X3.5433Y2.4454
X3.5433Y2.28
X3.5433Y1.6988
X3.5433Y1.5334
X3.5433Y1.368
X3.5433Y0.7888
X3.5433Y0.6234
X3.5433Y0.458
X5.0787Y2.6106
X5.0787Y2.4452
X5.0787Y2.2798
X5.0787Y1.6986
X5.0787Y1.5332
X5.0787Y1.3678
X5.0787Y0.7886
X5.0787Y0.6232
X5.0787Y0.4578
X5.2957Y2.6106
X5.2957Y2.4452
X5.2957Y2.2798
X5.2957Y1.6986
X5.2957Y1.5332
X5.2957Y1.3678
X5.2957Y0.7886
X5.2957Y0.6232
X5.2957Y0.4578
T12
X7.1471Y-0.322
X8.0369Y-0.322
T13
X0.143Y-1.036
X0.143Y-1.2682
X0.143Y-1.5004
X0.143Y-1.7326
X0.143Y-1.9648
X0.143Y-2.197
X5.871Y-0.218
X5.871Y-0.4149
X6.286Y-0.218
X6.286Y-0.4149
X6.792Y-0.218
X6.792Y-0.4149
X8.254Y-0.218
X8.254Y-0.4149
T14
X2.7956Y-0.8988
X3.3152Y-1.4184
T15
X0.8818Y-0.6786
X0.8818Y-1.6786
X2.4094Y-0.6786
X2.4094Y-1.6786
T16
X4.389Y-0.818
X5.089Y-0.818
T17
X0.1575Y-0.1575
X0.1575Y-3.7795
X0.7874Y-0.1575
X0.7874Y-3.7795
X3.5433Y2.9134
X3.5433Y0.1575
X4.3701Y-0.1575
X4.3701Y-3.7795
X4.7244Y-3.7795
X4.9213Y2.9134
X5.0787Y-0.0787
X5.739Y-2.336
X5.739Y-3.771
X6.301Y-2.333
X6.301Y-3.768
X6.7572Y-0.6585
X6.7572Y-2.0935
X7.414Y-2.336
X7.414Y-3.771
X7.976Y-2.333
X7.976Y-3.768
X8.4322Y-0.6585
X8.4322Y-2.0935
X8.5039Y-0.1575
X8.5039Y-3.7795
T18
X3.3443Y2.7958
X3.3443Y2.0948
X3.3443Y1.8838
X3.3443Y1.1828
X3.3443Y0.9738
X3.3443Y0.2728
X5.2777Y2.7958
X5.2777Y2.0948
X5.2777Y1.8838
X5.2777Y1.1828
X5.2777Y0.9738
X5.2777Y0.2728
T19
X1.373Y-2.882
X1.373Y-3.6313
X3.5723Y-2.882
X3.5723Y-3.6313
T0
M30
