G04 #@! TF.GenerationSoftware,KiCad,Pcbnew,(5.0.2)-1*
G04 #@! TF.CreationDate,2019-02-21T18:21:24-08:00*
G04 #@! TF.ProjectId,Arduino_uno_sheild,41726475-696e-46f5-9f75-6e6f5f736865,rev?*
G04 #@! TF.SameCoordinates,Original*
G04 #@! TF.FileFunction,Copper,L2,Bot*
G04 #@! TF.FilePolarity,Positive*
%FSLAX46Y46*%
G04 Gerber Fmt 4.6, Leading zero omitted, Abs format (unit mm)*
G04 Created by KiCad (PCBNEW (5.0.2)-1) date 2/21/2019 6:21:24 PM*
%MOMM*%
%LPD*%
G01*
G04 APERTURE LIST*
G04 #@! TA.AperFunction,ComponentPad*
%ADD10C,1.560000*%
G04 #@! TD*
G04 #@! TA.AperFunction,WasherPad*
%ADD11C,3.600000*%
G04 #@! TD*
G04 #@! TA.AperFunction,ComponentPad*
%ADD12C,1.600000*%
G04 #@! TD*
G04 #@! TA.AperFunction,ComponentPad*
%ADD13R,1.600000X1.600000*%
G04 #@! TD*
G04 #@! TA.AperFunction,ComponentPad*
%ADD14C,1.524000*%
G04 #@! TD*
G04 #@! TA.AperFunction,ComponentPad*
%ADD15C,1.800000*%
G04 #@! TD*
G04 #@! TA.AperFunction,ComponentPad*
%ADD16R,1.800000X1.800000*%
G04 #@! TD*
G04 #@! TA.AperFunction,ViaPad*
%ADD17C,0.800000*%
G04 #@! TD*
G04 #@! TA.AperFunction,Conductor*
%ADD18C,0.250000*%
G04 #@! TD*
G04 #@! TA.AperFunction,Conductor*
%ADD19C,1.000000*%
G04 #@! TD*
G04 #@! TA.AperFunction,Conductor*
%ADD20C,0.254000*%
G04 #@! TD*
G04 APERTURE END LIST*
D10*
G04 #@! TO.P,A1,31*
G04 #@! TO.N,Net-(A1-Pad31)*
X27940000Y2540000D03*
G04 #@! TO.P,A1,20*
G04 #@! TO.N,/IOREF*
X30480000Y2540000D03*
G04 #@! TO.P,A1,21*
G04 #@! TO.N,/RESET*
X33020000Y2540000D03*
G04 #@! TO.P,A1,22*
G04 #@! TO.N,/3.3V*
X35560000Y2540000D03*
G04 #@! TO.P,A1,23*
G04 #@! TO.N,/5V*
X38100000Y2540000D03*
G04 #@! TO.P,A1,24*
G04 #@! TO.N,GND*
X40640000Y2540000D03*
G04 #@! TO.P,A1,25*
X43180000Y2540000D03*
G04 #@! TO.P,A1,26*
G04 #@! TO.N,+12V*
X45720000Y2540000D03*
G04 #@! TO.P,A1,14*
G04 #@! TO.N,/A*
X50800000Y2540000D03*
G04 #@! TO.P,A1,15*
G04 #@! TO.N,/B*
X53340000Y2540000D03*
G04 #@! TO.P,A1,16*
G04 #@! TO.N,/C*
X55880000Y2540000D03*
G04 #@! TO.P,A1,17*
G04 #@! TO.N,/A3*
X58420000Y2540000D03*
G04 #@! TO.P,A1,18*
G04 #@! TO.N,/A4*
X60960000Y2540000D03*
G04 #@! TO.P,A1,19*
G04 #@! TO.N,/A5*
X63500000Y2540000D03*
G04 #@! TO.P,A1,30*
G04 #@! TO.N,/SCL*
X18796000Y50800000D03*
G04 #@! TO.P,A1,29*
G04 #@! TO.N,/SDA*
X21336000Y50800000D03*
G04 #@! TO.P,A1,28*
G04 #@! TO.N,/AREF*
X23876000Y50800000D03*
G04 #@! TO.P,A1,27*
G04 #@! TO.N,GND*
X26416000Y50800000D03*
G04 #@! TO.P,A1,13*
G04 #@! TO.N,/SCK*
X28956000Y50800000D03*
G04 #@! TO.P,A1,12*
G04 #@! TO.N,/MISO*
X31496000Y50800000D03*
G04 #@! TO.P,A1,11*
G04 #@! TO.N,/MOSI*
X34036000Y50800000D03*
G04 #@! TO.P,A1,10*
G04 #@! TO.N,/LAT*
X36576000Y50800000D03*
G04 #@! TO.P,A1,9*
G04 #@! TO.N,/OE*
X39116000Y50800000D03*
G04 #@! TO.P,A1,8*
G04 #@! TO.N,/CLK*
X41656000Y50800000D03*
G04 #@! TO.P,A1,7*
G04 #@! TO.N,/B2*
X45720000Y50800000D03*
G04 #@! TO.P,A1,6*
G04 #@! TO.N,/G2*
X48260000Y50800000D03*
G04 #@! TO.P,A1,5*
G04 #@! TO.N,/R2*
X50800000Y50800000D03*
G04 #@! TO.P,A1,4*
G04 #@! TO.N,/B1*
X53340000Y50800000D03*
G04 #@! TO.P,A1,3*
G04 #@! TO.N,/G1*
X55880000Y50800000D03*
G04 #@! TO.P,A1,2*
G04 #@! TO.N,/R1*
X58420000Y50800000D03*
G04 #@! TO.P,A1,1*
G04 #@! TO.N,/TX*
X60960000Y50800000D03*
G04 #@! TO.P,A1,0*
G04 #@! TO.N,/RX*
X63500000Y50800000D03*
D11*
G04 #@! TO.P,A1,*
G04 #@! TO.N,*
X15240000Y50800000D03*
X66040000Y35560000D03*
X66040000Y7620000D03*
X13970000Y2540000D03*
G04 #@! TD*
D12*
G04 #@! TO.P,J1,1*
G04 #@! TO.N,/R1*
X6400800Y16052800D03*
G04 #@! TO.P,J1,2*
G04 #@! TO.N,/G1*
X6400800Y18592800D03*
G04 #@! TO.P,J1,3*
G04 #@! TO.N,/B1*
X8940800Y16052800D03*
G04 #@! TO.P,J1,4*
G04 #@! TO.N,GND*
X8940800Y18592800D03*
G04 #@! TO.P,J1,5*
G04 #@! TO.N,/R2*
X11480800Y16052800D03*
G04 #@! TO.P,J1,6*
G04 #@! TO.N,/G2*
X11480800Y18592800D03*
G04 #@! TO.P,J1,7*
G04 #@! TO.N,/B2*
X14020800Y16052800D03*
G04 #@! TO.P,J1,8*
G04 #@! TO.N,GND*
X14020800Y18592800D03*
G04 #@! TO.P,J1,9*
G04 #@! TO.N,/A*
X16560800Y16052800D03*
G04 #@! TO.P,J1,10*
G04 #@! TO.N,/B*
X16560800Y18592800D03*
G04 #@! TO.P,J1,11*
G04 #@! TO.N,/C*
X19100800Y16052800D03*
G04 #@! TO.P,J1,12*
G04 #@! TO.N,GND*
X19100800Y18592800D03*
G04 #@! TO.P,J1,13*
G04 #@! TO.N,/CLK*
X21640800Y16052800D03*
G04 #@! TO.P,J1,14*
G04 #@! TO.N,/LAT*
X21640800Y18592800D03*
G04 #@! TO.P,J1,15*
G04 #@! TO.N,/OE*
X24180800Y16052800D03*
G04 #@! TO.P,J1,16*
G04 #@! TO.N,GND*
X24180800Y18592800D03*
G04 #@! TD*
G04 #@! TO.P,J2,6*
G04 #@! TO.N,/SDA*
X46355000Y10160000D03*
G04 #@! TO.P,J2,5*
G04 #@! TO.N,/SCL*
X48895000Y10160000D03*
G04 #@! TO.P,J2,4*
G04 #@! TO.N,GND*
X51435000Y10160000D03*
G04 #@! TO.P,J2,3*
G04 #@! TO.N,/A3*
X53975000Y10160000D03*
G04 #@! TO.P,J2,2*
G04 #@! TO.N,/A4*
X56515000Y10160000D03*
D13*
G04 #@! TO.P,J2,1*
G04 #@! TO.N,/A5*
X59055000Y10160000D03*
G04 #@! TD*
D12*
G04 #@! TO.P,J3,6*
G04 #@! TO.N,Net-(J3-Pad6)*
X43180000Y10160000D03*
G04 #@! TO.P,J3,5*
G04 #@! TO.N,GND*
X40640000Y10160000D03*
G04 #@! TO.P,J3,4*
G04 #@! TO.N,/5V*
X38100000Y10160000D03*
G04 #@! TO.P,J3,3*
G04 #@! TO.N,/3.3V*
X35560000Y10160000D03*
G04 #@! TO.P,J3,2*
G04 #@! TO.N,/RESET*
X33020000Y10160000D03*
D13*
G04 #@! TO.P,J3,1*
G04 #@! TO.N,/IOREF*
X30480000Y10160000D03*
G04 #@! TD*
D12*
G04 #@! TO.P,J4,6*
G04 #@! TO.N,Net-(J4-Pad6)*
X21336000Y40640000D03*
G04 #@! TO.P,J4,5*
G04 #@! TO.N,/AREF*
X23876000Y40640000D03*
G04 #@! TO.P,J4,4*
G04 #@! TO.N,GND*
X26416000Y40640000D03*
G04 #@! TO.P,J4,3*
G04 #@! TO.N,/SCK*
X28956000Y40640000D03*
G04 #@! TO.P,J4,2*
G04 #@! TO.N,/MISO*
X31496000Y40640000D03*
D13*
G04 #@! TO.P,J4,1*
G04 #@! TO.N,/MOSI*
X34036000Y40640000D03*
G04 #@! TD*
D14*
G04 #@! TO.P,J5,6*
G04 #@! TO.N,Net-(J5-Pad6)*
X61150500Y20701000D03*
G04 #@! TO.P,J5,5*
G04 #@! TO.N,/TX*
X58610500Y20701000D03*
G04 #@! TO.P,J5,4*
G04 #@! TO.N,/RX*
X61150500Y23241000D03*
G04 #@! TO.P,J5,3*
G04 #@! TO.N,GND*
X58610500Y23241000D03*
G04 #@! TO.P,J5,2*
G04 #@! TO.N,+5V*
X61150500Y25781000D03*
G04 #@! TO.P,J5,1*
G04 #@! TO.N,+12V*
X58610500Y25781000D03*
G04 #@! TD*
D15*
G04 #@! TO.P,J6,2*
G04 #@! TO.N,GND*
X5537200Y30474800D03*
D16*
G04 #@! TO.P,J6,1*
G04 #@! TO.N,+5V*
X5537200Y26974800D03*
G04 #@! TD*
D17*
G04 #@! TO.N,/OE*
X38354000Y32829500D03*
X37592000Y29337000D03*
G04 #@! TO.N,GND*
X58991500Y27622500D03*
G04 #@! TO.N,/SDA*
X28257500Y29591000D03*
G04 #@! TO.N,/SCL*
X27178000Y28638500D03*
G04 #@! TO.N,/C*
X26873200Y10312400D03*
G04 #@! TO.N,/B*
X25501600Y10464800D03*
G04 #@! TO.N,/A*
X25552400Y9194800D03*
G04 #@! TO.N,/5V*
X38100000Y6096000D03*
G04 #@! TO.N,/3.3V*
X35560000Y5435600D03*
G04 #@! TO.N,+5V*
X61150500Y30035500D03*
G04 #@! TD*
D18*
G04 #@! TO.N,/OE*
X38354000Y32829500D02*
X38354000Y30099000D01*
X38354000Y30099000D02*
X37592000Y29337000D01*
G04 #@! TO.N,GND*
X40640000Y9028630D02*
X40640000Y2540000D01*
X40640000Y10160000D02*
X40640000Y9028630D01*
X40640000Y2540000D02*
X43180000Y2540000D01*
X43180000Y2540000D02*
X43180000Y6350000D01*
X43180000Y6350000D02*
X45085000Y8255000D01*
X45085000Y8255000D02*
X50863500Y8255000D01*
X51435000Y8826500D02*
X51435000Y10160000D01*
X50863500Y8255000D02*
X51435000Y8826500D01*
X58610500Y23241000D02*
X59817000Y24447500D01*
X59817000Y24447500D02*
X59817000Y26797000D01*
X59817000Y26797000D02*
X58991500Y27622500D01*
X19100800Y18592800D02*
X20320000Y17373600D01*
X22961600Y17373600D02*
X24180800Y18592800D01*
X20320000Y17373600D02*
X22961600Y17373600D01*
G04 #@! TO.N,/SDA*
X28257500Y29591000D02*
X30226000Y29591000D01*
X46355000Y13462000D02*
X46355000Y10160000D01*
X30226000Y29591000D02*
X46355000Y13462000D01*
G04 #@! TO.N,/SCL*
X27178000Y28638500D02*
X27178000Y30226000D01*
X27178000Y30226000D02*
X27622500Y30670500D01*
X27622500Y30670500D02*
X30226000Y30670500D01*
X48895000Y12001500D02*
X48895000Y10160000D01*
X30226000Y30670500D02*
X48895000Y12001500D01*
G04 #@! TO.N,/C*
X26873200Y10312400D02*
X24638000Y12547600D01*
X24638000Y12547600D02*
X20828000Y12547600D01*
X19100800Y14274800D02*
X19100800Y16052800D01*
X20828000Y12547600D02*
X19100800Y14274800D01*
G04 #@! TO.N,/B*
X25501600Y10464800D02*
X24079200Y11887200D01*
X24079200Y11887200D02*
X20370800Y11887200D01*
X20370800Y11887200D02*
X17830800Y14427200D01*
X17830800Y17322800D02*
X16560800Y18592800D01*
X17830800Y14427200D02*
X17830800Y17322800D01*
G04 #@! TO.N,/A*
X16560800Y14579600D02*
X16560800Y16052800D01*
X19862800Y11277600D02*
X16560800Y14579600D01*
X25552400Y9194800D02*
X23469600Y11277600D01*
X23469600Y11277600D02*
X19862800Y11277600D01*
D19*
G04 #@! TO.N,+12V*
X56007000Y25146000D02*
X56642000Y25781000D01*
X56007000Y19113500D02*
X56007000Y25146000D01*
X48831500Y5651500D02*
X60452000Y5651500D01*
X45720000Y2540000D02*
X48831500Y5651500D01*
X57531000Y17589500D02*
X56007000Y19113500D01*
X60452000Y5651500D02*
X62166500Y7366000D01*
X62166500Y7366000D02*
X62166500Y16827500D01*
X56642000Y25781000D02*
X58610500Y25781000D01*
X62166500Y16827500D02*
X61404500Y17589500D01*
X61404500Y17589500D02*
X57531000Y17589500D01*
D18*
G04 #@! TO.N,/5V*
X38100000Y10160000D02*
X38100000Y9028630D01*
X38100000Y9028630D02*
X38100000Y6096000D01*
X38100000Y6096000D02*
X38100000Y2540000D01*
G04 #@! TO.N,/3.3V*
X35560000Y5435600D02*
X35560000Y2540000D01*
X35560000Y10160000D02*
X35560000Y5435600D01*
G04 #@! TO.N,/RESET*
X33020000Y2540000D02*
X33020000Y10160000D01*
G04 #@! TO.N,/IOREF*
X30480000Y2540000D02*
X30480000Y10160000D01*
G04 #@! TO.N,+5V*
X61150500Y25781000D02*
X61150500Y30035500D01*
G04 #@! TD*
D20*
G04 #@! TO.N,+5V*
G36*
X13550229Y52553838D02*
X13175707Y52179316D01*
X12805000Y51284352D01*
X12805000Y50315648D01*
X13175707Y49420684D01*
X13860684Y48735707D01*
X14755648Y48365000D01*
X15724352Y48365000D01*
X16619316Y48735707D01*
X17304293Y49420684D01*
X17570020Y50062205D01*
X17596421Y49998467D01*
X17994467Y49600421D01*
X18514539Y49385000D01*
X19077461Y49385000D01*
X19597533Y49600421D01*
X19995579Y49998467D01*
X20066000Y50168478D01*
X20136421Y49998467D01*
X20534467Y49600421D01*
X21054539Y49385000D01*
X21617461Y49385000D01*
X22137533Y49600421D01*
X22535579Y49998467D01*
X22606000Y50168478D01*
X22676421Y49998467D01*
X23074467Y49600421D01*
X23594539Y49385000D01*
X24157461Y49385000D01*
X24677533Y49600421D01*
X25075579Y49998467D01*
X25146000Y50168478D01*
X25216421Y49998467D01*
X25614467Y49600421D01*
X26134539Y49385000D01*
X26697461Y49385000D01*
X27217533Y49600421D01*
X27615579Y49998467D01*
X27686000Y50168478D01*
X27756421Y49998467D01*
X28154467Y49600421D01*
X28674539Y49385000D01*
X29237461Y49385000D01*
X29757533Y49600421D01*
X30155579Y49998467D01*
X30226000Y50168478D01*
X30296421Y49998467D01*
X30694467Y49600421D01*
X31214539Y49385000D01*
X31777461Y49385000D01*
X32297533Y49600421D01*
X32695579Y49998467D01*
X32766000Y50168478D01*
X32836421Y49998467D01*
X33234467Y49600421D01*
X33754539Y49385000D01*
X34317461Y49385000D01*
X34837533Y49600421D01*
X35235579Y49998467D01*
X35306000Y50168478D01*
X35376421Y49998467D01*
X35774467Y49600421D01*
X36294539Y49385000D01*
X36857461Y49385000D01*
X37377533Y49600421D01*
X37775579Y49998467D01*
X37846000Y50168478D01*
X37916421Y49998467D01*
X38314467Y49600421D01*
X38834539Y49385000D01*
X39397461Y49385000D01*
X39917533Y49600421D01*
X40315579Y49998467D01*
X40386000Y50168478D01*
X40456421Y49998467D01*
X40854467Y49600421D01*
X41374539Y49385000D01*
X41937461Y49385000D01*
X42457533Y49600421D01*
X42855579Y49998467D01*
X43071000Y50518539D01*
X43071000Y51081461D01*
X44305000Y51081461D01*
X44305000Y50518539D01*
X44520421Y49998467D01*
X44918467Y49600421D01*
X45438539Y49385000D01*
X46001461Y49385000D01*
X46521533Y49600421D01*
X46919579Y49998467D01*
X46990000Y50168478D01*
X47060421Y49998467D01*
X47458467Y49600421D01*
X47978539Y49385000D01*
X48541461Y49385000D01*
X49061533Y49600421D01*
X49459579Y49998467D01*
X49530000Y50168478D01*
X49600421Y49998467D01*
X49998467Y49600421D01*
X50518539Y49385000D01*
X51081461Y49385000D01*
X51601533Y49600421D01*
X51999579Y49998467D01*
X52070000Y50168478D01*
X52140421Y49998467D01*
X52538467Y49600421D01*
X53058539Y49385000D01*
X53621461Y49385000D01*
X54141533Y49600421D01*
X54539579Y49998467D01*
X54610000Y50168478D01*
X54680421Y49998467D01*
X55078467Y49600421D01*
X55598539Y49385000D01*
X56161461Y49385000D01*
X56681533Y49600421D01*
X57079579Y49998467D01*
X57150000Y50168478D01*
X57220421Y49998467D01*
X57618467Y49600421D01*
X58138539Y49385000D01*
X58701461Y49385000D01*
X59221533Y49600421D01*
X59619579Y49998467D01*
X59690000Y50168478D01*
X59760421Y49998467D01*
X60158467Y49600421D01*
X60678539Y49385000D01*
X61241461Y49385000D01*
X61761533Y49600421D01*
X62159579Y49998467D01*
X62230000Y50168478D01*
X62300421Y49998467D01*
X62698467Y49600421D01*
X63218539Y49385000D01*
X63781461Y49385000D01*
X64301533Y49600421D01*
X64699579Y49998467D01*
X64915000Y50518539D01*
X64915000Y51081461D01*
X64699579Y51601533D01*
X64301533Y51999579D01*
X63781461Y52215000D01*
X63218539Y52215000D01*
X62698467Y51999579D01*
X62300421Y51601533D01*
X62230000Y51431522D01*
X62159579Y51601533D01*
X61761533Y51999579D01*
X61241461Y52215000D01*
X60678539Y52215000D01*
X60158467Y51999579D01*
X59760421Y51601533D01*
X59690000Y51431522D01*
X59619579Y51601533D01*
X59221533Y51999579D01*
X58701461Y52215000D01*
X58138539Y52215000D01*
X57618467Y51999579D01*
X57220421Y51601533D01*
X57150000Y51431522D01*
X57079579Y51601533D01*
X56681533Y51999579D01*
X56161461Y52215000D01*
X55598539Y52215000D01*
X55078467Y51999579D01*
X54680421Y51601533D01*
X54610000Y51431522D01*
X54539579Y51601533D01*
X54141533Y51999579D01*
X53621461Y52215000D01*
X53058539Y52215000D01*
X52538467Y51999579D01*
X52140421Y51601533D01*
X52070000Y51431522D01*
X51999579Y51601533D01*
X51601533Y51999579D01*
X51081461Y52215000D01*
X50518539Y52215000D01*
X49998467Y51999579D01*
X49600421Y51601533D01*
X49530000Y51431522D01*
X49459579Y51601533D01*
X49061533Y51999579D01*
X48541461Y52215000D01*
X47978539Y52215000D01*
X47458467Y51999579D01*
X47060421Y51601533D01*
X46990000Y51431522D01*
X46919579Y51601533D01*
X46521533Y51999579D01*
X46001461Y52215000D01*
X45438539Y52215000D01*
X44918467Y51999579D01*
X44520421Y51601533D01*
X44305000Y51081461D01*
X43071000Y51081461D01*
X42855579Y51601533D01*
X42457533Y51999579D01*
X41937461Y52215000D01*
X41374539Y52215000D01*
X40854467Y51999579D01*
X40456421Y51601533D01*
X40386000Y51431522D01*
X40315579Y51601533D01*
X39917533Y51999579D01*
X39397461Y52215000D01*
X38834539Y52215000D01*
X38314467Y51999579D01*
X37916421Y51601533D01*
X37846000Y51431522D01*
X37775579Y51601533D01*
X37377533Y51999579D01*
X36857461Y52215000D01*
X36294539Y52215000D01*
X35774467Y51999579D01*
X35376421Y51601533D01*
X35306000Y51431522D01*
X35235579Y51601533D01*
X34837533Y51999579D01*
X34317461Y52215000D01*
X33754539Y52215000D01*
X33234467Y51999579D01*
X32836421Y51601533D01*
X32766000Y51431522D01*
X32695579Y51601533D01*
X32297533Y51999579D01*
X31777461Y52215000D01*
X31214539Y52215000D01*
X30694467Y51999579D01*
X30296421Y51601533D01*
X30226000Y51431522D01*
X30155579Y51601533D01*
X29757533Y51999579D01*
X29237461Y52215000D01*
X28674539Y52215000D01*
X28154467Y51999579D01*
X27756421Y51601533D01*
X27686000Y51431522D01*
X27615579Y51601533D01*
X27217533Y51999579D01*
X26697461Y52215000D01*
X26134539Y52215000D01*
X25614467Y51999579D01*
X25216421Y51601533D01*
X25146000Y51431522D01*
X25075579Y51601533D01*
X24677533Y51999579D01*
X24157461Y52215000D01*
X23594539Y52215000D01*
X23074467Y51999579D01*
X22676421Y51601533D01*
X22606000Y51431522D01*
X22535579Y51601533D01*
X22137533Y51999579D01*
X21617461Y52215000D01*
X21054539Y52215000D01*
X20534467Y51999579D01*
X20136421Y51601533D01*
X20066000Y51431522D01*
X19995579Y51601533D01*
X19597533Y51999579D01*
X19077461Y52215000D01*
X18514539Y52215000D01*
X17994467Y51999579D01*
X17596421Y51601533D01*
X17570020Y51537795D01*
X17304293Y52179316D01*
X16933088Y52550521D01*
X65132252Y52503267D01*
X65330000Y52325293D01*
X65330001Y40455929D01*
X65316091Y40386000D01*
X65371196Y40108972D01*
X65528120Y39874119D01*
X65587402Y39834508D01*
X67870000Y37551909D01*
X67870000Y37173609D01*
X67419316Y37624293D01*
X66524352Y37995000D01*
X65555648Y37995000D01*
X64660684Y37624293D01*
X63975707Y36939316D01*
X63605000Y36044352D01*
X63605000Y35075648D01*
X63975707Y34180684D01*
X64660684Y33495707D01*
X65555648Y33125000D01*
X66524352Y33125000D01*
X67419316Y33495707D01*
X67870000Y33946391D01*
X67870001Y9233608D01*
X67419316Y9684293D01*
X66524352Y10055000D01*
X65555648Y10055000D01*
X64660684Y9684293D01*
X63975707Y8999316D01*
X63605000Y8104352D01*
X63605000Y7135648D01*
X63975707Y6240684D01*
X64660684Y5555707D01*
X65555648Y5185000D01*
X66524352Y5185000D01*
X67419316Y5555707D01*
X67870001Y6006392D01*
X67870001Y5374092D01*
X65587402Y3091492D01*
X65528119Y3051880D01*
X65371195Y2817027D01*
X65330000Y2609926D01*
X65316091Y2540000D01*
X65330000Y2470075D01*
X65330001Y887707D01*
X65132549Y710000D01*
X15583609Y710000D01*
X16034293Y1160684D01*
X16405000Y2055648D01*
X16405000Y3024352D01*
X16034293Y3919316D01*
X15349316Y4604293D01*
X14454352Y4975000D01*
X13485648Y4975000D01*
X12590684Y4604293D01*
X11905707Y3919316D01*
X11535000Y3024352D01*
X11535000Y2055648D01*
X11905707Y1160684D01*
X12356391Y710000D01*
X929091Y710000D01*
X710000Y929091D01*
X710000Y18878239D01*
X4965800Y18878239D01*
X4965800Y18307361D01*
X5184266Y17779938D01*
X5587938Y17376266D01*
X5717016Y17322800D01*
X5587938Y17269334D01*
X5184266Y16865662D01*
X4965800Y16338239D01*
X4965800Y15767361D01*
X5184266Y15239938D01*
X5587938Y14836266D01*
X6115361Y14617800D01*
X6686239Y14617800D01*
X7213662Y14836266D01*
X7617334Y15239938D01*
X7670800Y15369016D01*
X7724266Y15239938D01*
X8127938Y14836266D01*
X8655361Y14617800D01*
X9226239Y14617800D01*
X9753662Y14836266D01*
X10157334Y15239938D01*
X10210800Y15369016D01*
X10264266Y15239938D01*
X10667938Y14836266D01*
X11195361Y14617800D01*
X11766239Y14617800D01*
X12293662Y14836266D01*
X12697334Y15239938D01*
X12750800Y15369016D01*
X12804266Y15239938D01*
X13207938Y14836266D01*
X13735361Y14617800D01*
X14306239Y14617800D01*
X14833662Y14836266D01*
X15237334Y15239938D01*
X15290800Y15369016D01*
X15344266Y15239938D01*
X15747938Y14836266D01*
X15800800Y14814370D01*
X15800800Y14654447D01*
X15785912Y14579600D01*
X15800800Y14504753D01*
X15800800Y14504749D01*
X15844896Y14283064D01*
X16012871Y14031671D01*
X16076330Y13989269D01*
X19272470Y10793128D01*
X19314871Y10729671D01*
X19566263Y10561696D01*
X19787948Y10517600D01*
X19787952Y10517600D01*
X19862799Y10502712D01*
X19937646Y10517600D01*
X23154799Y10517600D01*
X24517400Y9154998D01*
X24517400Y8988926D01*
X24674969Y8608520D01*
X24966120Y8317369D01*
X25346526Y8159800D01*
X25758274Y8159800D01*
X26138680Y8317369D01*
X26429831Y8608520D01*
X26587400Y8988926D01*
X26587400Y9310506D01*
X26667326Y9277400D01*
X27079074Y9277400D01*
X27459480Y9434969D01*
X27750631Y9726120D01*
X27908200Y10106526D01*
X27908200Y10518274D01*
X27750631Y10898680D01*
X27459480Y11189831D01*
X27079074Y11347400D01*
X26913002Y11347400D01*
X25228331Y13032070D01*
X25185929Y13095529D01*
X24934537Y13263504D01*
X24712852Y13307600D01*
X24712847Y13307600D01*
X24638000Y13322488D01*
X24563153Y13307600D01*
X21142802Y13307600D01*
X19860800Y14589601D01*
X19860800Y14814370D01*
X19913662Y14836266D01*
X20317334Y15239938D01*
X20370800Y15369016D01*
X20424266Y15239938D01*
X20827938Y14836266D01*
X21355361Y14617800D01*
X21926239Y14617800D01*
X22453662Y14836266D01*
X22857334Y15239938D01*
X22910800Y15369016D01*
X22964266Y15239938D01*
X23367938Y14836266D01*
X23895361Y14617800D01*
X24466239Y14617800D01*
X24993662Y14836266D01*
X25397334Y15239938D01*
X25615800Y15767361D01*
X25615800Y16338239D01*
X25397334Y16865662D01*
X24993662Y17269334D01*
X24864584Y17322800D01*
X24993662Y17376266D01*
X25397334Y17779938D01*
X25615800Y18307361D01*
X25615800Y18878239D01*
X25397334Y19405662D01*
X24993662Y19809334D01*
X24466239Y20027800D01*
X23895361Y20027800D01*
X23367938Y19809334D01*
X22964266Y19405662D01*
X22910800Y19276584D01*
X22857334Y19405662D01*
X22453662Y19809334D01*
X21926239Y20027800D01*
X21355361Y20027800D01*
X20827938Y19809334D01*
X20424266Y19405662D01*
X20370800Y19276584D01*
X20317334Y19405662D01*
X19913662Y19809334D01*
X19386239Y20027800D01*
X18815361Y20027800D01*
X18287938Y19809334D01*
X17884266Y19405662D01*
X17830800Y19276584D01*
X17777334Y19405662D01*
X17373662Y19809334D01*
X16846239Y20027800D01*
X16275361Y20027800D01*
X15747938Y19809334D01*
X15344266Y19405662D01*
X15290800Y19276584D01*
X15237334Y19405662D01*
X14833662Y19809334D01*
X14306239Y20027800D01*
X13735361Y20027800D01*
X13207938Y19809334D01*
X12804266Y19405662D01*
X12750800Y19276584D01*
X12697334Y19405662D01*
X12293662Y19809334D01*
X11766239Y20027800D01*
X11195361Y20027800D01*
X10667938Y19809334D01*
X10264266Y19405662D01*
X10210800Y19276584D01*
X10157334Y19405662D01*
X9753662Y19809334D01*
X9226239Y20027800D01*
X8655361Y20027800D01*
X8127938Y19809334D01*
X7724266Y19405662D01*
X7670800Y19276584D01*
X7617334Y19405662D01*
X7213662Y19809334D01*
X6686239Y20027800D01*
X6115361Y20027800D01*
X5587938Y19809334D01*
X5184266Y19405662D01*
X4965800Y18878239D01*
X710000Y18878239D01*
X710000Y26689050D01*
X4002200Y26689050D01*
X4002200Y25948491D01*
X4098873Y25715102D01*
X4277501Y25536473D01*
X4510890Y25439800D01*
X5251450Y25439800D01*
X5410200Y25598550D01*
X5410200Y26847800D01*
X5664200Y26847800D01*
X5664200Y25598550D01*
X5822950Y25439800D01*
X6563510Y25439800D01*
X6796899Y25536473D01*
X6975527Y25715102D01*
X7072200Y25948491D01*
X7072200Y26689050D01*
X6913450Y26847800D01*
X5664200Y26847800D01*
X5410200Y26847800D01*
X4160950Y26847800D01*
X4002200Y26689050D01*
X710000Y26689050D01*
X710000Y28001109D01*
X4002200Y28001109D01*
X4002200Y27260550D01*
X4160950Y27101800D01*
X5410200Y27101800D01*
X5410200Y28351050D01*
X5664200Y28351050D01*
X5664200Y27101800D01*
X6913450Y27101800D01*
X7072200Y27260550D01*
X7072200Y28001109D01*
X6975527Y28234498D01*
X6796899Y28413127D01*
X6563510Y28509800D01*
X5822950Y28509800D01*
X5664200Y28351050D01*
X5410200Y28351050D01*
X5251450Y28509800D01*
X4510890Y28509800D01*
X4277501Y28413127D01*
X4098873Y28234498D01*
X4002200Y28001109D01*
X710000Y28001109D01*
X710000Y28844374D01*
X26143000Y28844374D01*
X26143000Y28432626D01*
X26300569Y28052220D01*
X26591720Y27761069D01*
X26972126Y27603500D01*
X27383874Y27603500D01*
X27764280Y27761069D01*
X28055431Y28052220D01*
X28213000Y28432626D01*
X28213000Y28556000D01*
X28463374Y28556000D01*
X28843780Y28713569D01*
X28961211Y28831000D01*
X29911199Y28831000D01*
X45595000Y13147198D01*
X45595001Y11398430D01*
X45542138Y11376534D01*
X45138466Y10972862D01*
X44920000Y10445439D01*
X44920000Y9874561D01*
X45138466Y9347138D01*
X45470604Y9015000D01*
X45159848Y9015000D01*
X45085000Y9029888D01*
X45010152Y9015000D01*
X45010148Y9015000D01*
X44836605Y8980480D01*
X44788462Y8970904D01*
X44679748Y8898263D01*
X44537071Y8802929D01*
X44494671Y8739473D01*
X42695528Y6940329D01*
X42632072Y6897929D01*
X42589672Y6834473D01*
X42589671Y6834472D01*
X42464097Y6646537D01*
X42405112Y6350000D01*
X42420001Y6275148D01*
X42420000Y3756783D01*
X42378467Y3739579D01*
X41980421Y3341533D01*
X41963217Y3300000D01*
X41856783Y3300000D01*
X41839579Y3341533D01*
X41441533Y3739579D01*
X41400000Y3756783D01*
X41400000Y8921570D01*
X41452862Y8943466D01*
X41856534Y9347138D01*
X41910000Y9476216D01*
X41963466Y9347138D01*
X42367138Y8943466D01*
X42894561Y8725000D01*
X43465439Y8725000D01*
X43992862Y8943466D01*
X44396534Y9347138D01*
X44615000Y9874561D01*
X44615000Y10445439D01*
X44396534Y10972862D01*
X43992862Y11376534D01*
X43465439Y11595000D01*
X42894561Y11595000D01*
X42367138Y11376534D01*
X41963466Y10972862D01*
X41910000Y10843784D01*
X41856534Y10972862D01*
X41452862Y11376534D01*
X40925439Y11595000D01*
X40354561Y11595000D01*
X39827138Y11376534D01*
X39423466Y10972862D01*
X39370000Y10843784D01*
X39316534Y10972862D01*
X38912862Y11376534D01*
X38385439Y11595000D01*
X37814561Y11595000D01*
X37287138Y11376534D01*
X36883466Y10972862D01*
X36830000Y10843784D01*
X36776534Y10972862D01*
X36372862Y11376534D01*
X35845439Y11595000D01*
X35274561Y11595000D01*
X34747138Y11376534D01*
X34343466Y10972862D01*
X34290000Y10843784D01*
X34236534Y10972862D01*
X33832862Y11376534D01*
X33305439Y11595000D01*
X32734561Y11595000D01*
X32207138Y11376534D01*
X31904738Y11074134D01*
X31878157Y11207765D01*
X31737809Y11417809D01*
X31527765Y11558157D01*
X31280000Y11607440D01*
X29680000Y11607440D01*
X29432235Y11558157D01*
X29222191Y11417809D01*
X29081843Y11207765D01*
X29032560Y10960000D01*
X29032560Y9360000D01*
X29081843Y9112235D01*
X29222191Y8902191D01*
X29432235Y8761843D01*
X29680000Y8712560D01*
X29720001Y8712560D01*
X29720000Y3756783D01*
X29678467Y3739579D01*
X29280421Y3341533D01*
X29210000Y3171522D01*
X29139579Y3341533D01*
X28741533Y3739579D01*
X28221461Y3955000D01*
X27658539Y3955000D01*
X27138467Y3739579D01*
X26740421Y3341533D01*
X26525000Y2821461D01*
X26525000Y2258539D01*
X26740421Y1738467D01*
X27138467Y1340421D01*
X27658539Y1125000D01*
X28221461Y1125000D01*
X28741533Y1340421D01*
X29139579Y1738467D01*
X29210000Y1908478D01*
X29280421Y1738467D01*
X29678467Y1340421D01*
X30198539Y1125000D01*
X30761461Y1125000D01*
X31281533Y1340421D01*
X31679579Y1738467D01*
X31750000Y1908478D01*
X31820421Y1738467D01*
X32218467Y1340421D01*
X32738539Y1125000D01*
X33301461Y1125000D01*
X33821533Y1340421D01*
X34219579Y1738467D01*
X34290000Y1908478D01*
X34360421Y1738467D01*
X34758467Y1340421D01*
X35278539Y1125000D01*
X35841461Y1125000D01*
X36361533Y1340421D01*
X36759579Y1738467D01*
X36830000Y1908478D01*
X36900421Y1738467D01*
X37298467Y1340421D01*
X37818539Y1125000D01*
X38381461Y1125000D01*
X38901533Y1340421D01*
X39299579Y1738467D01*
X39370000Y1908478D01*
X39440421Y1738467D01*
X39838467Y1340421D01*
X40358539Y1125000D01*
X40921461Y1125000D01*
X41441533Y1340421D01*
X41839579Y1738467D01*
X41856783Y1780000D01*
X41963217Y1780000D01*
X41980421Y1738467D01*
X42378467Y1340421D01*
X42898539Y1125000D01*
X43461461Y1125000D01*
X43981533Y1340421D01*
X44379579Y1738467D01*
X44450000Y1908478D01*
X44520421Y1738467D01*
X44918467Y1340421D01*
X45438539Y1125000D01*
X46001461Y1125000D01*
X46521533Y1340421D01*
X46919579Y1738467D01*
X47135000Y2258539D01*
X47135000Y2349869D01*
X47606592Y2821461D01*
X49385000Y2821461D01*
X49385000Y2258539D01*
X49600421Y1738467D01*
X49998467Y1340421D01*
X50518539Y1125000D01*
X51081461Y1125000D01*
X51601533Y1340421D01*
X51999579Y1738467D01*
X52070000Y1908478D01*
X52140421Y1738467D01*
X52538467Y1340421D01*
X53058539Y1125000D01*
X53621461Y1125000D01*
X54141533Y1340421D01*
X54539579Y1738467D01*
X54610000Y1908478D01*
X54680421Y1738467D01*
X55078467Y1340421D01*
X55598539Y1125000D01*
X56161461Y1125000D01*
X56681533Y1340421D01*
X57079579Y1738467D01*
X57150000Y1908478D01*
X57220421Y1738467D01*
X57618467Y1340421D01*
X58138539Y1125000D01*
X58701461Y1125000D01*
X59221533Y1340421D01*
X59619579Y1738467D01*
X59690000Y1908478D01*
X59760421Y1738467D01*
X60158467Y1340421D01*
X60678539Y1125000D01*
X61241461Y1125000D01*
X61761533Y1340421D01*
X62159579Y1738467D01*
X62230000Y1908478D01*
X62300421Y1738467D01*
X62698467Y1340421D01*
X63218539Y1125000D01*
X63781461Y1125000D01*
X64301533Y1340421D01*
X64699579Y1738467D01*
X64915000Y2258539D01*
X64915000Y2821461D01*
X64699579Y3341533D01*
X64301533Y3739579D01*
X63781461Y3955000D01*
X63218539Y3955000D01*
X62698467Y3739579D01*
X62300421Y3341533D01*
X62230000Y3171522D01*
X62159579Y3341533D01*
X61761533Y3739579D01*
X61241461Y3955000D01*
X60678539Y3955000D01*
X60158467Y3739579D01*
X59760421Y3341533D01*
X59690000Y3171522D01*
X59619579Y3341533D01*
X59221533Y3739579D01*
X58701461Y3955000D01*
X58138539Y3955000D01*
X57618467Y3739579D01*
X57220421Y3341533D01*
X57150000Y3171522D01*
X57079579Y3341533D01*
X56681533Y3739579D01*
X56161461Y3955000D01*
X55598539Y3955000D01*
X55078467Y3739579D01*
X54680421Y3341533D01*
X54610000Y3171522D01*
X54539579Y3341533D01*
X54141533Y3739579D01*
X53621461Y3955000D01*
X53058539Y3955000D01*
X52538467Y3739579D01*
X52140421Y3341533D01*
X52070000Y3171522D01*
X51999579Y3341533D01*
X51601533Y3739579D01*
X51081461Y3955000D01*
X50518539Y3955000D01*
X49998467Y3739579D01*
X49600421Y3341533D01*
X49385000Y2821461D01*
X47606592Y2821461D01*
X49301633Y4516500D01*
X60340217Y4516500D01*
X60452000Y4494265D01*
X60563783Y4516500D01*
X60894855Y4582354D01*
X61270289Y4833211D01*
X61333613Y4927982D01*
X62890021Y6484389D01*
X62984789Y6547711D01*
X63235646Y6923145D01*
X63301500Y7254217D01*
X63301500Y7254218D01*
X63323735Y7365999D01*
X63301500Y7477782D01*
X63301500Y16715717D01*
X63323735Y16827500D01*
X63235646Y17270355D01*
X63166659Y17373601D01*
X62984789Y17645789D01*
X62890021Y17709111D01*
X62286113Y18313019D01*
X62222789Y18407789D01*
X61847355Y18658646D01*
X61516283Y18724500D01*
X61404500Y18746735D01*
X61292717Y18724500D01*
X58001133Y18724500D01*
X57142000Y19583631D01*
X57142000Y24646000D01*
X57769843Y24646000D01*
X57819163Y24596680D01*
X58026013Y24511000D01*
X57819163Y24425320D01*
X57426180Y24032337D01*
X57213500Y23518881D01*
X57213500Y22963119D01*
X57426180Y22449663D01*
X57819163Y22056680D01*
X58026013Y21971000D01*
X57819163Y21885320D01*
X57426180Y21492337D01*
X57213500Y20978881D01*
X57213500Y20423119D01*
X57426180Y19909663D01*
X57819163Y19516680D01*
X58332619Y19304000D01*
X58888381Y19304000D01*
X59401837Y19516680D01*
X59794820Y19909663D01*
X59880500Y20116513D01*
X59966180Y19909663D01*
X60359163Y19516680D01*
X60872619Y19304000D01*
X61428381Y19304000D01*
X61941837Y19516680D01*
X62334820Y19909663D01*
X62547500Y20423119D01*
X62547500Y20978881D01*
X62334820Y21492337D01*
X61941837Y21885320D01*
X61734987Y21971000D01*
X61941837Y22056680D01*
X62334820Y22449663D01*
X62547500Y22963119D01*
X62547500Y23518881D01*
X62334820Y24032337D01*
X61941837Y24425320D01*
X61750853Y24504428D01*
X61881643Y24558603D01*
X61951108Y24800787D01*
X61150500Y25601395D01*
X61136358Y25587253D01*
X60956753Y25766858D01*
X60970895Y25781000D01*
X61330105Y25781000D01*
X62130713Y24980392D01*
X62372897Y25049857D01*
X62559644Y25573302D01*
X62531862Y26128368D01*
X62372897Y26512143D01*
X62130713Y26581608D01*
X61330105Y25781000D01*
X60970895Y25781000D01*
X60956753Y25795143D01*
X61136358Y25974748D01*
X61150500Y25960605D01*
X61951108Y26761213D01*
X61881643Y27003397D01*
X61358198Y27190144D01*
X60803132Y27162362D01*
X60540826Y27053711D01*
X60532904Y27093537D01*
X60468353Y27190144D01*
X60407329Y27281474D01*
X60407327Y27281476D01*
X60364929Y27344929D01*
X60301475Y27387327D01*
X60026500Y27662302D01*
X60026500Y27828374D01*
X59868931Y28208780D01*
X59577780Y28499931D01*
X59197374Y28657500D01*
X58785626Y28657500D01*
X58405220Y28499931D01*
X58114069Y28208780D01*
X57956500Y27828374D01*
X57956500Y27416626D01*
X58095948Y27079968D01*
X57819163Y26965320D01*
X57769843Y26916000D01*
X56753783Y26916000D01*
X56642000Y26938235D01*
X56530217Y26916000D01*
X56199145Y26850146D01*
X55823711Y26599289D01*
X55760387Y26504518D01*
X55283480Y26027611D01*
X55188712Y25964289D01*
X55022211Y25715102D01*
X54937854Y25588854D01*
X54849765Y25146000D01*
X54872001Y25034212D01*
X54872000Y19225283D01*
X54849765Y19113500D01*
X54872000Y19001718D01*
X54937854Y18670646D01*
X55188711Y18295211D01*
X55283481Y18231887D01*
X56649390Y16865977D01*
X56712711Y16771211D01*
X57088145Y16520354D01*
X57419217Y16454500D01*
X57530999Y16432265D01*
X57642781Y16454500D01*
X60934369Y16454500D01*
X61031501Y16357368D01*
X61031500Y7836132D01*
X59981869Y6786500D01*
X48943281Y6786500D01*
X48831499Y6808735D01*
X48719717Y6786500D01*
X48388645Y6720646D01*
X48013211Y6469789D01*
X47949891Y6375024D01*
X45529869Y3955000D01*
X45438539Y3955000D01*
X44918467Y3739579D01*
X44520421Y3341533D01*
X44450000Y3171522D01*
X44379579Y3341533D01*
X43981533Y3739579D01*
X43940000Y3756783D01*
X43940000Y6035199D01*
X45399802Y7495000D01*
X50788653Y7495000D01*
X50863500Y7480112D01*
X50938347Y7495000D01*
X50938352Y7495000D01*
X51160037Y7539096D01*
X51411429Y7707071D01*
X51453831Y7770530D01*
X51919473Y8236171D01*
X51982929Y8278571D01*
X52150904Y8529963D01*
X52195000Y8751648D01*
X52195000Y8751652D01*
X52209888Y8826499D01*
X52195000Y8901346D01*
X52195000Y8921570D01*
X52247862Y8943466D01*
X52651534Y9347138D01*
X52705000Y9476216D01*
X52758466Y9347138D01*
X53162138Y8943466D01*
X53689561Y8725000D01*
X54260439Y8725000D01*
X54787862Y8943466D01*
X55191534Y9347138D01*
X55245000Y9476216D01*
X55298466Y9347138D01*
X55702138Y8943466D01*
X56229561Y8725000D01*
X56800439Y8725000D01*
X57327862Y8943466D01*
X57630262Y9245866D01*
X57656843Y9112235D01*
X57797191Y8902191D01*
X58007235Y8761843D01*
X58255000Y8712560D01*
X59855000Y8712560D01*
X60102765Y8761843D01*
X60312809Y8902191D01*
X60453157Y9112235D01*
X60502440Y9360000D01*
X60502440Y10960000D01*
X60453157Y11207765D01*
X60312809Y11417809D01*
X60102765Y11558157D01*
X59855000Y11607440D01*
X58255000Y11607440D01*
X58007235Y11558157D01*
X57797191Y11417809D01*
X57656843Y11207765D01*
X57630262Y11074134D01*
X57327862Y11376534D01*
X56800439Y11595000D01*
X56229561Y11595000D01*
X55702138Y11376534D01*
X55298466Y10972862D01*
X55245000Y10843784D01*
X55191534Y10972862D01*
X54787862Y11376534D01*
X54260439Y11595000D01*
X53689561Y11595000D01*
X53162138Y11376534D01*
X52758466Y10972862D01*
X52705000Y10843784D01*
X52651534Y10972862D01*
X52247862Y11376534D01*
X51720439Y11595000D01*
X51149561Y11595000D01*
X50622138Y11376534D01*
X50218466Y10972862D01*
X50165000Y10843784D01*
X50111534Y10972862D01*
X49707862Y11376534D01*
X49655000Y11398430D01*
X49655000Y11926653D01*
X49669888Y12001500D01*
X49655000Y12076347D01*
X49655000Y12076352D01*
X49610904Y12298037D01*
X49442929Y12549429D01*
X49379473Y12591829D01*
X32428428Y29542874D01*
X36557000Y29542874D01*
X36557000Y29131126D01*
X36714569Y28750720D01*
X37005720Y28459569D01*
X37386126Y28302000D01*
X37797874Y28302000D01*
X38178280Y28459569D01*
X38469431Y28750720D01*
X38627000Y29131126D01*
X38627000Y29297198D01*
X38838473Y29508671D01*
X38901929Y29551071D01*
X39066170Y29796874D01*
X39069904Y29802462D01*
X39100165Y29954596D01*
X39114000Y30024148D01*
X39114000Y30024152D01*
X39128888Y30099000D01*
X39114000Y30173848D01*
X39114000Y32125789D01*
X39231431Y32243220D01*
X39389000Y32623626D01*
X39389000Y33035374D01*
X39231431Y33415780D01*
X38940280Y33706931D01*
X38559874Y33864500D01*
X38148126Y33864500D01*
X37767720Y33706931D01*
X37476569Y33415780D01*
X37319000Y33035374D01*
X37319000Y32623626D01*
X37476569Y32243220D01*
X37594000Y32125789D01*
X37594001Y30413803D01*
X37552198Y30372000D01*
X37386126Y30372000D01*
X37005720Y30214431D01*
X36714569Y29923280D01*
X36557000Y29542874D01*
X32428428Y29542874D01*
X30816331Y31154970D01*
X30773929Y31218429D01*
X30522537Y31386404D01*
X30300852Y31430500D01*
X30300847Y31430500D01*
X30226000Y31445388D01*
X30151153Y31430500D01*
X27697347Y31430500D01*
X27622500Y31445388D01*
X27547653Y31430500D01*
X27547648Y31430500D01*
X27325963Y31386404D01*
X27074571Y31218429D01*
X27032169Y31154970D01*
X26693528Y30816329D01*
X26630072Y30773929D01*
X26462097Y30522537D01*
X26430938Y30365888D01*
X26403112Y30226000D01*
X26418001Y30151149D01*
X26418000Y29342211D01*
X26300569Y29224780D01*
X26143000Y28844374D01*
X710000Y28844374D01*
X710000Y30780130D01*
X4002200Y30780130D01*
X4002200Y30169470D01*
X4235890Y29605293D01*
X4667693Y29173490D01*
X5231870Y28939800D01*
X5842530Y28939800D01*
X6406707Y29173490D01*
X6838510Y29605293D01*
X7072200Y30169470D01*
X7072200Y30780130D01*
X6838510Y31344307D01*
X6406707Y31776110D01*
X5842530Y32009800D01*
X5231870Y32009800D01*
X4667693Y31776110D01*
X4235890Y31344307D01*
X4002200Y30780130D01*
X710000Y30780130D01*
X710000Y40925439D01*
X19901000Y40925439D01*
X19901000Y40354561D01*
X20119466Y39827138D01*
X20523138Y39423466D01*
X21050561Y39205000D01*
X21621439Y39205000D01*
X22148862Y39423466D01*
X22552534Y39827138D01*
X22606000Y39956216D01*
X22659466Y39827138D01*
X23063138Y39423466D01*
X23590561Y39205000D01*
X24161439Y39205000D01*
X24688862Y39423466D01*
X25092534Y39827138D01*
X25146000Y39956216D01*
X25199466Y39827138D01*
X25603138Y39423466D01*
X26130561Y39205000D01*
X26701439Y39205000D01*
X27228862Y39423466D01*
X27632534Y39827138D01*
X27686000Y39956216D01*
X27739466Y39827138D01*
X28143138Y39423466D01*
X28670561Y39205000D01*
X29241439Y39205000D01*
X29768862Y39423466D01*
X30172534Y39827138D01*
X30226000Y39956216D01*
X30279466Y39827138D01*
X30683138Y39423466D01*
X31210561Y39205000D01*
X31781439Y39205000D01*
X32308862Y39423466D01*
X32611262Y39725866D01*
X32637843Y39592235D01*
X32778191Y39382191D01*
X32988235Y39241843D01*
X33236000Y39192560D01*
X34836000Y39192560D01*
X35083765Y39241843D01*
X35293809Y39382191D01*
X35434157Y39592235D01*
X35483440Y39840000D01*
X35483440Y41440000D01*
X35434157Y41687765D01*
X35293809Y41897809D01*
X35083765Y42038157D01*
X34836000Y42087440D01*
X33236000Y42087440D01*
X32988235Y42038157D01*
X32778191Y41897809D01*
X32637843Y41687765D01*
X32611262Y41554134D01*
X32308862Y41856534D01*
X31781439Y42075000D01*
X31210561Y42075000D01*
X30683138Y41856534D01*
X30279466Y41452862D01*
X30226000Y41323784D01*
X30172534Y41452862D01*
X29768862Y41856534D01*
X29241439Y42075000D01*
X28670561Y42075000D01*
X28143138Y41856534D01*
X27739466Y41452862D01*
X27686000Y41323784D01*
X27632534Y41452862D01*
X27228862Y41856534D01*
X26701439Y42075000D01*
X26130561Y42075000D01*
X25603138Y41856534D01*
X25199466Y41452862D01*
X25146000Y41323784D01*
X25092534Y41452862D01*
X24688862Y41856534D01*
X24161439Y42075000D01*
X23590561Y42075000D01*
X23063138Y41856534D01*
X22659466Y41452862D01*
X22606000Y41323784D01*
X22552534Y41452862D01*
X22148862Y41856534D01*
X21621439Y42075000D01*
X21050561Y42075000D01*
X20523138Y41856534D01*
X20119466Y41452862D01*
X19901000Y40925439D01*
X710000Y40925439D01*
X710000Y52388794D01*
X907155Y52566233D01*
X13550229Y52553838D01*
X13550229Y52553838D01*
G37*
X13550229Y52553838D02*
X13175707Y52179316D01*
X12805000Y51284352D01*
X12805000Y50315648D01*
X13175707Y49420684D01*
X13860684Y48735707D01*
X14755648Y48365000D01*
X15724352Y48365000D01*
X16619316Y48735707D01*
X17304293Y49420684D01*
X17570020Y50062205D01*
X17596421Y49998467D01*
X17994467Y49600421D01*
X18514539Y49385000D01*
X19077461Y49385000D01*
X19597533Y49600421D01*
X19995579Y49998467D01*
X20066000Y50168478D01*
X20136421Y49998467D01*
X20534467Y49600421D01*
X21054539Y49385000D01*
X21617461Y49385000D01*
X22137533Y49600421D01*
X22535579Y49998467D01*
X22606000Y50168478D01*
X22676421Y49998467D01*
X23074467Y49600421D01*
X23594539Y49385000D01*
X24157461Y49385000D01*
X24677533Y49600421D01*
X25075579Y49998467D01*
X25146000Y50168478D01*
X25216421Y49998467D01*
X25614467Y49600421D01*
X26134539Y49385000D01*
X26697461Y49385000D01*
X27217533Y49600421D01*
X27615579Y49998467D01*
X27686000Y50168478D01*
X27756421Y49998467D01*
X28154467Y49600421D01*
X28674539Y49385000D01*
X29237461Y49385000D01*
X29757533Y49600421D01*
X30155579Y49998467D01*
X30226000Y50168478D01*
X30296421Y49998467D01*
X30694467Y49600421D01*
X31214539Y49385000D01*
X31777461Y49385000D01*
X32297533Y49600421D01*
X32695579Y49998467D01*
X32766000Y50168478D01*
X32836421Y49998467D01*
X33234467Y49600421D01*
X33754539Y49385000D01*
X34317461Y49385000D01*
X34837533Y49600421D01*
X35235579Y49998467D01*
X35306000Y50168478D01*
X35376421Y49998467D01*
X35774467Y49600421D01*
X36294539Y49385000D01*
X36857461Y49385000D01*
X37377533Y49600421D01*
X37775579Y49998467D01*
X37846000Y50168478D01*
X37916421Y49998467D01*
X38314467Y49600421D01*
X38834539Y49385000D01*
X39397461Y49385000D01*
X39917533Y49600421D01*
X40315579Y49998467D01*
X40386000Y50168478D01*
X40456421Y49998467D01*
X40854467Y49600421D01*
X41374539Y49385000D01*
X41937461Y49385000D01*
X42457533Y49600421D01*
X42855579Y49998467D01*
X43071000Y50518539D01*
X43071000Y51081461D01*
X44305000Y51081461D01*
X44305000Y50518539D01*
X44520421Y49998467D01*
X44918467Y49600421D01*
X45438539Y49385000D01*
X46001461Y49385000D01*
X46521533Y49600421D01*
X46919579Y49998467D01*
X46990000Y50168478D01*
X47060421Y49998467D01*
X47458467Y49600421D01*
X47978539Y49385000D01*
X48541461Y49385000D01*
X49061533Y49600421D01*
X49459579Y49998467D01*
X49530000Y50168478D01*
X49600421Y49998467D01*
X49998467Y49600421D01*
X50518539Y49385000D01*
X51081461Y49385000D01*
X51601533Y49600421D01*
X51999579Y49998467D01*
X52070000Y50168478D01*
X52140421Y49998467D01*
X52538467Y49600421D01*
X53058539Y49385000D01*
X53621461Y49385000D01*
X54141533Y49600421D01*
X54539579Y49998467D01*
X54610000Y50168478D01*
X54680421Y49998467D01*
X55078467Y49600421D01*
X55598539Y49385000D01*
X56161461Y49385000D01*
X56681533Y49600421D01*
X57079579Y49998467D01*
X57150000Y50168478D01*
X57220421Y49998467D01*
X57618467Y49600421D01*
X58138539Y49385000D01*
X58701461Y49385000D01*
X59221533Y49600421D01*
X59619579Y49998467D01*
X59690000Y50168478D01*
X59760421Y49998467D01*
X60158467Y49600421D01*
X60678539Y49385000D01*
X61241461Y49385000D01*
X61761533Y49600421D01*
X62159579Y49998467D01*
X62230000Y50168478D01*
X62300421Y49998467D01*
X62698467Y49600421D01*
X63218539Y49385000D01*
X63781461Y49385000D01*
X64301533Y49600421D01*
X64699579Y49998467D01*
X64915000Y50518539D01*
X64915000Y51081461D01*
X64699579Y51601533D01*
X64301533Y51999579D01*
X63781461Y52215000D01*
X63218539Y52215000D01*
X62698467Y51999579D01*
X62300421Y51601533D01*
X62230000Y51431522D01*
X62159579Y51601533D01*
X61761533Y51999579D01*
X61241461Y52215000D01*
X60678539Y52215000D01*
X60158467Y51999579D01*
X59760421Y51601533D01*
X59690000Y51431522D01*
X59619579Y51601533D01*
X59221533Y51999579D01*
X58701461Y52215000D01*
X58138539Y52215000D01*
X57618467Y51999579D01*
X57220421Y51601533D01*
X57150000Y51431522D01*
X57079579Y51601533D01*
X56681533Y51999579D01*
X56161461Y52215000D01*
X55598539Y52215000D01*
X55078467Y51999579D01*
X54680421Y51601533D01*
X54610000Y51431522D01*
X54539579Y51601533D01*
X54141533Y51999579D01*
X53621461Y52215000D01*
X53058539Y52215000D01*
X52538467Y51999579D01*
X52140421Y51601533D01*
X52070000Y51431522D01*
X51999579Y51601533D01*
X51601533Y51999579D01*
X51081461Y52215000D01*
X50518539Y52215000D01*
X49998467Y51999579D01*
X49600421Y51601533D01*
X49530000Y51431522D01*
X49459579Y51601533D01*
X49061533Y51999579D01*
X48541461Y52215000D01*
X47978539Y52215000D01*
X47458467Y51999579D01*
X47060421Y51601533D01*
X46990000Y51431522D01*
X46919579Y51601533D01*
X46521533Y51999579D01*
X46001461Y52215000D01*
X45438539Y52215000D01*
X44918467Y51999579D01*
X44520421Y51601533D01*
X44305000Y51081461D01*
X43071000Y51081461D01*
X42855579Y51601533D01*
X42457533Y51999579D01*
X41937461Y52215000D01*
X41374539Y52215000D01*
X40854467Y51999579D01*
X40456421Y51601533D01*
X40386000Y51431522D01*
X40315579Y51601533D01*
X39917533Y51999579D01*
X39397461Y52215000D01*
X38834539Y52215000D01*
X38314467Y51999579D01*
X37916421Y51601533D01*
X37846000Y51431522D01*
X37775579Y51601533D01*
X37377533Y51999579D01*
X36857461Y52215000D01*
X36294539Y52215000D01*
X35774467Y51999579D01*
X35376421Y51601533D01*
X35306000Y51431522D01*
X35235579Y51601533D01*
X34837533Y51999579D01*
X34317461Y52215000D01*
X33754539Y52215000D01*
X33234467Y51999579D01*
X32836421Y51601533D01*
X32766000Y51431522D01*
X32695579Y51601533D01*
X32297533Y51999579D01*
X31777461Y52215000D01*
X31214539Y52215000D01*
X30694467Y51999579D01*
X30296421Y51601533D01*
X30226000Y51431522D01*
X30155579Y51601533D01*
X29757533Y51999579D01*
X29237461Y52215000D01*
X28674539Y52215000D01*
X28154467Y51999579D01*
X27756421Y51601533D01*
X27686000Y51431522D01*
X27615579Y51601533D01*
X27217533Y51999579D01*
X26697461Y52215000D01*
X26134539Y52215000D01*
X25614467Y51999579D01*
X25216421Y51601533D01*
X25146000Y51431522D01*
X25075579Y51601533D01*
X24677533Y51999579D01*
X24157461Y52215000D01*
X23594539Y52215000D01*
X23074467Y51999579D01*
X22676421Y51601533D01*
X22606000Y51431522D01*
X22535579Y51601533D01*
X22137533Y51999579D01*
X21617461Y52215000D01*
X21054539Y52215000D01*
X20534467Y51999579D01*
X20136421Y51601533D01*
X20066000Y51431522D01*
X19995579Y51601533D01*
X19597533Y51999579D01*
X19077461Y52215000D01*
X18514539Y52215000D01*
X17994467Y51999579D01*
X17596421Y51601533D01*
X17570020Y51537795D01*
X17304293Y52179316D01*
X16933088Y52550521D01*
X65132252Y52503267D01*
X65330000Y52325293D01*
X65330001Y40455929D01*
X65316091Y40386000D01*
X65371196Y40108972D01*
X65528120Y39874119D01*
X65587402Y39834508D01*
X67870000Y37551909D01*
X67870000Y37173609D01*
X67419316Y37624293D01*
X66524352Y37995000D01*
X65555648Y37995000D01*
X64660684Y37624293D01*
X63975707Y36939316D01*
X63605000Y36044352D01*
X63605000Y35075648D01*
X63975707Y34180684D01*
X64660684Y33495707D01*
X65555648Y33125000D01*
X66524352Y33125000D01*
X67419316Y33495707D01*
X67870000Y33946391D01*
X67870001Y9233608D01*
X67419316Y9684293D01*
X66524352Y10055000D01*
X65555648Y10055000D01*
X64660684Y9684293D01*
X63975707Y8999316D01*
X63605000Y8104352D01*
X63605000Y7135648D01*
X63975707Y6240684D01*
X64660684Y5555707D01*
X65555648Y5185000D01*
X66524352Y5185000D01*
X67419316Y5555707D01*
X67870001Y6006392D01*
X67870001Y5374092D01*
X65587402Y3091492D01*
X65528119Y3051880D01*
X65371195Y2817027D01*
X65330000Y2609926D01*
X65316091Y2540000D01*
X65330000Y2470075D01*
X65330001Y887707D01*
X65132549Y710000D01*
X15583609Y710000D01*
X16034293Y1160684D01*
X16405000Y2055648D01*
X16405000Y3024352D01*
X16034293Y3919316D01*
X15349316Y4604293D01*
X14454352Y4975000D01*
X13485648Y4975000D01*
X12590684Y4604293D01*
X11905707Y3919316D01*
X11535000Y3024352D01*
X11535000Y2055648D01*
X11905707Y1160684D01*
X12356391Y710000D01*
X929091Y710000D01*
X710000Y929091D01*
X710000Y18878239D01*
X4965800Y18878239D01*
X4965800Y18307361D01*
X5184266Y17779938D01*
X5587938Y17376266D01*
X5717016Y17322800D01*
X5587938Y17269334D01*
X5184266Y16865662D01*
X4965800Y16338239D01*
X4965800Y15767361D01*
X5184266Y15239938D01*
X5587938Y14836266D01*
X6115361Y14617800D01*
X6686239Y14617800D01*
X7213662Y14836266D01*
X7617334Y15239938D01*
X7670800Y15369016D01*
X7724266Y15239938D01*
X8127938Y14836266D01*
X8655361Y14617800D01*
X9226239Y14617800D01*
X9753662Y14836266D01*
X10157334Y15239938D01*
X10210800Y15369016D01*
X10264266Y15239938D01*
X10667938Y14836266D01*
X11195361Y14617800D01*
X11766239Y14617800D01*
X12293662Y14836266D01*
X12697334Y15239938D01*
X12750800Y15369016D01*
X12804266Y15239938D01*
X13207938Y14836266D01*
X13735361Y14617800D01*
X14306239Y14617800D01*
X14833662Y14836266D01*
X15237334Y15239938D01*
X15290800Y15369016D01*
X15344266Y15239938D01*
X15747938Y14836266D01*
X15800800Y14814370D01*
X15800800Y14654447D01*
X15785912Y14579600D01*
X15800800Y14504753D01*
X15800800Y14504749D01*
X15844896Y14283064D01*
X16012871Y14031671D01*
X16076330Y13989269D01*
X19272470Y10793128D01*
X19314871Y10729671D01*
X19566263Y10561696D01*
X19787948Y10517600D01*
X19787952Y10517600D01*
X19862799Y10502712D01*
X19937646Y10517600D01*
X23154799Y10517600D01*
X24517400Y9154998D01*
X24517400Y8988926D01*
X24674969Y8608520D01*
X24966120Y8317369D01*
X25346526Y8159800D01*
X25758274Y8159800D01*
X26138680Y8317369D01*
X26429831Y8608520D01*
X26587400Y8988926D01*
X26587400Y9310506D01*
X26667326Y9277400D01*
X27079074Y9277400D01*
X27459480Y9434969D01*
X27750631Y9726120D01*
X27908200Y10106526D01*
X27908200Y10518274D01*
X27750631Y10898680D01*
X27459480Y11189831D01*
X27079074Y11347400D01*
X26913002Y11347400D01*
X25228331Y13032070D01*
X25185929Y13095529D01*
X24934537Y13263504D01*
X24712852Y13307600D01*
X24712847Y13307600D01*
X24638000Y13322488D01*
X24563153Y13307600D01*
X21142802Y13307600D01*
X19860800Y14589601D01*
X19860800Y14814370D01*
X19913662Y14836266D01*
X20317334Y15239938D01*
X20370800Y15369016D01*
X20424266Y15239938D01*
X20827938Y14836266D01*
X21355361Y14617800D01*
X21926239Y14617800D01*
X22453662Y14836266D01*
X22857334Y15239938D01*
X22910800Y15369016D01*
X22964266Y15239938D01*
X23367938Y14836266D01*
X23895361Y14617800D01*
X24466239Y14617800D01*
X24993662Y14836266D01*
X25397334Y15239938D01*
X25615800Y15767361D01*
X25615800Y16338239D01*
X25397334Y16865662D01*
X24993662Y17269334D01*
X24864584Y17322800D01*
X24993662Y17376266D01*
X25397334Y17779938D01*
X25615800Y18307361D01*
X25615800Y18878239D01*
X25397334Y19405662D01*
X24993662Y19809334D01*
X24466239Y20027800D01*
X23895361Y20027800D01*
X23367938Y19809334D01*
X22964266Y19405662D01*
X22910800Y19276584D01*
X22857334Y19405662D01*
X22453662Y19809334D01*
X21926239Y20027800D01*
X21355361Y20027800D01*
X20827938Y19809334D01*
X20424266Y19405662D01*
X20370800Y19276584D01*
X20317334Y19405662D01*
X19913662Y19809334D01*
X19386239Y20027800D01*
X18815361Y20027800D01*
X18287938Y19809334D01*
X17884266Y19405662D01*
X17830800Y19276584D01*
X17777334Y19405662D01*
X17373662Y19809334D01*
X16846239Y20027800D01*
X16275361Y20027800D01*
X15747938Y19809334D01*
X15344266Y19405662D01*
X15290800Y19276584D01*
X15237334Y19405662D01*
X14833662Y19809334D01*
X14306239Y20027800D01*
X13735361Y20027800D01*
X13207938Y19809334D01*
X12804266Y19405662D01*
X12750800Y19276584D01*
X12697334Y19405662D01*
X12293662Y19809334D01*
X11766239Y20027800D01*
X11195361Y20027800D01*
X10667938Y19809334D01*
X10264266Y19405662D01*
X10210800Y19276584D01*
X10157334Y19405662D01*
X9753662Y19809334D01*
X9226239Y20027800D01*
X8655361Y20027800D01*
X8127938Y19809334D01*
X7724266Y19405662D01*
X7670800Y19276584D01*
X7617334Y19405662D01*
X7213662Y19809334D01*
X6686239Y20027800D01*
X6115361Y20027800D01*
X5587938Y19809334D01*
X5184266Y19405662D01*
X4965800Y18878239D01*
X710000Y18878239D01*
X710000Y26689050D01*
X4002200Y26689050D01*
X4002200Y25948491D01*
X4098873Y25715102D01*
X4277501Y25536473D01*
X4510890Y25439800D01*
X5251450Y25439800D01*
X5410200Y25598550D01*
X5410200Y26847800D01*
X5664200Y26847800D01*
X5664200Y25598550D01*
X5822950Y25439800D01*
X6563510Y25439800D01*
X6796899Y25536473D01*
X6975527Y25715102D01*
X7072200Y25948491D01*
X7072200Y26689050D01*
X6913450Y26847800D01*
X5664200Y26847800D01*
X5410200Y26847800D01*
X4160950Y26847800D01*
X4002200Y26689050D01*
X710000Y26689050D01*
X710000Y28001109D01*
X4002200Y28001109D01*
X4002200Y27260550D01*
X4160950Y27101800D01*
X5410200Y27101800D01*
X5410200Y28351050D01*
X5664200Y28351050D01*
X5664200Y27101800D01*
X6913450Y27101800D01*
X7072200Y27260550D01*
X7072200Y28001109D01*
X6975527Y28234498D01*
X6796899Y28413127D01*
X6563510Y28509800D01*
X5822950Y28509800D01*
X5664200Y28351050D01*
X5410200Y28351050D01*
X5251450Y28509800D01*
X4510890Y28509800D01*
X4277501Y28413127D01*
X4098873Y28234498D01*
X4002200Y28001109D01*
X710000Y28001109D01*
X710000Y28844374D01*
X26143000Y28844374D01*
X26143000Y28432626D01*
X26300569Y28052220D01*
X26591720Y27761069D01*
X26972126Y27603500D01*
X27383874Y27603500D01*
X27764280Y27761069D01*
X28055431Y28052220D01*
X28213000Y28432626D01*
X28213000Y28556000D01*
X28463374Y28556000D01*
X28843780Y28713569D01*
X28961211Y28831000D01*
X29911199Y28831000D01*
X45595000Y13147198D01*
X45595001Y11398430D01*
X45542138Y11376534D01*
X45138466Y10972862D01*
X44920000Y10445439D01*
X44920000Y9874561D01*
X45138466Y9347138D01*
X45470604Y9015000D01*
X45159848Y9015000D01*
X45085000Y9029888D01*
X45010152Y9015000D01*
X45010148Y9015000D01*
X44836605Y8980480D01*
X44788462Y8970904D01*
X44679748Y8898263D01*
X44537071Y8802929D01*
X44494671Y8739473D01*
X42695528Y6940329D01*
X42632072Y6897929D01*
X42589672Y6834473D01*
X42589671Y6834472D01*
X42464097Y6646537D01*
X42405112Y6350000D01*
X42420001Y6275148D01*
X42420000Y3756783D01*
X42378467Y3739579D01*
X41980421Y3341533D01*
X41963217Y3300000D01*
X41856783Y3300000D01*
X41839579Y3341533D01*
X41441533Y3739579D01*
X41400000Y3756783D01*
X41400000Y8921570D01*
X41452862Y8943466D01*
X41856534Y9347138D01*
X41910000Y9476216D01*
X41963466Y9347138D01*
X42367138Y8943466D01*
X42894561Y8725000D01*
X43465439Y8725000D01*
X43992862Y8943466D01*
X44396534Y9347138D01*
X44615000Y9874561D01*
X44615000Y10445439D01*
X44396534Y10972862D01*
X43992862Y11376534D01*
X43465439Y11595000D01*
X42894561Y11595000D01*
X42367138Y11376534D01*
X41963466Y10972862D01*
X41910000Y10843784D01*
X41856534Y10972862D01*
X41452862Y11376534D01*
X40925439Y11595000D01*
X40354561Y11595000D01*
X39827138Y11376534D01*
X39423466Y10972862D01*
X39370000Y10843784D01*
X39316534Y10972862D01*
X38912862Y11376534D01*
X38385439Y11595000D01*
X37814561Y11595000D01*
X37287138Y11376534D01*
X36883466Y10972862D01*
X36830000Y10843784D01*
X36776534Y10972862D01*
X36372862Y11376534D01*
X35845439Y11595000D01*
X35274561Y11595000D01*
X34747138Y11376534D01*
X34343466Y10972862D01*
X34290000Y10843784D01*
X34236534Y10972862D01*
X33832862Y11376534D01*
X33305439Y11595000D01*
X32734561Y11595000D01*
X32207138Y11376534D01*
X31904738Y11074134D01*
X31878157Y11207765D01*
X31737809Y11417809D01*
X31527765Y11558157D01*
X31280000Y11607440D01*
X29680000Y11607440D01*
X29432235Y11558157D01*
X29222191Y11417809D01*
X29081843Y11207765D01*
X29032560Y10960000D01*
X29032560Y9360000D01*
X29081843Y9112235D01*
X29222191Y8902191D01*
X29432235Y8761843D01*
X29680000Y8712560D01*
X29720001Y8712560D01*
X29720000Y3756783D01*
X29678467Y3739579D01*
X29280421Y3341533D01*
X29210000Y3171522D01*
X29139579Y3341533D01*
X28741533Y3739579D01*
X28221461Y3955000D01*
X27658539Y3955000D01*
X27138467Y3739579D01*
X26740421Y3341533D01*
X26525000Y2821461D01*
X26525000Y2258539D01*
X26740421Y1738467D01*
X27138467Y1340421D01*
X27658539Y1125000D01*
X28221461Y1125000D01*
X28741533Y1340421D01*
X29139579Y1738467D01*
X29210000Y1908478D01*
X29280421Y1738467D01*
X29678467Y1340421D01*
X30198539Y1125000D01*
X30761461Y1125000D01*
X31281533Y1340421D01*
X31679579Y1738467D01*
X31750000Y1908478D01*
X31820421Y1738467D01*
X32218467Y1340421D01*
X32738539Y1125000D01*
X33301461Y1125000D01*
X33821533Y1340421D01*
X34219579Y1738467D01*
X34290000Y1908478D01*
X34360421Y1738467D01*
X34758467Y1340421D01*
X35278539Y1125000D01*
X35841461Y1125000D01*
X36361533Y1340421D01*
X36759579Y1738467D01*
X36830000Y1908478D01*
X36900421Y1738467D01*
X37298467Y1340421D01*
X37818539Y1125000D01*
X38381461Y1125000D01*
X38901533Y1340421D01*
X39299579Y1738467D01*
X39370000Y1908478D01*
X39440421Y1738467D01*
X39838467Y1340421D01*
X40358539Y1125000D01*
X40921461Y1125000D01*
X41441533Y1340421D01*
X41839579Y1738467D01*
X41856783Y1780000D01*
X41963217Y1780000D01*
X41980421Y1738467D01*
X42378467Y1340421D01*
X42898539Y1125000D01*
X43461461Y1125000D01*
X43981533Y1340421D01*
X44379579Y1738467D01*
X44450000Y1908478D01*
X44520421Y1738467D01*
X44918467Y1340421D01*
X45438539Y1125000D01*
X46001461Y1125000D01*
X46521533Y1340421D01*
X46919579Y1738467D01*
X47135000Y2258539D01*
X47135000Y2349869D01*
X47606592Y2821461D01*
X49385000Y2821461D01*
X49385000Y2258539D01*
X49600421Y1738467D01*
X49998467Y1340421D01*
X50518539Y1125000D01*
X51081461Y1125000D01*
X51601533Y1340421D01*
X51999579Y1738467D01*
X52070000Y1908478D01*
X52140421Y1738467D01*
X52538467Y1340421D01*
X53058539Y1125000D01*
X53621461Y1125000D01*
X54141533Y1340421D01*
X54539579Y1738467D01*
X54610000Y1908478D01*
X54680421Y1738467D01*
X55078467Y1340421D01*
X55598539Y1125000D01*
X56161461Y1125000D01*
X56681533Y1340421D01*
X57079579Y1738467D01*
X57150000Y1908478D01*
X57220421Y1738467D01*
X57618467Y1340421D01*
X58138539Y1125000D01*
X58701461Y1125000D01*
X59221533Y1340421D01*
X59619579Y1738467D01*
X59690000Y1908478D01*
X59760421Y1738467D01*
X60158467Y1340421D01*
X60678539Y1125000D01*
X61241461Y1125000D01*
X61761533Y1340421D01*
X62159579Y1738467D01*
X62230000Y1908478D01*
X62300421Y1738467D01*
X62698467Y1340421D01*
X63218539Y1125000D01*
X63781461Y1125000D01*
X64301533Y1340421D01*
X64699579Y1738467D01*
X64915000Y2258539D01*
X64915000Y2821461D01*
X64699579Y3341533D01*
X64301533Y3739579D01*
X63781461Y3955000D01*
X63218539Y3955000D01*
X62698467Y3739579D01*
X62300421Y3341533D01*
X62230000Y3171522D01*
X62159579Y3341533D01*
X61761533Y3739579D01*
X61241461Y3955000D01*
X60678539Y3955000D01*
X60158467Y3739579D01*
X59760421Y3341533D01*
X59690000Y3171522D01*
X59619579Y3341533D01*
X59221533Y3739579D01*
X58701461Y3955000D01*
X58138539Y3955000D01*
X57618467Y3739579D01*
X57220421Y3341533D01*
X57150000Y3171522D01*
X57079579Y3341533D01*
X56681533Y3739579D01*
X56161461Y3955000D01*
X55598539Y3955000D01*
X55078467Y3739579D01*
X54680421Y3341533D01*
X54610000Y3171522D01*
X54539579Y3341533D01*
X54141533Y3739579D01*
X53621461Y3955000D01*
X53058539Y3955000D01*
X52538467Y3739579D01*
X52140421Y3341533D01*
X52070000Y3171522D01*
X51999579Y3341533D01*
X51601533Y3739579D01*
X51081461Y3955000D01*
X50518539Y3955000D01*
X49998467Y3739579D01*
X49600421Y3341533D01*
X49385000Y2821461D01*
X47606592Y2821461D01*
X49301633Y4516500D01*
X60340217Y4516500D01*
X60452000Y4494265D01*
X60563783Y4516500D01*
X60894855Y4582354D01*
X61270289Y4833211D01*
X61333613Y4927982D01*
X62890021Y6484389D01*
X62984789Y6547711D01*
X63235646Y6923145D01*
X63301500Y7254217D01*
X63301500Y7254218D01*
X63323735Y7365999D01*
X63301500Y7477782D01*
X63301500Y16715717D01*
X63323735Y16827500D01*
X63235646Y17270355D01*
X63166659Y17373601D01*
X62984789Y17645789D01*
X62890021Y17709111D01*
X62286113Y18313019D01*
X62222789Y18407789D01*
X61847355Y18658646D01*
X61516283Y18724500D01*
X61404500Y18746735D01*
X61292717Y18724500D01*
X58001133Y18724500D01*
X57142000Y19583631D01*
X57142000Y24646000D01*
X57769843Y24646000D01*
X57819163Y24596680D01*
X58026013Y24511000D01*
X57819163Y24425320D01*
X57426180Y24032337D01*
X57213500Y23518881D01*
X57213500Y22963119D01*
X57426180Y22449663D01*
X57819163Y22056680D01*
X58026013Y21971000D01*
X57819163Y21885320D01*
X57426180Y21492337D01*
X57213500Y20978881D01*
X57213500Y20423119D01*
X57426180Y19909663D01*
X57819163Y19516680D01*
X58332619Y19304000D01*
X58888381Y19304000D01*
X59401837Y19516680D01*
X59794820Y19909663D01*
X59880500Y20116513D01*
X59966180Y19909663D01*
X60359163Y19516680D01*
X60872619Y19304000D01*
X61428381Y19304000D01*
X61941837Y19516680D01*
X62334820Y19909663D01*
X62547500Y20423119D01*
X62547500Y20978881D01*
X62334820Y21492337D01*
X61941837Y21885320D01*
X61734987Y21971000D01*
X61941837Y22056680D01*
X62334820Y22449663D01*
X62547500Y22963119D01*
X62547500Y23518881D01*
X62334820Y24032337D01*
X61941837Y24425320D01*
X61750853Y24504428D01*
X61881643Y24558603D01*
X61951108Y24800787D01*
X61150500Y25601395D01*
X61136358Y25587253D01*
X60956753Y25766858D01*
X60970895Y25781000D01*
X61330105Y25781000D01*
X62130713Y24980392D01*
X62372897Y25049857D01*
X62559644Y25573302D01*
X62531862Y26128368D01*
X62372897Y26512143D01*
X62130713Y26581608D01*
X61330105Y25781000D01*
X60970895Y25781000D01*
X60956753Y25795143D01*
X61136358Y25974748D01*
X61150500Y25960605D01*
X61951108Y26761213D01*
X61881643Y27003397D01*
X61358198Y27190144D01*
X60803132Y27162362D01*
X60540826Y27053711D01*
X60532904Y27093537D01*
X60468353Y27190144D01*
X60407329Y27281474D01*
X60407327Y27281476D01*
X60364929Y27344929D01*
X60301475Y27387327D01*
X60026500Y27662302D01*
X60026500Y27828374D01*
X59868931Y28208780D01*
X59577780Y28499931D01*
X59197374Y28657500D01*
X58785626Y28657500D01*
X58405220Y28499931D01*
X58114069Y28208780D01*
X57956500Y27828374D01*
X57956500Y27416626D01*
X58095948Y27079968D01*
X57819163Y26965320D01*
X57769843Y26916000D01*
X56753783Y26916000D01*
X56642000Y26938235D01*
X56530217Y26916000D01*
X56199145Y26850146D01*
X55823711Y26599289D01*
X55760387Y26504518D01*
X55283480Y26027611D01*
X55188712Y25964289D01*
X55022211Y25715102D01*
X54937854Y25588854D01*
X54849765Y25146000D01*
X54872001Y25034212D01*
X54872000Y19225283D01*
X54849765Y19113500D01*
X54872000Y19001718D01*
X54937854Y18670646D01*
X55188711Y18295211D01*
X55283481Y18231887D01*
X56649390Y16865977D01*
X56712711Y16771211D01*
X57088145Y16520354D01*
X57419217Y16454500D01*
X57530999Y16432265D01*
X57642781Y16454500D01*
X60934369Y16454500D01*
X61031501Y16357368D01*
X61031500Y7836132D01*
X59981869Y6786500D01*
X48943281Y6786500D01*
X48831499Y6808735D01*
X48719717Y6786500D01*
X48388645Y6720646D01*
X48013211Y6469789D01*
X47949891Y6375024D01*
X45529869Y3955000D01*
X45438539Y3955000D01*
X44918467Y3739579D01*
X44520421Y3341533D01*
X44450000Y3171522D01*
X44379579Y3341533D01*
X43981533Y3739579D01*
X43940000Y3756783D01*
X43940000Y6035199D01*
X45399802Y7495000D01*
X50788653Y7495000D01*
X50863500Y7480112D01*
X50938347Y7495000D01*
X50938352Y7495000D01*
X51160037Y7539096D01*
X51411429Y7707071D01*
X51453831Y7770530D01*
X51919473Y8236171D01*
X51982929Y8278571D01*
X52150904Y8529963D01*
X52195000Y8751648D01*
X52195000Y8751652D01*
X52209888Y8826499D01*
X52195000Y8901346D01*
X52195000Y8921570D01*
X52247862Y8943466D01*
X52651534Y9347138D01*
X52705000Y9476216D01*
X52758466Y9347138D01*
X53162138Y8943466D01*
X53689561Y8725000D01*
X54260439Y8725000D01*
X54787862Y8943466D01*
X55191534Y9347138D01*
X55245000Y9476216D01*
X55298466Y9347138D01*
X55702138Y8943466D01*
X56229561Y8725000D01*
X56800439Y8725000D01*
X57327862Y8943466D01*
X57630262Y9245866D01*
X57656843Y9112235D01*
X57797191Y8902191D01*
X58007235Y8761843D01*
X58255000Y8712560D01*
X59855000Y8712560D01*
X60102765Y8761843D01*
X60312809Y8902191D01*
X60453157Y9112235D01*
X60502440Y9360000D01*
X60502440Y10960000D01*
X60453157Y11207765D01*
X60312809Y11417809D01*
X60102765Y11558157D01*
X59855000Y11607440D01*
X58255000Y11607440D01*
X58007235Y11558157D01*
X57797191Y11417809D01*
X57656843Y11207765D01*
X57630262Y11074134D01*
X57327862Y11376534D01*
X56800439Y11595000D01*
X56229561Y11595000D01*
X55702138Y11376534D01*
X55298466Y10972862D01*
X55245000Y10843784D01*
X55191534Y10972862D01*
X54787862Y11376534D01*
X54260439Y11595000D01*
X53689561Y11595000D01*
X53162138Y11376534D01*
X52758466Y10972862D01*
X52705000Y10843784D01*
X52651534Y10972862D01*
X52247862Y11376534D01*
X51720439Y11595000D01*
X51149561Y11595000D01*
X50622138Y11376534D01*
X50218466Y10972862D01*
X50165000Y10843784D01*
X50111534Y10972862D01*
X49707862Y11376534D01*
X49655000Y11398430D01*
X49655000Y11926653D01*
X49669888Y12001500D01*
X49655000Y12076347D01*
X49655000Y12076352D01*
X49610904Y12298037D01*
X49442929Y12549429D01*
X49379473Y12591829D01*
X32428428Y29542874D01*
X36557000Y29542874D01*
X36557000Y29131126D01*
X36714569Y28750720D01*
X37005720Y28459569D01*
X37386126Y28302000D01*
X37797874Y28302000D01*
X38178280Y28459569D01*
X38469431Y28750720D01*
X38627000Y29131126D01*
X38627000Y29297198D01*
X38838473Y29508671D01*
X38901929Y29551071D01*
X39066170Y29796874D01*
X39069904Y29802462D01*
X39100165Y29954596D01*
X39114000Y30024148D01*
X39114000Y30024152D01*
X39128888Y30099000D01*
X39114000Y30173848D01*
X39114000Y32125789D01*
X39231431Y32243220D01*
X39389000Y32623626D01*
X39389000Y33035374D01*
X39231431Y33415780D01*
X38940280Y33706931D01*
X38559874Y33864500D01*
X38148126Y33864500D01*
X37767720Y33706931D01*
X37476569Y33415780D01*
X37319000Y33035374D01*
X37319000Y32623626D01*
X37476569Y32243220D01*
X37594000Y32125789D01*
X37594001Y30413803D01*
X37552198Y30372000D01*
X37386126Y30372000D01*
X37005720Y30214431D01*
X36714569Y29923280D01*
X36557000Y29542874D01*
X32428428Y29542874D01*
X30816331Y31154970D01*
X30773929Y31218429D01*
X30522537Y31386404D01*
X30300852Y31430500D01*
X30300847Y31430500D01*
X30226000Y31445388D01*
X30151153Y31430500D01*
X27697347Y31430500D01*
X27622500Y31445388D01*
X27547653Y31430500D01*
X27547648Y31430500D01*
X27325963Y31386404D01*
X27074571Y31218429D01*
X27032169Y31154970D01*
X26693528Y30816329D01*
X26630072Y30773929D01*
X26462097Y30522537D01*
X26430938Y30365888D01*
X26403112Y30226000D01*
X26418001Y30151149D01*
X26418000Y29342211D01*
X26300569Y29224780D01*
X26143000Y28844374D01*
X710000Y28844374D01*
X710000Y30780130D01*
X4002200Y30780130D01*
X4002200Y30169470D01*
X4235890Y29605293D01*
X4667693Y29173490D01*
X5231870Y28939800D01*
X5842530Y28939800D01*
X6406707Y29173490D01*
X6838510Y29605293D01*
X7072200Y30169470D01*
X7072200Y30780130D01*
X6838510Y31344307D01*
X6406707Y31776110D01*
X5842530Y32009800D01*
X5231870Y32009800D01*
X4667693Y31776110D01*
X4235890Y31344307D01*
X4002200Y30780130D01*
X710000Y30780130D01*
X710000Y40925439D01*
X19901000Y40925439D01*
X19901000Y40354561D01*
X20119466Y39827138D01*
X20523138Y39423466D01*
X21050561Y39205000D01*
X21621439Y39205000D01*
X22148862Y39423466D01*
X22552534Y39827138D01*
X22606000Y39956216D01*
X22659466Y39827138D01*
X23063138Y39423466D01*
X23590561Y39205000D01*
X24161439Y39205000D01*
X24688862Y39423466D01*
X25092534Y39827138D01*
X25146000Y39956216D01*
X25199466Y39827138D01*
X25603138Y39423466D01*
X26130561Y39205000D01*
X26701439Y39205000D01*
X27228862Y39423466D01*
X27632534Y39827138D01*
X27686000Y39956216D01*
X27739466Y39827138D01*
X28143138Y39423466D01*
X28670561Y39205000D01*
X29241439Y39205000D01*
X29768862Y39423466D01*
X30172534Y39827138D01*
X30226000Y39956216D01*
X30279466Y39827138D01*
X30683138Y39423466D01*
X31210561Y39205000D01*
X31781439Y39205000D01*
X32308862Y39423466D01*
X32611262Y39725866D01*
X32637843Y39592235D01*
X32778191Y39382191D01*
X32988235Y39241843D01*
X33236000Y39192560D01*
X34836000Y39192560D01*
X35083765Y39241843D01*
X35293809Y39382191D01*
X35434157Y39592235D01*
X35483440Y39840000D01*
X35483440Y41440000D01*
X35434157Y41687765D01*
X35293809Y41897809D01*
X35083765Y42038157D01*
X34836000Y42087440D01*
X33236000Y42087440D01*
X32988235Y42038157D01*
X32778191Y41897809D01*
X32637843Y41687765D01*
X32611262Y41554134D01*
X32308862Y41856534D01*
X31781439Y42075000D01*
X31210561Y42075000D01*
X30683138Y41856534D01*
X30279466Y41452862D01*
X30226000Y41323784D01*
X30172534Y41452862D01*
X29768862Y41856534D01*
X29241439Y42075000D01*
X28670561Y42075000D01*
X28143138Y41856534D01*
X27739466Y41452862D01*
X27686000Y41323784D01*
X27632534Y41452862D01*
X27228862Y41856534D01*
X26701439Y42075000D01*
X26130561Y42075000D01*
X25603138Y41856534D01*
X25199466Y41452862D01*
X25146000Y41323784D01*
X25092534Y41452862D01*
X24688862Y41856534D01*
X24161439Y42075000D01*
X23590561Y42075000D01*
X23063138Y41856534D01*
X22659466Y41452862D01*
X22606000Y41323784D01*
X22552534Y41452862D01*
X22148862Y41856534D01*
X21621439Y42075000D01*
X21050561Y42075000D01*
X20523138Y41856534D01*
X20119466Y41452862D01*
X19901000Y40925439D01*
X710000Y40925439D01*
X710000Y52388794D01*
X907155Y52566233D01*
X13550229Y52553838D01*
G04 #@! TD*
M02*
