M48
; DRILL file {KiCad (5.1.10-1-10_14)} date Sunday, March 19, 2023 at 01:19:56 PM
; FORMAT={-:-/ absolute / inch / decimal}
; #@! TF.CreationDate,2023-03-19T13:19:56-07:00
; #@! TF.GenerationSoftware,Kicad,Pcbnew,(5.1.10-1-10_14)
FMAT,2
INCH
T1C0.0079
T2C0.0157
T3C0.0295
T4C0.0315
T5C0.0354
T6C0.0394
T7C0.0400
T8C0.0402
T9C0.0417
T10C0.0433
T11C0.0512
T12C0.0570
T13C0.0591
T14C0.1063
T15C0.0858
T16C0.0984
T17C0.1000
T18C0.1142
T19C0.1180
T20C0.1181
%
G90
G05
T1
X6.601Y-4.863
X6.602Y-4.7355
X7.8296Y-4.2496
X8.689Y-4.2496
X9.319Y-4.248
X9.504Y-4.248
T2
X1.648Y-5.2515
X1.6657Y-5.2124
X1.676Y-5.9344
X1.7551Y-4.2645
X1.7865Y-7.0835
X1.7924Y-4.277
X1.8086Y-7.1161
X1.8255Y-4.1778
X1.8297Y-4.2643
X1.8336Y-7.1465
X1.8355Y-5.896
X1.8605Y-4.1958
X1.8667Y-4.2778
X1.8685Y-4.8055
X1.9037Y-4.2644
X1.9377Y-4.179
X1.9412Y-4.2764
X1.9635Y-4.902
X1.9728Y-4.1969
X1.9816Y-4.2611
X2.008Y-4.1793
X2.0343Y-5.8571
X2.0673Y-4.1967
X2.088Y-5.663
X2.1028Y-4.1798
X2.3192Y-7.1938
X2.5105Y-3.9725
X2.511Y-3.9154
X2.513Y-3.8584
X2.5135Y-3.8013
X2.5405Y-4.0081
X2.5417Y-3.8315
X2.5417Y-3.8908
X2.542Y-3.9488
X2.5905Y-5.9417
X2.593Y-5.863
X2.593Y-5.9024
X3.4716Y-7.0414
X3.5186Y-3.9134
X3.519Y-3.799
X3.5202Y-3.9705
X3.5203Y-3.8564
X3.5471Y-4.0065
X3.5482Y-3.9429
X3.55Y-3.8278
X3.5507Y-3.8849
X3.9Y-4.255
X4.1072Y-7.0364
X4.4285Y-4.0282
X4.43Y-3.9888
X4.441Y-4.3315
X4.4683Y-4.303
X5.018Y-5.937
X5.0475Y-5.907
X5.05Y-2.658
X5.086Y-6.097
X5.119Y-2.707
X5.125Y-6.0914
X5.1461Y-1.1963
X5.186Y-1.1958
X5.2259Y-4.3297
X5.2436Y-4.2937
X5.2501Y-6.4866
X5.2517Y-6.4446
X5.2521Y-6.4039
X5.2721Y-5.5635
X5.283Y-4.2928
X5.2848Y-2.5295
X5.3007Y-5.5323
X5.3007Y-4.331
X5.3025Y-2.567
X5.3292Y-5.5625
X5.3382Y-6.425
X5.34Y-4.2925
X5.34Y-5.6665
X5.3416Y-3.3699
X5.3559Y-6.3867
X5.3578Y-5.5335
X5.3578Y-5.63
X5.3578Y-4.3305
X5.3806Y-3.358
X5.3846Y-6.3585
X5.3891Y-3.4051
X5.405Y-4.329
X5.405Y-5.532
X5.414Y-6.057
X5.4273Y-3.3939
X5.434Y-3.452
X5.4575Y-6.0445
X5.461Y-4.324
X5.461Y-5.527
X5.4665Y-6.128
X5.48Y-3.488
X5.4875Y-2.7106
X5.4875Y-2.75
X5.502Y-6.0515
X5.518Y-4.32
X5.518Y-5.523
X5.527Y-3.519
X5.5605Y-6.1505
X5.573Y-3.557
X5.576Y-4.316
X5.576Y-5.519
X5.591Y-6.071
X5.628Y-6.026
X5.6461Y-3.0471
X5.6501Y-3.0863
X5.671Y-5.986
X5.693Y-3.082
X5.693Y-3.126
X5.71Y-5.947
X5.7147Y-1.2167
X5.732Y-3.156
X5.734Y-3.315
X5.754Y-1.219
X5.773Y-3.196
X5.806Y-3.325
X5.939Y-6.818
X5.9399Y-6.7596
X5.9662Y-6.8465
X5.967Y-6.731
X5.9676Y-6.7881
X6.2461Y-5.6152
X6.2853Y-5.6011
X6.287Y-5.422
X6.3232Y-5.5882
X6.3664Y-5.5841
X6.4207Y-3.4556
X6.4503Y-3.4296
X6.4786Y-3.4023
X6.479Y-6.8465
X6.4794Y-6.7878
X6.4797Y-6.7307
X6.507Y-3.375
X6.5099Y-6.8142
X6.5101Y-6.7571
X6.613Y-3.3964
X6.6362Y-3.4282
X6.6571Y-3.4615
X6.6803Y-3.4934
X6.7032Y-3.5254
X6.7256Y-3.5578
X6.7487Y-3.5897
X6.7701Y-3.6227
X7.0281Y-4.2212
X7.0674Y-4.2209
X7.08Y-5.77
X7.1068Y-4.2212
X7.1461Y-4.2189
X7.147Y-5.715
X7.194Y-5.66
X7.246Y-5.603
X7.2806Y-5.5556
X7.32Y-5.5558
X7.4875Y-5.3115
X7.5038Y-5.3492
X7.5487Y-6.2614
X7.5495Y-6.301
X7.5552Y-4.3728
X7.5944Y-4.3764
X7.5977Y-4.615
X7.5977Y-4.658
X7.5977Y-4.6974
X7.5977Y-4.7367
X7.6153Y-4.4732
X7.6243Y-6.269
X7.6338Y-4.3764
X7.6444Y-4.5083
X7.648Y-4.4512
X7.6528Y-6.2312
X7.6687Y-5.1772
X7.671Y-5.846
X7.6814Y-5.5285
X7.6863Y-5.128
X7.71Y-5.8175
X7.71Y-5.5555
X7.739Y-5.851
X7.7392Y-5.5291
X7.768Y-5.8175
X7.7685Y-5.5555
X7.7973Y-5.5286
X7.798Y-5.851
X7.826Y-5.5558
X7.826Y-5.8175
X7.8579Y-5.529
X7.858Y-5.851
X7.8868Y-5.5558
X7.887Y-5.8184
X8.1855Y-4.938
X8.485Y-4.44
X8.5123Y-4.4688
X8.5401Y-4.4967
X9.5276Y-6.0154
X9.5311Y-6.0546
X9.5721Y-6.0599
X9.5801Y-6.0984
X9.6231Y-6.1109
X9.7119Y-5.8321
X9.7514Y-5.834
X9.756Y-5.8762
X9.7946Y-5.8839
X9.8068Y-5.927
T3
X4.09Y-5.67
X4.14Y-5.67
X4.19Y-5.67
T4
X1.986Y-6.913
X1.987Y-6.543
X1.987Y-6.667
X1.987Y-6.791
X1.987Y-7.039
X2.286Y-6.913
X2.287Y-6.543
X2.287Y-6.667
X2.287Y-6.791
X2.287Y-7.039
X2.95Y-6.0134
X2.95Y-6.163
X3.158Y-5.6164
X3.158Y-5.766
X3.606Y-5.674
X3.9Y-4.648
X3.9Y-4.948
X3.906Y-5.674
X3.973Y-6.0134
X3.973Y-6.163
X4.39Y-5.674
X4.69Y-5.674
X5.125Y-6.859
X5.125Y-7.159
X5.263Y-1.464
X5.263Y-1.764
X5.418Y-1.464
X5.418Y-1.764
X5.767Y-4.793
X5.9544Y-0.997
X5.973Y-5.522
X5.973Y-5.822
X6.067Y-4.793
X6.103Y-5.521
X6.103Y-5.821
X6.104Y-0.997
X7.451Y-6.381
X7.451Y-6.5127
X7.451Y-6.6443
X7.451Y-6.776
X7.751Y-6.381
X7.751Y-6.5127
X7.751Y-6.6443
X7.751Y-6.776
X7.965Y-4.562
X7.965Y-4.6875
X7.965Y-4.813
X7.965Y-5.009
X7.965Y-5.1355
X7.965Y-5.262
X8.2474Y-4.2496
X8.265Y-4.562
X8.265Y-4.6875
X8.265Y-4.813
X8.265Y-5.009
X8.265Y-5.1355
X8.265Y-5.262
X8.5474Y-4.2496
X8.566Y-6.384
X8.566Y-6.5097
X8.566Y-6.6353
X8.566Y-6.761
X8.866Y-6.384
X8.866Y-6.5097
X8.866Y-6.6353
X8.866Y-6.761
X9.02Y-4.887
X9.02Y-5.0187
X9.02Y-5.1503
X9.02Y-5.282
X9.32Y-4.887
X9.32Y-5.0187
X9.32Y-5.1503
X9.32Y-5.282
T5
X8.8771Y-4.2496
X9.074Y-4.2496
T6
X1.5147Y-6.1
X1.5147Y-6.2
X1.5147Y-6.3
X1.5147Y-6.4
X1.5147Y-6.5
X1.5147Y-6.6
X1.5147Y-6.7
X1.5147Y-6.8
X1.5147Y-6.9
X1.5147Y-7.0
X1.769Y-4.701
X1.769Y-4.801
X1.769Y-4.901
X1.769Y-5.001
X1.769Y-5.101
X1.769Y-5.201
X1.769Y-5.301
X1.769Y-5.401
X1.81Y-6.1
X1.81Y-6.2
X1.81Y-6.3
X1.81Y-6.4
X1.81Y-6.5
X1.81Y-6.6
X1.81Y-6.7
X1.81Y-6.8
X1.81Y-6.9
X1.81Y-7.0
T7
X3.247Y-5.238
X3.347Y-5.238
X3.447Y-5.238
X3.547Y-5.238
X3.6293Y-3.8302
X3.6293Y-3.9302
X3.7293Y-3.8302
X3.7293Y-3.9302
X3.8293Y-3.8302
X3.8293Y-3.9302
X3.9293Y-3.8302
X3.9293Y-3.9302
X4.0293Y-3.8302
X4.0293Y-3.9302
X4.1293Y-3.8302
X4.1293Y-3.9302
X4.2293Y-3.8302
X4.2293Y-3.9302
X4.3293Y-3.8302
X4.3293Y-3.9302
X4.4293Y-3.8302
X4.4293Y-3.9302
X4.5293Y-3.8302
X4.5293Y-3.9302
X5.69Y-5.112
X5.79Y-5.112
X5.89Y-5.112
X5.99Y-5.112
X6.09Y-5.112
X6.19Y-5.112
X6.29Y-5.112
X6.39Y-5.112
T8
X2.824Y-7.096
X2.824Y-7.196
X2.824Y-7.296
X2.924Y-7.096
X2.924Y-7.196
X2.924Y-7.296
X3.024Y-7.096
X3.024Y-7.196
X3.024Y-7.296
X3.124Y-7.096
X3.124Y-7.196
X3.124Y-7.296
X3.261Y-5.992
X3.261Y-6.092
X3.261Y-6.192
X3.324Y-7.096
X3.324Y-7.196
X3.324Y-7.296
X3.361Y-5.992
X3.361Y-6.092
X3.361Y-6.192
X3.424Y-7.096
X3.424Y-7.196
X3.424Y-7.296
X3.461Y-5.992
X3.461Y-6.092
X3.461Y-6.192
X3.524Y-7.096
X3.524Y-7.196
X3.524Y-7.296
X3.561Y-5.992
X3.561Y-6.092
X3.561Y-6.192
X3.624Y-7.096
X3.624Y-7.196
X3.624Y-7.296
X3.924Y-7.096
X3.924Y-7.196
X3.924Y-7.296
X4.024Y-7.096
X4.024Y-7.196
X4.024Y-7.296
X4.056Y-4.653
X4.056Y-4.753
X4.056Y-4.853
X4.056Y-4.953
X4.056Y-5.053
X4.124Y-7.096
X4.124Y-7.196
X4.124Y-7.296
X4.224Y-7.096
X4.224Y-7.196
X4.224Y-7.296
X4.288Y-5.992
X4.288Y-6.092
X4.288Y-6.192
X4.388Y-5.992
X4.388Y-6.092
X4.388Y-6.192
X4.424Y-7.096
X4.424Y-7.196
X4.424Y-7.296
X4.488Y-5.992
X4.488Y-6.092
X4.488Y-6.192
X4.524Y-7.096
X4.524Y-7.196
X4.524Y-7.296
X4.588Y-5.992
X4.588Y-6.092
X4.588Y-6.192
X4.624Y-7.096
X4.624Y-7.196
X4.624Y-7.296
X4.724Y-7.096
X4.724Y-7.196
X4.724Y-7.296
X4.924Y-6.596
X4.924Y-6.696
X4.924Y-6.796
X4.924Y-6.896
X4.924Y-6.996
X4.924Y-7.096
X5.381Y-0.705
X5.381Y-0.805
X5.381Y-0.905
X5.481Y-0.705
X5.481Y-0.805
X5.481Y-0.905
X5.581Y-0.705
X5.581Y-0.805
X5.581Y-0.905
X5.681Y-0.705
X5.681Y-0.805
X5.681Y-0.905
X6.5Y-5.989
X6.5Y-6.1268
X6.5Y-6.2646
X6.5Y-6.4024
X6.5Y-6.5402
X6.5Y-6.678
X7.0687Y-6.6961
X7.0687Y-6.7961
X7.0687Y-6.8961
X7.0687Y-6.9961
X7.0687Y-7.0961
X7.097Y-4.617
X7.097Y-4.7548
X7.097Y-4.8926
X7.097Y-5.0304
X7.097Y-5.1682
X7.097Y-5.306
X7.1687Y-6.1961
X7.1687Y-6.2961
X7.1687Y-6.3961
X7.1687Y-6.4961
X7.1687Y-6.5961
X7.1687Y-6.6961
X7.1687Y-6.7961
X7.1687Y-6.8961
X7.1687Y-6.9961
X7.1687Y-7.0961
X7.2687Y-6.1961
X7.2687Y-6.2961
X7.2687Y-6.3961
X7.2687Y-6.4961
X7.2687Y-6.5961
X7.2687Y-6.6961
X7.2687Y-6.7961
X7.2687Y-6.8961
X7.2687Y-6.9961
X7.2687Y-7.0961
X9.0483Y-6.1931
X9.0483Y-6.2931
X9.0483Y-6.3931
X9.0483Y-6.4931
X9.0483Y-6.5931
X9.0483Y-6.6931
X9.0483Y-6.7931
X9.0483Y-6.8931
X9.0483Y-6.9931
X9.0483Y-7.0931
X9.1483Y-6.1931
X9.1483Y-6.2931
X9.1483Y-6.3931
X9.1483Y-6.4931
X9.1483Y-6.5931
X9.1483Y-6.6931
X9.1483Y-6.7931
X9.1483Y-6.8931
X9.1483Y-6.9931
X9.1483Y-7.0931
X9.2483Y-6.6931
X9.2483Y-6.7931
X9.2483Y-6.8931
X9.2483Y-6.9931
X9.2483Y-7.0931
X9.5044Y-4.5213
X9.5044Y-4.6213
X9.5044Y-4.7213
X9.5044Y-4.8213
X9.5044Y-4.9213
X9.5044Y-5.0213
X9.5044Y-5.1213
X9.5044Y-5.2213
X9.5044Y-5.3213
X9.5044Y-5.4213
X9.6044Y-4.5213
X9.6044Y-4.6213
X9.6044Y-4.7213
X9.6044Y-4.8213
X9.6044Y-4.9213
X9.6044Y-5.0213
X9.6044Y-5.1213
X9.6044Y-5.2213
X9.6044Y-5.3213
X9.6044Y-5.4213
X9.7044Y-4.5213
X9.7044Y-4.6213
X9.7044Y-4.7213
X9.7044Y-4.8213
X9.7044Y-4.9213
X9.737Y-6.278
X9.737Y-6.4158
X9.737Y-6.5536
X9.737Y-6.6914
X9.737Y-6.8292
X9.737Y-6.967
T9
X2.347Y-5.238
X2.447Y-5.238
X2.547Y-5.238
X2.647Y-5.238
X2.747Y-5.338
X2.847Y-5.338
X2.947Y-5.338
X3.047Y-5.338
X3.147Y-5.338
T10
X1.718Y-5.663
X1.718Y-5.763
X1.718Y-5.863
T11
X1.5585Y-4.1535
X1.5585Y-4.3535
X3.674Y-6.482
X3.874Y-6.482
X5.94Y-4.462
X6.14Y-4.462
X6.376Y-7.251
X6.576Y-7.251
T12
X4.6273Y-0.9832
X4.6273Y-1.1486
X4.6273Y-1.314
X4.6273Y-1.8952
X4.6273Y-2.0606
X4.6273Y-2.226
X4.6273Y-2.8052
X4.6273Y-2.9706
X4.6273Y-3.136
X4.8443Y-0.9832
X4.8443Y-1.1486
X4.8443Y-1.314
X4.8443Y-1.8952
X4.8443Y-2.0606
X4.8443Y-2.226
X4.8443Y-2.8052
X4.8443Y-2.9706
X4.8443Y-3.136
X6.3797Y-0.9834
X6.3797Y-1.1488
X6.3797Y-1.3142
X6.3797Y-1.8954
X6.3797Y-2.0608
X6.3797Y-2.2262
X6.3797Y-2.8054
X6.3797Y-2.9708
X6.3797Y-3.1362
X6.5967Y-0.9834
X6.5967Y-1.1488
X6.5967Y-1.3142
X6.5967Y-1.8954
X6.5967Y-2.0608
X6.5967Y-2.2262
X6.5967Y-2.8054
X6.5967Y-2.9708
X6.5967Y-3.1362
T13
X8.4481Y-3.916
X9.3379Y-3.916
T14
X1.444Y-4.63
X1.444Y-4.8622
X1.444Y-5.0944
X1.444Y-5.3266
X1.444Y-5.5588
X1.444Y-5.791
X7.172Y-3.812
X7.172Y-4.0089
X7.587Y-3.812
X7.587Y-4.0089
X8.093Y-3.812
X8.093Y-4.0089
X9.555Y-3.812
X9.555Y-4.0089
T15
X4.0966Y-4.4928
X4.6162Y-5.0124
T16
X2.1828Y-4.2726
X2.1828Y-5.2726
X3.7104Y-4.2726
X3.7104Y-5.2726
T17
X5.69Y-4.412
X6.39Y-4.412
T18
X1.4585Y-3.7515
X1.4585Y-7.3735
X2.0884Y-3.7515
X2.0884Y-7.3735
X4.8443Y-0.6806
X4.8443Y-3.4365
X5.6711Y-3.7515
X5.6711Y-7.3735
X6.0254Y-7.3735
X6.2223Y-0.6806
X6.3797Y-3.6727
X7.04Y-5.93
X7.04Y-7.365
X7.602Y-5.927
X7.602Y-7.362
X8.0582Y-4.2525
X8.0582Y-5.6875
X8.715Y-5.93
X8.715Y-7.365
X9.277Y-5.927
X9.277Y-7.362
X9.7332Y-4.2525
X9.7332Y-5.6875
X9.8049Y-3.7515
X9.8049Y-7.3735
T19
X4.6453Y-0.7982
X4.6453Y-1.4992
X4.6453Y-1.7102
X4.6453Y-2.4112
X4.6453Y-2.6202
X4.6453Y-3.3212
X6.5787Y-0.7982
X6.5787Y-1.4992
X6.5787Y-1.7102
X6.5787Y-2.4112
X6.5787Y-2.6202
X6.5787Y-3.3212
T20
X2.674Y-6.476
X2.674Y-7.2253
X4.8733Y-6.476
X4.8733Y-7.2253
T0
M30
