G04 #@! TF.GenerationSoftware,KiCad,Pcbnew,(5.1.12-1-10_14)*
G04 #@! TF.CreationDate,2022-06-10T21:35:17-05:00*
G04 #@! TF.ProjectId,Arduino_uno_sheild,41726475-696e-46f5-9f75-6e6f5f736865,rev?*
G04 #@! TF.SameCoordinates,Original*
G04 #@! TF.FileFunction,Soldermask,Top*
G04 #@! TF.FilePolarity,Negative*
%FSLAX46Y46*%
G04 Gerber Fmt 4.6, Leading zero omitted, Abs format (unit mm)*
G04 Created by KiCad (PCBNEW (5.1.12-1-10_14)) date 2022-06-10 21:35:17*
%MOMM*%
%LPD*%
G01*
G04 APERTURE LIST*
%ADD10C,1.662000*%
%ADD11C,3.702000*%
%ADD12C,1.626000*%
%ADD13C,1.702000*%
%ADD14C,1.902000*%
G04 APERTURE END LIST*
D10*
X27940000Y2540000D03*
X30480000Y2540000D03*
X33020000Y2540000D03*
X35560000Y2540000D03*
X38100000Y2540000D03*
X40640000Y2540000D03*
X43180000Y2540000D03*
X45720000Y2540000D03*
X50800000Y2540000D03*
X53340000Y2540000D03*
X55880000Y2540000D03*
X58420000Y2540000D03*
X60960000Y2540000D03*
X63500000Y2540000D03*
X18796000Y50800000D03*
X21336000Y50800000D03*
X23876000Y50800000D03*
X26416000Y50800000D03*
X28956000Y50800000D03*
X31496000Y50800000D03*
X34036000Y50800000D03*
X36576000Y50800000D03*
X39116000Y50800000D03*
X41656000Y50800000D03*
X45720000Y50800000D03*
X48260000Y50800000D03*
X50800000Y50800000D03*
X53340000Y50800000D03*
X55880000Y50800000D03*
X58420000Y50800000D03*
X60960000Y50800000D03*
X63500000Y50800000D03*
D11*
X15240000Y50800000D03*
X66040000Y35560000D03*
X66040000Y7620000D03*
X13970000Y2540000D03*
D12*
X3860800Y15544800D03*
X3860800Y17544800D03*
X3860800Y19544800D03*
X3860800Y21544800D03*
X3860800Y23544800D03*
X3860800Y25544800D03*
G36*
G01*
X15768001Y38969999D02*
X15768001Y39969999D01*
G75*
G02*
X15819001Y40020999I51000J0D01*
G01*
X16819001Y40020999D01*
G75*
G02*
X16870001Y39969999I0J-51000D01*
G01*
X16870001Y38969999D01*
G75*
G02*
X16819001Y38918999I-51000J0D01*
G01*
X15819001Y38918999D01*
G75*
G02*
X15768001Y38969999I0J51000D01*
G01*
G37*
G36*
G01*
X15768500Y36965000D02*
X15768500Y37965000D01*
G75*
G02*
X15819500Y38016000I51000J0D01*
G01*
X16819500Y38016000D01*
G75*
G02*
X16870500Y37965000I0J-51000D01*
G01*
X16870500Y36965000D01*
G75*
G02*
X16819500Y36914000I-51000J0D01*
G01*
X15819500Y36914000D01*
G75*
G02*
X15768500Y36965000I0J51000D01*
G01*
G37*
G36*
G01*
X6040300Y35060000D02*
X6040300Y36060000D01*
G75*
G02*
X6091300Y36111000I51000J0D01*
G01*
X7091300Y36111000D01*
G75*
G02*
X7142300Y36060000I0J-51000D01*
G01*
X7142300Y35060000D01*
G75*
G02*
X7091300Y35009000I-51000J0D01*
G01*
X6091300Y35009000D01*
G75*
G02*
X6040300Y35060000I0J51000D01*
G01*
G37*
G36*
G01*
X5976800Y37028500D02*
X5976800Y38028500D01*
G75*
G02*
X6027800Y38079500I51000J0D01*
G01*
X7027800Y38079500D01*
G75*
G02*
X7078800Y38028500I0J-51000D01*
G01*
X7078800Y37028500D01*
G75*
G02*
X7027800Y36977500I-51000J0D01*
G01*
X6027800Y36977500D01*
G75*
G02*
X5976800Y37028500I0J51000D01*
G01*
G37*
G36*
G01*
X22001100Y5176700D02*
X21001100Y5176700D01*
G75*
G02*
X20950100Y5227700I0J51000D01*
G01*
X20950100Y6227700D01*
G75*
G02*
X21001100Y6278700I51000J0D01*
G01*
X22001100Y6278700D01*
G75*
G02*
X22052100Y6227700I0J-51000D01*
G01*
X22052100Y5227700D01*
G75*
G02*
X22001100Y5176700I-51000J0D01*
G01*
G37*
G36*
G01*
X22001100Y3335200D02*
X21001100Y3335200D01*
G75*
G02*
X20950100Y3386200I0J51000D01*
G01*
X20950100Y4386200D01*
G75*
G02*
X21001100Y4437200I51000J0D01*
G01*
X22001100Y4437200D01*
G75*
G02*
X22052100Y4386200I0J-51000D01*
G01*
X22052100Y3386200D01*
G75*
G02*
X22001100Y3335200I-51000J0D01*
G01*
G37*
G36*
G01*
X22001100Y7132500D02*
X21001100Y7132500D01*
G75*
G02*
X20950100Y7183500I0J51000D01*
G01*
X20950100Y8183500D01*
G75*
G02*
X21001100Y8234500I51000J0D01*
G01*
X22001100Y8234500D01*
G75*
G02*
X22052100Y8183500I0J-51000D01*
G01*
X22052100Y7183500D01*
G75*
G02*
X22001100Y7132500I-51000J0D01*
G01*
G37*
G36*
G01*
X5976800Y38933500D02*
X5976800Y39933500D01*
G75*
G02*
X6027800Y39984500I51000J0D01*
G01*
X7027800Y39984500D01*
G75*
G02*
X7078800Y39933500I0J-51000D01*
G01*
X7078800Y38933500D01*
G75*
G02*
X7027800Y38882500I-51000J0D01*
G01*
X6027800Y38882500D01*
G75*
G02*
X5976800Y38933500I0J51000D01*
G01*
G37*
D13*
X55524400Y21691600D03*
X52984400Y21691600D03*
X55524400Y24231600D03*
X52984400Y24231600D03*
X55524400Y26771600D03*
X52984400Y26771600D03*
X55524400Y29311600D03*
X52984400Y29311600D03*
X55524400Y31851600D03*
X52984400Y31851600D03*
X55524400Y34391600D03*
X52984400Y34391600D03*
X55524400Y36931600D03*
X52984400Y36931600D03*
X55524400Y39471600D03*
X52984400Y39471600D03*
X46355000Y10160000D03*
X48895000Y10160000D03*
X51435000Y10160000D03*
X53975000Y10160000D03*
X56515000Y10160000D03*
G36*
G01*
X59906000Y10960000D02*
X59906000Y9360000D01*
G75*
G02*
X59855000Y9309000I-51000J0D01*
G01*
X58255000Y9309000D01*
G75*
G02*
X58204000Y9360000I0J51000D01*
G01*
X58204000Y10960000D01*
G75*
G02*
X58255000Y11011000I51000J0D01*
G01*
X59855000Y11011000D01*
G75*
G02*
X59906000Y10960000I0J-51000D01*
G01*
G37*
X43180000Y10160000D03*
X40640000Y10160000D03*
X38100000Y10160000D03*
X35560000Y10160000D03*
X33020000Y10160000D03*
G36*
G01*
X29629000Y9360000D02*
X29629000Y10960000D01*
G75*
G02*
X29680000Y11011000I51000J0D01*
G01*
X31280000Y11011000D01*
G75*
G02*
X31331000Y10960000I0J-51000D01*
G01*
X31331000Y9360000D01*
G75*
G02*
X31280000Y9309000I-51000J0D01*
G01*
X29680000Y9309000D01*
G75*
G02*
X29629000Y9360000I0J51000D01*
G01*
G37*
X21336000Y40640000D03*
X23876000Y40640000D03*
X26416000Y40640000D03*
X28956000Y40640000D03*
X31496000Y40640000D03*
G36*
G01*
X34887000Y41440000D02*
X34887000Y39840000D01*
G75*
G02*
X34836000Y39789000I-51000J0D01*
G01*
X33236000Y39789000D01*
G75*
G02*
X33185000Y39840000I0J51000D01*
G01*
X33185000Y41440000D01*
G75*
G02*
X33236000Y41491000I51000J0D01*
G01*
X34836000Y41491000D01*
G75*
G02*
X34887000Y41440000I0J-51000D01*
G01*
G37*
D14*
X13365600Y15544800D03*
G36*
G01*
X17816600Y16444800D02*
X17816600Y14644800D01*
G75*
G02*
X17765600Y14593800I-51000J0D01*
G01*
X15965600Y14593800D01*
G75*
G02*
X15914600Y14644800I0J51000D01*
G01*
X15914600Y16444800D01*
G75*
G02*
X15965600Y16495800I51000J0D01*
G01*
X17765600Y16495800D01*
G75*
G02*
X17816600Y16444800I0J-51000D01*
G01*
G37*
M02*
