M48
; DRILL file {KiCad (5.1.10-1-10_14)} date Sunday, March 19, 2023 at 01:08:59 PM
; FORMAT={-:-/ absolute / inch / decimal}
; #@! TF.CreationDate,2023-03-19T13:08:59-07:00
; #@! TF.GenerationSoftware,Kicad,Pcbnew,(5.1.10-1-10_14)
FMAT,2
INCH
T1C0.0079
T2C0.0157
T3C0.0295
T4C0.0299
T5C0.0300
T6C0.0315
T7C0.0354
T8C0.0394
T9C0.0400
T10C0.0402
T11C0.1142
%
G90
G05
T1
X6.036Y-4.227
X6.036Y-4.471
X6.036Y-4.718
T2
X4.3515Y-4.742
X4.6507Y-4.7603
X4.651Y-4.6986
X4.678Y-4.67
X4.678Y-4.732
X4.678Y-4.794
X4.6788Y-4.1304
X4.6957Y-4.1877
X4.7135Y-4.149
X4.7382Y-3.484
X4.7579Y-3.5181
X4.7705Y-4.67
X4.7705Y-4.794
X4.7725Y-4.7318
X4.778Y-3.552
X4.7959Y-4.7001
X4.7973Y-3.5863
X4.7993Y-4.7621
X4.8477Y-3.2147
X5.0711Y-3.4713
X5.0835Y-3.5087
X5.096Y-3.546
X5.1546Y-4.6176
X5.1924Y-4.5741
X5.1939Y-4.616
X5.2351Y-4.5765
X5.2785Y-5.1215
X5.3356Y-5.179
X5.3795Y-4.7877
X5.3995Y-4.3745
X5.4051Y-4.7133
X5.436Y-4.7377
X5.4385Y-4.4044
X5.466Y-4.7632
X5.4683Y-4.4301
X5.4744Y-3.413
X5.4921Y-3.8115
X5.4971Y-4.7873
X5.4989Y-4.4549
X5.5114Y-2.0886
X5.5125Y-2.0315
X5.5277Y-4.8121
X5.5296Y-4.4795
X5.5311Y-2.1453
X5.5412Y-2.059
X5.5477Y-2.5982
X5.5484Y-2.6662
X5.549Y-2.7358
X5.5608Y-4.5035
X5.561Y-4.8395
X5.5632Y-2.1148
X5.5671Y-2.7008
X5.568Y-2.632
X5.5693Y-2.1719
X6.0045Y-5.3
X6.0648Y-2.0378
X6.1041Y-2.0389
X6.1121Y-2.0775
X6.8059Y-2.5978
X6.806Y-2.666
X6.808Y-2.736
X6.8256Y-2.6319
X6.826Y-2.7
T3
X6.6209Y-3.4587
X6.6209Y-3.8648
X6.6239Y-4.2128
X6.6239Y-4.4568
X6.6239Y-4.7038
X6.6709Y-3.4587
X6.6709Y-3.8648
X6.6739Y-4.2128
X6.6739Y-4.4568
X6.6739Y-4.7038
X6.7209Y-3.4587
X6.7209Y-3.8648
X6.7239Y-4.2128
X6.7239Y-4.4568
X6.7239Y-4.7038
T4
X5.1325Y-3.6645
T5
X4.8325Y-3.6645
X4.8325Y-3.7645
X4.8325Y-3.8645
X4.8325Y-3.9645
X4.8325Y-4.0645
X4.8325Y-4.1645
X4.8325Y-4.2645
X4.8325Y-4.3645
X5.1325Y-3.7645
X5.1325Y-3.8645
X5.1325Y-3.9645
X5.1325Y-4.0645
X5.1325Y-4.1645
X5.1325Y-4.2645
X5.1325Y-4.3645
X5.152Y-4.982
X5.152Y-5.0607
X5.152Y-5.1395
X5.152Y-5.2182
X5.152Y-5.297
X5.152Y-5.3757
T6
X3.971Y-2.349
X3.971Y-2.649
X4.037Y-5.074
X4.1013Y-2.349
X4.1013Y-2.649
X4.2315Y-2.349
X4.2315Y-2.649
X4.337Y-5.074
X4.3617Y-2.349
X4.3617Y-2.649
X4.492Y-2.349
X4.492Y-2.649
X4.811Y-2.766
X4.811Y-2.8925
X4.811Y-3.019
X4.811Y-3.1455
X4.811Y-3.272
X4.843Y-4.6715
X5.111Y-2.766
X5.111Y-2.8925
X5.111Y-3.019
X5.111Y-3.1455
X5.111Y-3.272
X5.143Y-4.6715
X5.7849Y-3.4639
X5.7849Y-3.879
X6.0849Y-3.4639
X6.0849Y-3.879
X6.184Y-3.753
X6.187Y-3.346
X6.1889Y-3.533
X6.1889Y-3.9418
X6.1919Y-4.227
X6.1919Y-4.471
X6.1919Y-4.718
X6.484Y-3.753
X6.487Y-3.346
X6.4889Y-3.533
X6.4889Y-3.9418
X6.4919Y-4.227
X6.4919Y-4.471
X6.4919Y-4.718
X6.849Y-3.469
X6.849Y-3.879
X6.852Y-4.227
X6.852Y-4.471
X6.852Y-4.718
X7.149Y-3.469
X7.149Y-3.879
X7.152Y-4.227
X7.152Y-4.471
X7.152Y-4.718
T7
X3.9889Y-2.9184
X3.9889Y-3.0184
X3.9889Y-3.1184
X3.9889Y-3.2184
X3.9889Y-3.3184
X3.9889Y-3.4184
X3.9889Y-3.5184
X3.9889Y-3.6184
X3.9889Y-3.7184
X3.9889Y-3.8184
X3.9889Y-3.9184
X3.9889Y-4.0184
X3.9889Y-4.1184
X3.9889Y-4.2184
X3.9889Y-4.3184
X3.9889Y-4.4184
X3.9889Y-4.5184
X3.9889Y-4.6184
X3.9889Y-4.7184
X3.9889Y-4.8184
X4.0889Y-2.9184
X4.0889Y-3.0184
X4.0889Y-3.1184
X4.0889Y-3.2184
X4.0889Y-3.3184
X4.0889Y-3.4184
X4.0889Y-3.5184
X4.0889Y-3.6184
X4.0889Y-3.7184
X4.0889Y-3.8184
X4.0889Y-3.9184
X4.0889Y-4.0184
X4.0889Y-4.1184
X4.0889Y-4.2184
X4.0889Y-4.3184
X4.0889Y-4.4184
X4.0889Y-4.5184
X4.0889Y-4.6184
X4.0889Y-4.7184
X4.0889Y-4.8184
X4.4Y-2.919
X4.4Y-3.019
X4.4Y-3.119
X4.4Y-3.219
X4.4Y-3.319
X4.4Y-3.419
X4.4Y-3.519
X4.4Y-3.619
X4.4Y-3.719
X4.4Y-3.819
X4.4Y-3.919
X4.4Y-4.019
X4.4Y-4.119
X4.4Y-4.219
X4.4Y-4.319
X4.4Y-4.419
X4.4Y-4.519
X4.4Y-4.619
X4.4Y-4.719
X4.4Y-4.819
X4.5Y-2.919
X4.5Y-3.019
X4.5Y-3.119
X4.5Y-3.219
X4.5Y-3.319
X4.5Y-3.419
X4.5Y-3.519
X4.5Y-3.619
X4.5Y-3.719
X4.5Y-3.819
X4.5Y-3.919
X4.5Y-4.019
X4.5Y-4.119
X4.5Y-4.219
X4.5Y-4.319
X4.5Y-4.419
X4.5Y-4.519
X4.5Y-4.619
X4.5Y-4.719
X4.5Y-4.819
T8
X4.172Y-1.8927
X4.172Y-2.188
X4.272Y-1.8927
X4.272Y-2.188
X4.372Y-1.8927
X4.372Y-2.188
X4.472Y-1.8927
X4.472Y-2.188
X4.572Y-1.8927
X4.572Y-2.188
X4.672Y-1.8927
X4.672Y-2.188
X4.772Y-1.8927
X4.772Y-2.188
X4.872Y-1.8927
X4.872Y-2.188
X4.972Y-1.8927
X4.972Y-2.188
X5.072Y-1.8927
X5.072Y-2.188
X5.471Y-5.364
X5.571Y-5.364
X5.671Y-5.364
X5.771Y-5.364
X5.871Y-5.364
X5.971Y-5.364
X6.071Y-5.364
X6.171Y-5.364
T9
X4.1979Y-5.2514
X4.1979Y-5.3514
X4.3131Y-5.2521
X4.3131Y-5.3521
X4.4279Y-5.2514
X4.4279Y-5.3514
T10
X4.7075Y-5.1035
X4.7075Y-5.2035
X4.7075Y-5.3035
X4.7075Y-5.4035
X4.8075Y-5.1035
X4.8075Y-5.2035
X4.8075Y-5.3035
X4.8075Y-5.4035
X4.9075Y-5.1035
X4.9075Y-5.2035
X4.9075Y-5.3035
X4.9075Y-5.4035
X5.5173Y-1.8522
X5.5173Y-1.9522
X5.6173Y-1.8522
X5.6173Y-1.9522
X5.7173Y-1.8522
X5.7173Y-1.9522
X5.8173Y-1.8522
X5.8173Y-1.9522
X5.9173Y-1.8522
X5.9173Y-1.9522
X6.0173Y-1.8522
X6.0173Y-1.9522
X6.1173Y-1.8522
X6.1173Y-1.9522
X6.2173Y-1.8522
X6.2173Y-1.9522
X6.3173Y-1.8522
X6.3173Y-1.9522
X6.4173Y-1.8522
X6.4173Y-1.9522
T11
X3.9764Y-1.7735
X3.9764Y-5.3955
X5.6251Y-2.8397
X5.6251Y-5.1232
X7.5542Y-2.8397
X7.5542Y-5.1232
X7.5591Y-1.7735
X7.5591Y-5.3955
T0
M30
