G04 #@! TF.GenerationSoftware,KiCad,Pcbnew,(5.1.10-1-10_14)*
G04 #@! TF.CreationDate,2023-03-19T13:08:02-07:00*
G04 #@! TF.ProjectId,Control_Boards,436f6e74-726f-46c5-9f42-6f617264732e,rev?*
G04 #@! TF.SameCoordinates,Original*
G04 #@! TF.FileFunction,Soldermask,Bot*
G04 #@! TF.FilePolarity,Negative*
%FSLAX46Y46*%
G04 Gerber Fmt 4.6, Leading zero omitted, Abs format (unit mm)*
G04 Created by KiCad (PCBNEW (5.1.10-1-10_14)) date 2023-03-19 13:08:02*
%MOMM*%
%LPD*%
G01*
G04 APERTURE LIST*
%ADD10C,1.524000*%
%ADD11C,1.670000*%
%ADD12R,1.670000X1.670000*%
%ADD13C,4.600000*%
%ADD14C,1.600000*%
%ADD15O,1.600000X1.600000*%
%ADD16O,1.050000X1.500000*%
%ADD17R,1.050000X1.500000*%
%ADD18C,1.778000*%
%ADD19R,1.778000X1.778000*%
%ADD20R,1.524000X1.524000*%
%ADD21R,1.700000X1.700000*%
%ADD22O,1.700000X1.700000*%
%ADD23R,1.300000X1.300000*%
%ADD24R,1.600000X1.600000*%
G04 APERTURE END LIST*
D10*
X114300000Y-122402600D03*
X111760000Y-122402600D03*
X114300000Y-119862600D03*
X111760000Y-119862600D03*
X114300000Y-117322600D03*
X111760000Y-117322600D03*
X114300000Y-114782600D03*
X111760000Y-114782600D03*
X114300000Y-112242600D03*
X111760000Y-112242600D03*
X114300000Y-109702600D03*
X111760000Y-109702600D03*
X114300000Y-107162600D03*
X111760000Y-107162600D03*
X114300000Y-104622600D03*
X111760000Y-104622600D03*
X114300000Y-102082600D03*
X111760000Y-102082600D03*
X114300000Y-99542600D03*
X111760000Y-99542600D03*
X114300000Y-97002600D03*
X111760000Y-97002600D03*
X114300000Y-94462600D03*
X111760000Y-94462600D03*
X114300000Y-91922600D03*
X111760000Y-91922600D03*
X114300000Y-89382600D03*
X111760000Y-89382600D03*
X114300000Y-86842600D03*
X111760000Y-86842600D03*
X114300000Y-84302600D03*
X111760000Y-84302600D03*
X114300000Y-81762600D03*
X111760000Y-81762600D03*
X114300000Y-79222600D03*
X111760000Y-79222600D03*
X114300000Y-76682600D03*
X111760000Y-76682600D03*
X114300000Y-74142600D03*
X111760000Y-74142600D03*
X103859000Y-122388300D03*
X101319000Y-122388300D03*
X103859000Y-119848300D03*
X101319000Y-119848300D03*
X103859000Y-117308300D03*
X101319000Y-117308300D03*
X103859000Y-114768300D03*
X101319000Y-114768300D03*
X103859000Y-112228300D03*
X101319000Y-112228300D03*
X103859000Y-109688300D03*
X101319000Y-109688300D03*
X103859000Y-107148300D03*
X101319000Y-107148300D03*
X103859000Y-104608300D03*
X101319000Y-104608300D03*
X103859000Y-102068300D03*
X101319000Y-102068300D03*
X103859000Y-99528300D03*
X101319000Y-99528300D03*
X103859000Y-96988300D03*
X101319000Y-96988300D03*
X103859000Y-94448300D03*
X101319000Y-94448300D03*
X103859000Y-91908300D03*
X101319000Y-91908300D03*
X103859000Y-89368300D03*
X101319000Y-89368300D03*
X103859000Y-86828300D03*
X101319000Y-86828300D03*
X103859000Y-84288300D03*
X101319000Y-84288300D03*
X103859000Y-81748300D03*
X101319000Y-81748300D03*
X103859000Y-79208300D03*
X101319000Y-79208300D03*
X103859000Y-76668300D03*
X101319000Y-76668300D03*
X103859000Y-74128300D03*
X101319000Y-74128300D03*
D11*
X105968800Y-48075200D03*
X108508800Y-48075200D03*
X111048800Y-48075200D03*
X113588800Y-48075200D03*
X116128800Y-48075200D03*
X118668800Y-48075200D03*
X121208800Y-48075200D03*
X123748800Y-48075200D03*
X126288800Y-48075200D03*
X128828800Y-48075200D03*
D12*
X105968800Y-55575200D03*
D11*
X108508800Y-55575200D03*
X111048800Y-55575200D03*
X113588800Y-55575200D03*
X116128800Y-55575200D03*
X118668800Y-55575200D03*
X121208800Y-55575200D03*
X123748800Y-55575200D03*
X126288800Y-55575200D03*
X128828800Y-55575200D03*
D13*
X101000600Y-137046400D03*
X192000600Y-137046400D03*
X192000600Y-45046400D03*
X101000600Y-45046400D03*
D14*
X164893083Y-119837200D03*
D15*
X157273083Y-119837200D03*
D14*
X164893083Y-113563400D03*
D15*
X157273083Y-113563400D03*
D14*
X164893083Y-107365800D03*
D15*
X157273083Y-107365800D03*
D14*
X122199400Y-70256400D03*
D15*
X129819400Y-70256400D03*
D14*
X122199400Y-73469500D03*
D15*
X129819400Y-73469500D03*
D14*
X122199400Y-76682600D03*
D15*
X129819400Y-76682600D03*
D14*
X122199400Y-79895700D03*
D15*
X129819400Y-79895700D03*
D14*
X122199400Y-83108800D03*
D15*
X129819400Y-83108800D03*
D14*
X100863400Y-67284600D03*
D15*
X100863400Y-59664600D03*
D14*
X181660800Y-119837200D03*
D15*
X174040800Y-119837200D03*
D14*
X181660800Y-113563400D03*
D15*
X174040800Y-113563400D03*
D14*
X123012200Y-118656100D03*
D15*
X130632200Y-118656100D03*
D16*
X169515883Y-119477200D03*
X170785883Y-119477200D03*
D17*
X168245883Y-119477200D03*
D16*
X169515883Y-113203400D03*
X170785883Y-113203400D03*
D17*
X168245883Y-113203400D03*
D16*
X169515883Y-107005800D03*
X170785883Y-107005800D03*
D17*
X168245883Y-107005800D03*
D18*
X106627600Y-135926500D03*
D19*
X106627600Y-133386500D03*
D18*
X109551599Y-135943901D03*
D19*
X109551599Y-133403901D03*
D18*
X112469600Y-135926500D03*
D19*
X112469600Y-133386500D03*
D12*
X163000600Y-47046400D03*
D11*
X163000600Y-49586400D03*
X160460600Y-47046400D03*
X160460600Y-49586400D03*
X157920600Y-47046400D03*
X157920600Y-49586400D03*
X155380600Y-47046400D03*
X155380600Y-49586400D03*
X152840600Y-47046400D03*
X152840600Y-49586400D03*
X150300600Y-47046400D03*
X150300600Y-49586400D03*
X147760600Y-47046400D03*
X147760600Y-49586400D03*
X145220600Y-47046400D03*
X145220600Y-49586400D03*
X142680600Y-47046400D03*
X142680600Y-49586400D03*
X140140600Y-47046400D03*
X140140600Y-49586400D03*
D10*
X130860800Y-126542800D03*
X130860800Y-128542800D03*
X130860800Y-130542800D03*
X130860800Y-132542800D03*
X130860800Y-134542800D03*
X130860800Y-136542800D03*
D11*
X122110500Y-137248900D03*
D20*
X119570500Y-137248900D03*
D11*
X124650500Y-137248900D03*
X119570500Y-134708900D03*
X122110500Y-134708900D03*
X124650500Y-134708900D03*
X119570500Y-132168900D03*
X122110500Y-132168900D03*
X124650500Y-132168900D03*
X119570500Y-129628900D03*
X122110500Y-129628900D03*
X124650500Y-129628900D03*
D20*
X153314400Y-119837200D03*
X153314400Y-113563400D03*
X153314400Y-107365800D03*
D21*
X156743400Y-136245600D03*
D22*
X154203400Y-136245600D03*
X151663400Y-136245600D03*
X149123400Y-136245600D03*
X146583400Y-136245600D03*
X144043400Y-136245600D03*
X141503400Y-136245600D03*
X138963400Y-136245600D03*
D10*
X122745500Y-110858300D03*
X130365500Y-110858300D03*
X122745500Y-108318300D03*
X130365500Y-108318300D03*
X122745500Y-105778300D03*
X130365500Y-105778300D03*
X122745500Y-103238300D03*
X130365500Y-103238300D03*
X122745500Y-100698300D03*
X130365500Y-100698300D03*
X122745500Y-98158300D03*
X130365500Y-98158300D03*
X122745500Y-95618300D03*
X130365500Y-95618300D03*
X122745500Y-93078300D03*
D23*
X130365500Y-93078300D03*
D14*
X104171750Y-67284600D03*
D15*
X104171750Y-59664600D03*
D14*
X107480100Y-67284600D03*
D15*
X107480100Y-59664600D03*
D14*
X110788450Y-67284600D03*
D15*
X110788450Y-59664600D03*
D14*
X114096800Y-67284600D03*
D15*
X114096800Y-59664600D03*
D14*
X181584600Y-98526600D03*
D15*
X173964600Y-98526600D03*
D14*
X181584600Y-88112600D03*
D15*
X173964600Y-88112600D03*
D13*
X191876800Y-130129400D03*
X142876800Y-130129400D03*
X142876800Y-72129400D03*
X191876800Y-72129400D03*
D24*
X146935283Y-87983099D03*
D15*
X154555283Y-87983099D03*
D24*
X146935283Y-98526600D03*
D15*
X154555283Y-98526600D03*
D16*
X169439683Y-87851699D03*
X170709683Y-87851699D03*
D17*
X168169683Y-87851699D03*
D16*
X169439683Y-98166600D03*
X170709683Y-98166600D03*
D17*
X168169683Y-98166600D03*
D14*
X164816883Y-89738200D03*
D15*
X157196883Y-89738200D03*
D14*
X164816883Y-100121484D03*
D15*
X157196883Y-100121484D03*
D14*
X181660800Y-107365800D03*
D15*
X174040800Y-107365800D03*
D14*
X164769800Y-84988400D03*
D15*
X157149800Y-84988400D03*
D14*
X164693600Y-95326200D03*
D15*
X157073600Y-95326200D03*
D14*
X102539800Y-128879600D03*
D15*
X110159800Y-128879600D03*
M02*
