G04 #@! TF.GenerationSoftware,KiCad,Pcbnew,(5.1.10-1-10_14)*
G04 #@! TF.CreationDate,2023-03-19T13:08:02-07:00*
G04 #@! TF.ProjectId,Control_Boards,436f6e74-726f-46c5-9f42-6f617264732e,rev?*
G04 #@! TF.SameCoordinates,Original*
G04 #@! TF.FileFunction,Legend,Top*
G04 #@! TF.FilePolarity,Positive*
%FSLAX46Y46*%
G04 Gerber Fmt 4.6, Leading zero omitted, Abs format (unit mm)*
G04 Created by KiCad (PCBNEW (5.1.10-1-10_14)) date 2023-03-19 13:08:02*
%MOMM*%
%LPD*%
G01*
G04 APERTURE LIST*
%ADD10C,0.250000*%
%ADD11C,0.150000*%
%ADD12C,0.200000*%
%ADD13C,0.120000*%
%ADD14C,0.152400*%
%ADD15C,0.500000*%
G04 APERTURE END LIST*
D10*
X118046514Y-59044057D02*
X118260800Y-59115485D01*
X118332228Y-59186914D01*
X118403657Y-59329771D01*
X118403657Y-59544057D01*
X118332228Y-59686914D01*
X118260800Y-59758342D01*
X118117942Y-59829771D01*
X117546514Y-59829771D01*
X117546514Y-58329771D01*
X118046514Y-58329771D01*
X118189371Y-58401200D01*
X118260800Y-58472628D01*
X118332228Y-58615485D01*
X118332228Y-58758342D01*
X118260800Y-58901200D01*
X118189371Y-58972628D01*
X118046514Y-59044057D01*
X117546514Y-59044057D01*
X119046514Y-59829771D02*
X119046514Y-58829771D01*
X119046514Y-59115485D02*
X119117942Y-58972628D01*
X119189371Y-58901200D01*
X119332228Y-58829771D01*
X119475085Y-58829771D01*
X120617942Y-59829771D02*
X120617942Y-59044057D01*
X120546514Y-58901200D01*
X120403657Y-58829771D01*
X120117942Y-58829771D01*
X119975085Y-58901200D01*
X120617942Y-59758342D02*
X120475085Y-59829771D01*
X120117942Y-59829771D01*
X119975085Y-59758342D01*
X119903657Y-59615485D01*
X119903657Y-59472628D01*
X119975085Y-59329771D01*
X120117942Y-59258342D01*
X120475085Y-59258342D01*
X120617942Y-59186914D01*
X121332228Y-59829771D02*
X121332228Y-58829771D01*
X121332228Y-58329771D02*
X121260800Y-58401200D01*
X121332228Y-58472628D01*
X121403657Y-58401200D01*
X121332228Y-58329771D01*
X121332228Y-58472628D01*
X122046514Y-58829771D02*
X122046514Y-59829771D01*
X122046514Y-58972628D02*
X122117942Y-58901200D01*
X122260800Y-58829771D01*
X122475085Y-58829771D01*
X122617942Y-58901200D01*
X122689371Y-59044057D01*
X122689371Y-59829771D01*
X125046514Y-59044057D02*
X125260800Y-59115485D01*
X125332228Y-59186914D01*
X125403657Y-59329771D01*
X125403657Y-59544057D01*
X125332228Y-59686914D01*
X125260800Y-59758342D01*
X125117942Y-59829771D01*
X124546514Y-59829771D01*
X124546514Y-58329771D01*
X125046514Y-58329771D01*
X125189371Y-58401200D01*
X125260800Y-58472628D01*
X125332228Y-58615485D01*
X125332228Y-58758342D01*
X125260800Y-58901200D01*
X125189371Y-58972628D01*
X125046514Y-59044057D01*
X124546514Y-59044057D01*
X126260800Y-59829771D02*
X126117942Y-59758342D01*
X126046514Y-59686914D01*
X125975085Y-59544057D01*
X125975085Y-59115485D01*
X126046514Y-58972628D01*
X126117942Y-58901200D01*
X126260800Y-58829771D01*
X126475085Y-58829771D01*
X126617942Y-58901200D01*
X126689371Y-58972628D01*
X126760800Y-59115485D01*
X126760800Y-59544057D01*
X126689371Y-59686914D01*
X126617942Y-59758342D01*
X126475085Y-59829771D01*
X126260800Y-59829771D01*
X128046514Y-59829771D02*
X128046514Y-59044057D01*
X127975085Y-58901200D01*
X127832228Y-58829771D01*
X127546514Y-58829771D01*
X127403657Y-58901200D01*
X128046514Y-59758342D02*
X127903657Y-59829771D01*
X127546514Y-59829771D01*
X127403657Y-59758342D01*
X127332228Y-59615485D01*
X127332228Y-59472628D01*
X127403657Y-59329771D01*
X127546514Y-59258342D01*
X127903657Y-59258342D01*
X128046514Y-59186914D01*
X128760800Y-59829771D02*
X128760800Y-58829771D01*
X128760800Y-59115485D02*
X128832228Y-58972628D01*
X128903657Y-58901200D01*
X129046514Y-58829771D01*
X129189371Y-58829771D01*
X130332228Y-59829771D02*
X130332228Y-58329771D01*
X130332228Y-59758342D02*
X130189371Y-59829771D01*
X129903657Y-59829771D01*
X129760800Y-59758342D01*
X129689371Y-59686914D01*
X129617942Y-59544057D01*
X129617942Y-59115485D01*
X129689371Y-58972628D01*
X129760800Y-58901200D01*
X129903657Y-58829771D01*
X130189371Y-58829771D01*
X130332228Y-58901200D01*
X122939371Y-62329771D02*
X122225085Y-62329771D01*
X122225085Y-60829771D01*
X123439371Y-61544057D02*
X123939371Y-61544057D01*
X124153657Y-62329771D02*
X123439371Y-62329771D01*
X123439371Y-60829771D01*
X124153657Y-60829771D01*
X124796514Y-62329771D02*
X124796514Y-60829771D01*
X125153657Y-60829771D01*
X125367942Y-60901200D01*
X125510800Y-61044057D01*
X125582228Y-61186914D01*
X125653657Y-61472628D01*
X125653657Y-61686914D01*
X125582228Y-61972628D01*
X125510800Y-62115485D01*
X125367942Y-62258342D01*
X125153657Y-62329771D01*
X124796514Y-62329771D01*
X126225085Y-62258342D02*
X126367942Y-62329771D01*
X126653657Y-62329771D01*
X126796514Y-62258342D01*
X126867942Y-62115485D01*
X126867942Y-62044057D01*
X126796514Y-61901200D01*
X126653657Y-61829771D01*
X126439371Y-61829771D01*
X126296514Y-61758342D01*
X126225085Y-61615485D01*
X126225085Y-61544057D01*
X126296514Y-61401200D01*
X126439371Y-61329771D01*
X126653657Y-61329771D01*
X126796514Y-61401200D01*
D11*
X153038504Y-41686176D02*
X153276600Y-41686176D01*
X153395647Y-41745700D01*
X153514695Y-41864747D01*
X153574219Y-42102842D01*
X153574219Y-42519509D01*
X153514695Y-42757604D01*
X153395647Y-42876652D01*
X153276600Y-42936176D01*
X153038504Y-42936176D01*
X152919457Y-42876652D01*
X152800409Y-42757604D01*
X152740885Y-42519509D01*
X152740885Y-42102842D01*
X152800409Y-41864747D01*
X152919457Y-41745700D01*
X153038504Y-41686176D01*
X154109933Y-42102842D02*
X154109933Y-43352842D01*
X154109933Y-42162366D02*
X154228980Y-42102842D01*
X154467076Y-42102842D01*
X154586123Y-42162366D01*
X154645647Y-42221890D01*
X154705171Y-42340938D01*
X154705171Y-42698080D01*
X154645647Y-42817128D01*
X154586123Y-42876652D01*
X154467076Y-42936176D01*
X154228980Y-42936176D01*
X154109933Y-42876652D01*
X155717076Y-42876652D02*
X155598028Y-42936176D01*
X155359933Y-42936176D01*
X155240885Y-42876652D01*
X155181361Y-42757604D01*
X155181361Y-42281414D01*
X155240885Y-42162366D01*
X155359933Y-42102842D01*
X155598028Y-42102842D01*
X155717076Y-42162366D01*
X155776600Y-42281414D01*
X155776600Y-42400461D01*
X155181361Y-42519509D01*
X156312314Y-42102842D02*
X156312314Y-42936176D01*
X156312314Y-42221890D02*
X156371838Y-42162366D01*
X156490885Y-42102842D01*
X156669457Y-42102842D01*
X156788504Y-42162366D01*
X156848028Y-42281414D01*
X156848028Y-42936176D01*
X158336123Y-42876652D02*
X158514695Y-42936176D01*
X158812314Y-42936176D01*
X158931361Y-42876652D01*
X158990885Y-42817128D01*
X159050409Y-42698080D01*
X159050409Y-42579033D01*
X158990885Y-42459985D01*
X158931361Y-42400461D01*
X158812314Y-42340938D01*
X158574219Y-42281414D01*
X158455171Y-42221890D01*
X158395647Y-42162366D01*
X158336123Y-42043319D01*
X158336123Y-41924271D01*
X158395647Y-41805223D01*
X158455171Y-41745700D01*
X158574219Y-41686176D01*
X158871838Y-41686176D01*
X159050409Y-41745700D01*
X159764695Y-42936176D02*
X159645647Y-42876652D01*
X159586123Y-42817128D01*
X159526600Y-42698080D01*
X159526600Y-42340938D01*
X159586123Y-42221890D01*
X159645647Y-42162366D01*
X159764695Y-42102842D01*
X159943266Y-42102842D01*
X160062314Y-42162366D01*
X160121838Y-42221890D01*
X160181361Y-42340938D01*
X160181361Y-42698080D01*
X160121838Y-42817128D01*
X160062314Y-42876652D01*
X159943266Y-42936176D01*
X159764695Y-42936176D01*
X161252790Y-42102842D02*
X161252790Y-42936176D01*
X160717076Y-42102842D02*
X160717076Y-42757604D01*
X160776600Y-42876652D01*
X160895647Y-42936176D01*
X161074219Y-42936176D01*
X161193266Y-42876652D01*
X161252790Y-42817128D01*
X161848028Y-42936176D02*
X161848028Y-42102842D01*
X161848028Y-42340938D02*
X161907552Y-42221890D01*
X161967076Y-42162366D01*
X162086123Y-42102842D01*
X162205171Y-42102842D01*
X163157552Y-42876652D02*
X163038504Y-42936176D01*
X162800409Y-42936176D01*
X162681361Y-42876652D01*
X162621838Y-42817128D01*
X162562314Y-42698080D01*
X162562314Y-42340938D01*
X162621838Y-42221890D01*
X162681361Y-42162366D01*
X162800409Y-42102842D01*
X163038504Y-42102842D01*
X163157552Y-42162366D01*
X164169457Y-42876652D02*
X164050409Y-42936176D01*
X163812314Y-42936176D01*
X163693266Y-42876652D01*
X163633742Y-42757604D01*
X163633742Y-42281414D01*
X163693266Y-42162366D01*
X163812314Y-42102842D01*
X164050409Y-42102842D01*
X164169457Y-42162366D01*
X164228980Y-42281414D01*
X164228980Y-42400461D01*
X163633742Y-42519509D01*
X166431361Y-42936176D02*
X166014695Y-42340938D01*
X165717076Y-42936176D02*
X165717076Y-41686176D01*
X166193266Y-41686176D01*
X166312314Y-41745700D01*
X166371838Y-41805223D01*
X166431361Y-41924271D01*
X166431361Y-42102842D01*
X166371838Y-42221890D01*
X166312314Y-42281414D01*
X166193266Y-42340938D01*
X165717076Y-42340938D01*
X167145647Y-42936176D02*
X167026600Y-42876652D01*
X166967076Y-42817128D01*
X166907552Y-42698080D01*
X166907552Y-42340938D01*
X166967076Y-42221890D01*
X167026600Y-42162366D01*
X167145647Y-42102842D01*
X167324219Y-42102842D01*
X167443266Y-42162366D01*
X167502790Y-42221890D01*
X167562314Y-42340938D01*
X167562314Y-42698080D01*
X167502790Y-42817128D01*
X167443266Y-42876652D01*
X167324219Y-42936176D01*
X167145647Y-42936176D01*
X167978980Y-42102842D02*
X168276600Y-42936176D01*
X168574219Y-42102842D01*
X169526600Y-42876652D02*
X169407552Y-42936176D01*
X169169457Y-42936176D01*
X169050409Y-42876652D01*
X168990885Y-42757604D01*
X168990885Y-42281414D01*
X169050409Y-42162366D01*
X169169457Y-42102842D01*
X169407552Y-42102842D01*
X169526600Y-42162366D01*
X169586123Y-42281414D01*
X169586123Y-42400461D01*
X168990885Y-42519509D01*
X170121838Y-42936176D02*
X170121838Y-42102842D01*
X170121838Y-42340938D02*
X170181361Y-42221890D01*
X170240885Y-42162366D01*
X170359933Y-42102842D01*
X170478980Y-42102842D01*
X139318266Y-44961176D02*
X138901600Y-44365938D01*
X138603980Y-44961176D02*
X138603980Y-43711176D01*
X139080171Y-43711176D01*
X139199219Y-43770700D01*
X139258742Y-43830223D01*
X139318266Y-43949271D01*
X139318266Y-44127842D01*
X139258742Y-44246890D01*
X139199219Y-44306414D01*
X139080171Y-44365938D01*
X138603980Y-44365938D01*
X140032552Y-44961176D02*
X139913504Y-44901652D01*
X139853980Y-44842128D01*
X139794457Y-44723080D01*
X139794457Y-44365938D01*
X139853980Y-44246890D01*
X139913504Y-44187366D01*
X140032552Y-44127842D01*
X140211123Y-44127842D01*
X140330171Y-44187366D01*
X140389695Y-44246890D01*
X140449219Y-44365938D01*
X140449219Y-44723080D01*
X140389695Y-44842128D01*
X140330171Y-44901652D01*
X140211123Y-44961176D01*
X140032552Y-44961176D01*
X140984933Y-44961176D02*
X140984933Y-43711176D01*
X140984933Y-44187366D02*
X141103980Y-44127842D01*
X141342076Y-44127842D01*
X141461123Y-44187366D01*
X141520647Y-44246890D01*
X141580171Y-44365938D01*
X141580171Y-44723080D01*
X141520647Y-44842128D01*
X141461123Y-44901652D01*
X141342076Y-44961176D01*
X141103980Y-44961176D01*
X140984933Y-44901652D01*
X142294457Y-44961176D02*
X142175409Y-44901652D01*
X142115885Y-44842128D01*
X142056361Y-44723080D01*
X142056361Y-44365938D01*
X142115885Y-44246890D01*
X142175409Y-44187366D01*
X142294457Y-44127842D01*
X142473028Y-44127842D01*
X142592076Y-44187366D01*
X142651600Y-44246890D01*
X142711123Y-44365938D01*
X142711123Y-44723080D01*
X142651600Y-44842128D01*
X142592076Y-44901652D01*
X142473028Y-44961176D01*
X142294457Y-44961176D01*
X143068266Y-44127842D02*
X143544457Y-44127842D01*
X143246838Y-43711176D02*
X143246838Y-44782604D01*
X143306361Y-44901652D01*
X143425409Y-44961176D01*
X143544457Y-44961176D01*
X143961123Y-44961176D02*
X143961123Y-44127842D01*
X143961123Y-43711176D02*
X143901600Y-43770700D01*
X143961123Y-43830223D01*
X144020647Y-43770700D01*
X143961123Y-43711176D01*
X143961123Y-43830223D01*
X145092076Y-44901652D02*
X144973028Y-44961176D01*
X144734933Y-44961176D01*
X144615885Y-44901652D01*
X144556361Y-44842128D01*
X144496838Y-44723080D01*
X144496838Y-44365938D01*
X144556361Y-44246890D01*
X144615885Y-44187366D01*
X144734933Y-44127842D01*
X144973028Y-44127842D01*
X145092076Y-44187366D01*
X146996838Y-44306414D02*
X147175409Y-44365938D01*
X147234933Y-44425461D01*
X147294457Y-44544509D01*
X147294457Y-44723080D01*
X147234933Y-44842128D01*
X147175409Y-44901652D01*
X147056361Y-44961176D01*
X146580171Y-44961176D01*
X146580171Y-43711176D01*
X146996838Y-43711176D01*
X147115885Y-43770700D01*
X147175409Y-43830223D01*
X147234933Y-43949271D01*
X147234933Y-44068319D01*
X147175409Y-44187366D01*
X147115885Y-44246890D01*
X146996838Y-44306414D01*
X146580171Y-44306414D01*
X147830171Y-44961176D02*
X147830171Y-44127842D01*
X147830171Y-44365938D02*
X147889695Y-44246890D01*
X147949219Y-44187366D01*
X148068266Y-44127842D01*
X148187314Y-44127842D01*
X149080171Y-44901652D02*
X148961123Y-44961176D01*
X148723028Y-44961176D01*
X148603980Y-44901652D01*
X148544457Y-44782604D01*
X148544457Y-44306414D01*
X148603980Y-44187366D01*
X148723028Y-44127842D01*
X148961123Y-44127842D01*
X149080171Y-44187366D01*
X149139695Y-44306414D01*
X149139695Y-44425461D01*
X148544457Y-44544509D01*
X150211123Y-44961176D02*
X150211123Y-44306414D01*
X150151600Y-44187366D01*
X150032552Y-44127842D01*
X149794457Y-44127842D01*
X149675409Y-44187366D01*
X150211123Y-44901652D02*
X150092076Y-44961176D01*
X149794457Y-44961176D01*
X149675409Y-44901652D01*
X149615885Y-44782604D01*
X149615885Y-44663557D01*
X149675409Y-44544509D01*
X149794457Y-44484985D01*
X150092076Y-44484985D01*
X150211123Y-44425461D01*
X150806361Y-44961176D02*
X150806361Y-43711176D01*
X150925409Y-44484985D02*
X151282552Y-44961176D01*
X151282552Y-44127842D02*
X150806361Y-44604033D01*
X151996838Y-44961176D02*
X151877790Y-44901652D01*
X151818266Y-44842128D01*
X151758742Y-44723080D01*
X151758742Y-44365938D01*
X151818266Y-44246890D01*
X151877790Y-44187366D01*
X151996838Y-44127842D01*
X152175409Y-44127842D01*
X152294457Y-44187366D01*
X152353980Y-44246890D01*
X152413504Y-44365938D01*
X152413504Y-44723080D01*
X152353980Y-44842128D01*
X152294457Y-44901652D01*
X152175409Y-44961176D01*
X151996838Y-44961176D01*
X153484933Y-44127842D02*
X153484933Y-44961176D01*
X152949219Y-44127842D02*
X152949219Y-44782604D01*
X153008742Y-44901652D01*
X153127790Y-44961176D01*
X153306361Y-44961176D01*
X153425409Y-44901652D01*
X153484933Y-44842128D01*
X153901600Y-44127842D02*
X154377790Y-44127842D01*
X154080171Y-43711176D02*
X154080171Y-44782604D01*
X154139695Y-44901652D01*
X154258742Y-44961176D01*
X154377790Y-44961176D01*
X156163504Y-44306414D02*
X156342076Y-44365938D01*
X156401600Y-44425461D01*
X156461123Y-44544509D01*
X156461123Y-44723080D01*
X156401600Y-44842128D01*
X156342076Y-44901652D01*
X156223028Y-44961176D01*
X155746838Y-44961176D01*
X155746838Y-43711176D01*
X156163504Y-43711176D01*
X156282552Y-43770700D01*
X156342076Y-43830223D01*
X156401600Y-43949271D01*
X156401600Y-44068319D01*
X156342076Y-44187366D01*
X156282552Y-44246890D01*
X156163504Y-44306414D01*
X155746838Y-44306414D01*
X157175409Y-44961176D02*
X157056361Y-44901652D01*
X156996838Y-44842128D01*
X156937314Y-44723080D01*
X156937314Y-44365938D01*
X156996838Y-44246890D01*
X157056361Y-44187366D01*
X157175409Y-44127842D01*
X157353980Y-44127842D01*
X157473028Y-44187366D01*
X157532552Y-44246890D01*
X157592076Y-44365938D01*
X157592076Y-44723080D01*
X157532552Y-44842128D01*
X157473028Y-44901652D01*
X157353980Y-44961176D01*
X157175409Y-44961176D01*
X158663504Y-44961176D02*
X158663504Y-44306414D01*
X158603980Y-44187366D01*
X158484933Y-44127842D01*
X158246838Y-44127842D01*
X158127790Y-44187366D01*
X158663504Y-44901652D02*
X158544457Y-44961176D01*
X158246838Y-44961176D01*
X158127790Y-44901652D01*
X158068266Y-44782604D01*
X158068266Y-44663557D01*
X158127790Y-44544509D01*
X158246838Y-44484985D01*
X158544457Y-44484985D01*
X158663504Y-44425461D01*
X159258742Y-44961176D02*
X159258742Y-44127842D01*
X159258742Y-44365938D02*
X159318266Y-44246890D01*
X159377790Y-44187366D01*
X159496838Y-44127842D01*
X159615885Y-44127842D01*
X160568266Y-44961176D02*
X160568266Y-43711176D01*
X160568266Y-44901652D02*
X160449219Y-44961176D01*
X160211123Y-44961176D01*
X160092076Y-44901652D01*
X160032552Y-44842128D01*
X159973028Y-44723080D01*
X159973028Y-44365938D01*
X160032552Y-44246890D01*
X160092076Y-44187366D01*
X160211123Y-44127842D01*
X160449219Y-44127842D01*
X160568266Y-44187366D01*
X161103980Y-44901652D02*
X161223028Y-44961176D01*
X161461123Y-44961176D01*
X161580171Y-44901652D01*
X161639695Y-44782604D01*
X161639695Y-44723080D01*
X161580171Y-44604033D01*
X161461123Y-44544509D01*
X161282552Y-44544509D01*
X161163504Y-44484985D01*
X161103980Y-44365938D01*
X161103980Y-44306414D01*
X161163504Y-44187366D01*
X161282552Y-44127842D01*
X161461123Y-44127842D01*
X161580171Y-44187366D01*
X163127790Y-44484985D02*
X164080171Y-44484985D01*
X166044457Y-44306414D02*
X166223028Y-44365938D01*
X166282552Y-44425461D01*
X166342076Y-44544509D01*
X166342076Y-44723080D01*
X166282552Y-44842128D01*
X166223028Y-44901652D01*
X166103980Y-44961176D01*
X165627790Y-44961176D01*
X165627790Y-43711176D01*
X166044457Y-43711176D01*
X166163504Y-43770700D01*
X166223028Y-43830223D01*
X166282552Y-43949271D01*
X166282552Y-44068319D01*
X166223028Y-44187366D01*
X166163504Y-44246890D01*
X166044457Y-44306414D01*
X165627790Y-44306414D01*
X166877790Y-44961176D02*
X166877790Y-44127842D01*
X166877790Y-44365938D02*
X166937314Y-44246890D01*
X166996838Y-44187366D01*
X167115885Y-44127842D01*
X167234933Y-44127842D01*
X168187314Y-44961176D02*
X168187314Y-44306414D01*
X168127790Y-44187366D01*
X168008742Y-44127842D01*
X167770647Y-44127842D01*
X167651600Y-44187366D01*
X168187314Y-44901652D02*
X168068266Y-44961176D01*
X167770647Y-44961176D01*
X167651600Y-44901652D01*
X167592076Y-44782604D01*
X167592076Y-44663557D01*
X167651600Y-44544509D01*
X167770647Y-44484985D01*
X168068266Y-44484985D01*
X168187314Y-44425461D01*
X168782552Y-44961176D02*
X168782552Y-44127842D01*
X168782552Y-43711176D02*
X168723028Y-43770700D01*
X168782552Y-43830223D01*
X168842076Y-43770700D01*
X168782552Y-43711176D01*
X168782552Y-43830223D01*
X169377790Y-44127842D02*
X169377790Y-44961176D01*
X169377790Y-44246890D02*
X169437314Y-44187366D01*
X169556361Y-44127842D01*
X169734933Y-44127842D01*
X169853980Y-44187366D01*
X169913504Y-44306414D01*
X169913504Y-44961176D01*
X171877790Y-44306414D02*
X172056361Y-44365938D01*
X172115885Y-44425461D01*
X172175409Y-44544509D01*
X172175409Y-44723080D01*
X172115885Y-44842128D01*
X172056361Y-44901652D01*
X171937314Y-44961176D01*
X171461123Y-44961176D01*
X171461123Y-43711176D01*
X171877790Y-43711176D01*
X171996838Y-43770700D01*
X172056361Y-43830223D01*
X172115885Y-43949271D01*
X172115885Y-44068319D01*
X172056361Y-44187366D01*
X171996838Y-44246890D01*
X171877790Y-44306414D01*
X171461123Y-44306414D01*
X172889695Y-44961176D02*
X172770647Y-44901652D01*
X172711123Y-44842128D01*
X172651600Y-44723080D01*
X172651600Y-44365938D01*
X172711123Y-44246890D01*
X172770647Y-44187366D01*
X172889695Y-44127842D01*
X173068266Y-44127842D01*
X173187314Y-44187366D01*
X173246838Y-44246890D01*
X173306361Y-44365938D01*
X173306361Y-44723080D01*
X173246838Y-44842128D01*
X173187314Y-44901652D01*
X173068266Y-44961176D01*
X172889695Y-44961176D01*
X174377790Y-44961176D02*
X174377790Y-44306414D01*
X174318266Y-44187366D01*
X174199219Y-44127842D01*
X173961123Y-44127842D01*
X173842076Y-44187366D01*
X174377790Y-44901652D02*
X174258742Y-44961176D01*
X173961123Y-44961176D01*
X173842076Y-44901652D01*
X173782552Y-44782604D01*
X173782552Y-44663557D01*
X173842076Y-44544509D01*
X173961123Y-44484985D01*
X174258742Y-44484985D01*
X174377790Y-44425461D01*
X174973028Y-44961176D02*
X174973028Y-44127842D01*
X174973028Y-44365938D02*
X175032552Y-44246890D01*
X175092076Y-44187366D01*
X175211123Y-44127842D01*
X175330171Y-44127842D01*
X176282552Y-44961176D02*
X176282552Y-43711176D01*
X176282552Y-44901652D02*
X176163504Y-44961176D01*
X175925409Y-44961176D01*
X175806361Y-44901652D01*
X175746838Y-44842128D01*
X175687314Y-44723080D01*
X175687314Y-44365938D01*
X175746838Y-44246890D01*
X175806361Y-44187366D01*
X175925409Y-44127842D01*
X176163504Y-44127842D01*
X176282552Y-44187366D01*
X177830171Y-44484985D02*
X178782552Y-44484985D01*
X180211123Y-44127842D02*
X180508742Y-44961176D01*
X180806361Y-44127842D01*
X181223028Y-43830223D02*
X181282552Y-43770700D01*
X181401600Y-43711176D01*
X181699219Y-43711176D01*
X181818266Y-43770700D01*
X181877790Y-43830223D01*
X181937314Y-43949271D01*
X181937314Y-44068319D01*
X181877790Y-44246890D01*
X181163504Y-44961176D01*
X181937314Y-44961176D01*
X182473028Y-44842128D02*
X182532552Y-44901652D01*
X182473028Y-44961176D01*
X182413504Y-44901652D01*
X182473028Y-44842128D01*
X182473028Y-44961176D01*
X183306361Y-43711176D02*
X183425409Y-43711176D01*
X183544457Y-43770700D01*
X183603980Y-43830223D01*
X183663504Y-43949271D01*
X183723028Y-44187366D01*
X183723028Y-44484985D01*
X183663504Y-44723080D01*
X183603980Y-44842128D01*
X183544457Y-44901652D01*
X183425409Y-44961176D01*
X183306361Y-44961176D01*
X183187314Y-44901652D01*
X183127790Y-44842128D01*
X183068266Y-44723080D01*
X183008742Y-44484985D01*
X183008742Y-44187366D01*
X183068266Y-43949271D01*
X183127790Y-43830223D01*
X183187314Y-43770700D01*
X183306361Y-43711176D01*
X184258742Y-44842128D02*
X184318266Y-44901652D01*
X184258742Y-44961176D01*
X184199219Y-44901652D01*
X184258742Y-44842128D01*
X184258742Y-44961176D01*
X185508742Y-44961176D02*
X184794457Y-44961176D01*
X185151600Y-44961176D02*
X185151600Y-43711176D01*
X185032552Y-43889747D01*
X184913504Y-44008795D01*
X184794457Y-44068319D01*
X158407800Y-138093409D02*
X158522085Y-138131504D01*
X158712561Y-138131504D01*
X158788752Y-138093409D01*
X158826847Y-138055314D01*
X158864942Y-137979123D01*
X158864942Y-137902933D01*
X158826847Y-137826742D01*
X158788752Y-137788647D01*
X158712561Y-137750552D01*
X158560180Y-137712457D01*
X158483990Y-137674361D01*
X158445895Y-137636266D01*
X158407800Y-137560076D01*
X158407800Y-137483885D01*
X158445895Y-137407695D01*
X158483990Y-137369600D01*
X158560180Y-137331504D01*
X158750657Y-137331504D01*
X158864942Y-137369600D01*
X159207800Y-138131504D02*
X159207800Y-137598171D01*
X159207800Y-137331504D02*
X159169704Y-137369600D01*
X159207800Y-137407695D01*
X159245895Y-137369600D01*
X159207800Y-137331504D01*
X159207800Y-137407695D01*
X159931609Y-137598171D02*
X159931609Y-138245790D01*
X159893514Y-138321980D01*
X159855419Y-138360076D01*
X159779228Y-138398171D01*
X159664942Y-138398171D01*
X159588752Y-138360076D01*
X159931609Y-138093409D02*
X159855419Y-138131504D01*
X159703038Y-138131504D01*
X159626847Y-138093409D01*
X159588752Y-138055314D01*
X159550657Y-137979123D01*
X159550657Y-137750552D01*
X159588752Y-137674361D01*
X159626847Y-137636266D01*
X159703038Y-137598171D01*
X159855419Y-137598171D01*
X159931609Y-137636266D01*
X160312561Y-137598171D02*
X160312561Y-138131504D01*
X160312561Y-137674361D02*
X160350657Y-137636266D01*
X160426847Y-137598171D01*
X160541133Y-137598171D01*
X160617323Y-137636266D01*
X160655419Y-137712457D01*
X160655419Y-138131504D01*
X161379228Y-138131504D02*
X161379228Y-137712457D01*
X161341133Y-137636266D01*
X161264942Y-137598171D01*
X161112561Y-137598171D01*
X161036371Y-137636266D01*
X161379228Y-138093409D02*
X161303038Y-138131504D01*
X161112561Y-138131504D01*
X161036371Y-138093409D01*
X160998276Y-138017219D01*
X160998276Y-137941028D01*
X161036371Y-137864838D01*
X161112561Y-137826742D01*
X161303038Y-137826742D01*
X161379228Y-137788647D01*
X161874466Y-138131504D02*
X161798276Y-138093409D01*
X161760180Y-138017219D01*
X161760180Y-137331504D01*
X162674466Y-137331504D02*
X163131609Y-137331504D01*
X162903038Y-138131504D02*
X162903038Y-137331504D01*
X163703038Y-138093409D02*
X163626847Y-138131504D01*
X163474466Y-138131504D01*
X163398276Y-138093409D01*
X163360180Y-138017219D01*
X163360180Y-137712457D01*
X163398276Y-137636266D01*
X163474466Y-137598171D01*
X163626847Y-137598171D01*
X163703038Y-137636266D01*
X163741133Y-137712457D01*
X163741133Y-137788647D01*
X163360180Y-137864838D01*
X164045895Y-138093409D02*
X164122085Y-138131504D01*
X164274466Y-138131504D01*
X164350657Y-138093409D01*
X164388752Y-138017219D01*
X164388752Y-137979123D01*
X164350657Y-137902933D01*
X164274466Y-137864838D01*
X164160180Y-137864838D01*
X164083990Y-137826742D01*
X164045895Y-137750552D01*
X164045895Y-137712457D01*
X164083990Y-137636266D01*
X164160180Y-137598171D01*
X164274466Y-137598171D01*
X164350657Y-137636266D01*
X164617323Y-137598171D02*
X164922085Y-137598171D01*
X164731609Y-137331504D02*
X164731609Y-138017219D01*
X164769704Y-138093409D01*
X164845895Y-138131504D01*
X164922085Y-138131504D01*
X165798276Y-138131504D02*
X165798276Y-137331504D01*
X165798276Y-137712457D02*
X166255419Y-137712457D01*
X166255419Y-138131504D02*
X166255419Y-137331504D01*
X166941133Y-138093409D02*
X166864942Y-138131504D01*
X166712561Y-138131504D01*
X166636371Y-138093409D01*
X166598276Y-138017219D01*
X166598276Y-137712457D01*
X166636371Y-137636266D01*
X166712561Y-137598171D01*
X166864942Y-137598171D01*
X166941133Y-137636266D01*
X166979228Y-137712457D01*
X166979228Y-137788647D01*
X166598276Y-137864838D01*
X167664942Y-138131504D02*
X167664942Y-137712457D01*
X167626847Y-137636266D01*
X167550657Y-137598171D01*
X167398276Y-137598171D01*
X167322085Y-137636266D01*
X167664942Y-138093409D02*
X167588752Y-138131504D01*
X167398276Y-138131504D01*
X167322085Y-138093409D01*
X167283990Y-138017219D01*
X167283990Y-137941028D01*
X167322085Y-137864838D01*
X167398276Y-137826742D01*
X167588752Y-137826742D01*
X167664942Y-137788647D01*
X168388752Y-138131504D02*
X168388752Y-137331504D01*
X168388752Y-138093409D02*
X168312561Y-138131504D01*
X168160180Y-138131504D01*
X168083990Y-138093409D01*
X168045895Y-138055314D01*
X168007800Y-137979123D01*
X168007800Y-137750552D01*
X168045895Y-137674361D01*
X168083990Y-137636266D01*
X168160180Y-137598171D01*
X168312561Y-137598171D01*
X168388752Y-137636266D01*
X169074466Y-138093409D02*
X168998276Y-138131504D01*
X168845895Y-138131504D01*
X168769704Y-138093409D01*
X168731609Y-138017219D01*
X168731609Y-137712457D01*
X168769704Y-137636266D01*
X168845895Y-137598171D01*
X168998276Y-137598171D01*
X169074466Y-137636266D01*
X169112561Y-137712457D01*
X169112561Y-137788647D01*
X168731609Y-137864838D01*
X169455419Y-138131504D02*
X169455419Y-137598171D01*
X169455419Y-137750552D02*
X169493514Y-137674361D01*
X169531609Y-137636266D01*
X169607800Y-137598171D01*
X169683990Y-137598171D01*
X157013714Y-138136285D02*
X157013714Y-137707714D01*
X157013714Y-137922000D02*
X157763714Y-137922000D01*
X157656571Y-137850571D01*
X157585142Y-137779142D01*
X157549428Y-137707714D01*
X139560685Y-138028371D02*
X139596400Y-137956942D01*
X139632114Y-137921228D01*
X139703542Y-137885514D01*
X139739257Y-137885514D01*
X139810685Y-137921228D01*
X139846400Y-137956942D01*
X139882114Y-138028371D01*
X139882114Y-138171228D01*
X139846400Y-138242657D01*
X139810685Y-138278371D01*
X139739257Y-138314085D01*
X139703542Y-138314085D01*
X139632114Y-138278371D01*
X139596400Y-138242657D01*
X139560685Y-138171228D01*
X139560685Y-138028371D01*
X139524971Y-137956942D01*
X139489257Y-137921228D01*
X139417828Y-137885514D01*
X139274971Y-137885514D01*
X139203542Y-137921228D01*
X139167828Y-137956942D01*
X139132114Y-138028371D01*
X139132114Y-138171228D01*
X139167828Y-138242657D01*
X139203542Y-138278371D01*
X139274971Y-138314085D01*
X139417828Y-138314085D01*
X139489257Y-138278371D01*
X139524971Y-138242657D01*
X139560685Y-138171228D01*
X156559600Y-138087171D02*
X156595314Y-138015742D01*
X156595314Y-137908600D01*
X156559600Y-137801457D01*
X156488171Y-137730028D01*
X156416742Y-137694314D01*
X156273885Y-137658600D01*
X156166742Y-137658600D01*
X156023885Y-137694314D01*
X155952457Y-137730028D01*
X155881028Y-137801457D01*
X155845314Y-137908600D01*
X155845314Y-137980028D01*
X155881028Y-138087171D01*
X155916742Y-138122885D01*
X156166742Y-138122885D01*
X156166742Y-137980028D01*
X155845314Y-138444314D02*
X156595314Y-138444314D01*
X155845314Y-138872885D01*
X156595314Y-138872885D01*
X155845314Y-139230028D02*
X156595314Y-139230028D01*
X156595314Y-139408600D01*
X156559600Y-139515742D01*
X156488171Y-139587171D01*
X156416742Y-139622885D01*
X156273885Y-139658600D01*
X156166742Y-139658600D01*
X156023885Y-139622885D01*
X155952457Y-139587171D01*
X155881028Y-139515742D01*
X155845314Y-139408600D01*
X155845314Y-139230028D01*
X154512514Y-137948071D02*
X154512514Y-138412357D01*
X154226800Y-138162357D01*
X154226800Y-138269500D01*
X154191085Y-138340929D01*
X154155371Y-138376643D01*
X154083942Y-138412357D01*
X153905371Y-138412357D01*
X153833942Y-138376643D01*
X153798228Y-138340929D01*
X153762514Y-138269500D01*
X153762514Y-138055214D01*
X153798228Y-137983786D01*
X153833942Y-137948071D01*
X153833942Y-138733786D02*
X153798228Y-138769500D01*
X153762514Y-138733786D01*
X153798228Y-138698071D01*
X153833942Y-138733786D01*
X153762514Y-138733786D01*
X154512514Y-139019500D02*
X154512514Y-139483786D01*
X154226800Y-139233786D01*
X154226800Y-139340929D01*
X154191085Y-139412357D01*
X154155371Y-139448071D01*
X154083942Y-139483786D01*
X153905371Y-139483786D01*
X153833942Y-139448071D01*
X153798228Y-139412357D01*
X153762514Y-139340929D01*
X153762514Y-139126643D01*
X153798228Y-139055214D01*
X153833942Y-139019500D01*
X154512514Y-139698071D02*
X153762514Y-139948071D01*
X154512514Y-140198071D01*
X151982674Y-138376643D02*
X151982674Y-138019500D01*
X151625531Y-137983786D01*
X151661245Y-138019500D01*
X151696960Y-138090929D01*
X151696960Y-138269500D01*
X151661245Y-138340929D01*
X151625531Y-138376643D01*
X151554102Y-138412357D01*
X151375531Y-138412357D01*
X151304102Y-138376643D01*
X151268388Y-138340929D01*
X151232674Y-138269500D01*
X151232674Y-138090929D01*
X151268388Y-138019500D01*
X151304102Y-137983786D01*
X151982674Y-138626643D02*
X151232674Y-138876643D01*
X151982674Y-139126643D01*
X148702834Y-138412357D02*
X148702834Y-137983786D01*
X148702834Y-138198071D02*
X149452834Y-138198071D01*
X149345691Y-138126643D01*
X149274262Y-138055214D01*
X149238548Y-137983786D01*
X149381405Y-138698071D02*
X149417120Y-138733786D01*
X149452834Y-138805214D01*
X149452834Y-138983786D01*
X149417120Y-139055214D01*
X149381405Y-139090929D01*
X149309977Y-139126643D01*
X149238548Y-139126643D01*
X149131405Y-139090929D01*
X148702834Y-138662357D01*
X148702834Y-139126643D01*
X149452834Y-139340929D02*
X148702834Y-139590929D01*
X149452834Y-139840929D01*
X146922994Y-137912357D02*
X146922994Y-138340929D01*
X146172994Y-138126643D02*
X146922994Y-138126643D01*
X146922994Y-138519500D02*
X146172994Y-139019500D01*
X146922994Y-139019500D02*
X146172994Y-138519500D01*
X146172994Y-139305214D02*
X146922994Y-139305214D01*
X146922994Y-139483786D01*
X146887280Y-139590929D01*
X146815851Y-139662357D01*
X146744422Y-139698071D01*
X146601565Y-139733786D01*
X146494422Y-139733786D01*
X146351565Y-139698071D01*
X146280137Y-139662357D01*
X146208708Y-139590929D01*
X146172994Y-139483786D01*
X146172994Y-139305214D01*
X143643154Y-138448071D02*
X144000297Y-138198071D01*
X143643154Y-138019500D02*
X144393154Y-138019500D01*
X144393154Y-138305214D01*
X144357440Y-138376643D01*
X144321725Y-138412357D01*
X144250297Y-138448071D01*
X144143154Y-138448071D01*
X144071725Y-138412357D01*
X144036011Y-138376643D01*
X144000297Y-138305214D01*
X144000297Y-138019500D01*
X144393154Y-138698071D02*
X143643154Y-139198071D01*
X144393154Y-139198071D02*
X143643154Y-138698071D01*
X143643154Y-139483786D02*
X144393154Y-139483786D01*
X144393154Y-139662357D01*
X144357440Y-139769500D01*
X144286011Y-139840929D01*
X144214582Y-139876643D01*
X144071725Y-139912357D01*
X143964582Y-139912357D01*
X143821725Y-139876643D01*
X143750297Y-139840929D01*
X143678868Y-139769500D01*
X143643154Y-139662357D01*
X143643154Y-139483786D01*
X141149028Y-137983786D02*
X141113314Y-138090929D01*
X141113314Y-138269500D01*
X141149028Y-138340929D01*
X141184742Y-138376643D01*
X141256171Y-138412357D01*
X141327600Y-138412357D01*
X141399028Y-138376643D01*
X141434742Y-138340929D01*
X141470457Y-138269500D01*
X141506171Y-138126643D01*
X141541885Y-138055214D01*
X141577600Y-138019500D01*
X141649028Y-137983786D01*
X141720457Y-137983786D01*
X141791885Y-138019500D01*
X141827600Y-138055214D01*
X141863314Y-138126643D01*
X141863314Y-138305214D01*
X141827600Y-138412357D01*
X141184742Y-139162357D02*
X141149028Y-139126643D01*
X141113314Y-139019500D01*
X141113314Y-138948071D01*
X141149028Y-138840929D01*
X141220457Y-138769500D01*
X141291885Y-138733786D01*
X141434742Y-138698071D01*
X141541885Y-138698071D01*
X141684742Y-138733786D01*
X141756171Y-138769500D01*
X141827600Y-138840929D01*
X141863314Y-138948071D01*
X141863314Y-139019500D01*
X141827600Y-139126643D01*
X141791885Y-139162357D01*
X141113314Y-139840929D02*
X141113314Y-139483786D01*
X141863314Y-139483786D01*
X137999428Y-137959157D02*
X137963714Y-138066300D01*
X137963714Y-138244871D01*
X137999428Y-138316300D01*
X138035142Y-138352014D01*
X138106571Y-138387728D01*
X138178000Y-138387728D01*
X138249428Y-138352014D01*
X138285142Y-138316300D01*
X138320857Y-138244871D01*
X138356571Y-138102014D01*
X138392285Y-138030585D01*
X138428000Y-137994871D01*
X138499428Y-137959157D01*
X138570857Y-137959157D01*
X138642285Y-137994871D01*
X138678000Y-138030585D01*
X138713714Y-138102014D01*
X138713714Y-138280585D01*
X138678000Y-138387728D01*
X137963714Y-138709157D02*
X138713714Y-138709157D01*
X138713714Y-138887728D01*
X138678000Y-138994871D01*
X138606571Y-139066300D01*
X138535142Y-139102014D01*
X138392285Y-139137728D01*
X138285142Y-139137728D01*
X138142285Y-139102014D01*
X138070857Y-139066300D01*
X137999428Y-138994871D01*
X137963714Y-138887728D01*
X137963714Y-138709157D01*
X138178000Y-139423442D02*
X138178000Y-139780585D01*
X137963714Y-139352014D02*
X138713714Y-139602014D01*
X137963714Y-139852014D01*
X118383514Y-127971504D02*
X118383514Y-127171504D01*
X118726371Y-127247695D02*
X118764466Y-127209600D01*
X118840657Y-127171504D01*
X119031133Y-127171504D01*
X119107323Y-127209600D01*
X119145419Y-127247695D01*
X119183514Y-127323885D01*
X119183514Y-127400076D01*
X119145419Y-127514361D01*
X118688276Y-127971504D01*
X119183514Y-127971504D01*
X119983514Y-127895314D02*
X119945419Y-127933409D01*
X119831133Y-127971504D01*
X119754942Y-127971504D01*
X119640657Y-127933409D01*
X119564466Y-127857219D01*
X119526371Y-127781028D01*
X119488276Y-127628647D01*
X119488276Y-127514361D01*
X119526371Y-127361980D01*
X119564466Y-127285790D01*
X119640657Y-127209600D01*
X119754942Y-127171504D01*
X119831133Y-127171504D01*
X119945419Y-127209600D01*
X119983514Y-127247695D01*
X121202561Y-127552457D02*
X121316847Y-127590552D01*
X121354942Y-127628647D01*
X121393038Y-127704838D01*
X121393038Y-127819123D01*
X121354942Y-127895314D01*
X121316847Y-127933409D01*
X121240657Y-127971504D01*
X120935895Y-127971504D01*
X120935895Y-127171504D01*
X121202561Y-127171504D01*
X121278752Y-127209600D01*
X121316847Y-127247695D01*
X121354942Y-127323885D01*
X121354942Y-127400076D01*
X121316847Y-127476266D01*
X121278752Y-127514361D01*
X121202561Y-127552457D01*
X120935895Y-127552457D01*
X121735895Y-127971504D02*
X121735895Y-127438171D01*
X121735895Y-127590552D02*
X121773990Y-127514361D01*
X121812085Y-127476266D01*
X121888276Y-127438171D01*
X121964466Y-127438171D01*
X122535895Y-127933409D02*
X122459704Y-127971504D01*
X122307323Y-127971504D01*
X122231133Y-127933409D01*
X122193038Y-127857219D01*
X122193038Y-127552457D01*
X122231133Y-127476266D01*
X122307323Y-127438171D01*
X122459704Y-127438171D01*
X122535895Y-127476266D01*
X122573990Y-127552457D01*
X122573990Y-127628647D01*
X122193038Y-127704838D01*
X123259704Y-127971504D02*
X123259704Y-127552457D01*
X123221609Y-127476266D01*
X123145419Y-127438171D01*
X122993038Y-127438171D01*
X122916847Y-127476266D01*
X123259704Y-127933409D02*
X123183514Y-127971504D01*
X122993038Y-127971504D01*
X122916847Y-127933409D01*
X122878752Y-127857219D01*
X122878752Y-127781028D01*
X122916847Y-127704838D01*
X122993038Y-127666742D01*
X123183514Y-127666742D01*
X123259704Y-127628647D01*
X123640657Y-127971504D02*
X123640657Y-127171504D01*
X123716847Y-127666742D02*
X123945419Y-127971504D01*
X123945419Y-127438171D02*
X123640657Y-127742933D01*
X124402561Y-127971504D02*
X124326371Y-127933409D01*
X124288276Y-127895314D01*
X124250180Y-127819123D01*
X124250180Y-127590552D01*
X124288276Y-127514361D01*
X124326371Y-127476266D01*
X124402561Y-127438171D01*
X124516847Y-127438171D01*
X124593038Y-127476266D01*
X124631133Y-127514361D01*
X124669228Y-127590552D01*
X124669228Y-127819123D01*
X124631133Y-127895314D01*
X124593038Y-127933409D01*
X124516847Y-127971504D01*
X124402561Y-127971504D01*
X125354942Y-127438171D02*
X125354942Y-127971504D01*
X125012085Y-127438171D02*
X125012085Y-127857219D01*
X125050180Y-127933409D01*
X125126371Y-127971504D01*
X125240657Y-127971504D01*
X125316847Y-127933409D01*
X125354942Y-127895314D01*
X125621609Y-127438171D02*
X125926371Y-127438171D01*
X125735895Y-127171504D02*
X125735895Y-127857219D01*
X125773990Y-127933409D01*
X125850180Y-127971504D01*
X125926371Y-127971504D01*
X127742933Y-135538519D02*
X127742933Y-135157566D01*
X127971504Y-135614709D02*
X127171504Y-135348042D01*
X127971504Y-135081376D01*
X127971504Y-134814709D02*
X127438171Y-134814709D01*
X127590552Y-134814709D02*
X127514361Y-134776614D01*
X127476266Y-134738519D01*
X127438171Y-134662328D01*
X127438171Y-134586138D01*
X127971504Y-133976614D02*
X127171504Y-133976614D01*
X127933409Y-133976614D02*
X127971504Y-134052804D01*
X127971504Y-134205185D01*
X127933409Y-134281376D01*
X127895314Y-134319471D01*
X127819123Y-134357566D01*
X127590552Y-134357566D01*
X127514361Y-134319471D01*
X127476266Y-134281376D01*
X127438171Y-134205185D01*
X127438171Y-134052804D01*
X127476266Y-133976614D01*
X127438171Y-133252804D02*
X127971504Y-133252804D01*
X127438171Y-133595661D02*
X127857219Y-133595661D01*
X127933409Y-133557566D01*
X127971504Y-133481376D01*
X127971504Y-133367090D01*
X127933409Y-133290900D01*
X127895314Y-133252804D01*
X127971504Y-132871852D02*
X127438171Y-132871852D01*
X127171504Y-132871852D02*
X127209600Y-132909947D01*
X127247695Y-132871852D01*
X127209600Y-132833757D01*
X127171504Y-132871852D01*
X127247695Y-132871852D01*
X127438171Y-132490900D02*
X127971504Y-132490900D01*
X127514361Y-132490900D02*
X127476266Y-132452804D01*
X127438171Y-132376614D01*
X127438171Y-132262328D01*
X127476266Y-132186138D01*
X127552457Y-132148042D01*
X127971504Y-132148042D01*
X127971504Y-131652804D02*
X127933409Y-131728995D01*
X127895314Y-131767090D01*
X127819123Y-131805185D01*
X127590552Y-131805185D01*
X127514361Y-131767090D01*
X127476266Y-131728995D01*
X127438171Y-131652804D01*
X127438171Y-131538519D01*
X127476266Y-131462328D01*
X127514361Y-131424233D01*
X127590552Y-131386138D01*
X127819123Y-131386138D01*
X127895314Y-131424233D01*
X127933409Y-131462328D01*
X127971504Y-131538519D01*
X127971504Y-131652804D01*
X127895314Y-129976614D02*
X127933409Y-130014709D01*
X127971504Y-130128995D01*
X127971504Y-130205185D01*
X127933409Y-130319471D01*
X127857219Y-130395661D01*
X127781028Y-130433757D01*
X127628647Y-130471852D01*
X127514361Y-130471852D01*
X127361980Y-130433757D01*
X127285790Y-130395661D01*
X127209600Y-130319471D01*
X127171504Y-130205185D01*
X127171504Y-130128995D01*
X127209600Y-130014709D01*
X127247695Y-129976614D01*
X127971504Y-129519471D02*
X127933409Y-129595661D01*
X127895314Y-129633757D01*
X127819123Y-129671852D01*
X127590552Y-129671852D01*
X127514361Y-129633757D01*
X127476266Y-129595661D01*
X127438171Y-129519471D01*
X127438171Y-129405185D01*
X127476266Y-129328995D01*
X127514361Y-129290900D01*
X127590552Y-129252804D01*
X127819123Y-129252804D01*
X127895314Y-129290900D01*
X127933409Y-129328995D01*
X127971504Y-129405185D01*
X127971504Y-129519471D01*
X127971504Y-128909947D02*
X127438171Y-128909947D01*
X127514361Y-128909947D02*
X127476266Y-128871852D01*
X127438171Y-128795661D01*
X127438171Y-128681376D01*
X127476266Y-128605185D01*
X127552457Y-128567090D01*
X127971504Y-128567090D01*
X127552457Y-128567090D02*
X127476266Y-128528995D01*
X127438171Y-128452804D01*
X127438171Y-128338519D01*
X127476266Y-128262328D01*
X127552457Y-128224233D01*
X127971504Y-128224233D01*
X127971504Y-127843280D02*
X127438171Y-127843280D01*
X127514361Y-127843280D02*
X127476266Y-127805185D01*
X127438171Y-127728995D01*
X127438171Y-127614709D01*
X127476266Y-127538519D01*
X127552457Y-127500423D01*
X127971504Y-127500423D01*
X127552457Y-127500423D02*
X127476266Y-127462328D01*
X127438171Y-127386138D01*
X127438171Y-127271852D01*
X127476266Y-127195661D01*
X127552457Y-127157566D01*
X127971504Y-127157566D01*
X133233166Y-136765466D02*
X133233166Y-136065466D01*
X133633166Y-136765466D01*
X133633166Y-136065466D01*
X134466500Y-136032133D02*
X133866500Y-136932133D01*
X135099833Y-136698800D02*
X135066500Y-136732133D01*
X134966500Y-136765466D01*
X134899833Y-136765466D01*
X134799833Y-136732133D01*
X134733166Y-136665466D01*
X134699833Y-136598800D01*
X134666500Y-136465466D01*
X134666500Y-136365466D01*
X134699833Y-136232133D01*
X134733166Y-136165466D01*
X134799833Y-136098800D01*
X134899833Y-136065466D01*
X134966500Y-136065466D01*
X135066500Y-136098800D01*
X135099833Y-136132133D01*
X133301433Y-134674733D02*
X133401433Y-134708066D01*
X133568100Y-134708066D01*
X133634766Y-134674733D01*
X133668100Y-134641400D01*
X133701433Y-134574733D01*
X133701433Y-134508066D01*
X133668100Y-134441400D01*
X133634766Y-134408066D01*
X133568100Y-134374733D01*
X133434766Y-134341400D01*
X133368100Y-134308066D01*
X133334766Y-134274733D01*
X133301433Y-134208066D01*
X133301433Y-134141400D01*
X133334766Y-134074733D01*
X133368100Y-134041400D01*
X133434766Y-134008066D01*
X133601433Y-134008066D01*
X133701433Y-134041400D01*
X134001433Y-134708066D02*
X134001433Y-134008066D01*
X134168100Y-134008066D01*
X134268100Y-134041400D01*
X134334766Y-134108066D01*
X134368100Y-134174733D01*
X134401433Y-134308066D01*
X134401433Y-134408066D01*
X134368100Y-134541400D01*
X134334766Y-134608066D01*
X134268100Y-134674733D01*
X134168100Y-134708066D01*
X134001433Y-134708066D01*
X134668100Y-134508066D02*
X135001433Y-134508066D01*
X134601433Y-134708066D02*
X134834766Y-134008066D01*
X135068100Y-134708066D01*
X133301433Y-132642733D02*
X133401433Y-132676066D01*
X133568100Y-132676066D01*
X133634766Y-132642733D01*
X133668100Y-132609400D01*
X133701433Y-132542733D01*
X133701433Y-132476066D01*
X133668100Y-132409400D01*
X133634766Y-132376066D01*
X133568100Y-132342733D01*
X133434766Y-132309400D01*
X133368100Y-132276066D01*
X133334766Y-132242733D01*
X133301433Y-132176066D01*
X133301433Y-132109400D01*
X133334766Y-132042733D01*
X133368100Y-132009400D01*
X133434766Y-131976066D01*
X133601433Y-131976066D01*
X133701433Y-132009400D01*
X134401433Y-132609400D02*
X134368100Y-132642733D01*
X134268100Y-132676066D01*
X134201433Y-132676066D01*
X134101433Y-132642733D01*
X134034766Y-132576066D01*
X134001433Y-132509400D01*
X133968100Y-132376066D01*
X133968100Y-132276066D01*
X134001433Y-132142733D01*
X134034766Y-132076066D01*
X134101433Y-132009400D01*
X134201433Y-131976066D01*
X134268100Y-131976066D01*
X134368100Y-132009400D01*
X134401433Y-132042733D01*
X135034766Y-132676066D02*
X134701433Y-132676066D01*
X134701433Y-131976066D01*
X133625233Y-130129800D02*
X133558566Y-130096466D01*
X133458566Y-130096466D01*
X133358566Y-130129800D01*
X133291900Y-130196466D01*
X133258566Y-130263133D01*
X133225233Y-130396466D01*
X133225233Y-130496466D01*
X133258566Y-130629800D01*
X133291900Y-130696466D01*
X133358566Y-130763133D01*
X133458566Y-130796466D01*
X133525233Y-130796466D01*
X133625233Y-130763133D01*
X133658566Y-130729800D01*
X133658566Y-130496466D01*
X133525233Y-130496466D01*
X133958566Y-130796466D02*
X133958566Y-130096466D01*
X134358566Y-130796466D01*
X134358566Y-130096466D01*
X134691900Y-130796466D02*
X134691900Y-130096466D01*
X134858566Y-130096466D01*
X134958566Y-130129800D01*
X135025233Y-130196466D01*
X135058566Y-130263133D01*
X135091900Y-130396466D01*
X135091900Y-130496466D01*
X135058566Y-130629800D01*
X135025233Y-130696466D01*
X134958566Y-130763133D01*
X134858566Y-130796466D01*
X134691900Y-130796466D01*
X133668100Y-128140666D02*
X133334766Y-128140666D01*
X133301433Y-128474000D01*
X133334766Y-128440666D01*
X133401433Y-128407333D01*
X133568100Y-128407333D01*
X133634766Y-128440666D01*
X133668100Y-128474000D01*
X133701433Y-128540666D01*
X133701433Y-128707333D01*
X133668100Y-128774000D01*
X133634766Y-128807333D01*
X133568100Y-128840666D01*
X133401433Y-128840666D01*
X133334766Y-128807333D01*
X133301433Y-128774000D01*
X133901433Y-128140666D02*
X134134766Y-128840666D01*
X134368100Y-128140666D01*
X133701433Y-126859466D02*
X133301433Y-126859466D01*
X133501433Y-126859466D02*
X133501433Y-126159466D01*
X133434766Y-126259466D01*
X133368100Y-126326133D01*
X133301433Y-126359466D01*
X133968100Y-126226133D02*
X134001433Y-126192800D01*
X134068100Y-126159466D01*
X134234766Y-126159466D01*
X134301433Y-126192800D01*
X134334766Y-126226133D01*
X134368100Y-126292800D01*
X134368100Y-126359466D01*
X134334766Y-126459466D01*
X133934766Y-126859466D01*
X134368100Y-126859466D01*
X134568100Y-126159466D02*
X134801433Y-126859466D01*
X135034766Y-126159466D01*
X124176433Y-139121400D02*
X124109766Y-139088066D01*
X124009766Y-139088066D01*
X123909766Y-139121400D01*
X123843100Y-139188066D01*
X123809766Y-139254733D01*
X123776433Y-139388066D01*
X123776433Y-139488066D01*
X123809766Y-139621400D01*
X123843100Y-139688066D01*
X123909766Y-139754733D01*
X124009766Y-139788066D01*
X124076433Y-139788066D01*
X124176433Y-139754733D01*
X124209766Y-139721400D01*
X124209766Y-139488066D01*
X124076433Y-139488066D01*
X124509766Y-139788066D02*
X124509766Y-139088066D01*
X124909766Y-139788066D01*
X124909766Y-139088066D01*
X125243100Y-139788066D02*
X125243100Y-139088066D01*
X125409766Y-139088066D01*
X125509766Y-139121400D01*
X125576433Y-139188066D01*
X125609766Y-139254733D01*
X125643100Y-139388066D01*
X125643100Y-139488066D01*
X125609766Y-139621400D01*
X125576433Y-139688066D01*
X125509766Y-139754733D01*
X125409766Y-139788066D01*
X125243100Y-139788066D01*
X121312633Y-139754733D02*
X121412633Y-139788066D01*
X121579300Y-139788066D01*
X121645966Y-139754733D01*
X121679300Y-139721400D01*
X121712633Y-139654733D01*
X121712633Y-139588066D01*
X121679300Y-139521400D01*
X121645966Y-139488066D01*
X121579300Y-139454733D01*
X121445966Y-139421400D01*
X121379300Y-139388066D01*
X121345966Y-139354733D01*
X121312633Y-139288066D01*
X121312633Y-139221400D01*
X121345966Y-139154733D01*
X121379300Y-139121400D01*
X121445966Y-139088066D01*
X121612633Y-139088066D01*
X121712633Y-139121400D01*
X122412633Y-139721400D02*
X122379300Y-139754733D01*
X122279300Y-139788066D01*
X122212633Y-139788066D01*
X122112633Y-139754733D01*
X122045966Y-139688066D01*
X122012633Y-139621400D01*
X121979300Y-139488066D01*
X121979300Y-139388066D01*
X122012633Y-139254733D01*
X122045966Y-139188066D01*
X122112633Y-139121400D01*
X122212633Y-139088066D01*
X122279300Y-139088066D01*
X122379300Y-139121400D01*
X122412633Y-139154733D01*
X123045966Y-139788066D02*
X122712633Y-139788066D01*
X122712633Y-139088066D01*
X118645633Y-139754733D02*
X118745633Y-139788066D01*
X118912300Y-139788066D01*
X118978966Y-139754733D01*
X119012300Y-139721400D01*
X119045633Y-139654733D01*
X119045633Y-139588066D01*
X119012300Y-139521400D01*
X118978966Y-139488066D01*
X118912300Y-139454733D01*
X118778966Y-139421400D01*
X118712300Y-139388066D01*
X118678966Y-139354733D01*
X118645633Y-139288066D01*
X118645633Y-139221400D01*
X118678966Y-139154733D01*
X118712300Y-139121400D01*
X118778966Y-139088066D01*
X118945633Y-139088066D01*
X119045633Y-139121400D01*
X119345633Y-139788066D02*
X119345633Y-139088066D01*
X119512300Y-139088066D01*
X119612300Y-139121400D01*
X119678966Y-139188066D01*
X119712300Y-139254733D01*
X119745633Y-139388066D01*
X119745633Y-139488066D01*
X119712300Y-139621400D01*
X119678966Y-139688066D01*
X119612300Y-139754733D01*
X119512300Y-139788066D01*
X119345633Y-139788066D01*
X120012300Y-139588066D02*
X120345633Y-139588066D01*
X119945633Y-139788066D02*
X120178966Y-139088066D01*
X120412300Y-139788066D01*
X114524433Y-136098800D02*
X114457766Y-136065466D01*
X114357766Y-136065466D01*
X114257766Y-136098800D01*
X114191100Y-136165466D01*
X114157766Y-136232133D01*
X114124433Y-136365466D01*
X114124433Y-136465466D01*
X114157766Y-136598800D01*
X114191100Y-136665466D01*
X114257766Y-136732133D01*
X114357766Y-136765466D01*
X114424433Y-136765466D01*
X114524433Y-136732133D01*
X114557766Y-136698800D01*
X114557766Y-136465466D01*
X114424433Y-136465466D01*
X114857766Y-136765466D02*
X114857766Y-136065466D01*
X115257766Y-136765466D01*
X115257766Y-136065466D01*
X115591100Y-136765466D02*
X115591100Y-136065466D01*
X115757766Y-136065466D01*
X115857766Y-136098800D01*
X115924433Y-136165466D01*
X115957766Y-136232133D01*
X115991100Y-136365466D01*
X115991100Y-136465466D01*
X115957766Y-136598800D01*
X115924433Y-136665466D01*
X115857766Y-136732133D01*
X115757766Y-136765466D01*
X115591100Y-136765466D01*
X111636766Y-138848266D02*
X111403433Y-138514933D01*
X111236766Y-138848266D02*
X111236766Y-138148266D01*
X111503433Y-138148266D01*
X111570100Y-138181600D01*
X111603433Y-138214933D01*
X111636766Y-138281600D01*
X111636766Y-138381600D01*
X111603433Y-138448266D01*
X111570100Y-138481600D01*
X111503433Y-138514933D01*
X111236766Y-138514933D01*
X112336766Y-138781600D02*
X112303433Y-138814933D01*
X112203433Y-138848266D01*
X112136766Y-138848266D01*
X112036766Y-138814933D01*
X111970100Y-138748266D01*
X111936766Y-138681600D01*
X111903433Y-138548266D01*
X111903433Y-138448266D01*
X111936766Y-138314933D01*
X111970100Y-138248266D01*
X112036766Y-138181600D01*
X112136766Y-138148266D01*
X112203433Y-138148266D01*
X112303433Y-138181600D01*
X112336766Y-138214933D01*
X112603433Y-138814933D02*
X112703433Y-138848266D01*
X112870100Y-138848266D01*
X112936766Y-138814933D01*
X112970100Y-138781600D01*
X113003433Y-138714933D01*
X113003433Y-138648266D01*
X112970100Y-138581600D01*
X112936766Y-138548266D01*
X112870100Y-138514933D01*
X112736766Y-138481600D01*
X112670100Y-138448266D01*
X112636766Y-138414933D01*
X112603433Y-138348266D01*
X112603433Y-138281600D01*
X112636766Y-138214933D01*
X112670100Y-138181600D01*
X112736766Y-138148266D01*
X112903433Y-138148266D01*
X113003433Y-138181600D01*
X113603433Y-138381600D02*
X113603433Y-138848266D01*
X113436766Y-138114933D02*
X113270100Y-138614933D01*
X113703433Y-138614933D01*
X108766566Y-139915066D02*
X108533233Y-139581733D01*
X108366566Y-139915066D02*
X108366566Y-139215066D01*
X108633233Y-139215066D01*
X108699900Y-139248400D01*
X108733233Y-139281733D01*
X108766566Y-139348400D01*
X108766566Y-139448400D01*
X108733233Y-139515066D01*
X108699900Y-139548400D01*
X108633233Y-139581733D01*
X108366566Y-139581733D01*
X109466566Y-139848400D02*
X109433233Y-139881733D01*
X109333233Y-139915066D01*
X109266566Y-139915066D01*
X109166566Y-139881733D01*
X109099900Y-139815066D01*
X109066566Y-139748400D01*
X109033233Y-139615066D01*
X109033233Y-139515066D01*
X109066566Y-139381733D01*
X109099900Y-139315066D01*
X109166566Y-139248400D01*
X109266566Y-139215066D01*
X109333233Y-139215066D01*
X109433233Y-139248400D01*
X109466566Y-139281733D01*
X109733233Y-139881733D02*
X109833233Y-139915066D01*
X109999900Y-139915066D01*
X110066566Y-139881733D01*
X110099900Y-139848400D01*
X110133233Y-139781733D01*
X110133233Y-139715066D01*
X110099900Y-139648400D01*
X110066566Y-139615066D01*
X109999900Y-139581733D01*
X109866566Y-139548400D01*
X109799900Y-139515066D01*
X109766566Y-139481733D01*
X109733233Y-139415066D01*
X109733233Y-139348400D01*
X109766566Y-139281733D01*
X109799900Y-139248400D01*
X109866566Y-139215066D01*
X110033233Y-139215066D01*
X110133233Y-139248400D01*
X110366566Y-139215066D02*
X110799900Y-139215066D01*
X110566566Y-139481733D01*
X110666566Y-139481733D01*
X110733233Y-139515066D01*
X110766566Y-139548400D01*
X110799900Y-139615066D01*
X110799900Y-139781733D01*
X110766566Y-139848400D01*
X110733233Y-139881733D01*
X110666566Y-139915066D01*
X110466566Y-139915066D01*
X110399900Y-139881733D01*
X110366566Y-139848400D01*
X103826300Y-138046666D02*
X103959633Y-138046666D01*
X104026300Y-138080000D01*
X104092966Y-138146666D01*
X104126300Y-138280000D01*
X104126300Y-138513333D01*
X104092966Y-138646666D01*
X104026300Y-138713333D01*
X103959633Y-138746666D01*
X103826300Y-138746666D01*
X103759633Y-138713333D01*
X103692966Y-138646666D01*
X103659633Y-138513333D01*
X103659633Y-138280000D01*
X103692966Y-138146666D01*
X103759633Y-138080000D01*
X103826300Y-138046666D01*
X104426300Y-138380000D02*
X104659633Y-138380000D01*
X104759633Y-138746666D02*
X104426300Y-138746666D01*
X104426300Y-138046666D01*
X104759633Y-138046666D01*
X105026300Y-138713333D02*
X105092966Y-138746666D01*
X105226300Y-138746666D01*
X105292966Y-138713333D01*
X105326300Y-138646666D01*
X105326300Y-138613333D01*
X105292966Y-138546666D01*
X105226300Y-138513333D01*
X105126300Y-138513333D01*
X105059633Y-138480000D01*
X105026300Y-138413333D01*
X105026300Y-138380000D01*
X105059633Y-138313333D01*
X105126300Y-138280000D01*
X105226300Y-138280000D01*
X105292966Y-138313333D01*
X105892966Y-138713333D02*
X105826300Y-138746666D01*
X105692966Y-138746666D01*
X105626300Y-138713333D01*
X105592966Y-138646666D01*
X105592966Y-138380000D01*
X105626300Y-138313333D01*
X105692966Y-138280000D01*
X105826300Y-138280000D01*
X105892966Y-138313333D01*
X105926300Y-138380000D01*
X105926300Y-138446666D01*
X105592966Y-138513333D01*
X106226300Y-138746666D02*
X106226300Y-138280000D01*
X106226300Y-138413333D02*
X106259633Y-138346666D01*
X106292966Y-138313333D01*
X106359633Y-138280000D01*
X106426300Y-138280000D01*
X106592966Y-138280000D02*
X106759633Y-138746666D01*
X106926300Y-138280000D01*
X107292966Y-138746666D02*
X107226300Y-138713333D01*
X107192966Y-138680000D01*
X107159633Y-138613333D01*
X107159633Y-138413333D01*
X107192966Y-138346666D01*
X107226300Y-138313333D01*
X107292966Y-138280000D01*
X107392966Y-138280000D01*
X107459633Y-138313333D01*
X107492966Y-138346666D01*
X107526300Y-138413333D01*
X107526300Y-138613333D01*
X107492966Y-138680000D01*
X107459633Y-138713333D01*
X107392966Y-138746666D01*
X107292966Y-138746666D01*
X107792966Y-138713333D02*
X107859633Y-138746666D01*
X107992966Y-138746666D01*
X108059633Y-138713333D01*
X108092966Y-138646666D01*
X108092966Y-138613333D01*
X108059633Y-138546666D01*
X107992966Y-138513333D01*
X107892966Y-138513333D01*
X107826300Y-138480000D01*
X107792966Y-138413333D01*
X107792966Y-138380000D01*
X107826300Y-138313333D01*
X107892966Y-138280000D01*
X107992966Y-138280000D01*
X108059633Y-138313333D01*
X102201357Y-131678104D02*
X102353738Y-131678104D01*
X102429928Y-131716200D01*
X102506119Y-131792390D01*
X102544214Y-131944771D01*
X102544214Y-132211438D01*
X102506119Y-132363819D01*
X102429928Y-132440009D01*
X102353738Y-132478104D01*
X102201357Y-132478104D01*
X102125166Y-132440009D01*
X102048976Y-132363819D01*
X102010880Y-132211438D01*
X102010880Y-131944771D01*
X102048976Y-131792390D01*
X102125166Y-131716200D01*
X102201357Y-131678104D01*
X102772785Y-131944771D02*
X103077547Y-131944771D01*
X102887071Y-131678104D02*
X102887071Y-132363819D01*
X102925166Y-132440009D01*
X103001357Y-132478104D01*
X103077547Y-132478104D01*
X103344214Y-132478104D02*
X103344214Y-131678104D01*
X103687071Y-132478104D02*
X103687071Y-132059057D01*
X103648976Y-131982866D01*
X103572785Y-131944771D01*
X103458500Y-131944771D01*
X103382309Y-131982866D01*
X103344214Y-132020961D01*
X104372785Y-132440009D02*
X104296595Y-132478104D01*
X104144214Y-132478104D01*
X104068023Y-132440009D01*
X104029928Y-132363819D01*
X104029928Y-132059057D01*
X104068023Y-131982866D01*
X104144214Y-131944771D01*
X104296595Y-131944771D01*
X104372785Y-131982866D01*
X104410880Y-132059057D01*
X104410880Y-132135247D01*
X104029928Y-132211438D01*
X104753738Y-132478104D02*
X104753738Y-131944771D01*
X104753738Y-132097152D02*
X104791833Y-132020961D01*
X104829928Y-131982866D01*
X104906119Y-131944771D01*
X104982309Y-131944771D01*
X99610880Y-133409057D02*
X99725166Y-133447152D01*
X99763261Y-133485247D01*
X99801357Y-133561438D01*
X99801357Y-133675723D01*
X99763261Y-133751914D01*
X99725166Y-133790009D01*
X99648976Y-133828104D01*
X99344214Y-133828104D01*
X99344214Y-133028104D01*
X99610880Y-133028104D01*
X99687071Y-133066200D01*
X99725166Y-133104295D01*
X99763261Y-133180485D01*
X99763261Y-133256676D01*
X99725166Y-133332866D01*
X99687071Y-133370961D01*
X99610880Y-133409057D01*
X99344214Y-133409057D01*
X100144214Y-133828104D02*
X100144214Y-133294771D01*
X100144214Y-133447152D02*
X100182309Y-133370961D01*
X100220404Y-133332866D01*
X100296595Y-133294771D01*
X100372785Y-133294771D01*
X100944214Y-133790009D02*
X100868023Y-133828104D01*
X100715642Y-133828104D01*
X100639452Y-133790009D01*
X100601357Y-133713819D01*
X100601357Y-133409057D01*
X100639452Y-133332866D01*
X100715642Y-133294771D01*
X100868023Y-133294771D01*
X100944214Y-133332866D01*
X100982309Y-133409057D01*
X100982309Y-133485247D01*
X100601357Y-133561438D01*
X101668023Y-133828104D02*
X101668023Y-133409057D01*
X101629928Y-133332866D01*
X101553738Y-133294771D01*
X101401357Y-133294771D01*
X101325166Y-133332866D01*
X101668023Y-133790009D02*
X101591833Y-133828104D01*
X101401357Y-133828104D01*
X101325166Y-133790009D01*
X101287071Y-133713819D01*
X101287071Y-133637628D01*
X101325166Y-133561438D01*
X101401357Y-133523342D01*
X101591833Y-133523342D01*
X101668023Y-133485247D01*
X102048976Y-133828104D02*
X102048976Y-133028104D01*
X102125166Y-133523342D02*
X102353738Y-133828104D01*
X102353738Y-133294771D02*
X102048976Y-133599533D01*
X102810880Y-133828104D02*
X102734690Y-133790009D01*
X102696595Y-133751914D01*
X102658500Y-133675723D01*
X102658500Y-133447152D01*
X102696595Y-133370961D01*
X102734690Y-133332866D01*
X102810880Y-133294771D01*
X102925166Y-133294771D01*
X103001357Y-133332866D01*
X103039452Y-133370961D01*
X103077547Y-133447152D01*
X103077547Y-133675723D01*
X103039452Y-133751914D01*
X103001357Y-133790009D01*
X102925166Y-133828104D01*
X102810880Y-133828104D01*
X103763261Y-133294771D02*
X103763261Y-133828104D01*
X103420404Y-133294771D02*
X103420404Y-133713819D01*
X103458500Y-133790009D01*
X103534690Y-133828104D01*
X103648976Y-133828104D01*
X103725166Y-133790009D01*
X103763261Y-133751914D01*
X104029928Y-133294771D02*
X104334690Y-133294771D01*
X104144214Y-133028104D02*
X104144214Y-133713819D01*
X104182309Y-133790009D01*
X104258500Y-133828104D01*
X104334690Y-133828104D01*
X104563261Y-133790009D02*
X104639452Y-133828104D01*
X104791833Y-133828104D01*
X104868023Y-133790009D01*
X104906119Y-133713819D01*
X104906119Y-133675723D01*
X104868023Y-133599533D01*
X104791833Y-133561438D01*
X104677547Y-133561438D01*
X104601357Y-133523342D01*
X104563261Y-133447152D01*
X104563261Y-133409057D01*
X104601357Y-133332866D01*
X104677547Y-133294771D01*
X104791833Y-133294771D01*
X104868023Y-133332866D01*
X120440409Y-109325719D02*
X120478504Y-109211433D01*
X120478504Y-109020957D01*
X120440409Y-108944766D01*
X120402314Y-108906671D01*
X120326123Y-108868576D01*
X120249933Y-108868576D01*
X120173742Y-108906671D01*
X120135647Y-108944766D01*
X120097552Y-109020957D01*
X120059457Y-109173338D01*
X120021361Y-109249528D01*
X119983266Y-109287623D01*
X119907076Y-109325719D01*
X119830885Y-109325719D01*
X119754695Y-109287623D01*
X119716600Y-109249528D01*
X119678504Y-109173338D01*
X119678504Y-108982861D01*
X119716600Y-108868576D01*
X119945171Y-108601909D02*
X120478504Y-108449528D01*
X120097552Y-108297147D01*
X120478504Y-108144766D01*
X119945171Y-107992385D01*
X120478504Y-107687623D02*
X119945171Y-107687623D01*
X119678504Y-107687623D02*
X119716600Y-107725719D01*
X119754695Y-107687623D01*
X119716600Y-107649528D01*
X119678504Y-107687623D01*
X119754695Y-107687623D01*
X119945171Y-107420957D02*
X119945171Y-107116195D01*
X119678504Y-107306671D02*
X120364219Y-107306671D01*
X120440409Y-107268576D01*
X120478504Y-107192385D01*
X120478504Y-107116195D01*
X120440409Y-106506671D02*
X120478504Y-106582861D01*
X120478504Y-106735242D01*
X120440409Y-106811433D01*
X120402314Y-106849528D01*
X120326123Y-106887623D01*
X120097552Y-106887623D01*
X120021361Y-106849528D01*
X119983266Y-106811433D01*
X119945171Y-106735242D01*
X119945171Y-106582861D01*
X119983266Y-106506671D01*
X120478504Y-106163814D02*
X119678504Y-106163814D01*
X120478504Y-105820957D02*
X120059457Y-105820957D01*
X119983266Y-105859052D01*
X119945171Y-105935242D01*
X119945171Y-106049528D01*
X119983266Y-106125719D01*
X120021361Y-106163814D01*
X120478504Y-104716195D02*
X120440409Y-104792385D01*
X120402314Y-104830480D01*
X120326123Y-104868576D01*
X120097552Y-104868576D01*
X120021361Y-104830480D01*
X119983266Y-104792385D01*
X119945171Y-104716195D01*
X119945171Y-104601909D01*
X119983266Y-104525719D01*
X120021361Y-104487623D01*
X120097552Y-104449528D01*
X120326123Y-104449528D01*
X120402314Y-104487623D01*
X120440409Y-104525719D01*
X120478504Y-104601909D01*
X120478504Y-104716195D01*
X119945171Y-104220957D02*
X119945171Y-103916195D01*
X120478504Y-104106671D02*
X119792790Y-104106671D01*
X119716600Y-104068576D01*
X119678504Y-103992385D01*
X119678504Y-103916195D01*
X119945171Y-103763814D02*
X119945171Y-103459052D01*
X120478504Y-103649528D02*
X119792790Y-103649528D01*
X119716600Y-103611433D01*
X119678504Y-103535242D01*
X119678504Y-103459052D01*
X120402314Y-103192385D02*
X120440409Y-103154290D01*
X120478504Y-103192385D01*
X120440409Y-103230480D01*
X120402314Y-103192385D01*
X120478504Y-103192385D01*
X119983266Y-103192385D02*
X120021361Y-103154290D01*
X120059457Y-103192385D01*
X120021361Y-103230480D01*
X119983266Y-103192385D01*
X120059457Y-103192385D01*
X120478504Y-101859052D02*
X119678504Y-101859052D01*
X120440409Y-101859052D02*
X120478504Y-101935242D01*
X120478504Y-102087623D01*
X120440409Y-102163814D01*
X120402314Y-102201909D01*
X120326123Y-102240004D01*
X120097552Y-102240004D01*
X120021361Y-102201909D01*
X119983266Y-102163814D01*
X119945171Y-102087623D01*
X119945171Y-101935242D01*
X119983266Y-101859052D01*
X120440409Y-101173338D02*
X120478504Y-101249528D01*
X120478504Y-101401909D01*
X120440409Y-101478100D01*
X120364219Y-101516195D01*
X120059457Y-101516195D01*
X119983266Y-101478100D01*
X119945171Y-101401909D01*
X119945171Y-101249528D01*
X119983266Y-101173338D01*
X120059457Y-101135242D01*
X120135647Y-101135242D01*
X120211838Y-101516195D01*
X119945171Y-100906671D02*
X119945171Y-100601909D01*
X120478504Y-100792385D02*
X119792790Y-100792385D01*
X119716600Y-100754290D01*
X119678504Y-100678100D01*
X119678504Y-100601909D01*
X120478504Y-99992385D02*
X120059457Y-99992385D01*
X119983266Y-100030480D01*
X119945171Y-100106671D01*
X119945171Y-100259052D01*
X119983266Y-100335242D01*
X120440409Y-99992385D02*
X120478504Y-100068576D01*
X120478504Y-100259052D01*
X120440409Y-100335242D01*
X120364219Y-100373338D01*
X120288028Y-100373338D01*
X120211838Y-100335242D01*
X120173742Y-100259052D01*
X120173742Y-100068576D01*
X120135647Y-99992385D01*
X119945171Y-99268576D02*
X120478504Y-99268576D01*
X119945171Y-99611433D02*
X120364219Y-99611433D01*
X120440409Y-99573338D01*
X120478504Y-99497147D01*
X120478504Y-99382861D01*
X120440409Y-99306671D01*
X120402314Y-99268576D01*
X120478504Y-98773338D02*
X120440409Y-98849528D01*
X120364219Y-98887623D01*
X119678504Y-98887623D01*
X119945171Y-98582861D02*
X119945171Y-98278100D01*
X119678504Y-98468576D02*
X120364219Y-98468576D01*
X120440409Y-98430480D01*
X120478504Y-98354290D01*
X120478504Y-98278100D01*
X120478504Y-97401909D02*
X119678504Y-97401909D01*
X119983266Y-97401909D02*
X119945171Y-97325719D01*
X119945171Y-97173338D01*
X119983266Y-97097147D01*
X120021361Y-97059052D01*
X120097552Y-97020957D01*
X120326123Y-97020957D01*
X120402314Y-97059052D01*
X120440409Y-97097147D01*
X120478504Y-97173338D01*
X120478504Y-97325719D01*
X120440409Y-97401909D01*
X120440409Y-96373338D02*
X120478504Y-96449528D01*
X120478504Y-96601909D01*
X120440409Y-96678100D01*
X120364219Y-96716195D01*
X120059457Y-96716195D01*
X119983266Y-96678100D01*
X119945171Y-96601909D01*
X119945171Y-96449528D01*
X119983266Y-96373338D01*
X120059457Y-96335242D01*
X120135647Y-96335242D01*
X120211838Y-96716195D01*
X120478504Y-95992385D02*
X119678504Y-95992385D01*
X120478504Y-95649528D02*
X120059457Y-95649528D01*
X119983266Y-95687623D01*
X119945171Y-95763814D01*
X119945171Y-95878100D01*
X119983266Y-95954290D01*
X120021361Y-95992385D01*
X120478504Y-94925719D02*
X120059457Y-94925719D01*
X119983266Y-94963814D01*
X119945171Y-95040004D01*
X119945171Y-95192385D01*
X119983266Y-95268576D01*
X120440409Y-94925719D02*
X120478504Y-95001909D01*
X120478504Y-95192385D01*
X120440409Y-95268576D01*
X120364219Y-95306671D01*
X120288028Y-95306671D01*
X120211838Y-95268576D01*
X120173742Y-95192385D01*
X120173742Y-95001909D01*
X120135647Y-94925719D01*
X119945171Y-94620957D02*
X120478504Y-94430480D01*
X119945171Y-94240004D01*
X120478504Y-93935242D02*
X119945171Y-93935242D01*
X119678504Y-93935242D02*
X119716600Y-93973338D01*
X119754695Y-93935242D01*
X119716600Y-93897147D01*
X119678504Y-93935242D01*
X119754695Y-93935242D01*
X120478504Y-93440004D02*
X120440409Y-93516195D01*
X120402314Y-93554290D01*
X120326123Y-93592385D01*
X120097552Y-93592385D01*
X120021361Y-93554290D01*
X119983266Y-93516195D01*
X119945171Y-93440004D01*
X119945171Y-93325719D01*
X119983266Y-93249528D01*
X120021361Y-93211433D01*
X120097552Y-93173338D01*
X120326123Y-93173338D01*
X120402314Y-93211433D01*
X120440409Y-93249528D01*
X120478504Y-93325719D01*
X120478504Y-93440004D01*
X120478504Y-92830480D02*
X119945171Y-92830480D01*
X120097552Y-92830480D02*
X120021361Y-92792385D01*
X119983266Y-92754290D01*
X119945171Y-92678100D01*
X119945171Y-92601909D01*
D10*
X132486400Y-107569000D02*
X132486400Y-111683800D01*
D11*
X133434776Y-109861304D02*
X133434776Y-109061304D01*
X133891919Y-109861304D01*
X133891919Y-109061304D01*
X134844300Y-109023209D02*
X134158585Y-110051780D01*
X135568109Y-109785114D02*
X135530014Y-109823209D01*
X135415728Y-109861304D01*
X135339538Y-109861304D01*
X135225252Y-109823209D01*
X135149061Y-109747019D01*
X135110966Y-109670828D01*
X135072871Y-109518447D01*
X135072871Y-109404161D01*
X135110966Y-109251780D01*
X135149061Y-109175590D01*
X135225252Y-109099400D01*
X135339538Y-109061304D01*
X135415728Y-109061304D01*
X135530014Y-109099400D01*
X135568109Y-109137495D01*
D10*
X132486400Y-102463600D02*
X132486400Y-106578400D01*
D11*
X133434776Y-104336857D02*
X133701442Y-104336857D01*
X133815728Y-104755904D02*
X133434776Y-104755904D01*
X133434776Y-103955904D01*
X133815728Y-103955904D01*
X134120490Y-104717809D02*
X134234776Y-104755904D01*
X134425252Y-104755904D01*
X134501442Y-104717809D01*
X134539538Y-104679714D01*
X134577633Y-104603523D01*
X134577633Y-104527333D01*
X134539538Y-104451142D01*
X134501442Y-104413047D01*
X134425252Y-104374952D01*
X134272871Y-104336857D01*
X134196680Y-104298761D01*
X134158585Y-104260666D01*
X134120490Y-104184476D01*
X134120490Y-104108285D01*
X134158585Y-104032095D01*
X134196680Y-103994000D01*
X134272871Y-103955904D01*
X134463347Y-103955904D01*
X134577633Y-103994000D01*
X134806204Y-103955904D02*
X135263347Y-103955904D01*
X135034776Y-104755904D02*
X135034776Y-103955904D01*
X135682395Y-103955904D02*
X135834776Y-103955904D01*
X135910966Y-103994000D01*
X135987157Y-104070190D01*
X136025252Y-104222571D01*
X136025252Y-104489238D01*
X135987157Y-104641619D01*
X135910966Y-104717809D01*
X135834776Y-104755904D01*
X135682395Y-104755904D01*
X135606204Y-104717809D01*
X135530014Y-104641619D01*
X135491919Y-104489238D01*
X135491919Y-104222571D01*
X135530014Y-104070190D01*
X135606204Y-103994000D01*
X135682395Y-103955904D01*
X136368109Y-104755904D02*
X136368109Y-103955904D01*
X136672871Y-103955904D01*
X136749061Y-103994000D01*
X136787157Y-104032095D01*
X136825252Y-104108285D01*
X136825252Y-104222571D01*
X136787157Y-104298761D01*
X136749061Y-104336857D01*
X136672871Y-104374952D01*
X136368109Y-104374952D01*
X137091919Y-103955904D02*
X137587157Y-103955904D01*
X137320490Y-104260666D01*
X137434776Y-104260666D01*
X137510966Y-104298761D01*
X137549061Y-104336857D01*
X137587157Y-104413047D01*
X137587157Y-104603523D01*
X137549061Y-104679714D01*
X137510966Y-104717809D01*
X137434776Y-104755904D01*
X137206204Y-104755904D01*
X137130014Y-104717809D01*
X137091919Y-104679714D01*
D10*
X132486400Y-97383600D02*
X132486400Y-101498400D01*
D11*
X133434776Y-99256857D02*
X133701442Y-99256857D01*
X133815728Y-99675904D02*
X133434776Y-99675904D01*
X133434776Y-98875904D01*
X133815728Y-98875904D01*
X134120490Y-99637809D02*
X134234776Y-99675904D01*
X134425252Y-99675904D01*
X134501442Y-99637809D01*
X134539538Y-99599714D01*
X134577633Y-99523523D01*
X134577633Y-99447333D01*
X134539538Y-99371142D01*
X134501442Y-99333047D01*
X134425252Y-99294952D01*
X134272871Y-99256857D01*
X134196680Y-99218761D01*
X134158585Y-99180666D01*
X134120490Y-99104476D01*
X134120490Y-99028285D01*
X134158585Y-98952095D01*
X134196680Y-98914000D01*
X134272871Y-98875904D01*
X134463347Y-98875904D01*
X134577633Y-98914000D01*
X134806204Y-98875904D02*
X135263347Y-98875904D01*
X135034776Y-99675904D02*
X135034776Y-98875904D01*
X135682395Y-98875904D02*
X135834776Y-98875904D01*
X135910966Y-98914000D01*
X135987157Y-98990190D01*
X136025252Y-99142571D01*
X136025252Y-99409238D01*
X135987157Y-99561619D01*
X135910966Y-99637809D01*
X135834776Y-99675904D01*
X135682395Y-99675904D01*
X135606204Y-99637809D01*
X135530014Y-99561619D01*
X135491919Y-99409238D01*
X135491919Y-99142571D01*
X135530014Y-98990190D01*
X135606204Y-98914000D01*
X135682395Y-98875904D01*
X136368109Y-99675904D02*
X136368109Y-98875904D01*
X136672871Y-98875904D01*
X136749061Y-98914000D01*
X136787157Y-98952095D01*
X136825252Y-99028285D01*
X136825252Y-99142571D01*
X136787157Y-99218761D01*
X136749061Y-99256857D01*
X136672871Y-99294952D01*
X136368109Y-99294952D01*
X137130014Y-98952095D02*
X137168109Y-98914000D01*
X137244300Y-98875904D01*
X137434776Y-98875904D01*
X137510966Y-98914000D01*
X137549061Y-98952095D01*
X137587157Y-99028285D01*
X137587157Y-99104476D01*
X137549061Y-99218761D01*
X137091919Y-99675904D01*
X137587157Y-99675904D01*
X133460176Y-94227657D02*
X133726842Y-94227657D01*
X133841128Y-94646704D02*
X133460176Y-94646704D01*
X133460176Y-93846704D01*
X133841128Y-93846704D01*
X134145890Y-94608609D02*
X134260176Y-94646704D01*
X134450652Y-94646704D01*
X134526842Y-94608609D01*
X134564938Y-94570514D01*
X134603033Y-94494323D01*
X134603033Y-94418133D01*
X134564938Y-94341942D01*
X134526842Y-94303847D01*
X134450652Y-94265752D01*
X134298271Y-94227657D01*
X134222080Y-94189561D01*
X134183985Y-94151466D01*
X134145890Y-94075276D01*
X134145890Y-93999085D01*
X134183985Y-93922895D01*
X134222080Y-93884800D01*
X134298271Y-93846704D01*
X134488747Y-93846704D01*
X134603033Y-93884800D01*
X134831604Y-93846704D02*
X135288747Y-93846704D01*
X135060176Y-94646704D02*
X135060176Y-93846704D01*
X135707795Y-93846704D02*
X135860176Y-93846704D01*
X135936366Y-93884800D01*
X136012557Y-93960990D01*
X136050652Y-94113371D01*
X136050652Y-94380038D01*
X136012557Y-94532419D01*
X135936366Y-94608609D01*
X135860176Y-94646704D01*
X135707795Y-94646704D01*
X135631604Y-94608609D01*
X135555414Y-94532419D01*
X135517319Y-94380038D01*
X135517319Y-94113371D01*
X135555414Y-93960990D01*
X135631604Y-93884800D01*
X135707795Y-93846704D01*
X136393509Y-94646704D02*
X136393509Y-93846704D01*
X136698271Y-93846704D01*
X136774461Y-93884800D01*
X136812557Y-93922895D01*
X136850652Y-93999085D01*
X136850652Y-94113371D01*
X136812557Y-94189561D01*
X136774461Y-94227657D01*
X136698271Y-94265752D01*
X136393509Y-94265752D01*
X137612557Y-94646704D02*
X137155414Y-94646704D01*
X137383985Y-94646704D02*
X137383985Y-93846704D01*
X137307795Y-93960990D01*
X137231604Y-94037180D01*
X137155414Y-94075276D01*
D10*
X132486400Y-92329000D02*
X132486400Y-96443800D01*
D11*
X132202880Y-88153209D02*
X132317166Y-88191304D01*
X132507642Y-88191304D01*
X132583833Y-88153209D01*
X132621928Y-88115114D01*
X132660023Y-88038923D01*
X132660023Y-87962733D01*
X132621928Y-87886542D01*
X132583833Y-87848447D01*
X132507642Y-87810352D01*
X132355261Y-87772257D01*
X132279071Y-87734161D01*
X132240976Y-87696066D01*
X132202880Y-87619876D01*
X132202880Y-87543685D01*
X132240976Y-87467495D01*
X132279071Y-87429400D01*
X132355261Y-87391304D01*
X132545738Y-87391304D01*
X132660023Y-87429400D01*
X132926690Y-87657971D02*
X133079071Y-88191304D01*
X133231452Y-87810352D01*
X133383833Y-88191304D01*
X133536214Y-87657971D01*
X133840976Y-88191304D02*
X133840976Y-87657971D01*
X133840976Y-87391304D02*
X133802880Y-87429400D01*
X133840976Y-87467495D01*
X133879071Y-87429400D01*
X133840976Y-87391304D01*
X133840976Y-87467495D01*
X134107642Y-87657971D02*
X134412404Y-87657971D01*
X134221928Y-87391304D02*
X134221928Y-88077019D01*
X134260023Y-88153209D01*
X134336214Y-88191304D01*
X134412404Y-88191304D01*
X135021928Y-88153209D02*
X134945738Y-88191304D01*
X134793357Y-88191304D01*
X134717166Y-88153209D01*
X134679071Y-88115114D01*
X134640976Y-88038923D01*
X134640976Y-87810352D01*
X134679071Y-87734161D01*
X134717166Y-87696066D01*
X134793357Y-87657971D01*
X134945738Y-87657971D01*
X135021928Y-87696066D01*
X135364785Y-88191304D02*
X135364785Y-87391304D01*
X135707642Y-88191304D02*
X135707642Y-87772257D01*
X135669547Y-87696066D01*
X135593357Y-87657971D01*
X135479071Y-87657971D01*
X135402880Y-87696066D01*
X135364785Y-87734161D01*
X136812404Y-88191304D02*
X136736214Y-88153209D01*
X136698119Y-88115114D01*
X136660023Y-88038923D01*
X136660023Y-87810352D01*
X136698119Y-87734161D01*
X136736214Y-87696066D01*
X136812404Y-87657971D01*
X136926690Y-87657971D01*
X137002880Y-87696066D01*
X137040976Y-87734161D01*
X137079071Y-87810352D01*
X137079071Y-88038923D01*
X137040976Y-88115114D01*
X137002880Y-88153209D01*
X136926690Y-88191304D01*
X136812404Y-88191304D01*
X137421928Y-87657971D02*
X137421928Y-88191304D01*
X137421928Y-87734161D02*
X137460023Y-87696066D01*
X137536214Y-87657971D01*
X137650500Y-87657971D01*
X137726690Y-87696066D01*
X137764785Y-87772257D01*
X137764785Y-88191304D01*
X138145738Y-88115114D02*
X138183833Y-88153209D01*
X138145738Y-88191304D01*
X138107642Y-88153209D01*
X138145738Y-88115114D01*
X138145738Y-88191304D01*
X138145738Y-87696066D02*
X138183833Y-87734161D01*
X138145738Y-87772257D01*
X138107642Y-87734161D01*
X138145738Y-87696066D01*
X138145738Y-87772257D01*
X132202880Y-89312733D02*
X132583833Y-89312733D01*
X132126690Y-89541304D02*
X132393357Y-88741304D01*
X132660023Y-89541304D01*
X133269547Y-89503209D02*
X133193357Y-89541304D01*
X133040976Y-89541304D01*
X132964785Y-89503209D01*
X132926690Y-89465114D01*
X132888595Y-89388923D01*
X132888595Y-89160352D01*
X132926690Y-89084161D01*
X132964785Y-89046066D01*
X133040976Y-89007971D01*
X133193357Y-89007971D01*
X133269547Y-89046066D01*
X133498119Y-89007971D02*
X133802880Y-89007971D01*
X133612404Y-88741304D02*
X133612404Y-89427019D01*
X133650500Y-89503209D01*
X133726690Y-89541304D01*
X133802880Y-89541304D01*
X134069547Y-89541304D02*
X134069547Y-89007971D01*
X134069547Y-88741304D02*
X134031452Y-88779400D01*
X134069547Y-88817495D01*
X134107642Y-88779400D01*
X134069547Y-88741304D01*
X134069547Y-88817495D01*
X134374309Y-89007971D02*
X134564785Y-89541304D01*
X134755261Y-89007971D01*
X135364785Y-89503209D02*
X135288595Y-89541304D01*
X135136214Y-89541304D01*
X135060023Y-89503209D01*
X135021928Y-89427019D01*
X135021928Y-89122257D01*
X135060023Y-89046066D01*
X135136214Y-89007971D01*
X135288595Y-89007971D01*
X135364785Y-89046066D01*
X135402880Y-89122257D01*
X135402880Y-89198447D01*
X135021928Y-89274638D01*
X136812404Y-89541304D02*
X136545738Y-89160352D01*
X136355261Y-89541304D02*
X136355261Y-88741304D01*
X136660023Y-88741304D01*
X136736214Y-88779400D01*
X136774309Y-88817495D01*
X136812404Y-88893685D01*
X136812404Y-89007971D01*
X136774309Y-89084161D01*
X136736214Y-89122257D01*
X136660023Y-89160352D01*
X136355261Y-89160352D01*
X137155261Y-89541304D02*
X137155261Y-88741304D01*
X137460023Y-88741304D01*
X137536214Y-88779400D01*
X137574309Y-88817495D01*
X137612404Y-88893685D01*
X137612404Y-89007971D01*
X137574309Y-89084161D01*
X137536214Y-89122257D01*
X137460023Y-89160352D01*
X137155261Y-89160352D01*
X137955261Y-89541304D02*
X137955261Y-88741304D01*
X132240976Y-90472257D02*
X132507642Y-90472257D01*
X132621928Y-90891304D02*
X132240976Y-90891304D01*
X132240976Y-90091304D01*
X132621928Y-90091304D01*
X132926690Y-90853209D02*
X133040976Y-90891304D01*
X133231452Y-90891304D01*
X133307642Y-90853209D01*
X133345738Y-90815114D01*
X133383833Y-90738923D01*
X133383833Y-90662733D01*
X133345738Y-90586542D01*
X133307642Y-90548447D01*
X133231452Y-90510352D01*
X133079071Y-90472257D01*
X133002880Y-90434161D01*
X132964785Y-90396066D01*
X132926690Y-90319876D01*
X132926690Y-90243685D01*
X132964785Y-90167495D01*
X133002880Y-90129400D01*
X133079071Y-90091304D01*
X133269547Y-90091304D01*
X133383833Y-90129400D01*
X133612404Y-90091304D02*
X134069547Y-90091304D01*
X133840976Y-90891304D02*
X133840976Y-90091304D01*
X134488595Y-90091304D02*
X134640976Y-90091304D01*
X134717166Y-90129400D01*
X134793357Y-90205590D01*
X134831452Y-90357971D01*
X134831452Y-90624638D01*
X134793357Y-90777019D01*
X134717166Y-90853209D01*
X134640976Y-90891304D01*
X134488595Y-90891304D01*
X134412404Y-90853209D01*
X134336214Y-90777019D01*
X134298119Y-90624638D01*
X134298119Y-90357971D01*
X134336214Y-90205590D01*
X134412404Y-90129400D01*
X134488595Y-90091304D01*
X135174309Y-90891304D02*
X135174309Y-90091304D01*
X135479071Y-90091304D01*
X135555261Y-90129400D01*
X135593357Y-90167495D01*
X135631452Y-90243685D01*
X135631452Y-90357971D01*
X135593357Y-90434161D01*
X135555261Y-90472257D01*
X135479071Y-90510352D01*
X135174309Y-90510352D01*
X135783833Y-90967495D02*
X136393357Y-90967495D01*
X136583833Y-90891304D02*
X136583833Y-90091304D01*
X137040976Y-90891304D01*
X137040976Y-90091304D01*
X97732604Y-109702580D02*
X97732604Y-110159723D01*
X97732604Y-109931152D02*
X96932604Y-109931152D01*
X97046890Y-110007342D01*
X97123080Y-110083533D01*
X97161176Y-110159723D01*
X97008795Y-109397819D02*
X96970700Y-109359723D01*
X96932604Y-109283533D01*
X96932604Y-109093057D01*
X96970700Y-109016866D01*
X97008795Y-108978771D01*
X97084985Y-108940676D01*
X97161176Y-108940676D01*
X97275461Y-108978771D01*
X97732604Y-109435914D01*
X97732604Y-108940676D01*
D12*
X96996295Y-122580371D02*
X96958200Y-122542276D01*
X96920104Y-122466085D01*
X96920104Y-122275609D01*
X96958200Y-122199419D01*
X96996295Y-122161323D01*
X97072485Y-122123228D01*
X97148676Y-122123228D01*
X97262961Y-122161323D01*
X97720104Y-122618466D01*
X97720104Y-122123228D01*
D11*
X96932604Y-84747019D02*
X96932604Y-84251780D01*
X97237366Y-84518447D01*
X97237366Y-84404161D01*
X97275461Y-84327971D01*
X97313557Y-84289876D01*
X97389747Y-84251780D01*
X97580223Y-84251780D01*
X97656414Y-84289876D01*
X97694509Y-84327971D01*
X97732604Y-84404161D01*
X97732604Y-84632733D01*
X97694509Y-84708923D01*
X97656414Y-84747019D01*
X97008795Y-83947019D02*
X96970700Y-83908923D01*
X96932604Y-83832733D01*
X96932604Y-83642257D01*
X96970700Y-83566066D01*
X97008795Y-83527971D01*
X97084985Y-83489876D01*
X97161176Y-83489876D01*
X97275461Y-83527971D01*
X97732604Y-83985114D01*
X97732604Y-83489876D01*
X97199271Y-74167971D02*
X97732604Y-74167971D01*
X96894509Y-74358447D02*
X97465938Y-74548923D01*
X97465938Y-74053685D01*
X96932604Y-73596542D02*
X96932604Y-73520352D01*
X96970700Y-73444161D01*
X97008795Y-73406066D01*
X97084985Y-73367971D01*
X97237366Y-73329876D01*
X97427842Y-73329876D01*
X97580223Y-73367971D01*
X97656414Y-73406066D01*
X97694509Y-73444161D01*
X97732604Y-73520352D01*
X97732604Y-73596542D01*
X97694509Y-73672733D01*
X97656414Y-73710828D01*
X97580223Y-73748923D01*
X97427842Y-73787019D01*
X97237366Y-73787019D01*
X97084985Y-73748923D01*
X97008795Y-73710828D01*
X96970700Y-73672733D01*
X96932604Y-73596542D01*
X97008795Y-97434323D02*
X96970700Y-97396228D01*
X96932604Y-97320038D01*
X96932604Y-97129561D01*
X96970700Y-97053371D01*
X97008795Y-97015276D01*
X97084985Y-96977180D01*
X97161176Y-96977180D01*
X97275461Y-97015276D01*
X97732604Y-97472419D01*
X97732604Y-96977180D01*
X97008795Y-96672419D02*
X96970700Y-96634323D01*
X96932604Y-96558133D01*
X96932604Y-96367657D01*
X96970700Y-96291466D01*
X97008795Y-96253371D01*
X97084985Y-96215276D01*
X97161176Y-96215276D01*
X97275461Y-96253371D01*
X97732604Y-96710514D01*
X97732604Y-96215276D01*
X117735204Y-84899419D02*
X117735204Y-84404180D01*
X118039966Y-84670847D01*
X118039966Y-84556561D01*
X118078061Y-84480371D01*
X118116157Y-84442276D01*
X118192347Y-84404180D01*
X118382823Y-84404180D01*
X118459014Y-84442276D01*
X118497109Y-84480371D01*
X118535204Y-84556561D01*
X118535204Y-84785133D01*
X118497109Y-84861323D01*
X118459014Y-84899419D01*
X118535204Y-83642276D02*
X118535204Y-84099419D01*
X118535204Y-83870847D02*
X117735204Y-83870847D01*
X117849490Y-83947038D01*
X117925680Y-84023228D01*
X117963776Y-84099419D01*
X118535204Y-109854980D02*
X118535204Y-110312123D01*
X118535204Y-110083552D02*
X117735204Y-110083552D01*
X117849490Y-110159742D01*
X117925680Y-110235933D01*
X117963776Y-110312123D01*
X118535204Y-109093076D02*
X118535204Y-109550219D01*
X118535204Y-109321647D02*
X117735204Y-109321647D01*
X117849490Y-109397838D01*
X117925680Y-109474028D01*
X117963776Y-109550219D01*
X117811395Y-97586723D02*
X117773300Y-97548628D01*
X117735204Y-97472438D01*
X117735204Y-97281961D01*
X117773300Y-97205771D01*
X117811395Y-97167676D01*
X117887585Y-97129580D01*
X117963776Y-97129580D01*
X118078061Y-97167676D01*
X118535204Y-97624819D01*
X118535204Y-97129580D01*
X118535204Y-96367676D02*
X118535204Y-96824819D01*
X118535204Y-96596247D02*
X117735204Y-96596247D01*
X117849490Y-96672438D01*
X117925680Y-96748628D01*
X117963776Y-96824819D01*
X117735204Y-74739419D02*
X117735204Y-74244180D01*
X118039966Y-74510847D01*
X118039966Y-74396561D01*
X118078061Y-74320371D01*
X118116157Y-74282276D01*
X118192347Y-74244180D01*
X118382823Y-74244180D01*
X118459014Y-74282276D01*
X118497109Y-74320371D01*
X118535204Y-74396561D01*
X118535204Y-74625133D01*
X118497109Y-74701323D01*
X118459014Y-74739419D01*
X118535204Y-73863228D02*
X118535204Y-73710847D01*
X118497109Y-73634657D01*
X118459014Y-73596561D01*
X118344728Y-73520371D01*
X118192347Y-73482276D01*
X117887585Y-73482276D01*
X117811395Y-73520371D01*
X117773300Y-73558466D01*
X117735204Y-73634657D01*
X117735204Y-73787038D01*
X117773300Y-73863228D01*
X117811395Y-73901323D01*
X117887585Y-73939419D01*
X118078061Y-73939419D01*
X118154252Y-73901323D01*
X118192347Y-73863228D01*
X118230442Y-73787038D01*
X118230442Y-73634657D01*
X118192347Y-73558466D01*
X118154252Y-73520371D01*
X118078061Y-73482276D01*
D12*
X118522704Y-122275628D02*
X118522704Y-122732771D01*
X118522704Y-122504200D02*
X117722704Y-122504200D01*
X117836990Y-122580390D01*
X117913180Y-122656580D01*
X117951276Y-122732771D01*
D11*
X128885942Y-42011838D02*
X128885942Y-42278504D01*
X128466895Y-42392790D02*
X128466895Y-42011838D01*
X129266895Y-42011838D01*
X129266895Y-42392790D01*
X128504990Y-42697552D02*
X128466895Y-42811838D01*
X128466895Y-43002314D01*
X128504990Y-43078504D01*
X128543085Y-43116600D01*
X128619276Y-43154695D01*
X128695466Y-43154695D01*
X128771657Y-43116600D01*
X128809752Y-43078504D01*
X128847847Y-43002314D01*
X128885942Y-42849933D01*
X128924038Y-42773742D01*
X128962133Y-42735647D01*
X129038323Y-42697552D01*
X129114514Y-42697552D01*
X129190704Y-42735647D01*
X129228800Y-42773742D01*
X129266895Y-42849933D01*
X129266895Y-43040409D01*
X129228800Y-43154695D01*
X129266895Y-43383266D02*
X129266895Y-43840409D01*
X128466895Y-43611838D02*
X129266895Y-43611838D01*
X129266895Y-44259457D02*
X129266895Y-44411838D01*
X129228800Y-44488028D01*
X129152609Y-44564219D01*
X129000228Y-44602314D01*
X128733561Y-44602314D01*
X128581180Y-44564219D01*
X128504990Y-44488028D01*
X128466895Y-44411838D01*
X128466895Y-44259457D01*
X128504990Y-44183266D01*
X128581180Y-44107076D01*
X128733561Y-44068981D01*
X129000228Y-44068981D01*
X129152609Y-44107076D01*
X129228800Y-44183266D01*
X129266895Y-44259457D01*
X128466895Y-44945171D02*
X129266895Y-44945171D01*
X129266895Y-45249933D01*
X129228800Y-45326123D01*
X129190704Y-45364219D01*
X129114514Y-45402314D01*
X129000228Y-45402314D01*
X128924038Y-45364219D01*
X128885942Y-45326123D01*
X128847847Y-45249933D01*
X128847847Y-44945171D01*
X129266895Y-45668981D02*
X129266895Y-46164219D01*
X128962133Y-45897552D01*
X128962133Y-46011838D01*
X128924038Y-46088028D01*
X128885942Y-46126123D01*
X128809752Y-46164219D01*
X128619276Y-46164219D01*
X128543085Y-46126123D01*
X128504990Y-46088028D01*
X128466895Y-46011838D01*
X128466895Y-45783266D01*
X128504990Y-45707076D01*
X128543085Y-45668981D01*
X126447542Y-42011838D02*
X126447542Y-42278504D01*
X126028495Y-42392790D02*
X126028495Y-42011838D01*
X126828495Y-42011838D01*
X126828495Y-42392790D01*
X126066590Y-42697552D02*
X126028495Y-42811838D01*
X126028495Y-43002314D01*
X126066590Y-43078504D01*
X126104685Y-43116600D01*
X126180876Y-43154695D01*
X126257066Y-43154695D01*
X126333257Y-43116600D01*
X126371352Y-43078504D01*
X126409447Y-43002314D01*
X126447542Y-42849933D01*
X126485638Y-42773742D01*
X126523733Y-42735647D01*
X126599923Y-42697552D01*
X126676114Y-42697552D01*
X126752304Y-42735647D01*
X126790400Y-42773742D01*
X126828495Y-42849933D01*
X126828495Y-43040409D01*
X126790400Y-43154695D01*
X126828495Y-43383266D02*
X126828495Y-43840409D01*
X126028495Y-43611838D02*
X126828495Y-43611838D01*
X126828495Y-44259457D02*
X126828495Y-44411838D01*
X126790400Y-44488028D01*
X126714209Y-44564219D01*
X126561828Y-44602314D01*
X126295161Y-44602314D01*
X126142780Y-44564219D01*
X126066590Y-44488028D01*
X126028495Y-44411838D01*
X126028495Y-44259457D01*
X126066590Y-44183266D01*
X126142780Y-44107076D01*
X126295161Y-44068981D01*
X126561828Y-44068981D01*
X126714209Y-44107076D01*
X126790400Y-44183266D01*
X126828495Y-44259457D01*
X126028495Y-44945171D02*
X126828495Y-44945171D01*
X126828495Y-45249933D01*
X126790400Y-45326123D01*
X126752304Y-45364219D01*
X126676114Y-45402314D01*
X126561828Y-45402314D01*
X126485638Y-45364219D01*
X126447542Y-45326123D01*
X126409447Y-45249933D01*
X126409447Y-44945171D01*
X126752304Y-45707076D02*
X126790400Y-45745171D01*
X126828495Y-45821361D01*
X126828495Y-46011838D01*
X126790400Y-46088028D01*
X126752304Y-46126123D01*
X126676114Y-46164219D01*
X126599923Y-46164219D01*
X126485638Y-46126123D01*
X126028495Y-45668981D01*
X126028495Y-46164219D01*
X123729742Y-42011838D02*
X123729742Y-42278504D01*
X123310695Y-42392790D02*
X123310695Y-42011838D01*
X124110695Y-42011838D01*
X124110695Y-42392790D01*
X123348790Y-42697552D02*
X123310695Y-42811838D01*
X123310695Y-43002314D01*
X123348790Y-43078504D01*
X123386885Y-43116600D01*
X123463076Y-43154695D01*
X123539266Y-43154695D01*
X123615457Y-43116600D01*
X123653552Y-43078504D01*
X123691647Y-43002314D01*
X123729742Y-42849933D01*
X123767838Y-42773742D01*
X123805933Y-42735647D01*
X123882123Y-42697552D01*
X123958314Y-42697552D01*
X124034504Y-42735647D01*
X124072600Y-42773742D01*
X124110695Y-42849933D01*
X124110695Y-43040409D01*
X124072600Y-43154695D01*
X124110695Y-43383266D02*
X124110695Y-43840409D01*
X123310695Y-43611838D02*
X124110695Y-43611838D01*
X124110695Y-44259457D02*
X124110695Y-44411838D01*
X124072600Y-44488028D01*
X123996409Y-44564219D01*
X123844028Y-44602314D01*
X123577361Y-44602314D01*
X123424980Y-44564219D01*
X123348790Y-44488028D01*
X123310695Y-44411838D01*
X123310695Y-44259457D01*
X123348790Y-44183266D01*
X123424980Y-44107076D01*
X123577361Y-44068981D01*
X123844028Y-44068981D01*
X123996409Y-44107076D01*
X124072600Y-44183266D01*
X124110695Y-44259457D01*
X123310695Y-44945171D02*
X124110695Y-44945171D01*
X124110695Y-45249933D01*
X124072600Y-45326123D01*
X124034504Y-45364219D01*
X123958314Y-45402314D01*
X123844028Y-45402314D01*
X123767838Y-45364219D01*
X123729742Y-45326123D01*
X123691647Y-45249933D01*
X123691647Y-44945171D01*
X123310695Y-46164219D02*
X123310695Y-45707076D01*
X123310695Y-45935647D02*
X124110695Y-45935647D01*
X123996409Y-45859457D01*
X123920219Y-45783266D01*
X123882123Y-45707076D01*
D12*
X120654819Y-43697638D02*
X121131009Y-43364304D01*
X120654819Y-43126209D02*
X121654819Y-43126209D01*
X121654819Y-43507161D01*
X121607200Y-43602400D01*
X121559580Y-43650019D01*
X121464342Y-43697638D01*
X121321485Y-43697638D01*
X121226247Y-43650019D01*
X121178628Y-43602400D01*
X121131009Y-43507161D01*
X121131009Y-43126209D01*
X120654819Y-44126209D02*
X121654819Y-44126209D01*
X121654819Y-44507161D01*
X121607200Y-44602400D01*
X121559580Y-44650019D01*
X121464342Y-44697638D01*
X121321485Y-44697638D01*
X121226247Y-44650019D01*
X121178628Y-44602400D01*
X121131009Y-44507161D01*
X121131009Y-44126209D01*
X120654819Y-45126209D02*
X121654819Y-45126209D01*
X121654819Y-46078590D02*
X121654819Y-45602400D01*
X121178628Y-45554780D01*
X121226247Y-45602400D01*
X121273866Y-45697638D01*
X121273866Y-45935733D01*
X121226247Y-46030971D01*
X121178628Y-46078590D01*
X121083390Y-46126209D01*
X120845295Y-46126209D01*
X120750057Y-46078590D01*
X120702438Y-46030971D01*
X120654819Y-45935733D01*
X120654819Y-45697638D01*
X120702438Y-45602400D01*
X120750057Y-45554780D01*
X118089419Y-43697638D02*
X118565609Y-43364304D01*
X118089419Y-43126209D02*
X119089419Y-43126209D01*
X119089419Y-43507161D01*
X119041800Y-43602400D01*
X118994180Y-43650019D01*
X118898942Y-43697638D01*
X118756085Y-43697638D01*
X118660847Y-43650019D01*
X118613228Y-43602400D01*
X118565609Y-43507161D01*
X118565609Y-43126209D01*
X118089419Y-44126209D02*
X119089419Y-44126209D01*
X119089419Y-44507161D01*
X119041800Y-44602400D01*
X118994180Y-44650019D01*
X118898942Y-44697638D01*
X118756085Y-44697638D01*
X118660847Y-44650019D01*
X118613228Y-44602400D01*
X118565609Y-44507161D01*
X118565609Y-44126209D01*
X118089419Y-45126209D02*
X119089419Y-45126209D01*
X118756085Y-46030971D02*
X118089419Y-46030971D01*
X119137038Y-45792876D02*
X118422752Y-45554780D01*
X118422752Y-46173828D01*
X107954819Y-44173828D02*
X108431009Y-43840495D01*
X107954819Y-43602399D02*
X108954819Y-43602399D01*
X108954819Y-43983352D01*
X108907200Y-44078590D01*
X108859580Y-44126209D01*
X108764342Y-44173828D01*
X108621485Y-44173828D01*
X108526247Y-44126209D01*
X108478628Y-44078590D01*
X108431009Y-43983352D01*
X108431009Y-43602399D01*
X108954819Y-44507161D02*
X107954819Y-45173828D01*
X108954819Y-45173828D02*
X107954819Y-44507161D01*
X107954819Y-45554780D02*
X108954819Y-45554780D01*
X108954819Y-45792875D01*
X108907200Y-45935733D01*
X108811961Y-46030971D01*
X108716723Y-46078590D01*
X108526247Y-46126209D01*
X108383390Y-46126209D01*
X108192914Y-46078590D01*
X108097676Y-46030971D01*
X108002438Y-45935733D01*
X107954819Y-45792875D01*
X107954819Y-45554780D01*
X106313219Y-43697638D02*
X106313219Y-44269066D01*
X105313219Y-43983352D02*
X106313219Y-43983352D01*
X106313219Y-44507162D02*
X105313219Y-45173828D01*
X106313219Y-45173828D02*
X105313219Y-44507162D01*
X105313219Y-45554781D02*
X106313219Y-45554781D01*
X106313219Y-45792876D01*
X106265600Y-45935733D01*
X106170361Y-46030971D01*
X106075123Y-46078590D01*
X105884647Y-46126209D01*
X105741790Y-46126209D01*
X105551314Y-46078590D01*
X105456076Y-46030971D01*
X105360838Y-45935733D01*
X105313219Y-45792876D01*
X105313219Y-45554781D01*
X110672619Y-43697638D02*
X111148809Y-43364304D01*
X110672619Y-43126209D02*
X111672619Y-43126209D01*
X111672619Y-43507161D01*
X111625000Y-43602400D01*
X111577380Y-43650019D01*
X111482142Y-43697638D01*
X111339285Y-43697638D01*
X111244047Y-43650019D01*
X111196428Y-43602400D01*
X111148809Y-43507161D01*
X111148809Y-43126209D01*
X110672619Y-44126209D02*
X111672619Y-44126209D01*
X111672619Y-44507161D01*
X111625000Y-44602400D01*
X111577380Y-44650019D01*
X111482142Y-44697638D01*
X111339285Y-44697638D01*
X111244047Y-44650019D01*
X111196428Y-44602400D01*
X111148809Y-44507161D01*
X111148809Y-44126209D01*
X110672619Y-45126209D02*
X111672619Y-45126209D01*
X110672619Y-46126209D02*
X110672619Y-45554780D01*
X110672619Y-45840495D02*
X111672619Y-45840495D01*
X111529761Y-45745257D01*
X111434523Y-45650019D01*
X111386904Y-45554780D01*
X113085619Y-43697638D02*
X113561809Y-43364304D01*
X113085619Y-43126209D02*
X114085619Y-43126209D01*
X114085619Y-43507161D01*
X114038000Y-43602400D01*
X113990380Y-43650019D01*
X113895142Y-43697638D01*
X113752285Y-43697638D01*
X113657047Y-43650019D01*
X113609428Y-43602400D01*
X113561809Y-43507161D01*
X113561809Y-43126209D01*
X113085619Y-44126209D02*
X114085619Y-44126209D01*
X114085619Y-44507161D01*
X114038000Y-44602400D01*
X113990380Y-44650019D01*
X113895142Y-44697638D01*
X113752285Y-44697638D01*
X113657047Y-44650019D01*
X113609428Y-44602400D01*
X113561809Y-44507161D01*
X113561809Y-44126209D01*
X113085619Y-45126209D02*
X114085619Y-45126209D01*
X113990380Y-45554780D02*
X114038000Y-45602400D01*
X114085619Y-45697638D01*
X114085619Y-45935733D01*
X114038000Y-46030971D01*
X113990380Y-46078590D01*
X113895142Y-46126209D01*
X113799904Y-46126209D01*
X113657047Y-46078590D01*
X113085619Y-45507161D01*
X113085619Y-46126209D01*
X115574819Y-43697638D02*
X116051009Y-43364304D01*
X115574819Y-43126209D02*
X116574819Y-43126209D01*
X116574819Y-43507161D01*
X116527200Y-43602400D01*
X116479580Y-43650019D01*
X116384342Y-43697638D01*
X116241485Y-43697638D01*
X116146247Y-43650019D01*
X116098628Y-43602400D01*
X116051009Y-43507161D01*
X116051009Y-43126209D01*
X115574819Y-44126209D02*
X116574819Y-44126209D01*
X116574819Y-44507161D01*
X116527200Y-44602400D01*
X116479580Y-44650019D01*
X116384342Y-44697638D01*
X116241485Y-44697638D01*
X116146247Y-44650019D01*
X116098628Y-44602400D01*
X116051009Y-44507161D01*
X116051009Y-44126209D01*
X115574819Y-45126209D02*
X116574819Y-45126209D01*
X116574819Y-45507161D02*
X116574819Y-46126209D01*
X116193866Y-45792876D01*
X116193866Y-45935733D01*
X116146247Y-46030971D01*
X116098628Y-46078590D01*
X116003390Y-46126209D01*
X115765295Y-46126209D01*
X115670057Y-46078590D01*
X115622438Y-46030971D01*
X115574819Y-45935733D01*
X115574819Y-45650019D01*
X115622438Y-45554780D01*
X115670057Y-45507161D01*
D11*
X116840000Y-124942600D02*
X116840000Y-71602600D01*
X116840000Y-71602600D02*
X109220000Y-71602600D01*
X109220000Y-124942600D02*
X116840000Y-124942600D01*
X109220000Y-100812600D02*
X109220000Y-124942600D01*
X109220000Y-71602600D02*
X109220000Y-95732600D01*
X106399000Y-124928300D02*
X106399000Y-71588300D01*
X106399000Y-71588300D02*
X98779000Y-71588300D01*
X98779000Y-124928300D02*
X106399000Y-124928300D01*
X98779000Y-100798300D02*
X98779000Y-124928300D01*
X98779000Y-71588300D02*
X98779000Y-95718300D01*
D10*
X106883200Y-52527200D02*
X106019600Y-52527200D01*
X105206800Y-52527200D02*
X106070400Y-51155600D01*
X106019600Y-52527200D02*
X105206800Y-52527200D01*
X106019600Y-54254400D02*
X106019600Y-52527200D01*
X106070400Y-51155600D02*
X106883200Y-52527200D01*
X106070400Y-51155600D02*
X106070400Y-49530000D01*
X109423200Y-52527200D02*
X108559600Y-52527200D01*
X107746800Y-52527200D02*
X108610400Y-51155600D01*
X108559600Y-52527200D02*
X107746800Y-52527200D01*
X108559600Y-54254400D02*
X108559600Y-52527200D01*
X108610400Y-51155600D02*
X109423200Y-52527200D01*
X108610400Y-51155600D02*
X108610400Y-49530000D01*
X111963200Y-52527200D02*
X111099600Y-52527200D01*
X110286800Y-52527200D02*
X111150400Y-51155600D01*
X111099600Y-52527200D02*
X110286800Y-52527200D01*
X111099600Y-54254400D02*
X111099600Y-52527200D01*
X111150400Y-51155600D02*
X111963200Y-52527200D01*
X111150400Y-51155600D02*
X111150400Y-49530000D01*
X114503200Y-52527200D02*
X113639600Y-52527200D01*
X112826800Y-52527200D02*
X113690400Y-51155600D01*
X113639600Y-52527200D02*
X112826800Y-52527200D01*
X113639600Y-54254400D02*
X113639600Y-52527200D01*
X113690400Y-51155600D02*
X114503200Y-52527200D01*
X113690400Y-51155600D02*
X113690400Y-49530000D01*
X117043200Y-52527200D02*
X116179600Y-52527200D01*
X115366800Y-52527200D02*
X116230400Y-51155600D01*
X116179600Y-52527200D02*
X115366800Y-52527200D01*
X116179600Y-54254400D02*
X116179600Y-52527200D01*
X116230400Y-51155600D02*
X117043200Y-52527200D01*
X116230400Y-51155600D02*
X116230400Y-49530000D01*
X119583200Y-52527200D02*
X118719600Y-52527200D01*
X117906800Y-52527200D02*
X118770400Y-51155600D01*
X118719600Y-52527200D02*
X117906800Y-52527200D01*
X118719600Y-54254400D02*
X118719600Y-52527200D01*
X118770400Y-51155600D02*
X119583200Y-52527200D01*
X118770400Y-51155600D02*
X118770400Y-49530000D01*
X122123200Y-52527200D02*
X121259600Y-52527200D01*
X120446800Y-52527200D02*
X121310400Y-51155600D01*
X121259600Y-52527200D02*
X120446800Y-52527200D01*
X121259600Y-54254400D02*
X121259600Y-52527200D01*
X121310400Y-51155600D02*
X122123200Y-52527200D01*
X121310400Y-51155600D02*
X121310400Y-49530000D01*
X124663200Y-52527200D02*
X123799600Y-52527200D01*
X122986800Y-52527200D02*
X123850400Y-51155600D01*
X123799600Y-52527200D02*
X122986800Y-52527200D01*
X123799600Y-54254400D02*
X123799600Y-52527200D01*
X123850400Y-51155600D02*
X124663200Y-52527200D01*
X123850400Y-51155600D02*
X123850400Y-49530000D01*
X127203200Y-52527200D02*
X126339600Y-52527200D01*
X125526800Y-52527200D02*
X126390400Y-51155600D01*
X126339600Y-52527200D02*
X125526800Y-52527200D01*
X126339600Y-54254400D02*
X126339600Y-52527200D01*
X126390400Y-51155600D02*
X127203200Y-52527200D01*
X126390400Y-51155600D02*
X126390400Y-49530000D01*
X128879600Y-51155600D02*
X128879600Y-49530000D01*
X129692400Y-52527200D02*
X128828800Y-52527200D01*
X128879600Y-51155600D02*
X129692400Y-52527200D01*
X128016000Y-52527200D02*
X128879600Y-51155600D01*
X128828800Y-52527200D02*
X128016000Y-52527200D01*
X128828800Y-54254400D02*
X128828800Y-52527200D01*
X130098800Y-56845200D02*
X130098800Y-46685200D01*
X130098800Y-46685200D02*
X104444800Y-46685200D01*
X104444800Y-46685200D02*
X104444800Y-55575200D01*
X105968800Y-56845200D02*
X130098800Y-56845200D01*
X105968800Y-56845200D02*
X104444800Y-55575200D01*
D13*
X122739400Y-69216400D02*
X122739400Y-68886400D01*
X122739400Y-68886400D02*
X129279400Y-68886400D01*
X129279400Y-68886400D02*
X129279400Y-69216400D01*
X122739400Y-71296400D02*
X122739400Y-71626400D01*
X122739400Y-71626400D02*
X129279400Y-71626400D01*
X129279400Y-71626400D02*
X129279400Y-71296400D01*
X122739400Y-72429500D02*
X122739400Y-72099500D01*
X122739400Y-72099500D02*
X129279400Y-72099500D01*
X129279400Y-72099500D02*
X129279400Y-72429500D01*
X122739400Y-74509500D02*
X122739400Y-74839500D01*
X122739400Y-74839500D02*
X129279400Y-74839500D01*
X129279400Y-74839500D02*
X129279400Y-74509500D01*
X122739400Y-75642600D02*
X122739400Y-75312600D01*
X122739400Y-75312600D02*
X129279400Y-75312600D01*
X129279400Y-75312600D02*
X129279400Y-75642600D01*
X122739400Y-77722600D02*
X122739400Y-78052600D01*
X122739400Y-78052600D02*
X129279400Y-78052600D01*
X129279400Y-78052600D02*
X129279400Y-77722600D01*
X122739400Y-78855700D02*
X122739400Y-78525700D01*
X122739400Y-78525700D02*
X129279400Y-78525700D01*
X129279400Y-78525700D02*
X129279400Y-78855700D01*
X122739400Y-80935700D02*
X122739400Y-81265700D01*
X122739400Y-81265700D02*
X129279400Y-81265700D01*
X129279400Y-81265700D02*
X129279400Y-80935700D01*
X122739400Y-82068800D02*
X122739400Y-81738800D01*
X122739400Y-81738800D02*
X129279400Y-81738800D01*
X129279400Y-81738800D02*
X129279400Y-82068800D01*
X122739400Y-84148800D02*
X122739400Y-84478800D01*
X122739400Y-84478800D02*
X129279400Y-84478800D01*
X129279400Y-84478800D02*
X129279400Y-84148800D01*
X99823400Y-66744600D02*
X99493400Y-66744600D01*
X99493400Y-66744600D02*
X99493400Y-60204600D01*
X99493400Y-60204600D02*
X99823400Y-60204600D01*
X101903400Y-66744600D02*
X102233400Y-66744600D01*
X102233400Y-66744600D02*
X102233400Y-60204600D01*
X102233400Y-60204600D02*
X101903400Y-60204600D01*
X123552200Y-117616100D02*
X123552200Y-117286100D01*
X123552200Y-117286100D02*
X130092200Y-117286100D01*
X130092200Y-117286100D02*
X130092200Y-117616100D01*
X123552200Y-119696100D02*
X123552200Y-120026100D01*
X123552200Y-120026100D02*
X130092200Y-120026100D01*
X130092200Y-120026100D02*
X130092200Y-119696100D01*
D14*
X104798800Y-132370500D02*
G75*
G03*
X104798800Y-132370500I-50800J0D01*
G01*
D10*
X107897600Y-131710100D02*
X105357600Y-131710100D01*
X105357600Y-131710100D02*
X105357600Y-137653700D01*
X105357600Y-137653700D02*
X107897600Y-137653700D01*
X107897600Y-137653700D02*
X107897600Y-131710100D01*
D14*
X107722799Y-132387901D02*
G75*
G03*
X107722799Y-132387901I-50800J0D01*
G01*
D10*
X110821599Y-131727501D02*
X108281599Y-131727501D01*
X108281599Y-131727501D02*
X108281599Y-137671101D01*
X108281599Y-137671101D02*
X110821599Y-137671101D01*
X110821599Y-137671101D02*
X110821599Y-131727501D01*
D14*
X110640800Y-132370500D02*
G75*
G03*
X110640800Y-132370500I-50800J0D01*
G01*
D10*
X113739600Y-131710100D02*
X111199600Y-131710100D01*
X111199600Y-131710100D02*
X111199600Y-137653700D01*
X111199600Y-137653700D02*
X113739600Y-137653700D01*
X113739600Y-137653700D02*
X113739600Y-131710100D01*
D11*
X128860800Y-138542800D02*
X128860800Y-124542800D01*
X132860800Y-138542800D02*
X128860800Y-138542800D01*
X132860800Y-124542800D02*
X132860800Y-138542800D01*
X128860800Y-124542800D02*
X132860800Y-124542800D01*
D10*
X118300500Y-138518900D02*
X125920500Y-138518900D01*
X125920500Y-138518900D02*
X125920500Y-128358900D01*
X125920500Y-128358900D02*
X118300500Y-128358900D01*
X118300500Y-128358900D02*
X118300500Y-138518900D01*
D13*
X158073400Y-134915600D02*
X158073400Y-136245600D01*
X156743400Y-134915600D02*
X158073400Y-134915600D01*
X155473400Y-134915600D02*
X155473400Y-137575600D01*
X155473400Y-137575600D02*
X137633400Y-137575600D01*
X155473400Y-134915600D02*
X137633400Y-134915600D01*
X137633400Y-134915600D02*
X137633400Y-137575600D01*
X127317500Y-108445300D02*
X125793500Y-108445300D01*
X127317500Y-110604300D02*
X127317500Y-108445300D01*
X125793500Y-110604300D02*
X127317500Y-110604300D01*
X125793500Y-108445300D02*
X125793500Y-110604300D01*
X127317500Y-103365300D02*
X125793500Y-103365300D01*
X127317500Y-105524300D02*
X127317500Y-103365300D01*
X125793500Y-105524300D02*
X127317500Y-105524300D01*
X125793500Y-103365300D02*
X125793500Y-105524300D01*
X127317500Y-98285300D02*
X125793500Y-98285300D01*
X127317500Y-100444300D02*
X127317500Y-98285300D01*
X125793500Y-100444300D02*
X127317500Y-100444300D01*
X125793500Y-98285300D02*
X125793500Y-100444300D01*
X127317500Y-93205300D02*
X125793500Y-93205300D01*
X127317500Y-95364300D02*
X127317500Y-93205300D01*
X125793500Y-95364300D02*
X127317500Y-95364300D01*
X125793500Y-93205300D02*
X125793500Y-95364300D01*
D10*
X131635500Y-113398300D02*
X121221500Y-113398300D01*
X131635500Y-90538300D02*
X121221500Y-90538300D01*
X131635500Y-113398300D02*
X131635500Y-90538300D01*
X121221500Y-90538300D02*
X121221500Y-113398300D01*
D13*
X103131750Y-66744600D02*
X102801750Y-66744600D01*
X102801750Y-66744600D02*
X102801750Y-60204600D01*
X102801750Y-60204600D02*
X103131750Y-60204600D01*
X105211750Y-66744600D02*
X105541750Y-66744600D01*
X105541750Y-66744600D02*
X105541750Y-60204600D01*
X105541750Y-60204600D02*
X105211750Y-60204600D01*
X106440100Y-66744600D02*
X106110100Y-66744600D01*
X106110100Y-66744600D02*
X106110100Y-60204600D01*
X106110100Y-60204600D02*
X106440100Y-60204600D01*
X108520100Y-66744600D02*
X108850100Y-66744600D01*
X108850100Y-66744600D02*
X108850100Y-60204600D01*
X108850100Y-60204600D02*
X108520100Y-60204600D01*
X109748450Y-66744600D02*
X109418450Y-66744600D01*
X109418450Y-66744600D02*
X109418450Y-60204600D01*
X109418450Y-60204600D02*
X109748450Y-60204600D01*
X111828450Y-66744600D02*
X112158450Y-66744600D01*
X112158450Y-66744600D02*
X112158450Y-60204600D01*
X112158450Y-60204600D02*
X111828450Y-60204600D01*
X113056800Y-66744600D02*
X112726800Y-66744600D01*
X112726800Y-66744600D02*
X112726800Y-60204600D01*
X112726800Y-60204600D02*
X113056800Y-60204600D01*
X115136800Y-66744600D02*
X115466800Y-66744600D01*
X115466800Y-66744600D02*
X115466800Y-60204600D01*
X115466800Y-60204600D02*
X115136800Y-60204600D01*
D10*
X187756800Y-115849400D02*
X195376800Y-115849400D01*
X187756800Y-125247400D02*
X187756800Y-115849400D01*
X195376800Y-125247400D02*
X187756800Y-125247400D01*
X140258800Y-76733400D02*
X140258800Y-125755400D01*
X145592800Y-76733400D02*
X140258800Y-76733400D01*
X145592800Y-125755400D02*
X145592800Y-76733400D01*
X140258800Y-125755400D02*
X145592800Y-125755400D01*
X191566800Y-64795400D02*
X191566800Y-48539400D01*
X176834800Y-64795400D02*
X191566800Y-64795400D01*
X176834800Y-48539400D02*
X176834800Y-64795400D01*
X173278800Y-64795400D02*
X173278800Y-48539400D01*
X159816800Y-64795400D02*
X173278800Y-64795400D01*
X159816800Y-48539400D02*
X159816800Y-64795400D01*
X153974800Y-64287400D02*
X153974800Y-48539400D01*
X138988800Y-64287400D02*
X153974800Y-64287400D01*
D15*
X138861800Y-48539400D02*
X145846800Y-48539400D01*
X138861800Y-133629400D02*
X145846800Y-133629400D01*
X195376800Y-48539400D02*
X195376800Y-133629400D01*
X145846800Y-48539400D02*
X195376800Y-48539400D01*
X138861800Y-133629400D02*
X138861800Y-48539400D01*
X195376800Y-133629400D02*
X145846800Y-133629400D01*
D10*
X195376800Y-104165400D02*
X184708800Y-104165400D01*
X184708800Y-104165400D02*
X184708800Y-85115400D01*
X184708800Y-85115400D02*
X195376800Y-85115400D01*
D11*
X112550676Y-127773180D02*
X112550676Y-128487466D01*
X112503057Y-128630323D01*
X112407819Y-128725561D01*
X112264961Y-128773180D01*
X112169723Y-128773180D01*
X112979247Y-127868419D02*
X113026866Y-127820800D01*
X113122104Y-127773180D01*
X113360200Y-127773180D01*
X113455438Y-127820800D01*
X113503057Y-127868419D01*
X113550676Y-127963657D01*
X113550676Y-128058895D01*
X113503057Y-128201752D01*
X112931628Y-128773180D01*
X113550676Y-128773180D01*
X113931628Y-127868419D02*
X113979247Y-127820800D01*
X114074485Y-127773180D01*
X114312580Y-127773180D01*
X114407819Y-127820800D01*
X114455438Y-127868419D01*
X114503057Y-127963657D01*
X114503057Y-128058895D01*
X114455438Y-128201752D01*
X113884009Y-128773180D01*
X114503057Y-128773180D01*
X98352076Y-127773180D02*
X98352076Y-128487466D01*
X98304457Y-128630323D01*
X98209219Y-128725561D01*
X98066361Y-128773180D01*
X97971123Y-128773180D01*
X98780647Y-127868419D02*
X98828266Y-127820800D01*
X98923504Y-127773180D01*
X99161600Y-127773180D01*
X99256838Y-127820800D01*
X99304457Y-127868419D01*
X99352076Y-127963657D01*
X99352076Y-128058895D01*
X99304457Y-128201752D01*
X98733028Y-128773180D01*
X99352076Y-128773180D01*
X99685409Y-127773180D02*
X100304457Y-127773180D01*
X99971123Y-128154133D01*
X100113980Y-128154133D01*
X100209219Y-128201752D01*
X100256838Y-128249371D01*
X100304457Y-128344609D01*
X100304457Y-128582704D01*
X100256838Y-128677942D01*
X100209219Y-128725561D01*
X100113980Y-128773180D01*
X99828266Y-128773180D01*
X99733028Y-128725561D01*
X99685409Y-128677942D01*
X102184295Y-50023780D02*
X102184295Y-50833304D01*
X102231914Y-50928542D01*
X102279533Y-50976161D01*
X102374771Y-51023780D01*
X102565247Y-51023780D01*
X102660485Y-50976161D01*
X102708104Y-50928542D01*
X102755723Y-50833304D01*
X102755723Y-50023780D01*
X103660485Y-50023780D02*
X103470009Y-50023780D01*
X103374771Y-50071400D01*
X103327152Y-50119019D01*
X103231914Y-50261876D01*
X103184295Y-50452352D01*
X103184295Y-50833304D01*
X103231914Y-50928542D01*
X103279533Y-50976161D01*
X103374771Y-51023780D01*
X103565247Y-51023780D01*
X103660485Y-50976161D01*
X103708104Y-50928542D01*
X103755723Y-50833304D01*
X103755723Y-50595209D01*
X103708104Y-50499971D01*
X103660485Y-50452352D01*
X103565247Y-50404733D01*
X103374771Y-50404733D01*
X103279533Y-50452352D01*
X103231914Y-50499971D01*
X103184295Y-50595209D01*
X104222514Y-56306980D02*
X103651085Y-56306980D01*
X103936800Y-56306980D02*
X103936800Y-55306980D01*
X103841561Y-55449838D01*
X103746323Y-55545076D01*
X103651085Y-55592695D01*
X130975123Y-56637180D02*
X130403695Y-56637180D01*
X130689409Y-56637180D02*
X130689409Y-55637180D01*
X130594171Y-55780038D01*
X130498933Y-55875276D01*
X130403695Y-55922895D01*
X131594171Y-55637180D02*
X131689409Y-55637180D01*
X131784647Y-55684800D01*
X131832266Y-55732419D01*
X131879885Y-55827657D01*
X131927504Y-56018133D01*
X131927504Y-56256228D01*
X131879885Y-56446704D01*
X131832266Y-56541942D01*
X131784647Y-56589561D01*
X131689409Y-56637180D01*
X131594171Y-56637180D01*
X131498933Y-56589561D01*
X131451314Y-56541942D01*
X131403695Y-56446704D01*
X131356076Y-56256228D01*
X131356076Y-56018133D01*
X131403695Y-55827657D01*
X131451314Y-55732419D01*
X131498933Y-55684800D01*
X131594171Y-55637180D01*
X131691142Y-70700980D02*
X131357809Y-70224790D01*
X131119714Y-70700980D02*
X131119714Y-69700980D01*
X131500666Y-69700980D01*
X131595904Y-69748600D01*
X131643523Y-69796219D01*
X131691142Y-69891457D01*
X131691142Y-70034314D01*
X131643523Y-70129552D01*
X131595904Y-70177171D01*
X131500666Y-70224790D01*
X131119714Y-70224790D01*
X132024476Y-69700980D02*
X132643523Y-69700980D01*
X132310190Y-70081933D01*
X132453047Y-70081933D01*
X132548285Y-70129552D01*
X132595904Y-70177171D01*
X132643523Y-70272409D01*
X132643523Y-70510504D01*
X132595904Y-70605742D01*
X132548285Y-70653361D01*
X132453047Y-70700980D01*
X132167333Y-70700980D01*
X132072095Y-70653361D01*
X132024476Y-70605742D01*
X133548285Y-69700980D02*
X133072095Y-69700980D01*
X133024476Y-70177171D01*
X133072095Y-70129552D01*
X133167333Y-70081933D01*
X133405428Y-70081933D01*
X133500666Y-70129552D01*
X133548285Y-70177171D01*
X133595904Y-70272409D01*
X133595904Y-70510504D01*
X133548285Y-70605742D01*
X133500666Y-70653361D01*
X133405428Y-70700980D01*
X133167333Y-70700980D01*
X133072095Y-70653361D01*
X133024476Y-70605742D01*
X131691142Y-73914080D02*
X131357809Y-73437890D01*
X131119714Y-73914080D02*
X131119714Y-72914080D01*
X131500666Y-72914080D01*
X131595904Y-72961700D01*
X131643523Y-73009319D01*
X131691142Y-73104557D01*
X131691142Y-73247414D01*
X131643523Y-73342652D01*
X131595904Y-73390271D01*
X131500666Y-73437890D01*
X131119714Y-73437890D01*
X132024476Y-72914080D02*
X132643523Y-72914080D01*
X132310190Y-73295033D01*
X132453047Y-73295033D01*
X132548285Y-73342652D01*
X132595904Y-73390271D01*
X132643523Y-73485509D01*
X132643523Y-73723604D01*
X132595904Y-73818842D01*
X132548285Y-73866461D01*
X132453047Y-73914080D01*
X132167333Y-73914080D01*
X132072095Y-73866461D01*
X132024476Y-73818842D01*
X133500666Y-73247414D02*
X133500666Y-73914080D01*
X133262571Y-72866461D02*
X133024476Y-73580747D01*
X133643523Y-73580747D01*
X131691142Y-77127180D02*
X131357809Y-76650990D01*
X131119714Y-77127180D02*
X131119714Y-76127180D01*
X131500666Y-76127180D01*
X131595904Y-76174800D01*
X131643523Y-76222419D01*
X131691142Y-76317657D01*
X131691142Y-76460514D01*
X131643523Y-76555752D01*
X131595904Y-76603371D01*
X131500666Y-76650990D01*
X131119714Y-76650990D01*
X132024476Y-76127180D02*
X132643523Y-76127180D01*
X132310190Y-76508133D01*
X132453047Y-76508133D01*
X132548285Y-76555752D01*
X132595904Y-76603371D01*
X132643523Y-76698609D01*
X132643523Y-76936704D01*
X132595904Y-77031942D01*
X132548285Y-77079561D01*
X132453047Y-77127180D01*
X132167333Y-77127180D01*
X132072095Y-77079561D01*
X132024476Y-77031942D01*
X132976857Y-76127180D02*
X133595904Y-76127180D01*
X133262571Y-76508133D01*
X133405428Y-76508133D01*
X133500666Y-76555752D01*
X133548285Y-76603371D01*
X133595904Y-76698609D01*
X133595904Y-76936704D01*
X133548285Y-77031942D01*
X133500666Y-77079561D01*
X133405428Y-77127180D01*
X133119714Y-77127180D01*
X133024476Y-77079561D01*
X132976857Y-77031942D01*
X131691142Y-80340280D02*
X131357809Y-79864090D01*
X131119714Y-80340280D02*
X131119714Y-79340280D01*
X131500666Y-79340280D01*
X131595904Y-79387900D01*
X131643523Y-79435519D01*
X131691142Y-79530757D01*
X131691142Y-79673614D01*
X131643523Y-79768852D01*
X131595904Y-79816471D01*
X131500666Y-79864090D01*
X131119714Y-79864090D01*
X132024476Y-79340280D02*
X132643523Y-79340280D01*
X132310190Y-79721233D01*
X132453047Y-79721233D01*
X132548285Y-79768852D01*
X132595904Y-79816471D01*
X132643523Y-79911709D01*
X132643523Y-80149804D01*
X132595904Y-80245042D01*
X132548285Y-80292661D01*
X132453047Y-80340280D01*
X132167333Y-80340280D01*
X132072095Y-80292661D01*
X132024476Y-80245042D01*
X133024476Y-79435519D02*
X133072095Y-79387900D01*
X133167333Y-79340280D01*
X133405428Y-79340280D01*
X133500666Y-79387900D01*
X133548285Y-79435519D01*
X133595904Y-79530757D01*
X133595904Y-79625995D01*
X133548285Y-79768852D01*
X132976857Y-80340280D01*
X133595904Y-80340280D01*
X131691142Y-83553380D02*
X131357809Y-83077190D01*
X131119714Y-83553380D02*
X131119714Y-82553380D01*
X131500666Y-82553380D01*
X131595904Y-82601000D01*
X131643523Y-82648619D01*
X131691142Y-82743857D01*
X131691142Y-82886714D01*
X131643523Y-82981952D01*
X131595904Y-83029571D01*
X131500666Y-83077190D01*
X131119714Y-83077190D01*
X132024476Y-82553380D02*
X132643523Y-82553380D01*
X132310190Y-82934333D01*
X132453047Y-82934333D01*
X132548285Y-82981952D01*
X132595904Y-83029571D01*
X132643523Y-83124809D01*
X132643523Y-83362904D01*
X132595904Y-83458142D01*
X132548285Y-83505761D01*
X132453047Y-83553380D01*
X132167333Y-83553380D01*
X132072095Y-83505761D01*
X132024476Y-83458142D01*
X133595904Y-83553380D02*
X133024476Y-83553380D01*
X133310190Y-83553380D02*
X133310190Y-82553380D01*
X133214952Y-82696238D01*
X133119714Y-82791476D01*
X133024476Y-82839095D01*
X99591904Y-58883485D02*
X99210952Y-59150152D01*
X99591904Y-59340628D02*
X98791904Y-59340628D01*
X98791904Y-59035866D01*
X98830000Y-58959676D01*
X98868095Y-58921580D01*
X98944285Y-58883485D01*
X99058571Y-58883485D01*
X99134761Y-58921580D01*
X99172857Y-58959676D01*
X99210952Y-59035866D01*
X99210952Y-59340628D01*
X98868095Y-58578723D02*
X98830000Y-58540628D01*
X98791904Y-58464438D01*
X98791904Y-58273961D01*
X98830000Y-58197771D01*
X98868095Y-58159676D01*
X98944285Y-58121580D01*
X99020476Y-58121580D01*
X99134761Y-58159676D01*
X99591904Y-58616819D01*
X99591904Y-58121580D01*
X99591904Y-57740628D02*
X99591904Y-57588247D01*
X99553809Y-57512057D01*
X99515714Y-57473961D01*
X99401428Y-57397771D01*
X99249047Y-57359676D01*
X98944285Y-57359676D01*
X98868095Y-57397771D01*
X98830000Y-57435866D01*
X98791904Y-57512057D01*
X98791904Y-57664438D01*
X98830000Y-57740628D01*
X98868095Y-57778723D01*
X98944285Y-57816819D01*
X99134761Y-57816819D01*
X99210952Y-57778723D01*
X99249047Y-57740628D01*
X99287142Y-57664438D01*
X99287142Y-57512057D01*
X99249047Y-57435866D01*
X99210952Y-57397771D01*
X99134761Y-57359676D01*
X126179342Y-116738480D02*
X125846009Y-116262290D01*
X125607914Y-116738480D02*
X125607914Y-115738480D01*
X125988866Y-115738480D01*
X126084104Y-115786100D01*
X126131723Y-115833719D01*
X126179342Y-115928957D01*
X126179342Y-116071814D01*
X126131723Y-116167052D01*
X126084104Y-116214671D01*
X125988866Y-116262290D01*
X125607914Y-116262290D01*
X127131723Y-116738480D02*
X126560295Y-116738480D01*
X126846009Y-116738480D02*
X126846009Y-115738480D01*
X126750771Y-115881338D01*
X126655533Y-115976576D01*
X126560295Y-116024195D01*
X128084104Y-116738480D02*
X127512676Y-116738480D01*
X127798390Y-116738480D02*
X127798390Y-115738480D01*
X127703152Y-115881338D01*
X127607914Y-115976576D01*
X127512676Y-116024195D01*
X105540276Y-130298880D02*
X105540276Y-131013166D01*
X105492657Y-131156023D01*
X105397419Y-131251261D01*
X105254561Y-131298880D01*
X105159323Y-131298880D01*
X105968847Y-130394119D02*
X106016466Y-130346500D01*
X106111704Y-130298880D01*
X106349800Y-130298880D01*
X106445038Y-130346500D01*
X106492657Y-130394119D01*
X106540276Y-130489357D01*
X106540276Y-130584595D01*
X106492657Y-130727452D01*
X105921228Y-131298880D01*
X106540276Y-131298880D01*
X107016466Y-131298880D02*
X107206942Y-131298880D01*
X107302180Y-131251261D01*
X107349800Y-131203642D01*
X107445038Y-131060785D01*
X107492657Y-130870309D01*
X107492657Y-130489357D01*
X107445038Y-130394119D01*
X107397419Y-130346500D01*
X107302180Y-130298880D01*
X107111704Y-130298880D01*
X107016466Y-130346500D01*
X106968847Y-130394119D01*
X106921228Y-130489357D01*
X106921228Y-130727452D01*
X106968847Y-130822690D01*
X107016466Y-130870309D01*
X107111704Y-130917928D01*
X107302180Y-130917928D01*
X107397419Y-130870309D01*
X107445038Y-130822690D01*
X107492657Y-130727452D01*
X108612076Y-130298880D02*
X108612076Y-131013166D01*
X108564457Y-131156023D01*
X108469219Y-131251261D01*
X108326361Y-131298880D01*
X108231123Y-131298880D01*
X109040647Y-130394119D02*
X109088266Y-130346500D01*
X109183504Y-130298880D01*
X109421600Y-130298880D01*
X109516838Y-130346500D01*
X109564457Y-130394119D01*
X109612076Y-130489357D01*
X109612076Y-130584595D01*
X109564457Y-130727452D01*
X108993028Y-131298880D01*
X109612076Y-131298880D01*
X110183504Y-130727452D02*
X110088266Y-130679833D01*
X110040647Y-130632214D01*
X109993028Y-130536976D01*
X109993028Y-130489357D01*
X110040647Y-130394119D01*
X110088266Y-130346500D01*
X110183504Y-130298880D01*
X110373980Y-130298880D01*
X110469219Y-130346500D01*
X110516838Y-130394119D01*
X110564457Y-130489357D01*
X110564457Y-130536976D01*
X110516838Y-130632214D01*
X110469219Y-130679833D01*
X110373980Y-130727452D01*
X110183504Y-130727452D01*
X110088266Y-130775071D01*
X110040647Y-130822690D01*
X109993028Y-130917928D01*
X109993028Y-131108404D01*
X110040647Y-131203642D01*
X110088266Y-131251261D01*
X110183504Y-131298880D01*
X110373980Y-131298880D01*
X110469219Y-131251261D01*
X110516838Y-131203642D01*
X110564457Y-131108404D01*
X110564457Y-130917928D01*
X110516838Y-130822690D01*
X110469219Y-130775071D01*
X110373980Y-130727452D01*
X111915676Y-130298880D02*
X111915676Y-131013166D01*
X111868057Y-131156023D01*
X111772819Y-131251261D01*
X111629961Y-131298880D01*
X111534723Y-131298880D01*
X112344247Y-130394119D02*
X112391866Y-130346500D01*
X112487104Y-130298880D01*
X112725200Y-130298880D01*
X112820438Y-130346500D01*
X112868057Y-130394119D01*
X112915676Y-130489357D01*
X112915676Y-130584595D01*
X112868057Y-130727452D01*
X112296628Y-131298880D01*
X112915676Y-131298880D01*
X113249009Y-130298880D02*
X113915676Y-130298880D01*
X113487104Y-131298880D01*
X114818266Y-133023000D02*
X114818266Y-133423000D01*
X114818266Y-133223000D02*
X114118266Y-133223000D01*
X114218266Y-133289666D01*
X114284933Y-133356333D01*
X114318266Y-133423000D01*
X114237333Y-135683600D02*
X114204000Y-135650266D01*
X114170666Y-135583600D01*
X114170666Y-135416933D01*
X114204000Y-135350266D01*
X114237333Y-135316933D01*
X114304000Y-135283600D01*
X114370666Y-135283600D01*
X114470666Y-135316933D01*
X114870666Y-135716933D01*
X114870666Y-135283600D01*
X127917676Y-122743980D02*
X127917676Y-123458266D01*
X127870057Y-123601123D01*
X127774819Y-123696361D01*
X127631961Y-123743980D01*
X127536723Y-123743980D01*
X128346247Y-122839219D02*
X128393866Y-122791600D01*
X128489104Y-122743980D01*
X128727200Y-122743980D01*
X128822438Y-122791600D01*
X128870057Y-122839219D01*
X128917676Y-122934457D01*
X128917676Y-123029695D01*
X128870057Y-123172552D01*
X128298628Y-123743980D01*
X128917676Y-123743980D01*
X129774819Y-123077314D02*
X129774819Y-123743980D01*
X129536723Y-122696361D02*
X129298628Y-123410647D01*
X129917676Y-123410647D01*
X131177466Y-123447200D02*
X131177466Y-123847200D01*
X131177466Y-123647200D02*
X130477466Y-123647200D01*
X130577466Y-123713866D01*
X130644133Y-123780533D01*
X130677466Y-123847200D01*
X130477466Y-139109466D02*
X130477466Y-139242800D01*
X130510800Y-139309466D01*
X130544133Y-139342800D01*
X130644133Y-139409466D01*
X130777466Y-139442800D01*
X131044133Y-139442800D01*
X131110800Y-139409466D01*
X131144133Y-139376133D01*
X131177466Y-139309466D01*
X131177466Y-139176133D01*
X131144133Y-139109466D01*
X131110800Y-139076133D01*
X131044133Y-139042800D01*
X130877466Y-139042800D01*
X130810800Y-139076133D01*
X130777466Y-139109466D01*
X130744133Y-139176133D01*
X130744133Y-139309466D01*
X130777466Y-139376133D01*
X130810800Y-139409466D01*
X130877466Y-139442800D01*
X121161276Y-125639580D02*
X121161276Y-126353866D01*
X121113657Y-126496723D01*
X121018419Y-126591961D01*
X120875561Y-126639580D01*
X120780323Y-126639580D01*
X121589847Y-125734819D02*
X121637466Y-125687200D01*
X121732704Y-125639580D01*
X121970800Y-125639580D01*
X122066038Y-125687200D01*
X122113657Y-125734819D01*
X122161276Y-125830057D01*
X122161276Y-125925295D01*
X122113657Y-126068152D01*
X121542228Y-126639580D01*
X122161276Y-126639580D01*
X123066038Y-125639580D02*
X122589847Y-125639580D01*
X122542228Y-126115771D01*
X122589847Y-126068152D01*
X122685085Y-126020533D01*
X122923180Y-126020533D01*
X123018419Y-126068152D01*
X123066038Y-126115771D01*
X123113657Y-126211009D01*
X123113657Y-126449104D01*
X123066038Y-126544342D01*
X123018419Y-126591961D01*
X122923180Y-126639580D01*
X122685085Y-126639580D01*
X122589847Y-126591961D01*
X122542228Y-126544342D01*
X117842466Y-137137800D02*
X117842466Y-137537800D01*
X117842466Y-137337800D02*
X117142466Y-137337800D01*
X117242466Y-137404466D01*
X117309133Y-137471133D01*
X117342466Y-137537800D01*
X117867866Y-129851133D02*
X117867866Y-130251133D01*
X117867866Y-130051133D02*
X117167866Y-130051133D01*
X117267866Y-130117800D01*
X117334533Y-130184466D01*
X117367866Y-130251133D01*
X117167866Y-129417800D02*
X117167866Y-129351133D01*
X117201200Y-129284466D01*
X117234533Y-129251133D01*
X117301200Y-129217800D01*
X117434533Y-129184466D01*
X117601200Y-129184466D01*
X117734533Y-129217800D01*
X117801200Y-129251133D01*
X117834533Y-129284466D01*
X117867866Y-129351133D01*
X117867866Y-129417800D01*
X117834533Y-129484466D01*
X117801200Y-129517800D01*
X117734533Y-129551133D01*
X117601200Y-129584466D01*
X117434533Y-129584466D01*
X117301200Y-129551133D01*
X117234533Y-129517800D01*
X117201200Y-129484466D01*
X117167866Y-129417800D01*
X158931076Y-135748780D02*
X158931076Y-136463066D01*
X158883457Y-136605923D01*
X158788219Y-136701161D01*
X158645361Y-136748780D01*
X158550123Y-136748780D01*
X159312028Y-135748780D02*
X159931076Y-135748780D01*
X159597742Y-136129733D01*
X159740600Y-136129733D01*
X159835838Y-136177352D01*
X159883457Y-136224971D01*
X159931076Y-136320209D01*
X159931076Y-136558304D01*
X159883457Y-136653542D01*
X159835838Y-136701161D01*
X159740600Y-136748780D01*
X159454885Y-136748780D01*
X159359647Y-136701161D01*
X159312028Y-136653542D01*
X160550123Y-135748780D02*
X160645361Y-135748780D01*
X160740600Y-135796400D01*
X160788219Y-135844019D01*
X160835838Y-135939257D01*
X160883457Y-136129733D01*
X160883457Y-136367828D01*
X160835838Y-136558304D01*
X160788219Y-136653542D01*
X160740600Y-136701161D01*
X160645361Y-136748780D01*
X160550123Y-136748780D01*
X160454885Y-136701161D01*
X160407266Y-136653542D01*
X160359647Y-136558304D01*
X160312028Y-136367828D01*
X160312028Y-136129733D01*
X160359647Y-135939257D01*
X160407266Y-135844019D01*
X160454885Y-135796400D01*
X160550123Y-135748780D01*
X125133266Y-89990561D02*
X125276123Y-90038180D01*
X125514219Y-90038180D01*
X125609457Y-89990561D01*
X125657076Y-89942942D01*
X125704695Y-89847704D01*
X125704695Y-89752466D01*
X125657076Y-89657228D01*
X125609457Y-89609609D01*
X125514219Y-89561990D01*
X125323742Y-89514371D01*
X125228504Y-89466752D01*
X125180885Y-89419133D01*
X125133266Y-89323895D01*
X125133266Y-89228657D01*
X125180885Y-89133419D01*
X125228504Y-89085800D01*
X125323742Y-89038180D01*
X125561838Y-89038180D01*
X125704695Y-89085800D01*
X126038028Y-89038180D02*
X126276123Y-90038180D01*
X126466600Y-89323895D01*
X126657076Y-90038180D01*
X126895171Y-89038180D01*
X127799933Y-90038180D02*
X127228504Y-90038180D01*
X127514219Y-90038180D02*
X127514219Y-89038180D01*
X127418980Y-89181038D01*
X127323742Y-89276276D01*
X127228504Y-89323895D01*
X128674785Y-109778776D02*
X128008119Y-109778776D01*
X129055738Y-109540680D02*
X128341452Y-109302585D01*
X128341452Y-109921633D01*
X129008119Y-104174966D02*
X129008119Y-104794014D01*
X128627166Y-104460680D01*
X128627166Y-104603538D01*
X128579547Y-104698776D01*
X128531928Y-104746395D01*
X128436690Y-104794014D01*
X128198595Y-104794014D01*
X128103357Y-104746395D01*
X128055738Y-104698776D01*
X128008119Y-104603538D01*
X128008119Y-104317823D01*
X128055738Y-104222585D01*
X128103357Y-104174966D01*
X128912880Y-99142585D02*
X128960500Y-99190204D01*
X129008119Y-99285442D01*
X129008119Y-99523538D01*
X128960500Y-99618776D01*
X128912880Y-99666395D01*
X128817642Y-99714014D01*
X128722404Y-99714014D01*
X128579547Y-99666395D01*
X128008119Y-99094966D01*
X128008119Y-99714014D01*
X125102880Y-97666585D02*
X125150500Y-97714204D01*
X125198119Y-97809442D01*
X125198119Y-98047538D01*
X125150500Y-98142776D01*
X125102880Y-98190395D01*
X125007642Y-98238014D01*
X124912404Y-98238014D01*
X124769547Y-98190395D01*
X124198119Y-97618966D01*
X124198119Y-98238014D01*
X125198119Y-98857061D02*
X125198119Y-98952300D01*
X125150500Y-99047538D01*
X125102880Y-99095157D01*
X125007642Y-99142776D01*
X124817166Y-99190395D01*
X124579071Y-99190395D01*
X124388595Y-99142776D01*
X124293357Y-99095157D01*
X124245738Y-99047538D01*
X124198119Y-98952300D01*
X124198119Y-98857061D01*
X124245738Y-98761823D01*
X124293357Y-98714204D01*
X124388595Y-98666585D01*
X124579071Y-98618966D01*
X124817166Y-98618966D01*
X125007642Y-98666585D01*
X125102880Y-98714204D01*
X125150500Y-98761823D01*
X125198119Y-98857061D01*
X125198119Y-100047538D02*
X125198119Y-99857061D01*
X125150500Y-99761823D01*
X125102880Y-99714204D01*
X124960023Y-99618966D01*
X124769547Y-99571347D01*
X124388595Y-99571347D01*
X124293357Y-99618966D01*
X124245738Y-99666585D01*
X124198119Y-99761823D01*
X124198119Y-99952300D01*
X124245738Y-100047538D01*
X124293357Y-100095157D01*
X124388595Y-100142776D01*
X124626690Y-100142776D01*
X124721928Y-100095157D01*
X124769547Y-100047538D01*
X124817166Y-99952300D01*
X124817166Y-99761823D01*
X124769547Y-99666585D01*
X124721928Y-99618966D01*
X124626690Y-99571347D01*
X124579071Y-100571347D02*
X124579071Y-101333252D01*
X124198119Y-102333252D02*
X124198119Y-101761823D01*
X124198119Y-102047538D02*
X125198119Y-102047538D01*
X125055261Y-101952300D01*
X124960023Y-101857061D01*
X124912404Y-101761823D01*
X125102880Y-102714204D02*
X125150500Y-102761823D01*
X125198119Y-102857061D01*
X125198119Y-103095157D01*
X125150500Y-103190395D01*
X125102880Y-103238014D01*
X125007642Y-103285633D01*
X124912404Y-103285633D01*
X124769547Y-103238014D01*
X124198119Y-102666585D01*
X124198119Y-103285633D01*
X124864785Y-104142776D02*
X124198119Y-104142776D01*
X125245738Y-103904680D02*
X124531452Y-103666585D01*
X124531452Y-104285633D01*
X124293357Y-93800680D02*
X124245738Y-93753061D01*
X124198119Y-93610204D01*
X124198119Y-93514966D01*
X124245738Y-93372109D01*
X124340976Y-93276871D01*
X124436214Y-93229252D01*
X124626690Y-93181633D01*
X124769547Y-93181633D01*
X124960023Y-93229252D01*
X125055261Y-93276871D01*
X125150500Y-93372109D01*
X125198119Y-93514966D01*
X125198119Y-93610204D01*
X125150500Y-93753061D01*
X125102880Y-93800680D01*
X125198119Y-94086395D02*
X125198119Y-94657823D01*
X124198119Y-94372109D02*
X125198119Y-94372109D01*
X124245738Y-94943538D02*
X124198119Y-95086395D01*
X124198119Y-95324490D01*
X124245738Y-95419728D01*
X124293357Y-95467347D01*
X124388595Y-95514966D01*
X124483833Y-95514966D01*
X124579071Y-95467347D01*
X124626690Y-95419728D01*
X124674309Y-95324490D01*
X124721928Y-95134014D01*
X124769547Y-95038776D01*
X124817166Y-94991157D01*
X124912404Y-94943538D01*
X125007642Y-94943538D01*
X125102880Y-94991157D01*
X125150500Y-95038776D01*
X125198119Y-95134014D01*
X125198119Y-95372109D01*
X125150500Y-95514966D01*
X128008119Y-94634014D02*
X128008119Y-94062585D01*
X128008119Y-94348300D02*
X129008119Y-94348300D01*
X128865261Y-94253061D01*
X128770023Y-94157823D01*
X128722404Y-94062585D01*
X102900254Y-58883485D02*
X102519302Y-59150152D01*
X102900254Y-59340628D02*
X102100254Y-59340628D01*
X102100254Y-59035866D01*
X102138350Y-58959676D01*
X102176445Y-58921580D01*
X102252635Y-58883485D01*
X102366921Y-58883485D01*
X102443111Y-58921580D01*
X102481207Y-58959676D01*
X102519302Y-59035866D01*
X102519302Y-59340628D01*
X102176445Y-58578723D02*
X102138350Y-58540628D01*
X102100254Y-58464438D01*
X102100254Y-58273961D01*
X102138350Y-58197771D01*
X102176445Y-58159676D01*
X102252635Y-58121580D01*
X102328826Y-58121580D01*
X102443111Y-58159676D01*
X102900254Y-58616819D01*
X102900254Y-58121580D01*
X102443111Y-57664438D02*
X102405016Y-57740628D01*
X102366921Y-57778723D01*
X102290730Y-57816819D01*
X102252635Y-57816819D01*
X102176445Y-57778723D01*
X102138350Y-57740628D01*
X102100254Y-57664438D01*
X102100254Y-57512057D01*
X102138350Y-57435866D01*
X102176445Y-57397771D01*
X102252635Y-57359676D01*
X102290730Y-57359676D01*
X102366921Y-57397771D01*
X102405016Y-57435866D01*
X102443111Y-57512057D01*
X102443111Y-57664438D01*
X102481207Y-57740628D01*
X102519302Y-57778723D01*
X102595492Y-57816819D01*
X102747873Y-57816819D01*
X102824064Y-57778723D01*
X102862159Y-57740628D01*
X102900254Y-57664438D01*
X102900254Y-57512057D01*
X102862159Y-57435866D01*
X102824064Y-57397771D01*
X102747873Y-57359676D01*
X102595492Y-57359676D01*
X102519302Y-57397771D01*
X102481207Y-57435866D01*
X102443111Y-57512057D01*
X106208604Y-58883485D02*
X105827652Y-59150152D01*
X106208604Y-59340628D02*
X105408604Y-59340628D01*
X105408604Y-59035866D01*
X105446700Y-58959676D01*
X105484795Y-58921580D01*
X105560985Y-58883485D01*
X105675271Y-58883485D01*
X105751461Y-58921580D01*
X105789557Y-58959676D01*
X105827652Y-59035866D01*
X105827652Y-59340628D01*
X105484795Y-58578723D02*
X105446700Y-58540628D01*
X105408604Y-58464438D01*
X105408604Y-58273961D01*
X105446700Y-58197771D01*
X105484795Y-58159676D01*
X105560985Y-58121580D01*
X105637176Y-58121580D01*
X105751461Y-58159676D01*
X106208604Y-58616819D01*
X106208604Y-58121580D01*
X105408604Y-57854914D02*
X105408604Y-57321580D01*
X106208604Y-57664438D01*
X109516954Y-58883485D02*
X109136002Y-59150152D01*
X109516954Y-59340628D02*
X108716954Y-59340628D01*
X108716954Y-59035866D01*
X108755050Y-58959676D01*
X108793145Y-58921580D01*
X108869335Y-58883485D01*
X108983621Y-58883485D01*
X109059811Y-58921580D01*
X109097907Y-58959676D01*
X109136002Y-59035866D01*
X109136002Y-59340628D01*
X108793145Y-58578723D02*
X108755050Y-58540628D01*
X108716954Y-58464438D01*
X108716954Y-58273961D01*
X108755050Y-58197771D01*
X108793145Y-58159676D01*
X108869335Y-58121580D01*
X108945526Y-58121580D01*
X109059811Y-58159676D01*
X109516954Y-58616819D01*
X109516954Y-58121580D01*
X108716954Y-57435866D02*
X108716954Y-57588247D01*
X108755050Y-57664438D01*
X108793145Y-57702533D01*
X108907430Y-57778723D01*
X109059811Y-57816819D01*
X109364573Y-57816819D01*
X109440764Y-57778723D01*
X109478859Y-57740628D01*
X109516954Y-57664438D01*
X109516954Y-57512057D01*
X109478859Y-57435866D01*
X109440764Y-57397771D01*
X109364573Y-57359676D01*
X109174097Y-57359676D01*
X109097907Y-57397771D01*
X109059811Y-57435866D01*
X109021716Y-57512057D01*
X109021716Y-57664438D01*
X109059811Y-57740628D01*
X109097907Y-57778723D01*
X109174097Y-57816819D01*
X112825304Y-58883485D02*
X112444352Y-59150152D01*
X112825304Y-59340628D02*
X112025304Y-59340628D01*
X112025304Y-59035866D01*
X112063400Y-58959676D01*
X112101495Y-58921580D01*
X112177685Y-58883485D01*
X112291971Y-58883485D01*
X112368161Y-58921580D01*
X112406257Y-58959676D01*
X112444352Y-59035866D01*
X112444352Y-59340628D01*
X112101495Y-58578723D02*
X112063400Y-58540628D01*
X112025304Y-58464438D01*
X112025304Y-58273961D01*
X112063400Y-58197771D01*
X112101495Y-58159676D01*
X112177685Y-58121580D01*
X112253876Y-58121580D01*
X112368161Y-58159676D01*
X112825304Y-58616819D01*
X112825304Y-58121580D01*
X112025304Y-57397771D02*
X112025304Y-57778723D01*
X112406257Y-57816819D01*
X112368161Y-57778723D01*
X112330066Y-57702533D01*
X112330066Y-57512057D01*
X112368161Y-57435866D01*
X112406257Y-57397771D01*
X112482447Y-57359676D01*
X112672923Y-57359676D01*
X112749114Y-57397771D01*
X112787209Y-57435866D01*
X112825304Y-57512057D01*
X112825304Y-57702533D01*
X112787209Y-57778723D01*
X112749114Y-57816819D01*
X194287876Y-135275580D02*
X194287876Y-134275580D01*
X194621209Y-134989866D01*
X194954542Y-134275580D01*
X194954542Y-135275580D01*
X195954542Y-135275580D02*
X195383114Y-135275580D01*
X195668828Y-135275580D02*
X195668828Y-134275580D01*
X195573590Y-134418438D01*
X195478352Y-134513676D01*
X195383114Y-134561295D01*
X142552800Y-103133400D02*
X142505180Y-103228638D01*
X142505180Y-103371495D01*
X142552800Y-103514352D01*
X142648038Y-103609590D01*
X142743276Y-103657209D01*
X142933752Y-103704828D01*
X143076609Y-103704828D01*
X143267085Y-103657209D01*
X143362323Y-103609590D01*
X143457561Y-103514352D01*
X143505180Y-103371495D01*
X143505180Y-103276257D01*
X143457561Y-103133400D01*
X143409942Y-103085780D01*
X143076609Y-103085780D01*
X143076609Y-103276257D01*
X143505180Y-102657209D02*
X142505180Y-102657209D01*
X142505180Y-102276257D01*
X142552800Y-102181019D01*
X142600419Y-102133400D01*
X142695657Y-102085780D01*
X142838514Y-102085780D01*
X142933752Y-102133400D01*
X142981371Y-102181019D01*
X143028990Y-102276257D01*
X143028990Y-102657209D01*
X143505180Y-101657209D02*
X142505180Y-101657209D01*
X142505180Y-100990542D02*
X142505180Y-100800066D01*
X142552800Y-100704828D01*
X142648038Y-100609590D01*
X142838514Y-100561971D01*
X143171847Y-100561971D01*
X143362323Y-100609590D01*
X143457561Y-100704828D01*
X143505180Y-100800066D01*
X143505180Y-100990542D01*
X143457561Y-101085780D01*
X143362323Y-101181019D01*
X143171847Y-101228638D01*
X142838514Y-101228638D01*
X142648038Y-101181019D01*
X142552800Y-101085780D01*
X142505180Y-100990542D01*
X183700895Y-55865780D02*
X183700895Y-56675304D01*
X183748514Y-56770542D01*
X183796133Y-56818161D01*
X183891371Y-56865780D01*
X184081847Y-56865780D01*
X184177085Y-56818161D01*
X184224704Y-56770542D01*
X184272323Y-56675304D01*
X184272323Y-55865780D01*
X184700895Y-56818161D02*
X184843752Y-56865780D01*
X185081847Y-56865780D01*
X185177085Y-56818161D01*
X185224704Y-56770542D01*
X185272323Y-56675304D01*
X185272323Y-56580066D01*
X185224704Y-56484828D01*
X185177085Y-56437209D01*
X185081847Y-56389590D01*
X184891371Y-56341971D01*
X184796133Y-56294352D01*
X184748514Y-56246733D01*
X184700895Y-56151495D01*
X184700895Y-56056257D01*
X184748514Y-55961019D01*
X184796133Y-55913400D01*
X184891371Y-55865780D01*
X185129466Y-55865780D01*
X185272323Y-55913400D01*
X186034228Y-56341971D02*
X186177085Y-56389590D01*
X186224704Y-56437209D01*
X186272323Y-56532447D01*
X186272323Y-56675304D01*
X186224704Y-56770542D01*
X186177085Y-56818161D01*
X186081847Y-56865780D01*
X185700895Y-56865780D01*
X185700895Y-55865780D01*
X186034228Y-55865780D01*
X186129466Y-55913400D01*
X186177085Y-55961019D01*
X186224704Y-56056257D01*
X186224704Y-56151495D01*
X186177085Y-56246733D01*
X186129466Y-56294352D01*
X186034228Y-56341971D01*
X185700895Y-56341971D01*
X165920895Y-55865780D02*
X165920895Y-56675304D01*
X165968514Y-56770542D01*
X166016133Y-56818161D01*
X166111371Y-56865780D01*
X166301847Y-56865780D01*
X166397085Y-56818161D01*
X166444704Y-56770542D01*
X166492323Y-56675304D01*
X166492323Y-55865780D01*
X166920895Y-56818161D02*
X167063752Y-56865780D01*
X167301847Y-56865780D01*
X167397085Y-56818161D01*
X167444704Y-56770542D01*
X167492323Y-56675304D01*
X167492323Y-56580066D01*
X167444704Y-56484828D01*
X167397085Y-56437209D01*
X167301847Y-56389590D01*
X167111371Y-56341971D01*
X167016133Y-56294352D01*
X166968514Y-56246733D01*
X166920895Y-56151495D01*
X166920895Y-56056257D01*
X166968514Y-55961019D01*
X167016133Y-55913400D01*
X167111371Y-55865780D01*
X167349466Y-55865780D01*
X167492323Y-55913400D01*
X168254228Y-56341971D02*
X168397085Y-56389590D01*
X168444704Y-56437209D01*
X168492323Y-56532447D01*
X168492323Y-56675304D01*
X168444704Y-56770542D01*
X168397085Y-56818161D01*
X168301847Y-56865780D01*
X167920895Y-56865780D01*
X167920895Y-55865780D01*
X168254228Y-55865780D01*
X168349466Y-55913400D01*
X168397085Y-55961019D01*
X168444704Y-56056257D01*
X168444704Y-56151495D01*
X168397085Y-56246733D01*
X168349466Y-56294352D01*
X168254228Y-56341971D01*
X167920895Y-56341971D01*
X143180228Y-56595971D02*
X143513561Y-56595971D01*
X143656419Y-57119780D02*
X143180228Y-57119780D01*
X143180228Y-56119780D01*
X143656419Y-56119780D01*
X143942133Y-56119780D02*
X144513561Y-56119780D01*
X144227847Y-57119780D02*
X144227847Y-56119780D01*
X144846895Y-57119780D02*
X144846895Y-56119780D01*
X144846895Y-56595971D02*
X145418323Y-56595971D01*
X145418323Y-57119780D02*
X145418323Y-56119780D01*
X145894514Y-56595971D02*
X146227847Y-56595971D01*
X146370704Y-57119780D02*
X145894514Y-57119780D01*
X145894514Y-56119780D01*
X146370704Y-56119780D01*
X147370704Y-57119780D02*
X147037371Y-56643590D01*
X146799276Y-57119780D02*
X146799276Y-56119780D01*
X147180228Y-56119780D01*
X147275466Y-56167400D01*
X147323085Y-56215019D01*
X147370704Y-56310257D01*
X147370704Y-56453114D01*
X147323085Y-56548352D01*
X147275466Y-56595971D01*
X147180228Y-56643590D01*
X146799276Y-56643590D01*
X147799276Y-57119780D02*
X147799276Y-56119780D01*
X148370704Y-57119780D01*
X148370704Y-56119780D01*
X148846895Y-56595971D02*
X149180228Y-56595971D01*
X149323085Y-57119780D02*
X148846895Y-57119780D01*
X148846895Y-56119780D01*
X149323085Y-56119780D01*
X149608800Y-56119780D02*
X150180228Y-56119780D01*
X149894514Y-57119780D02*
X149894514Y-56119780D01*
X191019180Y-124143685D02*
X191828704Y-124143685D01*
X191923942Y-124096066D01*
X191971561Y-124048447D01*
X192019180Y-123953209D01*
X192019180Y-123762733D01*
X191971561Y-123667495D01*
X191923942Y-123619876D01*
X191828704Y-123572257D01*
X191019180Y-123572257D01*
X191971561Y-123143685D02*
X192019180Y-123000828D01*
X192019180Y-122762733D01*
X191971561Y-122667495D01*
X191923942Y-122619876D01*
X191828704Y-122572257D01*
X191733466Y-122572257D01*
X191638228Y-122619876D01*
X191590609Y-122667495D01*
X191542990Y-122762733D01*
X191495371Y-122953209D01*
X191447752Y-123048447D01*
X191400133Y-123096066D01*
X191304895Y-123143685D01*
X191209657Y-123143685D01*
X191114419Y-123096066D01*
X191066800Y-123048447D01*
X191019180Y-122953209D01*
X191019180Y-122715114D01*
X191066800Y-122572257D01*
X191495371Y-121810352D02*
X191542990Y-121667495D01*
X191590609Y-121619876D01*
X191685847Y-121572257D01*
X191828704Y-121572257D01*
X191923942Y-121619876D01*
X191971561Y-121667495D01*
X192019180Y-121762733D01*
X192019180Y-122143685D01*
X191019180Y-122143685D01*
X191019180Y-121810352D01*
X191066800Y-121715114D01*
X191114419Y-121667495D01*
X191209657Y-121619876D01*
X191304895Y-121619876D01*
X191400133Y-121667495D01*
X191447752Y-121715114D01*
X191495371Y-121810352D01*
X191495371Y-122143685D01*
X192019180Y-120381780D02*
X191019180Y-120381780D01*
X191019180Y-120000828D01*
X191066800Y-119905590D01*
X191114419Y-119857971D01*
X191209657Y-119810352D01*
X191352514Y-119810352D01*
X191447752Y-119857971D01*
X191495371Y-119905590D01*
X191542990Y-120000828D01*
X191542990Y-120381780D01*
X191019180Y-119477019D02*
X192019180Y-119238923D01*
X191304895Y-119048447D01*
X192019180Y-118857971D01*
X191019180Y-118619876D01*
X192019180Y-117667495D02*
X191542990Y-118000828D01*
X192019180Y-118238923D02*
X191019180Y-118238923D01*
X191019180Y-117857971D01*
X191066800Y-117762733D01*
X191114419Y-117715114D01*
X191209657Y-117667495D01*
X191352514Y-117667495D01*
X191447752Y-117715114D01*
X191495371Y-117762733D01*
X191542990Y-117857971D01*
X191542990Y-118238923D01*
X190749180Y-95600638D02*
X189749180Y-95600638D01*
X190225371Y-95600638D02*
X190225371Y-95029209D01*
X190749180Y-95029209D02*
X189749180Y-95029209D01*
X190749180Y-94553019D02*
X189749180Y-94553019D01*
X189749180Y-94314923D01*
X189796800Y-94172066D01*
X189892038Y-94076828D01*
X189987276Y-94029209D01*
X190177752Y-93981590D01*
X190320609Y-93981590D01*
X190511085Y-94029209D01*
X190606323Y-94076828D01*
X190701561Y-94172066D01*
X190749180Y-94314923D01*
X190749180Y-94553019D01*
X190749180Y-93553019D02*
X189749180Y-93553019D01*
X190463466Y-93219685D01*
X189749180Y-92886352D01*
X190749180Y-92886352D01*
X190749180Y-92410161D02*
X189749180Y-92410161D01*
M02*
