<?xml version="1.0"?>
<!DOCTYPE svg PUBLIC "-//W3C//DTD SVG 1.1//EN" "http://www.w3.org/Graphics/SVG/1.1/DTD/svg11.dtd">
<svg width="259.08mm" height="120.08mm" viewBox="0 0 259.08 120.08" xmlns="http://www.w3.org/2000/svg" version="1.1">
<g id="Sketch009" transform="translate(129.540000,58.540000) scale(1,-1)">
<path id="Sketch009_w0000"  d="M 83.49999999999994 56.0 L 127.0 56.0 L 127.0 -59.0 L -127.0 -59.0 L -127.0 56.0 L -83.5 56.0 L -83.5 49.5 A 1 1 0 0 1 -82.5 48.5L -76.25000000000003 48.5 L -76.25000000000003 44.0 A 4.25 4.25 0 0 1 -67.75 44L -67.75000000000003 48.49999999999997 L -66.5 48.499999999999936 L -66.5 45.0 A 1 1 0 0 1 -65.5 44L -62.5 44.0 A 1 1 0 0 1 -61.5 45L -61.5 48.499999999999936 L -60.24999999999997 48.49999999999997 L -60.24999999999997 43.99999999999997 A 4.25 4.25 0 0 1 -51.75 44L -51.74999999999997 48.49999999999999 L -45.5 48.49999999999999 A 1 1 0 0 1 -44.5 49.5L -44.5 56.0 L 44.50000000000008 56.0 L 44.50000000000007 49.49999999999999 A 1 1 0 0 1 45.5 48.5L 51.75000000000004 48.49999999999999 L 51.75000000000004 43.99999999999999 A 4.25 4.25 0 0 1 60.25 44L 60.25000000000004 48.49999999999999 L 61.5 48.49999999999998 L 61.5 44.99999999999999 A 1 1 0 0 1 62.5 44L 65.5 43.99999999999999 A 1 1 0 0 1 66.5 45L 66.5 48.49999999999998 L 67.74999999999996 48.49999999999999 L 67.74999999999996 43.99999999999999 A 4.25 4.25 0 0 1 76.25 44L 76.24999999999996 48.49999999999999 L 82.49999999999994 48.49999999999999 A 1 1 0 0 1 83.5 49.5L 83.49999999999994 56.0 " stroke="#000000" stroke-width="0.35 px" style="stroke-width:0.35;stroke-miterlimit:4;stroke-dasharray:none;stroke-linecap:square;fill:none;fill-opacity:1;fill-rule: evenodd"/>
<circle cx="-120.0" cy="36.0" r="2.0" stroke="#000000" stroke-width="0.35 px" style="stroke-width:0.35;stroke-miterlimit:4;stroke-dasharray:none;stroke-linecap:square;fill:none"/>
<circle cx="-120.0" cy="-36.0" r="2.0" stroke="#000000" stroke-width="0.35 px" style="stroke-width:0.35;stroke-miterlimit:4;stroke-dasharray:none;stroke-linecap:square;fill:none"/>
<circle cx="120.0" cy="36.0" r="2.0" stroke="#000000" stroke-width="0.35 px" style="stroke-width:0.35;stroke-miterlimit:4;stroke-dasharray:none;stroke-linecap:square;fill:none"/>
<circle cx="120.0" cy="-36.0" r="2.0" stroke="#000000" stroke-width="0.35 px" style="stroke-width:0.35;stroke-miterlimit:4;stroke-dasharray:none;stroke-linecap:square;fill:none"/>
<path id="Sketch009_w0005"  d="M 25.25 32.0 L 112.0 32.0 L 112.0 -14.0 L 25.25 -14.0 L 25.25 32.0 " stroke="#000000" stroke-width="0.35 px" style="stroke-width:0.35;stroke-miterlimit:4;stroke-dasharray:none;stroke-linecap:square;fill:none;fill-opacity:1;fill-rule: evenodd"/>
<circle cx="-96.0" cy="36.0" r="12.7" stroke="#000000" stroke-width="0.35 px" style="stroke-width:0.35;stroke-miterlimit:4;stroke-dasharray:none;stroke-linecap:square;fill:none"/>
<circle cx="0.0" cy="52.0" r="2.0" stroke="#000000" stroke-width="0.35 px" style="stroke-width:0.35;stroke-miterlimit:4;stroke-dasharray:none;stroke-linecap:square;fill:none"/>
<circle cx="0.0" cy="-52.0" r="2.0" stroke="#000000" stroke-width="0.35 px" style="stroke-width:0.35;stroke-miterlimit:4;stroke-dasharray:none;stroke-linecap:square;fill:none"/>
<title>b'Back_Plate_Standoff'</title>
</g>
</svg>